<?xml version="1.0" encoding="UTF-8" standalone="no"?>
<!DOCTYPE svg PUBLIC "-//W3C//DTD SVG 1.1//EN"
 "http://www.w3.org/Graphics/SVG/1.1/DTD/svg11.dtd">
<!-- Generated by graphviz version 2.49.3 (0)
 -->
<!-- Title: Secondary Structure Utilities Pages: 1 -->
<svg width="394pt" height="445pt"
 viewBox="0.00 0.00 394.00 444.50" xmlns="http://www.w3.org/2000/svg" xmlns:xlink="http://www.w3.org/1999/xlink">
<g id="graph0" class="graph" transform="scale(1 1) rotate(0) translate(4 440.5)">
<title>Secondary Structure Utilities</title>
<!-- Node6 -->
<g id="node1" class="node">
<title>Node6</title>
<g id="a_node1"><a xlink:href="group__struct__utils__plist.html" target="_top" xlink:title=" ">
<polygon fill="none" stroke="black" points="369.5,-436.5 244.5,-436.5 244.5,-406.5 369.5,-406.5 369.5,-436.5"/>
<text text-anchor="start" x="252.5" y="-424.5" font-family="Helvetica,sans-Serif" font-size="10.00">Pair List Representation</text>
<text text-anchor="middle" x="307" y="-413.5" font-family="Helvetica,sans-Serif" font-size="10.00"> of Secondary Structures</text>
</a>
</g>
</g>
<!-- Node9 -->
<g id="node2" class="node">
<title>Node9</title>
<g id="a_node2"><a xlink:href="group__struct__utils__tree.html" target="_top" xlink:title="Secondary structures can be readily represented as trees, where internal nodes represent base pairs,...">
<polygon fill="none" stroke="black" points="369.5,-388.5 244.5,-388.5 244.5,-358.5 369.5,-358.5 369.5,-388.5"/>
<text text-anchor="start" x="252.5" y="-376.5" font-family="Helvetica,sans-Serif" font-size="10.00">Tree Representation</text>
<text text-anchor="middle" x="307" y="-365.5" font-family="Helvetica,sans-Serif" font-size="10.00"> of Secondary Structures</text>
</a>
</g>
</g>
<!-- Node3 -->
<g id="node3" class="node">
<title>Node3</title>
<g id="a_node3"><a xlink:href="group__struct__utils__dot__bracket.html" target="_top" xlink:title="The Dot&#45;Bracket notation as introduced already in the early times of the ViennaRNA Package denotes ba...">
<polygon fill="none" stroke="black" points="369.5,-340.5 244.5,-340.5 244.5,-310.5 369.5,-310.5 369.5,-340.5"/>
<text text-anchor="start" x="252.5" y="-328.5" font-family="Helvetica,sans-Serif" font-size="10.00">Dot&#45;Bracket Notation</text>
<text text-anchor="middle" x="307" y="-317.5" font-family="Helvetica,sans-Serif" font-size="10.00"> of Secondary Structures</text>
</a>
</g>
</g>
<!-- Node7 -->
<g id="node4" class="node">
<title>Node7</title>
<g id="a_node4"><a xlink:href="group__struct__utils__abstract__shapes.html" target="_top" xlink:title="Abstract Shapes, introduced by Giegerich et al. in (2004) , collapse the secondary structure while re...">
<polygon fill="none" stroke="black" points="386,-292.5 228,-292.5 228,-262.5 386,-262.5 386,-292.5"/>
<text text-anchor="start" x="236" y="-280.5" font-family="Helvetica,sans-Serif" font-size="10.00">Abstract Shapes Representation</text>
<text text-anchor="middle" x="307" y="-269.5" font-family="Helvetica,sans-Serif" font-size="10.00"> of Secondary Structures</text>
</a>
</g>
</g>
<!-- Node1 -->
<g id="node5" class="node">
<title>Node1</title>
<g id="a_node5"><a xlink:title="Functions to create, parse, convert, manipulate, and compare secondary structure representations.">
<polygon fill="#bfbfbf" stroke="black" points="192,-244.5 86,-244.5 86,-214.5 192,-214.5 192,-244.5"/>
<text text-anchor="start" x="94" y="-232.5" font-family="Helvetica,sans-Serif" font-size="10.00">Secondary Structure</text>
<text text-anchor="middle" x="139" y="-221.5" font-family="Helvetica,sans-Serif" font-size="10.00"> Utilities</text>
</a>
</g>
</g>
<!-- Node1&#45;&gt;Node6 -->
<g id="edge5" class="edge">
<title>Node1&#45;&gt;Node6</title>
<path fill="none" stroke="black" d="M146.41,-254.43C157.12,-291.11 182.14,-359.38 228,-397.5 232.9,-401.58 238.49,-404.96 244.38,-407.77"/>
<polygon fill="black" stroke="black" points="149.71,-253.24 143.65,-244.55 142.97,-255.12 149.71,-253.24"/>
</g>
<!-- Node1&#45;&gt;Node9 -->
<g id="edge8" class="edge">
<title>Node1&#45;&gt;Node9</title>
<path fill="none" stroke="black" d="M151.88,-254.08C166.25,-281.28 192.94,-324.56 228,-349.5 232.96,-353.03 238.46,-356.05 244.17,-358.64"/>
<polygon fill="black" stroke="black" points="154.83,-252.15 147.15,-244.85 148.6,-255.35 154.83,-252.15"/>
</g>
<!-- Node1&#45;&gt;Node3 -->
<g id="edge2" class="edge">
<title>Node1&#45;&gt;Node3</title>
<path fill="none" stroke="black" d="M162.49,-252.09C179.29,-267.86 203.48,-288.35 228,-301.5 234.24,-304.85 241.02,-307.8 247.89,-310.39"/>
<polygon fill="black" stroke="black" points="164.51,-249.18 154.87,-244.79 159.67,-254.23 164.51,-249.18"/>
</g>
<!-- Node1&#45;&gt;Node7 -->
<g id="edge6" class="edge">
<title>Node1&#45;&gt;Node7</title>
<path fill="none" stroke="black" d="M202,-247.43C219.16,-252.39 237.6,-257.72 254.12,-262.5"/>
<polygon fill="black" stroke="black" points="202.65,-243.97 192.07,-244.56 200.7,-250.7 202.65,-243.97"/>
</g>
<!-- Node5 -->
<g id="node6" class="node">
<title>Node5</title>
<g id="a_node6"><a xlink:href="group__struct__utils__pair__table.html" target="_top" xlink:title=" ">
<polygon fill="none" stroke="black" points="371.5,-244.5 242.5,-244.5 242.5,-214.5 371.5,-214.5 371.5,-244.5"/>
<text text-anchor="start" x="250.5" y="-232.5" font-family="Helvetica,sans-Serif" font-size="10.00">Pair Table Representation</text>
<text text-anchor="middle" x="307" y="-221.5" font-family="Helvetica,sans-Serif" font-size="10.00"> of Secondary Structures</text>
</a>
</g>
</g>
<!-- Node1&#45;&gt;Node5 -->
<g id="edge4" class="edge">
<title>Node1&#45;&gt;Node5</title>
<path fill="none" stroke="black" d="M202.39,-229.5C215.48,-229.5 229.31,-229.5 242.45,-229.5"/>
<polygon fill="black" stroke="black" points="202.07,-226 192.07,-229.5 202.07,-233 202.07,-226"/>
</g>
<!-- Node10 -->
<g id="node8" class="node">
<title>Node10</title>
<g id="a_node8"><a xlink:href="group__struct__utils__metrics.html" target="_top" xlink:title=" ">
<polygon fill="none" stroke="black" points="377.5,-196.5 236.5,-196.5 236.5,-166.5 377.5,-166.5 377.5,-196.5"/>
<text text-anchor="start" x="244.5" y="-184.5" font-family="Helvetica,sans-Serif" font-size="10.00">Distance measures between</text>
<text text-anchor="middle" x="307" y="-173.5" font-family="Helvetica,sans-Serif" font-size="10.00"> Secondary Structures</text>
</a>
</g>
</g>
<!-- Node1&#45;&gt;Node10 -->
<g id="edge9" class="edge">
<title>Node1&#45;&gt;Node10</title>
<path fill="none" stroke="black" d="M202,-211.57C219.16,-206.61 237.6,-201.28 254.12,-196.5"/>
<polygon fill="black" stroke="black" points="200.7,-208.3 192.07,-214.44 202.65,-215.03 200.7,-208.3"/>
</g>
<!-- Node8 -->
<g id="node9" class="node">
<title>Node8</title>
<g id="a_node9"><a xlink:href="group__struct__utils__helix__list.html" target="_top" xlink:title=" ">
<polygon fill="none" stroke="black" points="370.5,-148.5 243.5,-148.5 243.5,-118.5 370.5,-118.5 370.5,-148.5"/>
<text text-anchor="start" x="251.5" y="-136.5" font-family="Helvetica,sans-Serif" font-size="10.00">Helix List Representation</text>
<text text-anchor="middle" x="307" y="-125.5" font-family="Helvetica,sans-Serif" font-size="10.00"> of Secondary Structures</text>
</a>
</g>
</g>
<!-- Node1&#45;&gt;Node8 -->
<g id="edge7" class="edge">
<title>Node1&#45;&gt;Node8</title>
<path fill="none" stroke="black" d="M162.49,-206.91C179.29,-191.14 203.48,-170.65 228,-157.5 234.24,-154.15 241.02,-151.2 247.89,-148.61"/>
<polygon fill="black" stroke="black" points="159.67,-204.77 154.87,-214.21 164.51,-209.82 159.67,-204.77"/>
</g>
<!-- Node11 -->
<g id="node10" class="node">
<title>Node11</title>
<g id="a_node10"><a xlink:href="group__struct__utils__deprecated.html" target="_top" xlink:title=" ">
<polygon fill="none" stroke="black" points="368.5,-100 245.5,-100 245.5,-59 368.5,-59 368.5,-100"/>
<text text-anchor="start" x="253.5" y="-88" font-family="Helvetica,sans-Serif" font-size="10.00">Deprecated Interface</text>
<text text-anchor="start" x="253.5" y="-77" font-family="Helvetica,sans-Serif" font-size="10.00"> for Secondary Structure</text>
<text text-anchor="middle" x="307" y="-66" font-family="Helvetica,sans-Serif" font-size="10.00"> Utilities</text>
</a>
</g>
</g>
<!-- Node1&#45;&gt;Node11 -->
<g id="edge10" class="edge">
<title>Node1&#45;&gt;Node11</title>
<path fill="none" stroke="black" d="M152.2,-205.35C166.86,-178.55 193.81,-135.63 228,-109.5 233.3,-105.45 239.22,-101.88 245.35,-98.76"/>
<polygon fill="black" stroke="black" points="148.98,-203.97 147.37,-214.44 155.16,-207.26 148.98,-203.97"/>
</g>
<!-- Node4 -->
<g id="node11" class="node">
<title>Node4</title>
<g id="a_node11"><a xlink:href="group__struct__utils__wuss.html" target="_top" xlink:title="The WUSS notation, as frequently used for consensus secondary structures in Stockholm 1....">
<polygon fill="none" stroke="black" points="364.5,-41 249.5,-41 249.5,0 364.5,0 364.5,-41"/>
<text text-anchor="start" x="257.5" y="-29" font-family="Helvetica,sans-Serif" font-size="10.00">Washington University</text>
<text text-anchor="start" x="257.5" y="-18" font-family="Helvetica,sans-Serif" font-size="10.00"> Secondary Structure</text>
<text text-anchor="middle" x="307" y="-7" font-family="Helvetica,sans-Serif" font-size="10.00"> (WUSS) notation</text>
</a>
</g>
</g>
<!-- Node1&#45;&gt;Node4 -->
<g id="edge3" class="edge">
<title>Node1&#45;&gt;Node4</title>
<path fill="none" stroke="black" d="M145.83,-204.53C156.05,-166.07 180.75,-92.3 228,-49.5 234.21,-43.87 241.61,-39.31 249.34,-35.61"/>
<polygon fill="black" stroke="black" points="142.4,-203.84 143.33,-214.39 149.18,-205.56 142.4,-203.84"/>
</g>
<!-- Node2 -->
<g id="node7" class="node">
<title>Node2</title>
<g id="a_node7"><a xlink:href="group__utils.html" target="_top" xlink:title=" ">
<polygon fill="none" stroke="black" points="50,-239 0,-239 0,-220 50,-220 50,-239"/>
<text text-anchor="middle" x="25" y="-227" font-family="Helvetica,sans-Serif" font-size="10.00">Utilities</text>
</a>
</g>
</g>
<!-- Node2&#45;&gt;Node1 -->
<g id="edge1" class="edge">
<title>Node2&#45;&gt;Node1</title>
<path fill="none" stroke="black" d="M60.22,-229.5C68.35,-229.5 77.21,-229.5 85.93,-229.5"/>
<polygon fill="black" stroke="black" points="60.03,-226 50.03,-229.5 60.03,-233 60.03,-226"/>
</g>
</g>
</svg>
