<?xml version="1.0" encoding="UTF-8" standalone="no"?>
<!DOCTYPE svg PUBLIC "-//W3C//DTD SVG 1.1//EN"
 "http://www.w3.org/Graphics/SVG/1.1/DTD/svg11.dtd">
<!-- Generated by graphviz version 2.49.3 (0)
 -->
<!-- Title: ViennaRNA/interior_loops.h Pages: 1 -->
<svg width="1678pt" height="464pt"
 viewBox="0.00 0.00 1678.00 464.00" xmlns="http://www.w3.org/2000/svg" xmlns:xlink="http://www.w3.org/1999/xlink">
<g id="graph0" class="graph" transform="scale(1 1) rotate(0) translate(4 460)">
<title>ViennaRNA/interior_loops.h</title>
<!-- Node1 -->
<g id="node1" class="node">
<title>Node1</title>
<g id="a_node1"><a xlink:title="Use ViennaRNA/loops/internal.h instead.">
<polygon fill="#bfbfbf" stroke="black" points="907.5,-425.5 907.5,-455.5 1008.5,-455.5 1008.5,-425.5 907.5,-425.5"/>
<text text-anchor="start" x="915.5" y="-443.5" font-family="Helvetica,sans-Serif" font-size="10.00">ViennaRNA/interior</text>
<text text-anchor="middle" x="958" y="-432.5" font-family="Helvetica,sans-Serif" font-size="10.00">_loops.h</text>
</a>
</g>
</g>
<!-- Node2 -->
<g id="node2" class="node">
<title>Node2</title>
<g id="a_node2"><a xlink:href="internal_8h.html" target="_top" xlink:title="Energy evaluation of interior loops for MFE and partition function calculations.">
<polygon fill="none" stroke="black" points="889.5,-369.5 889.5,-388.5 1026.5,-388.5 1026.5,-369.5 889.5,-369.5"/>
<text text-anchor="middle" x="958" y="-376.5" font-family="Helvetica,sans-Serif" font-size="10.00">ViennaRNA/loops/internal.h</text>
</a>
</g>
</g>
<!-- Node1&#45;&gt;Node2 -->
<g id="edge1" class="edge">
<title>Node1&#45;&gt;Node2</title>
<path fill="none" stroke="midnightblue" d="M958,-425.4C958,-417.47 958,-407.46 958,-398.86"/>
<polygon fill="midnightblue" stroke="midnightblue" points="961.5,-398.66 958,-388.66 954.5,-398.66 961.5,-398.66"/>
</g>
<!-- Node3 -->
<g id="node3" class="node">
<title>Node3</title>
<g id="a_node3"><a xlink:title=" ">
<polygon fill="none" stroke="#bfbfbf" points="535.5,-313.5 535.5,-332.5 582.5,-332.5 582.5,-313.5 535.5,-313.5"/>
<text text-anchor="middle" x="559" y="-320.5" font-family="Helvetica,sans-Serif" font-size="10.00">math.h</text>
</a>
</g>
</g>
<!-- Node2&#45;&gt;Node3 -->
<g id="edge2" class="edge">
<title>Node2&#45;&gt;Node3</title>
<path fill="none" stroke="midnightblue" d="M889.41,-372.54C817.68,-366.15 701.74,-353.95 592.56,-332.84"/>
<polygon fill="midnightblue" stroke="midnightblue" points="593.18,-329.39 582.7,-330.9 591.84,-336.26 593.18,-329.39"/>
</g>
<!-- Node4 -->
<g id="node4" class="node">
<title>Node4</title>
<g id="a_node4"><a xlink:href="utils_2basic_8h.html" target="_top" xlink:title="General utility&#45; and helper&#45;functions used throughout the ViennaRNA Package.">
<polygon fill="none" stroke="black" points="601,-313.5 601,-332.5 725,-332.5 725,-313.5 601,-313.5"/>
<text text-anchor="middle" x="663" y="-320.5" font-family="Helvetica,sans-Serif" font-size="10.00">ViennaRNA/utils/basic.h</text>
</a>
</g>
</g>
<!-- Node2&#45;&gt;Node4 -->
<g id="edge3" class="edge">
<title>Node2&#45;&gt;Node4</title>
<path fill="none" stroke="midnightblue" d="M911.26,-369.44C859.25,-359.92 775.25,-344.55 719.58,-334.36"/>
<polygon fill="midnightblue" stroke="midnightblue" points="719.99,-330.87 709.52,-332.52 718.73,-337.76 719.99,-330.87"/>
</g>
<!-- Node7 -->
<g id="node7" class="node">
<title>Node7</title>
<g id="a_node7"><a xlink:href="datastructures_2basic_8h.html" target="_top" xlink:title="Various data structures and pre&#45;processor macros.">
<polygon fill="none" stroke="black" points="596,-246.5 596,-276.5 730,-276.5 730,-246.5 596,-246.5"/>
<text text-anchor="start" x="604" y="-264.5" font-family="Helvetica,sans-Serif" font-size="10.00">ViennaRNA/datastructures</text>
<text text-anchor="middle" x="663" y="-253.5" font-family="Helvetica,sans-Serif" font-size="10.00">/basic.h</text>
</a>
</g>
</g>
<!-- Node2&#45;&gt;Node7 -->
<g id="edge50" class="edge">
<title>Node2&#45;&gt;Node7</title>
<path fill="none" stroke="midnightblue" d="M935.83,-369.32C887.65,-350.46 772.6,-305.41 708.35,-280.26"/>
<polygon fill="midnightblue" stroke="midnightblue" points="709.46,-276.93 698.87,-276.55 706.91,-283.45 709.46,-276.93"/>
</g>
<!-- Node10 -->
<g id="node10" class="node">
<title>Node10</title>
<g id="a_node10"><a xlink:href="fold__compound_8h.html" target="_top" xlink:title="The Basic Fold Compound API.">
<polygon fill="none" stroke="black" points="738,-190.5 738,-209.5 884,-209.5 884,-190.5 738,-190.5"/>
<text text-anchor="middle" x="811" y="-197.5" font-family="Helvetica,sans-Serif" font-size="10.00">ViennaRNA/fold_compound.h</text>
</a>
</g>
</g>
<!-- Node2&#45;&gt;Node10 -->
<g id="edge51" class="edge">
<title>Node2&#45;&gt;Node10</title>
<path fill="none" stroke="midnightblue" d="M950.91,-369.46C927.97,-341.85 855.5,-254.58 824.88,-217.71"/>
<polygon fill="midnightblue" stroke="midnightblue" points="827.45,-215.33 818.37,-209.87 822.06,-219.8 827.45,-215.33"/>
</g>
<!-- Node12 -->
<g id="node12" class="node">
<title>Node12</title>
<g id="a_node12"><a xlink:href="params_2basic_8h.html" target="_top" xlink:title="Functions to deal with sets of energy parameters.">
<polygon fill="none" stroke="black" points="1194,-129 1194,-148 1332,-148 1332,-129 1194,-129"/>
<text text-anchor="middle" x="1263" y="-136" font-family="Helvetica,sans-Serif" font-size="10.00">ViennaRNA/params/basic.h</text>
</a>
</g>
</g>
<!-- Node2&#45;&gt;Node12 -->
<g id="edge52" class="edge">
<title>Node2&#45;&gt;Node12</title>
<path fill="none" stroke="midnightblue" d="M969.22,-369.23C1014.81,-333.58 1186.54,-199.29 1244.08,-154.3"/>
<polygon fill="midnightblue" stroke="midnightblue" points="1246.28,-157.02 1252,-148.1 1241.97,-151.5 1246.28,-157.02"/>
</g>
<!-- Node15 -->
<g id="node15" class="node">
<title>Node15</title>
<g id="a_node15"><a xlink:href="hard_8h.html" target="_top" xlink:title="Functions and data structures for handling of secondary structure hard constraints.">
<polygon fill="none" stroke="black" points="1350.5,-123.5 1350.5,-153.5 1469.5,-153.5 1469.5,-123.5 1350.5,-123.5"/>
<text text-anchor="start" x="1358.5" y="-141.5" font-family="Helvetica,sans-Serif" font-size="10.00">ViennaRNA/constraints</text>
<text text-anchor="middle" x="1410" y="-130.5" font-family="Helvetica,sans-Serif" font-size="10.00">/hard.h</text>
</a>
</g>
</g>
<!-- Node2&#45;&gt;Node15 -->
<g id="edge53" class="edge">
<title>Node2&#45;&gt;Node15</title>
<path fill="none" stroke="midnightblue" d="M974.35,-369.37C1039.61,-334.94 1282.31,-206.87 1374.33,-158.32"/>
<polygon fill="midnightblue" stroke="midnightblue" points="1376.05,-161.37 1383.26,-153.61 1372.78,-155.18 1376.05,-161.37"/>
</g>
<!-- Node17 -->
<g id="node17" class="node">
<title>Node17</title>
<g id="a_node17"><a xlink:href="soft_8h.html" target="_top" xlink:title="Functions and data structures for secondary structure soft constraints.">
<polygon fill="none" stroke="black" points="1056.5,-123.5 1056.5,-153.5 1175.5,-153.5 1175.5,-123.5 1056.5,-123.5"/>
<text text-anchor="start" x="1064.5" y="-141.5" font-family="Helvetica,sans-Serif" font-size="10.00">ViennaRNA/constraints</text>
<text text-anchor="middle" x="1116" y="-130.5" font-family="Helvetica,sans-Serif" font-size="10.00">/soft.h</text>
</a>
</g>
</g>
<!-- Node2&#45;&gt;Node17 -->
<g id="edge54" class="edge">
<title>Node2&#45;&gt;Node17</title>
<path fill="none" stroke="midnightblue" d="M963.81,-369.23C986.18,-335.46 1067.2,-213.17 1101.01,-162.13"/>
<polygon fill="midnightblue" stroke="midnightblue" points="1103.96,-164.01 1106.57,-153.74 1098.13,-160.14 1103.96,-164.01"/>
</g>
<!-- Node23 -->
<g id="node23" class="node">
<title>Node23</title>
<g id="a_node23"><a xlink:href="default_8h_source.html" target="_top" xlink:title=" ">
<polygon fill="none" stroke="black" points="1526,-190.5 1526,-209.5 1670,-209.5 1670,-190.5 1526,-190.5"/>
<text text-anchor="middle" x="1598" y="-197.5" font-family="Helvetica,sans-Serif" font-size="10.00">ViennaRNA/params/default.h</text>
</a>
</g>
</g>
<!-- Node2&#45;&gt;Node23 -->
<g id="edge48" class="edge">
<title>Node2&#45;&gt;Node23</title>
<path fill="none" stroke="midnightblue" d="M1026.6,-374.68C1131.03,-368.99 1324.65,-355.72 1390,-333 1467.83,-305.94 1546.33,-244.84 1580.4,-216.27"/>
<polygon fill="midnightblue" stroke="midnightblue" points="1582.72,-218.89 1588.08,-209.75 1578.19,-213.55 1582.72,-218.89"/>
</g>
<!-- Node5 -->
<g id="node5" class="node">
<title>Node5</title>
<g id="a_node5"><a xlink:title=" ">
<polygon fill="none" stroke="#bfbfbf" points="27,-0.5 27,-19.5 73,-19.5 73,-0.5 27,-0.5"/>
<text text-anchor="middle" x="50" y="-7.5" font-family="Helvetica,sans-Serif" font-size="10.00">stdio.h</text>
</a>
</g>
</g>
<!-- Node4&#45;&gt;Node5 -->
<g id="edge4" class="edge">
<title>Node4&#45;&gt;Node5</title>
<path fill="none" stroke="midnightblue" d="M600.92,-313.92C436.11,-292.07 0,-231.37 0,-201 0,-201 0,-201 0,-137.5 0,-100.31 3.97,-90.02 19,-56 23.45,-45.93 30.23,-35.75 36.32,-27.62"/>
<polygon fill="midnightblue" stroke="midnightblue" points="39.11,-29.74 42.51,-19.71 33.59,-25.43 39.11,-29.74"/>
</g>
<!-- Node6 -->
<g id="node6" class="node">
<title>Node6</title>
<g id="a_node6"><a xlink:title=" ">
<polygon fill="none" stroke="#bfbfbf" points="526,-252 526,-271 578,-271 578,-252 526,-252"/>
<text text-anchor="middle" x="552" y="-259" font-family="Helvetica,sans-Serif" font-size="10.00">stdarg.h</text>
</a>
</g>
</g>
<!-- Node4&#45;&gt;Node6 -->
<g id="edge5" class="edge">
<title>Node4&#45;&gt;Node6</title>
<path fill="none" stroke="midnightblue" d="M647.1,-313.48C628.72,-303.62 598.24,-287.29 576.76,-275.77"/>
<polygon fill="midnightblue" stroke="midnightblue" points="578.34,-272.65 567.87,-271.01 575.03,-278.82 578.34,-272.65"/>
</g>
<!-- Node4&#45;&gt;Node7 -->
<g id="edge6" class="edge">
<title>Node4&#45;&gt;Node7</title>
<path fill="none" stroke="midnightblue" d="M663,-313.48C663,-306.47 663,-296.19 663,-286.7"/>
<polygon fill="midnightblue" stroke="midnightblue" points="666.5,-286.52 663,-276.52 659.5,-286.52 666.5,-286.52"/>
</g>
<!-- Node8 -->
<g id="node8" class="node">
<title>Node8</title>
<g id="a_node8"><a xlink:href="constants_8h.html" target="_top" xlink:title="Energy parameter constants.">
<polygon fill="none" stroke="black" points="1419,-62 1419,-81 1577,-81 1577,-62 1419,-62"/>
<text text-anchor="middle" x="1498" y="-69" font-family="Helvetica,sans-Serif" font-size="10.00">ViennaRNA/params/constants.h</text>
</a>
</g>
</g>
<!-- Node7&#45;&gt;Node8 -->
<g id="edge7" class="edge">
<title>Node7&#45;&gt;Node8</title>
<path fill="none" stroke="midnightblue" d="M730.22,-261.28C905.46,-261.88 1370.26,-253.8 1479,-154 1496.2,-138.22 1499.29,-110.15 1499.21,-91.43"/>
<polygon fill="midnightblue" stroke="midnightblue" points="1502.7,-91.04 1498.85,-81.17 1495.71,-91.29 1502.7,-91.04"/>
</g>
<!-- Node7&#45;&gt;Node10 -->
<g id="edge9" class="edge">
<title>Node7&#45;&gt;Node10</title>
<path fill="none" stroke="midnightblue" d="M698.07,-246.4C723.02,-236.37 756.21,-223.03 780.14,-213.4"/>
<polygon fill="midnightblue" stroke="midnightblue" points="781.49,-216.64 789.46,-209.66 778.88,-210.14 781.49,-216.64"/>
</g>
<!-- Node11 -->
<g id="node11" class="node">
<title>Node11</title>
<g id="a_node11"><a xlink:href="model_8h.html" target="_top" xlink:title="The model details data structure and its corresponding modifiers.">
<polygon fill="none" stroke="black" points="669,-62 669,-81 775,-81 775,-62 669,-62"/>
<text text-anchor="middle" x="722" y="-69" font-family="Helvetica,sans-Serif" font-size="10.00">ViennaRNA/model.h</text>
</a>
</g>
</g>
<!-- Node7&#45;&gt;Node11 -->
<g id="edge39" class="edge">
<title>Node7&#45;&gt;Node11</title>
<path fill="none" stroke="midnightblue" d="M596.78,-246.48C493.1,-223.86 302.2,-179.32 283,-154 274.68,-143.02 273.83,-133.28 283,-123 307.56,-95.45 543.27,-80.78 658.8,-75.2"/>
<polygon fill="midnightblue" stroke="midnightblue" points="659.1,-78.69 668.92,-74.72 658.77,-71.7 659.1,-78.69"/>
</g>
<!-- Node7&#45;&gt;Node12 -->
<g id="edge40" class="edge">
<title>Node7&#45;&gt;Node12</title>
<path fill="none" stroke="midnightblue" d="M730.17,-248.3C786.37,-238.61 868.44,-224.34 940,-210 1036.2,-190.72 1148.17,-164.72 1211.92,-150.29"/>
<polygon fill="midnightblue" stroke="midnightblue" points="1212.74,-153.69 1221.72,-148.07 1211.2,-146.86 1212.74,-153.69"/>
</g>
<!-- Node14 -->
<g id="node14" class="node">
<title>Node14</title>
<g id="a_node14"><a xlink:href="dp__matrices_8h.html" target="_top" xlink:title="Functions to deal with standard dynamic programming (DP) matrices.">
<polygon fill="none" stroke="black" points="425.5,-129 425.5,-148 558.5,-148 558.5,-129 425.5,-129"/>
<text text-anchor="middle" x="492" y="-136" font-family="Helvetica,sans-Serif" font-size="10.00">ViennaRNA/dp_matrices.h</text>
</a>
</g>
</g>
<!-- Node7&#45;&gt;Node14 -->
<g id="edge41" class="edge">
<title>Node7&#45;&gt;Node14</title>
<path fill="none" stroke="midnightblue" d="M638.53,-246.38C603.03,-223.35 538.76,-177.89 508.4,-154.37"/>
<polygon fill="midnightblue" stroke="midnightblue" points="510.47,-151.55 500.46,-148.09 506.13,-157.04 510.47,-151.55"/>
</g>
<!-- Node7&#45;&gt;Node15 -->
<g id="edge42" class="edge">
<title>Node7&#45;&gt;Node15</title>
<path fill="none" stroke="midnightblue" d="M730.24,-251.42C801.13,-241.71 916.05,-225.59 1015,-210 1156.96,-187.63 1194.91,-181.82 1340.01,-154.15"/>
<polygon fill="midnightblue" stroke="midnightblue" points="1341.02,-157.52 1350.19,-152.21 1339.71,-150.65 1341.02,-157.52"/>
</g>
<!-- Node7&#45;&gt;Node17 -->
<g id="edge43" class="edge">
<title>Node7&#45;&gt;Node17</title>
<path fill="none" stroke="midnightblue" d="M727.15,-246.45C771.44,-237.12 831.47,-224.04 884,-210 944.06,-193.95 1012.05,-171.88 1058.92,-156.73"/>
<polygon fill="midnightblue" stroke="midnightblue" points="1060.15,-160.01 1068.59,-153.61 1058,-153.35 1060.15,-160.01"/>
</g>
<!-- Node18 -->
<g id="node18" class="node">
<title>Node18</title>
<g id="a_node18"><a xlink:href="grammar_8h.html" target="_top" xlink:title="Implementations for the RNA folding grammar.">
<polygon fill="none" stroke="black" points="576.5,-129 576.5,-148 693.5,-148 693.5,-129 576.5,-129"/>
<text text-anchor="middle" x="635" y="-136" font-family="Helvetica,sans-Serif" font-size="10.00">ViennaRNA/grammar.h</text>
</a>
</g>
</g>
<!-- Node7&#45;&gt;Node18 -->
<g id="edge44" class="edge">
<title>Node7&#45;&gt;Node18</title>
<path fill="none" stroke="midnightblue" d="M659.68,-246.14C654.6,-224.2 644.91,-182.33 639.3,-158.09"/>
<polygon fill="midnightblue" stroke="midnightblue" points="642.64,-157.01 636.98,-148.05 635.82,-158.58 642.64,-157.01"/>
</g>
<!-- Node19 -->
<g id="node19" class="node">
<title>Node19</title>
<g id="a_node19"><a xlink:href="structured__domains_8h.html" target="_top" xlink:title="This module provides interfaces that deal with additional structured domains in the folding grammar.">
<polygon fill="none" stroke="black" points="292.5,-123.5 292.5,-153.5 407.5,-153.5 407.5,-123.5 292.5,-123.5"/>
<text text-anchor="start" x="300.5" y="-141.5" font-family="Helvetica,sans-Serif" font-size="10.00">ViennaRNA/structured</text>
<text text-anchor="middle" x="350" y="-130.5" font-family="Helvetica,sans-Serif" font-size="10.00">_domains.h</text>
</a>
</g>
</g>
<!-- Node7&#45;&gt;Node19 -->
<g id="edge45" class="edge">
<title>Node7&#45;&gt;Node19</title>
<path fill="none" stroke="midnightblue" d="M626.48,-246.38C569.23,-224.25 458.45,-181.42 395.9,-157.24"/>
<polygon fill="midnightblue" stroke="midnightblue" points="396.87,-153.87 386.29,-153.53 394.35,-160.4 396.87,-153.87"/>
</g>
<!-- Node20 -->
<g id="node20" class="node">
<title>Node20</title>
<g id="a_node20"><a xlink:href="unstructured__domains_8h.html" target="_top" xlink:title="Functions to modify unstructured domains, e.g. to incorporate ligands binding to unpaired stretches.">
<polygon fill="none" stroke="black" points="110.5,-123.5 110.5,-153.5 235.5,-153.5 235.5,-123.5 110.5,-123.5"/>
<text text-anchor="start" x="118.5" y="-141.5" font-family="Helvetica,sans-Serif" font-size="10.00">ViennaRNA/unstructured</text>
<text text-anchor="middle" x="173" y="-130.5" font-family="Helvetica,sans-Serif" font-size="10.00">_domains.h</text>
</a>
</g>
</g>
<!-- Node7&#45;&gt;Node20 -->
<g id="edge46" class="edge">
<title>Node7&#45;&gt;Node20</title>
<path fill="none" stroke="midnightblue" d="M595.62,-248.85C589.65,-247.82 583.71,-246.85 578,-246 429.01,-223.87 378.3,-271.96 241,-210 217.3,-199.31 195.99,-178.46 183.41,-162.2"/>
<polygon fill="midnightblue" stroke="midnightblue" points="186.02,-159.84 177.36,-153.73 180.32,-163.9 186.02,-159.84"/>
</g>
<!-- Node21 -->
<g id="node21" class="node">
<title>Node21</title>
<g id="a_node21"><a xlink:href="utils_2structures_8h.html" target="_top" xlink:title="Various utility&#45; and helper&#45;functions for secondary structure parsing, converting,...">
<polygon fill="none" stroke="black" points="28,-62 28,-81 172,-81 172,-62 28,-62"/>
<text text-anchor="middle" x="100" y="-69" font-family="Helvetica,sans-Serif" font-size="10.00">ViennaRNA/utils/structures.h</text>
</a>
</g>
</g>
<!-- Node7&#45;&gt;Node21 -->
<g id="edge47" class="edge">
<title>Node7&#45;&gt;Node21</title>
<path fill="none" stroke="midnightblue" d="M595.63,-248.79C589.66,-247.78 583.72,-246.82 578,-246 414.02,-222.45 366.44,-254.98 207,-210 152.29,-194.57 122.44,-202.02 92,-154 80.02,-135.1 82.46,-108.44 88.2,-90.83"/>
<polygon fill="midnightblue" stroke="midnightblue" points="91.6,-91.76 92.1,-81.18 85.11,-89.14 91.6,-91.76"/>
</g>
<!-- Node9 -->
<g id="node9" class="node">
<title>Node9</title>
<g id="a_node9"><a xlink:title=" ">
<polygon fill="none" stroke="#bfbfbf" points="1474,-0.5 1474,-19.5 1522,-19.5 1522,-0.5 1474,-0.5"/>
<text text-anchor="middle" x="1498" y="-7.5" font-family="Helvetica,sans-Serif" font-size="10.00">limits.h</text>
</a>
</g>
</g>
<!-- Node8&#45;&gt;Node9 -->
<g id="edge8" class="edge">
<title>Node8&#45;&gt;Node9</title>
<path fill="none" stroke="midnightblue" d="M1498,-61.98C1498,-53.58 1498,-40.48 1498,-29.66"/>
<polygon fill="midnightblue" stroke="midnightblue" points="1501.5,-29.51 1498,-19.51 1494.5,-29.51 1501.5,-29.51"/>
</g>
<!-- Node10&#45;&gt;Node11 -->
<g id="edge10" class="edge">
<title>Node10&#45;&gt;Node11</title>
<path fill="none" stroke="midnightblue" d="M789.41,-190.46C773.64,-183.11 752.99,-171 741,-154 727.88,-135.4 723.7,-109.04 722.44,-91.38"/>
<polygon fill="midnightblue" stroke="midnightblue" points="725.92,-91.03 721.96,-81.21 718.93,-91.36 725.92,-91.03"/>
</g>
<!-- Node10&#45;&gt;Node12 -->
<g id="edge11" class="edge">
<title>Node10&#45;&gt;Node12</title>
<path fill="none" stroke="midnightblue" d="M884.14,-190.86C957.96,-182.8 1074.99,-169.45 1176,-154 1184.12,-152.76 1192.69,-151.31 1201.18,-149.81"/>
<polygon fill="midnightblue" stroke="midnightblue" points="1201.84,-153.25 1211.07,-148.05 1200.61,-146.36 1201.84,-153.25"/>
</g>
<!-- Node13 -->
<g id="node13" class="node">
<title>Node13</title>
<g id="a_node13"><a xlink:href="sequence_8h.html" target="_top" xlink:title="Functions and data structures related to sequence representations ,.">
<polygon fill="none" stroke="black" points="750,-129 750,-148 872,-148 872,-129 750,-129"/>
<text text-anchor="middle" x="811" y="-136" font-family="Helvetica,sans-Serif" font-size="10.00">ViennaRNA/sequence.h</text>
</a>
</g>
</g>
<!-- Node10&#45;&gt;Node13 -->
<g id="edge16" class="edge">
<title>Node10&#45;&gt;Node13</title>
<path fill="none" stroke="midnightblue" d="M806.1,-190.48C804.27,-182.08 803.8,-168.98 804.69,-158.16"/>
<polygon fill="midnightblue" stroke="midnightblue" points="808.19,-158.4 806.1,-148.01 801.25,-157.43 808.19,-158.4"/>
</g>
<!-- Node10&#45;&gt;Node14 -->
<g id="edge18" class="edge">
<title>Node10&#45;&gt;Node14</title>
<path fill="none" stroke="midnightblue" d="M757.48,-190.49C706.07,-181.53 626.57,-166.95 558,-154 551.26,-152.73 544.18,-151.38 537.25,-150.03"/>
<polygon fill="midnightblue" stroke="midnightblue" points="537.74,-146.56 527.25,-148.07 536.39,-153.43 537.74,-146.56"/>
</g>
<!-- Node10&#45;&gt;Node15 -->
<g id="edge21" class="edge">
<title>Node10&#45;&gt;Node15</title>
<path fill="none" stroke="midnightblue" d="M884.19,-195.3C985.31,-189.76 1173.03,-177.36 1332,-154 1334.69,-153.6 1337.43,-153.17 1340.2,-152.7"/>
<polygon fill="midnightblue" stroke="midnightblue" points="1341.09,-156.1 1350.32,-150.9 1339.86,-149.21 1341.09,-156.1"/>
</g>
<!-- Node10&#45;&gt;Node17 -->
<g id="edge25" class="edge">
<title>Node10&#45;&gt;Node17</title>
<path fill="none" stroke="midnightblue" d="M848.16,-190.47C892.32,-181.43 967.84,-166.73 1033,-154 1037.31,-153.16 1041.76,-152.29 1046.26,-151.41"/>
<polygon fill="midnightblue" stroke="midnightblue" points="1047,-154.83 1056.15,-149.49 1045.67,-147.96 1047,-154.83"/>
</g>
<!-- Node10&#45;&gt;Node18 -->
<g id="edge29" class="edge">
<title>Node10&#45;&gt;Node18</title>
<path fill="none" stroke="midnightblue" d="M780.88,-190.48C748.47,-180.27 697.49,-163.11 665.09,-151.55"/>
<polygon fill="midnightblue" stroke="midnightblue" points="665.87,-148.11 655.27,-148.01 663.49,-154.69 665.87,-148.11"/>
</g>
<!-- Node10&#45;&gt;Node19 -->
<g id="edge31" class="edge">
<title>Node10&#45;&gt;Node19</title>
<path fill="none" stroke="midnightblue" d="M737.89,-192.94C660.54,-186.01 534.77,-173.29 417.4,-154.13"/>
<polygon fill="midnightblue" stroke="midnightblue" points="417.96,-150.68 407.53,-152.5 416.82,-157.59 417.96,-150.68"/>
</g>
<!-- Node10&#45;&gt;Node20 -->
<g id="edge32" class="edge">
<title>Node10&#45;&gt;Node20</title>
<path fill="none" stroke="midnightblue" d="M737.98,-194.27C634.4,-186.97 439.32,-171.93 274,-154 264.86,-153.01 255.3,-151.88 245.86,-150.71"/>
<polygon fill="midnightblue" stroke="midnightblue" points="246.05,-147.2 235.69,-149.42 245.17,-154.15 246.05,-147.2"/>
</g>
<!-- Node22 -->
<g id="node22" class="node">
<title>Node22</title>
<g id="a_node22"><a xlink:href="zscore_8h_source.html" target="_top" xlink:title=" ">
<polygon fill="none" stroke="black" points="890.5,-129 890.5,-148 999.5,-148 999.5,-129 890.5,-129"/>
<text text-anchor="middle" x="945" y="-136" font-family="Helvetica,sans-Serif" font-size="10.00">ViennaRNA/zscore.h</text>
</a>
</g>
</g>
<!-- Node10&#45;&gt;Node22 -->
<g id="edge38" class="edge">
<title>Node10&#45;&gt;Node22</title>
<path fill="none" stroke="midnightblue" d="M830.2,-190.48C852.79,-180.45 890.5,-163.7 916.5,-152.15"/>
<polygon fill="midnightblue" stroke="midnightblue" points="918.12,-155.27 925.84,-148.01 915.28,-148.87 918.12,-155.27"/>
</g>
<!-- Node12&#45;&gt;Node7 -->
<g id="edge13" class="edge">
<title>Node12&#45;&gt;Node7</title>
<path fill="none" stroke="midnightblue" d="M1232.93,-148.07C1178.2,-161.92 1059.35,-189.69 958,-210 884.51,-224.73 799.94,-239.38 740.17,-249.08"/>
<polygon fill="midnightblue" stroke="midnightblue" points="739.36,-245.66 730.05,-250.71 740.48,-252.57 739.36,-245.66"/>
</g>
<!-- Node12&#45;&gt;Node8 -->
<g id="edge12" class="edge">
<title>Node12&#45;&gt;Node8</title>
<path fill="none" stroke="midnightblue" d="M1294.21,-128.87C1336.2,-117.25 1410.96,-96.58 1457.32,-83.75"/>
<polygon fill="midnightblue" stroke="midnightblue" points="1458.33,-87.1 1467.04,-81.06 1456.47,-80.36 1458.33,-87.1"/>
</g>
<!-- Node12&#45;&gt;Node10 -->
<g id="edge14" class="edge">
<title>Node12&#45;&gt;Node10</title>
<path fill="none" stroke="midnightblue" d="M1228.46,-148.05C1217.47,-150.14 1205.3,-152.27 1194,-154 1091.45,-169.68 972.39,-183.21 894.51,-191.23"/>
<polygon fill="midnightblue" stroke="midnightblue" points="893.87,-187.78 884.28,-192.28 894.58,-194.74 893.87,-187.78"/>
</g>
<!-- Node12&#45;&gt;Node11 -->
<g id="edge15" class="edge">
<title>Node12&#45;&gt;Node11</title>
<path fill="none" stroke="midnightblue" d="M1220.18,-128.94C1208.78,-126.83 1196.45,-124.69 1185,-123 1042.69,-102.04 874.59,-85.83 785.26,-77.88"/>
<polygon fill="midnightblue" stroke="midnightblue" points="785.56,-74.39 775.29,-77 784.94,-81.37 785.56,-74.39"/>
</g>
<!-- Node13&#45;&gt;Node10 -->
<g id="edge17" class="edge">
<title>Node13&#45;&gt;Node10</title>
<path fill="none" stroke="midnightblue" d="M815.9,-148.01C817.73,-156.4 818.2,-169.5 817.32,-180.32"/>
<polygon fill="midnightblue" stroke="midnightblue" points="813.81,-180.09 815.9,-190.48 820.75,-181.05 813.81,-180.09"/>
</g>
<!-- Node14&#45;&gt;Node7 -->
<g id="edge19" class="edge">
<title>Node14&#45;&gt;Node7</title>
<path fill="none" stroke="midnightblue" d="M507.83,-148.09C538.16,-167.09 603.67,-213.08 639.22,-239.98"/>
<polygon fill="midnightblue" stroke="midnightblue" points="637.51,-243.08 647.57,-246.38 641.76,-237.52 637.51,-243.08"/>
</g>
<!-- Node14&#45;&gt;Node10 -->
<g id="edge20" class="edge">
<title>Node14&#45;&gt;Node10</title>
<path fill="none" stroke="midnightblue" d="M544.76,-148.07C555.18,-150.04 565.97,-152.1 576,-154 639.88,-166.07 713.25,-179.55 760.87,-188.58"/>
<polygon fill="midnightblue" stroke="midnightblue" points="760.44,-192.06 770.92,-190.49 761.75,-185.18 760.44,-192.06"/>
</g>
<!-- Node15&#45;&gt;Node10 -->
<g id="edge22" class="edge">
<title>Node15&#45;&gt;Node10</title>
<path fill="none" stroke="midnightblue" d="M1353.29,-153.5C1352.19,-153.67 1351.09,-153.84 1350,-154 1189.8,-177.54 1000.41,-189.95 894.08,-195.43"/>
<polygon fill="midnightblue" stroke="midnightblue" points="893.86,-191.93 884.05,-195.93 894.22,-198.92 893.86,-191.93"/>
</g>
<!-- Node16 -->
<g id="node16" class="node">
<title>Node16</title>
<g id="a_node16"><a xlink:href="constraints_2basic_8h.html" target="_top" xlink:title="Functions and data structures for constraining secondary structure predictions and evaluation.">
<polygon fill="none" stroke="black" points="1056.5,-56.5 1056.5,-86.5 1175.5,-86.5 1175.5,-56.5 1056.5,-56.5"/>
<text text-anchor="start" x="1064.5" y="-74.5" font-family="Helvetica,sans-Serif" font-size="10.00">ViennaRNA/constraints</text>
<text text-anchor="middle" x="1116" y="-63.5" font-family="Helvetica,sans-Serif" font-size="10.00">/basic.h</text>
</a>
</g>
</g>
<!-- Node15&#45;&gt;Node16 -->
<g id="edge23" class="edge">
<title>Node15&#45;&gt;Node16</title>
<path fill="none" stroke="midnightblue" d="M1350.15,-124.27C1302.38,-113.71 1235.39,-98.9 1185.3,-87.82"/>
<polygon fill="midnightblue" stroke="midnightblue" points="1186.03,-84.4 1175.51,-85.66 1184.52,-91.23 1186.03,-84.4"/>
</g>
<!-- Node16&#45;&gt;Node10 -->
<g id="edge24" class="edge">
<title>Node16&#45;&gt;Node10</title>
<path fill="none" stroke="midnightblue" d="M1096.53,-86.7C1082.86,-96.73 1064.21,-110.55 1048,-123 1030.44,-136.49 1028.96,-144.42 1009,-154 973.12,-171.22 930.39,-182 893.82,-188.68"/>
<polygon fill="midnightblue" stroke="midnightblue" points="892.92,-185.28 883.68,-190.46 894.13,-192.18 892.92,-185.28"/>
</g>
<!-- Node17&#45;&gt;Node7 -->
<g id="edge26" class="edge">
<title>Node17&#45;&gt;Node7</title>
<path fill="none" stroke="midnightblue" d="M1081.86,-153.61C1039.76,-168.71 966.33,-192.81 902,-210 848.53,-224.29 787.3,-237.59 740.13,-246.95"/>
<polygon fill="midnightblue" stroke="midnightblue" points="739.43,-243.52 730.29,-248.88 740.78,-250.39 739.43,-243.52"/>
</g>
<!-- Node17&#45;&gt;Node10 -->
<g id="edge27" class="edge">
<title>Node17&#45;&gt;Node10</title>
<path fill="none" stroke="midnightblue" d="M1056.46,-152.93C1054.62,-153.29 1052.8,-153.65 1051,-154 990.16,-165.89 920.31,-179.49 871.61,-188.6"/>
<polygon fill="midnightblue" stroke="midnightblue" points="870.75,-185.2 861.56,-190.47 872.03,-192.08 870.75,-185.2"/>
</g>
<!-- Node17&#45;&gt;Node16 -->
<g id="edge28" class="edge">
<title>Node17&#45;&gt;Node16</title>
<path fill="none" stroke="midnightblue" d="M1116,-123.4C1116,-115.64 1116,-105.81 1116,-96.86"/>
<polygon fill="midnightblue" stroke="midnightblue" points="1119.5,-96.58 1116,-86.58 1112.5,-96.58 1119.5,-96.58"/>
</g>
<!-- Node18&#45;&gt;Node10 -->
<g id="edge30" class="edge">
<title>Node18&#45;&gt;Node10</title>
<path fill="none" stroke="midnightblue" d="M665.07,-148.01C697.46,-158.21 748.44,-175.37 780.86,-186.93"/>
<polygon fill="midnightblue" stroke="midnightblue" points="780.09,-190.38 790.68,-190.48 782.46,-183.79 780.09,-190.38"/>
</g>
<!-- Node20&#45;&gt;Node7 -->
<g id="edge33" class="edge">
<title>Node20&#45;&gt;Node7</title>
<path fill="none" stroke="midnightblue" d="M190.09,-153.73C206.17,-170.4 230.91,-197.33 259,-210 393.21,-270.56 444.68,-225.97 589.11,-245.07"/>
<polygon fill="midnightblue" stroke="midnightblue" points="588.82,-248.56 599.21,-246.49 589.79,-241.63 588.82,-248.56"/>
</g>
<!-- Node20&#45;&gt;Node10 -->
<g id="edge34" class="edge">
<title>Node20&#45;&gt;Node10</title>
<path fill="none" stroke="midnightblue" d="M235.75,-147.15C253.97,-149.52 273.81,-152.03 292,-154 445.79,-170.68 625.35,-184.86 727.92,-192.63"/>
<polygon fill="midnightblue" stroke="midnightblue" points="727.68,-196.12 737.91,-193.39 728.2,-189.14 727.68,-196.12"/>
</g>
<!-- Node20&#45;&gt;Node21 -->
<g id="edge35" class="edge">
<title>Node20&#45;&gt;Node21</title>
<path fill="none" stroke="midnightblue" d="M157.16,-123.4C145.44,-112.96 129.48,-98.75 117.41,-88"/>
<polygon fill="midnightblue" stroke="midnightblue" points="119.56,-85.23 109.76,-81.19 114.91,-90.46 119.56,-85.23"/>
</g>
<!-- Node21&#45;&gt;Node5 -->
<g id="edge36" class="edge">
<title>Node21&#45;&gt;Node5</title>
<path fill="none" stroke="midnightblue" d="M92.84,-61.98C85.26,-52.96 73.13,-38.52 63.71,-27.31"/>
<polygon fill="midnightblue" stroke="midnightblue" points="66.26,-24.91 57.15,-19.51 60.9,-29.42 66.26,-24.91"/>
</g>
<!-- Node21&#45;&gt;Node7 -->
<g id="edge37" class="edge">
<title>Node21&#45;&gt;Node7</title>
<path fill="none" stroke="midnightblue" d="M102.62,-81.18C102.1,-97.04 95.53,-131.17 110,-154 140.44,-202.02 170.29,-194.57 225,-210 381.17,-254.05 430.02,-223.75 589.08,-245.06"/>
<polygon fill="midnightblue" stroke="midnightblue" points="588.83,-248.56 599.21,-246.47 589.79,-241.63 588.83,-248.56"/>
</g>
<!-- Node23&#45;&gt;Node8 -->
<g id="edge49" class="edge">
<title>Node23&#45;&gt;Node8</title>
<path fill="none" stroke="midnightblue" d="M1591.13,-190.31C1574.64,-169.45 1532.64,-116.31 1511.13,-89.11"/>
<polygon fill="midnightblue" stroke="midnightblue" points="1513.87,-86.93 1504.92,-81.26 1508.38,-91.27 1513.87,-86.93"/>
</g>
</g>
</svg>
