<?xml version="1.0" encoding="UTF-8" standalone="no"?>
<!DOCTYPE svg PUBLIC "-//W3C//DTD SVG 1.1//EN"
 "http://www.w3.org/Graphics/SVG/1.1/DTD/svg11.dtd">
<!-- Generated by graphviz version 2.49.3 (0)
 -->
<!-- Title: ViennaRNA/loop_energies.h Pages: 1 -->
<!--zoomable 509 -->
<svg id="main" version="1.1" xmlns="http://www.w3.org/2000/svg" xmlns:xlink="http://www.w3.org/1999/xlink" xml:space="preserve" onload="init(evt)">
<style type="text/css"><![CDATA[
.edge:hover path { stroke: red; }
.edge:hover polygon { stroke: red; fill: red; }
]]></style>
<script type="text/javascript"><![CDATA[
var edges = document.getElementsByTagName('g');
if (edges && edges.length) {
  for (var i=0;i<edges.length;i++) {
    if (edges[i].id.substr(0,4)=='edge') {
      edges[i].setAttribute('class','edge');
    }
  }
}
]]></script>
        <defs>
                <circle id="rim" cx="0" cy="0" r="7"/>
                <circle id="rim2" cx="0" cy="0" r="3.5"/>
                <g id="zoomPlus">
                        <use xlink:href="#rim" fill="#404040">
                                <set attributeName="fill" to="#808080" begin="zoomplus.mouseover" end="zoomplus.mouseout"/>
                        </use>
                        <path d="M-4,0h8M0,-4v8" fill="none" stroke="white" stroke-width="1.5" pointer-events="none"/>
                </g>
                <g id="zoomMin">
                        <use xlink:href="#rim" fill="#404040">
                                <set attributeName="fill" to="#808080" begin="zoomminus.mouseover" end="zoomminus.mouseout"/>
                        </use>
                        <path d="M-4,0h8" fill="none" stroke="white" stroke-width="1.5" pointer-events="none"/>
                </g>
                <g id="dirArrow">
                        <path fill="none" stroke="white" stroke-width="1.5" d="M0,-3.0v7 M-2.5,-0.5L0,-3.0L2.5,-0.5"/>
                </g>
               <g id="resetDef">
                       <use xlink:href="#rim2" fill="#404040">
                               <set attributeName="fill" to="#808080" begin="reset.mouseover" end="reset.mouseout"/>
                       </use>
               </g>
        </defs>

<script type="text/javascript">
var viewWidth = 1580;
var viewHeight = 509;
var sectionId = 'dynsection-0';
</script>
<script xlink:href="svgpan.js"/>
<svg id="graph" class="graph">
<g id="viewport">
<title>ViennaRNA/loop_energies.h</title>
<!-- Node1 -->
<g id="node1" class="node">
<title>Node1</title>
<g id="a_node1"><a xlink:title="Use ViennaRNA/loops/all.h instead.">
<polygon fill="#bfbfbf" stroke="black" points="324.33,-481.5 324.33,-500.5 464.33,-500.5 464.33,-481.5 324.33,-481.5"/>
<text text-anchor="middle" x="394.33" y="-488.5" font-family="Helvetica,sans-Serif" font-size="10.00">ViennaRNA/loop_energies.h</text>
</a>
</g>
</g>
<!-- Node2 -->
<g id="node2" class="node">
<title>Node2</title>
<g id="a_node2"><a xlink:href="all_8h.html" target="_top" xlink:title="Energy evaluation for MFE and partition function calculations.">
<polygon fill="none" stroke="black" points="336.33,-425.5 336.33,-444.5 452.33,-444.5 452.33,-425.5 336.33,-425.5"/>
<text text-anchor="middle" x="394.33" y="-432.5" font-family="Helvetica,sans-Serif" font-size="10.00">ViennaRNA/loops/all.h</text>
</a>
</g>
</g>
<!-- Node1&#45;&gt;Node2 -->
<g id="edge1" class="edge">
<title>Node1&#45;&gt;Node2</title>
<path fill="none" stroke="midnightblue" d="M394.33,-481.08C394.33,-474.01 394.33,-463.86 394.33,-454.99"/>
<polygon fill="midnightblue" stroke="midnightblue" points="397.83,-454.75 394.33,-444.75 390.83,-454.75 397.83,-454.75"/>
</g>
<!-- Node3 -->
<g id="node3" class="node">
<title>Node3</title>
<g id="a_node3"><a xlink:href="external_8h.html" target="_top" xlink:title="Energy evaluation of exterior loops for MFE and partition function calculations.">
<polygon fill="none" stroke="black" points="53.33,-313.5 53.33,-332.5 193.33,-332.5 193.33,-313.5 53.33,-313.5"/>
<text text-anchor="middle" x="123.33" y="-320.5" font-family="Helvetica,sans-Serif" font-size="10.00">ViennaRNA/loops/external.h</text>
</a>
</g>
</g>
<!-- Node2&#45;&gt;Node3 -->
<g id="edge2" class="edge">
<title>Node2&#45;&gt;Node3</title>
<path fill="none" stroke="midnightblue" d="M335.95,-425.89C298.73,-419.25 250.19,-407.8 210.33,-389 183.32,-376.26 156.43,-354.4 139.85,-339.59"/>
<polygon fill="midnightblue" stroke="midnightblue" points="141.92,-336.73 132.17,-332.57 137.19,-341.9 141.92,-336.73"/>
</g>
<!-- Node21 -->
<g id="node21" class="node">
<title>Node21</title>
<g id="a_node21"><a xlink:href="hairpin_8h.html" target="_top" xlink:title="Energy evaluation of hairpin loops for MFE and partition function calculations.">
<polygon fill="none" stroke="black" points="425.33,-369.5 425.33,-388.5 559.33,-388.5 559.33,-369.5 425.33,-369.5"/>
<text text-anchor="middle" x="492.33" y="-376.5" font-family="Helvetica,sans-Serif" font-size="10.00">ViennaRNA/loops/hairpin.h</text>
</a>
</g>
</g>
<!-- Node2&#45;&gt;Node21 -->
<g id="edge47" class="edge">
<title>Node2&#45;&gt;Node21</title>
<path fill="none" stroke="midnightblue" d="M410.08,-425.32C425.65,-416.74 449.71,-403.49 467.79,-393.52"/>
<polygon fill="midnightblue" stroke="midnightblue" points="469.56,-396.55 476.63,-388.65 466.18,-390.42 469.56,-396.55"/>
</g>
<!-- Node26 -->
<g id="node26" class="node">
<title>Node26</title>
<g id="a_node26"><a xlink:href="internal_8h.html" target="_top" xlink:title="Energy evaluation of interior loops for MFE and partition function calculations.">
<polygon fill="none" stroke="black" points="656.83,-369.5 656.83,-388.5 793.83,-388.5 793.83,-369.5 656.83,-369.5"/>
<text text-anchor="middle" x="725.33" y="-376.5" font-family="Helvetica,sans-Serif" font-size="10.00">ViennaRNA/loops/internal.h</text>
</a>
</g>
</g>
<!-- Node2&#45;&gt;Node26 -->
<g id="edge57" class="edge">
<title>Node2&#45;&gt;Node26</title>
<path fill="none" stroke="midnightblue" d="M446.78,-425.44C505.49,-415.87 600.56,-400.36 663.01,-390.17"/>
<polygon fill="midnightblue" stroke="midnightblue" points="663.82,-393.58 673.13,-388.52 662.7,-386.67 663.82,-393.58"/>
</g>
<!-- Node28 -->
<g id="node28" class="node">
<title>Node28</title>
<g id="a_node28"><a xlink:href="multibranch_8h.html" target="_top" xlink:title="Energy evaluation of multibranch loops for MFE and partition function calculations.">
<polygon fill="none" stroke="black" points="219.33,-369.5 219.33,-388.5 375.33,-388.5 375.33,-369.5 219.33,-369.5"/>
<text text-anchor="middle" x="297.33" y="-376.5" font-family="Helvetica,sans-Serif" font-size="10.00">ViennaRNA/loops/multibranch.h</text>
</a>
</g>
</g>
<!-- Node2&#45;&gt;Node28 -->
<g id="edge67" class="edge">
<title>Node2&#45;&gt;Node28</title>
<path fill="none" stroke="midnightblue" d="M378.75,-425.32C363.33,-416.74 339.52,-403.49 321.62,-393.52"/>
<polygon fill="midnightblue" stroke="midnightblue" points="323.32,-390.46 312.88,-388.65 319.91,-396.58 323.32,-390.46"/>
</g>
<!-- Node4 -->
<g id="node4" class="node">
<title>Node4</title>
<g id="a_node4"><a xlink:href="datastructures_2basic_8h.html" target="_top" xlink:title="Various data structures and pre&#45;processor macros.">
<polygon fill="none" stroke="black" points="273.33,-246.5 273.33,-276.5 407.33,-276.5 407.33,-246.5 273.33,-246.5"/>
<text text-anchor="start" x="281.33" y="-264.5" font-family="Helvetica,sans-Serif" font-size="10.00">ViennaRNA/datastructures</text>
<text text-anchor="middle" x="340.33" y="-253.5" font-family="Helvetica,sans-Serif" font-size="10.00">/basic.h</text>
</a>
</g>
</g>
<!-- Node3&#45;&gt;Node4 -->
<g id="edge3" class="edge">
<title>Node3&#45;&gt;Node4</title>
<path fill="none" stroke="midnightblue" d="M154.42,-313.48C186.9,-304.57 238.69,-290.37 279.37,-279.22"/>
<polygon fill="midnightblue" stroke="midnightblue" points="280.47,-282.54 289.19,-276.52 278.62,-275.79 280.47,-282.54"/>
</g>
<!-- Node7 -->
<g id="node7" class="node">
<title>Node7</title>
<g id="a_node7"><a xlink:href="fold__compound_8h.html" target="_top" xlink:title="The Basic Fold Compound API.">
<polygon fill="none" stroke="black" points="690.33,-190.5 690.33,-209.5 836.33,-209.5 836.33,-190.5 690.33,-190.5"/>
<text text-anchor="middle" x="763.33" y="-197.5" font-family="Helvetica,sans-Serif" font-size="10.00">ViennaRNA/fold_compound.h</text>
</a>
</g>
</g>
<!-- Node3&#45;&gt;Node7 -->
<g id="edge45" class="edge">
<title>Node3&#45;&gt;Node7</title>
<path fill="none" stroke="midnightblue" d="M193.57,-320.41C254.51,-316.91 344.05,-306.58 416.33,-277 438.14,-268.08 437.5,-254.87 459.33,-246 530.27,-217.19 617.21,-206.54 679.92,-202.74"/>
<polygon fill="midnightblue" stroke="midnightblue" points="680.37,-206.22 690.16,-202.17 679.98,-199.23 680.37,-206.22"/>
</g>
<!-- Node9 -->
<g id="node9" class="node">
<title>Node9</title>
<g id="a_node9"><a xlink:href="params_2basic_8h.html" target="_top" xlink:title="Functions to deal with sets of energy parameters.">
<polygon fill="none" stroke="black" points="121.33,-129 121.33,-148 259.33,-148 259.33,-129 121.33,-129"/>
<text text-anchor="middle" x="190.33" y="-136" font-family="Helvetica,sans-Serif" font-size="10.00">ViennaRNA/params/basic.h</text>
</a>
</g>
</g>
<!-- Node3&#45;&gt;Node9 -->
<g id="edge46" class="edge">
<title>Node3&#45;&gt;Node9</title>
<path fill="none" stroke="midnightblue" d="M113.17,-313.19C104.42,-304.87 92.43,-291.54 87.33,-277 74.53,-240.51 66.88,-222.81 87.33,-190 99.25,-170.89 120.74,-158.81 141.01,-151.27"/>
<polygon fill="midnightblue" stroke="midnightblue" points="142.18,-154.57 150.51,-148.03 139.92,-147.95 142.18,-154.57"/>
</g>
<!-- Node5 -->
<g id="node5" class="node">
<title>Node5</title>
<g id="a_node5"><a xlink:href="constants_8h.html" target="_top" xlink:title="Energy parameter constants.">
<polygon fill="none" stroke="black" points="177.33,-62 177.33,-81 335.33,-81 335.33,-62 177.33,-62"/>
<text text-anchor="middle" x="256.33" y="-69" font-family="Helvetica,sans-Serif" font-size="10.00">ViennaRNA/params/constants.h</text>
</a>
</g>
</g>
<!-- Node4&#45;&gt;Node5 -->
<g id="edge4" class="edge">
<title>Node4&#45;&gt;Node5</title>
<path fill="none" stroke="midnightblue" d="M304.9,-246.4C243.67,-221.69 123.48,-171.51 112.33,-154 88.59,-116.71 145.43,-94.8 194.55,-83.25"/>
<polygon fill="midnightblue" stroke="midnightblue" points="195.57,-86.61 204.57,-81.01 194.05,-79.78 195.57,-86.61"/>
</g>
<!-- Node4&#45;&gt;Node7 -->
<g id="edge6" class="edge">
<title>Node4&#45;&gt;Node7</title>
<path fill="none" stroke="midnightblue" d="M407.48,-248.23C412.16,-247.45 416.81,-246.7 421.33,-246 509.89,-232.26 611.77,-219.2 681.14,-210.73"/>
<polygon fill="midnightblue" stroke="midnightblue" points="681.63,-214.2 691.14,-209.51 680.79,-207.25 681.63,-214.2"/>
</g>
<!-- Node8 -->
<g id="node8" class="node">
<title>Node8</title>
<g id="a_node8"><a xlink:href="model_8h.html" target="_top" xlink:title="The model details data structure and its corresponding modifiers.">
<polygon fill="none" stroke="black" points="1064.33,-62 1064.33,-81 1170.33,-81 1170.33,-62 1064.33,-62"/>
<text text-anchor="middle" x="1117.33" y="-69" font-family="Helvetica,sans-Serif" font-size="10.00">ViennaRNA/model.h</text>
</a>
</g>
</g>
<!-- Node4&#45;&gt;Node8 -->
<g id="edge36" class="edge">
<title>Node4&#45;&gt;Node8</title>
<path fill="none" stroke="midnightblue" d="M407.54,-253.96C540.03,-241.05 824.02,-213.23 845.33,-210 968.66,-191.33 1041.42,-250.6 1120.33,-154 1134.64,-136.48 1129.92,-109.09 1124.35,-90.97"/>
<polygon fill="midnightblue" stroke="midnightblue" points="1127.59,-89.61 1121.03,-81.29 1120.97,-91.88 1127.59,-89.61"/>
</g>
<!-- Node4&#45;&gt;Node9 -->
<g id="edge37" class="edge">
<title>Node4&#45;&gt;Node9</title>
<path fill="none" stroke="midnightblue" d="M318.31,-246.38C287.08,-223.54 231.39,-178.67 204.83,-154.98"/>
<polygon fill="midnightblue" stroke="midnightblue" points="207.04,-152.26 197.3,-148.09 202.32,-157.42 207.04,-152.26"/>
</g>
<!-- Node11 -->
<g id="node11" class="node">
<title>Node11</title>
<g id="a_node11"><a xlink:href="dp__matrices_8h.html" target="_top" xlink:title="Functions to deal with standard dynamic programming (DP) matrices.">
<polygon fill="none" stroke="black" points="553.83,-129 553.83,-148 686.83,-148 686.83,-129 553.83,-129"/>
<text text-anchor="middle" x="620.33" y="-136" font-family="Helvetica,sans-Serif" font-size="10.00">ViennaRNA/dp_matrices.h</text>
</a>
</g>
</g>
<!-- Node4&#45;&gt;Node11 -->
<g id="edge38" class="edge">
<title>Node4&#45;&gt;Node11</title>
<path fill="none" stroke="midnightblue" d="M368.48,-246.38C420.68,-222.51 531.75,-174.54 587.37,-151.89"/>
<polygon fill="midnightblue" stroke="midnightblue" points="588.81,-155.08 596.77,-148.09 586.18,-148.59 588.81,-155.08"/>
</g>
<!-- Node12 -->
<g id="node12" class="node">
<title>Node12</title>
<g id="a_node12"><a xlink:href="hard_8h.html" target="_top" xlink:title="Functions and data structures for handling of secondary structure hard constraints.">
<polygon fill="none" stroke="black" points="1221.83,-123.5 1221.83,-153.5 1340.83,-153.5 1340.83,-123.5 1221.83,-123.5"/>
<text text-anchor="start" x="1229.83" y="-141.5" font-family="Helvetica,sans-Serif" font-size="10.00">ViennaRNA/constraints</text>
<text text-anchor="middle" x="1281.33" y="-130.5" font-family="Helvetica,sans-Serif" font-size="10.00">/hard.h</text>
</a>
</g>
</g>
<!-- Node4&#45;&gt;Node12 -->
<g id="edge39" class="edge">
<title>Node4&#45;&gt;Node12</title>
<path fill="none" stroke="midnightblue" d="M407.62,-253.47C434.02,-250.87 464.57,-248.06 492.33,-246 642.58,-234.84 1025.74,-255.6 1169.33,-210 1202.39,-199.5 1235.41,-176.87 1256.93,-160.07"/>
<polygon fill="midnightblue" stroke="midnightblue" points="1259.25,-162.7 1264.87,-153.72 1254.88,-157.23 1259.25,-162.7"/>
</g>
<!-- Node14 -->
<g id="node14" class="node">
<title>Node14</title>
<g id="a_node14"><a xlink:href="soft_8h.html" target="_top" xlink:title="Functions and data structures for secondary structure soft constraints.">
<polygon fill="none" stroke="black" points="1358.83,-123.5 1358.83,-153.5 1477.83,-153.5 1477.83,-123.5 1358.83,-123.5"/>
<text text-anchor="start" x="1366.83" y="-141.5" font-family="Helvetica,sans-Serif" font-size="10.00">ViennaRNA/constraints</text>
<text text-anchor="middle" x="1418.33" y="-130.5" font-family="Helvetica,sans-Serif" font-size="10.00">/soft.h</text>
</a>
</g>
</g>
<!-- Node4&#45;&gt;Node14 -->
<g id="edge40" class="edge">
<title>Node4&#45;&gt;Node14</title>
<path fill="none" stroke="midnightblue" d="M407.49,-252.61C431.38,-250.25 458.48,-247.81 483.33,-246 799.34,-222.95 883.85,-268.09 1195.33,-210 1256.59,-198.57 1324.48,-174.07 1369.2,-157.18"/>
<polygon fill="midnightblue" stroke="midnightblue" points="1370.54,-160.42 1378.65,-153.6 1368.06,-153.87 1370.54,-160.42"/>
</g>
<!-- Node15 -->
<g id="node15" class="node">
<title>Node15</title>
<g id="a_node15"><a xlink:href="grammar_8h.html" target="_top" xlink:title="Implementations for the RNA folding grammar.">
<polygon fill="none" stroke="black" points="704.83,-129 704.83,-148 821.83,-148 821.83,-129 704.83,-129"/>
<text text-anchor="middle" x="763.33" y="-136" font-family="Helvetica,sans-Serif" font-size="10.00">ViennaRNA/grammar.h</text>
</a>
</g>
</g>
<!-- Node4&#45;&gt;Node15 -->
<g id="edge41" class="edge">
<title>Node4&#45;&gt;Node15</title>
<path fill="none" stroke="midnightblue" d="M389.68,-246.38C474.47,-222.13 646.13,-173.03 723.7,-150.84"/>
<polygon fill="midnightblue" stroke="midnightblue" points="724.91,-154.13 733.56,-148.02 722.98,-147.4 724.91,-154.13"/>
</g>
<!-- Node16 -->
<g id="node16" class="node">
<title>Node16</title>
<g id="a_node16"><a xlink:href="structured__domains_8h.html" target="_top" xlink:title="This module provides interfaces that deal with additional structured domains in the folding grammar.">
<polygon fill="none" stroke="black" points="420.83,-123.5 420.83,-153.5 535.83,-153.5 535.83,-123.5 420.83,-123.5"/>
<text text-anchor="start" x="428.83" y="-141.5" font-family="Helvetica,sans-Serif" font-size="10.00">ViennaRNA/structured</text>
<text text-anchor="middle" x="478.33" y="-130.5" font-family="Helvetica,sans-Serif" font-size="10.00">_domains.h</text>
</a>
</g>
</g>
<!-- Node4&#45;&gt;Node16 -->
<g id="edge42" class="edge">
<title>Node4&#45;&gt;Node16</title>
<path fill="none" stroke="midnightblue" d="M356.43,-246.38C380.63,-225.16 426.54,-184.91 454.59,-160.32"/>
<polygon fill="midnightblue" stroke="midnightblue" points="457.12,-162.75 462.33,-153.53 452.51,-157.49 457.12,-162.75"/>
</g>
<!-- Node17 -->
<g id="node17" class="node">
<title>Node17</title>
<g id="a_node17"><a xlink:href="unstructured__domains_8h.html" target="_top" xlink:title="Functions to modify unstructured domains, e.g. to incorporate ligands binding to unpaired stretches.">
<polygon fill="none" stroke="black" points="277.83,-123.5 277.83,-153.5 402.83,-153.5 402.83,-123.5 277.83,-123.5"/>
<text text-anchor="start" x="285.83" y="-141.5" font-family="Helvetica,sans-Serif" font-size="10.00">ViennaRNA/unstructured</text>
<text text-anchor="middle" x="340.33" y="-130.5" font-family="Helvetica,sans-Serif" font-size="10.00">_domains.h</text>
</a>
</g>
</g>
<!-- Node4&#45;&gt;Node17 -->
<g id="edge43" class="edge">
<title>Node4&#45;&gt;Node17</title>
<path fill="none" stroke="midnightblue" d="M335.78,-246.14C333.23,-225.86 332.9,-188.53 334.79,-163.86"/>
<polygon fill="midnightblue" stroke="midnightblue" points="338.28,-164.13 335.78,-153.84 331.32,-163.45 338.28,-164.13"/>
</g>
<!-- Node18 -->
<g id="node18" class="node">
<title>Node18</title>
<g id="a_node18"><a xlink:href="utils_2structures_8h.html" target="_top" xlink:title="Various utility&#45; and helper&#45;functions for secondary structure parsing, converting,...">
<polygon fill="none" stroke="black" points="15.33,-62 15.33,-81 159.33,-81 159.33,-62 15.33,-62"/>
<text text-anchor="middle" x="87.33" y="-69" font-family="Helvetica,sans-Serif" font-size="10.00">ViennaRNA/utils/structures.h</text>
</a>
</g>
</g>
<!-- Node4&#45;&gt;Node18 -->
<g id="edge44" class="edge">
<title>Node4&#45;&gt;Node18</title>
<path fill="none" stroke="midnightblue" d="M273.13,-248.55C238.87,-240.45 197.44,-227.91 163.33,-210 128.05,-191.48 113.78,-188.19 93.33,-154 81.76,-134.65 78.73,-108.46 80.19,-91.05"/>
<polygon fill="midnightblue" stroke="midnightblue" points="83.67,-91.45 81.75,-81.03 76.75,-90.38 83.67,-91.45"/>
</g>
<!-- Node6 -->
<g id="node6" class="node">
<title>Node6</title>
<g id="a_node6"><a xlink:title=" ">
<polygon fill="none" stroke="#bfbfbf" points="232.33,-0.5 232.33,-19.5 280.33,-19.5 280.33,-0.5 232.33,-0.5"/>
<text text-anchor="middle" x="256.33" y="-7.5" font-family="Helvetica,sans-Serif" font-size="10.00">limits.h</text>
</a>
</g>
</g>
<!-- Node5&#45;&gt;Node6 -->
<g id="edge5" class="edge">
<title>Node5&#45;&gt;Node6</title>
<path fill="none" stroke="midnightblue" d="M256.33,-61.98C256.33,-53.58 256.33,-40.48 256.33,-29.66"/>
<polygon fill="midnightblue" stroke="midnightblue" points="259.83,-29.51 256.33,-19.51 252.83,-29.51 259.83,-29.51"/>
</g>
<!-- Node7&#45;&gt;Node8 -->
<g id="edge7" class="edge">
<title>Node7&#45;&gt;Node8</title>
<path fill="none" stroke="midnightblue" d="M836.56,-198.59C923.4,-196.54 1061.09,-187.84 1098.33,-154 1115.69,-138.23 1118.71,-109.94 1118.57,-91.2"/>
<polygon fill="midnightblue" stroke="midnightblue" points="1122.07,-91.05 1118.2,-81.19 1115.08,-91.31 1122.07,-91.05"/>
</g>
<!-- Node7&#45;&gt;Node9 -->
<g id="edge8" class="edge">
<title>Node7&#45;&gt;Node9</title>
<path fill="none" stroke="midnightblue" d="M690.25,-193.6C571.18,-184.26 340.85,-165.03 260.33,-154 251.79,-152.83 242.77,-151.38 234.12,-149.85"/>
<polygon fill="midnightblue" stroke="midnightblue" points="234.67,-146.39 224.2,-148.04 233.41,-153.28 234.67,-146.39"/>
</g>
<!-- Node10 -->
<g id="node10" class="node">
<title>Node10</title>
<g id="a_node10"><a xlink:href="sequence_8h.html" target="_top" xlink:title="Functions and data structures related to sequence representations ,.">
<polygon fill="none" stroke="black" points="967.33,-129 967.33,-148 1089.33,-148 1089.33,-129 967.33,-129"/>
<text text-anchor="middle" x="1028.33" y="-136" font-family="Helvetica,sans-Serif" font-size="10.00">ViennaRNA/sequence.h</text>
</a>
</g>
</g>
<!-- Node7&#45;&gt;Node10 -->
<g id="edge13" class="edge">
<title>Node7&#45;&gt;Node10</title>
<path fill="none" stroke="midnightblue" d="M796.4,-190.48C841.41,-179.85 922.17,-161.68 975.57,-150.15"/>
<polygon fill="midnightblue" stroke="midnightblue" points="976.5,-153.53 985.54,-148.01 975.02,-146.69 976.5,-153.53"/>
</g>
<!-- Node7&#45;&gt;Node11 -->
<g id="edge15" class="edge">
<title>Node7&#45;&gt;Node11</title>
<path fill="none" stroke="midnightblue" d="M737.94,-190.48C711.65,-180.45 671.16,-163.7 645.1,-152.15"/>
<polygon fill="midnightblue" stroke="midnightblue" points="646.44,-148.92 635.89,-148.01 643.57,-155.3 646.44,-148.92"/>
</g>
<!-- Node7&#45;&gt;Node12 -->
<g id="edge18" class="edge">
<title>Node7&#45;&gt;Node12</title>
<path fill="none" stroke="midnightblue" d="M836.44,-193.16C923.09,-186.11 1071.49,-172.81 1198.33,-154 1202.67,-153.36 1207.15,-152.63 1211.67,-151.86"/>
<polygon fill="midnightblue" stroke="midnightblue" points="1212.35,-155.29 1221.59,-150.11 1211.13,-148.4 1212.35,-155.29"/>
</g>
<!-- Node7&#45;&gt;Node14 -->
<g id="edge22" class="edge">
<title>Node7&#45;&gt;Node14</title>
<path fill="none" stroke="midnightblue" d="M836.56,-196.29C946.61,-191.65 1160.76,-180.05 1341.33,-154 1343.7,-153.66 1346.11,-153.28 1348.55,-152.88"/>
<polygon fill="midnightblue" stroke="midnightblue" points="1349.41,-156.28 1358.65,-151.09 1348.19,-149.39 1349.41,-156.28"/>
</g>
<!-- Node7&#45;&gt;Node15 -->
<g id="edge26" class="edge">
<title>Node7&#45;&gt;Node15</title>
<path fill="none" stroke="midnightblue" d="M758.43,-190.48C756.6,-182.08 756.13,-168.98 757.02,-158.16"/>
<polygon fill="midnightblue" stroke="midnightblue" points="760.52,-158.4 758.43,-148.01 753.59,-157.43 760.52,-158.4"/>
</g>
<!-- Node7&#45;&gt;Node16 -->
<g id="edge28" class="edge">
<title>Node7&#45;&gt;Node16</title>
<path fill="none" stroke="midnightblue" d="M721.52,-190.49C679.67,-181.95 613.18,-168.3 545.98,-154.13"/>
<polygon fill="midnightblue" stroke="midnightblue" points="546.58,-150.67 536.07,-152.03 545.13,-157.52 546.58,-150.67"/>
</g>
<!-- Node7&#45;&gt;Node17 -->
<g id="edge29" class="edge">
<title>Node7&#45;&gt;Node17</title>
<path fill="none" stroke="midnightblue" d="M690.13,-191.9C619.5,-184.28 509.59,-171.15 410.81,-155.21"/>
<polygon fill="midnightblue" stroke="midnightblue" points="411.11,-151.71 400.67,-153.56 409.98,-158.62 411.11,-151.71"/>
</g>
<!-- Node20 -->
<g id="node20" class="node">
<title>Node20</title>
<g id="a_node20"><a xlink:href="zscore_8h_source.html" target="_top" xlink:title=" ">
<polygon fill="none" stroke="black" points="839.83,-129 839.83,-148 948.83,-148 948.83,-129 839.83,-129"/>
<text text-anchor="middle" x="894.33" y="-136" font-family="Helvetica,sans-Serif" font-size="10.00">ViennaRNA/zscore.h</text>
</a>
</g>
</g>
<!-- Node7&#45;&gt;Node20 -->
<g id="edge35" class="edge">
<title>Node7&#45;&gt;Node20</title>
<path fill="none" stroke="midnightblue" d="M782.1,-190.48C804.18,-180.45 841.05,-163.7 866.47,-152.15"/>
<polygon fill="midnightblue" stroke="midnightblue" points="867.94,-155.33 875.6,-148.01 865.05,-148.96 867.94,-155.33"/>
</g>
<!-- Node9&#45;&gt;Node4 -->
<g id="edge10" class="edge">
<title>Node9&#45;&gt;Node4</title>
<path fill="none" stroke="midnightblue" d="M204.67,-148.09C231.59,-167 288.75,-212.69 319.72,-239.64"/>
<polygon fill="midnightblue" stroke="midnightblue" points="317.54,-242.39 327.36,-246.38 322.18,-237.14 317.54,-242.39"/>
</g>
<!-- Node9&#45;&gt;Node5 -->
<g id="edge9" class="edge">
<title>Node9&#45;&gt;Node5</title>
<path fill="none" stroke="midnightblue" d="M199.23,-128.73C209.72,-118.4 227.36,-101.04 240.26,-88.33"/>
<polygon fill="midnightblue" stroke="midnightblue" points="242.9,-90.64 247.57,-81.13 237.99,-85.65 242.9,-90.64"/>
</g>
<!-- Node9&#45;&gt;Node7 -->
<g id="edge11" class="edge">
<title>Node9&#45;&gt;Node7</title>
<path fill="none" stroke="midnightblue" d="M241.52,-148.04C253.64,-150.2 266.45,-152.37 278.33,-154 354.09,-164.38 562.44,-182.01 679.98,-191.84"/>
<polygon fill="midnightblue" stroke="midnightblue" points="679.76,-195.33 690.02,-192.68 680.34,-188.36 679.76,-195.33"/>
</g>
<!-- Node9&#45;&gt;Node8 -->
<g id="edge12" class="edge">
<title>Node9&#45;&gt;Node8</title>
<path fill="none" stroke="midnightblue" d="M231.6,-128.94C243.71,-126.7 257.01,-124.49 269.33,-123 561.08,-87.67 912.42,-76.74 1053.83,-73.64"/>
<polygon fill="midnightblue" stroke="midnightblue" points="1054.12,-77.13 1064.04,-73.42 1053.97,-70.13 1054.12,-77.13"/>
</g>
<!-- Node10&#45;&gt;Node7 -->
<g id="edge14" class="edge">
<title>Node10&#45;&gt;Node7</title>
<path fill="none" stroke="midnightblue" d="M995.33,-148.01C950.36,-158.63 869.6,-176.79 816.17,-188.33"/>
<polygon fill="midnightblue" stroke="midnightblue" points="815.24,-184.95 806.2,-190.48 816.71,-191.79 815.24,-184.95"/>
</g>
<!-- Node11&#45;&gt;Node4 -->
<g id="edge16" class="edge">
<title>Node11&#45;&gt;Node4</title>
<path fill="none" stroke="midnightblue" d="M604.13,-148.09C562.39,-167.69 450.94,-216.03 386.98,-242.49"/>
<polygon fill="midnightblue" stroke="midnightblue" points="385.44,-239.34 377.52,-246.38 388.1,-245.81 385.44,-239.34"/>
</g>
<!-- Node11&#45;&gt;Node7 -->
<g id="edge17" class="edge">
<title>Node11&#45;&gt;Node7</title>
<path fill="none" stroke="midnightblue" d="M645.68,-148.01C671.96,-158.03 712.45,-174.78 738.52,-186.33"/>
<polygon fill="midnightblue" stroke="midnightblue" points="737.19,-189.57 747.74,-190.48 740.06,-183.18 737.19,-189.57"/>
</g>
<!-- Node12&#45;&gt;Node7 -->
<g id="edge19" class="edge">
<title>Node12&#45;&gt;Node7</title>
<path fill="none" stroke="midnightblue" d="M1221.83,-153.15C1219.98,-153.45 1218.14,-153.73 1216.33,-154 1088.17,-173.01 937.98,-186.39 846.73,-193.38"/>
<polygon fill="midnightblue" stroke="midnightblue" points="846.42,-189.89 836.72,-194.14 846.95,-196.87 846.42,-189.89"/>
</g>
<!-- Node13 -->
<g id="node13" class="node">
<title>Node13</title>
<g id="a_node13"><a xlink:href="constraints_2basic_8h.html" target="_top" xlink:title="Functions and data structures for constraining secondary structure predictions and evaluation.">
<polygon fill="none" stroke="black" points="1221.83,-56.5 1221.83,-86.5 1340.83,-86.5 1340.83,-56.5 1221.83,-56.5"/>
<text text-anchor="start" x="1229.83" y="-74.5" font-family="Helvetica,sans-Serif" font-size="10.00">ViennaRNA/constraints</text>
<text text-anchor="middle" x="1281.33" y="-63.5" font-family="Helvetica,sans-Serif" font-size="10.00">/basic.h</text>
</a>
</g>
</g>
<!-- Node12&#45;&gt;Node13 -->
<g id="edge20" class="edge">
<title>Node12&#45;&gt;Node13</title>
<path fill="none" stroke="midnightblue" d="M1281.33,-123.4C1281.33,-115.64 1281.33,-105.81 1281.33,-96.86"/>
<polygon fill="midnightblue" stroke="midnightblue" points="1284.83,-96.58 1281.33,-86.58 1277.83,-96.58 1284.83,-96.58"/>
</g>
<!-- Node13&#45;&gt;Node7 -->
<g id="edge21" class="edge">
<title>Node13&#45;&gt;Node7</title>
<path fill="none" stroke="midnightblue" d="M1259.69,-86.52C1229.7,-105.21 1173.21,-137.82 1120.33,-154 1029.34,-181.85 920.22,-192.49 846.78,-196.54"/>
<polygon fill="midnightblue" stroke="midnightblue" points="846.46,-193.05 836.66,-197.07 846.82,-200.04 846.46,-193.05"/>
</g>
<!-- Node14&#45;&gt;Node4 -->
<g id="edge23" class="edge">
<title>Node14&#45;&gt;Node4</title>
<path fill="none" stroke="midnightblue" d="M1391.29,-153.6C1352.48,-170.4 1279.09,-197.74 1213.33,-210 901.85,-268.09 817.34,-222.95 501.33,-246 474.14,-247.98 444.26,-250.71 417.66,-253.27"/>
<polygon fill="midnightblue" stroke="midnightblue" points="417.25,-249.79 407.63,-254.24 417.92,-256.76 417.25,-249.79"/>
</g>
<!-- Node14&#45;&gt;Node7 -->
<g id="edge24" class="edge">
<title>Node14&#45;&gt;Node7</title>
<path fill="none" stroke="midnightblue" d="M1362.58,-153.51C1361.49,-153.68 1360.41,-153.84 1359.33,-154 1177.91,-180.18 962.6,-191.76 846.82,-196.35"/>
<polygon fill="midnightblue" stroke="midnightblue" points="846.47,-192.86 836.62,-196.75 846.75,-199.86 846.47,-192.86"/>
</g>
<!-- Node14&#45;&gt;Node13 -->
<g id="edge25" class="edge">
<title>Node14&#45;&gt;Node13</title>
<path fill="none" stroke="midnightblue" d="M1388.6,-123.4C1368.59,-113.9 1341.98,-101.28 1320.28,-90.98"/>
<polygon fill="midnightblue" stroke="midnightblue" points="1321.54,-87.7 1311,-86.58 1318.54,-94.03 1321.54,-87.7"/>
</g>
<!-- Node15&#45;&gt;Node7 -->
<g id="edge27" class="edge">
<title>Node15&#45;&gt;Node7</title>
<path fill="none" stroke="midnightblue" d="M768.23,-148.01C770.06,-156.4 770.53,-169.5 769.65,-180.32"/>
<polygon fill="midnightblue" stroke="midnightblue" points="766.15,-180.09 768.23,-190.48 773.08,-181.05 766.15,-180.09"/>
</g>
<!-- Node17&#45;&gt;Node4 -->
<g id="edge30" class="edge">
<title>Node17&#45;&gt;Node4</title>
<path fill="none" stroke="midnightblue" d="M344.88,-153.84C347.44,-174.11 347.77,-211.44 345.87,-236.12"/>
<polygon fill="midnightblue" stroke="midnightblue" points="342.38,-235.85 344.89,-246.14 349.35,-236.54 342.38,-235.85"/>
</g>
<!-- Node17&#45;&gt;Node7 -->
<g id="edge31" class="edge">
<title>Node17&#45;&gt;Node7</title>
<path fill="none" stroke="midnightblue" d="M403.06,-150.77C409.25,-151.92 415.42,-153.03 421.33,-154 509.88,-168.57 611.65,-181.17 681.06,-189.29"/>
<polygon fill="midnightblue" stroke="midnightblue" points="680.72,-192.78 691.06,-190.46 681.53,-185.83 680.72,-192.78"/>
</g>
<!-- Node17&#45;&gt;Node18 -->
<g id="edge32" class="edge">
<title>Node17&#45;&gt;Node18</title>
<path fill="none" stroke="midnightblue" d="M285.75,-123.48C239.22,-111.52 173.25,-94.57 130.37,-83.56"/>
<polygon fill="midnightblue" stroke="midnightblue" points="131.08,-80.13 120.53,-81.03 129.34,-86.91 131.08,-80.13"/>
</g>
<!-- Node18&#45;&gt;Node4 -->
<g id="edge34" class="edge">
<title>Node18&#45;&gt;Node4</title>
<path fill="none" stroke="midnightblue" d="M92.28,-81.03C95.82,-96.66 97.23,-130.42 111.33,-154 131.78,-188.19 146.05,-191.48 181.33,-210 209.31,-224.69 242.21,-235.77 270.85,-243.75"/>
<polygon fill="midnightblue" stroke="midnightblue" points="270.22,-247.2 280.78,-246.44 272.05,-240.45 270.22,-247.2"/>
</g>
<!-- Node19 -->
<g id="node19" class="node">
<title>Node19</title>
<g id="a_node19"><a xlink:title=" ">
<polygon fill="none" stroke="#bfbfbf" points="14.33,-0.5 14.33,-19.5 60.33,-19.5 60.33,-0.5 14.33,-0.5"/>
<text text-anchor="middle" x="37.33" y="-7.5" font-family="Helvetica,sans-Serif" font-size="10.00">stdio.h</text>
</a>
</g>
</g>
<!-- Node18&#45;&gt;Node19 -->
<g id="edge33" class="edge">
<title>Node18&#45;&gt;Node19</title>
<path fill="none" stroke="midnightblue" d="M80.17,-61.98C72.59,-52.96 60.46,-38.52 51.04,-27.31"/>
<polygon fill="midnightblue" stroke="midnightblue" points="53.6,-24.91 44.48,-19.51 48.24,-29.42 53.6,-24.91"/>
</g>
<!-- Node21&#45;&gt;Node4 -->
<g id="edge54" class="edge">
<title>Node21&#45;&gt;Node4</title>
<path fill="none" stroke="midnightblue" d="M502.74,-369.46C517.29,-356.5 540.41,-331.41 526.33,-313 512.73,-295.21 462.48,-282.21 417.64,-273.87"/>
<polygon fill="midnightblue" stroke="midnightblue" points="418.04,-270.38 407.58,-272.05 416.8,-277.27 418.04,-270.38"/>
</g>
<!-- Node21&#45;&gt;Node7 -->
<g id="edge55" class="edge">
<title>Node21&#45;&gt;Node7</title>
<path fill="none" stroke="midnightblue" d="M505.4,-369.46C548.68,-341.2 687.61,-250.46 741.59,-215.2"/>
<polygon fill="midnightblue" stroke="midnightblue" points="743.62,-218.06 750.07,-209.66 739.79,-212.2 743.62,-218.06"/>
</g>
<!-- Node21&#45;&gt;Node9 -->
<g id="edge56" class="edge">
<title>Node21&#45;&gt;Node9</title>
<path fill="none" stroke="midnightblue" d="M424.91,-370C390.59,-363.71 349.27,-352.58 316.33,-333 247.67,-292.18 209.56,-197.67 196.04,-157.78"/>
<polygon fill="midnightblue" stroke="midnightblue" points="199.3,-156.5 192.87,-148.07 192.64,-158.67 199.3,-156.5"/>
</g>
<!-- Node22 -->
<g id="node22" class="node">
<title>Node22</title>
<g id="a_node22"><a xlink:title=" ">
<polygon fill="none" stroke="#bfbfbf" points="611.83,-313.5 611.83,-332.5 658.83,-332.5 658.83,-313.5 611.83,-313.5"/>
<text text-anchor="middle" x="635.33" y="-320.5" font-family="Helvetica,sans-Serif" font-size="10.00">math.h</text>
</a>
</g>
</g>
<!-- Node21&#45;&gt;Node22 -->
<g id="edge48" class="edge">
<title>Node21&#45;&gt;Node22</title>
<path fill="none" stroke="midnightblue" d="M514.99,-369.44C538.73,-360.48 576.24,-346.31 603.07,-336.18"/>
<polygon fill="midnightblue" stroke="midnightblue" points="604.66,-339.32 612.78,-332.52 602.19,-332.77 604.66,-339.32"/>
</g>
<!-- Node23 -->
<g id="node23" class="node">
<title>Node23</title>
<g id="a_node23"><a xlink:title=" ">
<polygon fill="none" stroke="#bfbfbf" points="467.83,-313.5 467.83,-332.5 516.83,-332.5 516.83,-313.5 467.83,-313.5"/>
<text text-anchor="middle" x="492.33" y="-320.5" font-family="Helvetica,sans-Serif" font-size="10.00">string.h</text>
</a>
</g>
</g>
<!-- Node21&#45;&gt;Node23 -->
<g id="edge49" class="edge">
<title>Node21&#45;&gt;Node23</title>
<path fill="none" stroke="midnightblue" d="M492.33,-369.08C492.33,-362.01 492.33,-351.86 492.33,-342.99"/>
<polygon fill="midnightblue" stroke="midnightblue" points="495.83,-342.75 492.33,-332.75 488.83,-342.75 495.83,-342.75"/>
</g>
<!-- Node24 -->
<g id="node24" class="node">
<title>Node24</title>
<g id="a_node24"><a xlink:href="utils_2basic_8h.html" target="_top" xlink:title="General utility&#45; and helper&#45;functions used throughout the ViennaRNA Package.">
<polygon fill="none" stroke="black" points="325.33,-313.5 325.33,-332.5 449.33,-332.5 449.33,-313.5 325.33,-313.5"/>
<text text-anchor="middle" x="387.33" y="-320.5" font-family="Helvetica,sans-Serif" font-size="10.00">ViennaRNA/utils/basic.h</text>
</a>
</g>
</g>
<!-- Node21&#45;&gt;Node24 -->
<g id="edge50" class="edge">
<title>Node21&#45;&gt;Node24</title>
<path fill="none" stroke="midnightblue" d="M475.46,-369.32C458.62,-360.66 432.53,-347.24 413.09,-337.25"/>
<polygon fill="midnightblue" stroke="midnightblue" points="414.65,-334.12 404.16,-332.65 411.45,-340.34 414.65,-334.12"/>
</g>
<!-- Node24&#45;&gt;Node4 -->
<g id="edge53" class="edge">
<title>Node24&#45;&gt;Node4</title>
<path fill="none" stroke="midnightblue" d="M380.6,-313.48C374.65,-305.94 365.71,-294.63 357.76,-284.57"/>
<polygon fill="midnightblue" stroke="midnightblue" points="360.35,-282.2 351.41,-276.52 354.86,-286.54 360.35,-282.2"/>
</g>
<!-- Node24&#45;&gt;Node19 -->
<g id="edge51" class="edge">
<title>Node24&#45;&gt;Node19</title>
<path fill="none" stroke="midnightblue" d="M357.63,-313.5C307.67,-298.25 205.06,-262.86 131.33,-210 67.99,-164.59 36.45,-158.89 6.33,-87 1.01,-74.29 2.24,-69.16 6.33,-56 9.56,-45.62 16.11,-35.52 22.36,-27.53"/>
<polygon fill="midnightblue" stroke="midnightblue" points="25.12,-29.68 28.85,-19.77 19.75,-25.19 25.12,-29.68"/>
</g>
<!-- Node25 -->
<g id="node25" class="node">
<title>Node25</title>
<g id="a_node25"><a xlink:title=" ">
<polygon fill="none" stroke="#bfbfbf" points="501.33,-252 501.33,-271 553.33,-271 553.33,-252 501.33,-252"/>
<text text-anchor="middle" x="527.33" y="-259" font-family="Helvetica,sans-Serif" font-size="10.00">stdarg.h</text>
</a>
</g>
</g>
<!-- Node24&#45;&gt;Node25 -->
<g id="edge52" class="edge">
<title>Node24&#45;&gt;Node25</title>
<path fill="none" stroke="midnightblue" d="M407.39,-313.48C431.09,-303.4 470.74,-286.55 497.91,-275"/>
<polygon fill="midnightblue" stroke="midnightblue" points="499.48,-278.14 507.31,-271.01 496.74,-271.7 499.48,-278.14"/>
</g>
<!-- Node26&#45;&gt;Node4 -->
<g id="edge62" class="edge">
<title>Node26&#45;&gt;Node4</title>
<path fill="none" stroke="midnightblue" d="M720.37,-369.09C711.81,-354.66 692.81,-326.43 668.33,-313 646.75,-301.16 507.79,-282.62 417.8,-271.6"/>
<polygon fill="midnightblue" stroke="midnightblue" points="417.97,-268.1 407.62,-270.36 417.12,-275.05 417.97,-268.1"/>
</g>
<!-- Node26&#45;&gt;Node7 -->
<g id="edge63" class="edge">
<title>Node26&#45;&gt;Node7</title>
<path fill="none" stroke="midnightblue" d="M728.33,-369.46C731.4,-360.47 736.17,-345.87 739.33,-333 749.11,-293.18 756.79,-245.71 760.63,-219.93"/>
<polygon fill="midnightblue" stroke="midnightblue" points="764.14,-220.13 762.12,-209.73 757.21,-219.12 764.14,-220.13"/>
</g>
<!-- Node26&#45;&gt;Node9 -->
<g id="edge64" class="edge">
<title>Node26&#45;&gt;Node9</title>
<path fill="none" stroke="midnightblue" d="M723.02,-369.38C719,-355.85 709.57,-329.49 693.33,-313 647.45,-266.41 623.16,-270 562.33,-246 449.91,-201.64 311.78,-167.04 239.6,-150.38"/>
<polygon fill="midnightblue" stroke="midnightblue" points="239.97,-146.87 229.44,-148.05 238.41,-153.7 239.97,-146.87"/>
</g>
<!-- Node26&#45;&gt;Node12 -->
<g id="edge65" class="edge">
<title>Node26&#45;&gt;Node12</title>
<path fill="none" stroke="midnightblue" d="M766.52,-369.48C852.53,-350.45 1055.56,-299.05 1204.33,-210 1226.45,-196.76 1247.75,-176.48 1262.33,-161.06"/>
<polygon fill="midnightblue" stroke="midnightblue" points="1265.09,-163.22 1269.3,-153.5 1259.95,-158.48 1265.09,-163.22"/>
</g>
<!-- Node26&#45;&gt;Node14 -->
<g id="edge66" class="edge">
<title>Node26&#45;&gt;Node14</title>
<path fill="none" stroke="midnightblue" d="M778.53,-369.46C824.82,-361.56 893.52,-348.68 952.33,-333 1096.75,-294.5 1129.45,-272.27 1265.33,-210 1303.88,-192.33 1347.85,-172.06 1378.73,-157.8"/>
<polygon fill="midnightblue" stroke="midnightblue" points="1380.26,-160.95 1387.87,-153.58 1377.32,-154.6 1380.26,-160.95"/>
</g>
<!-- Node26&#45;&gt;Node22 -->
<g id="edge58" class="edge">
<title>Node26&#45;&gt;Node22</title>
<path fill="none" stroke="midnightblue" d="M710.87,-369.32C696.83,-360.9 675.28,-347.97 658.79,-338.07"/>
<polygon fill="midnightblue" stroke="midnightblue" points="660.13,-334.8 649.76,-332.65 656.53,-340.8 660.13,-334.8"/>
</g>
<!-- Node26&#45;&gt;Node24 -->
<g id="edge59" class="edge">
<title>Node26&#45;&gt;Node24</title>
<path fill="none" stroke="midnightblue" d="M671.77,-369.44C611.7,-359.85 514.34,-344.29 450.57,-334.1"/>
<polygon fill="midnightblue" stroke="midnightblue" points="451.07,-330.64 440.64,-332.52 449.96,-337.55 451.07,-330.64"/>
</g>
<!-- Node27 -->
<g id="node27" class="node">
<title>Node27</title>
<g id="a_node27"><a xlink:href="default_8h_source.html" target="_top" xlink:title=" ">
<polygon fill="none" stroke="black" points="1428.33,-190.5 1428.33,-209.5 1572.33,-209.5 1572.33,-190.5 1428.33,-190.5"/>
<text text-anchor="middle" x="1500.33" y="-197.5" font-family="Helvetica,sans-Serif" font-size="10.00">ViennaRNA/params/default.h</text>
</a>
</g>
</g>
<!-- Node26&#45;&gt;Node27 -->
<g id="edge60" class="edge">
<title>Node26&#45;&gt;Node27</title>
<path fill="none" stroke="midnightblue" d="M794.09,-376.85C957,-373.66 1356.78,-362.84 1409.33,-333 1454.39,-307.42 1482.03,-249.25 1493.77,-219.41"/>
<polygon fill="midnightblue" stroke="midnightblue" points="1497.13,-220.4 1497.37,-209.81 1490.58,-217.94 1497.13,-220.4"/>
</g>
<!-- Node27&#45;&gt;Node5 -->
<g id="edge61" class="edge">
<title>Node27&#45;&gt;Node5</title>
<path fill="none" stroke="midnightblue" d="M1501.92,-190.31C1504.3,-174.24 1506.63,-139.97 1487.33,-123 1465.91,-104.17 625.1,-81.65 345.61,-74.67"/>
<polygon fill="midnightblue" stroke="midnightblue" points="345.6,-71.17 335.51,-74.42 345.42,-78.16 345.6,-71.17"/>
</g>
<!-- Node28&#45;&gt;Node4 -->
<g id="edge69" class="edge">
<title>Node28&#45;&gt;Node4</title>
<path fill="none" stroke="midnightblue" d="M292.11,-369.23C285.19,-356.39 274.8,-331.95 283.33,-313 288.67,-301.13 298.33,-290.92 308.2,-282.85"/>
<polygon fill="midnightblue" stroke="midnightblue" points="310.61,-285.43 316.45,-276.59 306.37,-279.85 310.61,-285.43"/>
</g>
<!-- Node28&#45;&gt;Node7 -->
<g id="edge70" class="edge">
<title>Node28&#45;&gt;Node7</title>
<path fill="none" stroke="midnightblue" d="M297.32,-369.05C297.81,-355.08 300.85,-328.11 316.33,-313 360.76,-269.62 395.53,-304.23 451.33,-277 471.86,-266.98 471.34,-255.02 492.33,-246 552.04,-220.33 624.97,-209.24 680.13,-204.48"/>
<polygon fill="midnightblue" stroke="midnightblue" points="680.53,-207.96 690.21,-203.66 679.96,-200.98 680.53,-207.96"/>
</g>
<!-- Node28&#45;&gt;Node9 -->
<g id="edge71" class="edge">
<title>Node28&#45;&gt;Node9</title>
<path fill="none" stroke="midnightblue" d="M219.03,-374.78C153.18,-370.23 66.36,-359.29 44.33,-333 17.86,-301.4 -53.25,-341.07 73.33,-190 89.56,-170.64 114.59,-158.5 137.34,-151"/>
<polygon fill="midnightblue" stroke="midnightblue" points="138.38,-154.34 146.91,-148.05 136.33,-147.64 138.38,-154.34"/>
</g>
<!-- Node28&#45;&gt;Node24 -->
<g id="edge68" class="edge">
<title>Node28&#45;&gt;Node24</title>
<path fill="none" stroke="midnightblue" d="M311.79,-369.32C325.83,-360.9 347.38,-347.97 363.87,-338.07"/>
<polygon fill="midnightblue" stroke="midnightblue" points="366.13,-340.8 372.91,-332.65 362.53,-334.8 366.13,-340.8"/>
</g>
</g>
</svg>
        <g id="navigator" transform="translate(0 0)" fill="#404254">
                <rect fill="#f2f5e9" fill-opacity="0.5" stroke="#606060" stroke-width=".5" x="0" y="0" width="60" height="60"/>
                <use id="zoomplus" xlink:href="#zoomPlus" x="17" y="9" onmousedown="handleZoom(evt,'in')"/>
                <use id="zoomminus" xlink:href="#zoomMin" x="42" y="9" onmousedown="handleZoom(evt,'out')"/>
                <use id="reset" xlink:href="#resetDef" x="30" y="36" onmousedown="handleReset()"/>
                <g id="arrowUp" xlink:href="#dirArrow" transform="translate(30 24)" onmousedown="handlePan(0,-1)">
                  <use xlink:href="#rim" fill="#404040">
                        <set attributeName="fill" to="#808080" begin="arrowUp.mouseover" end="arrowUp.mouseout"/>
                  </use>
                  <path fill="none" stroke="white" stroke-width="1.5" d="M0,-3.0v7 M-2.5,-0.5L0,-3.0L2.5,-0.5"/>
                </g>
                <g id="arrowRight" xlink:href="#dirArrow" transform="rotate(90) translate(36 -43)" onmousedown="handlePan(1,0)">
                  <use xlink:href="#rim" fill="#404040">
                        <set attributeName="fill" to="#808080" begin="arrowRight.mouseover" end="arrowRight.mouseout"/>
                  </use>
                  <path fill="none" stroke="white" stroke-width="1.5" d="M0,-3.0v7 M-2.5,-0.5L0,-3.0L2.5,-0.5"/>
                </g>
                <g id="arrowDown" xlink:href="#dirArrow" transform="rotate(180) translate(-30 -48)" onmousedown="handlePan(0,1)">
                  <use xlink:href="#rim" fill="#404040">
                        <set attributeName="fill" to="#808080" begin="arrowDown.mouseover" end="arrowDown.mouseout"/>
                  </use>
                  <path fill="none" stroke="white" stroke-width="1.5" d="M0,-3.0v7 M-2.5,-0.5L0,-3.0L2.5,-0.5"/>
                </g>
                <g id="arrowLeft" xlink:href="#dirArrow" transform="rotate(270) translate(-36 17)" onmousedown="handlePan(-1,0)">
                  <use xlink:href="#rim" fill="#404040">
                        <set attributeName="fill" to="#808080" begin="arrowLeft.mouseover" end="arrowLeft.mouseout"/>
                  </use>
                  <path fill="none" stroke="white" stroke-width="1.5" d="M0,-3.0v7 M-2.5,-0.5L0,-3.0L2.5,-0.5"/>
                </g>
        </g>
        <svg viewBox="0 0 15 15" width="100%" height="30px" preserveAspectRatio="xMaxYMin meet">
         <g id="arrow_out" transform="scale(0.3 0.3)">
          <a xlink:href="loop__energies_8h__incl_org.svg" target="_base">
           <rect id="button" ry="5" rx="5" y="6" x="6" height="38" width="38"
                fill="#f2f5e9" fill-opacity="0.5" stroke="#606060" stroke-width="1.0"/>
           <path id="arrow"
             d="M 11.500037,31.436501 C 11.940474,20.09759 22.043105,11.32322 32.158766,21.979434 L 37.068811,17.246167 C 37.068811,17.246167 37.088388,32 37.088388,32 L 22.160133,31.978069 C 22.160133,31.978069 26.997745,27.140456 26.997745,27.140456 C 18.528582,18.264221 13.291696,25.230495 11.500037,31.436501 z"
             style="fill:#404040;"/>
          </a>
         </g>
        </svg>
</svg>
