<?xml version="1.0" encoding="UTF-8" standalone="no"?>
<!DOCTYPE svg PUBLIC "-//W3C//DTD SVG 1.1//EN"
 "http://www.w3.org/Graphics/SVG/1.1/DTD/svg11.dtd">
<!-- Generated by graphviz version 2.47.0 (0)
 -->
<!-- Title: ViennaRNA/2Dpfold.h Pages: 1 -->
<svg width="1198pt" height="397pt"
 viewBox="0.00 0.00 1198.42 397.00" xmlns="http://www.w3.org/2000/svg" xmlns:xlink="http://www.w3.org/1999/xlink">
<g id="graph0" class="graph" transform="scale(1 1) rotate(0) translate(4 393)">
<title>ViennaRNA/2Dpfold.h</title>
<!-- Node1 -->
<g id="node1" class="node">
<title>Node1</title>
<g id="a_node1"><a xlink:title="Partition function implementations for base pair distance classes.">
<polygon fill="#bfbfbf" stroke="black" points="813.92,-369.5 813.92,-388.5 926.92,-388.5 926.92,-369.5 813.92,-369.5"/>
<text text-anchor="middle" x="870.42" y="-376.5" font-family="Helvetica,sans-Serif" font-size="10.00">ViennaRNA/2Dpfold.h</text>
</a>
</g>
</g>
<!-- Node2 -->
<g id="node2" class="node">
<title>Node2</title>
<g id="a_node2"><a xlink:href="fold__compound_8h.html" target="_top" xlink:title="The Basic Fold Compound API.">
<polygon fill="none" stroke="black" points="437.42,-313.5 437.42,-332.5 583.42,-332.5 583.42,-313.5 437.42,-313.5"/>
<text text-anchor="middle" x="510.42" y="-320.5" font-family="Helvetica,sans-Serif" font-size="10.00">ViennaRNA/fold_compound.h</text>
</a>
</g>
</g>
<!-- Node1&#45;&gt;Node2 -->
<g id="edge1" class="edge">
<title>Node1&#45;&gt;Node2</title>
<path fill="none" stroke="midnightblue" d="M813.78,-369.5C749.74,-359.9 645.57,-344.27 577.52,-334.06"/>
<polygon fill="midnightblue" stroke="midnightblue" points="577.74,-330.56 567.33,-332.54 576.7,-337.48 577.74,-330.56"/>
</g>
<!-- Node4 -->
<g id="node4" class="node">
<title>Node4</title>
<g id="a_node4"><a xlink:href="params_2basic_8h.html" target="_top" xlink:title="Functions to deal with sets of energy parameters.">
<polygon fill="none" stroke="black" points="898.42,-257.5 898.42,-276.5 1036.42,-276.5 1036.42,-257.5 898.42,-257.5"/>
<text text-anchor="middle" x="967.42" y="-264.5" font-family="Helvetica,sans-Serif" font-size="10.00">ViennaRNA/params/basic.h</text>
</a>
</g>
</g>
<!-- Node1&#45;&gt;Node4 -->
<g id="edge44" class="edge">
<title>Node1&#45;&gt;Node4</title>
<path fill="none" stroke="midnightblue" d="M878.03,-369.37C894.18,-351.05 932.11,-308.05 952.99,-284.36"/>
<polygon fill="midnightblue" stroke="midnightblue" points="955.86,-286.41 959.85,-276.59 950.61,-281.78 955.86,-286.41"/>
</g>
<!-- Node7 -->
<g id="node7" class="node">
<title>Node7</title>
<g id="a_node7"><a xlink:href="datastructures_2basic_8h.html" target="_top" xlink:title="Various data structures and pre&#45;processor macros.">
<polygon fill="none" stroke="black" points="652.42,-190.5 652.42,-220.5 786.42,-220.5 786.42,-190.5 652.42,-190.5"/>
<text text-anchor="start" x="660.42" y="-208.5" font-family="Helvetica,sans-Serif" font-size="10.00">ViennaRNA/datastructures</text>
<text text-anchor="middle" x="719.42" y="-197.5" font-family="Helvetica,sans-Serif" font-size="10.00">/basic.h</text>
</a>
</g>
</g>
<!-- Node1&#45;&gt;Node7 -->
<g id="edge43" class="edge">
<title>Node1&#45;&gt;Node7</title>
<path fill="none" stroke="midnightblue" d="M864.23,-369.44C849.41,-349.17 810.39,-296.89 773.42,-257 764.02,-246.85 752.96,-236.29 743.3,-227.47"/>
<polygon fill="midnightblue" stroke="midnightblue" points="745.36,-224.61 735.59,-220.52 740.67,-229.81 745.36,-224.61"/>
</g>
<!-- Node3 -->
<g id="node3" class="node">
<title>Node3</title>
<g id="a_node3"><a xlink:href="model_8h.html" target="_top" xlink:title="The model details data structure and its corresponding modifiers.">
<polygon fill="none" stroke="black" points="1084.42,-129 1084.42,-148 1190.42,-148 1190.42,-129 1084.42,-129"/>
<text text-anchor="middle" x="1137.42" y="-136" font-family="Helvetica,sans-Serif" font-size="10.00">ViennaRNA/model.h</text>
</a>
</g>
</g>
<!-- Node2&#45;&gt;Node3 -->
<g id="edge2" class="edge">
<title>Node2&#45;&gt;Node3</title>
<path fill="none" stroke="midnightblue" d="M583.57,-319.36C720.8,-313.89 1006.58,-299.89 1045.42,-277 1091.91,-249.61 1119.71,-188.38 1131.22,-157.72"/>
<polygon fill="midnightblue" stroke="midnightblue" points="1134.53,-158.85 1134.61,-148.26 1127.94,-156.49 1134.53,-158.85"/>
</g>
<!-- Node2&#45;&gt;Node4 -->
<g id="edge3" class="edge">
<title>Node2&#45;&gt;Node4</title>
<path fill="none" stroke="midnightblue" d="M577.75,-313.44C660.4,-303.42 800.25,-286.89 888.05,-276.77"/>
<polygon fill="midnightblue" stroke="midnightblue" points="888.7,-280.22 898.23,-275.6 887.9,-273.27 888.7,-280.22"/>
</g>
<!-- Node8 -->
<g id="node8" class="node">
<title>Node8</title>
<g id="a_node8"><a xlink:href="dp__matrices_8h.html" target="_top" xlink:title="Functions to deal with standard dynamic programming (DP) matrices.">
<polygon fill="none" stroke="black" points="756.92,-129 756.92,-148 889.92,-148 889.92,-129 756.92,-129"/>
<text text-anchor="middle" x="823.42" y="-136" font-family="Helvetica,sans-Serif" font-size="10.00">ViennaRNA/dp_matrices.h</text>
</a>
</g>
</g>
<!-- Node2&#45;&gt;Node8 -->
<g id="edge36" class="edge">
<title>Node2&#45;&gt;Node8</title>
<path fill="none" stroke="midnightblue" d="M583.46,-316.87C648.36,-311.07 736.93,-299.36 764.42,-277 800.94,-247.29 810.79,-188.54 816.86,-158.36"/>
<polygon fill="midnightblue" stroke="midnightblue" points="820.34,-158.83 819.05,-148.31 813.5,-157.34 820.34,-158.83"/>
</g>
<!-- Node9 -->
<g id="node9" class="node">
<title>Node9</title>
<g id="a_node9"><a xlink:href="hard_8h.html" target="_top" xlink:title="Functions and data structures for handling of secondary structure hard constraints.">
<polygon fill="none" stroke="black" points="14.92,-123.5 14.92,-153.5 133.92,-153.5 133.92,-123.5 14.92,-123.5"/>
<text text-anchor="start" x="22.92" y="-141.5" font-family="Helvetica,sans-Serif" font-size="10.00">ViennaRNA/constraints</text>
<text text-anchor="middle" x="74.42" y="-130.5" font-family="Helvetica,sans-Serif" font-size="10.00">/hard.h</text>
</a>
</g>
</g>
<!-- Node2&#45;&gt;Node9 -->
<g id="edge37" class="edge">
<title>Node2&#45;&gt;Node9</title>
<path fill="none" stroke="midnightblue" d="M473.33,-313.49C442.67,-305.13 398.63,-291.56 361.42,-277 266.05,-239.68 157.79,-186.52 105.56,-158.48"/>
<polygon fill="midnightblue" stroke="midnightblue" points="106.93,-155.25 96.47,-153.55 103.59,-161.4 106.93,-155.25"/>
</g>
<!-- Node11 -->
<g id="node11" class="node">
<title>Node11</title>
<g id="a_node11"><a xlink:href="soft_8h.html" target="_top" xlink:title="Functions and data structures for secondary structure soft constraints.">
<polygon fill="none" stroke="black" points="419.92,-123.5 419.92,-153.5 538.92,-153.5 538.92,-123.5 419.92,-123.5"/>
<text text-anchor="start" x="427.92" y="-141.5" font-family="Helvetica,sans-Serif" font-size="10.00">ViennaRNA/constraints</text>
<text text-anchor="middle" x="479.42" y="-130.5" font-family="Helvetica,sans-Serif" font-size="10.00">/soft.h</text>
</a>
</g>
</g>
<!-- Node2&#45;&gt;Node11 -->
<g id="edge38" class="edge">
<title>Node2&#45;&gt;Node11</title>
<path fill="none" stroke="midnightblue" d="M477.33,-313.47C459.44,-306.48 439.28,-294.79 429.42,-277 410.68,-243.18 416.49,-226.44 429.42,-190 433.24,-179.24 440.43,-169.11 448.3,-160.78"/>
<polygon fill="midnightblue" stroke="midnightblue" points="450.88,-163.15 455.63,-153.68 446.01,-158.12 450.88,-163.15"/>
</g>
<!-- Node12 -->
<g id="node12" class="node">
<title>Node12</title>
<g id="a_node12"><a xlink:href="grammar_8h.html" target="_top" xlink:title="Implementations for the RNA folding grammar.">
<polygon fill="none" stroke="black" points="151.92,-129 151.92,-148 268.92,-148 268.92,-129 151.92,-129"/>
<text text-anchor="middle" x="210.42" y="-136" font-family="Helvetica,sans-Serif" font-size="10.00">ViennaRNA/grammar.h</text>
</a>
</g>
</g>
<!-- Node2&#45;&gt;Node12 -->
<g id="edge39" class="edge">
<title>Node2&#45;&gt;Node12</title>
<path fill="none" stroke="midnightblue" d="M480.06,-313.47C456.55,-305.24 424.04,-291.89 397.42,-277 328.79,-238.6 254.54,-181.85 224.1,-154.85"/>
<polygon fill="midnightblue" stroke="midnightblue" points="226.45,-152.26 216.72,-148.07 221.71,-157.41 226.45,-152.26"/>
</g>
<!-- Node13 -->
<g id="node13" class="node">
<title>Node13</title>
<g id="a_node13"><a xlink:href="structured__domains_8h.html" target="_top" xlink:title="This module provides interfaces that deal with additional structured domains in the folding grammar.">
<polygon fill="none" stroke="black" points="286.92,-123.5 286.92,-153.5 401.92,-153.5 401.92,-123.5 286.92,-123.5"/>
<text text-anchor="start" x="294.92" y="-141.5" font-family="Helvetica,sans-Serif" font-size="10.00">ViennaRNA/structured</text>
<text text-anchor="middle" x="344.42" y="-130.5" font-family="Helvetica,sans-Serif" font-size="10.00">_domains.h</text>
</a>
</g>
</g>
<!-- Node2&#45;&gt;Node13 -->
<g id="edge40" class="edge">
<title>Node2&#45;&gt;Node13</title>
<path fill="none" stroke="midnightblue" d="M486.9,-313.46C468.76,-305.97 443.89,-293.68 426.42,-277 391.72,-243.86 366.53,-192.88 353.81,-163.2"/>
<polygon fill="midnightblue" stroke="midnightblue" points="356.91,-161.54 349.83,-153.65 350.44,-164.23 356.91,-161.54"/>
</g>
<!-- Node14 -->
<g id="node14" class="node">
<title>Node14</title>
<g id="a_node14"><a xlink:href="unstructured__domains_8h.html" target="_top" xlink:title="Functions to modify unstructured domains, e.g. to incorporate ligands binding to unpaired stretches.">
<polygon fill="none" stroke="black" points="556.92,-123.5 556.92,-153.5 681.92,-153.5 681.92,-123.5 556.92,-123.5"/>
<text text-anchor="start" x="564.92" y="-141.5" font-family="Helvetica,sans-Serif" font-size="10.00">ViennaRNA/unstructured</text>
<text text-anchor="middle" x="619.42" y="-130.5" font-family="Helvetica,sans-Serif" font-size="10.00">_domains.h</text>
</a>
</g>
</g>
<!-- Node2&#45;&gt;Node14 -->
<g id="edge41" class="edge">
<title>Node2&#45;&gt;Node14</title>
<path fill="none" stroke="midnightblue" d="M497.81,-313.37C485.66,-300.72 471.76,-276.51 480.42,-257 499.98,-212.97 545.08,-178.46 578.77,-158.53"/>
<polygon fill="midnightblue" stroke="midnightblue" points="580.56,-161.54 587.51,-153.54 577.09,-155.46 580.56,-161.54"/>
</g>
<!-- Node17 -->
<g id="node17" class="node">
<title>Node17</title>
<g id="a_node17"><a xlink:href="sequence_8h.html" target="_top" xlink:title="Functions and data structures related to sequence representations ,.">
<polygon fill="none" stroke="black" points="498.42,-257.5 498.42,-276.5 620.42,-276.5 620.42,-257.5 498.42,-257.5"/>
<text text-anchor="middle" x="559.42" y="-264.5" font-family="Helvetica,sans-Serif" font-size="10.00">ViennaRNA/sequence.h</text>
</a>
</g>
</g>
<!-- Node2&#45;&gt;Node17 -->
<g id="edge34" class="edge">
<title>Node2&#45;&gt;Node17</title>
<path fill="none" stroke="midnightblue" d="M513.35,-313.08C518.88,-305.14 529.25,-293.34 538.88,-283.8"/>
<polygon fill="midnightblue" stroke="midnightblue" points="541.48,-286.16 546.35,-276.75 536.68,-281.07 541.48,-286.16"/>
</g>
<!-- Node18 -->
<g id="node18" class="node">
<title>Node18</title>
<g id="a_node18"><a xlink:href="zscore_8h_source.html" target="_top" xlink:title=" ">
<polygon fill="none" stroke="black" points="638.92,-257.5 638.92,-276.5 747.92,-276.5 747.92,-257.5 638.92,-257.5"/>
<text text-anchor="middle" x="693.42" y="-264.5" font-family="Helvetica,sans-Serif" font-size="10.00">ViennaRNA/zscore.h</text>
</a>
</g>
</g>
<!-- Node2&#45;&gt;Node18 -->
<g id="edge42" class="edge">
<title>Node2&#45;&gt;Node18</title>
<path fill="none" stroke="midnightblue" d="M539.42,-313.44C570.61,-304.24 620.35,-289.56 654.83,-279.39"/>
<polygon fill="midnightblue" stroke="midnightblue" points="655.96,-282.7 664.56,-276.52 653.98,-275.99 655.96,-282.7"/>
</g>
<!-- Node4&#45;&gt;Node2 -->
<g id="edge32" class="edge">
<title>Node4&#45;&gt;Node2</title>
<path fill="none" stroke="midnightblue" d="M900.51,-276.51C819.07,-286.39 681.67,-302.63 593.53,-312.8"/>
<polygon fill="midnightblue" stroke="midnightblue" points="593.1,-309.32 583.57,-313.94 593.9,-316.28 593.1,-309.32"/>
</g>
<!-- Node4&#45;&gt;Node3 -->
<g id="edge33" class="edge">
<title>Node4&#45;&gt;Node3</title>
<path fill="none" stroke="midnightblue" d="M979.11,-257.31C1007.74,-236 1081.65,-181 1117.43,-154.38"/>
<polygon fill="midnightblue" stroke="midnightblue" points="1119.72,-157.03 1125.66,-148.26 1115.54,-151.42 1119.72,-157.03"/>
</g>
<!-- Node5 -->
<g id="node5" class="node">
<title>Node5</title>
<g id="a_node5"><a xlink:href="constants_8h.html" target="_top" xlink:title="Energy parameter constants.">
<polygon fill="none" stroke="black" points="908.42,-129 908.42,-148 1066.42,-148 1066.42,-129 908.42,-129"/>
<text text-anchor="middle" x="987.42" y="-136" font-family="Helvetica,sans-Serif" font-size="10.00">ViennaRNA/params/constants.h</text>
</a>
</g>
</g>
<!-- Node4&#45;&gt;Node5 -->
<g id="edge4" class="edge">
<title>Node4&#45;&gt;Node5</title>
<path fill="none" stroke="midnightblue" d="M968.8,-257.31C972.01,-236.99 980.06,-186.05 984.45,-158.28"/>
<polygon fill="midnightblue" stroke="midnightblue" points="987.93,-158.68 986.04,-148.26 981.02,-157.59 987.93,-158.68"/>
</g>
<!-- Node4&#45;&gt;Node7 -->
<g id="edge6" class="edge">
<title>Node4&#45;&gt;Node7</title>
<path fill="none" stroke="midnightblue" d="M926.99,-257.48C887.6,-248.49 827.32,-234.13 781.81,-222.93"/>
<polygon fill="midnightblue" stroke="midnightblue" points="782.59,-219.52 772.04,-220.52 780.91,-226.32 782.59,-219.52"/>
</g>
<!-- Node6 -->
<g id="node6" class="node">
<title>Node6</title>
<g id="a_node6"><a xlink:title=" ">
<polygon fill="none" stroke="#bfbfbf" points="963.42,-62 963.42,-81 1011.42,-81 1011.42,-62 963.42,-62"/>
<text text-anchor="middle" x="987.42" y="-69" font-family="Helvetica,sans-Serif" font-size="10.00">limits.h</text>
</a>
</g>
</g>
<!-- Node5&#45;&gt;Node6 -->
<g id="edge5" class="edge">
<title>Node5&#45;&gt;Node6</title>
<path fill="none" stroke="midnightblue" d="M987.42,-128.73C987.42,-119.18 987.42,-103.62 987.42,-91.28"/>
<polygon fill="midnightblue" stroke="midnightblue" points="990.92,-91.13 987.42,-81.13 983.92,-91.13 990.92,-91.13"/>
</g>
<!-- Node7&#45;&gt;Node2 -->
<g id="edge8" class="edge">
<title>Node7&#45;&gt;Node2</title>
<path fill="none" stroke="midnightblue" d="M735.95,-220.52C751.67,-235.55 770.94,-259.59 756.42,-277 735.85,-301.68 656.83,-312.86 593.83,-317.91"/>
<polygon fill="midnightblue" stroke="midnightblue" points="593.18,-314.45 583.47,-318.69 593.71,-321.43 593.18,-314.45"/>
</g>
<!-- Node7&#45;&gt;Node3 -->
<g id="edge9" class="edge">
<title>Node7&#45;&gt;Node3</title>
<path fill="none" stroke="midnightblue" d="M786.64,-196.77C858.43,-188.1 975.41,-172.75 1075.42,-154 1081.27,-152.9 1087.4,-151.63 1093.43,-150.3"/>
<polygon fill="midnightblue" stroke="midnightblue" points="1094.45,-153.65 1103.43,-148.02 1092.9,-146.83 1094.45,-153.65"/>
</g>
<!-- Node7&#45;&gt;Node4 -->
<g id="edge10" class="edge">
<title>Node7&#45;&gt;Node4</title>
<path fill="none" stroke="midnightblue" d="M783.7,-220.52C828.94,-231.05 888.04,-245.27 926.89,-254.98"/>
<polygon fill="midnightblue" stroke="midnightblue" points="926.24,-258.43 936.79,-257.48 927.95,-251.64 926.24,-258.43"/>
</g>
<!-- Node7&#45;&gt;Node5 -->
<g id="edge7" class="edge">
<title>Node7&#45;&gt;Node5</title>
<path fill="none" stroke="midnightblue" d="M777.25,-190.48C826.74,-178.47 897.01,-161.43 942.4,-150.42"/>
<polygon fill="midnightblue" stroke="midnightblue" points="943.37,-153.79 952.26,-148.03 941.72,-146.98 943.37,-153.79"/>
</g>
<!-- Node7&#45;&gt;Node8 -->
<g id="edge11" class="edge">
<title>Node7&#45;&gt;Node8</title>
<path fill="none" stroke="midnightblue" d="M736.31,-190.4C752.62,-179.29 777.24,-163.92 796.26,-152.98"/>
<polygon fill="midnightblue" stroke="midnightblue" points="798.09,-155.97 805.08,-148.01 794.65,-149.87 798.09,-155.97"/>
</g>
<!-- Node7&#45;&gt;Node9 -->
<g id="edge14" class="edge">
<title>Node7&#45;&gt;Node9</title>
<path fill="none" stroke="midnightblue" d="M652.03,-201.29C545.92,-195.65 333.3,-181.94 144.18,-154.15"/>
<polygon fill="midnightblue" stroke="midnightblue" points="144.46,-150.66 134.05,-152.65 143.43,-157.58 144.46,-150.66"/>
</g>
<!-- Node7&#45;&gt;Node11 -->
<g id="edge18" class="edge">
<title>Node7&#45;&gt;Node11</title>
<path fill="none" stroke="midnightblue" d="M661.97,-190.48C623.72,-180.47 573.76,-166.97 535.74,-156.38"/>
<polygon fill="midnightblue" stroke="midnightblue" points="536.42,-152.93 525.85,-153.61 534.53,-159.68 536.42,-152.93"/>
</g>
<!-- Node7&#45;&gt;Node12 -->
<g id="edge22" class="edge">
<title>Node7&#45;&gt;Node12</title>
<path fill="none" stroke="midnightblue" d="M652.12,-198.91C565.21,-191.21 409.45,-175.77 277.42,-154 270.72,-152.89 263.67,-151.56 256.76,-150.15"/>
<polygon fill="midnightblue" stroke="midnightblue" points="257.31,-146.69 246.81,-148.06 255.88,-153.54 257.31,-146.69"/>
</g>
<!-- Node7&#45;&gt;Node13 -->
<g id="edge24" class="edge">
<title>Node7&#45;&gt;Node13</title>
<path fill="none" stroke="midnightblue" d="M652.33,-194.61C591.88,-185.45 500.35,-170.98 411.91,-154.23"/>
<polygon fill="midnightblue" stroke="midnightblue" points="412.46,-150.77 401.98,-152.34 411.15,-157.65 412.46,-150.77"/>
</g>
<!-- Node7&#45;&gt;Node14 -->
<g id="edge25" class="edge">
<title>Node7&#45;&gt;Node14</title>
<path fill="none" stroke="midnightblue" d="M692.05,-190.4C676.97,-181.37 658.53,-169.51 643.93,-159.52"/>
<polygon fill="midnightblue" stroke="midnightblue" points="645.61,-156.42 635.4,-153.58 641.61,-162.16 645.61,-156.42"/>
</g>
<!-- Node15 -->
<g id="node15" class="node">
<title>Node15</title>
<g id="a_node15"><a xlink:href="utils_2structures_8h.html" target="_top" xlink:title="Various utility&#45; and helper&#45;functions for secondary structure parsing, converting,...">
<polygon fill="none" stroke="black" points="647.42,-62 647.42,-81 791.42,-81 791.42,-62 647.42,-62"/>
<text text-anchor="middle" x="719.42" y="-69" font-family="Helvetica,sans-Serif" font-size="10.00">ViennaRNA/utils/structures.h</text>
</a>
</g>
</g>
<!-- Node7&#45;&gt;Node15 -->
<g id="edge31" class="edge">
<title>Node7&#45;&gt;Node15</title>
<path fill="none" stroke="midnightblue" d="M715.05,-190.37C712.05,-166.4 711.89,-117.75 714.56,-91.06"/>
<polygon fill="midnightblue" stroke="midnightblue" points="718.03,-91.47 715.88,-81.1 711.09,-90.55 718.03,-91.47"/>
</g>
<!-- Node8&#45;&gt;Node2 -->
<g id="edge13" class="edge">
<title>Node8&#45;&gt;Node2</title>
<path fill="none" stroke="midnightblue" d="M827.25,-148.31C830.87,-173.05 823.6,-243.5 782.42,-277 754.38,-299.81 662.78,-311.54 593.5,-317.21"/>
<polygon fill="midnightblue" stroke="midnightblue" points="593.14,-313.73 583.45,-318.01 593.69,-320.71 593.14,-313.73"/>
</g>
<!-- Node8&#45;&gt;Node7 -->
<g id="edge12" class="edge">
<title>Node8&#45;&gt;Node7</title>
<path fill="none" stroke="midnightblue" d="M814.55,-148.01C801.5,-157.43 777.21,-172.93 756.35,-185.31"/>
<polygon fill="midnightblue" stroke="midnightblue" points="754.53,-182.32 747.67,-190.4 758.07,-188.36 754.53,-182.32"/>
</g>
<!-- Node9&#45;&gt;Node2 -->
<g id="edge15" class="edge">
<title>Node9&#45;&gt;Node2</title>
<path fill="none" stroke="midnightblue" d="M106.88,-153.55C162.27,-179.84 278.11,-237.36 379.42,-277 412.42,-289.91 450.78,-302.05 477.56,-310.45"/>
<polygon fill="midnightblue" stroke="midnightblue" points="476.63,-313.83 487.22,-313.49 478.73,-307.15 476.63,-313.83"/>
</g>
<!-- Node10 -->
<g id="node10" class="node">
<title>Node10</title>
<g id="a_node10"><a xlink:href="constraints_2basic_8h.html" target="_top" xlink:title="Functions and data structures for constraining secondary structure predictions and evaluation.">
<polygon fill="none" stroke="black" points="14.92,-56.5 14.92,-86.5 133.92,-86.5 133.92,-56.5 14.92,-56.5"/>
<text text-anchor="start" x="22.92" y="-74.5" font-family="Helvetica,sans-Serif" font-size="10.00">ViennaRNA/constraints</text>
<text text-anchor="middle" x="74.42" y="-63.5" font-family="Helvetica,sans-Serif" font-size="10.00">/basic.h</text>
</a>
</g>
</g>
<!-- Node9&#45;&gt;Node10 -->
<g id="edge16" class="edge">
<title>Node9&#45;&gt;Node10</title>
<path fill="none" stroke="midnightblue" d="M74.42,-123.4C74.42,-115.64 74.42,-105.81 74.42,-96.86"/>
<polygon fill="midnightblue" stroke="midnightblue" points="77.92,-96.58 74.42,-86.58 70.92,-96.58 77.92,-96.58"/>
</g>
<!-- Node10&#45;&gt;Node2 -->
<g id="edge17" class="edge">
<title>Node10&#45;&gt;Node2</title>
<path fill="none" stroke="midnightblue" d="M43.52,-86.66C29.15,-95.02 13.48,-107.11 5.42,-123 -0.81,-135.29 -2.31,-142.6 5.42,-154 56.67,-229.6 329.92,-288.63 451.74,-311.59"/>
<polygon fill="midnightblue" stroke="midnightblue" points="451.17,-315.04 461.65,-313.44 452.46,-308.16 451.17,-315.04"/>
</g>
<!-- Node11&#45;&gt;Node2 -->
<g id="edge20" class="edge">
<title>Node11&#45;&gt;Node2</title>
<path fill="none" stroke="midnightblue" d="M471.16,-153.68C463.15,-162.96 452.41,-175.95 447.42,-190 434.49,-226.44 428.68,-243.18 447.42,-277 455.36,-291.32 469.96,-301.68 483.21,-308.83"/>
<polygon fill="midnightblue" stroke="midnightblue" points="482,-312.13 492.51,-313.47 485.13,-305.87 482,-312.13"/>
</g>
<!-- Node11&#45;&gt;Node7 -->
<g id="edge19" class="edge">
<title>Node11&#45;&gt;Node7</title>
<path fill="none" stroke="midnightblue" d="M537.2,-153.61C575.53,-163.63 625.49,-177.14 663.44,-187.71"/>
<polygon fill="midnightblue" stroke="midnightblue" points="662.74,-191.15 673.31,-190.48 664.62,-184.41 662.74,-191.15"/>
</g>
<!-- Node11&#45;&gt;Node10 -->
<g id="edge21" class="edge">
<title>Node11&#45;&gt;Node10</title>
<path fill="none" stroke="midnightblue" d="M419.63,-124.71C416.52,-124.12 413.44,-123.54 410.42,-123 318.76,-106.49 212.35,-91.14 144.25,-81.79"/>
<polygon fill="midnightblue" stroke="midnightblue" points="144.46,-78.29 134.08,-80.4 143.51,-85.22 144.46,-78.29"/>
</g>
<!-- Node12&#45;&gt;Node2 -->
<g id="edge23" class="edge">
<title>Node12&#45;&gt;Node2</title>
<path fill="none" stroke="midnightblue" d="M225.21,-148.07C258.53,-171.02 340.33,-234.99 415.42,-277 438.19,-289.74 465.27,-301.35 484.84,-309.59"/>
<polygon fill="midnightblue" stroke="midnightblue" points="483.49,-312.82 494.06,-313.47 486.2,-306.36 483.49,-312.82"/>
</g>
<!-- Node14&#45;&gt;Node2 -->
<g id="edge27" class="edge">
<title>Node14&#45;&gt;Node2</title>
<path fill="none" stroke="midnightblue" d="M599.75,-153.7C571.04,-172.58 519.66,-209.18 498.42,-257 491.59,-272.39 498.8,-290.71 505.04,-303.98"/>
<polygon fill="midnightblue" stroke="midnightblue" points="502.07,-305.87 509.55,-313.37 508.38,-302.84 502.07,-305.87"/>
</g>
<!-- Node14&#45;&gt;Node7 -->
<g id="edge26" class="edge">
<title>Node14&#45;&gt;Node7</title>
<path fill="none" stroke="midnightblue" d="M646.75,-153.58C661.82,-162.6 680.26,-174.45 694.87,-184.45"/>
<polygon fill="midnightblue" stroke="midnightblue" points="693.2,-187.55 703.4,-190.4 697.2,-181.81 693.2,-187.55"/>
</g>
<!-- Node14&#45;&gt;Node15 -->
<g id="edge28" class="edge">
<title>Node14&#45;&gt;Node15</title>
<path fill="none" stroke="midnightblue" d="M641.12,-123.4C657.89,-112.5 680.99,-97.48 697.76,-86.58"/>
<polygon fill="midnightblue" stroke="midnightblue" points="699.86,-89.39 706.34,-81.01 696.04,-83.52 699.86,-89.39"/>
</g>
<!-- Node15&#45;&gt;Node7 -->
<g id="edge30" class="edge">
<title>Node15&#45;&gt;Node7</title>
<path fill="none" stroke="midnightblue" d="M722.97,-81.1C726.51,-100.91 727.12,-150.38 724.79,-180.32"/>
<polygon fill="midnightblue" stroke="midnightblue" points="721.29,-180.08 723.79,-190.37 728.26,-180.77 721.29,-180.08"/>
</g>
<!-- Node16 -->
<g id="node16" class="node">
<title>Node16</title>
<g id="a_node16"><a xlink:title=" ">
<polygon fill="none" stroke="#bfbfbf" points="696.42,-0.5 696.42,-19.5 742.42,-19.5 742.42,-0.5 696.42,-0.5"/>
<text text-anchor="middle" x="719.42" y="-7.5" font-family="Helvetica,sans-Serif" font-size="10.00">stdio.h</text>
</a>
</g>
</g>
<!-- Node15&#45;&gt;Node16 -->
<g id="edge29" class="edge">
<title>Node15&#45;&gt;Node16</title>
<path fill="none" stroke="midnightblue" d="M719.42,-61.98C719.42,-53.58 719.42,-40.48 719.42,-29.66"/>
<polygon fill="midnightblue" stroke="midnightblue" points="722.92,-29.51 719.42,-19.51 715.92,-29.51 722.92,-29.51"/>
</g>
<!-- Node17&#45;&gt;Node2 -->
<g id="edge35" class="edge">
<title>Node17&#45;&gt;Node2</title>
<path fill="none" stroke="midnightblue" d="M556.56,-276.83C551.03,-284.79 540.6,-296.67 530.91,-306.25"/>
<polygon fill="midnightblue" stroke="midnightblue" points="528.29,-303.92 523.41,-313.32 533.09,-309.01 528.29,-303.92"/>
</g>
</g>
</svg>
