<?xml version="1.0" encoding="UTF-8" standalone="no"?>
<!DOCTYPE svg PUBLIC "-//W3C//DTD SVG 1.1//EN"
 "http://www.w3.org/Graphics/SVG/1.1/DTD/svg11.dtd">
<!-- Generated by graphviz version 2.47.0 (0)
 -->
<!-- Title: ViennaRNA/alifold.h Pages: 1 -->
<svg width="1706pt" height="464pt"
 viewBox="0.00 0.00 1706.00 464.00" xmlns="http://www.w3.org/2000/svg" xmlns:xlink="http://www.w3.org/1999/xlink">
<g id="graph0" class="graph" transform="scale(1 1) rotate(0) translate(4 460)">
<title>ViennaRNA/alifold.h</title>
<!-- Node1 -->
<g id="node1" class="node">
<title>Node1</title>
<g id="a_node1"><a xlink:title="Functions for comparative structure prediction using RNA sequence alignments.">
<polygon fill="#bfbfbf" stroke="black" points="706.5,-436.5 706.5,-455.5 811.5,-455.5 811.5,-436.5 706.5,-436.5"/>
<text text-anchor="middle" x="759" y="-443.5" font-family="Helvetica,sans-Serif" font-size="10.00">ViennaRNA/alifold.h</text>
</a>
</g>
</g>
<!-- Node2 -->
<g id="node2" class="node">
<title>Node2</title>
<g id="a_node2"><a xlink:href="datastructures_2basic_8h.html" target="_top" xlink:title="Various data structures and pre&#45;processor macros.">
<polygon fill="none" stroke="black" points="537,-246.5 537,-276.5 671,-276.5 671,-246.5 537,-246.5"/>
<text text-anchor="start" x="545" y="-264.5" font-family="Helvetica,sans-Serif" font-size="10.00">ViennaRNA/datastructures</text>
<text text-anchor="middle" x="604" y="-253.5" font-family="Helvetica,sans-Serif" font-size="10.00">/basic.h</text>
</a>
</g>
</g>
<!-- Node1&#45;&gt;Node2 -->
<g id="edge1" class="edge">
<title>Node1&#45;&gt;Node2</title>
<path fill="none" stroke="midnightblue" d="M706.53,-436.43C683.18,-430.07 657.14,-419.05 640,-400 611.48,-368.3 605.06,-316.76 603.9,-286.6"/>
<polygon fill="midnightblue" stroke="midnightblue" points="607.4,-286.45 603.68,-276.53 600.4,-286.6 607.4,-286.45"/>
</g>
<!-- Node7 -->
<g id="node7" class="node">
<title>Node7</title>
<g id="a_node7"><a xlink:href="params_2basic_8h.html" target="_top" xlink:title="Functions to deal with sets of energy parameters.">
<polygon fill="none" stroke="black" points="66,-129 66,-148 204,-148 204,-129 66,-129"/>
<text text-anchor="middle" x="135" y="-136" font-family="Helvetica,sans-Serif" font-size="10.00">ViennaRNA/params/basic.h</text>
</a>
</g>
</g>
<!-- Node1&#45;&gt;Node7 -->
<g id="edge43" class="edge">
<title>Node1&#45;&gt;Node7</title>
<path fill="none" stroke="midnightblue" d="M706.28,-442.12C540.06,-432.34 38,-397.2 38,-329.5 38,-329.5 38,-329.5 38,-260.5 38,-213.37 83.36,-174.12 112.04,-154.01"/>
<polygon fill="midnightblue" stroke="midnightblue" points="114.36,-156.66 120.69,-148.16 110.44,-150.86 114.36,-156.66"/>
</g>
<!-- Node16 -->
<g id="node16" class="node">
<title>Node16</title>
<g id="a_node16"><a xlink:href="utils_2structures_8h.html" target="_top" xlink:title="Various utility&#45; and helper&#45;functions for secondary structure parsing, converting,...">
<polygon fill="none" stroke="black" points="1450,-62 1450,-81 1594,-81 1594,-62 1450,-62"/>
<text text-anchor="middle" x="1522" y="-69" font-family="Helvetica,sans-Serif" font-size="10.00">ViennaRNA/utils/structures.h</text>
</a>
</g>
</g>
<!-- Node1&#45;&gt;Node16 -->
<g id="edge69" class="edge">
<title>Node1&#45;&gt;Node16</title>
<path fill="none" stroke="midnightblue" d="M811.84,-444.1C1010.03,-440.04 1698,-419.48 1698,-329.5 1698,-329.5 1698,-329.5 1698,-199 1698,-134.84 1619.92,-100.03 1567.77,-83.93"/>
<polygon fill="midnightblue" stroke="midnightblue" points="1568.62,-80.54 1558.04,-81.05 1566.64,-87.25 1568.62,-80.54"/>
</g>
<!-- Node19 -->
<g id="node19" class="node">
<title>Node19</title>
<g id="a_node19"><a xlink:href="ribo_8h.html" target="_top" xlink:title="Parse RiboSum Scoring Matrices for Covariance Scoring of Alignments.">
<polygon fill="none" stroke="black" points="648.5,-380.5 648.5,-399.5 743.5,-399.5 743.5,-380.5 648.5,-380.5"/>
<text text-anchor="middle" x="696" y="-387.5" font-family="Helvetica,sans-Serif" font-size="10.00">ViennaRNA/ribo.h</text>
</a>
</g>
</g>
<!-- Node1&#45;&gt;Node19 -->
<g id="edge44" class="edge">
<title>Node1&#45;&gt;Node19</title>
<path fill="none" stroke="midnightblue" d="M748.88,-436.32C739.47,-428.26 725.26,-416.08 713.93,-406.37"/>
<polygon fill="midnightblue" stroke="midnightblue" points="716.18,-403.68 706.31,-399.83 711.62,-409 716.18,-403.68"/>
</g>
<!-- Node20 -->
<g id="node20" class="node">
<title>Node20</title>
<g id="a_node20"><a xlink:href="mfe_8h.html" target="_top" xlink:title="Compute Minimum Free energy (MFE) and backtrace corresponding secondary structures from RNA sequence ...">
<polygon fill="none" stroke="black" points="448,-319 448,-338 544,-338 544,-319 448,-319"/>
<text text-anchor="middle" x="496" y="-326" font-family="Helvetica,sans-Serif" font-size="10.00">ViennaRNA/mfe.h</text>
</a>
</g>
</g>
<!-- Node1&#45;&gt;Node20 -->
<g id="edge45" class="edge">
<title>Node1&#45;&gt;Node20</title>
<path fill="none" stroke="midnightblue" d="M706.17,-442.13C663.6,-437.8 603.53,-426.98 558,-400 535.96,-386.94 517.62,-363.35 506.73,-347.07"/>
<polygon fill="midnightblue" stroke="midnightblue" points="509.56,-345 501.22,-338.47 503.67,-348.78 509.56,-345"/>
</g>
<!-- Node21 -->
<g id="node21" class="node">
<title>Node21</title>
<g id="a_node21"><a xlink:href="part__func_8h.html" target="_top" xlink:title="Partition function implementations.">
<polygon fill="none" stroke="black" points="762,-380.5 762,-399.5 882,-399.5 882,-380.5 762,-380.5"/>
<text text-anchor="middle" x="822" y="-387.5" font-family="Helvetica,sans-Serif" font-size="10.00">ViennaRNA/part_func.h</text>
</a>
</g>
</g>
<!-- Node1&#45;&gt;Node21 -->
<g id="edge49" class="edge">
<title>Node1&#45;&gt;Node21</title>
<path fill="none" stroke="midnightblue" d="M769.12,-436.32C778.53,-428.26 792.74,-416.08 804.07,-406.37"/>
<polygon fill="midnightblue" stroke="midnightblue" points="806.38,-409 811.69,-399.83 801.82,-403.68 806.38,-409"/>
</g>
<!-- Node24 -->
<g id="node24" class="node">
<title>Node24</title>
<g id="a_node24"><a xlink:href="boltzmann__sampling_8h.html" target="_top" xlink:title="Boltzmann Sampling of secondary structures from the ensemble.">
<polygon fill="none" stroke="black" points="1159,-313.5 1159,-343.5 1275,-343.5 1275,-313.5 1159,-313.5"/>
<text text-anchor="start" x="1167" y="-331.5" font-family="Helvetica,sans-Serif" font-size="10.00">ViennaRNA/boltzmann</text>
<text text-anchor="middle" x="1217" y="-320.5" font-family="Helvetica,sans-Serif" font-size="10.00">_sampling.h</text>
</a>
</g>
</g>
<!-- Node1&#45;&gt;Node24 -->
<g id="edge70" class="edge">
<title>Node1&#45;&gt;Node24</title>
<path fill="none" stroke="midnightblue" d="M793.05,-436.41C868.81,-417.31 1052.41,-371.01 1151.3,-346.07"/>
<polygon fill="midnightblue" stroke="midnightblue" points="1152.34,-349.41 1161.19,-343.58 1150.63,-342.63 1152.34,-349.41"/>
</g>
<!-- Node25 -->
<g id="node25" class="node">
<title>Node25</title>
<g id="a_node25"><a xlink:href="utils_2alignments_8h.html" target="_top" xlink:title="Various utility&#45; and helper&#45;functions for sequence alignments and comparative structure prediction.">
<polygon fill="none" stroke="black" points="1408,-252 1408,-271 1556,-271 1556,-252 1408,-252"/>
<text text-anchor="middle" x="1482" y="-259" font-family="Helvetica,sans-Serif" font-size="10.00">ViennaRNA/utils/alignments.h</text>
</a>
</g>
</g>
<!-- Node1&#45;&gt;Node25 -->
<g id="edge65" class="edge">
<title>Node1&#45;&gt;Node25</title>
<path fill="none" stroke="midnightblue" d="M811.63,-438.46C907.15,-425.8 1114.84,-394.65 1284,-344 1347.25,-325.06 1418.05,-293.17 1455.48,-275.41"/>
<polygon fill="midnightblue" stroke="midnightblue" points="1457.17,-278.48 1464.68,-271.01 1454.15,-272.17 1457.17,-278.48"/>
</g>
<!-- Node3 -->
<g id="node3" class="node">
<title>Node3</title>
<g id="a_node3"><a xlink:href="constants_8h.html" target="_top" xlink:title="Energy parameter constants.">
<polygon fill="none" stroke="black" points="42,-62 42,-81 200,-81 200,-62 42,-62"/>
<text text-anchor="middle" x="121" y="-69" font-family="Helvetica,sans-Serif" font-size="10.00">ViennaRNA/params/constants.h</text>
</a>
</g>
</g>
<!-- Node2&#45;&gt;Node3 -->
<g id="edge2" class="edge">
<title>Node2&#45;&gt;Node3</title>
<path fill="none" stroke="midnightblue" d="M536.82,-258.36C403.26,-252.46 112.4,-230.87 57,-154 39.48,-129.69 71.84,-102.52 96.6,-86.5"/>
<polygon fill="midnightblue" stroke="midnightblue" points="98.61,-89.37 105.27,-81.12 94.93,-83.41 98.61,-89.37"/>
</g>
<!-- Node5 -->
<g id="node5" class="node">
<title>Node5</title>
<g id="a_node5"><a xlink:href="fold__compound_8h.html" target="_top" xlink:title="The Basic Fold Compound API.">
<polygon fill="none" stroke="black" points="749,-190.5 749,-209.5 895,-209.5 895,-190.5 749,-190.5"/>
<text text-anchor="middle" x="822" y="-197.5" font-family="Helvetica,sans-Serif" font-size="10.00">ViennaRNA/fold_compound.h</text>
</a>
</g>
</g>
<!-- Node2&#45;&gt;Node5 -->
<g id="edge4" class="edge">
<title>Node2&#45;&gt;Node5</title>
<path fill="none" stroke="midnightblue" d="M655.39,-246.47C693.65,-236.03 745.21,-221.96 780.79,-212.25"/>
<polygon fill="midnightblue" stroke="midnightblue" points="782.11,-215.52 790.83,-209.51 780.27,-208.76 782.11,-215.52"/>
</g>
<!-- Node6 -->
<g id="node6" class="node">
<title>Node6</title>
<g id="a_node6"><a xlink:href="model_8h.html" target="_top" xlink:title="The model details data structure and its corresponding modifiers.">
<polygon fill="none" stroke="black" points="475,-62 475,-81 581,-81 581,-62 475,-62"/>
<text text-anchor="middle" x="528" y="-69" font-family="Helvetica,sans-Serif" font-size="10.00">ViennaRNA/model.h</text>
</a>
</g>
</g>
<!-- Node2&#45;&gt;Node6 -->
<g id="edge34" class="edge">
<title>Node2&#45;&gt;Node6</title>
<path fill="none" stroke="midnightblue" d="M536.86,-249.84C444.58,-233.67 286.06,-199.89 252,-154 243.79,-142.94 243.18,-133.58 252,-123 278.55,-91.15 391.85,-79.33 464.77,-74.98"/>
<polygon fill="midnightblue" stroke="midnightblue" points="464.99,-78.48 474.78,-74.42 464.6,-71.49 464.99,-78.48"/>
</g>
<!-- Node2&#45;&gt;Node7 -->
<g id="edge35" class="edge">
<title>Node2&#45;&gt;Node7</title>
<path fill="none" stroke="midnightblue" d="M536.96,-256.66C468.16,-251.17 358.98,-238.41 269,-210 224.76,-196.03 177.16,-170.14 152.08,-153.92"/>
<polygon fill="midnightblue" stroke="midnightblue" points="153.88,-150.91 143.63,-148.22 149.97,-156.71 153.88,-150.91"/>
</g>
<!-- Node9 -->
<g id="node9" class="node">
<title>Node9</title>
<g id="a_node9"><a xlink:href="dp__matrices_8h.html" target="_top" xlink:title="Functions to deal with standard dynamic programming (DP) matrices.">
<polygon fill="none" stroke="black" points="260.5,-129 260.5,-148 393.5,-148 393.5,-129 260.5,-129"/>
<text text-anchor="middle" x="327" y="-136" font-family="Helvetica,sans-Serif" font-size="10.00">ViennaRNA/dp_matrices.h</text>
</a>
</g>
</g>
<!-- Node2&#45;&gt;Node9 -->
<g id="edge36" class="edge">
<title>Node2&#45;&gt;Node9</title>
<path fill="none" stroke="midnightblue" d="M567.16,-246.38C509.93,-222.7 401.54,-175.33 352.29,-152.46"/>
<polygon fill="midnightblue" stroke="midnightblue" points="353.53,-149.17 342.99,-148.09 350.55,-155.51 353.53,-149.17"/>
</g>
<!-- Node10 -->
<g id="node10" class="node">
<title>Node10</title>
<g id="a_node10"><a xlink:href="hard_8h.html" target="_top" xlink:title="Functions and data structures for handling of secondary structure hard constraints.">
<polygon fill="none" stroke="black" points="855.5,-123.5 855.5,-153.5 974.5,-153.5 974.5,-123.5 855.5,-123.5"/>
<text text-anchor="start" x="863.5" y="-141.5" font-family="Helvetica,sans-Serif" font-size="10.00">ViennaRNA/constraints</text>
<text text-anchor="middle" x="915" y="-130.5" font-family="Helvetica,sans-Serif" font-size="10.00">/hard.h</text>
</a>
</g>
</g>
<!-- Node2&#45;&gt;Node10 -->
<g id="edge37" class="edge">
<title>Node2&#45;&gt;Node10</title>
<path fill="none" stroke="midnightblue" d="M627.89,-246.27C654.53,-230.85 699.24,-206.26 740,-190 774.07,-176.41 813.2,-164.77 845.8,-156.1"/>
<polygon fill="midnightblue" stroke="midnightblue" points="846.91,-159.42 855.7,-153.5 845.14,-152.65 846.91,-159.42"/>
</g>
<!-- Node12 -->
<g id="node12" class="node">
<title>Node12</title>
<g id="a_node12"><a xlink:href="soft_8h.html" target="_top" xlink:title="Functions and data structures for secondary structure soft constraints.">
<polygon fill="none" stroke="black" points="544.5,-123.5 544.5,-153.5 663.5,-153.5 663.5,-123.5 544.5,-123.5"/>
<text text-anchor="start" x="552.5" y="-141.5" font-family="Helvetica,sans-Serif" font-size="10.00">ViennaRNA/constraints</text>
<text text-anchor="middle" x="604" y="-130.5" font-family="Helvetica,sans-Serif" font-size="10.00">/soft.h</text>
</a>
</g>
</g>
<!-- Node2&#45;&gt;Node12 -->
<g id="edge38" class="edge">
<title>Node2&#45;&gt;Node12</title>
<path fill="none" stroke="midnightblue" d="M599.45,-246.14C596.89,-225.86 596.57,-188.53 598.46,-163.86"/>
<polygon fill="midnightblue" stroke="midnightblue" points="601.95,-164.13 599.45,-153.84 594.98,-163.45 601.95,-164.13"/>
</g>
<!-- Node13 -->
<g id="node13" class="node">
<title>Node13</title>
<g id="a_node13"><a xlink:href="grammar_8h.html" target="_top" xlink:title="Implementations for the RNA folding grammar.">
<polygon fill="none" stroke="black" points="681.5,-129 681.5,-148 798.5,-148 798.5,-129 681.5,-129"/>
<text text-anchor="middle" x="740" y="-136" font-family="Helvetica,sans-Serif" font-size="10.00">ViennaRNA/grammar.h</text>
</a>
</g>
</g>
<!-- Node2&#45;&gt;Node13 -->
<g id="edge39" class="edge">
<title>Node2&#45;&gt;Node13</title>
<path fill="none" stroke="midnightblue" d="M619.87,-246.38C645.54,-223.54 695.98,-178.67 722.6,-154.98"/>
<polygon fill="midnightblue" stroke="midnightblue" points="725.2,-157.35 730.34,-148.09 720.55,-152.12 725.2,-157.35"/>
</g>
<!-- Node14 -->
<g id="node14" class="node">
<title>Node14</title>
<g id="a_node14"><a xlink:href="structured__domains_8h.html" target="_top" xlink:title="This module provides interfaces that deal with additional structured domains in the folding grammar.">
<polygon fill="none" stroke="black" points="411.5,-123.5 411.5,-153.5 526.5,-153.5 526.5,-123.5 411.5,-123.5"/>
<text text-anchor="start" x="419.5" y="-141.5" font-family="Helvetica,sans-Serif" font-size="10.00">ViennaRNA/structured</text>
<text text-anchor="middle" x="469" y="-130.5" font-family="Helvetica,sans-Serif" font-size="10.00">_domains.h</text>
</a>
</g>
</g>
<!-- Node2&#45;&gt;Node14 -->
<g id="edge40" class="edge">
<title>Node2&#45;&gt;Node14</title>
<path fill="none" stroke="midnightblue" d="M588.25,-246.38C564.57,-225.16 519.67,-184.91 492.23,-160.32"/>
<polygon fill="midnightblue" stroke="midnightblue" points="494.43,-157.6 484.65,-153.53 489.76,-162.81 494.43,-157.6"/>
</g>
<!-- Node15 -->
<g id="node15" class="node">
<title>Node15</title>
<g id="a_node15"><a xlink:href="unstructured__domains_8h.html" target="_top" xlink:title="Functions to modify unstructured domains, e.g. to incorporate ligands binding to unpaired stretches.">
<polygon fill="none" stroke="black" points="1298.5,-123.5 1298.5,-153.5 1423.5,-153.5 1423.5,-123.5 1298.5,-123.5"/>
<text text-anchor="start" x="1306.5" y="-141.5" font-family="Helvetica,sans-Serif" font-size="10.00">ViennaRNA/unstructured</text>
<text text-anchor="middle" x="1361" y="-130.5" font-family="Helvetica,sans-Serif" font-size="10.00">_domains.h</text>
</a>
</g>
</g>
<!-- Node2&#45;&gt;Node15 -->
<g id="edge41" class="edge">
<title>Node2&#45;&gt;Node15</title>
<path fill="none" stroke="midnightblue" d="M671.34,-250.36C793.26,-232.62 1058.28,-194.01 1281,-154 1283.35,-153.58 1285.74,-153.14 1288.16,-152.69"/>
<polygon fill="midnightblue" stroke="midnightblue" points="1289.05,-156.08 1298.22,-150.77 1287.74,-149.2 1289.05,-156.08"/>
</g>
<!-- Node2&#45;&gt;Node16 -->
<g id="edge42" class="edge">
<title>Node2&#45;&gt;Node16</title>
<path fill="none" stroke="midnightblue" d="M671.07,-256.94C842.08,-247.31 1289.92,-217.11 1424,-154 1456.34,-138.78 1485.11,-107.64 1503.36,-88.57"/>
<polygon fill="midnightblue" stroke="midnightblue" points="1506.05,-90.82 1510.52,-81.21 1501.04,-85.94 1506.05,-90.82"/>
</g>
<!-- Node4 -->
<g id="node4" class="node">
<title>Node4</title>
<g id="a_node4"><a xlink:title=" ">
<polygon fill="none" stroke="#bfbfbf" points="97,-0.5 97,-19.5 145,-19.5 145,-0.5 97,-0.5"/>
<text text-anchor="middle" x="121" y="-7.5" font-family="Helvetica,sans-Serif" font-size="10.00">limits.h</text>
</a>
</g>
</g>
<!-- Node3&#45;&gt;Node4 -->
<g id="edge3" class="edge">
<title>Node3&#45;&gt;Node4</title>
<path fill="none" stroke="midnightblue" d="M121,-61.98C121,-53.58 121,-40.48 121,-29.66"/>
<polygon fill="midnightblue" stroke="midnightblue" points="124.5,-29.51 121,-19.51 117.5,-29.51 124.5,-29.51"/>
</g>
<!-- Node5&#45;&gt;Node6 -->
<g id="edge5" class="edge">
<title>Node5&#45;&gt;Node6</title>
<path fill="none" stroke="midnightblue" d="M823.26,-190.29C825.01,-174.49 826.15,-141.09 808,-123 778.21,-93.32 664.22,-80.78 591.18,-75.71"/>
<polygon fill="midnightblue" stroke="midnightblue" points="591.37,-72.22 581.16,-75.05 590.91,-79.2 591.37,-72.22"/>
</g>
<!-- Node5&#45;&gt;Node7 -->
<g id="edge6" class="edge">
<title>Node5&#45;&gt;Node7</title>
<path fill="none" stroke="midnightblue" d="M748.66,-194.64C638.51,-187.53 424.22,-172.37 243,-154 229.32,-152.61 214.76,-150.95 200.89,-149.26"/>
<polygon fill="midnightblue" stroke="midnightblue" points="201.28,-145.79 190.93,-148.03 200.42,-152.73 201.28,-145.79"/>
</g>
<!-- Node8 -->
<g id="node8" class="node">
<title>Node8</title>
<g id="a_node8"><a xlink:href="sequence_8h.html" target="_top" xlink:title="Functions and data structures related to sequence representations ,.">
<polygon fill="none" stroke="black" points="1031,-129 1031,-148 1153,-148 1153,-129 1031,-129"/>
<text text-anchor="middle" x="1092" y="-136" font-family="Helvetica,sans-Serif" font-size="10.00">ViennaRNA/sequence.h</text>
</a>
</g>
</g>
<!-- Node5&#45;&gt;Node8 -->
<g id="edge11" class="edge">
<title>Node5&#45;&gt;Node8</title>
<path fill="none" stroke="midnightblue" d="M855.78,-190.48C901.78,-179.83 984.31,-161.61 1038.68,-150.08"/>
<polygon fill="midnightblue" stroke="midnightblue" points="1039.43,-153.5 1048.49,-148.01 1037.98,-146.65 1039.43,-153.5"/>
</g>
<!-- Node5&#45;&gt;Node9 -->
<g id="edge13" class="edge">
<title>Node5&#45;&gt;Node9</title>
<path fill="none" stroke="midnightblue" d="M748.71,-193.5C663.12,-186.31 517.74,-172.42 394,-154 386.06,-152.82 377.68,-151.4 369.62,-149.91"/>
<polygon fill="midnightblue" stroke="midnightblue" points="370.12,-146.45 359.64,-148.02 368.81,-153.32 370.12,-146.45"/>
</g>
<!-- Node5&#45;&gt;Node10 -->
<g id="edge16" class="edge">
<title>Node5&#45;&gt;Node10</title>
<path fill="none" stroke="midnightblue" d="M830.42,-190.48C841.46,-182.27 860.84,-169.56 878.33,-158.88"/>
<polygon fill="midnightblue" stroke="midnightblue" points="880.48,-161.67 887.25,-153.52 876.88,-155.67 880.48,-161.67"/>
</g>
<!-- Node5&#45;&gt;Node12 -->
<g id="edge20" class="edge">
<title>Node5&#45;&gt;Node12</title>
<path fill="none" stroke="midnightblue" d="M785.87,-190.48C751.37,-181.59 699.07,-167.43 659.36,-156.29"/>
<polygon fill="midnightblue" stroke="midnightblue" points="660.12,-152.87 649.55,-153.52 658.22,-159.6 660.12,-152.87"/>
</g>
<!-- Node5&#45;&gt;Node13 -->
<g id="edge24" class="edge">
<title>Node5&#45;&gt;Node13</title>
<path fill="none" stroke="midnightblue" d="M805.35,-190.48C790.4,-181.11 769.07,-165.88 754.73,-154.51"/>
<polygon fill="midnightblue" stroke="midnightblue" points="756.78,-151.66 746.83,-148.01 752.33,-157.06 756.78,-151.66"/>
</g>
<!-- Node5&#45;&gt;Node14 -->
<g id="edge26" class="edge">
<title>Node5&#45;&gt;Node14</title>
<path fill="none" stroke="midnightblue" d="M761.29,-190.47C705.49,-182.4 620.25,-169.49 536.62,-154.05"/>
<polygon fill="midnightblue" stroke="midnightblue" points="537.17,-150.59 526.7,-152.21 535.89,-157.48 537.17,-150.59"/>
</g>
<!-- Node5&#45;&gt;Node15 -->
<g id="edge27" class="edge">
<title>Node5&#45;&gt;Node15</title>
<path fill="none" stroke="midnightblue" d="M895.35,-193.9C986.21,-187.34 1145.38,-174.31 1281,-154 1283.36,-153.65 1285.76,-153.27 1288.19,-152.86"/>
<polygon fill="midnightblue" stroke="midnightblue" points="1289.02,-156.27 1298.27,-151.1 1287.82,-149.38 1289.02,-156.27"/>
</g>
<!-- Node18 -->
<g id="node18" class="node">
<title>Node18</title>
<g id="a_node18"><a xlink:href="zscore_8h_source.html" target="_top" xlink:title=" ">
<polygon fill="none" stroke="black" points="1171.5,-129 1171.5,-148 1280.5,-148 1280.5,-129 1171.5,-129"/>
<text text-anchor="middle" x="1226" y="-136" font-family="Helvetica,sans-Serif" font-size="10.00">ViennaRNA/zscore.h</text>
</a>
</g>
</g>
<!-- Node5&#45;&gt;Node18 -->
<g id="edge33" class="edge">
<title>Node5&#45;&gt;Node18</title>
<path fill="none" stroke="midnightblue" d="M895.25,-191.26C964.31,-183.5 1070.57,-170.37 1162,-154 1168.18,-152.89 1174.67,-151.59 1181.04,-150.23"/>
<polygon fill="midnightblue" stroke="midnightblue" points="1181.89,-153.62 1190.91,-148.06 1180.39,-146.79 1181.89,-153.62"/>
</g>
<!-- Node7&#45;&gt;Node2 -->
<g id="edge8" class="edge">
<title>Node7&#45;&gt;Node2</title>
<path fill="none" stroke="midnightblue" d="M154.39,-148.22C182.94,-163.33 237.11,-194.25 287,-210 366.71,-235.17 461.48,-248.05 526.58,-254.48"/>
<polygon fill="midnightblue" stroke="midnightblue" points="526.47,-257.99 536.76,-255.46 527.14,-251.02 526.47,-257.99"/>
</g>
<!-- Node7&#45;&gt;Node3 -->
<g id="edge7" class="edge">
<title>Node7&#45;&gt;Node3</title>
<path fill="none" stroke="midnightblue" d="M133.11,-128.73C131.03,-119.09 127.63,-103.3 124.96,-90.91"/>
<polygon fill="midnightblue" stroke="midnightblue" points="128.39,-90.17 122.86,-81.13 121.54,-91.64 128.39,-90.17"/>
</g>
<!-- Node7&#45;&gt;Node5 -->
<g id="edge9" class="edge">
<title>Node7&#45;&gt;Node5</title>
<path fill="none" stroke="midnightblue" d="M204.28,-147.54C222.77,-149.8 242.67,-152.14 261,-154 430.51,-171.19 628.95,-185.56 738.62,-193.16"/>
<polygon fill="midnightblue" stroke="midnightblue" points="738.41,-196.65 748.62,-193.85 738.89,-189.67 738.41,-196.65"/>
</g>
<!-- Node7&#45;&gt;Node6 -->
<g id="edge10" class="edge">
<title>Node7&#45;&gt;Node6</title>
<path fill="none" stroke="midnightblue" d="M183.26,-128.97C194.65,-126.99 206.75,-124.9 218,-123 303.31,-108.6 401.96,-92.65 464.64,-82.6"/>
<polygon fill="midnightblue" stroke="midnightblue" points="465.44,-86.02 474.76,-80.98 464.33,-79.11 465.44,-86.02"/>
</g>
<!-- Node8&#45;&gt;Node5 -->
<g id="edge12" class="edge">
<title>Node8&#45;&gt;Node5</title>
<path fill="none" stroke="midnightblue" d="M1058.28,-148.01C1012.32,-158.65 929.79,-176.87 875.4,-188.4"/>
<polygon fill="midnightblue" stroke="midnightblue" points="874.65,-184.98 865.59,-190.48 876.09,-191.83 874.65,-184.98"/>
</g>
<!-- Node9&#45;&gt;Node2 -->
<g id="edge14" class="edge">
<title>Node9&#45;&gt;Node2</title>
<path fill="none" stroke="midnightblue" d="M350.35,-148.09C398.62,-167.61 509.01,-215.64 567.02,-242.16"/>
<polygon fill="midnightblue" stroke="midnightblue" points="565.66,-245.39 576.21,-246.38 568.58,-239.03 565.66,-245.39"/>
</g>
<!-- Node9&#45;&gt;Node5 -->
<g id="edge15" class="edge">
<title>Node9&#45;&gt;Node5</title>
<path fill="none" stroke="midnightblue" d="M376.98,-148.02C388.53,-150.16 400.71,-152.32 412,-154 524.88,-170.8 655.77,-183.84 738.78,-191.46"/>
<polygon fill="midnightblue" stroke="midnightblue" points="738.63,-194.96 748.91,-192.38 739.27,-187.99 738.63,-194.96"/>
</g>
<!-- Node10&#45;&gt;Node5 -->
<g id="edge17" class="edge">
<title>Node10&#45;&gt;Node5</title>
<path fill="none" stroke="midnightblue" d="M898.91,-153.52C885.17,-163.11 865.39,-175.75 849.24,-185.28"/>
<polygon fill="midnightblue" stroke="midnightblue" points="847.14,-182.45 840.23,-190.48 850.64,-188.51 847.14,-182.45"/>
</g>
<!-- Node11 -->
<g id="node11" class="node">
<title>Node11</title>
<g id="a_node11"><a xlink:href="constraints_2basic_8h.html" target="_top" xlink:title="Functions and data structures for constraining secondary structure predictions and evaluation.">
<polygon fill="none" stroke="black" points="855.5,-56.5 855.5,-86.5 974.5,-86.5 974.5,-56.5 855.5,-56.5"/>
<text text-anchor="start" x="863.5" y="-74.5" font-family="Helvetica,sans-Serif" font-size="10.00">ViennaRNA/constraints</text>
<text text-anchor="middle" x="915" y="-63.5" font-family="Helvetica,sans-Serif" font-size="10.00">/basic.h</text>
</a>
</g>
</g>
<!-- Node10&#45;&gt;Node11 -->
<g id="edge18" class="edge">
<title>Node10&#45;&gt;Node11</title>
<path fill="none" stroke="midnightblue" d="M915,-123.4C915,-115.64 915,-105.81 915,-96.86"/>
<polygon fill="midnightblue" stroke="midnightblue" points="918.5,-96.58 915,-86.58 911.5,-96.58 918.5,-96.58"/>
</g>
<!-- Node11&#45;&gt;Node5 -->
<g id="edge19" class="edge">
<title>Node11&#45;&gt;Node5</title>
<path fill="none" stroke="midnightblue" d="M945.91,-86.66C960.28,-95.02 975.94,-107.11 984,-123 990.23,-135.29 992.34,-143.03 984,-154 972.24,-169.47 928.92,-181.01 890.03,-188.54"/>
<polygon fill="midnightblue" stroke="midnightblue" points="888.92,-185.18 879.74,-190.46 890.21,-192.07 888.92,-185.18"/>
</g>
<!-- Node12&#45;&gt;Node2 -->
<g id="edge21" class="edge">
<title>Node12&#45;&gt;Node2</title>
<path fill="none" stroke="midnightblue" d="M608.55,-153.84C611.1,-174.11 611.43,-211.44 609.54,-236.12"/>
<polygon fill="midnightblue" stroke="midnightblue" points="606.05,-235.85 608.55,-246.14 613.02,-236.54 606.05,-235.85"/>
</g>
<!-- Node12&#45;&gt;Node5 -->
<g id="edge22" class="edge">
<title>Node12&#45;&gt;Node5</title>
<path fill="none" stroke="midnightblue" d="M661.21,-153.52C700.63,-163.92 751.75,-177.9 785.71,-187.61"/>
<polygon fill="midnightblue" stroke="midnightblue" points="785.09,-191.07 795.67,-190.48 787.02,-184.35 785.09,-191.07"/>
</g>
<!-- Node12&#45;&gt;Node11 -->
<g id="edge23" class="edge">
<title>Node12&#45;&gt;Node11</title>
<path fill="none" stroke="midnightblue" d="M663.84,-124.92C666.94,-124.27 670,-123.63 673,-123 731.04,-110.85 796.93,-97.1 845.28,-87.02"/>
<polygon fill="midnightblue" stroke="midnightblue" points="846.25,-90.4 855.32,-84.93 844.82,-83.54 846.25,-90.4"/>
</g>
<!-- Node13&#45;&gt;Node5 -->
<g id="edge25" class="edge">
<title>Node13&#45;&gt;Node5</title>
<path fill="none" stroke="midnightblue" d="M756.62,-148.01C771.57,-157.37 792.9,-172.59 807.24,-183.97"/>
<polygon fill="midnightblue" stroke="midnightblue" points="805.2,-186.83 815.15,-190.48 809.65,-181.42 805.2,-186.83"/>
</g>
<!-- Node15&#45;&gt;Node2 -->
<g id="edge28" class="edge">
<title>Node15&#45;&gt;Node2</title>
<path fill="none" stroke="midnightblue" d="M1301.62,-153.53C1300.74,-153.69 1299.87,-153.84 1299,-154 1075.8,-194.09 810.12,-232.78 681.4,-250.47"/>
<polygon fill="midnightblue" stroke="midnightblue" points="680.68,-247.04 671.25,-251.86 681.63,-253.97 680.68,-247.04"/>
</g>
<!-- Node15&#45;&gt;Node5 -->
<g id="edge29" class="edge">
<title>Node15&#45;&gt;Node5</title>
<path fill="none" stroke="midnightblue" d="M1302.01,-153.54C1301,-153.7 1300,-153.85 1299,-154 1162.11,-174.5 1001.23,-187.59 905.59,-194.09"/>
<polygon fill="midnightblue" stroke="midnightblue" points="905.14,-190.61 895.4,-194.77 905.61,-197.59 905.14,-190.61"/>
</g>
<!-- Node15&#45;&gt;Node16 -->
<g id="edge30" class="edge">
<title>Node15&#45;&gt;Node16</title>
<path fill="none" stroke="midnightblue" d="M1395.93,-123.4C1424.43,-111.89 1464.29,-95.8 1491.52,-84.81"/>
<polygon fill="midnightblue" stroke="midnightblue" points="1492.97,-88 1500.93,-81.01 1490.35,-81.51 1492.97,-88"/>
</g>
<!-- Node16&#45;&gt;Node2 -->
<g id="edge32" class="edge">
<title>Node16&#45;&gt;Node2</title>
<path fill="none" stroke="midnightblue" d="M1520.57,-81.21C1511.26,-98.42 1478.96,-136.6 1442,-154 1308.3,-216.93 862.61,-247.14 681.46,-256.86"/>
<polygon fill="midnightblue" stroke="midnightblue" points="681.02,-253.38 671.22,-257.4 681.39,-260.37 681.02,-253.38"/>
</g>
<!-- Node17 -->
<g id="node17" class="node">
<title>Node17</title>
<g id="a_node17"><a xlink:title=" ">
<polygon fill="none" stroke="#bfbfbf" points="1499,-0.5 1499,-19.5 1545,-19.5 1545,-0.5 1499,-0.5"/>
<text text-anchor="middle" x="1522" y="-7.5" font-family="Helvetica,sans-Serif" font-size="10.00">stdio.h</text>
</a>
</g>
</g>
<!-- Node16&#45;&gt;Node17 -->
<g id="edge31" class="edge">
<title>Node16&#45;&gt;Node17</title>
<path fill="none" stroke="midnightblue" d="M1522,-61.98C1522,-53.58 1522,-40.48 1522,-29.66"/>
<polygon fill="midnightblue" stroke="midnightblue" points="1525.5,-29.51 1522,-19.51 1518.5,-29.51 1525.5,-29.51"/>
</g>
<!-- Node20&#45;&gt;Node2 -->
<g id="edge47" class="edge">
<title>Node20&#45;&gt;Node2</title>
<path fill="none" stroke="midnightblue" d="M510.57,-318.73C526.21,-309.32 551.58,-294.05 571.93,-281.8"/>
<polygon fill="midnightblue" stroke="midnightblue" points="573.83,-284.74 580.59,-276.59 570.22,-278.75 573.83,-284.74"/>
</g>
<!-- Node20&#45;&gt;Node5 -->
<g id="edge48" class="edge">
<title>Node20&#45;&gt;Node5</title>
<path fill="none" stroke="midnightblue" d="M537.42,-318.92C575.29,-310.43 632.46,-295.97 680,-277 724.14,-259.39 772.26,-231.66 799.62,-215.02"/>
<polygon fill="midnightblue" stroke="midnightblue" points="801.7,-217.84 808.39,-209.62 798.04,-211.88 801.7,-217.84"/>
</g>
<!-- Node20&#45;&gt;Node17 -->
<g id="edge46" class="edge">
<title>Node20&#45;&gt;Node17</title>
<path fill="none" stroke="midnightblue" d="M447.99,-325.46C323.51,-318.86 0,-292.87 0,-201 0,-201 0,-201 0,-137.5 0,-98.42 0.93,-78.33 33,-56 94.74,-13.02 1274.49,-10.99 1488.77,-10.98"/>
<polygon fill="midnightblue" stroke="midnightblue" points="1488.78,-14.48 1498.78,-10.98 1488.78,-7.48 1488.78,-14.48"/>
</g>
<!-- Node21&#45;&gt;Node2 -->
<g id="edge50" class="edge">
<title>Node21&#45;&gt;Node2</title>
<path fill="none" stroke="midnightblue" d="M761.91,-380.65C731.49,-374.27 695.14,-363.16 667,-344 644.97,-329 627.24,-303.85 616.27,-285.44"/>
<polygon fill="midnightblue" stroke="midnightblue" points="619.17,-283.46 611.16,-276.53 613.09,-286.94 619.17,-283.46"/>
</g>
<!-- Node21&#45;&gt;Node5 -->
<g id="edge51" class="edge">
<title>Node21&#45;&gt;Node5</title>
<path fill="none" stroke="midnightblue" d="M822,-380.43C822,-351.93 822,-259.82 822,-219.83"/>
<polygon fill="midnightblue" stroke="midnightblue" points="825.5,-219.62 822,-209.62 818.5,-219.62 825.5,-219.62"/>
</g>
<!-- Node21&#45;&gt;Node7 -->
<g id="edge53" class="edge">
<title>Node21&#45;&gt;Node7</title>
<path fill="none" stroke="midnightblue" d="M778.14,-380.45C739.32,-372.45 681.34,-359.44 632,-344 596,-332.74 589.38,-322.96 553,-313 456.6,-286.59 426.51,-306.49 331,-277 263.94,-256.29 242.48,-254.25 188,-210 169.69,-195.13 154.23,-172.63 144.81,-157.07"/>
<polygon fill="midnightblue" stroke="midnightblue" points="147.82,-155.28 139.76,-148.4 141.78,-158.8 147.82,-155.28"/>
</g>
<!-- Node21&#45;&gt;Node16 -->
<g id="edge52" class="edge">
<title>Node21&#45;&gt;Node16</title>
<path fill="none" stroke="midnightblue" d="M852.01,-380.49C909.38,-364.58 1038.82,-330.34 1150,-313 1198.36,-305.46 1553.76,-310.96 1589,-277 1638.39,-229.41 1615.09,-181.33 1579,-123 1570.15,-108.71 1556.04,-96.15 1544.06,-87.14"/>
<polygon fill="midnightblue" stroke="midnightblue" points="1546,-84.22 1535.83,-81.23 1541.91,-89.9 1546,-84.22"/>
</g>
<!-- Node22 -->
<g id="node22" class="node">
<title>Node22</title>
<g id="a_node22"><a xlink:href="centroid_8h.html" target="_top" xlink:title="Centroid structure computation.">
<polygon fill="none" stroke="black" points="850,-319 850,-338 964,-338 964,-319 850,-319"/>
<text text-anchor="middle" x="907" y="-326" font-family="Helvetica,sans-Serif" font-size="10.00">ViennaRNA/centroid.h</text>
</a>
</g>
</g>
<!-- Node21&#45;&gt;Node22 -->
<g id="edge54" class="edge">
<title>Node21&#45;&gt;Node22</title>
<path fill="none" stroke="midnightblue" d="M834.18,-380.48C847.81,-370.93 870.13,-355.31 886.47,-343.87"/>
<polygon fill="midnightblue" stroke="midnightblue" points="888.66,-346.61 894.84,-338.01 884.64,-340.88 888.66,-346.61"/>
</g>
<!-- Node23 -->
<g id="node23" class="node">
<title>Node23</title>
<g id="a_node23"><a xlink:href="equilibrium__probs_8h.html" target="_top" xlink:title="Equilibrium Probability implementations.">
<polygon fill="none" stroke="black" points="676,-313.5 676,-343.5 794,-343.5 794,-313.5 676,-313.5"/>
<text text-anchor="start" x="684" y="-331.5" font-family="Helvetica,sans-Serif" font-size="10.00">ViennaRNA/equilibrium</text>
<text text-anchor="middle" x="735" y="-320.5" font-family="Helvetica,sans-Serif" font-size="10.00">_probs.h</text>
</a>
</g>
</g>
<!-- Node21&#45;&gt;Node23 -->
<g id="edge58" class="edge">
<title>Node21&#45;&gt;Node23</title>
<path fill="none" stroke="midnightblue" d="M809.54,-380.48C797.64,-372.34 779.29,-359.79 763.77,-349.18"/>
<polygon fill="midnightblue" stroke="midnightblue" points="765.73,-346.28 755.5,-343.52 761.78,-352.06 765.73,-346.28"/>
</g>
<!-- Node21&#45;&gt;Node24 -->
<g id="edge63" class="edge">
<title>Node21&#45;&gt;Node24</title>
<path fill="none" stroke="midnightblue" d="M882.29,-381.7C947.3,-373.58 1053.74,-359.53 1145,-344 1146.27,-343.78 1147.56,-343.56 1148.85,-343.33"/>
<polygon fill="midnightblue" stroke="midnightblue" points="1149.68,-346.74 1158.9,-341.51 1148.43,-339.85 1149.68,-346.74"/>
</g>
<!-- Node22&#45;&gt;Node2 -->
<g id="edge55" class="edge">
<title>Node22&#45;&gt;Node2</title>
<path fill="none" stroke="midnightblue" d="M867.08,-318.94C819.53,-308.74 739.08,-291.48 679.63,-278.72"/>
<polygon fill="midnightblue" stroke="midnightblue" points="680.05,-275.23 669.54,-276.56 678.58,-282.08 680.05,-275.23"/>
</g>
<!-- Node22&#45;&gt;Node5 -->
<g id="edge56" class="edge">
<title>Node22&#45;&gt;Node5</title>
<path fill="none" stroke="midnightblue" d="M901.16,-318.81C887.27,-298.13 852.06,-245.73 833.64,-218.32"/>
<polygon fill="midnightblue" stroke="midnightblue" points="836.37,-216.1 827.88,-209.76 830.56,-220.01 836.37,-216.1"/>
</g>
<!-- Node22&#45;&gt;Node16 -->
<g id="edge57" class="edge">
<title>Node22&#45;&gt;Node16</title>
<path fill="none" stroke="midnightblue" d="M964.28,-323.36C1123.93,-311.78 1562.45,-279.75 1565,-277 1579.53,-261.32 1610.46,-264.35 1560,-123 1555.42,-110.18 1546.36,-97.93 1538.24,-88.71"/>
<polygon fill="midnightblue" stroke="midnightblue" points="1540.57,-86.08 1531.19,-81.15 1535.45,-90.85 1540.57,-86.08"/>
</g>
<!-- Node23&#45;&gt;Node2 -->
<g id="edge59" class="edge">
<title>Node23&#45;&gt;Node2</title>
<path fill="none" stroke="midnightblue" d="M706.57,-313.4C687.52,-303.94 662.22,-291.39 641.52,-281.12"/>
<polygon fill="midnightblue" stroke="midnightblue" points="642.88,-277.89 632.37,-276.58 639.77,-284.16 642.88,-277.89"/>
</g>
<!-- Node23&#45;&gt;Node5 -->
<g id="edge60" class="edge">
<title>Node23&#45;&gt;Node5</title>
<path fill="none" stroke="midnightblue" d="M744.64,-313.48C760.65,-290.21 792.66,-243.66 810.06,-218.36"/>
<polygon fill="midnightblue" stroke="midnightblue" points="813.17,-220.01 815.96,-209.79 807.41,-216.04 813.17,-220.01"/>
</g>
<!-- Node23&#45;&gt;Node7 -->
<g id="edge62" class="edge">
<title>Node23&#45;&gt;Node7</title>
<path fill="none" stroke="midnightblue" d="M675.99,-317.25C559.66,-296.49 305.05,-248.22 225,-210 196.06,-196.18 167.8,-171.73 150.89,-155.56"/>
<polygon fill="midnightblue" stroke="midnightblue" points="153.14,-152.87 143.55,-148.38 148.25,-157.87 153.14,-152.87"/>
</g>
<!-- Node23&#45;&gt;Node16 -->
<g id="edge61" class="edge">
<title>Node23&#45;&gt;Node16</title>
<path fill="none" stroke="midnightblue" d="M794.26,-316.68C960.69,-285.89 1423.73,-197.22 1478,-154 1498.4,-137.76 1510.61,-109.39 1516.82,-90.77"/>
<polygon fill="midnightblue" stroke="midnightblue" points="1520.2,-91.69 1519.8,-81.11 1513.51,-89.63 1520.2,-91.69"/>
</g>
<!-- Node24&#45;&gt;Node5 -->
<g id="edge64" class="edge">
<title>Node24&#45;&gt;Node5</title>
<path fill="none" stroke="midnightblue" d="M1173.22,-313.48C1094.76,-288.35 931.58,-236.09 858.63,-212.73"/>
<polygon fill="midnightblue" stroke="midnightblue" points="859.54,-209.35 848.95,-209.63 857.4,-216.01 859.54,-209.35"/>
</g>
<!-- Node25&#45;&gt;Node5 -->
<g id="edge66" class="edge">
<title>Node25&#45;&gt;Node5</title>
<path fill="none" stroke="midnightblue" d="M1407.89,-253.82C1283.96,-242.65 1035.47,-220.24 905.52,-208.53"/>
<polygon fill="midnightblue" stroke="midnightblue" points="905.51,-205.01 895.23,-207.6 904.88,-211.99 905.51,-205.01"/>
</g>
<!-- Node25&#45;&gt;Node6 -->
<g id="edge67" class="edge">
<title>Node25&#45;&gt;Node6</title>
<path fill="none" stroke="midnightblue" d="M1481.95,-251.86C1481.29,-226.98 1475.62,-154.87 1433,-123 1424.56,-116.69 795.5,-85.53 591.27,-75.57"/>
<polygon fill="midnightblue" stroke="midnightblue" points="591.16,-72.06 581,-75.07 590.82,-79.05 591.16,-72.06"/>
</g>
<!-- Node25&#45;&gt;Node17 -->
<g id="edge68" class="edge">
<title>Node25&#45;&gt;Node17</title>
<path fill="none" stroke="midnightblue" d="M1496.6,-251.85C1510.74,-242.87 1532.05,-227.66 1546,-210 1583.34,-162.71 1590.03,-145.84 1603,-87 1605.97,-73.55 1609.99,-67.87 1603,-56 1592.54,-38.22 1572.23,-26.96 1554.56,-20.15"/>
<polygon fill="midnightblue" stroke="midnightblue" points="1555.7,-16.84 1545.1,-16.81 1553.37,-23.44 1555.7,-16.84"/>
</g>
</g>
</svg>
