<?xml version="1.0" encoding="UTF-8" standalone="no"?>
<!DOCTYPE svg PUBLIC "-//W3C//DTD SVG 1.1//EN"
 "http://www.w3.org/Graphics/SVG/1.1/DTD/svg11.dtd">
<!-- Generated by graphviz version 2.47.0 (0)
 -->
<!-- Title: ViennaRNA/loops/all.h Pages: 1 -->
<svg width="1698pt" height="453pt"
 viewBox="0.00 0.00 1697.50 453.00" xmlns="http://www.w3.org/2000/svg" xmlns:xlink="http://www.w3.org/1999/xlink">
<g id="graph0" class="graph" transform="scale(1 1) rotate(0) translate(4 449)">
<title>ViennaRNA/loops/all.h</title>
<!-- Node1 -->
<g id="node1" class="node">
<title>Node1</title>
<g id="a_node1"><a xlink:title="Energy evaluation for MFE and partition function calculations.">
<polygon fill="#bfbfbf" stroke="black" points="1041.5,-425.5 1041.5,-444.5 1157.5,-444.5 1157.5,-425.5 1041.5,-425.5"/>
<text text-anchor="middle" x="1099.5" y="-432.5" font-family="Helvetica,sans-Serif" font-size="10.00">ViennaRNA/loops/all.h</text>
</a>
</g>
</g>
<!-- Node2 -->
<g id="node2" class="node">
<title>Node2</title>
<g id="a_node2"><a xlink:href="external_8h.html" target="_top" xlink:title="Energy evaluation of exterior loops for MFE and partition function calculations.">
<polygon fill="none" stroke="black" points="981.5,-313.5 981.5,-332.5 1121.5,-332.5 1121.5,-313.5 981.5,-313.5"/>
<text text-anchor="middle" x="1051.5" y="-320.5" font-family="Helvetica,sans-Serif" font-size="10.00">ViennaRNA/loops/external.h</text>
</a>
</g>
</g>
<!-- Node1&#45;&gt;Node2 -->
<g id="edge1" class="edge">
<title>Node1&#45;&gt;Node2</title>
<path fill="none" stroke="midnightblue" d="M1093.22,-425.41C1087.02,-416.63 1077.6,-402.4 1071.5,-389 1064.62,-373.89 1059.26,-355.77 1055.83,-342.5"/>
<polygon fill="midnightblue" stroke="midnightblue" points="1059.2,-341.55 1053.41,-332.67 1052.4,-343.22 1059.2,-341.55"/>
</g>
<!-- Node20 -->
<g id="node20" class="node">
<title>Node20</title>
<g id="a_node20"><a xlink:href="hairpin_8h.html" target="_top" xlink:title="Energy evaluation of hairpin loops for MFE and partition function calculations.">
<polygon fill="none" stroke="black" points="886.5,-369.5 886.5,-388.5 1020.5,-388.5 1020.5,-369.5 886.5,-369.5"/>
<text text-anchor="middle" x="953.5" y="-376.5" font-family="Helvetica,sans-Serif" font-size="10.00">ViennaRNA/loops/hairpin.h</text>
</a>
</g>
</g>
<!-- Node1&#45;&gt;Node20 -->
<g id="edge46" class="edge">
<title>Node1&#45;&gt;Node20</title>
<path fill="none" stroke="midnightblue" d="M1076.37,-425.44C1052.02,-416.44 1013.49,-402.19 986.08,-392.05"/>
<polygon fill="midnightblue" stroke="midnightblue" points="987.12,-388.7 976.53,-388.52 984.69,-395.27 987.12,-388.7"/>
</g>
<!-- Node25 -->
<g id="node25" class="node">
<title>Node25</title>
<g id="a_node25"><a xlink:href="internal_8h.html" target="_top" xlink:title="Energy evaluation of interior loops for MFE and partition function calculations.">
<polygon fill="none" stroke="black" points="1080,-369.5 1080,-388.5 1217,-388.5 1217,-369.5 1080,-369.5"/>
<text text-anchor="middle" x="1148.5" y="-376.5" font-family="Helvetica,sans-Serif" font-size="10.00">ViennaRNA/loops/internal.h</text>
</a>
</g>
</g>
<!-- Node1&#45;&gt;Node25 -->
<g id="edge56" class="edge">
<title>Node1&#45;&gt;Node25</title>
<path fill="none" stroke="midnightblue" d="M1107.59,-425.08C1114.66,-417.3 1125.09,-405.8 1133.65,-396.37"/>
<polygon fill="midnightblue" stroke="midnightblue" points="1136.43,-398.51 1140.56,-388.75 1131.25,-393.8 1136.43,-398.51"/>
</g>
<!-- Node27 -->
<g id="node27" class="node">
<title>Node27</title>
<g id="a_node27"><a xlink:href="multibranch_8h.html" target="_top" xlink:title="Energy evaluation of multibranch loops for MFE and partition function calculations.">
<polygon fill="none" stroke="black" points="1235.5,-369.5 1235.5,-388.5 1391.5,-388.5 1391.5,-369.5 1235.5,-369.5"/>
<text text-anchor="middle" x="1313.5" y="-376.5" font-family="Helvetica,sans-Serif" font-size="10.00">ViennaRNA/loops/multibranch.h</text>
</a>
</g>
</g>
<!-- Node1&#45;&gt;Node27 -->
<g id="edge65" class="edge">
<title>Node1&#45;&gt;Node27</title>
<path fill="none" stroke="midnightblue" d="M1133.41,-425.44C1170.35,-416.12 1229.55,-401.18 1269.92,-391"/>
<polygon fill="midnightblue" stroke="midnightblue" points="1270.91,-394.36 1279.75,-388.52 1269.2,-387.57 1270.91,-394.36"/>
</g>
<!-- Node3 -->
<g id="node3" class="node">
<title>Node3</title>
<g id="a_node3"><a xlink:href="datastructures_2basic_8h.html" target="_top" xlink:title="Various data structures and pre&#45;processor macros.">
<polygon fill="none" stroke="black" points="984.5,-246.5 984.5,-276.5 1118.5,-276.5 1118.5,-246.5 984.5,-246.5"/>
<text text-anchor="start" x="992.5" y="-264.5" font-family="Helvetica,sans-Serif" font-size="10.00">ViennaRNA/datastructures</text>
<text text-anchor="middle" x="1051.5" y="-253.5" font-family="Helvetica,sans-Serif" font-size="10.00">/basic.h</text>
</a>
</g>
</g>
<!-- Node2&#45;&gt;Node3 -->
<g id="edge2" class="edge">
<title>Node2&#45;&gt;Node3</title>
<path fill="none" stroke="midnightblue" d="M1051.5,-313.48C1051.5,-306.47 1051.5,-296.19 1051.5,-286.7"/>
<polygon fill="midnightblue" stroke="midnightblue" points="1055,-286.52 1051.5,-276.52 1048,-286.52 1055,-286.52"/>
</g>
<!-- Node6 -->
<g id="node6" class="node">
<title>Node6</title>
<g id="a_node6"><a xlink:href="fold__compound_8h.html" target="_top" xlink:title="The Basic Fold Compound API.">
<polygon fill="none" stroke="black" points="741.5,-190.5 741.5,-209.5 887.5,-209.5 887.5,-190.5 741.5,-190.5"/>
<text text-anchor="middle" x="814.5" y="-197.5" font-family="Helvetica,sans-Serif" font-size="10.00">ViennaRNA/fold_compound.h</text>
</a>
</g>
</g>
<!-- Node2&#45;&gt;Node6 -->
<g id="edge44" class="edge">
<title>Node2&#45;&gt;Node6</title>
<path fill="none" stroke="midnightblue" d="M1036.92,-313.39C1021.62,-304.34 996.86,-289.69 975.5,-277 952.37,-263.26 947.55,-258.05 923.5,-246 898.58,-233.51 869.34,-221.58 847.42,-213.14"/>
<polygon fill="midnightblue" stroke="midnightblue" points="848.49,-209.81 837.9,-209.52 846,-216.35 848.49,-209.81"/>
</g>
<!-- Node8 -->
<g id="node8" class="node">
<title>Node8</title>
<g id="a_node8"><a xlink:href="params_2basic_8h.html" target="_top" xlink:title="Functions to deal with sets of energy parameters.">
<polygon fill="none" stroke="black" points="1275.5,-129 1275.5,-148 1413.5,-148 1413.5,-129 1275.5,-129"/>
<text text-anchor="middle" x="1344.5" y="-136" font-family="Helvetica,sans-Serif" font-size="10.00">ViennaRNA/params/basic.h</text>
</a>
</g>
</g>
<!-- Node2&#45;&gt;Node8 -->
<g id="edge45" class="edge">
<title>Node2&#45;&gt;Node8</title>
<path fill="none" stroke="midnightblue" d="M1066.43,-313.34C1081.82,-304.37 1106.45,-289.9 1127.5,-277 1199.67,-232.78 1284.1,-178.56 1322.94,-153.46"/>
<polygon fill="midnightblue" stroke="midnightblue" points="1324.88,-156.38 1331.38,-148.01 1321.08,-150.5 1324.88,-156.38"/>
</g>
<!-- Node4 -->
<g id="node4" class="node">
<title>Node4</title>
<g id="a_node4"><a xlink:href="constants_8h.html" target="_top" xlink:title="Energy parameter constants.">
<polygon fill="none" stroke="black" points="1331.5,-62 1331.5,-81 1489.5,-81 1489.5,-62 1331.5,-62"/>
<text text-anchor="middle" x="1410.5" y="-69" font-family="Helvetica,sans-Serif" font-size="10.00">ViennaRNA/params/constants.h</text>
</a>
</g>
</g>
<!-- Node3&#45;&gt;Node4 -->
<g id="edge3" class="edge">
<title>Node3&#45;&gt;Node4</title>
<path fill="none" stroke="midnightblue" d="M1118.58,-250.97C1215.19,-235.71 1385.96,-202.51 1422.5,-154 1436.38,-135.58 1428.01,-108.03 1419.92,-90.16"/>
<polygon fill="midnightblue" stroke="midnightblue" points="1423.03,-88.55 1415.47,-81.12 1416.75,-91.64 1423.03,-88.55"/>
</g>
<!-- Node3&#45;&gt;Node6 -->
<g id="edge5" class="edge">
<title>Node3&#45;&gt;Node6</title>
<path fill="none" stroke="midnightblue" d="M995.63,-246.47C953.68,-235.94 897.01,-221.72 858.31,-212"/>
<polygon fill="midnightblue" stroke="midnightblue" points="858.93,-208.55 848.38,-209.51 857.23,-215.34 858.93,-208.55"/>
</g>
<!-- Node7 -->
<g id="node7" class="node">
<title>Node7</title>
<g id="a_node7"><a xlink:href="model_8h.html" target="_top" xlink:title="The model details data structure and its corresponding modifiers.">
<polygon fill="none" stroke="black" points="994.5,-62 994.5,-81 1100.5,-81 1100.5,-62 994.5,-62"/>
<text text-anchor="middle" x="1047.5" y="-69" font-family="Helvetica,sans-Serif" font-size="10.00">ViennaRNA/model.h</text>
</a>
</g>
</g>
<!-- Node3&#45;&gt;Node7 -->
<g id="edge35" class="edge">
<title>Node3&#45;&gt;Node7</title>
<path fill="none" stroke="midnightblue" d="M1051.2,-246.37C1050.49,-212.94 1048.7,-128.97 1047.9,-91.3"/>
<polygon fill="midnightblue" stroke="midnightblue" points="1051.4,-91.13 1047.69,-81.21 1044.4,-91.28 1051.4,-91.13"/>
</g>
<!-- Node3&#45;&gt;Node8 -->
<g id="edge36" class="edge">
<title>Node3&#45;&gt;Node8</title>
<path fill="none" stroke="midnightblue" d="M1081.16,-246.38C1136.05,-222.46 1252.64,-174.34 1310.57,-151.75"/>
<polygon fill="midnightblue" stroke="midnightblue" points="1311.95,-154.97 1320.01,-148.09 1309.42,-148.44 1311.95,-154.97"/>
</g>
<!-- Node10 -->
<g id="node10" class="node">
<title>Node10</title>
<g id="a_node10"><a xlink:href="dp__matrices_8h.html" target="_top" xlink:title="Functions to deal with standard dynamic programming (DP) matrices.">
<polygon fill="none" stroke="black" points="886,-129 886,-148 1019,-148 1019,-129 886,-129"/>
<text text-anchor="middle" x="952.5" y="-136" font-family="Helvetica,sans-Serif" font-size="10.00">ViennaRNA/dp_matrices.h</text>
</a>
</g>
</g>
<!-- Node3&#45;&gt;Node10 -->
<g id="edge37" class="edge">
<title>Node3&#45;&gt;Node10</title>
<path fill="none" stroke="midnightblue" d="M1035.2,-246.14C1014.02,-223.71 978.5,-180.42 961.53,-156.47"/>
<polygon fill="midnightblue" stroke="midnightblue" points="964.33,-154.37 955.82,-148.05 958.53,-158.29 964.33,-154.37"/>
</g>
<!-- Node11 -->
<g id="node11" class="node">
<title>Node11</title>
<g id="a_node11"><a xlink:href="hard_8h.html" target="_top" xlink:title="Functions and data structures for handling of secondary structure hard constraints.">
<polygon fill="none" stroke="black" points="0,-123.5 0,-153.5 119,-153.5 119,-123.5 0,-123.5"/>
<text text-anchor="start" x="8" y="-141.5" font-family="Helvetica,sans-Serif" font-size="10.00">ViennaRNA/constraints</text>
<text text-anchor="middle" x="59.5" y="-130.5" font-family="Helvetica,sans-Serif" font-size="10.00">/hard.h</text>
</a>
</g>
</g>
<!-- Node3&#45;&gt;Node11 -->
<g id="edge38" class="edge">
<title>Node3&#45;&gt;Node11</title>
<path fill="none" stroke="midnightblue" d="M984.43,-254.56C907.42,-247.07 777.53,-232.4 667.5,-210 634.96,-203.37 628.21,-195.75 595.5,-190 393.24,-154.48 335.76,-182.9 129.08,-154.1"/>
<polygon fill="midnightblue" stroke="midnightblue" points="129.52,-150.63 119.12,-152.68 128.53,-157.56 129.52,-150.63"/>
</g>
<!-- Node13 -->
<g id="node13" class="node">
<title>Node13</title>
<g id="a_node13"><a xlink:href="soft_8h.html" target="_top" xlink:title="Functions and data structures for secondary structure soft constraints.">
<polygon fill="none" stroke="black" points="137,-123.5 137,-153.5 256,-153.5 256,-123.5 137,-123.5"/>
<text text-anchor="start" x="145" y="-141.5" font-family="Helvetica,sans-Serif" font-size="10.00">ViennaRNA/constraints</text>
<text text-anchor="middle" x="196.5" y="-130.5" font-family="Helvetica,sans-Serif" font-size="10.00">/soft.h</text>
</a>
</g>
</g>
<!-- Node3&#45;&gt;Node13 -->
<g id="edge39" class="edge">
<title>Node3&#45;&gt;Node13</title>
<path fill="none" stroke="midnightblue" d="M984.29,-253.84C917.38,-246.06 812.34,-231.45 723.5,-210 695.77,-203.3 690.45,-195.74 662.5,-190 488.35,-154.22 437.55,-179.69 263.58,-155.01"/>
<polygon fill="midnightblue" stroke="midnightblue" points="263.97,-151.53 253.58,-153.55 262.97,-158.46 263.97,-151.53"/>
</g>
<!-- Node14 -->
<g id="node14" class="node">
<title>Node14</title>
<g id="a_node14"><a xlink:href="grammar_8h.html" target="_top" xlink:title="Implementations for the RNA folding grammar.">
<polygon fill="none" stroke="black" points="618,-129 618,-148 735,-148 735,-129 618,-129"/>
<text text-anchor="middle" x="676.5" y="-136" font-family="Helvetica,sans-Serif" font-size="10.00">ViennaRNA/grammar.h</text>
</a>
</g>
</g>
<!-- Node3&#45;&gt;Node14 -->
<g id="edge40" class="edge">
<title>Node3&#45;&gt;Node14</title>
<path fill="none" stroke="midnightblue" d="M1013.46,-246.48C989.05,-237.06 956.91,-223.87 929.5,-210 914.2,-202.25 912.39,-196.44 896.5,-190 888.52,-186.77 787.85,-164.18 725.48,-150.33"/>
<polygon fill="midnightblue" stroke="midnightblue" points="725.97,-146.85 715.45,-148.1 724.45,-153.69 725.97,-146.85"/>
</g>
<!-- Node15 -->
<g id="node15" class="node">
<title>Node15</title>
<g id="a_node15"><a xlink:href="structured__domains_8h.html" target="_top" xlink:title="This module provides interfaces that deal with additional structured domains in the folding grammar.">
<polygon fill="none" stroke="black" points="753,-123.5 753,-153.5 868,-153.5 868,-123.5 753,-123.5"/>
<text text-anchor="start" x="761" y="-141.5" font-family="Helvetica,sans-Serif" font-size="10.00">ViennaRNA/structured</text>
<text text-anchor="middle" x="810.5" y="-130.5" font-family="Helvetica,sans-Serif" font-size="10.00">_domains.h</text>
</a>
</g>
</g>
<!-- Node3&#45;&gt;Node15 -->
<g id="edge41" class="edge">
<title>Node3&#45;&gt;Node15</title>
<path fill="none" stroke="midnightblue" d="M1029.02,-246.39C1004.89,-231.51 965.18,-207.8 929.5,-190 905.69,-178.12 878.41,-166.42 855.98,-157.27"/>
<polygon fill="midnightblue" stroke="midnightblue" points="857.27,-154.02 846.69,-153.51 854.65,-160.5 857.27,-154.02"/>
</g>
<!-- Node16 -->
<g id="node16" class="node">
<title>Node16</title>
<g id="a_node16"><a xlink:href="unstructured__domains_8h.html" target="_top" xlink:title="Functions to modify unstructured domains, e.g. to incorporate ligands binding to unpaired stretches.">
<polygon fill="none" stroke="black" points="1076,-123.5 1076,-153.5 1201,-153.5 1201,-123.5 1076,-123.5"/>
<text text-anchor="start" x="1084" y="-141.5" font-family="Helvetica,sans-Serif" font-size="10.00">ViennaRNA/unstructured</text>
<text text-anchor="middle" x="1138.5" y="-130.5" font-family="Helvetica,sans-Serif" font-size="10.00">_domains.h</text>
</a>
</g>
</g>
<!-- Node3&#45;&gt;Node16 -->
<g id="edge42" class="edge">
<title>Node3&#45;&gt;Node16</title>
<path fill="none" stroke="midnightblue" d="M1057.27,-246.14C1069.68,-225.22 1097.49,-186.17 1117.27,-161.58"/>
<polygon fill="midnightblue" stroke="midnightblue" points="1119.99,-163.78 1123.64,-153.84 1114.58,-159.34 1119.99,-163.78"/>
</g>
<!-- Node17 -->
<g id="node17" class="node">
<title>Node17</title>
<g id="a_node17"><a xlink:href="utils_2structures_8h.html" target="_top" xlink:title="Various utility&#45; and helper&#45;functions for secondary structure parsing, converting,...">
<polygon fill="none" stroke="black" points="1166.5,-62 1166.5,-81 1310.5,-81 1310.5,-62 1166.5,-62"/>
<text text-anchor="middle" x="1238.5" y="-69" font-family="Helvetica,sans-Serif" font-size="10.00">ViennaRNA/utils/structures.h</text>
</a>
</g>
</g>
<!-- Node3&#45;&gt;Node17 -->
<g id="edge43" class="edge">
<title>Node3&#45;&gt;Node17</title>
<path fill="none" stroke="midnightblue" d="M1077.62,-246.47C1111,-229.52 1167.87,-197.71 1201.5,-154 1215.93,-135.24 1223.22,-108.55 1228.8,-90.89"/>
<polygon fill="midnightblue" stroke="midnightblue" points="1232.19,-91.81 1232.11,-81.21 1225.56,-89.55 1232.19,-91.81"/>
</g>
<!-- Node5 -->
<g id="node5" class="node">
<title>Node5</title>
<g id="a_node5"><a xlink:title=" ">
<polygon fill="none" stroke="#bfbfbf" points="1386.5,-0.5 1386.5,-19.5 1434.5,-19.5 1434.5,-0.5 1386.5,-0.5"/>
<text text-anchor="middle" x="1410.5" y="-7.5" font-family="Helvetica,sans-Serif" font-size="10.00">limits.h</text>
</a>
</g>
</g>
<!-- Node4&#45;&gt;Node5 -->
<g id="edge4" class="edge">
<title>Node4&#45;&gt;Node5</title>
<path fill="none" stroke="midnightblue" d="M1410.5,-61.98C1410.5,-53.58 1410.5,-40.48 1410.5,-29.66"/>
<polygon fill="midnightblue" stroke="midnightblue" points="1414,-29.51 1410.5,-19.51 1407,-29.51 1414,-29.51"/>
</g>
<!-- Node6&#45;&gt;Node7 -->
<g id="edge6" class="edge">
<title>Node6&#45;&gt;Node7</title>
<path fill="none" stroke="midnightblue" d="M742.6,-190.47C645.99,-178.85 485.78,-158.9 481.5,-154 472.43,-143.63 472.2,-133.17 481.5,-123 514.87,-86.52 843.1,-76.2 983.9,-73.45"/>
<polygon fill="midnightblue" stroke="midnightblue" points="984.18,-76.94 994.11,-73.25 984.04,-69.94 984.18,-76.94"/>
</g>
<!-- Node6&#45;&gt;Node8 -->
<g id="edge7" class="edge">
<title>Node6&#45;&gt;Node8</title>
<path fill="none" stroke="midnightblue" d="M885.54,-190.48C984.3,-179.11 1162.39,-159.12 1265.32,-147.84"/>
<polygon fill="midnightblue" stroke="midnightblue" points="1265.78,-151.31 1275.34,-146.75 1265.02,-144.36 1265.78,-151.31"/>
</g>
<!-- Node9 -->
<g id="node9" class="node">
<title>Node9</title>
<g id="a_node9"><a xlink:href="sequence_8h.html" target="_top" xlink:title="Functions and data structures related to sequence representations ,.">
<polygon fill="none" stroke="black" points="274.5,-129 274.5,-148 396.5,-148 396.5,-129 274.5,-129"/>
<text text-anchor="middle" x="335.5" y="-136" font-family="Helvetica,sans-Serif" font-size="10.00">ViennaRNA/sequence.h</text>
</a>
</g>
</g>
<!-- Node6&#45;&gt;Node9 -->
<g id="edge12" class="edge">
<title>Node6&#45;&gt;Node9</title>
<path fill="none" stroke="midnightblue" d="M741.24,-191.76C631.44,-180.34 433.86,-158.92 401.5,-154 393.84,-152.84 385.77,-151.45 377.99,-150"/>
<polygon fill="midnightblue" stroke="midnightblue" points="378.46,-146.52 367.98,-148.07 377.14,-153.4 378.46,-146.52"/>
</g>
<!-- Node6&#45;&gt;Node10 -->
<g id="edge14" class="edge">
<title>Node6&#45;&gt;Node10</title>
<path fill="none" stroke="midnightblue" d="M829.37,-190.48C850.63,-180.36 889.72,-163.4 918.26,-151.85"/>
<polygon fill="midnightblue" stroke="midnightblue" points="919.88,-154.97 927.87,-148.01 917.28,-148.47 919.88,-154.97"/>
</g>
<!-- Node6&#45;&gt;Node11 -->
<g id="edge17" class="edge">
<title>Node6&#45;&gt;Node11</title>
<path fill="none" stroke="midnightblue" d="M741.26,-195.07C582.03,-186.12 212.18,-164.31 125.21,-154.74"/>
<polygon fill="midnightblue" stroke="midnightblue" points="125.6,-151.26 115.25,-153.53 124.75,-158.21 125.6,-151.26"/>
</g>
<!-- Node6&#45;&gt;Node13 -->
<g id="edge21" class="edge">
<title>Node6&#45;&gt;Node13</title>
<path fill="none" stroke="midnightblue" d="M741.44,-192.18C733.67,-191.42 725.91,-190.67 718.5,-190 516.79,-171.71 462.17,-182.85 263.4,-154.96"/>
<polygon fill="midnightblue" stroke="midnightblue" points="263.6,-151.45 253.2,-153.51 262.61,-158.38 263.6,-151.45"/>
</g>
<!-- Node6&#45;&gt;Node14 -->
<g id="edge25" class="edge">
<title>Node6&#45;&gt;Node14</title>
<path fill="none" stroke="midnightblue" d="M789.83,-190.48C764.49,-180.49 725.64,-163.85 700.54,-152.31"/>
<polygon fill="midnightblue" stroke="midnightblue" points="701.88,-149.07 691.34,-148.01 698.92,-155.41 701.88,-149.07"/>
</g>
<!-- Node6&#45;&gt;Node15 -->
<g id="edge27" class="edge">
<title>Node6&#45;&gt;Node15</title>
<path fill="none" stroke="midnightblue" d="M813.93,-190.48C813.46,-183.47 812.77,-173.19 812.13,-163.7"/>
<polygon fill="midnightblue" stroke="midnightblue" points="815.61,-163.27 811.44,-153.52 808.62,-163.74 815.61,-163.27"/>
</g>
<!-- Node6&#45;&gt;Node16 -->
<g id="edge28" class="edge">
<title>Node6&#45;&gt;Node16</title>
<path fill="none" stroke="midnightblue" d="M856.02,-190.48C908.95,-180.35 1001.15,-163.38 1065.81,-151.82"/>
<polygon fill="midnightblue" stroke="midnightblue" points="1066.71,-155.22 1075.95,-150.02 1065.49,-148.32 1066.71,-155.22"/>
</g>
<!-- Node19 -->
<g id="node19" class="node">
<title>Node19</title>
<g id="a_node19"><a xlink:href="zscore_8h_source.html" target="_top" xlink:title=" ">
<polygon fill="none" stroke="black" points="491,-129 491,-148 600,-148 600,-129 491,-129"/>
<text text-anchor="middle" x="545.5" y="-136" font-family="Helvetica,sans-Serif" font-size="10.00">ViennaRNA/zscore.h</text>
</a>
</g>
</g>
<!-- Node6&#45;&gt;Node19 -->
<g id="edge34" class="edge">
<title>Node6&#45;&gt;Node19</title>
<path fill="none" stroke="midnightblue" d="M774.59,-190.42C733.07,-181.46 666.19,-166.94 608.5,-154 603.16,-152.8 597.57,-151.54 592.02,-150.27"/>
<polygon fill="midnightblue" stroke="midnightblue" points="592.66,-146.82 582.13,-148 591.1,-153.65 592.66,-146.82"/>
</g>
<!-- Node8&#45;&gt;Node3 -->
<g id="edge9" class="edge">
<title>Node8&#45;&gt;Node3</title>
<path fill="none" stroke="midnightblue" d="M1327.38,-148.09C1283.44,-167.73 1166.41,-216.23 1099.68,-242.65"/>
<polygon fill="midnightblue" stroke="midnightblue" points="1098.23,-239.46 1090.21,-246.38 1100.8,-245.97 1098.23,-239.46"/>
</g>
<!-- Node8&#45;&gt;Node4 -->
<g id="edge8" class="edge">
<title>Node8&#45;&gt;Node4</title>
<path fill="none" stroke="midnightblue" d="M1353.4,-128.73C1363.89,-118.4 1381.52,-101.04 1394.42,-88.33"/>
<polygon fill="midnightblue" stroke="midnightblue" points="1397.07,-90.64 1401.74,-81.13 1392.16,-85.65 1397.07,-90.64"/>
</g>
<!-- Node8&#45;&gt;Node6 -->
<g id="edge10" class="edge">
<title>Node8&#45;&gt;Node6</title>
<path fill="none" stroke="midnightblue" d="M1275.11,-147.84C1177.99,-159.02 1001.93,-178.79 897.84,-190.2"/>
<polygon fill="midnightblue" stroke="midnightblue" points="897.24,-186.75 887.68,-191.31 898.01,-193.7 897.24,-186.75"/>
</g>
<!-- Node8&#45;&gt;Node7 -->
<g id="edge11" class="edge">
<title>Node8&#45;&gt;Node7</title>
<path fill="none" stroke="midnightblue" d="M1305.37,-128.94C1251.72,-117.2 1155.36,-96.11 1096.83,-83.3"/>
<polygon fill="midnightblue" stroke="midnightblue" points="1097.24,-79.8 1086.72,-81.08 1095.74,-86.64 1097.24,-79.8"/>
</g>
<!-- Node9&#45;&gt;Node6 -->
<g id="edge13" class="edge">
<title>Node9&#45;&gt;Node6</title>
<path fill="none" stroke="midnightblue" d="M385.34,-148.07C396.63,-150.19 408.49,-152.32 419.5,-154 449.75,-158.6 624.38,-177.62 731.12,-189.41"/>
<polygon fill="midnightblue" stroke="midnightblue" points="730.91,-192.9 741.24,-190.52 731.68,-185.95 730.91,-192.9"/>
</g>
<!-- Node10&#45;&gt;Node3 -->
<g id="edge15" class="edge">
<title>Node10&#45;&gt;Node3</title>
<path fill="none" stroke="midnightblue" d="M963.17,-148.05C981.73,-166.56 1018.53,-210.84 1038.47,-237.99"/>
<polygon fill="midnightblue" stroke="midnightblue" points="1035.64,-240.05 1044.31,-246.14 1041.34,-235.98 1035.64,-240.05"/>
</g>
<!-- Node10&#45;&gt;Node6 -->
<g id="edge16" class="edge">
<title>Node10&#45;&gt;Node6</title>
<path fill="none" stroke="midnightblue" d="M937.66,-148.01C916.42,-158.12 877.34,-175.07 848.79,-186.63"/>
<polygon fill="midnightblue" stroke="midnightblue" points="847.16,-183.51 839.17,-190.48 849.76,-190.01 847.16,-183.51"/>
</g>
<!-- Node11&#45;&gt;Node6 -->
<g id="edge18" class="edge">
<title>Node11&#45;&gt;Node6</title>
<path fill="none" stroke="midnightblue" d="M119.17,-151.16C125.03,-152.24 130.88,-153.22 136.5,-154 194.26,-162.01 563.14,-183.95 731.28,-193.94"/>
<polygon fill="midnightblue" stroke="midnightblue" points="731.14,-197.43 741.33,-194.53 731.56,-190.45 731.14,-197.43"/>
</g>
<!-- Node12 -->
<g id="node12" class="node">
<title>Node12</title>
<g id="a_node12"><a xlink:href="constraints_2basic_8h.html" target="_top" xlink:title="Functions and data structures for constraining secondary structure predictions and evaluation.">
<polygon fill="none" stroke="black" points="137,-56.5 137,-86.5 256,-86.5 256,-56.5 137,-56.5"/>
<text text-anchor="start" x="145" y="-74.5" font-family="Helvetica,sans-Serif" font-size="10.00">ViennaRNA/constraints</text>
<text text-anchor="middle" x="196.5" y="-63.5" font-family="Helvetica,sans-Serif" font-size="10.00">/basic.h</text>
</a>
</g>
</g>
<!-- Node11&#45;&gt;Node12 -->
<g id="edge19" class="edge">
<title>Node11&#45;&gt;Node12</title>
<path fill="none" stroke="midnightblue" d="M89.23,-123.4C109.24,-113.9 135.85,-101.28 157.55,-90.98"/>
<polygon fill="midnightblue" stroke="midnightblue" points="159.3,-94.03 166.83,-86.58 156.3,-87.7 159.3,-94.03"/>
</g>
<!-- Node12&#45;&gt;Node6 -->
<g id="edge20" class="edge">
<title>Node12&#45;&gt;Node6</title>
<path fill="none" stroke="midnightblue" d="M256.43,-83.63C298.73,-92.28 356.37,-105.73 405.5,-123 436.07,-133.75 440.4,-144.9 471.5,-154 495.87,-161.13 637.68,-178.48 731.17,-189.43"/>
<polygon fill="midnightblue" stroke="midnightblue" points="730.85,-192.91 741.19,-190.6 731.66,-185.96 730.85,-192.91"/>
</g>
<!-- Node13&#45;&gt;Node3 -->
<g id="edge22" class="edge">
<title>Node13&#45;&gt;Node3</title>
<path fill="none" stroke="midnightblue" d="M256.18,-150.88C262.38,-152.04 268.57,-153.12 274.5,-154 453.68,-180.67 503.05,-153.54 680.5,-190 708.45,-195.74 713.77,-203.3 741.5,-210 819.98,-228.95 911.09,-242.56 974.2,-250.84"/>
<polygon fill="midnightblue" stroke="midnightblue" points="974.1,-254.36 984.47,-252.17 975,-247.41 974.1,-254.36"/>
</g>
<!-- Node13&#45;&gt;Node6 -->
<g id="edge23" class="edge">
<title>Node13&#45;&gt;Node6</title>
<path fill="none" stroke="midnightblue" d="M256.18,-150.94C262.37,-152.09 268.56,-153.15 274.5,-154 475.08,-182.77 529.64,-171.77 731.5,-189.57"/>
<polygon fill="midnightblue" stroke="midnightblue" points="731.27,-193.06 741.54,-190.46 731.89,-186.09 731.27,-193.06"/>
</g>
<!-- Node13&#45;&gt;Node12 -->
<g id="edge24" class="edge">
<title>Node13&#45;&gt;Node12</title>
<path fill="none" stroke="midnightblue" d="M196.5,-123.4C196.5,-115.64 196.5,-105.81 196.5,-96.86"/>
<polygon fill="midnightblue" stroke="midnightblue" points="200,-96.58 196.5,-86.58 193,-96.58 200,-96.58"/>
</g>
<!-- Node14&#45;&gt;Node6 -->
<g id="edge26" class="edge">
<title>Node14&#45;&gt;Node6</title>
<path fill="none" stroke="midnightblue" d="M701.13,-148.01C726.46,-157.99 765.31,-174.63 790.42,-186.17"/>
<polygon fill="midnightblue" stroke="midnightblue" points="789.09,-189.41 799.63,-190.48 792.05,-183.07 789.09,-189.41"/>
</g>
<!-- Node16&#45;&gt;Node3 -->
<g id="edge29" class="edge">
<title>Node16&#45;&gt;Node3</title>
<path fill="none" stroke="midnightblue" d="M1132.74,-153.84C1120.34,-174.75 1092.53,-213.8 1072.75,-238.4"/>
<polygon fill="midnightblue" stroke="midnightblue" points="1070.03,-236.2 1066.38,-246.14 1075.43,-240.64 1070.03,-236.2"/>
</g>
<!-- Node16&#45;&gt;Node6 -->
<g id="edge30" class="edge">
<title>Node16&#45;&gt;Node6</title>
<path fill="none" stroke="midnightblue" d="M1075.75,-152.06C1018.03,-162.95 933.08,-178.53 875.82,-188.7"/>
<polygon fill="midnightblue" stroke="midnightblue" points="875.06,-185.28 865.82,-190.48 876.28,-192.18 875.06,-185.28"/>
</g>
<!-- Node16&#45;&gt;Node17 -->
<g id="edge31" class="edge">
<title>Node16&#45;&gt;Node17</title>
<path fill="none" stroke="midnightblue" d="M1160.2,-123.4C1176.97,-112.5 1200.07,-97.48 1216.83,-86.58"/>
<polygon fill="midnightblue" stroke="midnightblue" points="1218.94,-89.39 1225.41,-81.01 1215.12,-83.52 1218.94,-89.39"/>
</g>
<!-- Node17&#45;&gt;Node3 -->
<g id="edge33" class="edge">
<title>Node17&#45;&gt;Node3</title>
<path fill="none" stroke="midnightblue" d="M1242.63,-81.21C1243.93,-97.13 1236.92,-131.35 1219.5,-154 1188.5,-194.3 1137.74,-224.47 1100.01,-242.23"/>
<polygon fill="midnightblue" stroke="midnightblue" points="1098.36,-239.14 1090.71,-246.47 1101.26,-245.5 1098.36,-239.14"/>
</g>
<!-- Node18 -->
<g id="node18" class="node">
<title>Node18</title>
<g id="a_node18"><a xlink:title=" ">
<polygon fill="none" stroke="#bfbfbf" points="1269.5,-0.5 1269.5,-19.5 1315.5,-19.5 1315.5,-0.5 1269.5,-0.5"/>
<text text-anchor="middle" x="1292.5" y="-7.5" font-family="Helvetica,sans-Serif" font-size="10.00">stdio.h</text>
</a>
</g>
</g>
<!-- Node17&#45;&gt;Node18 -->
<g id="edge32" class="edge">
<title>Node17&#45;&gt;Node18</title>
<path fill="none" stroke="midnightblue" d="M1246.24,-61.98C1254.5,-52.87 1267.78,-38.24 1277.99,-26.98"/>
<polygon fill="midnightblue" stroke="midnightblue" points="1280.65,-29.27 1284.78,-19.51 1275.47,-24.56 1280.65,-29.27"/>
</g>
<!-- Node20&#45;&gt;Node3 -->
<g id="edge53" class="edge">
<title>Node20&#45;&gt;Node3</title>
<path fill="none" stroke="midnightblue" d="M954.13,-369.14C955.48,-355.75 959.67,-330.12 972.5,-313 982.19,-300.07 996.24,-289.58 1009.82,-281.57"/>
<polygon fill="midnightblue" stroke="midnightblue" points="1011.58,-284.59 1018.62,-276.67 1008.18,-278.48 1011.58,-284.59"/>
</g>
<!-- Node20&#45;&gt;Node6 -->
<g id="edge54" class="edge">
<title>Node20&#45;&gt;Node6</title>
<path fill="none" stroke="midnightblue" d="M908.88,-369.45C886.81,-363.01 861.53,-351.9 845.5,-333 817.92,-300.48 813.85,-247.9 813.83,-219.92"/>
<polygon fill="midnightblue" stroke="midnightblue" points="817.33,-219.63 814.01,-209.57 810.33,-219.51 817.33,-219.63"/>
</g>
<!-- Node20&#45;&gt;Node8 -->
<g id="edge55" class="edge">
<title>Node20&#45;&gt;Node8</title>
<path fill="none" stroke="midnightblue" d="M1017.25,-369.5C1052.21,-362.98 1095.43,-351.8 1130.5,-333 1219.19,-285.46 1300.47,-193.37 1331.35,-155.93"/>
<polygon fill="midnightblue" stroke="midnightblue" points="1334.18,-157.99 1337.78,-148.03 1328.75,-153.57 1334.18,-157.99"/>
</g>
<!-- Node21 -->
<g id="node21" class="node">
<title>Node21</title>
<g id="a_node21"><a xlink:title=" ">
<polygon fill="none" stroke="#bfbfbf" points="506,-313.5 506,-332.5 553,-332.5 553,-313.5 506,-313.5"/>
<text text-anchor="middle" x="529.5" y="-320.5" font-family="Helvetica,sans-Serif" font-size="10.00">math.h</text>
</a>
</g>
</g>
<!-- Node20&#45;&gt;Node21 -->
<g id="edge47" class="edge">
<title>Node20&#45;&gt;Node21</title>
<path fill="none" stroke="midnightblue" d="M886.21,-372.55C808.92,-365.74 678.46,-352.54 567.5,-333 566.04,-332.74 564.55,-332.46 563.05,-332.17"/>
<polygon fill="midnightblue" stroke="midnightblue" points="563.64,-328.72 553.13,-330.05 562.17,-335.56 563.64,-328.72"/>
</g>
<!-- Node22 -->
<g id="node22" class="node">
<title>Node22</title>
<g id="a_node22"><a xlink:title=" ">
<polygon fill="none" stroke="#bfbfbf" points="439,-313.5 439,-332.5 488,-332.5 488,-313.5 439,-313.5"/>
<text text-anchor="middle" x="463.5" y="-320.5" font-family="Helvetica,sans-Serif" font-size="10.00">string.h</text>
</a>
</g>
</g>
<!-- Node20&#45;&gt;Node22 -->
<g id="edge48" class="edge">
<title>Node20&#45;&gt;Node22</title>
<path fill="none" stroke="midnightblue" d="M886.41,-374.93C798.98,-370.14 641.32,-358.83 498.52,-333.11"/>
<polygon fill="midnightblue" stroke="midnightblue" points="498.73,-329.59 488.26,-331.23 497.47,-336.48 498.73,-329.59"/>
</g>
<!-- Node23 -->
<g id="node23" class="node">
<title>Node23</title>
<g id="a_node23"><a xlink:href="utils_2basic_8h.html" target="_top" xlink:title="General utility&#45; and helper&#45;functions used throughout the ViennaRNA Package.">
<polygon fill="none" stroke="black" points="1215.5,-313.5 1215.5,-332.5 1339.5,-332.5 1339.5,-313.5 1215.5,-313.5"/>
<text text-anchor="middle" x="1277.5" y="-320.5" font-family="Helvetica,sans-Serif" font-size="10.00">ViennaRNA/utils/basic.h</text>
</a>
</g>
</g>
<!-- Node20&#45;&gt;Node23 -->
<g id="edge49" class="edge">
<title>Node20&#45;&gt;Node23</title>
<path fill="none" stroke="midnightblue" d="M1004.84,-369.44C1062.31,-359.87 1155.37,-344.36 1216.5,-334.17"/>
<polygon fill="midnightblue" stroke="midnightblue" points="1217.11,-337.61 1226.4,-332.52 1215.96,-330.71 1217.11,-337.61"/>
</g>
<!-- Node23&#45;&gt;Node3 -->
<g id="edge52" class="edge">
<title>Node23&#45;&gt;Node3</title>
<path fill="none" stroke="midnightblue" d="M1245.12,-313.48C1211.15,-304.53 1156.9,-290.25 1114.45,-279.07"/>
<polygon fill="midnightblue" stroke="midnightblue" points="1115.33,-275.68 1104.76,-276.52 1113.54,-282.45 1115.33,-275.68"/>
</g>
<!-- Node23&#45;&gt;Node18 -->
<g id="edge50" class="edge">
<title>Node23&#45;&gt;Node18</title>
<path fill="none" stroke="midnightblue" d="M1339.62,-317.19C1410.73,-307.9 1517.5,-280.68 1517.5,-201 1517.5,-201 1517.5,-201 1517.5,-137.5 1517.5,-100.31 1524.98,-82.12 1498.5,-56 1474.42,-32.25 1377.79,-19.34 1325.88,-14"/>
<polygon fill="midnightblue" stroke="midnightblue" points="1326.12,-10.5 1315.82,-13 1325.43,-17.47 1326.12,-10.5"/>
</g>
<!-- Node24 -->
<g id="node24" class="node">
<title>Node24</title>
<g id="a_node24"><a xlink:title=" ">
<polygon fill="none" stroke="#bfbfbf" points="1287.5,-252 1287.5,-271 1339.5,-271 1339.5,-252 1287.5,-252"/>
<text text-anchor="middle" x="1313.5" y="-259" font-family="Helvetica,sans-Serif" font-size="10.00">stdarg.h</text>
</a>
</g>
</g>
<!-- Node23&#45;&gt;Node24 -->
<g id="edge51" class="edge">
<title>Node23&#45;&gt;Node24</title>
<path fill="none" stroke="midnightblue" d="M1282.66,-313.48C1287.95,-304.73 1296.34,-290.87 1303.03,-279.81"/>
<polygon fill="midnightblue" stroke="midnightblue" points="1306.17,-281.38 1308.35,-271.01 1300.18,-277.75 1306.17,-281.38"/>
</g>
<!-- Node25&#45;&gt;Node3 -->
<g id="edge60" class="edge">
<title>Node25&#45;&gt;Node3</title>
<path fill="none" stroke="midnightblue" d="M1148.03,-369.14C1146.92,-355.76 1143.16,-330.14 1130.5,-313 1120.9,-300 1106.87,-289.49 1093.29,-281.49"/>
<polygon fill="midnightblue" stroke="midnightblue" points="1094.92,-278.4 1084.48,-276.6 1091.52,-284.52 1094.92,-278.4"/>
</g>
<!-- Node25&#45;&gt;Node6 -->
<g id="edge61" class="edge">
<title>Node25&#45;&gt;Node6</title>
<path fill="none" stroke="midnightblue" d="M1079.98,-372.15C1015.59,-365.54 924.85,-353.01 895.5,-333 874.15,-318.45 839.2,-251.34 823.11,-218.8"/>
<polygon fill="midnightblue" stroke="midnightblue" points="826.12,-217 818.59,-209.56 819.84,-220.08 826.12,-217"/>
</g>
<!-- Node25&#45;&gt;Node8 -->
<g id="edge62" class="edge">
<title>Node25&#45;&gt;Node8</title>
<path fill="none" stroke="midnightblue" d="M1202.11,-369.46C1258.16,-359.98 1339.29,-344.52 1348.5,-333 1389.77,-281.42 1365.29,-194.95 1351.71,-157.59"/>
<polygon fill="midnightblue" stroke="midnightblue" points="1354.91,-156.15 1348.08,-148.05 1348.37,-158.64 1354.91,-156.15"/>
</g>
<!-- Node25&#45;&gt;Node11 -->
<g id="edge63" class="edge">
<title>Node25&#45;&gt;Node11</title>
<path fill="none" stroke="midnightblue" d="M1079.97,-370.87C1013.36,-363.41 909.49,-350.36 820.5,-333 554.75,-281.15 243.27,-193.28 117,-156.49"/>
<polygon fill="midnightblue" stroke="midnightblue" points="117.73,-153.06 107.15,-153.62 115.77,-159.78 117.73,-153.06"/>
</g>
<!-- Node25&#45;&gt;Node13 -->
<g id="edge64" class="edge">
<title>Node25&#45;&gt;Node13</title>
<path fill="none" stroke="midnightblue" d="M1079.81,-372.68C1023.53,-366.91 942.38,-355.36 874.5,-333 742.16,-289.41 728.97,-230 595.5,-190 457.35,-148.6 413.18,-175.91 266.54,-154.02"/>
<polygon fill="midnightblue" stroke="midnightblue" points="266.69,-150.51 256.27,-152.44 265.62,-157.42 266.69,-150.51"/>
</g>
<!-- Node25&#45;&gt;Node23 -->
<g id="edge57" class="edge">
<title>Node25&#45;&gt;Node23</title>
<path fill="none" stroke="midnightblue" d="M1168.94,-369.44C1190.17,-360.56 1223.6,-346.56 1247.75,-336.45"/>
<polygon fill="midnightblue" stroke="midnightblue" points="1249.28,-339.61 1257.16,-332.52 1246.58,-333.15 1249.28,-339.61"/>
</g>
<!-- Node26 -->
<g id="node26" class="node">
<title>Node26</title>
<g id="a_node26"><a xlink:href="default_8h_source.html" target="_top" xlink:title=" ">
<polygon fill="none" stroke="black" points="1545.5,-190.5 1545.5,-209.5 1689.5,-209.5 1689.5,-190.5 1545.5,-190.5"/>
<text text-anchor="middle" x="1617.5" y="-197.5" font-family="Helvetica,sans-Serif" font-size="10.00">ViennaRNA/params/default.h</text>
</a>
</g>
</g>
<!-- Node25&#45;&gt;Node26 -->
<g id="edge58" class="edge">
<title>Node25&#45;&gt;Node26</title>
<path fill="none" stroke="midnightblue" d="M1207.06,-369.46C1254.56,-361.88 1323,-349.45 1381.5,-333 1450.01,-313.74 1470.48,-313.62 1531.5,-277 1559.4,-260.26 1586.69,-233.96 1602.81,-217.1"/>
<polygon fill="midnightblue" stroke="midnightblue" points="1605.49,-219.36 1609.77,-209.67 1600.38,-214.57 1605.49,-219.36"/>
</g>
<!-- Node26&#45;&gt;Node4 -->
<g id="edge59" class="edge">
<title>Node26&#45;&gt;Node4</title>
<path fill="none" stroke="midnightblue" d="M1603.27,-190.31C1567.96,-168.72 1476.05,-112.56 1433.16,-86.35"/>
<polygon fill="midnightblue" stroke="midnightblue" points="1434.91,-83.32 1424.55,-81.09 1431.26,-89.29 1434.91,-83.32"/>
</g>
<!-- Node27&#45;&gt;Node3 -->
<g id="edge67" class="edge">
<title>Node27&#45;&gt;Node3</title>
<path fill="none" stroke="midnightblue" d="M1324.35,-369.31C1339.51,-356.16 1363.55,-330.82 1348.5,-313 1320.93,-280.35 1207.54,-268.8 1129.13,-264.73"/>
<polygon fill="midnightblue" stroke="midnightblue" points="1128.95,-261.21 1118.79,-264.22 1128.6,-268.2 1128.95,-261.21"/>
</g>
<!-- Node27&#45;&gt;Node6 -->
<g id="edge68" class="edge">
<title>Node27&#45;&gt;Node6</title>
<path fill="none" stroke="midnightblue" d="M1240.8,-369.45C1144.32,-357.95 984.65,-338.33 972.5,-333 940.37,-318.9 864.57,-248.77 831,-216.86"/>
<polygon fill="midnightblue" stroke="midnightblue" points="833.07,-214 823.43,-209.63 828.24,-219.06 833.07,-214"/>
</g>
<!-- Node27&#45;&gt;Node8 -->
<g id="edge69" class="edge">
<title>Node27&#45;&gt;Node8</title>
<path fill="none" stroke="midnightblue" d="M1327.11,-369.23C1338.64,-361.13 1354.8,-348.1 1364.5,-333 1378.56,-311.12 1377.68,-302.73 1381.5,-277 1387.18,-238.75 1393.52,-226.75 1381.5,-190 1377.31,-177.19 1368.49,-164.94 1360.52,-155.71"/>
<polygon fill="midnightblue" stroke="midnightblue" points="1362.93,-153.16 1353.59,-148.16 1357.77,-157.89 1362.93,-153.16"/>
</g>
<!-- Node27&#45;&gt;Node23 -->
<g id="edge66" class="edge">
<title>Node27&#45;&gt;Node23</title>
<path fill="none" stroke="midnightblue" d="M1307.56,-369.08C1302.52,-361.53 1295.16,-350.49 1288.99,-341.23"/>
<polygon fill="midnightblue" stroke="midnightblue" points="1291.79,-339.13 1283.33,-332.75 1285.97,-343.01 1291.79,-339.13"/>
</g>
</g>
</svg>
