<?xml version="1.0" encoding="UTF-8" standalone="no"?>
<!DOCTYPE svg PUBLIC "-//W3C//DTD SVG 1.1//EN"
 "http://www.w3.org/Graphics/SVG/1.1/DTD/svg11.dtd">
<!-- Generated by graphviz version 2.47.0 (0)
 -->
<!-- Title: ViennaRNA/alphabet.h Pages: 1 -->
<!--zoomable 397 -->
<svg id="main" version="1.1" xmlns="http://www.w3.org/2000/svg" xmlns:xlink="http://www.w3.org/1999/xlink" xml:space="preserve" onload="init(evt)">
<style type="text/css"><![CDATA[
.edge:hover path { stroke: red; }
.edge:hover polygon { stroke: red; fill: red; }
]]></style>
<script type="text/javascript"><![CDATA[
var edges = document.getElementsByTagName('g');
if (edges && edges.length) {
  for (var i=0;i<edges.length;i++) {
    if (edges[i].id.substr(0,4)=='edge') {
      edges[i].setAttribute('class','edge');
    }
  }
}
]]></script>
        <defs>
                <circle id="rim" cx="0" cy="0" r="7"/>
                <circle id="rim2" cx="0" cy="0" r="3.5"/>
                <g id="zoomPlus">
                        <use xlink:href="#rim" fill="#404040">
                                <set attributeName="fill" to="#808080" begin="zoomplus.mouseover" end="zoomplus.mouseout"/>
                        </use>
                        <path d="M-4,0h8M0,-4v8" fill="none" stroke="white" stroke-width="1.5" pointer-events="none"/>
                </g>
                <g id="zoomMin">
                        <use xlink:href="#rim" fill="#404040">
                                <set attributeName="fill" to="#808080" begin="zoomminus.mouseover" end="zoomminus.mouseout"/>
                        </use>
                        <path d="M-4,0h8" fill="none" stroke="white" stroke-width="1.5" pointer-events="none"/>
                </g>
                <g id="dirArrow">
                        <path fill="none" stroke="white" stroke-width="1.5" d="M0,-3.0v7 M-2.5,-0.5L0,-3.0L2.5,-0.5"/>
                </g>
               <g id="resetDef">
                       <use xlink:href="#rim2" fill="#404040">
                               <set attributeName="fill" to="#808080" begin="reset.mouseover" end="reset.mouseout"/>
                       </use>
               </g>
        </defs>

<script type="text/javascript">
var viewWidth = 1229;
var viewHeight = 397;
var sectionId = 'dynsection-0';
</script>
<script xlink:href="svgpan.js"/>
<svg id="graph" class="graph">
<g id="viewport">
<title>ViennaRNA/alphabet.h</title>
<!-- Node1 -->
<g id="node1" class="node">
<title>Node1</title>
<g id="a_node1"><a xlink:title="Functions to process, convert, and generally handle different nucleotide and/or base pair alphabets.">
<polygon fill="#bfbfbf" stroke="black" points="298,-369.5 298,-388.5 414,-388.5 414,-369.5 298,-369.5"/>
<text text-anchor="middle" x="356" y="-376.5" font-family="Helvetica,sans-Serif" font-size="10.00">ViennaRNA/alphabet.h</text>
</a>
</g>
</g>
<!-- Node2 -->
<g id="node2" class="node">
<title>Node2</title>
<g id="a_node2"><a xlink:href="fold__compound_8h.html" target="_top" xlink:title="The Basic Fold Compound API.">
<polygon fill="none" stroke="black" points="635,-313.5 635,-332.5 781,-332.5 781,-313.5 635,-313.5"/>
<text text-anchor="middle" x="708" y="-320.5" font-family="Helvetica,sans-Serif" font-size="10.00">ViennaRNA/fold_compound.h</text>
</a>
</g>
</g>
<!-- Node1&#45;&gt;Node2 -->
<g id="edge1" class="edge">
<title>Node1&#45;&gt;Node2</title>
<path fill="none" stroke="midnightblue" d="M411.78,-369.44C474.47,-359.83 576.15,-344.23 642.55,-334.04"/>
<polygon fill="midnightblue" stroke="midnightblue" points="643.13,-337.49 652.49,-332.52 642.07,-330.57 643.13,-337.49"/>
</g>
<!-- Node3 -->
<g id="node3" class="node">
<title>Node3</title>
<g id="a_node3"><a xlink:href="model_8h.html" target="_top" xlink:title="The model details data structure and its corresponding modifiers.">
<polygon fill="none" stroke="black" points="0,-129 0,-148 106,-148 106,-129 0,-129"/>
<text text-anchor="middle" x="53" y="-136" font-family="Helvetica,sans-Serif" font-size="10.00">ViennaRNA/model.h</text>
</a>
</g>
</g>
<!-- Node1&#45;&gt;Node3 -->
<g id="edge43" class="edge">
<title>Node1&#45;&gt;Node3</title>
<path fill="none" stroke="midnightblue" d="M344.31,-369.31C312.8,-345.81 223.52,-278.89 151,-221 122.68,-198.39 90.49,-171.36 70.97,-154.81"/>
<polygon fill="midnightblue" stroke="midnightblue" points="73.08,-152.01 63.19,-148.2 68.54,-157.34 73.08,-152.01"/>
</g>
<!-- Node2&#45;&gt;Node3 -->
<g id="edge2" class="edge">
<title>Node2&#45;&gt;Node3</title>
<path fill="none" stroke="midnightblue" d="M634.73,-317.32C567.94,-311.79 467.02,-300.21 382,-277 264.22,-244.84 132.65,-180.62 78.44,-152.83"/>
<polygon fill="midnightblue" stroke="midnightblue" points="79.73,-149.56 69.24,-148.08 76.52,-155.78 79.73,-149.56"/>
</g>
<!-- Node4 -->
<g id="node4" class="node">
<title>Node4</title>
<g id="a_node4"><a xlink:href="params_2basic_8h.html" target="_top" xlink:title="Functions to deal with sets of energy parameters.">
<polygon fill="none" stroke="black" points="439,-257.5 439,-276.5 577,-276.5 577,-257.5 439,-257.5"/>
<text text-anchor="middle" x="508" y="-264.5" font-family="Helvetica,sans-Serif" font-size="10.00">ViennaRNA/params/basic.h</text>
</a>
</g>
</g>
<!-- Node2&#45;&gt;Node4 -->
<g id="edge3" class="edge">
<title>Node2&#45;&gt;Node4</title>
<path fill="none" stroke="midnightblue" d="M671.22,-313.44C634.96,-304.2 580.1,-289.44 544.09,-279.26"/>
<polygon fill="midnightblue" stroke="midnightblue" points="545.04,-275.89 534.46,-276.52 543.12,-282.62 545.04,-275.89"/>
</g>
<!-- Node8 -->
<g id="node8" class="node">
<title>Node8</title>
<g id="a_node8"><a xlink:href="dp__matrices_8h.html" target="_top" xlink:title="Functions to deal with standard dynamic programming (DP) matrices.">
<polygon fill="none" stroke="black" points="124.5,-129 124.5,-148 257.5,-148 257.5,-129 124.5,-129"/>
<text text-anchor="middle" x="191" y="-136" font-family="Helvetica,sans-Serif" font-size="10.00">ViennaRNA/dp_matrices.h</text>
</a>
</g>
</g>
<!-- Node2&#45;&gt;Node8 -->
<g id="edge36" class="edge">
<title>Node2&#45;&gt;Node8</title>
<path fill="none" stroke="midnightblue" d="M634.9,-318.04C575.63,-313.04 490.91,-301.83 421,-277 334.09,-246.13 242.62,-183.84 206.52,-154.91"/>
<polygon fill="midnightblue" stroke="midnightblue" points="208.5,-152.01 198.57,-148.32 204.03,-157.4 208.5,-152.01"/>
</g>
<!-- Node9 -->
<g id="node9" class="node">
<title>Node9</title>
<g id="a_node9"><a xlink:href="hard_8h.html" target="_top" xlink:title="Functions and data structures for handling of secondary structure hard constraints.">
<polygon fill="none" stroke="black" points="1101.5,-123.5 1101.5,-153.5 1220.5,-153.5 1220.5,-123.5 1101.5,-123.5"/>
<text text-anchor="start" x="1109.5" y="-141.5" font-family="Helvetica,sans-Serif" font-size="10.00">ViennaRNA/constraints</text>
<text text-anchor="middle" x="1161" y="-130.5" font-family="Helvetica,sans-Serif" font-size="10.00">/hard.h</text>
</a>
</g>
</g>
<!-- Node2&#45;&gt;Node9 -->
<g id="edge37" class="edge">
<title>Node2&#45;&gt;Node9</title>
<path fill="none" stroke="midnightblue" d="M781.2,-318.76C894.57,-313.22 1101.97,-300.21 1127,-277 1157.89,-248.34 1158.38,-195.29 1158.3,-164.12"/>
<polygon fill="midnightblue" stroke="midnightblue" points="1161.8,-163.72 1158.3,-153.72 1154.8,-163.72 1161.8,-163.72"/>
</g>
<!-- Node11 -->
<g id="node11" class="node">
<title>Node11</title>
<g id="a_node11"><a xlink:href="soft_8h.html" target="_top" xlink:title="Functions and data structures for secondary structure soft constraints.">
<polygon fill="none" stroke="black" points="651.5,-123.5 651.5,-153.5 770.5,-153.5 770.5,-123.5 651.5,-123.5"/>
<text text-anchor="start" x="659.5" y="-141.5" font-family="Helvetica,sans-Serif" font-size="10.00">ViennaRNA/constraints</text>
<text text-anchor="middle" x="711" y="-130.5" font-family="Helvetica,sans-Serif" font-size="10.00">/soft.h</text>
</a>
</g>
</g>
<!-- Node2&#45;&gt;Node11 -->
<g id="edge38" class="edge">
<title>Node2&#45;&gt;Node11</title>
<path fill="none" stroke="midnightblue" d="M705.04,-313.2C701.25,-286.33 702.05,-204.74 705.85,-163.67"/>
<polygon fill="midnightblue" stroke="midnightblue" points="709.33,-164.02 706.94,-153.69 702.37,-163.26 709.33,-164.02"/>
</g>
<!-- Node12 -->
<g id="node12" class="node">
<title>Node12</title>
<g id="a_node12"><a xlink:href="grammar_8h.html" target="_top" xlink:title="Implementations for the RNA folding grammar.">
<polygon fill="none" stroke="black" points="788.5,-129 788.5,-148 905.5,-148 905.5,-129 788.5,-129"/>
<text text-anchor="middle" x="847" y="-136" font-family="Helvetica,sans-Serif" font-size="10.00">ViennaRNA/grammar.h</text>
</a>
</g>
</g>
<!-- Node2&#45;&gt;Node12 -->
<g id="edge39" class="edge">
<title>Node2&#45;&gt;Node12</title>
<path fill="none" stroke="midnightblue" d="M708.65,-313.27C716.96,-291.53 752.25,-233.6 788,-190 798.32,-177.41 811.29,-164.38 822.67,-154.71"/>
<polygon fill="midnightblue" stroke="midnightblue" points="825.01,-157.31 830.61,-148.32 820.62,-151.86 825.01,-157.31"/>
</g>
<!-- Node13 -->
<g id="node13" class="node">
<title>Node13</title>
<g id="a_node13"><a xlink:href="structured__domains_8h.html" target="_top" xlink:title="This module provides interfaces that deal with additional structured domains in the folding grammar.">
<polygon fill="none" stroke="black" points="923.5,-123.5 923.5,-153.5 1038.5,-153.5 1038.5,-123.5 923.5,-123.5"/>
<text text-anchor="start" x="931.5" y="-141.5" font-family="Helvetica,sans-Serif" font-size="10.00">ViennaRNA/structured</text>
<text text-anchor="middle" x="981" y="-130.5" font-family="Helvetica,sans-Serif" font-size="10.00">_domains.h</text>
</a>
</g>
</g>
<!-- Node2&#45;&gt;Node13 -->
<g id="edge40" class="edge">
<title>Node2&#45;&gt;Node13</title>
<path fill="none" stroke="midnightblue" d="M720.8,-313.44C762.01,-285.89 891.98,-199.01 951.15,-159.46"/>
<polygon fill="midnightblue" stroke="midnightblue" points="953.31,-162.22 959.68,-153.75 949.42,-156.4 953.31,-162.22"/>
</g>
<!-- Node14 -->
<g id="node14" class="node">
<title>Node14</title>
<g id="a_node14"><a xlink:href="unstructured__domains_8h.html" target="_top" xlink:title="Functions to modify unstructured domains, e.g. to incorporate ligands binding to unpaired stretches.">
<polygon fill="none" stroke="black" points="508.5,-123.5 508.5,-153.5 633.5,-153.5 633.5,-123.5 508.5,-123.5"/>
<text text-anchor="start" x="516.5" y="-141.5" font-family="Helvetica,sans-Serif" font-size="10.00">ViennaRNA/unstructured</text>
<text text-anchor="middle" x="571" y="-130.5" font-family="Helvetica,sans-Serif" font-size="10.00">_domains.h</text>
</a>
</g>
</g>
<!-- Node2&#45;&gt;Node14 -->
<g id="edge41" class="edge">
<title>Node2&#45;&gt;Node14</title>
<path fill="none" stroke="midnightblue" d="M698.28,-313.2C673.58,-285.99 610.51,-202.65 583.34,-162.11"/>
<polygon fill="midnightblue" stroke="midnightblue" points="586.23,-160.14 577.83,-153.69 580.38,-163.98 586.23,-160.14"/>
</g>
<!-- Node17 -->
<g id="node17" class="node">
<title>Node17</title>
<g id="a_node17"><a xlink:href="sequence_8h.html" target="_top" xlink:title="Functions and data structures related to sequence representations ,.">
<polygon fill="none" stroke="black" points="877,-257.5 877,-276.5 999,-276.5 999,-257.5 877,-257.5"/>
<text text-anchor="middle" x="938" y="-264.5" font-family="Helvetica,sans-Serif" font-size="10.00">ViennaRNA/sequence.h</text>
</a>
</g>
</g>
<!-- Node2&#45;&gt;Node17 -->
<g id="edge34" class="edge">
<title>Node2&#45;&gt;Node17</title>
<path fill="none" stroke="midnightblue" d="M739.36,-313.44C777.33,-304.04 841.56,-288.93 886.74,-278.74"/>
<polygon fill="midnightblue" stroke="midnightblue" points="887.66,-282.12 896.65,-276.52 886.12,-275.29 887.66,-282.12"/>
</g>
<!-- Node18 -->
<g id="node18" class="node">
<title>Node18</title>
<g id="a_node18"><a xlink:href="zscore_8h_source.html" target="_top" xlink:title=" ">
<polygon fill="none" stroke="black" points="1017.5,-257.5 1017.5,-276.5 1126.5,-276.5 1126.5,-257.5 1017.5,-257.5"/>
<text text-anchor="middle" x="1072" y="-264.5" font-family="Helvetica,sans-Serif" font-size="10.00">ViennaRNA/zscore.h</text>
</a>
</g>
</g>
<!-- Node2&#45;&gt;Node18 -->
<g id="edge42" class="edge">
<title>Node2&#45;&gt;Node18</title>
<path fill="none" stroke="midnightblue" d="M765.68,-313.44C831.37,-303.7 938.44,-287.81 1007.02,-277.64"/>
<polygon fill="midnightblue" stroke="midnightblue" points="1007.89,-281.05 1017.27,-276.12 1006.87,-274.12 1007.89,-281.05"/>
</g>
<!-- Node4&#45;&gt;Node2 -->
<g id="edge32" class="edge">
<title>Node4&#45;&gt;Node2</title>
<path fill="none" stroke="midnightblue" d="M544.62,-276.52C580.83,-285.74 635.69,-300.51 671.75,-310.7"/>
<polygon fill="midnightblue" stroke="midnightblue" points="670.82,-314.07 681.4,-313.44 672.74,-307.34 670.82,-314.07"/>
</g>
<!-- Node4&#45;&gt;Node3 -->
<g id="edge33" class="edge">
<title>Node4&#45;&gt;Node3</title>
<path fill="none" stroke="midnightblue" d="M477.08,-257.4C397.06,-235.16 183.15,-175.69 93.46,-150.75"/>
<polygon fill="midnightblue" stroke="midnightblue" points="94.23,-147.33 83.66,-148.02 92.36,-154.07 94.23,-147.33"/>
</g>
<!-- Node5 -->
<g id="node5" class="node">
<title>Node5</title>
<g id="a_node5"><a xlink:href="constants_8h.html" target="_top" xlink:title="Energy parameter constants.">
<polygon fill="none" stroke="black" points="276,-129 276,-148 434,-148 434,-129 276,-129"/>
<text text-anchor="middle" x="355" y="-136" font-family="Helvetica,sans-Serif" font-size="10.00">ViennaRNA/params/constants.h</text>
</a>
</g>
</g>
<!-- Node4&#45;&gt;Node5 -->
<g id="edge4" class="edge">
<title>Node4&#45;&gt;Node5</title>
<path fill="none" stroke="midnightblue" d="M497.21,-257.44C485.89,-248.44 467.61,-233.83 452,-221 424.17,-198.13 392.25,-171.17 372.86,-154.71"/>
<polygon fill="midnightblue" stroke="midnightblue" points="375.02,-151.95 365.13,-148.14 370.49,-157.28 375.02,-151.95"/>
</g>
<!-- Node7 -->
<g id="node7" class="node">
<title>Node7</title>
<g id="a_node7"><a xlink:href="datastructures_2basic_8h.html" target="_top" xlink:title="Various data structures and pre&#45;processor macros.">
<polygon fill="none" stroke="black" points="461,-190.5 461,-220.5 595,-220.5 595,-190.5 461,-190.5"/>
<text text-anchor="start" x="469" y="-208.5" font-family="Helvetica,sans-Serif" font-size="10.00">ViennaRNA/datastructures</text>
<text text-anchor="middle" x="528" y="-197.5" font-family="Helvetica,sans-Serif" font-size="10.00">/basic.h</text>
</a>
</g>
</g>
<!-- Node4&#45;&gt;Node7 -->
<g id="edge6" class="edge">
<title>Node4&#45;&gt;Node7</title>
<path fill="none" stroke="midnightblue" d="M505.96,-257.48C506.82,-250.25 509.85,-239.53 513.57,-229.78"/>
<polygon fill="midnightblue" stroke="midnightblue" points="516.81,-231.1 517.46,-220.52 510.36,-228.39 516.81,-231.1"/>
</g>
<!-- Node6 -->
<g id="node6" class="node">
<title>Node6</title>
<g id="a_node6"><a xlink:title=" ">
<polygon fill="none" stroke="#bfbfbf" points="331,-62 331,-81 379,-81 379,-62 331,-62"/>
<text text-anchor="middle" x="355" y="-69" font-family="Helvetica,sans-Serif" font-size="10.00">limits.h</text>
</a>
</g>
</g>
<!-- Node5&#45;&gt;Node6 -->
<g id="edge5" class="edge">
<title>Node5&#45;&gt;Node6</title>
<path fill="none" stroke="midnightblue" d="M355,-128.73C355,-119.18 355,-103.62 355,-91.28"/>
<polygon fill="midnightblue" stroke="midnightblue" points="358.5,-91.13 355,-81.13 351.5,-91.13 358.5,-91.13"/>
</g>
<!-- Node7&#45;&gt;Node2 -->
<g id="edge8" class="edge">
<title>Node7&#45;&gt;Node2</title>
<path fill="none" stroke="midnightblue" d="M547.01,-220.55C567.05,-235.18 599.72,-258.49 629,-277 646.68,-288.17 667.22,-299.83 682.93,-308.49"/>
<polygon fill="midnightblue" stroke="midnightblue" points="681.56,-311.73 692.01,-313.45 684.92,-305.59 681.56,-311.73"/>
</g>
<!-- Node7&#45;&gt;Node3 -->
<g id="edge9" class="edge">
<title>Node7&#45;&gt;Node3</title>
<path fill="none" stroke="midnightblue" d="M460.79,-198.53C378.78,-190.74 236.09,-175.5 115,-154 109.07,-152.95 102.86,-151.69 96.76,-150.35"/>
<polygon fill="midnightblue" stroke="midnightblue" points="97.18,-146.86 86.65,-148.07 95.63,-153.69 97.18,-146.86"/>
</g>
<!-- Node7&#45;&gt;Node4 -->
<g id="edge10" class="edge">
<title>Node7&#45;&gt;Node4</title>
<path fill="none" stroke="midnightblue" d="M529.12,-220.52C527.39,-228.86 523.95,-239.5 520.14,-248.39"/>
<polygon fill="midnightblue" stroke="midnightblue" points="516.95,-246.95 515.77,-257.48 523.26,-249.99 516.95,-246.95"/>
</g>
<!-- Node7&#45;&gt;Node5 -->
<g id="edge7" class="edge">
<title>Node7&#45;&gt;Node5</title>
<path fill="none" stroke="midnightblue" d="M490.46,-190.4C459.7,-178.84 416.63,-162.66 387.37,-151.66"/>
<polygon fill="midnightblue" stroke="midnightblue" points="388.23,-148.25 377.64,-148.01 385.77,-154.8 388.23,-148.25"/>
</g>
<!-- Node7&#45;&gt;Node8 -->
<g id="edge11" class="edge">
<title>Node7&#45;&gt;Node8</title>
<path fill="none" stroke="midnightblue" d="M460.82,-192.58C395.81,-180.41 298.88,-161.7 240.56,-150.05"/>
<polygon fill="midnightblue" stroke="midnightblue" points="240.98,-146.56 230.49,-148.03 239.61,-153.43 240.98,-146.56"/>
</g>
<!-- Node7&#45;&gt;Node9 -->
<g id="edge14" class="edge">
<title>Node7&#45;&gt;Node9</title>
<path fill="none" stroke="midnightblue" d="M595.38,-198.62C694.59,-189.82 885.76,-172.28 1048,-154 1061.92,-152.43 1076.78,-150.62 1091,-148.82"/>
<polygon fill="midnightblue" stroke="midnightblue" points="1091.75,-152.26 1101.22,-147.52 1090.86,-145.31 1091.75,-152.26"/>
</g>
<!-- Node7&#45;&gt;Node11 -->
<g id="edge18" class="edge">
<title>Node7&#45;&gt;Node11</title>
<path fill="none" stroke="midnightblue" d="M562.03,-190.4C588.44,-180.56 625.45,-167.37 656.02,-156.88"/>
<polygon fill="midnightblue" stroke="midnightblue" points="657.36,-160.12 665.69,-153.58 655.1,-153.49 657.36,-160.12"/>
</g>
<!-- Node7&#45;&gt;Node12 -->
<g id="edge22" class="edge">
<title>Node7&#45;&gt;Node12</title>
<path fill="none" stroke="midnightblue" d="M595.18,-191.33C645.98,-181.3 717.43,-167.04 780,-154 785.82,-152.79 791.92,-151.49 797.97,-150.2"/>
<polygon fill="midnightblue" stroke="midnightblue" points="799.01,-153.56 808.05,-148.04 797.54,-146.71 799.01,-153.56"/>
</g>
<!-- Node7&#45;&gt;Node13 -->
<g id="edge24" class="edge">
<title>Node7&#45;&gt;Node13</title>
<path fill="none" stroke="midnightblue" d="M595.04,-197.53C670.3,-189.31 796.25,-174.35 913.59,-154.16"/>
<polygon fill="midnightblue" stroke="midnightblue" points="914.21,-157.61 923.47,-152.45 913.01,-150.71 914.21,-157.61"/>
</g>
<!-- Node7&#45;&gt;Node14 -->
<g id="edge25" class="edge">
<title>Node7&#45;&gt;Node14</title>
<path fill="none" stroke="midnightblue" d="M531.65,-190.4C536.08,-182.05 542.94,-171.29 549.79,-161.81"/>
<polygon fill="midnightblue" stroke="midnightblue" points="552.78,-163.67 556.01,-153.58 547.19,-159.45 552.78,-163.67"/>
</g>
<!-- Node15 -->
<g id="node15" class="node">
<title>Node15</title>
<g id="a_node15"><a xlink:href="utils_2structures_8h.html" target="_top" xlink:title="Various utility&#45; and helper&#45;functions for secondary structure parsing, converting,...">
<polygon fill="none" stroke="black" points="399,-62 399,-81 543,-81 543,-62 399,-62"/>
<text text-anchor="middle" x="471" y="-69" font-family="Helvetica,sans-Serif" font-size="10.00">ViennaRNA/utils/structures.h</text>
</a>
</g>
</g>
<!-- Node7&#45;&gt;Node15 -->
<g id="edge31" class="edge">
<title>Node7&#45;&gt;Node15</title>
<path fill="none" stroke="midnightblue" d="M511.28,-190.3C503.74,-180.39 495.77,-166.7 490,-154 480.55,-133.19 472.41,-108.2 469.29,-91.42"/>
<polygon fill="midnightblue" stroke="midnightblue" points="472.73,-90.74 467.98,-81.27 465.79,-91.64 472.73,-90.74"/>
</g>
<!-- Node8&#45;&gt;Node2 -->
<g id="edge13" class="edge">
<title>Node8&#45;&gt;Node2</title>
<path fill="none" stroke="midnightblue" d="M206.51,-148.14C244.61,-172.72 344.5,-243.44 439,-277 499.27,-298.41 570.54,-309.69 624.62,-315.6"/>
<polygon fill="midnightblue" stroke="midnightblue" points="624.55,-319.11 634.86,-316.68 625.28,-312.15 624.55,-319.11"/>
</g>
<!-- Node8&#45;&gt;Node7 -->
<g id="edge12" class="edge">
<title>Node8&#45;&gt;Node7</title>
<path fill="none" stroke="midnightblue" d="M239.96,-148.03C295.29,-158.27 385.92,-175.68 450.78,-188.47"/>
<polygon fill="midnightblue" stroke="midnightblue" points="450.47,-191.97 460.96,-190.48 451.83,-185.1 450.47,-191.97"/>
</g>
<!-- Node9&#45;&gt;Node2 -->
<g id="edge15" class="edge">
<title>Node9&#45;&gt;Node2</title>
<path fill="none" stroke="midnightblue" d="M1168.35,-153.72C1176.04,-181.89 1179.69,-244.82 1145,-277 1119.88,-300.3 911.08,-313.31 791.36,-318.82"/>
<polygon fill="midnightblue" stroke="midnightblue" points="790.96,-315.33 781.13,-319.28 791.28,-322.32 790.96,-315.33"/>
</g>
<!-- Node10 -->
<g id="node10" class="node">
<title>Node10</title>
<g id="a_node10"><a xlink:href="constraints_2basic_8h.html" target="_top" xlink:title="Functions and data structures for constraining secondary structure predictions and evaluation.">
<polygon fill="none" stroke="black" points="1007.5,-56.5 1007.5,-86.5 1126.5,-86.5 1126.5,-56.5 1007.5,-56.5"/>
<text text-anchor="start" x="1015.5" y="-74.5" font-family="Helvetica,sans-Serif" font-size="10.00">ViennaRNA/constraints</text>
<text text-anchor="middle" x="1067" y="-63.5" font-family="Helvetica,sans-Serif" font-size="10.00">/basic.h</text>
</a>
</g>
</g>
<!-- Node9&#45;&gt;Node10 -->
<g id="edge16" class="edge">
<title>Node9&#45;&gt;Node10</title>
<path fill="none" stroke="midnightblue" d="M1140.6,-123.4C1127.55,-114.37 1110.4,-102.51 1095.95,-92.52"/>
<polygon fill="midnightblue" stroke="midnightblue" points="1097.57,-89.39 1087.36,-86.58 1093.59,-95.14 1097.57,-89.39"/>
</g>
<!-- Node10&#45;&gt;Node2 -->
<g id="edge17" class="edge">
<title>Node10&#45;&gt;Node2</title>
<path fill="none" stroke="midnightblue" d="M1067.2,-86.72C1066.72,-104.32 1063.45,-134.36 1048,-154 1026.82,-180.92 815.41,-275.09 737.03,-309.38"/>
<polygon fill="midnightblue" stroke="midnightblue" points="735.49,-306.24 727.73,-313.45 738.3,-312.65 735.49,-306.24"/>
</g>
<!-- Node11&#45;&gt;Node2 -->
<g id="edge20" class="edge">
<title>Node11&#45;&gt;Node2</title>
<path fill="none" stroke="midnightblue" d="M714.6,-153.69C717.78,-186.21 716.63,-266.09 712.65,-302.88"/>
<polygon fill="midnightblue" stroke="midnightblue" points="709.12,-302.82 711.25,-313.2 716.06,-303.76 709.12,-302.82"/>
</g>
<!-- Node11&#45;&gt;Node7 -->
<g id="edge19" class="edge">
<title>Node11&#45;&gt;Node7</title>
<path fill="none" stroke="midnightblue" d="M677.04,-153.58C650.66,-163.41 613.65,-176.6 583.07,-187.09"/>
<polygon fill="midnightblue" stroke="midnightblue" points="581.72,-183.85 573.39,-190.4 583.98,-190.48 581.72,-183.85"/>
</g>
<!-- Node11&#45;&gt;Node10 -->
<g id="edge21" class="edge">
<title>Node11&#45;&gt;Node10</title>
<path fill="none" stroke="midnightblue" d="M770.81,-124.8C773.92,-124.18 777,-123.58 780,-123 853.92,-108.73 938.89,-93.99 997.07,-84.14"/>
<polygon fill="midnightblue" stroke="midnightblue" points="997.98,-87.54 1007.25,-82.42 996.81,-80.64 997.98,-87.54"/>
</g>
<!-- Node12&#45;&gt;Node2 -->
<g id="edge23" class="edge">
<title>Node12&#45;&gt;Node2</title>
<path fill="none" stroke="midnightblue" d="M843.87,-148.32C835.74,-158.03 818.83,-174.35 806,-190 774.02,-229 742.41,-279.47 723.63,-305.24"/>
<polygon fill="midnightblue" stroke="midnightblue" points="720.8,-303.19 717.54,-313.27 726.38,-307.42 720.8,-303.19"/>
</g>
<!-- Node14&#45;&gt;Node2 -->
<g id="edge27" class="edge">
<title>Node14&#45;&gt;Node2</title>
<path fill="none" stroke="midnightblue" d="M585.48,-153.69C613.97,-186.63 675.31,-268.17 698.91,-304.29"/>
<polygon fill="midnightblue" stroke="midnightblue" points="696.22,-306.59 704.5,-313.2 702.15,-302.87 696.22,-306.59"/>
</g>
<!-- Node14&#45;&gt;Node7 -->
<g id="edge26" class="edge">
<title>Node14&#45;&gt;Node7</title>
<path fill="none" stroke="midnightblue" d="M567.36,-153.58C562.94,-161.92 556.08,-172.68 549.23,-182.16"/>
<polygon fill="midnightblue" stroke="midnightblue" points="546.24,-180.31 543.01,-190.4 551.83,-184.52 546.24,-180.31"/>
</g>
<!-- Node14&#45;&gt;Node15 -->
<g id="edge28" class="edge">
<title>Node14&#45;&gt;Node15</title>
<path fill="none" stroke="midnightblue" d="M549.3,-123.4C532.53,-112.5 509.43,-97.48 492.67,-86.58"/>
<polygon fill="midnightblue" stroke="midnightblue" points="494.38,-83.52 484.09,-81.01 490.56,-89.39 494.38,-83.52"/>
</g>
<!-- Node15&#45;&gt;Node7 -->
<g id="edge30" class="edge">
<title>Node15&#45;&gt;Node7</title>
<path fill="none" stroke="midnightblue" d="M478.85,-81.27C486.72,-96.44 496.37,-128.39 508,-154 512.14,-163.13 517.43,-172.77 521.83,-181.15"/>
<polygon fill="midnightblue" stroke="midnightblue" points="518.82,-182.96 526.46,-190.3 525.07,-179.8 518.82,-182.96"/>
</g>
<!-- Node16 -->
<g id="node16" class="node">
<title>Node16</title>
<g id="a_node16"><a xlink:title=" ">
<polygon fill="none" stroke="#bfbfbf" points="448,-0.5 448,-19.5 494,-19.5 494,-0.5 448,-0.5"/>
<text text-anchor="middle" x="471" y="-7.5" font-family="Helvetica,sans-Serif" font-size="10.00">stdio.h</text>
</a>
</g>
</g>
<!-- Node15&#45;&gt;Node16 -->
<g id="edge29" class="edge">
<title>Node15&#45;&gt;Node16</title>
<path fill="none" stroke="midnightblue" d="M471,-61.98C471,-53.58 471,-40.48 471,-29.66"/>
<polygon fill="midnightblue" stroke="midnightblue" points="474.5,-29.51 471,-19.51 467.5,-29.51 474.5,-29.51"/>
</g>
<!-- Node17&#45;&gt;Node2 -->
<g id="edge35" class="edge">
<title>Node17&#45;&gt;Node2</title>
<path fill="none" stroke="midnightblue" d="M906.81,-276.52C868.9,-285.9 804.68,-301.01 759.45,-311.22"/>
<polygon fill="midnightblue" stroke="midnightblue" points="758.52,-307.84 749.53,-313.44 760.06,-314.67 758.52,-307.84"/>
</g>
</g>
</svg>
        <g id="navigator" transform="translate(0 0)" fill="#404254">
                <rect fill="#f2f5e9" fill-opacity="0.5" stroke="#606060" stroke-width=".5" x="0" y="0" width="60" height="60"/>
                <use id="zoomplus" xlink:href="#zoomPlus" x="17" y="9" onmousedown="handleZoom(evt,'in')"/>
                <use id="zoomminus" xlink:href="#zoomMin" x="42" y="9" onmousedown="handleZoom(evt,'out')"/>
                <use id="reset" xlink:href="#resetDef" x="30" y="36" onmousedown="handleReset()"/>
                <g id="arrowUp" xlink:href="#dirArrow" transform="translate(30 24)" onmousedown="handlePan(0,-1)">
                  <use xlink:href="#rim" fill="#404040">
                        <set attributeName="fill" to="#808080" begin="arrowUp.mouseover" end="arrowUp.mouseout"/>
                  </use>
                  <path fill="none" stroke="white" stroke-width="1.5" d="M0,-3.0v7 M-2.5,-0.5L0,-3.0L2.5,-0.5"/>
                </g>
                <g id="arrowRight" xlink:href="#dirArrow" transform="rotate(90) translate(36 -43)" onmousedown="handlePan(1,0)">
                  <use xlink:href="#rim" fill="#404040">
                        <set attributeName="fill" to="#808080" begin="arrowRight.mouseover" end="arrowRight.mouseout"/>
                  </use>
                  <path fill="none" stroke="white" stroke-width="1.5" d="M0,-3.0v7 M-2.5,-0.5L0,-3.0L2.5,-0.5"/>
                </g>
                <g id="arrowDown" xlink:href="#dirArrow" transform="rotate(180) translate(-30 -48)" onmousedown="handlePan(0,1)">
                  <use xlink:href="#rim" fill="#404040">
                        <set attributeName="fill" to="#808080" begin="arrowDown.mouseover" end="arrowDown.mouseout"/>
                  </use>
                  <path fill="none" stroke="white" stroke-width="1.5" d="M0,-3.0v7 M-2.5,-0.5L0,-3.0L2.5,-0.5"/>
                </g>
                <g id="arrowLeft" xlink:href="#dirArrow" transform="rotate(270) translate(-36 17)" onmousedown="handlePan(-1,0)">
                  <use xlink:href="#rim" fill="#404040">
                        <set attributeName="fill" to="#808080" begin="arrowLeft.mouseover" end="arrowLeft.mouseout"/>
                  </use>
                  <path fill="none" stroke="white" stroke-width="1.5" d="M0,-3.0v7 M-2.5,-0.5L0,-3.0L2.5,-0.5"/>
                </g>
        </g>
        <svg viewBox="0 0 15 15" width="100%" height="30px" preserveAspectRatio="xMaxYMin meet">
         <g id="arrow_out" transform="scale(0.3 0.3)">
          <a xlink:href="alphabet_8h__incl_org.svg" target="_base">
           <rect id="button" ry="5" rx="5" y="6" x="6" height="38" width="38"
                fill="#f2f5e9" fill-opacity="0.5" stroke="#606060" stroke-width="1.0"/>
           <path id="arrow"
             d="M 11.500037,31.436501 C 11.940474,20.09759 22.043105,11.32322 32.158766,21.979434 L 37.068811,17.246167 C 37.068811,17.246167 37.088388,32 37.088388,32 L 22.160133,31.978069 C 22.160133,31.978069 26.997745,27.140456 26.997745,27.140456 C 18.528582,18.264221 13.291696,25.230495 11.500037,31.436501 z"
             style="fill:#404040;"/>
          </a>
         </g>
        </svg>
</svg>
