<?xml version="1.0" encoding="UTF-8" standalone="no"?>
<!DOCTYPE svg PUBLIC "-//W3C//DTD SVG 1.1//EN"
 "http://www.w3.org/Graphics/SVG/1.1/DTD/svg11.dtd">
<!-- Generated by graphviz version 2.47.0 (0)
 -->
<!-- Title: ViennaRNA/boltzmann_sampling.h Pages: 1 -->
<svg width="268pt" height="151pt"
 viewBox="0.00 0.00 267.50 151.00" xmlns="http://www.w3.org/2000/svg" xmlns:xlink="http://www.w3.org/1999/xlink">
<g id="graph0" class="graph" transform="scale(1 1) rotate(0) translate(4 147)">
<title>ViennaRNA/boltzmann_sampling.h</title>
<!-- Node1 -->
<g id="node1" class="node">
<title>Node1</title>
<g id="a_node1"><a xlink:title="Boltzmann Sampling of secondary structures from the ensemble.">
<polygon fill="#bfbfbf" stroke="black" points="38.5,-112.5 38.5,-142.5 154.5,-142.5 154.5,-112.5 38.5,-112.5"/>
<text text-anchor="start" x="46.5" y="-130.5" font-family="Helvetica,sans-Serif" font-size="10.00">ViennaRNA/boltzmann</text>
<text text-anchor="middle" x="96.5" y="-119.5" font-family="Helvetica,sans-Serif" font-size="10.00">_sampling.h</text>
</a>
</g>
</g>
<!-- Node2 -->
<g id="node2" class="node">
<title>Node2</title>
<g id="a_node2"><a xlink:href="alifold_8h.html" target="_top" xlink:title="Functions for comparative structure prediction using RNA sequence alignments.">
<polygon fill="none" stroke="black" points="0,-0.5 0,-19.5 105,-19.5 105,-0.5 0,-0.5"/>
<text text-anchor="middle" x="52.5" y="-7.5" font-family="Helvetica,sans-Serif" font-size="10.00">ViennaRNA/alifold.h</text>
</a>
</g>
</g>
<!-- Node1&#45;&gt;Node2 -->
<g id="edge1" class="edge">
<title>Node1&#45;&gt;Node2</title>
<path fill="none" stroke="midnightblue" d="M83.96,-103.32C79.67,-94.86 75.07,-85.14 71.5,-76 63.81,-56.29 57.54,-32.16 54.5,-19.57"/>
<polygon fill="midnightblue" stroke="midnightblue" points="80.87,-104.96 88.59,-112.22 87.08,-101.73 80.87,-104.96"/>
</g>
<!-- Node3 -->
<g id="node3" class="node">
<title>Node3</title>
<g id="a_node3"><a xlink:href="part__func_8h.html" target="_top" xlink:title="Partition function implementations.">
<polygon fill="none" stroke="black" points="80.5,-56.5 80.5,-75.5 200.5,-75.5 200.5,-56.5 80.5,-56.5"/>
<text text-anchor="middle" x="140.5" y="-63.5" font-family="Helvetica,sans-Serif" font-size="10.00">ViennaRNA/part_func.h</text>
</a>
</g>
</g>
<!-- Node1&#45;&gt;Node3 -->
<g id="edge2" class="edge">
<title>Node1&#45;&gt;Node3</title>
<path fill="none" stroke="midnightblue" d="M113.06,-104.1C120.4,-94.19 128.59,-83.11 134.1,-75.66"/>
<polygon fill="midnightblue" stroke="midnightblue" points="110.06,-102.28 106.93,-112.4 115.69,-106.44 110.06,-102.28"/>
</g>
<!-- Node3&#45;&gt;Node2 -->
<g id="edge3" class="edge">
<title>Node3&#45;&gt;Node2</title>
<path fill="none" stroke="midnightblue" d="M117.52,-50.9C101.39,-41 80.32,-28.07 66.6,-19.65"/>
<polygon fill="midnightblue" stroke="midnightblue" points="116.01,-54.08 126.36,-56.32 119.67,-48.11 116.01,-54.08"/>
</g>
<!-- Node4 -->
<g id="node4" class="node">
<title>Node4</title>
<g id="a_node4"><a xlink:href="part__func__co_8h.html" target="_top" xlink:title="Partition function for two RNA sequences.">
<polygon fill="none" stroke="black" points="123.5,-0.5 123.5,-19.5 259.5,-19.5 259.5,-0.5 123.5,-0.5"/>
<text text-anchor="middle" x="191.5" y="-7.5" font-family="Helvetica,sans-Serif" font-size="10.00">ViennaRNA/part_func_co.h</text>
</a>
</g>
</g>
<!-- Node3&#45;&gt;Node4 -->
<g id="edge4" class="edge">
<title>Node3&#45;&gt;Node4</title>
<path fill="none" stroke="midnightblue" d="M155.88,-48.72C164.87,-39.2 175.86,-27.56 183.24,-19.75"/>
<polygon fill="midnightblue" stroke="midnightblue" points="153.24,-46.41 148.92,-56.08 158.33,-51.22 153.24,-46.41"/>
</g>
</g>
</svg>
