<?xml version="1.0" encoding="UTF-8" standalone="no"?>
<!DOCTYPE svg PUBLIC "-//W3C//DTD SVG 1.1//EN"
 "http://www.w3.org/Graphics/SVG/1.1/DTD/svg11.dtd">
<!-- Generated by graphviz version 2.47.0 (0)
 -->
<!-- Title: ViennaRNA/centroid.h Pages: 1 -->
<!--zoomable 341 -->
<svg id="main" version="1.1" xmlns="http://www.w3.org/2000/svg" xmlns:xlink="http://www.w3.org/1999/xlink" xml:space="preserve" onload="init(evt)">
<style type="text/css"><![CDATA[
.edge:hover path { stroke: red; }
.edge:hover polygon { stroke: red; fill: red; }
]]></style>
<script type="text/javascript"><![CDATA[
var edges = document.getElementsByTagName('g');
if (edges && edges.length) {
  for (var i=0;i<edges.length;i++) {
    if (edges[i].id.substr(0,4)=='edge') {
      edges[i].setAttribute('class','edge');
    }
  }
}
]]></script>
        <defs>
                <circle id="rim" cx="0" cy="0" r="7"/>
                <circle id="rim2" cx="0" cy="0" r="3.5"/>
                <g id="zoomPlus">
                        <use xlink:href="#rim" fill="#404040">
                                <set attributeName="fill" to="#808080" begin="zoomplus.mouseover" end="zoomplus.mouseout"/>
                        </use>
                        <path d="M-4,0h8M0,-4v8" fill="none" stroke="white" stroke-width="1.5" pointer-events="none"/>
                </g>
                <g id="zoomMin">
                        <use xlink:href="#rim" fill="#404040">
                                <set attributeName="fill" to="#808080" begin="zoomminus.mouseover" end="zoomminus.mouseout"/>
                        </use>
                        <path d="M-4,0h8" fill="none" stroke="white" stroke-width="1.5" pointer-events="none"/>
                </g>
                <g id="dirArrow">
                        <path fill="none" stroke="white" stroke-width="1.5" d="M0,-3.0v7 M-2.5,-0.5L0,-3.0L2.5,-0.5"/>
                </g>
               <g id="resetDef">
                       <use xlink:href="#rim2" fill="#404040">
                               <set attributeName="fill" to="#808080" begin="reset.mouseover" end="reset.mouseout"/>
                       </use>
               </g>
        </defs>

<script type="text/javascript">
var viewWidth = 1514;
var viewHeight = 341;
var sectionId = 'dynsection-0';
</script>
<script xlink:href="svgpan.js"/>
<svg id="graph" class="graph">
<g id="viewport">
<title>ViennaRNA/centroid.h</title>
<!-- Node1 -->
<g id="node1" class="node">
<title>Node1</title>
<g id="a_node1"><a xlink:title="Centroid structure computation.">
<polygon fill="#bfbfbf" stroke="black" points="979.5,-313.5 979.5,-332.5 1093.5,-332.5 1093.5,-313.5 979.5,-313.5"/>
<text text-anchor="middle" x="1036.5" y="-320.5" font-family="Helvetica,sans-Serif" font-size="10.00">ViennaRNA/centroid.h</text>
</a>
</g>
</g>
<!-- Node2 -->
<g id="node2" class="node">
<title>Node2</title>
<g id="a_node2"><a xlink:href="datastructures_2basic_8h.html" target="_top" xlink:title="Various data structures and pre&#45;processor macros.">
<polygon fill="none" stroke="black" points="969.5,-246.5 969.5,-276.5 1103.5,-276.5 1103.5,-246.5 969.5,-246.5"/>
<text text-anchor="start" x="977.5" y="-264.5" font-family="Helvetica,sans-Serif" font-size="10.00">ViennaRNA/datastructures</text>
<text text-anchor="middle" x="1036.5" y="-253.5" font-family="Helvetica,sans-Serif" font-size="10.00">/basic.h</text>
</a>
</g>
</g>
<!-- Node1&#45;&gt;Node2 -->
<g id="edge1" class="edge">
<title>Node1&#45;&gt;Node2</title>
<path fill="none" stroke="midnightblue" d="M1036.5,-313.48C1036.5,-306.47 1036.5,-296.19 1036.5,-286.7"/>
<polygon fill="midnightblue" stroke="midnightblue" points="1040,-286.52 1036.5,-276.52 1033,-286.52 1040,-286.52"/>
</g>
<!-- Node5 -->
<g id="node5" class="node">
<title>Node5</title>
<g id="a_node5"><a xlink:href="fold__compound_8h.html" target="_top" xlink:title="The Basic Fold Compound API.">
<polygon fill="none" stroke="black" points="694.5,-190.5 694.5,-209.5 840.5,-209.5 840.5,-190.5 694.5,-190.5"/>
<text text-anchor="middle" x="767.5" y="-197.5" font-family="Helvetica,sans-Serif" font-size="10.00">ViennaRNA/fold_compound.h</text>
</a>
</g>
</g>
<!-- Node1&#45;&gt;Node5 -->
<g id="edge43" class="edge">
<title>Node1&#45;&gt;Node5</title>
<path fill="none" stroke="midnightblue" d="M1017.58,-313.49C971.1,-292.58 851.08,-238.6 795.95,-213.8"/>
<polygon fill="midnightblue" stroke="midnightblue" points="797.31,-210.57 786.75,-209.66 794.44,-216.96 797.31,-210.57"/>
</g>
<!-- Node16 -->
<g id="node16" class="node">
<title>Node16</title>
<g id="a_node16"><a xlink:href="utils_2structures_8h.html" target="_top" xlink:title="Various utility&#45; and helper&#45;functions for secondary structure parsing, converting,...">
<polygon fill="none" stroke="black" points="1361.5,-62 1361.5,-81 1505.5,-81 1505.5,-62 1361.5,-62"/>
<text text-anchor="middle" x="1433.5" y="-69" font-family="Helvetica,sans-Serif" font-size="10.00">ViennaRNA/utils/structures.h</text>
</a>
</g>
</g>
<!-- Node1&#45;&gt;Node16 -->
<g id="edge44" class="edge">
<title>Node1&#45;&gt;Node16</title>
<path fill="none" stroke="midnightblue" d="M1072.48,-313.47C1132.55,-298.29 1255.89,-263.13 1349.5,-210 1383.55,-190.67 1397.44,-187.62 1417.5,-154 1429.07,-134.6 1432.47,-108.42 1433.37,-91.02"/>
<polygon fill="midnightblue" stroke="midnightblue" points="1436.87,-91.12 1433.66,-81.02 1429.87,-90.91 1436.87,-91.12"/>
</g>
<!-- Node3 -->
<g id="node3" class="node">
<title>Node3</title>
<g id="a_node3"><a xlink:href="constants_8h.html" target="_top" xlink:title="Energy parameter constants.">
<polygon fill="none" stroke="black" points="1182.5,-62 1182.5,-81 1340.5,-81 1340.5,-62 1182.5,-62"/>
<text text-anchor="middle" x="1261.5" y="-69" font-family="Helvetica,sans-Serif" font-size="10.00">ViennaRNA/params/constants.h</text>
</a>
</g>
</g>
<!-- Node2&#45;&gt;Node3 -->
<g id="edge2" class="edge">
<title>Node2&#45;&gt;Node3</title>
<path fill="none" stroke="midnightblue" d="M1103.58,-249.32C1191.93,-232.96 1339.41,-199.45 1367.5,-154 1374.74,-142.28 1374.85,-134.65 1367.5,-123 1355.38,-103.8 1333.75,-91.75 1313.17,-84.26"/>
<polygon fill="midnightblue" stroke="midnightblue" points="1314.11,-80.89 1303.52,-81.04 1311.89,-87.53 1314.11,-80.89"/>
</g>
<!-- Node2&#45;&gt;Node5 -->
<g id="edge4" class="edge">
<title>Node2&#45;&gt;Node5</title>
<path fill="none" stroke="midnightblue" d="M973.09,-246.47C924.96,-235.83 859.79,-221.41 815.83,-211.69"/>
<polygon fill="midnightblue" stroke="midnightblue" points="816.48,-208.25 805.96,-209.51 814.97,-215.08 816.48,-208.25"/>
</g>
<!-- Node6 -->
<g id="node6" class="node">
<title>Node6</title>
<g id="a_node6"><a xlink:href="model_8h.html" target="_top" xlink:title="The model details data structure and its corresponding modifiers.">
<polygon fill="none" stroke="black" points="1054.5,-62 1054.5,-81 1160.5,-81 1160.5,-62 1054.5,-62"/>
<text text-anchor="middle" x="1107.5" y="-69" font-family="Helvetica,sans-Serif" font-size="10.00">ViennaRNA/model.h</text>
</a>
</g>
</g>
<!-- Node2&#45;&gt;Node6 -->
<g id="edge34" class="edge">
<title>Node2&#45;&gt;Node6</title>
<path fill="none" stroke="midnightblue" d="M1072.48,-246.5C1108.53,-230.29 1161.94,-199.81 1185.5,-154 1191.8,-141.75 1192.08,-135.1 1185.5,-123 1176.16,-105.82 1158.18,-93.59 1141.83,-85.47"/>
<polygon fill="midnightblue" stroke="midnightblue" points="1143.02,-82.17 1132.47,-81.16 1140.09,-88.52 1143.02,-82.17"/>
</g>
<!-- Node7 -->
<g id="node7" class="node">
<title>Node7</title>
<g id="a_node7"><a xlink:href="params_2basic_8h.html" target="_top" xlink:title="Functions to deal with sets of energy parameters.">
<polygon fill="none" stroke="black" points="1038.5,-129 1038.5,-148 1176.5,-148 1176.5,-129 1038.5,-129"/>
<text text-anchor="middle" x="1107.5" y="-136" font-family="Helvetica,sans-Serif" font-size="10.00">ViennaRNA/params/basic.h</text>
</a>
</g>
</g>
<!-- Node2&#45;&gt;Node7 -->
<g id="edge35" class="edge">
<title>Node2&#45;&gt;Node7</title>
<path fill="none" stroke="midnightblue" d="M1040.37,-246.14C1050.76,-223.61 1076.23,-180.04 1092.9,-156.16"/>
<polygon fill="midnightblue" stroke="midnightblue" points="1095.75,-158.2 1098.81,-148.05 1090.09,-154.07 1095.75,-158.2"/>
</g>
<!-- Node9 -->
<g id="node9" class="node">
<title>Node9</title>
<g id="a_node9"><a xlink:href="dp__matrices_8h.html" target="_top" xlink:title="Functions to deal with standard dynamic programming (DP) matrices.">
<polygon fill="none" stroke="black" points="887,-129 887,-148 1020,-148 1020,-129 887,-129"/>
<text text-anchor="middle" x="953.5" y="-136" font-family="Helvetica,sans-Serif" font-size="10.00">ViennaRNA/dp_matrices.h</text>
</a>
</g>
</g>
<!-- Node2&#45;&gt;Node9 -->
<g id="edge36" class="edge">
<title>Node2&#45;&gt;Node9</title>
<path fill="none" stroke="midnightblue" d="M1022.1,-246.14C1004.05,-223.91 974.62,-181.19 960.65,-157.11"/>
<polygon fill="midnightblue" stroke="midnightblue" points="963.56,-155.14 955.69,-148.05 957.42,-158.5 963.56,-155.14"/>
</g>
<!-- Node10 -->
<g id="node10" class="node">
<title>Node10</title>
<g id="a_node10"><a xlink:href="hard_8h.html" target="_top" xlink:title="Functions and data structures for handling of secondary structure hard constraints.">
<polygon fill="none" stroke="black" points="270,-123.5 270,-153.5 389,-153.5 389,-123.5 270,-123.5"/>
<text text-anchor="start" x="278" y="-141.5" font-family="Helvetica,sans-Serif" font-size="10.00">ViennaRNA/constraints</text>
<text text-anchor="middle" x="329.5" y="-130.5" font-family="Helvetica,sans-Serif" font-size="10.00">/hard.h</text>
</a>
</g>
</g>
<!-- Node2&#45;&gt;Node10 -->
<g id="edge37" class="edge">
<title>Node2&#45;&gt;Node10</title>
<path fill="none" stroke="midnightblue" d="M969.38,-251.85C898.63,-242.5 783.99,-226.68 685.5,-210 560.49,-188.82 527.47,-180.23 399.14,-154.12"/>
<polygon fill="midnightblue" stroke="midnightblue" points="399.82,-150.69 389.33,-152.13 398.43,-157.55 399.82,-150.69"/>
</g>
<!-- Node12 -->
<g id="node12" class="node">
<title>Node12</title>
<g id="a_node12"><a xlink:href="soft_8h.html" target="_top" xlink:title="Functions and data structures for secondary structure soft constraints.">
<polygon fill="none" stroke="black" points="0,-123.5 0,-153.5 119,-153.5 119,-123.5 0,-123.5"/>
<text text-anchor="start" x="8" y="-141.5" font-family="Helvetica,sans-Serif" font-size="10.00">ViennaRNA/constraints</text>
<text text-anchor="middle" x="59.5" y="-130.5" font-family="Helvetica,sans-Serif" font-size="10.00">/soft.h</text>
</a>
</g>
</g>
<!-- Node2&#45;&gt;Node12 -->
<g id="edge38" class="edge">
<title>Node2&#45;&gt;Node12</title>
<path fill="none" stroke="midnightblue" d="M969.09,-257.05C857.53,-250.63 628.04,-235.17 435.5,-210 296.96,-191.89 260.61,-181.84 125.87,-155.44"/>
<polygon fill="midnightblue" stroke="midnightblue" points="126.48,-151.99 116,-153.51 125.14,-158.86 126.48,-151.99"/>
</g>
<!-- Node13 -->
<g id="node13" class="node">
<title>Node13</title>
<g id="a_node13"><a xlink:href="grammar_8h.html" target="_top" xlink:title="Implementations for the RNA folding grammar.">
<polygon fill="none" stroke="black" points="752,-129 752,-148 869,-148 869,-129 752,-129"/>
<text text-anchor="middle" x="810.5" y="-136" font-family="Helvetica,sans-Serif" font-size="10.00">ViennaRNA/grammar.h</text>
</a>
</g>
</g>
<!-- Node2&#45;&gt;Node13 -->
<g id="edge39" class="edge">
<title>Node2&#45;&gt;Node13</title>
<path fill="none" stroke="midnightblue" d="M1010.13,-246.38C966.18,-222.85 878.54,-175.93 835.51,-152.89"/>
<polygon fill="midnightblue" stroke="midnightblue" points="837.02,-149.73 826.55,-148.09 833.71,-155.9 837.02,-149.73"/>
</g>
<!-- Node14 -->
<g id="node14" class="node">
<title>Node14</title>
<g id="a_node14"><a xlink:href="structured__domains_8h.html" target="_top" xlink:title="This module provides interfaces that deal with additional structured domains in the folding grammar.">
<polygon fill="none" stroke="black" points="137,-123.5 137,-153.5 252,-153.5 252,-123.5 137,-123.5"/>
<text text-anchor="start" x="145" y="-141.5" font-family="Helvetica,sans-Serif" font-size="10.00">ViennaRNA/structured</text>
<text text-anchor="middle" x="194.5" y="-130.5" font-family="Helvetica,sans-Serif" font-size="10.00">_domains.h</text>
</a>
</g>
</g>
<!-- Node2&#45;&gt;Node14 -->
<g id="edge40" class="edge">
<title>Node2&#45;&gt;Node14</title>
<path fill="none" stroke="midnightblue" d="M969.47,-254.67C879.09,-246.48 713.26,-230.27 572.5,-210 436.32,-190.39 400.33,-181.96 262.19,-154.31"/>
<polygon fill="midnightblue" stroke="midnightblue" points="262.56,-150.81 252.07,-152.28 261.18,-157.68 262.56,-150.81"/>
</g>
<!-- Node15 -->
<g id="node15" class="node">
<title>Node15</title>
<g id="a_node15"><a xlink:href="unstructured__domains_8h.html" target="_top" xlink:title="Functions to modify unstructured domains, e.g. to incorporate ligands binding to unpaired stretches.">
<polygon fill="none" stroke="black" points="1233,-123.5 1233,-153.5 1358,-153.5 1358,-123.5 1233,-123.5"/>
<text text-anchor="start" x="1241" y="-141.5" font-family="Helvetica,sans-Serif" font-size="10.00">ViennaRNA/unstructured</text>
<text text-anchor="middle" x="1295.5" y="-130.5" font-family="Helvetica,sans-Serif" font-size="10.00">_domains.h</text>
</a>
</g>
</g>
<!-- Node2&#45;&gt;Node15 -->
<g id="edge41" class="edge">
<title>Node2&#45;&gt;Node15</title>
<path fill="none" stroke="midnightblue" d="M1103.55,-247.95C1136.79,-240.22 1176.66,-228.2 1209.5,-210 1232.39,-197.32 1253.95,-176.52 1270.02,-160.79"/>
<polygon fill="midnightblue" stroke="midnightblue" points="1272.74,-163.02 1277.44,-153.53 1267.85,-158.02 1272.74,-163.02"/>
</g>
<!-- Node2&#45;&gt;Node16 -->
<g id="edge42" class="edge">
<title>Node2&#45;&gt;Node16</title>
<path fill="none" stroke="midnightblue" d="M1103.64,-255.85C1158.27,-250.19 1236.25,-237.68 1299.5,-210 1337.61,-193.32 1346.45,-184.72 1374.5,-154 1392.54,-134.24 1407.68,-107.06 1418.67,-89.63"/>
<polygon fill="midnightblue" stroke="midnightblue" points="1421.74,-91.34 1424.34,-81.07 1415.9,-87.47 1421.74,-91.34"/>
</g>
<!-- Node4 -->
<g id="node4" class="node">
<title>Node4</title>
<g id="a_node4"><a xlink:title=" ">
<polygon fill="none" stroke="#bfbfbf" points="1237.5,-0.5 1237.5,-19.5 1285.5,-19.5 1285.5,-0.5 1237.5,-0.5"/>
<text text-anchor="middle" x="1261.5" y="-7.5" font-family="Helvetica,sans-Serif" font-size="10.00">limits.h</text>
</a>
</g>
</g>
<!-- Node3&#45;&gt;Node4 -->
<g id="edge3" class="edge">
<title>Node3&#45;&gt;Node4</title>
<path fill="none" stroke="midnightblue" d="M1261.5,-61.98C1261.5,-53.58 1261.5,-40.48 1261.5,-29.66"/>
<polygon fill="midnightblue" stroke="midnightblue" points="1265,-29.51 1261.5,-19.51 1258,-29.51 1265,-29.51"/>
</g>
<!-- Node5&#45;&gt;Node6 -->
<g id="edge5" class="edge">
<title>Node5&#45;&gt;Node6</title>
<path fill="none" stroke="midnightblue" d="M760.09,-190.4C747.82,-175.09 726.23,-142.83 743.5,-123 781.71,-79.12 950.28,-72.13 1044.03,-71.74"/>
<polygon fill="midnightblue" stroke="midnightblue" points="1044.26,-75.24 1054.25,-71.72 1044.24,-68.24 1044.26,-75.24"/>
</g>
<!-- Node5&#45;&gt;Node7 -->
<g id="edge6" class="edge">
<title>Node5&#45;&gt;Node7</title>
<path fill="none" stroke="midnightblue" d="M811.51,-190.49C862.06,-181.6 947.13,-167.12 1020.5,-154 1027.85,-152.69 1035.59,-151.28 1043.31,-149.87"/>
<polygon fill="midnightblue" stroke="midnightblue" points="1044.19,-153.27 1053.4,-148.04 1042.94,-146.38 1044.19,-153.27"/>
</g>
<!-- Node8 -->
<g id="node8" class="node">
<title>Node8</title>
<g id="a_node8"><a xlink:href="sequence_8h.html" target="_top" xlink:title="Functions and data structures related to sequence representations ,.">
<polygon fill="none" stroke="black" points="407.5,-129 407.5,-148 529.5,-148 529.5,-129 407.5,-129"/>
<text text-anchor="middle" x="468.5" y="-136" font-family="Helvetica,sans-Serif" font-size="10.00">ViennaRNA/sequence.h</text>
</a>
</g>
</g>
<!-- Node5&#45;&gt;Node8 -->
<g id="edge11" class="edge">
<title>Node5&#45;&gt;Node8</title>
<path fill="none" stroke="midnightblue" d="M719.76,-190.48C663.93,-179.83 572.25,-161.61 516.36,-150.08"/>
<polygon fill="midnightblue" stroke="midnightblue" points="516.86,-146.61 506.36,-148.01 515.45,-153.46 516.86,-146.61"/>
</g>
<!-- Node5&#45;&gt;Node9 -->
<g id="edge13" class="edge">
<title>Node5&#45;&gt;Node9</title>
<path fill="none" stroke="midnightblue" d="M789.25,-190.48C819.44,-180.09 874.21,-162.51 912.24,-150.95"/>
<polygon fill="midnightblue" stroke="midnightblue" points="913.44,-154.25 922,-148.01 911.42,-147.55 913.44,-154.25"/>
</g>
<!-- Node5&#45;&gt;Node10 -->
<g id="edge16" class="edge">
<title>Node5&#45;&gt;Node10</title>
<path fill="none" stroke="midnightblue" d="M694.35,-192.62C620.24,-185.35 502.36,-172.29 396.76,-155.18"/>
<polygon fill="midnightblue" stroke="midnightblue" points="397.02,-151.67 386.58,-153.51 395.88,-158.58 397.02,-151.67"/>
</g>
<!-- Node5&#45;&gt;Node12 -->
<g id="edge20" class="edge">
<title>Node5&#45;&gt;Node12</title>
<path fill="none" stroke="midnightblue" d="M694.48,-197.35C575.76,-193.87 333.81,-183.59 125.46,-154.95"/>
<polygon fill="midnightblue" stroke="midnightblue" points="125.64,-151.44 115.25,-153.52 124.67,-158.37 125.64,-151.44"/>
</g>
<!-- Node5&#45;&gt;Node13 -->
<g id="edge24" class="edge">
<title>Node5&#45;&gt;Node13</title>
<path fill="none" stroke="midnightblue" d="M768.76,-190.48C773.31,-181.46 783.34,-167.02 792.62,-155.81"/>
<polygon fill="midnightblue" stroke="midnightblue" points="795.49,-157.84 799.45,-148.01 790.23,-153.22 795.49,-157.84"/>
</g>
<!-- Node5&#45;&gt;Node14 -->
<g id="edge26" class="edge">
<title>Node5&#45;&gt;Node14</title>
<path fill="none" stroke="midnightblue" d="M694.1,-195.43C597.21,-190.07 421.19,-178.05 261.99,-154.11"/>
<polygon fill="midnightblue" stroke="midnightblue" points="262.42,-150.63 252.01,-152.59 261.37,-157.55 262.42,-150.63"/>
</g>
<!-- Node5&#45;&gt;Node15 -->
<g id="edge27" class="edge">
<title>Node5&#45;&gt;Node15</title>
<path fill="none" stroke="midnightblue" d="M840.6,-190.98C922.47,-182.39 1058.92,-168.08 1176.5,-154 1191.4,-152.22 1207.43,-150.17 1222.76,-148.2"/>
<polygon fill="midnightblue" stroke="midnightblue" points="1223.25,-151.66 1232.72,-146.91 1222.36,-144.72 1223.25,-151.66"/>
</g>
<!-- Node18 -->
<g id="node18" class="node">
<title>Node18</title>
<g id="a_node18"><a xlink:href="zscore_8h_source.html" target="_top" xlink:title=" ">
<polygon fill="none" stroke="black" points="586,-129 586,-148 695,-148 695,-129 586,-129"/>
<text text-anchor="middle" x="640.5" y="-136" font-family="Helvetica,sans-Serif" font-size="10.00">ViennaRNA/zscore.h</text>
</a>
</g>
</g>
<!-- Node5&#45;&gt;Node18 -->
<g id="edge33" class="edge">
<title>Node5&#45;&gt;Node18</title>
<path fill="none" stroke="midnightblue" d="M749.3,-190.48C727.99,-180.49 692.47,-163.85 667.84,-152.31"/>
<polygon fill="midnightblue" stroke="midnightblue" points="669.2,-149.08 658.66,-148.01 666.23,-155.42 669.2,-149.08"/>
</g>
<!-- Node7&#45;&gt;Node2 -->
<g id="edge8" class="edge">
<title>Node7&#45;&gt;Node2</title>
<path fill="none" stroke="midnightblue" d="M1106.16,-148.05C1098.74,-166.48 1073.52,-210.46 1055.34,-237.63"/>
<polygon fill="midnightblue" stroke="midnightblue" points="1052.27,-235.92 1049.48,-246.14 1058.03,-239.89 1052.27,-235.92"/>
</g>
<!-- Node7&#45;&gt;Node3 -->
<g id="edge7" class="edge">
<title>Node7&#45;&gt;Node3</title>
<path fill="none" stroke="midnightblue" d="M1127.95,-128.87C1154.53,-117.65 1201.14,-97.98 1231.67,-85.09"/>
<polygon fill="midnightblue" stroke="midnightblue" points="1233.11,-88.28 1240.97,-81.17 1230.39,-81.83 1233.11,-88.28"/>
</g>
<!-- Node7&#45;&gt;Node5 -->
<g id="edge9" class="edge">
<title>Node7&#45;&gt;Node5</title>
<path fill="none" stroke="midnightblue" d="M1070.89,-148.04C1060.45,-150.02 1049.08,-152.11 1038.5,-154 969.43,-166.35 889.99,-179.9 834.97,-188.87"/>
<polygon fill="midnightblue" stroke="midnightblue" points="834.3,-185.44 824.99,-190.49 835.42,-192.35 834.3,-185.44"/>
</g>
<!-- Node7&#45;&gt;Node6 -->
<g id="edge10" class="edge">
<title>Node7&#45;&gt;Node6</title>
<path fill="none" stroke="midnightblue" d="M1107.5,-128.73C1107.5,-119.18 1107.5,-103.62 1107.5,-91.28"/>
<polygon fill="midnightblue" stroke="midnightblue" points="1111,-91.13 1107.5,-81.13 1104,-91.13 1111,-91.13"/>
</g>
<!-- Node8&#45;&gt;Node5 -->
<g id="edge12" class="edge">
<title>Node8&#45;&gt;Node5</title>
<path fill="none" stroke="midnightblue" d="M516.16,-148.01C571.95,-158.65 663.64,-176.87 719.55,-188.4"/>
<polygon fill="midnightblue" stroke="midnightblue" points="719.06,-191.87 729.56,-190.48 720.48,-185.02 719.06,-191.87"/>
</g>
<!-- Node9&#45;&gt;Node2 -->
<g id="edge14" class="edge">
<title>Node9&#45;&gt;Node2</title>
<path fill="none" stroke="midnightblue" d="M963.04,-148.05C979.01,-166.4 1009.56,-210.08 1026.02,-237.28"/>
<polygon fill="midnightblue" stroke="midnightblue" points="1023.14,-239.28 1031.21,-246.14 1029.18,-235.75 1023.14,-239.28"/>
</g>
<!-- Node9&#45;&gt;Node5 -->
<g id="edge15" class="edge">
<title>Node9&#45;&gt;Node5</title>
<path fill="none" stroke="midnightblue" d="M931.8,-148.01C901.63,-158.38 846.86,-175.96 808.82,-187.53"/>
<polygon fill="midnightblue" stroke="midnightblue" points="807.61,-184.24 799.05,-190.48 809.63,-190.94 807.61,-184.24"/>
</g>
<!-- Node10&#45;&gt;Node5 -->
<g id="edge17" class="edge">
<title>Node10&#45;&gt;Node5</title>
<path fill="none" stroke="midnightblue" d="M389.21,-150.69C395.4,-151.88 401.58,-153.02 407.5,-154 502.06,-169.67 611.09,-182.3 684.23,-190.15"/>
<polygon fill="midnightblue" stroke="midnightblue" points="683.99,-193.65 694.3,-191.23 684.73,-186.68 683.99,-193.65"/>
</g>
<!-- Node11 -->
<g id="node11" class="node">
<title>Node11</title>
<g id="a_node11"><a xlink:href="constraints_2basic_8h.html" target="_top" xlink:title="Functions and data structures for constraining secondary structure predictions and evaluation.">
<polygon fill="none" stroke="black" points="270,-56.5 270,-86.5 389,-86.5 389,-56.5 270,-56.5"/>
<text text-anchor="start" x="278" y="-74.5" font-family="Helvetica,sans-Serif" font-size="10.00">ViennaRNA/constraints</text>
<text text-anchor="middle" x="329.5" y="-63.5" font-family="Helvetica,sans-Serif" font-size="10.00">/basic.h</text>
</a>
</g>
</g>
<!-- Node10&#45;&gt;Node11 -->
<g id="edge18" class="edge">
<title>Node10&#45;&gt;Node11</title>
<path fill="none" stroke="midnightblue" d="M329.5,-123.4C329.5,-115.64 329.5,-105.81 329.5,-96.86"/>
<polygon fill="midnightblue" stroke="midnightblue" points="333,-96.58 329.5,-86.58 326,-96.58 333,-96.58"/>
</g>
<!-- Node11&#45;&gt;Node5 -->
<g id="edge19" class="edge">
<title>Node11&#45;&gt;Node5</title>
<path fill="none" stroke="midnightblue" d="M389.13,-79.68C432.32,-86.57 491.19,-99.52 538.5,-123 558.02,-132.69 556.95,-144.37 576.5,-154 611.42,-171.21 653.21,-182.02 688.79,-188.71"/>
<polygon fill="midnightblue" stroke="midnightblue" points="688.19,-192.16 698.65,-190.5 689.43,-185.27 688.19,-192.16"/>
</g>
<!-- Node12&#45;&gt;Node2 -->
<g id="edge21" class="edge">
<title>Node12&#45;&gt;Node2</title>
<path fill="none" stroke="midnightblue" d="M119.28,-150.54C125.12,-151.74 130.93,-152.91 136.5,-154 276.93,-181.37 311.64,-191.46 453.5,-210 634.02,-233.6 847,-248.66 958.94,-255.74"/>
<polygon fill="midnightblue" stroke="midnightblue" points="958.93,-259.25 969.13,-256.38 959.37,-252.26 958.93,-259.25"/>
</g>
<!-- Node12&#45;&gt;Node5 -->
<g id="edge22" class="edge">
<title>Node12&#45;&gt;Node5</title>
<path fill="none" stroke="midnightblue" d="M119.18,-151.13C125.04,-152.22 130.88,-153.21 136.5,-154 331.55,-181.52 562.53,-192.49 683.75,-196.65"/>
<polygon fill="midnightblue" stroke="midnightblue" points="683.96,-200.15 694.07,-196.99 684.19,-193.16 683.96,-200.15"/>
</g>
<!-- Node12&#45;&gt;Node11 -->
<g id="edge23" class="edge">
<title>Node12&#45;&gt;Node11</title>
<path fill="none" stroke="midnightblue" d="M117.75,-123.48C159.84,-113.34 216.82,-99.63 261.08,-88.97"/>
<polygon fill="midnightblue" stroke="midnightblue" points="261.98,-92.35 270.89,-86.61 260.34,-85.55 261.98,-92.35"/>
</g>
<!-- Node13&#45;&gt;Node5 -->
<g id="edge25" class="edge">
<title>Node13&#45;&gt;Node5</title>
<path fill="none" stroke="midnightblue" d="M809.25,-148.01C804.71,-157.02 794.67,-171.45 785.4,-182.67"/>
<polygon fill="midnightblue" stroke="midnightblue" points="782.52,-180.65 778.56,-190.48 787.78,-185.26 782.52,-180.65"/>
</g>
<!-- Node15&#45;&gt;Node2 -->
<g id="edge28" class="edge">
<title>Node15&#45;&gt;Node2</title>
<path fill="none" stroke="midnightblue" d="M1290.36,-153.53C1278.97,-169.49 1254.13,-195.24 1227.5,-210 1192.76,-229.25 1150.16,-241.59 1113.95,-249.25"/>
<polygon fill="midnightblue" stroke="midnightblue" points="1113.02,-245.86 1103.92,-251.28 1114.42,-252.72 1113.02,-245.86"/>
</g>
<!-- Node15&#45;&gt;Node5 -->
<g id="edge29" class="edge">
<title>Node15&#45;&gt;Node5</title>
<path fill="none" stroke="midnightblue" d="M1232.79,-149.18C1220.14,-150.84 1206.93,-152.51 1194.5,-154 1075.47,-168.25 937.11,-182.74 850.85,-191.29"/>
<polygon fill="midnightblue" stroke="midnightblue" points="850.46,-187.81 840.85,-192.28 851.15,-194.78 850.46,-187.81"/>
</g>
<!-- Node15&#45;&gt;Node16 -->
<g id="edge30" class="edge">
<title>Node15&#45;&gt;Node16</title>
<path fill="none" stroke="midnightblue" d="M1325.44,-123.4C1349.44,-112.09 1382.84,-96.36 1406.13,-85.39"/>
<polygon fill="midnightblue" stroke="midnightblue" points="1407.88,-88.43 1415.44,-81.01 1404.9,-82.1 1407.88,-88.43"/>
</g>
<!-- Node16&#45;&gt;Node2 -->
<g id="edge32" class="edge">
<title>Node16&#45;&gt;Node2</title>
<path fill="none" stroke="midnightblue" d="M1434.86,-81.07C1431.19,-96.74 1413.88,-130.58 1392.5,-154 1364.45,-184.72 1355.61,-193.32 1317.5,-210 1252.54,-238.43 1172.04,-250.86 1113.81,-256.29"/>
<polygon fill="midnightblue" stroke="midnightblue" points="1113.22,-252.83 1103.56,-257.2 1113.83,-259.81 1113.22,-252.83"/>
</g>
<!-- Node17 -->
<g id="node17" class="node">
<title>Node17</title>
<g id="a_node17"><a xlink:title=" ">
<polygon fill="none" stroke="#bfbfbf" points="1410.5,-0.5 1410.5,-19.5 1456.5,-19.5 1456.5,-0.5 1410.5,-0.5"/>
<text text-anchor="middle" x="1433.5" y="-7.5" font-family="Helvetica,sans-Serif" font-size="10.00">stdio.h</text>
</a>
</g>
</g>
<!-- Node16&#45;&gt;Node17 -->
<g id="edge31" class="edge">
<title>Node16&#45;&gt;Node17</title>
<path fill="none" stroke="midnightblue" d="M1433.5,-61.98C1433.5,-53.58 1433.5,-40.48 1433.5,-29.66"/>
<polygon fill="midnightblue" stroke="midnightblue" points="1437,-29.51 1433.5,-19.51 1430,-29.51 1437,-29.51"/>
</g>
</g>
</svg>
        <g id="navigator" transform="translate(0 0)" fill="#404254">
                <rect fill="#f2f5e9" fill-opacity="0.5" stroke="#606060" stroke-width=".5" x="0" y="0" width="60" height="60"/>
                <use id="zoomplus" xlink:href="#zoomPlus" x="17" y="9" onmousedown="handleZoom(evt,'in')"/>
                <use id="zoomminus" xlink:href="#zoomMin" x="42" y="9" onmousedown="handleZoom(evt,'out')"/>
                <use id="reset" xlink:href="#resetDef" x="30" y="36" onmousedown="handleReset()"/>
                <g id="arrowUp" xlink:href="#dirArrow" transform="translate(30 24)" onmousedown="handlePan(0,-1)">
                  <use xlink:href="#rim" fill="#404040">
                        <set attributeName="fill" to="#808080" begin="arrowUp.mouseover" end="arrowUp.mouseout"/>
                  </use>
                  <path fill="none" stroke="white" stroke-width="1.5" d="M0,-3.0v7 M-2.5,-0.5L0,-3.0L2.5,-0.5"/>
                </g>
                <g id="arrowRight" xlink:href="#dirArrow" transform="rotate(90) translate(36 -43)" onmousedown="handlePan(1,0)">
                  <use xlink:href="#rim" fill="#404040">
                        <set attributeName="fill" to="#808080" begin="arrowRight.mouseover" end="arrowRight.mouseout"/>
                  </use>
                  <path fill="none" stroke="white" stroke-width="1.5" d="M0,-3.0v7 M-2.5,-0.5L0,-3.0L2.5,-0.5"/>
                </g>
                <g id="arrowDown" xlink:href="#dirArrow" transform="rotate(180) translate(-30 -48)" onmousedown="handlePan(0,1)">
                  <use xlink:href="#rim" fill="#404040">
                        <set attributeName="fill" to="#808080" begin="arrowDown.mouseover" end="arrowDown.mouseout"/>
                  </use>
                  <path fill="none" stroke="white" stroke-width="1.5" d="M0,-3.0v7 M-2.5,-0.5L0,-3.0L2.5,-0.5"/>
                </g>
                <g id="arrowLeft" xlink:href="#dirArrow" transform="rotate(270) translate(-36 17)" onmousedown="handlePan(-1,0)">
                  <use xlink:href="#rim" fill="#404040">
                        <set attributeName="fill" to="#808080" begin="arrowLeft.mouseover" end="arrowLeft.mouseout"/>
                  </use>
                  <path fill="none" stroke="white" stroke-width="1.5" d="M0,-3.0v7 M-2.5,-0.5L0,-3.0L2.5,-0.5"/>
                </g>
        </g>
        <svg viewBox="0 0 15 15" width="100%" height="30px" preserveAspectRatio="xMaxYMin meet">
         <g id="arrow_out" transform="scale(0.3 0.3)">
          <a xlink:href="centroid_8h__incl_org.svg" target="_base">
           <rect id="button" ry="5" rx="5" y="6" x="6" height="38" width="38"
                fill="#f2f5e9" fill-opacity="0.5" stroke="#606060" stroke-width="1.0"/>
           <path id="arrow"
             d="M 11.500037,31.436501 C 11.940474,20.09759 22.043105,11.32322 32.158766,21.979434 L 37.068811,17.246167 C 37.068811,17.246167 37.088388,32 37.088388,32 L 22.160133,31.978069 C 22.160133,31.978069 26.997745,27.140456 26.997745,27.140456 C 18.528582,18.264221 13.291696,25.230495 11.500037,31.436501 z"
             style="fill:#404040;"/>
          </a>
         </g>
        </svg>
</svg>
