<?xml version="1.0" encoding="UTF-8" standalone="no"?>
<!DOCTYPE svg PUBLIC "-//W3C//DTD SVG 1.1//EN"
 "http://www.w3.org/Graphics/SVG/1.1/DTD/svg11.dtd">
<!-- Generated by graphviz version 2.47.0 (0)
 -->
<!-- Title: ViennaRNA/centroid.h Pages: 1 -->
<svg width="268pt" height="140pt"
 viewBox="0.00 0.00 267.50 140.00" xmlns="http://www.w3.org/2000/svg" xmlns:xlink="http://www.w3.org/1999/xlink">
<g id="graph0" class="graph" transform="scale(1 1) rotate(0) translate(4 136)">
<title>ViennaRNA/centroid.h</title>
<!-- Node1 -->
<g id="node1" class="node">
<title>Node1</title>
<g id="a_node1"><a xlink:title="Centroid structure computation.">
<polygon fill="#bfbfbf" stroke="black" points="64.5,-112.5 64.5,-131.5 178.5,-131.5 178.5,-112.5 64.5,-112.5"/>
<text text-anchor="middle" x="121.5" y="-119.5" font-family="Helvetica,sans-Serif" font-size="10.00">ViennaRNA/centroid.h</text>
</a>
</g>
</g>
<!-- Node2 -->
<g id="node2" class="node">
<title>Node2</title>
<g id="a_node2"><a xlink:href="part__func_8h.html" target="_top" xlink:title="Partition function implementations.">
<polygon fill="none" stroke="black" points="61.5,-56.5 61.5,-75.5 181.5,-75.5 181.5,-56.5 61.5,-56.5"/>
<text text-anchor="middle" x="121.5" y="-63.5" font-family="Helvetica,sans-Serif" font-size="10.00">ViennaRNA/part_func.h</text>
</a>
</g>
</g>
<!-- Node1&#45;&gt;Node2 -->
<g id="edge1" class="edge">
<title>Node1&#45;&gt;Node2</title>
<path fill="none" stroke="midnightblue" d="M121.5,-101.8C121.5,-92.91 121.5,-82.78 121.5,-75.75"/>
<polygon fill="midnightblue" stroke="midnightblue" points="118,-102.08 121.5,-112.08 125,-102.08 118,-102.08"/>
</g>
<!-- Node3 -->
<g id="node3" class="node">
<title>Node3</title>
<g id="a_node3"><a xlink:href="alifold_8h.html" target="_top" xlink:title="Functions for comparative structure prediction using RNA sequence alignments.">
<polygon fill="none" stroke="black" points="0,-0.5 0,-19.5 105,-19.5 105,-0.5 0,-0.5"/>
<text text-anchor="middle" x="52.5" y="-7.5" font-family="Helvetica,sans-Serif" font-size="10.00">ViennaRNA/alifold.h</text>
</a>
</g>
</g>
<!-- Node2&#45;&gt;Node3 -->
<g id="edge2" class="edge">
<title>Node2&#45;&gt;Node3</title>
<path fill="none" stroke="midnightblue" d="M102.46,-50.1C90.04,-40.38 74.26,-28.03 63.79,-19.83"/>
<polygon fill="midnightblue" stroke="midnightblue" points="100.38,-52.92 110.41,-56.32 104.7,-47.4 100.38,-52.92"/>
</g>
<!-- Node4 -->
<g id="node4" class="node">
<title>Node4</title>
<g id="a_node4"><a xlink:href="part__func__co_8h.html" target="_top" xlink:title="Partition function for two RNA sequences.">
<polygon fill="none" stroke="black" points="123.5,-0.5 123.5,-19.5 259.5,-19.5 259.5,-0.5 123.5,-0.5"/>
<text text-anchor="middle" x="191.5" y="-7.5" font-family="Helvetica,sans-Serif" font-size="10.00">ViennaRNA/part_func_co.h</text>
</a>
</g>
</g>
<!-- Node2&#45;&gt;Node4 -->
<g id="edge3" class="edge">
<title>Node2&#45;&gt;Node4</title>
<path fill="none" stroke="midnightblue" d="M140.81,-50.1C153.41,-40.38 169.43,-28.03 180.05,-19.83"/>
<polygon fill="midnightblue" stroke="midnightblue" points="138.53,-47.44 132.75,-56.32 142.8,-52.99 138.53,-47.44"/>
</g>
</g>
</svg>
