<?xml version="1.0" encoding="UTF-8" standalone="no"?>
<!DOCTYPE svg PUBLIC "-//W3C//DTD SVG 1.1//EN"
 "http://www.w3.org/Graphics/SVG/1.1/DTD/svg11.dtd">
<!-- Generated by graphviz version 2.47.0 (0)
 -->
<!-- Title: ViennaRNA/cofold.h Pages: 1 -->
<svg width="1560pt" height="397pt"
 viewBox="0.00 0.00 1560.00 397.00" xmlns="http://www.w3.org/2000/svg" xmlns:xlink="http://www.w3.org/1999/xlink">
<g id="graph0" class="graph" transform="scale(1 1) rotate(0) translate(4 393)">
<title>ViennaRNA/cofold.h</title>
<!-- Node1 -->
<g id="node1" class="node">
<title>Node1</title>
<g id="a_node1"><a xlink:title="MFE implementations for RNA&#45;RNA interaction.">
<polygon fill="#bfbfbf" stroke="black" points="561,-369.5 561,-388.5 667,-388.5 667,-369.5 561,-369.5"/>
<text text-anchor="middle" x="614" y="-376.5" font-family="Helvetica,sans-Serif" font-size="10.00">ViennaRNA/cofold.h</text>
</a>
</g>
</g>
<!-- Node2 -->
<g id="node2" class="node">
<title>Node2</title>
<g id="a_node2"><a xlink:href="datastructures_2basic_8h.html" target="_top" xlink:title="Various data structures and pre&#45;processor macros.">
<polygon fill="none" stroke="black" points="547,-246.5 547,-276.5 681,-276.5 681,-246.5 547,-246.5"/>
<text text-anchor="start" x="555" y="-264.5" font-family="Helvetica,sans-Serif" font-size="10.00">ViennaRNA/datastructures</text>
<text text-anchor="middle" x="614" y="-253.5" font-family="Helvetica,sans-Serif" font-size="10.00">/basic.h</text>
</a>
</g>
</g>
<!-- Node1&#45;&gt;Node2 -->
<g id="edge1" class="edge">
<title>Node1&#45;&gt;Node2</title>
<path fill="none" stroke="midnightblue" d="M614,-369.32C614,-351.97 614,-312.46 614,-286.66"/>
<polygon fill="midnightblue" stroke="midnightblue" points="617.5,-286.55 614,-276.55 610.5,-286.55 617.5,-286.55"/>
</g>
<!-- Node7 -->
<g id="node7" class="node">
<title>Node7</title>
<g id="a_node7"><a xlink:href="params_2basic_8h.html" target="_top" xlink:title="Functions to deal with sets of energy parameters.">
<polygon fill="none" stroke="black" points="85,-129 85,-148 223,-148 223,-129 85,-129"/>
<text text-anchor="middle" x="154" y="-136" font-family="Helvetica,sans-Serif" font-size="10.00">ViennaRNA/params/basic.h</text>
</a>
</g>
</g>
<!-- Node1&#45;&gt;Node7 -->
<g id="edge43" class="edge">
<title>Node1&#45;&gt;Node7</title>
<path fill="none" stroke="midnightblue" d="M572.18,-369.45C492.77,-351.51 317.76,-303.63 202,-210 184.25,-195.64 170.46,-173 162.31,-157.26"/>
<polygon fill="midnightblue" stroke="midnightblue" points="165.34,-155.5 157.78,-148.07 159.06,-158.59 165.34,-155.5"/>
</g>
<!-- Node19 -->
<g id="node19" class="node">
<title>Node19</title>
<g id="a_node19"><a xlink:href="mfe_8h.html" target="_top" xlink:title="Compute Minimum Free energy (MFE) and backtrace corresponding secondary structures from RNA sequence ...">
<polygon fill="none" stroke="black" points="654,-313.5 654,-332.5 750,-332.5 750,-313.5 654,-313.5"/>
<text text-anchor="middle" x="702" y="-320.5" font-family="Helvetica,sans-Serif" font-size="10.00">ViennaRNA/mfe.h</text>
</a>
</g>
</g>
<!-- Node1&#45;&gt;Node19 -->
<g id="edge44" class="edge">
<title>Node1&#45;&gt;Node19</title>
<path fill="none" stroke="midnightblue" d="M628.14,-369.32C641.87,-360.9 662.94,-347.97 679.06,-338.07"/>
<polygon fill="midnightblue" stroke="midnightblue" points="681.2,-340.87 687.9,-332.65 677.54,-334.9 681.2,-340.87"/>
</g>
<!-- Node3 -->
<g id="node3" class="node">
<title>Node3</title>
<g id="a_node3"><a xlink:href="constants_8h.html" target="_top" xlink:title="Energy parameter constants.">
<polygon fill="none" stroke="black" points="0,-62 0,-81 158,-81 158,-62 0,-62"/>
<text text-anchor="middle" x="79" y="-69" font-family="Helvetica,sans-Serif" font-size="10.00">ViennaRNA/params/constants.h</text>
</a>
</g>
</g>
<!-- Node2&#45;&gt;Node3 -->
<g id="edge2" class="edge">
<title>Node2&#45;&gt;Node3</title>
<path fill="none" stroke="midnightblue" d="M546.82,-258.35C464.27,-254.33 320.59,-242.83 202,-210 142.94,-193.65 109.39,-205.38 76,-154 63.8,-135.22 67.82,-108.54 72.67,-90.88"/>
<polygon fill="midnightblue" stroke="midnightblue" points="76.05,-91.8 75.67,-81.21 69.37,-89.73 76.05,-91.8"/>
</g>
<!-- Node5 -->
<g id="node5" class="node">
<title>Node5</title>
<g id="a_node5"><a xlink:href="fold__compound_8h.html" target="_top" xlink:title="The Basic Fold Compound API.">
<polygon fill="none" stroke="black" points="642,-190.5 642,-209.5 788,-209.5 788,-190.5 642,-190.5"/>
<text text-anchor="middle" x="715" y="-197.5" font-family="Helvetica,sans-Serif" font-size="10.00">ViennaRNA/fold_compound.h</text>
</a>
</g>
</g>
<!-- Node2&#45;&gt;Node5 -->
<g id="edge4" class="edge">
<title>Node2&#45;&gt;Node5</title>
<path fill="none" stroke="midnightblue" d="M637.94,-246.4C654.13,-236.86 675.41,-224.32 691.5,-214.84"/>
<polygon fill="midnightblue" stroke="midnightblue" points="693.46,-217.75 700.3,-209.66 689.91,-211.72 693.46,-217.75"/>
</g>
<!-- Node6 -->
<g id="node6" class="node">
<title>Node6</title>
<g id="a_node6"><a xlink:href="model_8h.html" target="_top" xlink:title="The model details data structure and its corresponding modifiers.">
<polygon fill="none" stroke="black" points="198,-62 198,-81 304,-81 304,-62 198,-62"/>
<text text-anchor="middle" x="251" y="-69" font-family="Helvetica,sans-Serif" font-size="10.00">ViennaRNA/model.h</text>
</a>
</g>
</g>
<!-- Node2&#45;&gt;Node6 -->
<g id="edge34" class="edge">
<title>Node2&#45;&gt;Node6</title>
<path fill="none" stroke="midnightblue" d="M546.76,-258.52C469.2,-252.5 343.12,-230.62 271,-154 255.12,-137.13 251.25,-109.78 250.6,-91.47"/>
<polygon fill="midnightblue" stroke="midnightblue" points="254.1,-91.39 250.53,-81.42 247.1,-91.44 254.1,-91.39"/>
</g>
<!-- Node2&#45;&gt;Node7 -->
<g id="edge35" class="edge">
<title>Node2&#45;&gt;Node7</title>
<path fill="none" stroke="midnightblue" d="M546.88,-256.49C451.67,-249.77 283.13,-234.53 228,-210 200.31,-197.68 174.75,-173.14 161.72,-156.52"/>
<polygon fill="midnightblue" stroke="midnightblue" points="164.48,-154.36 155.84,-148.23 158.77,-158.41 164.48,-154.36"/>
</g>
<!-- Node9 -->
<g id="node9" class="node">
<title>Node9</title>
<g id="a_node9"><a xlink:href="dp__matrices_8h.html" target="_top" xlink:title="Functions to deal with standard dynamic programming (DP) matrices.">
<polygon fill="none" stroke="black" points="279.5,-129 279.5,-148 412.5,-148 412.5,-129 279.5,-129"/>
<text text-anchor="middle" x="346" y="-136" font-family="Helvetica,sans-Serif" font-size="10.00">ViennaRNA/dp_matrices.h</text>
</a>
</g>
</g>
<!-- Node2&#45;&gt;Node9 -->
<g id="edge36" class="edge">
<title>Node2&#45;&gt;Node9</title>
<path fill="none" stroke="midnightblue" d="M578.21,-246.38C522.86,-222.75 418.32,-175.53 370.62,-152.6"/>
<polygon fill="midnightblue" stroke="midnightblue" points="371.87,-149.32 361.35,-148.09 368.81,-155.61 371.87,-149.32"/>
</g>
<!-- Node10 -->
<g id="node10" class="node">
<title>Node10</title>
<g id="a_node10"><a xlink:href="hard_8h.html" target="_top" xlink:title="Functions and data structures for handling of secondary structure hard constraints.">
<polygon fill="none" stroke="black" points="567.5,-123.5 567.5,-153.5 686.5,-153.5 686.5,-123.5 567.5,-123.5"/>
<text text-anchor="start" x="575.5" y="-141.5" font-family="Helvetica,sans-Serif" font-size="10.00">ViennaRNA/constraints</text>
<text text-anchor="middle" x="627" y="-130.5" font-family="Helvetica,sans-Serif" font-size="10.00">/hard.h</text>
</a>
</g>
</g>
<!-- Node2&#45;&gt;Node10 -->
<g id="edge37" class="edge">
<title>Node2&#45;&gt;Node10</title>
<path fill="none" stroke="midnightblue" d="M615.54,-246.14C617.72,-225.86 621.73,-188.53 624.38,-163.86"/>
<polygon fill="midnightblue" stroke="midnightblue" points="627.87,-164.15 625.46,-153.84 620.91,-163.41 627.87,-164.15"/>
</g>
<!-- Node12 -->
<g id="node12" class="node">
<title>Node12</title>
<g id="a_node12"><a xlink:href="soft_8h.html" target="_top" xlink:title="Functions and data structures for secondary structure soft constraints.">
<polygon fill="none" stroke="black" points="430.5,-123.5 430.5,-153.5 549.5,-153.5 549.5,-123.5 430.5,-123.5"/>
<text text-anchor="start" x="438.5" y="-141.5" font-family="Helvetica,sans-Serif" font-size="10.00">ViennaRNA/constraints</text>
<text text-anchor="middle" x="490" y="-130.5" font-family="Helvetica,sans-Serif" font-size="10.00">/soft.h</text>
</a>
</g>
</g>
<!-- Node2&#45;&gt;Node12 -->
<g id="edge38" class="edge">
<title>Node2&#45;&gt;Node12</title>
<path fill="none" stroke="midnightblue" d="M595.01,-246.38C570.77,-225.34 529.78,-185.6 506.69,-160.96"/>
<polygon fill="midnightblue" stroke="midnightblue" points="509.21,-158.52 499.86,-153.53 504.05,-163.26 509.21,-158.52"/>
</g>
<!-- Node13 -->
<g id="node13" class="node">
<title>Node13</title>
<g id="a_node13"><a xlink:href="grammar_8h.html" target="_top" xlink:title="Implementations for the RNA folding grammar.">
<polygon fill="none" stroke="black" points="1048.5,-129 1048.5,-148 1165.5,-148 1165.5,-129 1048.5,-129"/>
<text text-anchor="middle" x="1107" y="-136" font-family="Helvetica,sans-Serif" font-size="10.00">ViennaRNA/grammar.h</text>
</a>
</g>
</g>
<!-- Node2&#45;&gt;Node13 -->
<g id="edge39" class="edge">
<title>Node2&#45;&gt;Node13</title>
<path fill="none" stroke="midnightblue" d="M671.52,-246.38C770.94,-221.98 972.86,-172.42 1062.46,-150.43"/>
<polygon fill="midnightblue" stroke="midnightblue" points="1063.42,-153.8 1072.3,-148.02 1061.76,-147 1063.42,-153.8"/>
</g>
<!-- Node14 -->
<g id="node14" class="node">
<title>Node14</title>
<g id="a_node14"><a xlink:href="structured__domains_8h.html" target="_top" xlink:title="This module provides interfaces that deal with additional structured domains in the folding grammar.">
<polygon fill="none" stroke="black" points="1326.5,-123.5 1326.5,-153.5 1441.5,-153.5 1441.5,-123.5 1326.5,-123.5"/>
<text text-anchor="start" x="1334.5" y="-141.5" font-family="Helvetica,sans-Serif" font-size="10.00">ViennaRNA/structured</text>
<text text-anchor="middle" x="1384" y="-130.5" font-family="Helvetica,sans-Serif" font-size="10.00">_domains.h</text>
</a>
</g>
</g>
<!-- Node2&#45;&gt;Node14 -->
<g id="edge40" class="edge">
<title>Node2&#45;&gt;Node14</title>
<path fill="none" stroke="midnightblue" d="M681.23,-251.87C805.07,-235.65 1077.69,-198.36 1316.54,-154.21"/>
<polygon fill="midnightblue" stroke="midnightblue" points="1317.26,-157.64 1326.45,-152.37 1315.98,-150.76 1317.26,-157.64"/>
</g>
<!-- Node15 -->
<g id="node15" class="node">
<title>Node15</title>
<g id="a_node15"><a xlink:href="unstructured__domains_8h.html" target="_top" xlink:title="Functions to modify unstructured domains, e.g. to incorporate ligands binding to unpaired stretches.">
<polygon fill="none" stroke="black" points="1183.5,-123.5 1183.5,-153.5 1308.5,-153.5 1308.5,-123.5 1183.5,-123.5"/>
<text text-anchor="start" x="1191.5" y="-141.5" font-family="Helvetica,sans-Serif" font-size="10.00">ViennaRNA/unstructured</text>
<text text-anchor="middle" x="1246" y="-130.5" font-family="Helvetica,sans-Serif" font-size="10.00">_domains.h</text>
</a>
</g>
</g>
<!-- Node2&#45;&gt;Node15 -->
<g id="edge41" class="edge">
<title>Node2&#45;&gt;Node15</title>
<path fill="none" stroke="midnightblue" d="M681.24,-246.95C785.27,-227.03 991.17,-188.45 1166,-154 1168.34,-153.54 1170.73,-153.07 1173.14,-152.59"/>
<polygon fill="midnightblue" stroke="midnightblue" points="1174.06,-155.97 1183.18,-150.58 1172.69,-149.11 1174.06,-155.97"/>
</g>
<!-- Node16 -->
<g id="node16" class="node">
<title>Node16</title>
<g id="a_node16"><a xlink:href="utils_2structures_8h.html" target="_top" xlink:title="Various utility&#45; and helper&#45;functions for secondary structure parsing, converting,...">
<polygon fill="none" stroke="black" points="1380,-62 1380,-81 1524,-81 1524,-62 1380,-62"/>
<text text-anchor="middle" x="1452" y="-69" font-family="Helvetica,sans-Serif" font-size="10.00">ViennaRNA/utils/structures.h</text>
</a>
</g>
</g>
<!-- Node2&#45;&gt;Node16 -->
<g id="edge42" class="edge">
<title>Node2&#45;&gt;Node16</title>
<path fill="none" stroke="midnightblue" d="M681.09,-256.75C869.36,-245.86 1391.71,-211.33 1442,-154 1456.84,-137.09 1453.63,-109.74 1451.22,-91.45"/>
<polygon fill="midnightblue" stroke="midnightblue" points="1454.68,-90.91 1450,-81.4 1447.74,-91.75 1454.68,-90.91"/>
</g>
<!-- Node4 -->
<g id="node4" class="node">
<title>Node4</title>
<g id="a_node4"><a xlink:title=" ">
<polygon fill="none" stroke="#bfbfbf" points="55,-0.5 55,-19.5 103,-19.5 103,-0.5 55,-0.5"/>
<text text-anchor="middle" x="79" y="-7.5" font-family="Helvetica,sans-Serif" font-size="10.00">limits.h</text>
</a>
</g>
</g>
<!-- Node3&#45;&gt;Node4 -->
<g id="edge3" class="edge">
<title>Node3&#45;&gt;Node4</title>
<path fill="none" stroke="midnightblue" d="M79,-61.98C79,-53.58 79,-40.48 79,-29.66"/>
<polygon fill="midnightblue" stroke="midnightblue" points="82.5,-29.51 79,-19.51 75.5,-29.51 82.5,-29.51"/>
</g>
<!-- Node5&#45;&gt;Node6 -->
<g id="edge5" class="edge">
<title>Node5&#45;&gt;Node6</title>
<path fill="none" stroke="midnightblue" d="M715.71,-190.35C716.51,-174.35 715.64,-140.21 696,-123 667.86,-98.35 430.56,-82.22 314.47,-75.73"/>
<polygon fill="midnightblue" stroke="midnightblue" points="314.47,-72.23 304.29,-75.17 314.09,-79.22 314.47,-72.23"/>
</g>
<!-- Node5&#45;&gt;Node7 -->
<g id="edge6" class="edge">
<title>Node5&#45;&gt;Node7</title>
<path fill="none" stroke="midnightblue" d="M641.81,-192.68C552.04,-184.37 395.58,-169.04 262,-154 248.95,-152.53 235.1,-150.89 221.8,-149.25"/>
<polygon fill="midnightblue" stroke="midnightblue" points="222.12,-145.76 211.76,-148 221.26,-152.71 222.12,-145.76"/>
</g>
<!-- Node8 -->
<g id="node8" class="node">
<title>Node8</title>
<g id="a_node8"><a xlink:href="sequence_8h.html" target="_top" xlink:title="Functions and data structures related to sequence representations ,.">
<polygon fill="none" stroke="black" points="781,-129 781,-148 903,-148 903,-129 781,-129"/>
<text text-anchor="middle" x="842" y="-136" font-family="Helvetica,sans-Serif" font-size="10.00">ViennaRNA/sequence.h</text>
</a>
</g>
</g>
<!-- Node5&#45;&gt;Node8 -->
<g id="edge11" class="edge">
<title>Node5&#45;&gt;Node8</title>
<path fill="none" stroke="midnightblue" d="M728.3,-190.48C747.6,-180.4 783.32,-163.55 809.7,-152"/>
<polygon fill="midnightblue" stroke="midnightblue" points="811.15,-155.19 818.94,-148.01 808.37,-148.76 811.15,-155.19"/>
</g>
<!-- Node5&#45;&gt;Node9 -->
<g id="edge13" class="edge">
<title>Node5&#45;&gt;Node9</title>
<path fill="none" stroke="midnightblue" d="M648.57,-190.49C587.14,-181.88 493.64,-167.88 413,-154 405.72,-152.75 398.06,-151.36 390.61,-149.96"/>
<polygon fill="midnightblue" stroke="midnightblue" points="391.11,-146.49 380.63,-148.05 389.79,-153.37 391.11,-146.49"/>
</g>
<!-- Node5&#45;&gt;Node10 -->
<g id="edge16" class="edge">
<title>Node5&#45;&gt;Node10</title>
<path fill="none" stroke="midnightblue" d="M697.49,-190.48C683.82,-182.42 664.98,-170.02 650.13,-159.47"/>
<polygon fill="midnightblue" stroke="midnightblue" points="652.06,-156.55 641.91,-153.52 647.96,-162.22 652.06,-156.55"/>
</g>
<!-- Node5&#45;&gt;Node12 -->
<g id="edge20" class="edge">
<title>Node5&#45;&gt;Node12</title>
<path fill="none" stroke="midnightblue" d="M677.86,-190.48C642.24,-181.57 588.13,-167.37 547.07,-156.22"/>
<polygon fill="midnightblue" stroke="midnightblue" points="547.77,-152.78 537.2,-153.52 545.93,-159.53 547.77,-152.78"/>
</g>
<!-- Node5&#45;&gt;Node13 -->
<g id="edge24" class="edge">
<title>Node5&#45;&gt;Node13</title>
<path fill="none" stroke="midnightblue" d="M781.12,-190.47C845.21,-182.39 944.9,-169.25 1031,-154 1037.54,-152.84 1044.4,-151.5 1051.24,-150.11"/>
<polygon fill="midnightblue" stroke="midnightblue" points="1052.11,-153.5 1061.19,-148.05 1050.69,-146.65 1052.11,-153.5"/>
</g>
<!-- Node5&#45;&gt;Node14 -->
<g id="edge26" class="edge">
<title>Node5&#45;&gt;Node14</title>
<path fill="none" stroke="midnightblue" d="M788.23,-196.88C900.19,-192.9 1120.7,-182.16 1316.6,-154.07"/>
<polygon fill="midnightblue" stroke="midnightblue" points="1317.1,-157.54 1326.5,-152.64 1316.1,-150.61 1317.1,-157.54"/>
</g>
<!-- Node5&#45;&gt;Node15 -->
<g id="edge27" class="edge">
<title>Node5&#45;&gt;Node15</title>
<path fill="none" stroke="midnightblue" d="M788.18,-193.73C877.64,-187.07 1033.29,-173.99 1166,-154 1168.36,-153.64 1170.76,-153.26 1173.19,-152.86"/>
<polygon fill="midnightblue" stroke="midnightblue" points="1174.02,-156.27 1183.27,-151.1 1172.81,-149.37 1174.02,-156.27"/>
</g>
<!-- Node18 -->
<g id="node18" class="node">
<title>Node18</title>
<g id="a_node18"><a xlink:href="zscore_8h_source.html" target="_top" xlink:title=" ">
<polygon fill="none" stroke="black" points="921.5,-129 921.5,-148 1030.5,-148 1030.5,-129 921.5,-129"/>
<text text-anchor="middle" x="976" y="-136" font-family="Helvetica,sans-Serif" font-size="10.00">ViennaRNA/zscore.h</text>
</a>
</g>
</g>
<!-- Node5&#45;&gt;Node18 -->
<g id="edge33" class="edge">
<title>Node5&#45;&gt;Node18</title>
<path fill="none" stroke="midnightblue" d="M752.39,-190.48C798.81,-179.89 878.02,-161.84 928.64,-150.3"/>
<polygon fill="midnightblue" stroke="midnightblue" points="929.7,-153.64 938.67,-148.01 928.15,-146.82 929.7,-153.64"/>
</g>
<!-- Node7&#45;&gt;Node2 -->
<g id="edge8" class="edge">
<title>Node7&#45;&gt;Node2</title>
<path fill="none" stroke="midnightblue" d="M166.48,-148.23C183.36,-163.64 213.18,-195.4 246,-210 296.88,-232.64 444.38,-247.37 536.52,-254.78"/>
<polygon fill="midnightblue" stroke="midnightblue" points="536.39,-258.29 546.64,-255.59 536.94,-251.31 536.39,-258.29"/>
</g>
<!-- Node7&#45;&gt;Node3 -->
<g id="edge7" class="edge">
<title>Node7&#45;&gt;Node3</title>
<path fill="none" stroke="midnightblue" d="M143.89,-128.73C131.85,-118.31 111.55,-100.71 96.85,-87.97"/>
<polygon fill="midnightblue" stroke="midnightblue" points="98.8,-85.03 88.95,-81.13 94.22,-90.32 98.8,-85.03"/>
</g>
<!-- Node7&#45;&gt;Node5 -->
<g id="edge9" class="edge">
<title>Node7&#45;&gt;Node5</title>
<path fill="none" stroke="midnightblue" d="M223.3,-147.28C241.8,-149.53 261.69,-151.94 280,-154 402.38,-167.78 543.97,-181.8 631.57,-190.45"/>
<polygon fill="midnightblue" stroke="midnightblue" points="631.42,-193.95 641.72,-191.45 632.11,-186.98 631.42,-193.95"/>
</g>
<!-- Node7&#45;&gt;Node6 -->
<g id="edge10" class="edge">
<title>Node7&#45;&gt;Node6</title>
<path fill="none" stroke="midnightblue" d="M167.08,-128.73C183.15,-117.96 210.63,-99.55 229.75,-86.74"/>
<polygon fill="midnightblue" stroke="midnightblue" points="231.77,-89.6 238.13,-81.13 227.87,-83.79 231.77,-89.6"/>
</g>
<!-- Node8&#45;&gt;Node5 -->
<g id="edge12" class="edge">
<title>Node8&#45;&gt;Node5</title>
<path fill="none" stroke="midnightblue" d="M828.73,-148.01C809.45,-158.08 773.73,-174.92 747.35,-186.48"/>
<polygon fill="midnightblue" stroke="midnightblue" points="745.89,-183.3 738.1,-190.48 748.66,-189.72 745.89,-183.3"/>
</g>
<!-- Node9&#45;&gt;Node2 -->
<g id="edge14" class="edge">
<title>Node9&#45;&gt;Node2</title>
<path fill="none" stroke="midnightblue" d="M368.71,-148.09C415.43,-167.57 521.9,-215.44 578.04,-242"/>
<polygon fill="midnightblue" stroke="midnightblue" points="576.72,-245.25 587.26,-246.38 579.73,-238.93 576.72,-245.25"/>
</g>
<!-- Node9&#45;&gt;Node5 -->
<g id="edge15" class="edge">
<title>Node9&#45;&gt;Node5</title>
<path fill="none" stroke="midnightblue" d="M398.08,-148.05C409.02,-150.08 420.41,-152.18 431,-154 507.07,-167.09 594.59,-180.29 652.21,-188.98"/>
<polygon fill="midnightblue" stroke="midnightblue" points="651.85,-192.46 662.26,-190.49 652.89,-185.54 651.85,-192.46"/>
</g>
<!-- Node10&#45;&gt;Node5 -->
<g id="edge17" class="edge">
<title>Node10&#45;&gt;Node5</title>
<path fill="none" stroke="midnightblue" d="M653.57,-153.52C668.41,-162.75 686.28,-174.81 699.03,-184.2"/>
<polygon fill="midnightblue" stroke="midnightblue" points="697.21,-187.21 707.29,-190.48 701.45,-181.64 697.21,-187.21"/>
</g>
<!-- Node11 -->
<g id="node11" class="node">
<title>Node11</title>
<g id="a_node11"><a xlink:href="constraints_2basic_8h.html" target="_top" xlink:title="Functions and data structures for constraining secondary structure predictions and evaluation.">
<polygon fill="none" stroke="black" points="567.5,-56.5 567.5,-86.5 686.5,-86.5 686.5,-56.5 567.5,-56.5"/>
<text text-anchor="start" x="575.5" y="-74.5" font-family="Helvetica,sans-Serif" font-size="10.00">ViennaRNA/constraints</text>
<text text-anchor="middle" x="627" y="-63.5" font-family="Helvetica,sans-Serif" font-size="10.00">/basic.h</text>
</a>
</g>
</g>
<!-- Node10&#45;&gt;Node11 -->
<g id="edge18" class="edge">
<title>Node10&#45;&gt;Node11</title>
<path fill="none" stroke="midnightblue" d="M627,-123.4C627,-115.64 627,-105.81 627,-96.86"/>
<polygon fill="midnightblue" stroke="midnightblue" points="630.5,-96.58 627,-86.58 623.5,-96.58 630.5,-96.58"/>
</g>
<!-- Node11&#45;&gt;Node5 -->
<g id="edge19" class="edge">
<title>Node11&#45;&gt;Node5</title>
<path fill="none" stroke="midnightblue" d="M681.25,-86.52C699.66,-94.16 718.27,-105.71 729,-123 740.02,-140.75 732.46,-165.02 724.84,-181.31"/>
<polygon fill="midnightblue" stroke="midnightblue" points="721.68,-179.8 720.25,-190.3 727.92,-182.98 721.68,-179.8"/>
</g>
<!-- Node12&#45;&gt;Node2 -->
<g id="edge21" class="edge">
<title>Node12&#45;&gt;Node2</title>
<path fill="none" stroke="midnightblue" d="M509.24,-153.84C533.41,-174.84 573.94,-214.14 597.01,-238.72"/>
<polygon fill="midnightblue" stroke="midnightblue" points="594.5,-241.16 603.84,-246.14 599.65,-236.42 594.5,-241.16"/>
</g>
<!-- Node12&#45;&gt;Node5 -->
<g id="edge22" class="edge">
<title>Node12&#45;&gt;Node5</title>
<path fill="none" stroke="midnightblue" d="M548.86,-153.52C589.68,-163.96 642.72,-178.02 677.82,-187.73"/>
<polygon fill="midnightblue" stroke="midnightblue" points="677.09,-191.16 687.66,-190.48 678.97,-184.42 677.09,-191.16"/>
</g>
<!-- Node12&#45;&gt;Node11 -->
<g id="edge23" class="edge">
<title>Node12&#45;&gt;Node11</title>
<path fill="none" stroke="midnightblue" d="M519.73,-123.4C539.74,-113.9 566.35,-101.28 588.05,-90.98"/>
<polygon fill="midnightblue" stroke="midnightblue" points="589.8,-94.03 597.33,-86.58 586.8,-87.7 589.8,-94.03"/>
</g>
<!-- Node13&#45;&gt;Node5 -->
<g id="edge25" class="edge">
<title>Node13&#45;&gt;Node5</title>
<path fill="none" stroke="midnightblue" d="M1078.58,-148.05C1069.19,-150.15 1058.73,-152.28 1049,-154 964.17,-169.03 866.15,-182.01 798.26,-190.11"/>
<polygon fill="midnightblue" stroke="midnightblue" points="797.57,-186.67 788.05,-191.32 798.4,-193.62 797.57,-186.67"/>
</g>
<!-- Node15&#45;&gt;Node2 -->
<g id="edge28" class="edge">
<title>Node15&#45;&gt;Node2</title>
<path fill="none" stroke="midnightblue" d="M1186.23,-153.56C1185.49,-153.71 1184.74,-153.85 1184,-154 1008.09,-188.66 800.74,-227.5 690.99,-247.32"/>
<polygon fill="midnightblue" stroke="midnightblue" points="690.22,-243.9 681,-249.12 691.47,-250.79 690.22,-243.9"/>
</g>
<!-- Node15&#45;&gt;Node5 -->
<g id="edge29" class="edge">
<title>Node15&#45;&gt;Node5</title>
<path fill="none" stroke="midnightblue" d="M1187.01,-153.54C1186,-153.7 1185,-153.85 1184,-154 1049.83,-174.21 892.22,-187.35 798.07,-193.95"/>
<polygon fill="midnightblue" stroke="midnightblue" points="797.77,-190.46 788.04,-194.64 798.26,-197.44 797.77,-190.46"/>
</g>
<!-- Node15&#45;&gt;Node16 -->
<g id="edge30" class="edge">
<title>Node15&#45;&gt;Node16</title>
<path fill="none" stroke="midnightblue" d="M1290.45,-123.48C1327.69,-111.72 1380.24,-95.14 1415.17,-84.12"/>
<polygon fill="midnightblue" stroke="midnightblue" points="1416.49,-87.38 1424.97,-81.03 1414.38,-80.7 1416.49,-87.38"/>
</g>
<!-- Node16&#45;&gt;Node2 -->
<g id="edge32" class="edge">
<title>Node16&#45;&gt;Node2</title>
<path fill="none" stroke="midnightblue" d="M1460.41,-81.4C1469.52,-97.94 1477.92,-133.58 1460,-154 1409.86,-211.16 890.42,-245.66 691.15,-256.65"/>
<polygon fill="midnightblue" stroke="midnightblue" points="690.85,-253.17 681.05,-257.21 691.23,-260.16 690.85,-253.17"/>
</g>
<!-- Node17 -->
<g id="node17" class="node">
<title>Node17</title>
<g id="a_node17"><a xlink:title=" ">
<polygon fill="none" stroke="#bfbfbf" points="1479,-0.5 1479,-19.5 1525,-19.5 1525,-0.5 1479,-0.5"/>
<text text-anchor="middle" x="1502" y="-7.5" font-family="Helvetica,sans-Serif" font-size="10.00">stdio.h</text>
</a>
</g>
</g>
<!-- Node16&#45;&gt;Node17 -->
<g id="edge31" class="edge">
<title>Node16&#45;&gt;Node17</title>
<path fill="none" stroke="midnightblue" d="M1459.16,-61.98C1466.74,-52.96 1478.87,-38.52 1488.29,-27.31"/>
<polygon fill="midnightblue" stroke="midnightblue" points="1491.1,-29.42 1494.85,-19.51 1485.74,-24.91 1491.1,-29.42"/>
</g>
<!-- Node19&#45;&gt;Node2 -->
<g id="edge46" class="edge">
<title>Node19&#45;&gt;Node2</title>
<path fill="none" stroke="midnightblue" d="M689.39,-313.48C677.36,-305.34 658.8,-292.79 643.1,-282.18"/>
<polygon fill="midnightblue" stroke="midnightblue" points="644.98,-279.22 634.74,-276.52 641.06,-285.02 644.98,-279.22"/>
</g>
<!-- Node19&#45;&gt;Node5 -->
<g id="edge47" class="edge">
<title>Node19&#45;&gt;Node5</title>
<path fill="none" stroke="midnightblue" d="M702.93,-313.3C705.02,-293.85 710.11,-246.49 712.97,-219.9"/>
<polygon fill="midnightblue" stroke="midnightblue" points="716.49,-219.94 714.07,-209.62 709.53,-219.19 716.49,-219.94"/>
</g>
<!-- Node19&#45;&gt;Node17 -->
<g id="edge45" class="edge">
<title>Node19&#45;&gt;Node17</title>
<path fill="none" stroke="midnightblue" d="M750.14,-320.26C929.95,-313.14 1552,-282.61 1552,-201 1552,-201 1552,-201 1552,-137.5 1552,-100.31 1548.03,-90.02 1533,-56 1528.55,-45.93 1521.77,-35.75 1515.68,-27.62"/>
<polygon fill="midnightblue" stroke="midnightblue" points="1518.41,-25.43 1509.49,-19.71 1512.89,-29.74 1518.41,-25.43"/>
</g>
</g>
</svg>
