<?xml version="1.0" encoding="UTF-8" standalone="no"?>
<!DOCTYPE svg PUBLIC "-//W3C//DTD SVG 1.1//EN"
 "http://www.w3.org/Graphics/SVG/1.1/DTD/svg11.dtd">
<!-- Generated by graphviz version 2.47.0 (0)
 -->
<!-- Title: ViennaRNA/constraints/basic.h Pages: 1 -->
<svg width="1183pt" height="397pt"
 viewBox="0.00 0.00 1182.50 397.00" xmlns="http://www.w3.org/2000/svg" xmlns:xlink="http://www.w3.org/1999/xlink">
<g id="graph0" class="graph" transform="scale(1 1) rotate(0) translate(4 393)">
<title>ViennaRNA/constraints/basic.h</title>
<!-- Node1 -->
<g id="node1" class="node">
<title>Node1</title>
<g id="a_node1"><a xlink:title="Functions and data structures for constraining secondary structure predictions and evaluation.">
<polygon fill="#bfbfbf" stroke="black" points="409,-358.5 409,-388.5 528,-388.5 528,-358.5 409,-358.5"/>
<text text-anchor="start" x="417" y="-376.5" font-family="Helvetica,sans-Serif" font-size="10.00">ViennaRNA/constraints</text>
<text text-anchor="middle" x="468.5" y="-365.5" font-family="Helvetica,sans-Serif" font-size="10.00">/basic.h</text>
</a>
</g>
</g>
<!-- Node2 -->
<g id="node2" class="node">
<title>Node2</title>
<g id="a_node2"><a xlink:href="fold__compound_8h.html" target="_top" xlink:title="The Basic Fold Compound API.">
<polygon fill="none" stroke="black" points="395.5,-302.5 395.5,-321.5 541.5,-321.5 541.5,-302.5 395.5,-302.5"/>
<text text-anchor="middle" x="468.5" y="-309.5" font-family="Helvetica,sans-Serif" font-size="10.00">ViennaRNA/fold_compound.h</text>
</a>
</g>
</g>
<!-- Node1&#45;&gt;Node2 -->
<g id="edge1" class="edge">
<title>Node1&#45;&gt;Node2</title>
<path fill="none" stroke="midnightblue" d="M468.5,-358.4C468.5,-350.47 468.5,-340.46 468.5,-331.86"/>
<polygon fill="midnightblue" stroke="midnightblue" points="472,-331.66 468.5,-321.66 465,-331.66 472,-331.66"/>
</g>
<!-- Node3 -->
<g id="node3" class="node">
<title>Node3</title>
<g id="a_node3"><a xlink:href="model_8h.html" target="_top" xlink:title="The model details data structure and its corresponding modifiers.">
<polygon fill="none" stroke="black" points="1068.5,-118 1068.5,-137 1174.5,-137 1174.5,-118 1068.5,-118"/>
<text text-anchor="middle" x="1121.5" y="-125" font-family="Helvetica,sans-Serif" font-size="10.00">ViennaRNA/model.h</text>
</a>
</g>
</g>
<!-- Node2&#45;&gt;Node3 -->
<g id="edge2" class="edge">
<title>Node2&#45;&gt;Node3</title>
<path fill="none" stroke="midnightblue" d="M541.54,-307.02C644.94,-300.75 828.46,-287.06 891.5,-266 977.29,-237.34 1065.42,-172.91 1102.87,-143.57"/>
<polygon fill="midnightblue" stroke="midnightblue" points="1105.21,-146.18 1110.87,-137.22 1100.86,-140.7 1105.21,-146.18"/>
</g>
<!-- Node4 -->
<g id="node4" class="node">
<title>Node4</title>
<g id="a_node4"><a xlink:href="params_2basic_8h.html" target="_top" xlink:title="Functions to deal with sets of energy parameters.">
<polygon fill="none" stroke="black" points="675.5,-246.5 675.5,-265.5 813.5,-265.5 813.5,-246.5 675.5,-246.5"/>
<text text-anchor="middle" x="744.5" y="-253.5" font-family="Helvetica,sans-Serif" font-size="10.00">ViennaRNA/params/basic.h</text>
</a>
</g>
</g>
<!-- Node2&#45;&gt;Node4 -->
<g id="edge3" class="edge">
<title>Node2&#45;&gt;Node4</title>
<path fill="none" stroke="midnightblue" d="M507.14,-302.44C553.61,-292.94 631.86,-277.61 685.78,-267.42"/>
<polygon fill="midnightblue" stroke="midnightblue" points="686.71,-270.81 695.89,-265.52 685.42,-263.93 686.71,-270.81"/>
</g>
<!-- Node8 -->
<g id="node8" class="node">
<title>Node8</title>
<g id="a_node8"><a xlink:href="dp__matrices_8h.html" target="_top" xlink:title="Functions to deal with standard dynamic programming (DP) matrices.">
<polygon fill="none" stroke="black" points="137,-118 137,-137 270,-137 270,-118 137,-118"/>
<text text-anchor="middle" x="203.5" y="-125" font-family="Helvetica,sans-Serif" font-size="10.00">ViennaRNA/dp_matrices.h</text>
</a>
</g>
</g>
<!-- Node2&#45;&gt;Node8 -->
<g id="edge35" class="edge">
<title>Node2&#45;&gt;Node8</title>
<path fill="none" stroke="midnightblue" d="M437.43,-302.35C414.69,-294.33 384.04,-281.34 359.5,-266 300.44,-229.07 239.73,-172.83 214.71,-145.12"/>
<polygon fill="midnightblue" stroke="midnightblue" points="217.06,-142.49 207.89,-137.19 211.75,-147.05 217.06,-142.49"/>
</g>
<!-- Node9 -->
<g id="node9" class="node">
<title>Node9</title>
<g id="a_node9"><a xlink:href="hard_8h.html" target="_top" xlink:title="Functions and data structures for handling of secondary structure hard constraints.">
<polygon fill="none" stroke="black" points="0,-112.5 0,-142.5 119,-142.5 119,-112.5 0,-112.5"/>
<text text-anchor="start" x="8" y="-130.5" font-family="Helvetica,sans-Serif" font-size="10.00">ViennaRNA/constraints</text>
<text text-anchor="middle" x="59.5" y="-119.5" font-family="Helvetica,sans-Serif" font-size="10.00">/hard.h</text>
</a>
</g>
</g>
<!-- Node2&#45;&gt;Node9 -->
<g id="edge36" class="edge">
<title>Node2&#45;&gt;Node9</title>
<path fill="none" stroke="midnightblue" d="M433.31,-302.46C404.46,-294.08 363.23,-280.49 328.5,-266 238.86,-228.62 137.53,-175.65 88.63,-147.62"/>
<polygon fill="midnightblue" stroke="midnightblue" points="90.25,-144.52 79.84,-142.52 86.74,-150.57 90.25,-144.52"/>
</g>
<!-- Node10 -->
<g id="node10" class="node">
<title>Node10</title>
<g id="a_node10"><a xlink:href="soft_8h.html" target="_top" xlink:title="Functions and data structures for secondary structure soft constraints.">
<polygon fill="none" stroke="black" points="931,-112.5 931,-142.5 1050,-142.5 1050,-112.5 931,-112.5"/>
<text text-anchor="start" x="939" y="-130.5" font-family="Helvetica,sans-Serif" font-size="10.00">ViennaRNA/constraints</text>
<text text-anchor="middle" x="990.5" y="-119.5" font-family="Helvetica,sans-Serif" font-size="10.00">/soft.h</text>
</a>
</g>
</g>
<!-- Node2&#45;&gt;Node10 -->
<g id="edge37" class="edge">
<title>Node2&#45;&gt;Node10</title>
<path fill="none" stroke="midnightblue" d="M541.53,-307.8C635.14,-302.86 791.37,-291.19 843.5,-266 898.29,-239.53 944.23,-182.35 969.82,-150.7"/>
<polygon fill="midnightblue" stroke="midnightblue" points="972.6,-152.83 976.19,-142.87 967.16,-148.42 972.6,-152.83"/>
</g>
<!-- Node11 -->
<g id="node11" class="node">
<title>Node11</title>
<g id="a_node11"><a xlink:href="grammar_8h.html" target="_top" xlink:title="Implementations for the RNA folding grammar.">
<polygon fill="none" stroke="black" points="288,-118 288,-137 405,-137 405,-118 288,-118"/>
<text text-anchor="middle" x="346.5" y="-125" font-family="Helvetica,sans-Serif" font-size="10.00">ViennaRNA/grammar.h</text>
</a>
</g>
</g>
<!-- Node2&#45;&gt;Node11 -->
<g id="edge38" class="edge">
<title>Node2&#45;&gt;Node11</title>
<path fill="none" stroke="midnightblue" d="M432.91,-302.5C413.05,-295.52 389.75,-283.83 375.5,-266 347.37,-230.8 340.03,-176.19 341.37,-147.53"/>
<polygon fill="midnightblue" stroke="midnightblue" points="344.88,-147.58 342.38,-137.28 337.91,-146.89 344.88,-147.58"/>
</g>
<!-- Node12 -->
<g id="node12" class="node">
<title>Node12</title>
<g id="a_node12"><a xlink:href="structured__domains_8h.html" target="_top" xlink:title="This module provides interfaces that deal with additional structured domains in the folding grammar.">
<polygon fill="none" stroke="black" points="423,-112.5 423,-142.5 538,-142.5 538,-112.5 423,-112.5"/>
<text text-anchor="start" x="431" y="-130.5" font-family="Helvetica,sans-Serif" font-size="10.00">ViennaRNA/structured</text>
<text text-anchor="middle" x="480.5" y="-119.5" font-family="Helvetica,sans-Serif" font-size="10.00">_domains.h</text>
</a>
</g>
</g>
<!-- Node2&#45;&gt;Node12 -->
<g id="edge39" class="edge">
<title>Node2&#45;&gt;Node12</title>
<path fill="none" stroke="midnightblue" d="M439.38,-302.44C421.86,-295.62 400.98,-284.14 390.5,-266 386.05,-258.3 387.65,-254.42 390.5,-246 403.63,-207.25 435.25,-171.25 457.27,-149.57"/>
<polygon fill="midnightblue" stroke="midnightblue" points="459.83,-151.96 464.62,-142.51 454.98,-146.92 459.83,-151.96"/>
</g>
<!-- Node13 -->
<g id="node13" class="node">
<title>Node13</title>
<g id="a_node13"><a xlink:href="unstructured__domains_8h.html" target="_top" xlink:title="Functions to modify unstructured domains, e.g. to incorporate ligands binding to unpaired stretches.">
<polygon fill="none" stroke="black" points="788,-112.5 788,-142.5 913,-142.5 913,-112.5 788,-112.5"/>
<text text-anchor="start" x="796" y="-130.5" font-family="Helvetica,sans-Serif" font-size="10.00">ViennaRNA/unstructured</text>
<text text-anchor="middle" x="850.5" y="-119.5" font-family="Helvetica,sans-Serif" font-size="10.00">_domains.h</text>
</a>
</g>
</g>
<!-- Node2&#45;&gt;Node13 -->
<g id="edge40" class="edge">
<title>Node2&#45;&gt;Node13</title>
<path fill="none" stroke="midnightblue" d="M541.68,-311.31C631.04,-309.94 774.85,-301.88 813.5,-266 844.51,-237.22 846.33,-184.2 847.11,-153.08"/>
<polygon fill="midnightblue" stroke="midnightblue" points="850.62,-152.79 847.4,-142.7 843.62,-152.59 850.62,-152.79"/>
</g>
<!-- Node16 -->
<g id="node16" class="node">
<title>Node16</title>
<g id="a_node16"><a xlink:href="sequence_8h.html" target="_top" xlink:title="Functions and data structures related to sequence representations ,.">
<polygon fill="none" stroke="black" points="407.5,-246.5 407.5,-265.5 529.5,-265.5 529.5,-246.5 407.5,-246.5"/>
<text text-anchor="middle" x="468.5" y="-253.5" font-family="Helvetica,sans-Serif" font-size="10.00">ViennaRNA/sequence.h</text>
</a>
</g>
</g>
<!-- Node2&#45;&gt;Node16 -->
<g id="edge33" class="edge">
<title>Node2&#45;&gt;Node16</title>
<path fill="none" stroke="midnightblue" d="M463.33,-302.08C461.82,-294.93 461.39,-284.64 462.04,-275.69"/>
<polygon fill="midnightblue" stroke="midnightblue" points="465.52,-276.13 463.37,-265.75 458.58,-275.2 465.52,-276.13"/>
</g>
<!-- Node17 -->
<g id="node17" class="node">
<title>Node17</title>
<g id="a_node17"><a xlink:href="zscore_8h_source.html" target="_top" xlink:title=" ">
<polygon fill="none" stroke="black" points="548,-246.5 548,-265.5 657,-265.5 657,-246.5 548,-246.5"/>
<text text-anchor="middle" x="602.5" y="-253.5" font-family="Helvetica,sans-Serif" font-size="10.00">ViennaRNA/zscore.h</text>
</a>
</g>
</g>
<!-- Node2&#45;&gt;Node17 -->
<g id="edge41" class="edge">
<title>Node2&#45;&gt;Node17</title>
<path fill="none" stroke="midnightblue" d="M489.73,-302.44C511.88,-293.52 546.82,-279.44 571.94,-269.32"/>
<polygon fill="midnightblue" stroke="midnightblue" points="573.4,-272.5 581.37,-265.52 570.78,-266.01 573.4,-272.5"/>
</g>
<!-- Node4&#45;&gt;Node2 -->
<g id="edge31" class="edge">
<title>Node4&#45;&gt;Node2</title>
<path fill="none" stroke="midnightblue" d="M706.05,-265.52C659.67,-275 581.44,-290.33 527.44,-300.54"/>
<polygon fill="midnightblue" stroke="midnightblue" points="526.5,-297.15 517.32,-302.44 527.8,-304.03 526.5,-297.15"/>
</g>
<!-- Node4&#45;&gt;Node3 -->
<g id="edge32" class="edge">
<title>Node4&#45;&gt;Node3</title>
<path fill="none" stroke="midnightblue" d="M770.12,-246.4C835.94,-224.32 1011.08,-165.55 1086.34,-140.3"/>
<polygon fill="midnightblue" stroke="midnightblue" points="1087.48,-143.61 1095.85,-137.11 1085.25,-136.97 1087.48,-143.61"/>
</g>
<!-- Node5 -->
<g id="node5" class="node">
<title>Node5</title>
<g id="a_node5"><a xlink:href="constants_8h.html" target="_top" xlink:title="Energy parameter constants.">
<polygon fill="none" stroke="black" points="612.5,-118 612.5,-137 770.5,-137 770.5,-118 612.5,-118"/>
<text text-anchor="middle" x="691.5" y="-125" font-family="Helvetica,sans-Serif" font-size="10.00">ViennaRNA/params/constants.h</text>
</a>
</g>
</g>
<!-- Node4&#45;&gt;Node5 -->
<g id="edge4" class="edge">
<title>Node4&#45;&gt;Node5</title>
<path fill="none" stroke="midnightblue" d="M740.86,-246.31C732.27,-225.81 710.62,-174.15 699.06,-146.54"/>
<polygon fill="midnightblue" stroke="midnightblue" points="702.26,-145.13 695.17,-137.26 695.8,-147.83 702.26,-145.13"/>
</g>
<!-- Node7 -->
<g id="node7" class="node">
<title>Node7</title>
<g id="a_node7"><a xlink:href="datastructures_2basic_8h.html" target="_top" xlink:title="Various data structures and pre&#45;processor macros.">
<polygon fill="none" stroke="black" points="531.5,-179.5 531.5,-209.5 665.5,-209.5 665.5,-179.5 531.5,-179.5"/>
<text text-anchor="start" x="539.5" y="-197.5" font-family="Helvetica,sans-Serif" font-size="10.00">ViennaRNA/datastructures</text>
<text text-anchor="middle" x="598.5" y="-186.5" font-family="Helvetica,sans-Serif" font-size="10.00">/basic.h</text>
</a>
</g>
</g>
<!-- Node4&#45;&gt;Node7 -->
<g id="edge6" class="edge">
<title>Node4&#45;&gt;Node7</title>
<path fill="none" stroke="midnightblue" d="M718.68,-246.48C695.84,-237.93 662.44,-224.5 636.58,-213.57"/>
<polygon fill="midnightblue" stroke="midnightblue" points="637.65,-210.22 627.08,-209.52 634.91,-216.66 637.65,-210.22"/>
</g>
<!-- Node6 -->
<g id="node6" class="node">
<title>Node6</title>
<g id="a_node6"><a xlink:title=" ">
<polygon fill="none" stroke="#bfbfbf" points="667.5,-56.5 667.5,-75.5 715.5,-75.5 715.5,-56.5 667.5,-56.5"/>
<text text-anchor="middle" x="691.5" y="-63.5" font-family="Helvetica,sans-Serif" font-size="10.00">limits.h</text>
</a>
</g>
</g>
<!-- Node5&#45;&gt;Node6 -->
<g id="edge5" class="edge">
<title>Node5&#45;&gt;Node6</title>
<path fill="none" stroke="midnightblue" d="M691.5,-117.98C691.5,-109.58 691.5,-96.48 691.5,-85.66"/>
<polygon fill="midnightblue" stroke="midnightblue" points="695,-85.51 691.5,-75.51 688,-85.51 695,-85.51"/>
</g>
<!-- Node7&#45;&gt;Node2 -->
<g id="edge8" class="edge">
<title>Node7&#45;&gt;Node2</title>
<path fill="none" stroke="midnightblue" d="M531.48,-203.56C479.96,-211.3 414.89,-224.95 398.5,-246 382.62,-266.39 412.02,-286.05 437.46,-298.3"/>
<polygon fill="midnightblue" stroke="midnightblue" points="436.01,-301.49 446.55,-302.47 438.92,-295.13 436.01,-301.49"/>
</g>
<!-- Node7&#45;&gt;Node3 -->
<g id="edge9" class="edge">
<title>Node7&#45;&gt;Node3</title>
<path fill="none" stroke="midnightblue" d="M665.65,-188.7C755.72,-181.68 920.42,-166.79 1059.5,-143 1065.65,-141.95 1072.1,-140.66 1078.42,-139.28"/>
<polygon fill="midnightblue" stroke="midnightblue" points="1079.21,-142.69 1088.19,-137.07 1077.66,-135.86 1079.21,-142.69"/>
</g>
<!-- Node7&#45;&gt;Node4 -->
<g id="edge10" class="edge">
<title>Node7&#45;&gt;Node4</title>
<path fill="none" stroke="midnightblue" d="M638.74,-209.52C664.43,-219.47 696.84,-232.7 719.06,-242.33"/>
<polygon fill="midnightblue" stroke="midnightblue" points="717.92,-245.65 728.48,-246.48 720.74,-239.25 717.92,-245.65"/>
</g>
<!-- Node7&#45;&gt;Node5 -->
<g id="edge7" class="edge">
<title>Node7&#45;&gt;Node5</title>
<path fill="none" stroke="midnightblue" d="M618.68,-179.4C634.13,-168.6 655.36,-153.76 670.92,-142.89"/>
<polygon fill="midnightblue" stroke="midnightblue" points="673.14,-145.6 679.33,-137.01 669.13,-139.87 673.14,-145.6"/>
</g>
<!-- Node7&#45;&gt;Node8 -->
<g id="edge11" class="edge">
<title>Node7&#45;&gt;Node8</title>
<path fill="none" stroke="midnightblue" d="M531.26,-184.58C464.51,-174.94 359.66,-158.82 269.5,-143 262.32,-141.74 254.76,-140.35 247.4,-138.95"/>
<polygon fill="midnightblue" stroke="midnightblue" points="248.05,-135.51 237.56,-137.04 246.71,-142.38 248.05,-135.51"/>
</g>
<!-- Node7&#45;&gt;Node9 -->
<g id="edge14" class="edge">
<title>Node7&#45;&gt;Node9</title>
<path fill="none" stroke="midnightblue" d="M531.13,-188.48C441.51,-181.31 277.98,-166.52 129.36,-143.2"/>
<polygon fill="midnightblue" stroke="midnightblue" points="129.56,-139.69 119.14,-141.58 128.47,-146.6 129.56,-139.69"/>
</g>
<!-- Node7&#45;&gt;Node10 -->
<g id="edge17" class="edge">
<title>Node7&#45;&gt;Node10</title>
<path fill="none" stroke="midnightblue" d="M665.59,-183.13C729.49,-173.65 828.12,-158.74 913.5,-143 915.85,-142.57 918.25,-142.11 920.67,-141.64"/>
<polygon fill="midnightblue" stroke="midnightblue" points="921.61,-145.03 930.75,-139.66 920.26,-138.16 921.61,-145.03"/>
</g>
<!-- Node7&#45;&gt;Node11 -->
<g id="edge21" class="edge">
<title>Node7&#45;&gt;Node11</title>
<path fill="none" stroke="midnightblue" d="M544.13,-179.48C497.78,-167.52 432.07,-150.57 389.37,-139.56"/>
<polygon fill="midnightblue" stroke="midnightblue" points="390.12,-136.14 379.56,-137.03 388.37,-142.92 390.12,-136.14"/>
</g>
<!-- Node7&#45;&gt;Node12 -->
<g id="edge23" class="edge">
<title>Node7&#45;&gt;Node12</title>
<path fill="none" stroke="midnightblue" d="M572.9,-179.4C555.96,-170.07 533.56,-157.73 515.05,-147.53"/>
<polygon fill="midnightblue" stroke="midnightblue" points="516.5,-144.34 506.05,-142.58 513.12,-150.47 516.5,-144.34"/>
</g>
<!-- Node7&#45;&gt;Node13 -->
<g id="edge24" class="edge">
<title>Node7&#45;&gt;Node13</title>
<path fill="none" stroke="midnightblue" d="M647.2,-179.48C685.06,-169.37 738.01,-155.68 780.41,-145.04"/>
<polygon fill="midnightblue" stroke="midnightblue" points="781.26,-148.43 790.11,-142.61 779.56,-141.64 781.26,-148.43"/>
</g>
<!-- Node14 -->
<g id="node14" class="node">
<title>Node14</title>
<g id="a_node14"><a xlink:href="utils_2structures_8h.html" target="_top" xlink:title="Various utility&#45; and helper&#45;functions for secondary structure parsing, converting,...">
<polygon fill="none" stroke="black" points="503.5,-56.5 503.5,-75.5 647.5,-75.5 647.5,-56.5 503.5,-56.5"/>
<text text-anchor="middle" x="575.5" y="-63.5" font-family="Helvetica,sans-Serif" font-size="10.00">ViennaRNA/utils/structures.h</text>
</a>
</g>
</g>
<!-- Node7&#45;&gt;Node14 -->
<g id="edge30" class="edge">
<title>Node7&#45;&gt;Node14</title>
<path fill="none" stroke="midnightblue" d="M591.52,-179.48C584.49,-156.72 576.12,-111.7 573.97,-86.06"/>
<polygon fill="midnightblue" stroke="midnightblue" points="577.45,-85.6 573.45,-75.79 570.46,-85.95 577.45,-85.6"/>
</g>
<!-- Node8&#45;&gt;Node2 -->
<g id="edge13" class="edge">
<title>Node8&#45;&gt;Node2</title>
<path fill="none" stroke="midnightblue" d="M216.37,-137.19C244.57,-160.43 312.05,-225.08 377.5,-266 398.3,-279 423.49,-290.32 442.24,-298.35"/>
<polygon fill="midnightblue" stroke="midnightblue" points="441.09,-301.66 451.66,-302.35 443.83,-295.22 441.09,-301.66"/>
</g>
<!-- Node8&#45;&gt;Node7 -->
<g id="edge12" class="edge">
<title>Node8&#45;&gt;Node7</title>
<path fill="none" stroke="midnightblue" d="M255.01,-137.04C265.81,-139.06 277.05,-141.17 287.5,-143 367.13,-156.98 458.23,-171.18 521.22,-180.95"/>
<polygon fill="midnightblue" stroke="midnightblue" points="521.05,-184.46 531.47,-182.54 522.12,-177.55 521.05,-184.46"/>
</g>
<!-- Node9&#45;&gt;Node1 -->
<g id="edge16" class="edge">
<title>Node9&#45;&gt;Node1</title>
<path fill="none" stroke="midnightblue" d="M73.23,-142.68C90.44,-159.97 121.37,-189.42 151.5,-210 243.3,-272.71 362.49,-327.48 425.34,-354.54"/>
<polygon fill="midnightblue" stroke="midnightblue" points="423.99,-357.77 434.56,-358.48 426.74,-351.33 423.99,-357.77"/>
</g>
<!-- Node9&#45;&gt;Node2 -->
<g id="edge15" class="edge">
<title>Node9&#45;&gt;Node2</title>
<path fill="none" stroke="midnightblue" d="M90.25,-142.52C142.42,-168.76 251.08,-226.21 346.5,-266 376.93,-278.69 412.34,-290.7 437.29,-299.11"/>
<polygon fill="midnightblue" stroke="midnightblue" points="436.37,-302.49 446.96,-302.37 438.61,-295.86 436.37,-302.49"/>
</g>
<!-- Node10&#45;&gt;Node1 -->
<g id="edge20" class="edge">
<title>Node10&#45;&gt;Node1</title>
<path fill="none" stroke="midnightblue" d="M988.18,-142.59C984.82,-159.78 977.3,-189.13 962.5,-210 939.25,-242.78 927.56,-248.26 891.5,-266 774.99,-323.32 624.8,-351.64 538.3,-364.08"/>
<polygon fill="midnightblue" stroke="midnightblue" points="537.75,-360.63 528.34,-365.49 538.73,-367.56 537.75,-360.63"/>
</g>
<!-- Node10&#45;&gt;Node2 -->
<g id="edge19" class="edge">
<title>Node10&#45;&gt;Node2</title>
<path fill="none" stroke="midnightblue" d="M986.11,-142.87C970.37,-171.88 921.19,-237.16 861.5,-266 809.04,-291.35 651.13,-303.01 552.12,-307.89"/>
<polygon fill="midnightblue" stroke="midnightblue" points="551.66,-304.41 541.83,-308.39 551.99,-311.4 551.66,-304.41"/>
</g>
<!-- Node10&#45;&gt;Node7 -->
<g id="edge18" class="edge">
<title>Node10&#45;&gt;Node7</title>
<path fill="none" stroke="midnightblue" d="M934.01,-142.53C933.17,-142.69 932.33,-142.85 931.5,-143 844.43,-159.06 743.58,-174.24 675.81,-183.69"/>
<polygon fill="midnightblue" stroke="midnightblue" points="675.06,-180.26 665.64,-185.1 676.02,-187.19 675.06,-180.26"/>
</g>
<!-- Node11&#45;&gt;Node2 -->
<g id="edge22" class="edge">
<title>Node11&#45;&gt;Node2</title>
<path fill="none" stroke="midnightblue" d="M350.87,-137.28C356.4,-160.77 361.49,-225.95 393.5,-266 405.3,-280.77 423.31,-291.32 438.83,-298.47"/>
<polygon fill="midnightblue" stroke="midnightblue" points="437.52,-301.72 448.09,-302.5 440.31,-295.3 437.52,-301.72"/>
</g>
<!-- Node13&#45;&gt;Node2 -->
<g id="edge26" class="edge">
<title>Node13&#45;&gt;Node2</title>
<path fill="none" stroke="midnightblue" d="M857.44,-142.7C864.34,-170.82 866.32,-233.68 831.5,-266 792.51,-302.19 646.51,-310.08 551.91,-311.35"/>
<polygon fill="midnightblue" stroke="midnightblue" points="551.74,-307.85 541.78,-311.46 551.82,-314.85 551.74,-307.85"/>
</g>
<!-- Node13&#45;&gt;Node7 -->
<g id="edge25" class="edge">
<title>Node13&#45;&gt;Node7</title>
<path fill="none" stroke="midnightblue" d="M801.47,-142.61C763.6,-152.72 710.79,-166.37 668.49,-176.98"/>
<polygon fill="midnightblue" stroke="midnightblue" points="667.39,-173.65 658.54,-179.48 669.09,-180.44 667.39,-173.65"/>
</g>
<!-- Node13&#45;&gt;Node14 -->
<g id="edge27" class="edge">
<title>Node13&#45;&gt;Node14</title>
<path fill="none" stroke="midnightblue" d="M787.75,-112.92C738.38,-102.24 670.54,-87.56 624.96,-77.7"/>
<polygon fill="midnightblue" stroke="midnightblue" points="625.54,-74.24 615.02,-75.55 624.06,-81.09 625.54,-74.24"/>
</g>
<!-- Node14&#45;&gt;Node7 -->
<g id="edge29" class="edge">
<title>Node14&#45;&gt;Node7</title>
<path fill="none" stroke="midnightblue" d="M580.75,-75.79C587.62,-94.86 596.54,-140.62 599.53,-169.14"/>
<polygon fill="midnightblue" stroke="midnightblue" points="596.07,-169.8 600.38,-179.48 603.05,-169.22 596.07,-169.8"/>
</g>
<!-- Node15 -->
<g id="node15" class="node">
<title>Node15</title>
<g id="a_node15"><a xlink:title=" ">
<polygon fill="none" stroke="#bfbfbf" points="552.5,-0.5 552.5,-19.5 598.5,-19.5 598.5,-0.5 552.5,-0.5"/>
<text text-anchor="middle" x="575.5" y="-7.5" font-family="Helvetica,sans-Serif" font-size="10.00">stdio.h</text>
</a>
</g>
</g>
<!-- Node14&#45;&gt;Node15 -->
<g id="edge28" class="edge">
<title>Node14&#45;&gt;Node15</title>
<path fill="none" stroke="midnightblue" d="M575.5,-56.08C575.5,-49.01 575.5,-38.86 575.5,-29.99"/>
<polygon fill="midnightblue" stroke="midnightblue" points="579,-29.75 575.5,-19.75 572,-29.75 579,-29.75"/>
</g>
<!-- Node16&#45;&gt;Node2 -->
<g id="edge34" class="edge">
<title>Node16&#45;&gt;Node2</title>
<path fill="none" stroke="midnightblue" d="M473.63,-265.75C475.16,-272.86 475.6,-283.14 474.97,-292.1"/>
<polygon fill="midnightblue" stroke="midnightblue" points="471.49,-291.71 473.67,-302.08 478.43,-292.62 471.49,-291.71"/>
</g>
</g>
</svg>
