<?xml version="1.0" encoding="UTF-8" standalone="no"?>
<!DOCTYPE svg PUBLIC "-//W3C//DTD SVG 1.1//EN"
 "http://www.w3.org/Graphics/SVG/1.1/DTD/svg11.dtd">
<!-- Generated by graphviz version 2.47.0 (0)
 -->
<!-- Title: ViennaRNA/constraints_ligand.h Pages: 1 -->
<svg width="1534pt" height="419pt"
 viewBox="0.00 0.00 1534.00 419.00" xmlns="http://www.w3.org/2000/svg" xmlns:xlink="http://www.w3.org/1999/xlink">
<g id="graph0" class="graph" transform="scale(1 1) rotate(0) translate(4 415)">
<title>ViennaRNA/constraints_ligand.h</title>
<!-- Node1 -->
<g id="node1" class="node">
<title>Node1</title>
<g id="a_node1"><a xlink:title="Use ViennaRNA/constraints/ligand.h instead.">
<polygon fill="#bfbfbf" stroke="black" points="793.5,-380.5 793.5,-410.5 912.5,-410.5 912.5,-380.5 793.5,-380.5"/>
<text text-anchor="start" x="801.5" y="-398.5" font-family="Helvetica,sans-Serif" font-size="10.00">ViennaRNA/constraints</text>
<text text-anchor="middle" x="853" y="-387.5" font-family="Helvetica,sans-Serif" font-size="10.00">_ligand.h</text>
</a>
</g>
</g>
<!-- Node2 -->
<g id="node2" class="node">
<title>Node2</title>
<g id="a_node2"><a xlink:href="ligand_8h.html" target="_top" xlink:title="Functions for incorporation of ligands binding to hairpin and interior loop motifs using the soft con...">
<polygon fill="none" stroke="black" points="793.5,-313.5 793.5,-343.5 912.5,-343.5 912.5,-313.5 793.5,-313.5"/>
<text text-anchor="start" x="801.5" y="-331.5" font-family="Helvetica,sans-Serif" font-size="10.00">ViennaRNA/constraints</text>
<text text-anchor="middle" x="853" y="-320.5" font-family="Helvetica,sans-Serif" font-size="10.00">/ligand.h</text>
</a>
</g>
</g>
<!-- Node1&#45;&gt;Node2 -->
<g id="edge1" class="edge">
<title>Node1&#45;&gt;Node2</title>
<path fill="none" stroke="midnightblue" d="M853,-380.4C853,-372.64 853,-362.81 853,-353.86"/>
<polygon fill="midnightblue" stroke="midnightblue" points="856.5,-353.58 853,-343.58 849.5,-353.58 856.5,-353.58"/>
</g>
<!-- Node3 -->
<g id="node3" class="node">
<title>Node3</title>
<g id="a_node3"><a xlink:href="datastructures_2basic_8h.html" target="_top" xlink:title="Various data structures and pre&#45;processor macros.">
<polygon fill="none" stroke="black" points="841,-246.5 841,-276.5 975,-276.5 975,-246.5 841,-246.5"/>
<text text-anchor="start" x="849" y="-264.5" font-family="Helvetica,sans-Serif" font-size="10.00">ViennaRNA/datastructures</text>
<text text-anchor="middle" x="908" y="-253.5" font-family="Helvetica,sans-Serif" font-size="10.00">/basic.h</text>
</a>
</g>
</g>
<!-- Node2&#45;&gt;Node3 -->
<g id="edge2" class="edge">
<title>Node2&#45;&gt;Node3</title>
<path fill="none" stroke="midnightblue" d="M864.93,-313.4C872.14,-304.88 881.48,-293.85 889.61,-284.23"/>
<polygon fill="midnightblue" stroke="midnightblue" points="892.3,-286.47 896.09,-276.58 886.96,-281.95 892.3,-286.47"/>
</g>
<!-- Node6 -->
<g id="node6" class="node">
<title>Node6</title>
<g id="a_node6"><a xlink:href="fold__compound_8h.html" target="_top" xlink:title="The Basic Fold Compound API.">
<polygon fill="none" stroke="black" points="695,-190.5 695,-209.5 841,-209.5 841,-190.5 695,-190.5"/>
<text text-anchor="middle" x="768" y="-197.5" font-family="Helvetica,sans-Serif" font-size="10.00">ViennaRNA/fold_compound.h</text>
</a>
</g>
</g>
<!-- Node2&#45;&gt;Node6 -->
<g id="edge44" class="edge">
<title>Node2&#45;&gt;Node6</title>
<path fill="none" stroke="midnightblue" d="M843.58,-313.48C827.94,-290.21 796.67,-243.66 779.66,-218.36"/>
<polygon fill="midnightblue" stroke="midnightblue" points="782.39,-216.14 773.91,-209.79 776.58,-220.04 782.39,-216.14"/>
</g>
<!-- Node4 -->
<g id="node4" class="node">
<title>Node4</title>
<g id="a_node4"><a xlink:href="constants_8h.html" target="_top" xlink:title="Energy parameter constants.">
<polygon fill="none" stroke="black" points="0,-62 0,-81 158,-81 158,-62 0,-62"/>
<text text-anchor="middle" x="79" y="-69" font-family="Helvetica,sans-Serif" font-size="10.00">ViennaRNA/params/constants.h</text>
</a>
</g>
</g>
<!-- Node3&#45;&gt;Node4 -->
<g id="edge3" class="edge">
<title>Node3&#45;&gt;Node4</title>
<path fill="none" stroke="midnightblue" d="M840.75,-257.29C647.35,-247.38 100.21,-214.2 49,-154 32.88,-135.05 50,-106.67 64.21,-88.89"/>
<polygon fill="midnightblue" stroke="midnightblue" points="67.01,-91 70.8,-81.1 61.67,-86.48 67.01,-91"/>
</g>
<!-- Node3&#45;&gt;Node6 -->
<g id="edge5" class="edge">
<title>Node3&#45;&gt;Node6</title>
<path fill="none" stroke="midnightblue" d="M874.82,-246.4C851.44,-236.46 820.39,-223.26 797.79,-213.66"/>
<polygon fill="midnightblue" stroke="midnightblue" points="798.94,-210.35 788.37,-209.66 796.21,-216.79 798.94,-210.35"/>
</g>
<!-- Node7 -->
<g id="node7" class="node">
<title>Node7</title>
<g id="a_node7"><a xlink:href="model_8h.html" target="_top" xlink:title="The model details data structure and its corresponding modifiers.">
<polygon fill="none" stroke="black" points="323,-62 323,-81 429,-81 429,-62 323,-62"/>
<text text-anchor="middle" x="376" y="-69" font-family="Helvetica,sans-Serif" font-size="10.00">ViennaRNA/model.h</text>
</a>
</g>
</g>
<!-- Node3&#45;&gt;Node7 -->
<g id="edge35" class="edge">
<title>Node3&#45;&gt;Node7</title>
<path fill="none" stroke="midnightblue" d="M975.25,-255.69C1094.9,-245.57 1336.98,-217.58 1388,-154 1396.62,-143.25 1397.5,-132.98 1388,-123 1379.78,-114.36 659.62,-84.13 439.31,-75.08"/>
<polygon fill="midnightblue" stroke="midnightblue" points="439.34,-71.58 429.21,-74.67 439.05,-78.57 439.34,-71.58"/>
</g>
<!-- Node8 -->
<g id="node8" class="node">
<title>Node8</title>
<g id="a_node8"><a xlink:href="params_2basic_8h.html" target="_top" xlink:title="Functions to deal with sets of energy parameters.">
<polygon fill="none" stroke="black" points="58,-129 58,-148 196,-148 196,-129 58,-129"/>
<text text-anchor="middle" x="127" y="-136" font-family="Helvetica,sans-Serif" font-size="10.00">ViennaRNA/params/basic.h</text>
</a>
</g>
</g>
<!-- Node3&#45;&gt;Node8 -->
<g id="edge36" class="edge">
<title>Node3&#45;&gt;Node8</title>
<path fill="none" stroke="midnightblue" d="M840.8,-253.54C761.21,-244.56 625.06,-227.92 509,-210 369.77,-188.5 335.62,-179.16 197,-154 189.74,-152.68 182.1,-151.29 174.63,-149.91"/>
<polygon fill="midnightblue" stroke="midnightblue" points="175.08,-146.43 164.61,-148.04 173.8,-153.31 175.08,-146.43"/>
</g>
<!-- Node10 -->
<g id="node10" class="node">
<title>Node10</title>
<g id="a_node10"><a xlink:href="dp__matrices_8h.html" target="_top" xlink:title="Functions to deal with standard dynamic programming (DP) matrices.">
<polygon fill="none" stroke="black" points="214.5,-129 214.5,-148 347.5,-148 347.5,-129 214.5,-129"/>
<text text-anchor="middle" x="281" y="-136" font-family="Helvetica,sans-Serif" font-size="10.00">ViennaRNA/dp_matrices.h</text>
</a>
</g>
</g>
<!-- Node3&#45;&gt;Node10 -->
<g id="edge37" class="edge">
<title>Node3&#45;&gt;Node10</title>
<path fill="none" stroke="midnightblue" d="M840.76,-250.83C779.11,-241.13 685.62,-225.45 605,-210 503.29,-190.51 384.79,-164.66 323.03,-150.3"/>
<polygon fill="midnightblue" stroke="midnightblue" points="323.79,-146.88 313.25,-148.01 322.19,-153.7 323.79,-146.88"/>
</g>
<!-- Node11 -->
<g id="node11" class="node">
<title>Node11</title>
<g id="a_node11"><a xlink:href="hard_8h.html" target="_top" xlink:title="Functions and data structures for handling of secondary structure hard constraints.">
<polygon fill="none" stroke="black" points="404.5,-123.5 404.5,-153.5 523.5,-153.5 523.5,-123.5 404.5,-123.5"/>
<text text-anchor="start" x="412.5" y="-141.5" font-family="Helvetica,sans-Serif" font-size="10.00">ViennaRNA/constraints</text>
<text text-anchor="middle" x="464" y="-130.5" font-family="Helvetica,sans-Serif" font-size="10.00">/hard.h</text>
</a>
</g>
</g>
<!-- Node3&#45;&gt;Node11 -->
<g id="edge38" class="edge">
<title>Node3&#45;&gt;Node11</title>
<path fill="none" stroke="midnightblue" d="M840.61,-246.71C796.41,-237.28 737.49,-224.01 686,-210 626.38,-193.78 558.85,-171.81 514.09,-156.73"/>
<polygon fill="midnightblue" stroke="midnightblue" points="515.21,-153.41 504.61,-153.53 512.96,-160.05 515.21,-153.41"/>
</g>
<!-- Node13 -->
<g id="node13" class="node">
<title>Node13</title>
<g id="a_node13"><a xlink:href="soft_8h.html" target="_top" xlink:title="Functions and data structures for secondary structure soft constraints.">
<polygon fill="none" stroke="black" points="848.5,-123.5 848.5,-153.5 967.5,-153.5 967.5,-123.5 848.5,-123.5"/>
<text text-anchor="start" x="856.5" y="-141.5" font-family="Helvetica,sans-Serif" font-size="10.00">ViennaRNA/constraints</text>
<text text-anchor="middle" x="908" y="-130.5" font-family="Helvetica,sans-Serif" font-size="10.00">/soft.h</text>
</a>
</g>
</g>
<!-- Node3&#45;&gt;Node13 -->
<g id="edge39" class="edge">
<title>Node3&#45;&gt;Node13</title>
<path fill="none" stroke="midnightblue" d="M903.45,-246.14C900.89,-225.86 900.57,-188.53 902.46,-163.86"/>
<polygon fill="midnightblue" stroke="midnightblue" points="905.95,-164.13 903.45,-153.84 898.98,-163.45 905.95,-164.13"/>
</g>
<!-- Node14 -->
<g id="node14" class="node">
<title>Node14</title>
<g id="a_node14"><a xlink:href="grammar_8h.html" target="_top" xlink:title="Implementations for the RNA folding grammar.">
<polygon fill="none" stroke="black" points="985.5,-129 985.5,-148 1102.5,-148 1102.5,-129 985.5,-129"/>
<text text-anchor="middle" x="1044" y="-136" font-family="Helvetica,sans-Serif" font-size="10.00">ViennaRNA/grammar.h</text>
</a>
</g>
</g>
<!-- Node3&#45;&gt;Node14 -->
<g id="edge40" class="edge">
<title>Node3&#45;&gt;Node14</title>
<path fill="none" stroke="midnightblue" d="M923.87,-246.38C949.54,-223.54 999.98,-178.67 1026.6,-154.98"/>
<polygon fill="midnightblue" stroke="midnightblue" points="1029.2,-157.35 1034.34,-148.09 1024.55,-152.12 1029.2,-157.35"/>
</g>
<!-- Node15 -->
<g id="node15" class="node">
<title>Node15</title>
<g id="a_node15"><a xlink:href="structured__domains_8h.html" target="_top" xlink:title="This module provides interfaces that deal with additional structured domains in the folding grammar.">
<polygon fill="none" stroke="black" points="1120.5,-123.5 1120.5,-153.5 1235.5,-153.5 1235.5,-123.5 1120.5,-123.5"/>
<text text-anchor="start" x="1128.5" y="-141.5" font-family="Helvetica,sans-Serif" font-size="10.00">ViennaRNA/structured</text>
<text text-anchor="middle" x="1178" y="-130.5" font-family="Helvetica,sans-Serif" font-size="10.00">_domains.h</text>
</a>
</g>
</g>
<!-- Node3&#45;&gt;Node15 -->
<g id="edge41" class="edge">
<title>Node3&#45;&gt;Node15</title>
<path fill="none" stroke="midnightblue" d="M939.5,-246.38C988.58,-224.39 1083.27,-181.95 1137.41,-157.69"/>
<polygon fill="midnightblue" stroke="midnightblue" points="1139.01,-160.81 1146.7,-153.53 1136.14,-154.42 1139.01,-160.81"/>
</g>
<!-- Node16 -->
<g id="node16" class="node">
<title>Node16</title>
<g id="a_node16"><a xlink:href="unstructured__domains_8h.html" target="_top" xlink:title="Functions to modify unstructured domains, e.g. to incorporate ligands binding to unpaired stretches.">
<polygon fill="none" stroke="black" points="1253.5,-123.5 1253.5,-153.5 1378.5,-153.5 1378.5,-123.5 1253.5,-123.5"/>
<text text-anchor="start" x="1261.5" y="-141.5" font-family="Helvetica,sans-Serif" font-size="10.00">ViennaRNA/unstructured</text>
<text text-anchor="middle" x="1316" y="-130.5" font-family="Helvetica,sans-Serif" font-size="10.00">_domains.h</text>
</a>
</g>
</g>
<!-- Node3&#45;&gt;Node16 -->
<g id="edge42" class="edge">
<title>Node3&#45;&gt;Node16</title>
<path fill="none" stroke="midnightblue" d="M951.08,-246.38C1023.84,-223.96 1171.02,-180.28 1254.57,-156.28"/>
<polygon fill="midnightblue" stroke="midnightblue" points="1255.54,-159.65 1264.19,-153.53 1253.61,-152.92 1255.54,-159.65"/>
</g>
<!-- Node17 -->
<g id="node17" class="node">
<title>Node17</title>
<g id="a_node17"><a xlink:href="utils_2structures_8h.html" target="_top" xlink:title="Various utility&#45; and helper&#45;functions for secondary structure parsing, converting,...">
<polygon fill="none" stroke="black" points="1382,-62 1382,-81 1526,-81 1526,-62 1382,-62"/>
<text text-anchor="middle" x="1454" y="-69" font-family="Helvetica,sans-Serif" font-size="10.00">ViennaRNA/utils/structures.h</text>
</a>
</g>
</g>
<!-- Node3&#45;&gt;Node17 -->
<g id="edge43" class="edge">
<title>Node3&#45;&gt;Node17</title>
<path fill="none" stroke="midnightblue" d="M975.02,-261.07C1056.18,-259.54 1195.72,-250.32 1308,-210 1351.63,-194.33 1363.64,-187.19 1396,-154 1414.57,-134.95 1429.18,-107.59 1439.7,-89.93"/>
<polygon fill="midnightblue" stroke="midnightblue" points="1442.8,-91.57 1445.12,-81.23 1436.86,-87.86 1442.8,-91.57"/>
</g>
<!-- Node5 -->
<g id="node5" class="node">
<title>Node5</title>
<g id="a_node5"><a xlink:title=" ">
<polygon fill="none" stroke="#bfbfbf" points="55,-0.5 55,-19.5 103,-19.5 103,-0.5 55,-0.5"/>
<text text-anchor="middle" x="79" y="-7.5" font-family="Helvetica,sans-Serif" font-size="10.00">limits.h</text>
</a>
</g>
</g>
<!-- Node4&#45;&gt;Node5 -->
<g id="edge4" class="edge">
<title>Node4&#45;&gt;Node5</title>
<path fill="none" stroke="midnightblue" d="M79,-61.98C79,-53.58 79,-40.48 79,-29.66"/>
<polygon fill="midnightblue" stroke="midnightblue" points="82.5,-29.51 79,-19.51 75.5,-29.51 82.5,-29.51"/>
</g>
<!-- Node6&#45;&gt;Node7 -->
<g id="edge6" class="edge">
<title>Node6&#45;&gt;Node7</title>
<path fill="none" stroke="midnightblue" d="M694.68,-199.69C599.06,-199.02 438.9,-192.03 396,-154 378.4,-138.4 375.04,-110.07 374.97,-91.27"/>
<polygon fill="midnightblue" stroke="midnightblue" points="378.47,-91.31 375.23,-81.23 371.47,-91.13 378.47,-91.31"/>
</g>
<!-- Node6&#45;&gt;Node8 -->
<g id="edge7" class="edge">
<title>Node6&#45;&gt;Node8</title>
<path fill="none" stroke="midnightblue" d="M694.58,-195.8C585.47,-190.31 374.6,-177.35 197,-154 188.35,-152.86 179.22,-151.42 170.48,-149.88"/>
<polygon fill="midnightblue" stroke="midnightblue" points="170.92,-146.4 160.46,-148.05 169.66,-153.29 170.92,-146.4"/>
</g>
<!-- Node9 -->
<g id="node9" class="node">
<title>Node9</title>
<g id="a_node9"><a xlink:href="sequence_8h.html" target="_top" xlink:title="Functions and data structures related to sequence representations ,.">
<polygon fill="none" stroke="black" points="542,-129 542,-148 664,-148 664,-129 542,-129"/>
<text text-anchor="middle" x="603" y="-136" font-family="Helvetica,sans-Serif" font-size="10.00">ViennaRNA/sequence.h</text>
</a>
</g>
</g>
<!-- Node6&#45;&gt;Node9 -->
<g id="edge12" class="edge">
<title>Node6&#45;&gt;Node9</title>
<path fill="none" stroke="midnightblue" d="M739.46,-190.48C709.06,-180.31 661.54,-163.26 631.26,-151.7"/>
<polygon fill="midnightblue" stroke="midnightblue" points="632.29,-148.35 621.7,-148.01 629.77,-154.88 632.29,-148.35"/>
</g>
<!-- Node6&#45;&gt;Node10 -->
<g id="edge14" class="edge">
<title>Node6&#45;&gt;Node10</title>
<path fill="none" stroke="midnightblue" d="M694.99,-192.99C611.79,-185.41 472.14,-171.25 353,-154 344.46,-152.76 335.45,-151.3 326.77,-149.8"/>
<polygon fill="midnightblue" stroke="midnightblue" points="327.25,-146.33 316.79,-148.01 326.02,-153.22 327.25,-146.33"/>
</g>
<!-- Node6&#45;&gt;Node11 -->
<g id="edge17" class="edge">
<title>Node6&#45;&gt;Node11</title>
<path fill="none" stroke="midnightblue" d="M715.26,-190.45C668.04,-182 596.93,-168.56 531.81,-155.56"/>
<polygon fill="midnightblue" stroke="midnightblue" points="532.32,-152.09 521.83,-153.56 530.95,-158.96 532.32,-152.09"/>
</g>
<!-- Node6&#45;&gt;Node13 -->
<g id="edge21" class="edge">
<title>Node6&#45;&gt;Node13</title>
<path fill="none" stroke="midnightblue" d="M783.16,-190.48C801.49,-181.89 832.82,-168.38 859.56,-157.43"/>
<polygon fill="midnightblue" stroke="midnightblue" points="861.23,-160.53 869.17,-153.52 858.59,-154.04 861.23,-160.53"/>
</g>
<!-- Node6&#45;&gt;Node14 -->
<g id="edge25" class="edge">
<title>Node6&#45;&gt;Node14</title>
<path fill="none" stroke="midnightblue" d="M800.98,-190.47C840.72,-181.43 909.04,-166.73 968,-154 973.74,-152.76 979.75,-151.46 985.79,-150.17"/>
<polygon fill="midnightblue" stroke="midnightblue" points="986.87,-153.52 995.92,-148.02 985.41,-146.67 986.87,-153.52"/>
</g>
<!-- Node6&#45;&gt;Node15 -->
<g id="edge27" class="edge">
<title>Node6&#45;&gt;Node15</title>
<path fill="none" stroke="midnightblue" d="M841.09,-191.29C908.6,-183.74 1011.86,-171.14 1110.34,-154.21"/>
<polygon fill="midnightblue" stroke="midnightblue" points="1111.21,-157.61 1120.46,-152.45 1110.01,-150.71 1111.21,-157.61"/>
</g>
<!-- Node6&#45;&gt;Node16 -->
<g id="edge28" class="edge">
<title>Node6&#45;&gt;Node16</title>
<path fill="none" stroke="midnightblue" d="M841.24,-194.11C933.61,-187.68 1096.96,-174.7 1236,-154 1238.36,-153.65 1240.76,-153.27 1243.19,-152.87"/>
<polygon fill="midnightblue" stroke="midnightblue" points="1244.02,-156.28 1253.27,-151.11 1242.82,-149.38 1244.02,-156.28"/>
</g>
<!-- Node19 -->
<g id="node19" class="node">
<title>Node19</title>
<g id="a_node19"><a xlink:href="zscore_8h_source.html" target="_top" xlink:title=" ">
<polygon fill="none" stroke="black" points="682.5,-129 682.5,-148 791.5,-148 791.5,-129 682.5,-129"/>
<text text-anchor="middle" x="737" y="-136" font-family="Helvetica,sans-Serif" font-size="10.00">ViennaRNA/zscore.h</text>
</a>
</g>
</g>
<!-- Node6&#45;&gt;Node19 -->
<g id="edge34" class="edge">
<title>Node6&#45;&gt;Node19</title>
<path fill="none" stroke="midnightblue" d="M763.56,-190.48C759.05,-181.82 751.93,-168.15 746.19,-157.15"/>
<polygon fill="midnightblue" stroke="midnightblue" points="749.16,-155.26 741.43,-148.01 742.95,-158.49 749.16,-155.26"/>
</g>
<!-- Node8&#45;&gt;Node3 -->
<g id="edge9" class="edge">
<title>Node8&#45;&gt;Node3</title>
<path fill="none" stroke="midnightblue" d="M182.12,-148.04C193.08,-150.01 204.44,-152.08 215,-154 353.62,-179.16 387.77,-188.5 527,-210 632.1,-226.23 753.68,-241.4 830.75,-250.8"/>
<polygon fill="midnightblue" stroke="midnightblue" points="830.51,-254.29 840.86,-252.03 831.35,-247.35 830.51,-254.29"/>
</g>
<!-- Node8&#45;&gt;Node4 -->
<g id="edge8" class="edge">
<title>Node8&#45;&gt;Node4</title>
<path fill="none" stroke="midnightblue" d="M120.53,-128.73C113.11,-118.7 100.8,-102.01 91.5,-89.42"/>
<polygon fill="midnightblue" stroke="midnightblue" points="94.13,-87.09 85.37,-81.13 88.5,-91.25 94.13,-87.09"/>
</g>
<!-- Node8&#45;&gt;Node6 -->
<g id="edge10" class="edge">
<title>Node8&#45;&gt;Node6</title>
<path fill="none" stroke="midnightblue" d="M177.75,-148.05C190,-150.24 202.97,-152.42 215,-154 380.93,-175.81 575.92,-188.56 684.44,-194.63"/>
<polygon fill="midnightblue" stroke="midnightblue" points="684.49,-198.13 694.67,-195.19 684.88,-191.14 684.49,-198.13"/>
</g>
<!-- Node8&#45;&gt;Node7 -->
<g id="edge11" class="edge">
<title>Node8&#45;&gt;Node7</title>
<path fill="none" stroke="midnightblue" d="M159.81,-128.94C204.41,-117.29 284.24,-96.45 333.41,-83.62"/>
<polygon fill="midnightblue" stroke="midnightblue" points="334.33,-87 343.12,-81.08 332.56,-80.22 334.33,-87"/>
</g>
<!-- Node9&#45;&gt;Node6 -->
<g id="edge13" class="edge">
<title>Node9&#45;&gt;Node6</title>
<path fill="none" stroke="midnightblue" d="M631.49,-148.01C661.87,-158.16 709.4,-175.22 739.7,-186.78"/>
<polygon fill="midnightblue" stroke="midnightblue" points="738.67,-190.14 749.26,-190.48 741.19,-183.61 738.67,-190.14"/>
</g>
<!-- Node10&#45;&gt;Node3 -->
<g id="edge15" class="edge">
<title>Node10&#45;&gt;Node3</title>
<path fill="none" stroke="midnightblue" d="M324.46,-148.01C389.54,-161.77 515.63,-189.42 623,-210 693.29,-223.47 773.37,-237.12 830.77,-246.82"/>
<polygon fill="midnightblue" stroke="midnightblue" points="830.42,-250.31 840.86,-248.52 831.58,-243.41 830.42,-250.31"/>
</g>
<!-- Node10&#45;&gt;Node6 -->
<g id="edge16" class="edge">
<title>Node10&#45;&gt;Node6</title>
<path fill="none" stroke="midnightblue" d="M334.16,-148.01C346.32,-150.13 359.12,-152.28 371,-154 479.2,-169.66 604.31,-182.78 684.76,-190.74"/>
<polygon fill="midnightblue" stroke="midnightblue" points="684.54,-194.23 694.84,-191.73 685.23,-187.27 684.54,-194.23"/>
</g>
<!-- Node11&#45;&gt;Node6 -->
<g id="edge18" class="edge">
<title>Node11&#45;&gt;Node6</title>
<path fill="none" stroke="midnightblue" d="M523.79,-150.29C529.96,-151.56 536.12,-152.82 542,-154 602.96,-166.24 672.97,-179.55 718.81,-188.5"/>
<polygon fill="midnightblue" stroke="midnightblue" points="718.3,-191.96 728.78,-190.45 719.64,-185.09 718.3,-191.96"/>
</g>
<!-- Node12 -->
<g id="node12" class="node">
<title>Node12</title>
<g id="a_node12"><a xlink:href="constraints_2basic_8h.html" target="_top" xlink:title="Functions and data structures for constraining secondary structure predictions and evaluation.">
<polygon fill="none" stroke="black" points="760.5,-56.5 760.5,-86.5 879.5,-86.5 879.5,-56.5 760.5,-56.5"/>
<text text-anchor="start" x="768.5" y="-74.5" font-family="Helvetica,sans-Serif" font-size="10.00">ViennaRNA/constraints</text>
<text text-anchor="middle" x="820" y="-63.5" font-family="Helvetica,sans-Serif" font-size="10.00">/basic.h</text>
</a>
</g>
</g>
<!-- Node11&#45;&gt;Node12 -->
<g id="edge19" class="edge">
<title>Node11&#45;&gt;Node12</title>
<path fill="none" stroke="midnightblue" d="M523.81,-124.8C526.92,-124.18 530,-123.58 533,-123 606.92,-108.73 691.89,-93.99 750.07,-84.14"/>
<polygon fill="midnightblue" stroke="midnightblue" points="750.98,-87.54 760.25,-82.42 749.81,-80.64 750.98,-87.54"/>
</g>
<!-- Node12&#45;&gt;Node6 -->
<g id="edge20" class="edge">
<title>Node12&#45;&gt;Node6</title>
<path fill="none" stroke="midnightblue" d="M818.46,-86.61C816.25,-103.32 811.26,-131.69 801,-154 796.3,-164.21 789.09,-174.41 782.6,-182.51"/>
<polygon fill="midnightblue" stroke="midnightblue" points="779.74,-180.47 775.99,-190.38 785.1,-184.97 779.74,-180.47"/>
</g>
<!-- Node13&#45;&gt;Node3 -->
<g id="edge22" class="edge">
<title>Node13&#45;&gt;Node3</title>
<path fill="none" stroke="midnightblue" d="M912.55,-153.84C915.1,-174.11 915.43,-211.44 913.54,-236.12"/>
<polygon fill="midnightblue" stroke="midnightblue" points="910.05,-235.85 912.55,-246.14 917.02,-236.54 910.05,-235.85"/>
</g>
<!-- Node13&#45;&gt;Node6 -->
<g id="edge23" class="edge">
<title>Node13&#45;&gt;Node6</title>
<path fill="none" stroke="midnightblue" d="M880.83,-153.52C858.42,-163.6 826.67,-177.06 802.48,-186.72"/>
<polygon fill="midnightblue" stroke="midnightblue" points="800.98,-183.55 792.96,-190.48 803.55,-190.06 800.98,-183.55"/>
</g>
<!-- Node13&#45;&gt;Node12 -->
<g id="edge24" class="edge">
<title>Node13&#45;&gt;Node12</title>
<path fill="none" stroke="midnightblue" d="M888.91,-123.4C876.68,-114.37 860.63,-102.51 847.1,-92.52"/>
<polygon fill="midnightblue" stroke="midnightblue" points="849.18,-89.7 839.06,-86.58 845.02,-95.33 849.18,-89.7"/>
</g>
<!-- Node14&#45;&gt;Node6 -->
<g id="edge26" class="edge">
<title>Node14&#45;&gt;Node6</title>
<path fill="none" stroke="midnightblue" d="M1013.43,-148.02C1004.59,-149.98 994.96,-152.07 986,-154 931.3,-165.81 868.55,-179.31 824.36,-188.42"/>
<polygon fill="midnightblue" stroke="midnightblue" points="823.47,-185.03 814.38,-190.47 824.88,-191.89 823.47,-185.03"/>
</g>
<!-- Node16&#45;&gt;Node3 -->
<g id="edge29" class="edge">
<title>Node16&#45;&gt;Node3</title>
<path fill="none" stroke="midnightblue" d="M1273.21,-153.53C1200.65,-175.9 1053.48,-219.58 969.76,-243.62"/>
<polygon fill="midnightblue" stroke="midnightblue" points="968.77,-240.26 960.13,-246.38 970.7,-246.99 968.77,-240.26"/>
</g>
<!-- Node16&#45;&gt;Node6 -->
<g id="edge30" class="edge">
<title>Node16&#45;&gt;Node6</title>
<path fill="none" stroke="midnightblue" d="M1257.01,-153.54C1256,-153.7 1255,-153.85 1254,-154 1113.55,-174.9 948.31,-187.94 851.12,-194.3"/>
<polygon fill="midnightblue" stroke="midnightblue" points="850.82,-190.82 841.07,-194.96 851.27,-197.8 850.82,-190.82"/>
</g>
<!-- Node16&#45;&gt;Node17 -->
<g id="edge31" class="edge">
<title>Node16&#45;&gt;Node17</title>
<path fill="none" stroke="midnightblue" d="M1345.94,-123.4C1369.94,-112.09 1403.34,-96.36 1426.63,-85.39"/>
<polygon fill="midnightblue" stroke="midnightblue" points="1428.38,-88.43 1435.94,-81.01 1425.4,-82.1 1428.38,-88.43"/>
</g>
<!-- Node17&#45;&gt;Node3 -->
<g id="edge33" class="edge">
<title>Node17&#45;&gt;Node3</title>
<path fill="none" stroke="midnightblue" d="M1455.65,-81.23C1452.45,-97.17 1436.01,-131.42 1414,-154 1381.64,-187.19 1369.63,-194.33 1326,-210 1212.6,-250.72 1071.41,-259.72 985.5,-261.11"/>
<polygon fill="midnightblue" stroke="midnightblue" points="985.25,-257.62 975.3,-261.25 985.34,-264.61 985.25,-257.62"/>
</g>
<!-- Node18 -->
<g id="node18" class="node">
<title>Node18</title>
<g id="a_node18"><a xlink:title=" ">
<polygon fill="none" stroke="#bfbfbf" points="1431,-0.5 1431,-19.5 1477,-19.5 1477,-0.5 1431,-0.5"/>
<text text-anchor="middle" x="1454" y="-7.5" font-family="Helvetica,sans-Serif" font-size="10.00">stdio.h</text>
</a>
</g>
</g>
<!-- Node17&#45;&gt;Node18 -->
<g id="edge32" class="edge">
<title>Node17&#45;&gt;Node18</title>
<path fill="none" stroke="midnightblue" d="M1454,-61.98C1454,-53.58 1454,-40.48 1454,-29.66"/>
<polygon fill="midnightblue" stroke="midnightblue" points="1457.5,-29.51 1454,-19.51 1450.5,-29.51 1457.5,-29.51"/>
</g>
</g>
</svg>
