<?xml version="1.0" encoding="UTF-8" standalone="no"?>
<!DOCTYPE svg PUBLIC "-//W3C//DTD SVG 1.1//EN"
 "http://www.w3.org/Graphics/SVG/1.1/DTD/svg11.dtd">
<!-- Generated by graphviz version 2.47.0 (0)
 -->
<!-- Title: ViennaRNA/constraints.h Pages: 1 -->
<!--zoomable 453 -->
<svg id="main" version="1.1" xmlns="http://www.w3.org/2000/svg" xmlns:xlink="http://www.w3.org/1999/xlink" xml:space="preserve" onload="init(evt)">
<style type="text/css"><![CDATA[
.edge:hover path { stroke: red; }
.edge:hover polygon { stroke: red; fill: red; }
]]></style>
<script type="text/javascript"><![CDATA[
var edges = document.getElementsByTagName('g');
if (edges && edges.length) {
  for (var i=0;i<edges.length;i++) {
    if (edges[i].id.substr(0,4)=='edge') {
      edges[i].setAttribute('class','edge');
    }
  }
}
]]></script>
        <defs>
                <circle id="rim" cx="0" cy="0" r="7"/>
                <circle id="rim2" cx="0" cy="0" r="3.5"/>
                <g id="zoomPlus">
                        <use xlink:href="#rim" fill="#404040">
                                <set attributeName="fill" to="#808080" begin="zoomplus.mouseover" end="zoomplus.mouseout"/>
                        </use>
                        <path d="M-4,0h8M0,-4v8" fill="none" stroke="white" stroke-width="1.5" pointer-events="none"/>
                </g>
                <g id="zoomMin">
                        <use xlink:href="#rim" fill="#404040">
                                <set attributeName="fill" to="#808080" begin="zoomminus.mouseover" end="zoomminus.mouseout"/>
                        </use>
                        <path d="M-4,0h8" fill="none" stroke="white" stroke-width="1.5" pointer-events="none"/>
                </g>
                <g id="dirArrow">
                        <path fill="none" stroke="white" stroke-width="1.5" d="M0,-3.0v7 M-2.5,-0.5L0,-3.0L2.5,-0.5"/>
                </g>
               <g id="resetDef">
                       <use xlink:href="#rim2" fill="#404040">
                               <set attributeName="fill" to="#808080" begin="reset.mouseover" end="reset.mouseout"/>
                       </use>
               </g>
        </defs>

<script type="text/javascript">
var viewWidth = 1183;
var viewHeight = 453;
var sectionId = 'dynsection-0';
</script>
<script xlink:href="svgpan.js"/>
<svg id="graph" class="graph">
<g id="viewport">
<title>ViennaRNA/constraints.h</title>
<!-- Node1 -->
<g id="node1" class="node">
<title>Node1</title>
<g id="a_node1"><a xlink:title="Use ViennaRNA/constraints/basic.h instead.">
<polygon fill="#bfbfbf" stroke="black" points="915.5,-425.5 915.5,-444.5 1043.5,-444.5 1043.5,-425.5 915.5,-425.5"/>
<text text-anchor="middle" x="979.5" y="-432.5" font-family="Helvetica,sans-Serif" font-size="10.00">ViennaRNA/constraints.h</text>
</a>
</g>
</g>
<!-- Node2 -->
<g id="node2" class="node">
<title>Node2</title>
<g id="a_node2"><a xlink:href="constraints_2basic_8h.html" target="_top" xlink:title="Functions and data structures for constraining secondary structure predictions and evaluation.">
<polygon fill="none" stroke="black" points="1008,-358.5 1008,-388.5 1127,-388.5 1127,-358.5 1008,-358.5"/>
<text text-anchor="start" x="1016" y="-376.5" font-family="Helvetica,sans-Serif" font-size="10.00">ViennaRNA/constraints</text>
<text text-anchor="middle" x="1067.5" y="-365.5" font-family="Helvetica,sans-Serif" font-size="10.00">/basic.h</text>
</a>
</g>
</g>
<!-- Node1&#45;&gt;Node2 -->
<g id="edge1" class="edge">
<title>Node1&#45;&gt;Node2</title>
<path fill="none" stroke="midnightblue" d="M992.11,-425.48C1004.14,-417.34 1022.7,-404.79 1038.4,-394.18"/>
<polygon fill="midnightblue" stroke="midnightblue" points="1040.44,-397.02 1046.76,-388.52 1036.52,-391.22 1040.44,-397.02"/>
</g>
<!-- Node10 -->
<g id="node10" class="node">
<title>Node10</title>
<g id="a_node10"><a xlink:href="hard_8h.html" target="_top" xlink:title="Functions and data structures for handling of secondary structure hard constraints.">
<polygon fill="none" stroke="black" points="919,-112.5 919,-142.5 1038,-142.5 1038,-112.5 919,-112.5"/>
<text text-anchor="start" x="927" y="-130.5" font-family="Helvetica,sans-Serif" font-size="10.00">ViennaRNA/constraints</text>
<text text-anchor="middle" x="978.5" y="-119.5" font-family="Helvetica,sans-Serif" font-size="10.00">/hard.h</text>
</a>
</g>
</g>
<!-- Node1&#45;&gt;Node10 -->
<g id="edge43" class="edge">
<title>Node1&#45;&gt;Node10</title>
<path fill="none" stroke="midnightblue" d="M979.5,-425.49C979.5,-405.74 979.5,-355.22 979.5,-313 979.5,-313 979.5,-313 979.5,-255 979.5,-219.42 979.1,-178.2 978.81,-152.74"/>
<polygon fill="midnightblue" stroke="midnightblue" points="982.3,-152.5 978.68,-142.54 975.3,-152.58 982.3,-152.5"/>
</g>
<!-- Node11 -->
<g id="node11" class="node">
<title>Node11</title>
<g id="a_node11"><a xlink:href="soft_8h.html" target="_top" xlink:title="Functions and data structures for secondary structure soft constraints.">
<polygon fill="none" stroke="black" points="1056,-112.5 1056,-142.5 1175,-142.5 1175,-112.5 1056,-112.5"/>
<text text-anchor="start" x="1064" y="-130.5" font-family="Helvetica,sans-Serif" font-size="10.00">ViennaRNA/constraints</text>
<text text-anchor="middle" x="1115.5" y="-119.5" font-family="Helvetica,sans-Serif" font-size="10.00">/soft.h</text>
</a>
</g>
</g>
<!-- Node1&#45;&gt;Node11 -->
<g id="edge44" class="edge">
<title>Node1&#45;&gt;Node11</title>
<path fill="none" stroke="midnightblue" d="M1043.76,-430.37C1075.68,-425.26 1112.46,-413.87 1136.5,-389 1160.7,-363.96 1155.5,-347.82 1155.5,-313 1155.5,-313 1155.5,-313 1155.5,-255 1155.5,-217.58 1139.4,-176.72 1127.62,-151.85"/>
<polygon fill="midnightblue" stroke="midnightblue" points="1130.75,-150.28 1123.21,-142.83 1124.46,-153.35 1130.75,-150.28"/>
</g>
<!-- Node19 -->
<g id="node19" class="node">
<title>Node19</title>
<g id="a_node19"><a xlink:href="SHAPE_8h.html" target="_top" xlink:title="This module provides function to incorporate SHAPE reactivity data into the folding recursions by mea...">
<polygon fill="none" stroke="black" points="665,-358.5 665,-388.5 784,-388.5 784,-358.5 665,-358.5"/>
<text text-anchor="start" x="673" y="-376.5" font-family="Helvetica,sans-Serif" font-size="10.00">ViennaRNA/constraints</text>
<text text-anchor="middle" x="724.5" y="-365.5" font-family="Helvetica,sans-Serif" font-size="10.00">/SHAPE.h</text>
</a>
</g>
</g>
<!-- Node1&#45;&gt;Node19 -->
<g id="edge45" class="edge">
<title>Node1&#45;&gt;Node19</title>
<path fill="none" stroke="midnightblue" d="M942.96,-425.48C904.27,-416.45 842.24,-401.97 794.14,-390.75"/>
<polygon fill="midnightblue" stroke="midnightblue" points="794.64,-387.27 784.11,-388.41 793.05,-394.09 794.64,-387.27"/>
</g>
<!-- Node20 -->
<g id="node20" class="node">
<title>Node20</title>
<g id="a_node20"><a xlink:href="ligand_8h.html" target="_top" xlink:title="Functions for incorporation of ligands binding to hairpin and interior loop motifs using the soft con...">
<polygon fill="none" stroke="black" points="832,-358.5 832,-388.5 951,-388.5 951,-358.5 832,-358.5"/>
<text text-anchor="start" x="840" y="-376.5" font-family="Helvetica,sans-Serif" font-size="10.00">ViennaRNA/constraints</text>
<text text-anchor="middle" x="891.5" y="-365.5" font-family="Helvetica,sans-Serif" font-size="10.00">/ligand.h</text>
</a>
</g>
</g>
<!-- Node1&#45;&gt;Node20 -->
<g id="edge47" class="edge">
<title>Node1&#45;&gt;Node20</title>
<path fill="none" stroke="midnightblue" d="M966.89,-425.48C954.86,-417.34 936.3,-404.79 920.6,-394.18"/>
<polygon fill="midnightblue" stroke="midnightblue" points="922.48,-391.22 912.24,-388.52 918.56,-397.02 922.48,-391.22"/>
</g>
<!-- Node3 -->
<g id="node3" class="node">
<title>Node3</title>
<g id="a_node3"><a xlink:href="fold__compound_8h.html" target="_top" xlink:title="The Basic Fold Compound API.">
<polygon fill="none" stroke="black" points="621.5,-302.5 621.5,-321.5 767.5,-321.5 767.5,-302.5 621.5,-302.5"/>
<text text-anchor="middle" x="694.5" y="-309.5" font-family="Helvetica,sans-Serif" font-size="10.00">ViennaRNA/fold_compound.h</text>
</a>
</g>
</g>
<!-- Node2&#45;&gt;Node3 -->
<g id="edge2" class="edge">
<title>Node2&#45;&gt;Node3</title>
<path fill="none" stroke="midnightblue" d="M1007.98,-363.01C939.67,-352.11 828.05,-334.3 758.07,-323.14"/>
<polygon fill="midnightblue" stroke="midnightblue" points="758.48,-319.66 748.06,-321.54 757.38,-326.58 758.48,-319.66"/>
</g>
<!-- Node4 -->
<g id="node4" class="node">
<title>Node4</title>
<g id="a_node4"><a xlink:href="model_8h.html" target="_top" xlink:title="The model details data structure and its corresponding modifiers.">
<polygon fill="none" stroke="black" points="419.5,-118 419.5,-137 525.5,-137 525.5,-118 419.5,-118"/>
<text text-anchor="middle" x="472.5" y="-125" font-family="Helvetica,sans-Serif" font-size="10.00">ViennaRNA/model.h</text>
</a>
</g>
</g>
<!-- Node3&#45;&gt;Node4 -->
<g id="edge3" class="edge">
<title>Node3&#45;&gt;Node4</title>
<path fill="none" stroke="midnightblue" d="M677.03,-302.46C660.72,-294.13 636.02,-280.62 616.5,-266 564.85,-227.32 511.95,-171.93 487.09,-144.77"/>
<polygon fill="midnightblue" stroke="midnightblue" points="489.62,-142.35 480.31,-137.3 484.44,-147.06 489.62,-142.35"/>
</g>
<!-- Node5 -->
<g id="node5" class="node">
<title>Node5</title>
<g id="a_node5"><a xlink:href="params_2basic_8h.html" target="_top" xlink:title="Functions to deal with sets of energy parameters.">
<polygon fill="none" stroke="black" points="625.5,-246.5 625.5,-265.5 763.5,-265.5 763.5,-246.5 625.5,-246.5"/>
<text text-anchor="middle" x="694.5" y="-253.5" font-family="Helvetica,sans-Serif" font-size="10.00">ViennaRNA/params/basic.h</text>
</a>
</g>
</g>
<!-- Node3&#45;&gt;Node5 -->
<g id="edge4" class="edge">
<title>Node3&#45;&gt;Node5</title>
<path fill="none" stroke="midnightblue" d="M689.33,-302.08C687.82,-294.93 687.39,-284.64 688.04,-275.69"/>
<polygon fill="midnightblue" stroke="midnightblue" points="691.52,-276.13 689.37,-265.75 684.58,-275.2 691.52,-276.13"/>
</g>
<!-- Node9 -->
<g id="node9" class="node">
<title>Node9</title>
<g id="a_node9"><a xlink:href="dp__matrices_8h.html" target="_top" xlink:title="Functions to deal with standard dynamic programming (DP) matrices.">
<polygon fill="none" stroke="black" points="268,-118 268,-137 401,-137 401,-118 268,-118"/>
<text text-anchor="middle" x="334.5" y="-125" font-family="Helvetica,sans-Serif" font-size="10.00">ViennaRNA/dp_matrices.h</text>
</a>
</g>
</g>
<!-- Node3&#45;&gt;Node9 -->
<g id="edge36" class="edge">
<title>Node3&#45;&gt;Node9</title>
<path fill="none" stroke="midnightblue" d="M621.43,-307.89C513.48,-302.37 322.13,-289.19 301.5,-266 271.27,-232.02 298.27,-173.96 318.37,-145.39"/>
<polygon fill="midnightblue" stroke="midnightblue" points="321.32,-147.3 324.58,-137.22 315.74,-143.06 321.32,-147.3"/>
</g>
<!-- Node3&#45;&gt;Node10 -->
<g id="edge37" class="edge">
<title>Node3&#45;&gt;Node10</title>
<path fill="none" stroke="midnightblue" d="M719.91,-302.49C743.86,-295.03 779.84,-282.75 808.5,-266 864.97,-233.01 920.71,-179.46 952.49,-149.86"/>
<polygon fill="midnightblue" stroke="midnightblue" points="955.07,-152.24 960.03,-142.88 950.32,-147.1 955.07,-152.24"/>
</g>
<!-- Node3&#45;&gt;Node11 -->
<g id="edge38" class="edge">
<title>Node3&#45;&gt;Node11</title>
<path fill="none" stroke="midnightblue" d="M725.96,-302.44C756.81,-294.65 804.53,-281.94 844.5,-266 931.37,-231.35 1027.2,-176.44 1078.54,-147.61"/>
<polygon fill="midnightblue" stroke="midnightblue" points="1080.28,-150.65 1087.3,-142.71 1076.86,-144.54 1080.28,-150.65"/>
</g>
<!-- Node12 -->
<g id="node12" class="node">
<title>Node12</title>
<g id="a_node12"><a xlink:href="grammar_8h.html" target="_top" xlink:title="Implementations for the RNA folding grammar.">
<polygon fill="none" stroke="black" points="0,-118 0,-137 117,-137 117,-118 0,-118"/>
<text text-anchor="middle" x="58.5" y="-125" font-family="Helvetica,sans-Serif" font-size="10.00">ViennaRNA/grammar.h</text>
</a>
</g>
</g>
<!-- Node3&#45;&gt;Node12 -->
<g id="edge39" class="edge">
<title>Node3&#45;&gt;Node12</title>
<path fill="none" stroke="midnightblue" d="M621.24,-307.81C514.48,-302.27 322.11,-289.18 257.5,-266 179.29,-237.94 101.42,-174.66 71.15,-144.74"/>
<polygon fill="midnightblue" stroke="midnightblue" points="73.38,-142.01 63.91,-137.25 68.34,-146.87 73.38,-142.01"/>
</g>
<!-- Node13 -->
<g id="node13" class="node">
<title>Node13</title>
<g id="a_node13"><a xlink:href="structured__domains_8h.html" target="_top" xlink:title="This module provides interfaces that deal with additional structured domains in the folding grammar.">
<polygon fill="none" stroke="black" points="135,-112.5 135,-142.5 250,-142.5 250,-112.5 135,-112.5"/>
<text text-anchor="start" x="143" y="-130.5" font-family="Helvetica,sans-Serif" font-size="10.00">ViennaRNA/structured</text>
<text text-anchor="middle" x="192.5" y="-119.5" font-family="Helvetica,sans-Serif" font-size="10.00">_domains.h</text>
</a>
</g>
</g>
<!-- Node3&#45;&gt;Node13 -->
<g id="edge40" class="edge">
<title>Node3&#45;&gt;Node13</title>
<path fill="none" stroke="midnightblue" d="M621.15,-309.55C521.68,-306.43 350.27,-296.64 296.5,-266 250.51,-239.79 218.43,-184.17 202.99,-152.28"/>
<polygon fill="midnightblue" stroke="midnightblue" points="205.97,-150.41 198.56,-142.83 199.63,-153.37 205.97,-150.41"/>
</g>
<!-- Node14 -->
<g id="node14" class="node">
<title>Node14</title>
<g id="a_node14"><a xlink:href="unstructured__domains_8h.html" target="_top" xlink:title="Functions to modify unstructured domains, e.g. to incorporate ligands binding to unpaired stretches.">
<polygon fill="none" stroke="black" points="776,-112.5 776,-142.5 901,-142.5 901,-112.5 776,-112.5"/>
<text text-anchor="start" x="784" y="-130.5" font-family="Helvetica,sans-Serif" font-size="10.00">ViennaRNA/unstructured</text>
<text text-anchor="middle" x="838.5" y="-119.5" font-family="Helvetica,sans-Serif" font-size="10.00">_domains.h</text>
</a>
</g>
</g>
<!-- Node3&#45;&gt;Node14 -->
<g id="edge41" class="edge">
<title>Node3&#45;&gt;Node14</title>
<path fill="none" stroke="midnightblue" d="M718.4,-302.48C737.26,-295.59 762.74,-284.02 779.5,-266 809.24,-234.03 821.58,-183 829.21,-152.92"/>
<polygon fill="midnightblue" stroke="midnightblue" points="832.7,-153.42 831.83,-142.86 825.92,-151.66 832.7,-153.42"/>
</g>
<!-- Node17 -->
<g id="node17" class="node">
<title>Node17</title>
<g id="a_node17"><a xlink:href="sequence_8h.html" target="_top" xlink:title="Functions and data structures related to sequence representations ,.">
<polygon fill="none" stroke="black" points="319.5,-246.5 319.5,-265.5 441.5,-265.5 441.5,-246.5 319.5,-246.5"/>
<text text-anchor="middle" x="380.5" y="-253.5" font-family="Helvetica,sans-Serif" font-size="10.00">ViennaRNA/sequence.h</text>
</a>
</g>
</g>
<!-- Node3&#45;&gt;Node17 -->
<g id="edge34" class="edge">
<title>Node3&#45;&gt;Node17</title>
<path fill="none" stroke="midnightblue" d="M639.66,-302.44C582.1,-292.9 492.31,-277.48 434.92,-267.29"/>
<polygon fill="midnightblue" stroke="midnightblue" points="435.4,-263.82 424.94,-265.52 434.17,-270.72 435.4,-263.82"/>
</g>
<!-- Node18 -->
<g id="node18" class="node">
<title>Node18</title>
<g id="a_node18"><a xlink:href="zscore_8h_source.html" target="_top" xlink:title=" ">
<polygon fill="none" stroke="black" points="460,-246.5 460,-265.5 569,-265.5 569,-246.5 460,-246.5"/>
<text text-anchor="middle" x="514.5" y="-253.5" font-family="Helvetica,sans-Serif" font-size="10.00">ViennaRNA/zscore.h</text>
</a>
</g>
</g>
<!-- Node3&#45;&gt;Node18 -->
<g id="edge42" class="edge">
<title>Node3&#45;&gt;Node18</title>
<path fill="none" stroke="midnightblue" d="M665.98,-302.44C635.43,-293.28 586.79,-278.69 552.9,-268.52"/>
<polygon fill="midnightblue" stroke="midnightblue" points="553.47,-265.04 542.89,-265.52 551.46,-271.74 553.47,-265.04"/>
</g>
<!-- Node5&#45;&gt;Node3 -->
<g id="edge32" class="edge">
<title>Node5&#45;&gt;Node3</title>
<path fill="none" stroke="midnightblue" d="M699.63,-265.75C701.16,-272.86 701.6,-283.14 700.97,-292.1"/>
<polygon fill="midnightblue" stroke="midnightblue" points="697.49,-291.71 699.67,-302.08 704.43,-292.62 697.49,-291.71"/>
</g>
<!-- Node5&#45;&gt;Node4 -->
<g id="edge33" class="edge">
<title>Node5&#45;&gt;Node4</title>
<path fill="none" stroke="midnightblue" d="M682.52,-246.49C661.69,-231.84 617.19,-201.32 577.5,-179 552.42,-164.9 522.8,-150.88 501.43,-141.2"/>
<polygon fill="midnightblue" stroke="midnightblue" points="502.79,-137.98 492.23,-137.08 499.92,-144.37 502.79,-137.98"/>
</g>
<!-- Node6 -->
<g id="node6" class="node">
<title>Node6</title>
<g id="a_node6"><a xlink:href="constants_8h.html" target="_top" xlink:title="Energy parameter constants.">
<polygon fill="none" stroke="black" points="543.5,-118 543.5,-137 701.5,-137 701.5,-118 543.5,-118"/>
<text text-anchor="middle" x="622.5" y="-125" font-family="Helvetica,sans-Serif" font-size="10.00">ViennaRNA/params/constants.h</text>
</a>
</g>
</g>
<!-- Node5&#45;&gt;Node6 -->
<g id="edge5" class="edge">
<title>Node5&#45;&gt;Node6</title>
<path fill="none" stroke="midnightblue" d="M686.32,-246.21C678.49,-237.49 666.7,-223.51 658.5,-210 646.13,-189.61 635.6,-164.21 629.18,-147.23"/>
<polygon fill="midnightblue" stroke="midnightblue" points="632.31,-145.61 625.58,-137.43 625.74,-148.03 632.31,-145.61"/>
</g>
<!-- Node8 -->
<g id="node8" class="node">
<title>Node8</title>
<g id="a_node8"><a xlink:href="datastructures_2basic_8h.html" target="_top" xlink:title="Various data structures and pre&#45;processor macros.">
<polygon fill="none" stroke="black" points="667.5,-179.5 667.5,-209.5 801.5,-209.5 801.5,-179.5 667.5,-179.5"/>
<text text-anchor="start" x="675.5" y="-197.5" font-family="Helvetica,sans-Serif" font-size="10.00">ViennaRNA/datastructures</text>
<text text-anchor="middle" x="734.5" y="-186.5" font-family="Helvetica,sans-Serif" font-size="10.00">/basic.h</text>
</a>
</g>
</g>
<!-- Node5&#45;&gt;Node8 -->
<g id="edge7" class="edge">
<title>Node5&#45;&gt;Node8</title>
<path fill="none" stroke="midnightblue" d="M695.33,-246.48C698.75,-238.94 705.81,-227.63 713.12,-217.57"/>
<polygon fill="midnightblue" stroke="midnightblue" points="715.97,-219.6 719.24,-209.52 710.4,-215.36 715.97,-219.6"/>
</g>
<!-- Node7 -->
<g id="node7" class="node">
<title>Node7</title>
<g id="a_node7"><a xlink:title=" ">
<polygon fill="none" stroke="#bfbfbf" points="598.5,-56.5 598.5,-75.5 646.5,-75.5 646.5,-56.5 598.5,-56.5"/>
<text text-anchor="middle" x="622.5" y="-63.5" font-family="Helvetica,sans-Serif" font-size="10.00">limits.h</text>
</a>
</g>
</g>
<!-- Node6&#45;&gt;Node7 -->
<g id="edge6" class="edge">
<title>Node6&#45;&gt;Node7</title>
<path fill="none" stroke="midnightblue" d="M622.5,-117.98C622.5,-109.58 622.5,-96.48 622.5,-85.66"/>
<polygon fill="midnightblue" stroke="midnightblue" points="626,-85.51 622.5,-75.51 619,-85.51 626,-85.51"/>
</g>
<!-- Node8&#45;&gt;Node3 -->
<g id="edge9" class="edge">
<title>Node8&#45;&gt;Node3</title>
<path fill="none" stroke="midnightblue" d="M751.22,-209.68C766,-224.01 783.63,-246.74 772.5,-266 763.82,-281.02 748.01,-291.48 732.88,-298.5"/>
<polygon fill="midnightblue" stroke="midnightblue" points="731.45,-295.31 723.62,-302.44 734.19,-301.75 731.45,-295.31"/>
</g>
<!-- Node8&#45;&gt;Node4 -->
<g id="edge10" class="edge">
<title>Node8&#45;&gt;Node4</title>
<path fill="none" stroke="midnightblue" d="M677.97,-179.48C629.68,-167.5 561.18,-150.5 516.79,-139.49"/>
<polygon fill="midnightblue" stroke="midnightblue" points="517.43,-136.04 506.88,-137.03 515.74,-142.83 517.43,-136.04"/>
</g>
<!-- Node8&#45;&gt;Node5 -->
<g id="edge11" class="edge">
<title>Node8&#45;&gt;Node5</title>
<path fill="none" stroke="midnightblue" d="M730.9,-209.52C726.18,-218.21 718.75,-229.42 711.69,-238.53"/>
<polygon fill="midnightblue" stroke="midnightblue" points="708.79,-236.53 705.13,-246.48 714.19,-240.99 708.79,-236.53"/>
</g>
<!-- Node8&#45;&gt;Node6 -->
<g id="edge8" class="edge">
<title>Node8&#45;&gt;Node6</title>
<path fill="none" stroke="midnightblue" d="M710.2,-179.4C691.15,-168.34 664.82,-153.06 645.99,-142.13"/>
<polygon fill="midnightblue" stroke="midnightblue" points="647.56,-139 637.16,-137.01 644.05,-145.05 647.56,-139"/>
</g>
<!-- Node8&#45;&gt;Node9 -->
<g id="edge12" class="edge">
<title>Node8&#45;&gt;Node9</title>
<path fill="none" stroke="midnightblue" d="M667.43,-184.71C599.94,-175.08 493.21,-158.89 401.5,-143 394.22,-141.74 386.56,-140.35 379.11,-138.95"/>
<polygon fill="midnightblue" stroke="midnightblue" points="379.61,-135.48 369.13,-137.04 378.3,-142.35 379.61,-135.48"/>
</g>
<!-- Node8&#45;&gt;Node10 -->
<g id="edge15" class="edge">
<title>Node8&#45;&gt;Node10</title>
<path fill="none" stroke="midnightblue" d="M787.14,-179.48C824.86,-169.43 875.81,-155.86 915.65,-145.24"/>
<polygon fill="midnightblue" stroke="midnightblue" points="916.77,-148.57 925.53,-142.61 914.97,-141.8 916.77,-148.57"/>
</g>
<!-- Node8&#45;&gt;Node11 -->
<g id="edge18" class="edge">
<title>Node8&#45;&gt;Node11</title>
<path fill="none" stroke="midnightblue" d="M801.5,-182.6C863.21,-173.01 957.07,-158.24 1038.5,-143 1040.85,-142.56 1043.25,-142.1 1045.67,-141.63"/>
<polygon fill="midnightblue" stroke="midnightblue" points="1046.62,-145.01 1055.74,-139.63 1045.25,-138.14 1046.62,-145.01"/>
</g>
<!-- Node8&#45;&gt;Node12 -->
<g id="edge22" class="edge">
<title>Node8&#45;&gt;Node12</title>
<path fill="none" stroke="midnightblue" d="M667.49,-190.8C554.98,-185.64 321.2,-172.16 125.5,-143 118.54,-141.96 111.22,-140.63 104.08,-139.2"/>
<polygon fill="midnightblue" stroke="midnightblue" points="104.31,-135.67 93.81,-137.04 102.88,-142.52 104.31,-135.67"/>
</g>
<!-- Node8&#45;&gt;Node13 -->
<g id="edge24" class="edge">
<title>Node8&#45;&gt;Node13</title>
<path fill="none" stroke="midnightblue" d="M667.18,-188.72C576.67,-181.76 410.61,-167.15 259.92,-143.13"/>
<polygon fill="midnightblue" stroke="midnightblue" points="260.45,-139.67 250.02,-141.53 259.34,-146.58 260.45,-139.67"/>
</g>
<!-- Node8&#45;&gt;Node14 -->
<g id="edge25" class="edge">
<title>Node8&#45;&gt;Node14</title>
<path fill="none" stroke="midnightblue" d="M751.39,-179.4C765.03,-170.11 784.48,-157.84 801.6,-147.67"/>
<polygon fill="midnightblue" stroke="midnightblue" points="803.44,-150.65 810.3,-142.58 799.91,-144.61 803.44,-150.65"/>
</g>
<!-- Node15 -->
<g id="node15" class="node">
<title>Node15</title>
<g id="a_node15"><a xlink:href="utils_2structures_8h.html" target="_top" xlink:title="Various utility&#45; and helper&#45;functions for secondary structure parsing, converting,...">
<polygon fill="none" stroke="black" points="666.5,-56.5 666.5,-75.5 810.5,-75.5 810.5,-56.5 666.5,-56.5"/>
<text text-anchor="middle" x="738.5" y="-63.5" font-family="Helvetica,sans-Serif" font-size="10.00">ViennaRNA/utils/structures.h</text>
</a>
</g>
</g>
<!-- Node8&#45;&gt;Node15 -->
<g id="edge31" class="edge">
<title>Node8&#45;&gt;Node15</title>
<path fill="none" stroke="midnightblue" d="M730.51,-179.48C728.33,-156.62 729.59,-111.3 732.95,-85.71"/>
<polygon fill="midnightblue" stroke="midnightblue" points="736.41,-86.22 734.57,-75.79 729.5,-85.09 736.41,-86.22"/>
</g>
<!-- Node9&#45;&gt;Node3 -->
<g id="edge14" class="edge">
<title>Node9&#45;&gt;Node3</title>
<path fill="none" stroke="midnightblue" d="M332.92,-137.22C322.78,-161.11 286,-228.34 319.5,-266 338.74,-287.63 506.42,-300.54 610.99,-306.66"/>
<polygon fill="midnightblue" stroke="midnightblue" points="611.03,-310.17 621.22,-307.25 611.44,-303.18 611.03,-310.17"/>
</g>
<!-- Node9&#45;&gt;Node8 -->
<g id="edge13" class="edge">
<title>Node9&#45;&gt;Node8</title>
<path fill="none" stroke="midnightblue" d="M386.58,-137.04C397.52,-139.06 408.91,-141.17 419.5,-143 500.7,-157.07 593.66,-171.37 657.5,-181.15"/>
<polygon fill="midnightblue" stroke="midnightblue" points="657.07,-184.63 667.49,-182.68 658.13,-177.71 657.07,-184.63"/>
</g>
<!-- Node10&#45;&gt;Node2 -->
<g id="edge17" class="edge">
<title>Node10&#45;&gt;Node2</title>
<path fill="none" stroke="midnightblue" d="M983.68,-142.71C998.39,-183.02 1040.47,-298.41 1058.8,-348.65"/>
<polygon fill="midnightblue" stroke="midnightblue" points="1055.62,-350.13 1062.33,-358.33 1062.19,-347.73 1055.62,-350.13"/>
</g>
<!-- Node10&#45;&gt;Node3 -->
<g id="edge16" class="edge">
<title>Node10&#45;&gt;Node3</title>
<path fill="none" stroke="midnightblue" d="M970.32,-142.88C948.16,-170.23 887.75,-230.21 826.5,-266 801.2,-280.79 770.19,-292.09 744.49,-299.67"/>
<polygon fill="midnightblue" stroke="midnightblue" points="743.23,-296.39 734.57,-302.49 745.14,-303.12 743.23,-296.39"/>
</g>
<!-- Node11&#45;&gt;Node2 -->
<g id="edge21" class="edge">
<title>Node11&#45;&gt;Node2</title>
<path fill="none" stroke="midnightblue" d="M1114.58,-142.81C1112.24,-175.2 1104.98,-256.4 1087.5,-322 1085.12,-330.94 1081.62,-340.44 1078.22,-348.77"/>
<polygon fill="midnightblue" stroke="midnightblue" points="1074.89,-347.65 1074.19,-358.22 1081.33,-350.39 1074.89,-347.65"/>
</g>
<!-- Node11&#45;&gt;Node3 -->
<g id="edge20" class="edge">
<title>Node11&#45;&gt;Node3</title>
<path fill="none" stroke="midnightblue" d="M1097.58,-142.71C1056.74,-169.77 954.59,-229.27 862.5,-266 826.28,-280.45 783.69,-292.24 750.36,-300.12"/>
<polygon fill="midnightblue" stroke="midnightblue" points="749.29,-296.78 740.34,-302.44 750.87,-303.6 749.29,-296.78"/>
</g>
<!-- Node11&#45;&gt;Node8 -->
<g id="edge19" class="edge">
<title>Node11&#45;&gt;Node8</title>
<path fill="none" stroke="midnightblue" d="M1059.01,-142.53C1058.17,-142.69 1057.33,-142.84 1056.5,-143 973.43,-158.55 877.42,-173.61 811.92,-183.18"/>
<polygon fill="midnightblue" stroke="midnightblue" points="811.07,-179.76 801.68,-184.67 812.08,-186.69 811.07,-179.76"/>
</g>
<!-- Node12&#45;&gt;Node3 -->
<g id="edge23" class="edge">
<title>Node12&#45;&gt;Node3</title>
<path fill="none" stroke="midnightblue" d="M71.98,-137.25C104.78,-162.44 189.93,-235.3 275.5,-266 335.73,-287.61 506.99,-300.45 611.02,-306.58"/>
<polygon fill="midnightblue" stroke="midnightblue" points="611,-310.08 621.19,-307.17 611.41,-303.09 611,-310.08"/>
</g>
<!-- Node14&#45;&gt;Node3 -->
<g id="edge27" class="edge">
<title>Node14&#45;&gt;Node3</title>
<path fill="none" stroke="midnightblue" d="M842.12,-142.86C842.35,-170.18 830.89,-230.11 797.5,-266 783.16,-281.41 762.44,-292.11 743.26,-299.2"/>
<polygon fill="midnightblue" stroke="midnightblue" points="742.02,-295.92 733.7,-302.48 744.3,-302.54 742.02,-295.92"/>
</g>
<!-- Node14&#45;&gt;Node8 -->
<g id="edge26" class="edge">
<title>Node14&#45;&gt;Node8</title>
<path fill="none" stroke="midnightblue" d="M821.65,-142.58C808.03,-151.85 788.58,-164.12 771.45,-174.3"/>
<polygon fill="midnightblue" stroke="midnightblue" points="769.6,-171.32 762.74,-179.4 773.14,-177.36 769.6,-171.32"/>
</g>
<!-- Node14&#45;&gt;Node15 -->
<g id="edge28" class="edge">
<title>Node14&#45;&gt;Node15</title>
<path fill="none" stroke="midnightblue" d="M814.8,-112.4C798.77,-102.86 777.7,-90.32 761.76,-80.84"/>
<polygon fill="midnightblue" stroke="midnightblue" points="763.43,-77.76 753.05,-75.66 759.86,-83.78 763.43,-77.76"/>
</g>
<!-- Node15&#45;&gt;Node8 -->
<g id="edge30" class="edge">
<title>Node15&#45;&gt;Node8</title>
<path fill="none" stroke="midnightblue" d="M741.87,-75.79C744.68,-94.94 743.82,-141.02 740.69,-169.51"/>
<polygon fill="midnightblue" stroke="midnightblue" points="737.21,-169.11 739.38,-179.48 744.15,-170.02 737.21,-169.11"/>
</g>
<!-- Node16 -->
<g id="node16" class="node">
<title>Node16</title>
<g id="a_node16"><a xlink:title=" ">
<polygon fill="none" stroke="#bfbfbf" points="715.5,-0.5 715.5,-19.5 761.5,-19.5 761.5,-0.5 715.5,-0.5"/>
<text text-anchor="middle" x="738.5" y="-7.5" font-family="Helvetica,sans-Serif" font-size="10.00">stdio.h</text>
</a>
</g>
</g>
<!-- Node15&#45;&gt;Node16 -->
<g id="edge29" class="edge">
<title>Node15&#45;&gt;Node16</title>
<path fill="none" stroke="midnightblue" d="M738.5,-56.08C738.5,-49.01 738.5,-38.86 738.5,-29.99"/>
<polygon fill="midnightblue" stroke="midnightblue" points="742,-29.75 738.5,-19.75 735,-29.75 742,-29.75"/>
</g>
<!-- Node17&#45;&gt;Node3 -->
<g id="edge35" class="edge">
<title>Node17&#45;&gt;Node3</title>
<path fill="none" stroke="midnightblue" d="M435.1,-265.52C492.57,-275.04 582.36,-290.46 639.84,-300.66"/>
<polygon fill="midnightblue" stroke="midnightblue" points="639.38,-304.14 649.83,-302.44 640.6,-297.24 639.38,-304.14"/>
</g>
<!-- Node19&#45;&gt;Node3 -->
<g id="edge46" class="edge">
<title>Node19&#45;&gt;Node3</title>
<path fill="none" stroke="midnightblue" d="M717.39,-358.4C713.21,-350.11 707.89,-339.55 703.43,-330.71"/>
<polygon fill="midnightblue" stroke="midnightblue" points="706.49,-329.01 698.87,-321.66 700.24,-332.16 706.49,-329.01"/>
</g>
<!-- Node20&#45;&gt;Node3 -->
<g id="edge49" class="edge">
<title>Node20&#45;&gt;Node3</title>
<path fill="none" stroke="midnightblue" d="M844.81,-358.4C810.62,-348.07 764.79,-334.23 732.76,-324.56"/>
<polygon fill="midnightblue" stroke="midnightblue" points="733.46,-321.11 722.88,-321.57 731.44,-327.81 733.46,-321.11"/>
</g>
<!-- Node20&#45;&gt;Node8 -->
<g id="edge48" class="edge">
<title>Node20&#45;&gt;Node8</title>
<path fill="none" stroke="midnightblue" d="M880.96,-358.32C862.94,-334.37 824.64,-284.71 788.5,-246 779.06,-235.89 767.99,-225.33 758.34,-216.51"/>
<polygon fill="midnightblue" stroke="midnightblue" points="760.4,-213.65 750.64,-209.54 755.71,-218.85 760.4,-213.65"/>
</g>
</g>
</svg>
        <g id="navigator" transform="translate(0 0)" fill="#404254">
                <rect fill="#f2f5e9" fill-opacity="0.5" stroke="#606060" stroke-width=".5" x="0" y="0" width="60" height="60"/>
                <use id="zoomplus" xlink:href="#zoomPlus" x="17" y="9" onmousedown="handleZoom(evt,'in')"/>
                <use id="zoomminus" xlink:href="#zoomMin" x="42" y="9" onmousedown="handleZoom(evt,'out')"/>
                <use id="reset" xlink:href="#resetDef" x="30" y="36" onmousedown="handleReset()"/>
                <g id="arrowUp" xlink:href="#dirArrow" transform="translate(30 24)" onmousedown="handlePan(0,-1)">
                  <use xlink:href="#rim" fill="#404040">
                        <set attributeName="fill" to="#808080" begin="arrowUp.mouseover" end="arrowUp.mouseout"/>
                  </use>
                  <path fill="none" stroke="white" stroke-width="1.5" d="M0,-3.0v7 M-2.5,-0.5L0,-3.0L2.5,-0.5"/>
                </g>
                <g id="arrowRight" xlink:href="#dirArrow" transform="rotate(90) translate(36 -43)" onmousedown="handlePan(1,0)">
                  <use xlink:href="#rim" fill="#404040">
                        <set attributeName="fill" to="#808080" begin="arrowRight.mouseover" end="arrowRight.mouseout"/>
                  </use>
                  <path fill="none" stroke="white" stroke-width="1.5" d="M0,-3.0v7 M-2.5,-0.5L0,-3.0L2.5,-0.5"/>
                </g>
                <g id="arrowDown" xlink:href="#dirArrow" transform="rotate(180) translate(-30 -48)" onmousedown="handlePan(0,1)">
                  <use xlink:href="#rim" fill="#404040">
                        <set attributeName="fill" to="#808080" begin="arrowDown.mouseover" end="arrowDown.mouseout"/>
                  </use>
                  <path fill="none" stroke="white" stroke-width="1.5" d="M0,-3.0v7 M-2.5,-0.5L0,-3.0L2.5,-0.5"/>
                </g>
                <g id="arrowLeft" xlink:href="#dirArrow" transform="rotate(270) translate(-36 17)" onmousedown="handlePan(-1,0)">
                  <use xlink:href="#rim" fill="#404040">
                        <set attributeName="fill" to="#808080" begin="arrowLeft.mouseover" end="arrowLeft.mouseout"/>
                  </use>
                  <path fill="none" stroke="white" stroke-width="1.5" d="M0,-3.0v7 M-2.5,-0.5L0,-3.0L2.5,-0.5"/>
                </g>
        </g>
        <svg viewBox="0 0 15 15" width="100%" height="30px" preserveAspectRatio="xMaxYMin meet">
         <g id="arrow_out" transform="scale(0.3 0.3)">
          <a xlink:href="constraints_8h__incl_org.svg" target="_base">
           <rect id="button" ry="5" rx="5" y="6" x="6" height="38" width="38"
                fill="#f2f5e9" fill-opacity="0.5" stroke="#606060" stroke-width="1.0"/>
           <path id="arrow"
             d="M 11.500037,31.436501 C 11.940474,20.09759 22.043105,11.32322 32.158766,21.979434 L 37.068811,17.246167 C 37.068811,17.246167 37.088388,32 37.088388,32 L 22.160133,31.978069 C 22.160133,31.978069 26.997745,27.140456 26.997745,27.140456 C 18.528582,18.264221 13.291696,25.230495 11.500037,31.436501 z"
             style="fill:#404040;"/>
          </a>
         </g>
        </svg>
</svg>
