<?xml version="1.0" encoding="UTF-8" standalone="no"?>
<!DOCTYPE svg PUBLIC "-//W3C//DTD SVG 1.1//EN"
 "http://www.w3.org/Graphics/SVG/1.1/DTD/svg11.dtd">
<!-- Generated by graphviz version 2.47.0 (0)
 -->
<!-- Title: ViennaRNA/datastructures/char_stream.h Pages: 1 -->
<svg width="142pt" height="95pt"
 viewBox="0.00 0.00 142.00 95.00" xmlns="http://www.w3.org/2000/svg" xmlns:xlink="http://www.w3.org/1999/xlink">
<g id="graph0" class="graph" transform="scale(1 1) rotate(0) translate(4 91)">
<title>ViennaRNA/datastructures/char_stream.h</title>
<!-- Node1 -->
<g id="node1" class="node">
<title>Node1</title>
<g id="a_node1"><a xlink:title="Implementation of a dynamic, buffered character stream.">
<polygon fill="#bfbfbf" stroke="black" points="0,-56.5 0,-86.5 134,-86.5 134,-56.5 0,-56.5"/>
<text text-anchor="start" x="8" y="-74.5" font-family="Helvetica,sans-Serif" font-size="10.00">ViennaRNA/datastructures</text>
<text text-anchor="middle" x="67" y="-63.5" font-family="Helvetica,sans-Serif" font-size="10.00">/char_stream.h</text>
</a>
</g>
</g>
<!-- Node2 -->
<g id="node2" class="node">
<title>Node2</title>
<g id="a_node2"><a xlink:title=" ">
<polygon fill="none" stroke="#bfbfbf" points="8,-0.5 8,-19.5 60,-19.5 60,-0.5 8,-0.5"/>
<text text-anchor="middle" x="34" y="-7.5" font-family="Helvetica,sans-Serif" font-size="10.00">stdarg.h</text>
</a>
</g>
</g>
<!-- Node1&#45;&gt;Node2 -->
<g id="edge1" class="edge">
<title>Node1&#45;&gt;Node2</title>
<path fill="none" stroke="midnightblue" d="M59.18,-56.4C54.53,-48.02 48.6,-37.33 43.66,-28.42"/>
<polygon fill="midnightblue" stroke="midnightblue" points="46.71,-26.71 38.8,-19.66 40.59,-30.1 46.71,-26.71"/>
</g>
<!-- Node3 -->
<g id="node3" class="node">
<title>Node3</title>
<g id="a_node3"><a xlink:title=" ">
<polygon fill="none" stroke="#bfbfbf" points="78,-0.5 78,-19.5 124,-19.5 124,-0.5 78,-0.5"/>
<text text-anchor="middle" x="101" y="-7.5" font-family="Helvetica,sans-Serif" font-size="10.00">stdio.h</text>
</a>
</g>
</g>
<!-- Node1&#45;&gt;Node3 -->
<g id="edge2" class="edge">
<title>Node1&#45;&gt;Node3</title>
<path fill="none" stroke="midnightblue" d="M75.06,-56.4C79.85,-48.02 85.96,-37.33 91.04,-28.42"/>
<polygon fill="midnightblue" stroke="midnightblue" points="94.13,-30.08 96.05,-19.66 88.05,-26.6 94.13,-30.08"/>
</g>
</g>
</svg>
