<?xml version="1.0" encoding="UTF-8" standalone="no"?>
<!DOCTYPE svg PUBLIC "-//W3C//DTD SVG 1.1//EN"
 "http://www.w3.org/Graphics/SVG/1.1/DTD/svg11.dtd">
<!-- Generated by graphviz version 2.47.0 (0)
 -->
<!-- Title: ViennaRNA/plotting Pages: 1 -->
<svg width="210pt" height="247pt"
 viewBox="0.00 0.00 210.00 247.00" xmlns="http://www.w3.org/2000/svg" xmlns:xlink="http://www.w3.org/1999/xlink">
<g id="graph0" class="graph" transform="scale(1 1) rotate(0) translate(4 243)">
<title>ViennaRNA/plotting</title>
<g id="clust1" class="cluster">
<title>clusterdir_94a42affd43e91f8a4e9ff1a4c7599c5</title>
<g id="a_clust1"><a xlink:href="dir_94a42affd43e91f8a4e9ff1a4c7599c5.html" target="_top" xlink:title="ViennaRNA">
<polygon fill="#ddddee" stroke="black" points="8,-8 8,-231 194,-231 194,-8 8,-8"/>
<text text-anchor="middle" x="101" y="-219" font-family="Helvetica,sans-Serif" font-size="10.00">ViennaRNA</text>
</a>
</g>
</g>
<g id="clust2" class="cluster">
<title>clusterdir_1ca6f3a46323f79e1934000abf5d4efb</title>
<g id="a_clust2"><a xlink:href="dir_1ca6f3a46323f79e1934000abf5d4efb.html" target="_top">
<polygon fill="#eeeeff" stroke="black" points="16,-80 16,-204 102,-204 102,-80 16,-80"/>
</a>
</g>
</g>
<!-- dir_1ddf03e95848b6488d60454f7a385ded -->
<g id="node1" class="node">
<title>dir_1ddf03e95848b6488d60454f7a385ded</title>
<g id="a_node1"><a xlink:href="dir_1ddf03e95848b6488d60454f7a385ded.html" target="_top" xlink:title="utils">
<polygon fill="none" stroke="black" points="166,-124 112,-124 112,-88 166,-88 166,-124"/>
<text text-anchor="middle" x="139" y="-103.5" font-family="Helvetica,sans-Serif" font-size="10.00">utils</text>
</a>
</g>
</g>
<!-- dir_8a4ca9b4a73205797ab566a10a6011af -->
<g id="node2" class="node">
<title>dir_8a4ca9b4a73205797ab566a10a6011af</title>
<g id="a_node2"><a xlink:href="dir_8a4ca9b4a73205797ab566a10a6011af.html" target="_top" xlink:title="datastructures">
<polygon fill="none" stroke="black" points="178.5,-52 99.5,-52 99.5,-16 178.5,-16 178.5,-52"/>
<text text-anchor="middle" x="139" y="-31.5" font-family="Helvetica,sans-Serif" font-size="10.00">datastructures</text>
</a>
</g>
</g>
<!-- dir_1ddf03e95848b6488d60454f7a385ded&#45;&gt;dir_8a4ca9b4a73205797ab566a10a6011af -->
<g id="edge1" class="edge">
<title>dir_1ddf03e95848b6488d60454f7a385ded&#45;&gt;dir_8a4ca9b4a73205797ab566a10a6011af</title>
<path fill="none" stroke="black" d="M133.08,-87.7C132.29,-79.98 132.06,-70.71 132.4,-62.11"/>
<polygon fill="black" stroke="black" points="135.9,-62.32 133.1,-52.1 128.92,-61.84 135.9,-62.32"/>
<g id="a_edge1&#45;headlabel"><a xlink:href="dir_000011_000004.html" target="_top" xlink:title="3">
<text text-anchor="middle" x="138.48" y="-63.61" font-family="Helvetica,sans-Serif" font-size="10.00">3</text>
</a>
</g>
</g>
<!-- dir_8a4ca9b4a73205797ab566a10a6011af&#45;&gt;dir_1ddf03e95848b6488d60454f7a385ded -->
<g id="edge2" class="edge">
<title>dir_8a4ca9b4a73205797ab566a10a6011af&#45;&gt;dir_1ddf03e95848b6488d60454f7a385ded</title>
<path fill="none" stroke="black" d="M144.9,-52.1C145.7,-59.79 145.94,-69.05 145.6,-77.67"/>
<polygon fill="black" stroke="black" points="142.11,-77.48 144.92,-87.7 149.09,-77.96 142.11,-77.48"/>
<g id="a_edge2&#45;headlabel"><a xlink:href="dir_000004_000011.html" target="_top" xlink:title="1">
<text text-anchor="middle" x="139.52" y="-71.2" font-family="Helvetica,sans-Serif" font-size="10.00">1</text>
</a>
</g>
</g>
<!-- dir_1ca6f3a46323f79e1934000abf5d4efb -->
<g id="node3" class="node">
<title>dir_1ca6f3a46323f79e1934000abf5d4efb</title>
<text text-anchor="middle" x="67" y="-175.5" font-family="Helvetica,sans-Serif" font-size="10.00">plotting</text>
</g>
<!-- dir_1ca6f3a46323f79e1934000abf5d4efb&#45;&gt;dir_1ddf03e95848b6488d60454f7a385ded -->
<g id="edge3" class="edge">
<title>dir_1ca6f3a46323f79e1934000abf5d4efb&#45;&gt;dir_1ddf03e95848b6488d60454f7a385ded</title>
<path fill="none" stroke="black" d="M84.8,-159.7C93.6,-151.14 104.38,-140.66 114,-131.3"/>
<polygon fill="black" stroke="black" points="116.68,-133.58 121.41,-124.1 111.8,-128.57 116.68,-133.58"/>
<g id="a_edge3&#45;headlabel"><a xlink:href="dir_000009_000011.html" target="_top" xlink:title="2">
<text text-anchor="middle" x="116.08" y="-135.63" font-family="Helvetica,sans-Serif" font-size="10.00">2</text>
</a>
</g>
</g>
<!-- dir_1ca6f3a46323f79e1934000abf5d4efb&#45;&gt;dir_8a4ca9b4a73205797ab566a10a6011af -->
<g id="edge5" class="edge">
<title>dir_1ca6f3a46323f79e1934000abf5d4efb&#45;&gt;dir_8a4ca9b4a73205797ab566a10a6011af</title>
<path fill="none" stroke="black" d="M94.2,-172.08C120.03,-165.8 157.44,-152.18 175,-124 185.34,-107.4 181.47,-98.45 175,-80 172.5,-72.86 168.33,-66.01 163.7,-59.91"/>
<polygon fill="black" stroke="black" points="166.29,-57.55 157.22,-52.08 160.9,-62.01 166.29,-57.55"/>
<g id="a_edge5&#45;headlabel"><a xlink:href="dir_000009_000004.html" target="_top" xlink:title="3">
<text text-anchor="middle" x="170.77" y="-56" font-family="Helvetica,sans-Serif" font-size="10.00">3</text>
</a>
</g>
</g>
<!-- dir_511ee2b14d6879b7ada858ff02a7ab24 -->
<g id="node4" class="node">
<title>dir_511ee2b14d6879b7ada858ff02a7ab24</title>
<g id="a_node4"><a xlink:href="dir_511ee2b14d6879b7ada858ff02a7ab24.html" target="_top" xlink:title="RNApuzzler">
<polygon fill="white" stroke="black" points="94,-124 24,-124 24,-88 94,-88 94,-124"/>
<text text-anchor="middle" x="59" y="-103.5" font-family="Helvetica,sans-Serif" font-size="10.00">RNApuzzler</text>
</a>
</g>
</g>
<!-- dir_1ca6f3a46323f79e1934000abf5d4efb&#45;&gt;dir_511ee2b14d6879b7ada858ff02a7ab24 -->
<g id="edge4" class="edge">
<title>dir_1ca6f3a46323f79e1934000abf5d4efb&#45;&gt;dir_511ee2b14d6879b7ada858ff02a7ab24</title>
<path fill="none" stroke="black" d="M65.02,-159.7C64.14,-151.98 63.08,-142.71 62.1,-134.11"/>
<polygon fill="black" stroke="black" points="65.57,-133.64 60.95,-124.1 58.61,-134.44 65.57,-133.64"/>
<g id="a_edge4&#45;headlabel"><a xlink:href="dir_000009_000012.html" target="_top" xlink:title="3">
<text text-anchor="middle" x="68.8" y="-134.39" font-family="Helvetica,sans-Serif" font-size="10.00">3</text>
</a>
</g>
</g>
</g>
</svg>
