<?xml version="1.0" encoding="UTF-8" standalone="no"?>
<!DOCTYPE svg PUBLIC "-//W3C//DTD SVG 1.1//EN"
 "http://www.w3.org/Graphics/SVG/1.1/DTD/svg11.dtd">
<!-- Generated by graphviz version 2.47.0 (0)
 -->
<!-- Title: ViennaRNA/loops Pages: 1 -->
<svg width="178pt" height="311pt"
 viewBox="0.00 0.00 178.00 311.00" xmlns="http://www.w3.org/2000/svg" xmlns:xlink="http://www.w3.org/1999/xlink">
<g id="graph0" class="graph" transform="scale(1 1) rotate(0) translate(4 307)">
<title>ViennaRNA/loops</title>
<g id="clust1" class="cluster">
<title>clusterdir_94a42affd43e91f8a4e9ff1a4c7599c5</title>
<g id="a_clust1"><a xlink:href="dir_94a42affd43e91f8a4e9ff1a4c7599c5.html" target="_top" xlink:title="ViennaRNA">
<polygon fill="#ddddee" stroke="black" points="8,-8 8,-295 162,-295 162,-8 8,-8"/>
<text text-anchor="middle" x="85" y="-283" font-family="Helvetica,sans-Serif" font-size="10.00">ViennaRNA</text>
</a>
</g>
</g>
<!-- dir_1ddf03e95848b6488d60454f7a385ded -->
<g id="node1" class="node">
<title>dir_1ddf03e95848b6488d60454f7a385ded</title>
<g id="a_node1"><a xlink:href="dir_1ddf03e95848b6488d60454f7a385ded.html" target="_top" xlink:title="utils">
<polygon fill="none" stroke="black" points="104,-196 50,-196 50,-160 104,-160 104,-196"/>
<text text-anchor="middle" x="77" y="-175.5" font-family="Helvetica,sans-Serif" font-size="10.00">utils</text>
</a>
</g>
</g>
<!-- dir_8a4ca9b4a73205797ab566a10a6011af -->
<g id="node2" class="node">
<title>dir_8a4ca9b4a73205797ab566a10a6011af</title>
<g id="a_node2"><a xlink:href="dir_8a4ca9b4a73205797ab566a10a6011af.html" target="_top" xlink:title="datastructures">
<polygon fill="none" stroke="black" points="124.5,-124 45.5,-124 45.5,-88 124.5,-88 124.5,-124"/>
<text text-anchor="middle" x="85" y="-103.5" font-family="Helvetica,sans-Serif" font-size="10.00">datastructures</text>
</a>
</g>
</g>
<!-- dir_1ddf03e95848b6488d60454f7a385ded&#45;&gt;dir_8a4ca9b4a73205797ab566a10a6011af -->
<g id="edge1" class="edge">
<title>dir_1ddf03e95848b6488d60454f7a385ded&#45;&gt;dir_8a4ca9b4a73205797ab566a10a6011af</title>
<path fill="none" stroke="black" d="M73.06,-159.7C73.15,-151.98 73.98,-142.71 75.31,-134.11"/>
<polygon fill="black" stroke="black" points="78.78,-134.57 77.15,-124.1 71.9,-133.3 78.78,-134.57"/>
<g id="a_edge1&#45;headlabel"><a xlink:href="dir_000011_000004.html" target="_top" xlink:title="3">
<text text-anchor="middle" x="80.92" y="-136.12" font-family="Helvetica,sans-Serif" font-size="10.00">3</text>
</a>
</g>
</g>
<!-- dir_8a4ca9b4a73205797ab566a10a6011af&#45;&gt;dir_1ddf03e95848b6488d60454f7a385ded -->
<g id="edge3" class="edge">
<title>dir_8a4ca9b4a73205797ab566a10a6011af&#45;&gt;dir_1ddf03e95848b6488d60454f7a385ded</title>
<path fill="none" stroke="black" d="M88.94,-124.1C88.87,-131.79 88.05,-141.05 86.73,-149.67"/>
<polygon fill="black" stroke="black" points="83.25,-149.23 84.89,-159.7 90.14,-150.49 83.25,-149.23"/>
<g id="a_edge3&#45;headlabel"><a xlink:href="dir_000004_000011.html" target="_top" xlink:title="1">
<text text-anchor="middle" x="81.1" y="-142.68" font-family="Helvetica,sans-Serif" font-size="10.00">1</text>
</a>
</g>
</g>
<!-- dir_8b3d6293463b6781f7bf8859fc72e182 -->
<g id="node3" class="node">
<title>dir_8b3d6293463b6781f7bf8859fc72e182</title>
<g id="a_node3"><a xlink:href="dir_8b3d6293463b6781f7bf8859fc72e182.html" target="_top" xlink:title="params">
<polygon fill="none" stroke="black" points="70,-52 16,-52 16,-16 70,-16 70,-52"/>
<text text-anchor="middle" x="43" y="-31.5" font-family="Helvetica,sans-Serif" font-size="10.00">params</text>
</a>
</g>
</g>
<!-- dir_8a4ca9b4a73205797ab566a10a6011af&#45;&gt;dir_8b3d6293463b6781f7bf8859fc72e182 -->
<g id="edge4" class="edge">
<title>dir_8a4ca9b4a73205797ab566a10a6011af&#45;&gt;dir_8b3d6293463b6781f7bf8859fc72e182</title>
<path fill="none" stroke="black" d="M68.7,-87.7C63.04,-79.64 56.98,-69.89 52.04,-60.98"/>
<polygon fill="black" stroke="black" points="55.12,-59.32 47.37,-52.1 48.93,-62.58 55.12,-59.32"/>
<g id="a_edge4&#45;headlabel"><a xlink:href="dir_000004_000010.html" target="_top" xlink:title="2">
<text text-anchor="middle" x="59.31" y="-58.68" font-family="Helvetica,sans-Serif" font-size="10.00">2</text>
</a>
</g>
</g>
<!-- dir_e78bc76dd94a8744fef38d57611bd23c -->
<g id="node4" class="node">
<title>dir_e78bc76dd94a8744fef38d57611bd23c</title>
<g id="a_node4"><a xlink:href="dir_e78bc76dd94a8744fef38d57611bd23c.html" target="_top" xlink:title="constraints">
<polygon fill="none" stroke="black" points="153.5,-52 88.5,-52 88.5,-16 153.5,-16 153.5,-52"/>
<text text-anchor="middle" x="121" y="-31.5" font-family="Helvetica,sans-Serif" font-size="10.00">constraints</text>
</a>
</g>
</g>
<!-- dir_8a4ca9b4a73205797ab566a10a6011af&#45;&gt;dir_e78bc76dd94a8744fef38d57611bd23c -->
<g id="edge5" class="edge">
<title>dir_8a4ca9b4a73205797ab566a10a6011af&#45;&gt;dir_e78bc76dd94a8744fef38d57611bd23c</title>
<path fill="none" stroke="black" d="M87.98,-87.7C91.29,-79.64 96.1,-69.89 101.09,-60.98"/>
<polygon fill="black" stroke="black" points="104.26,-62.5 106.31,-52.1 98.22,-58.95 104.26,-62.5"/>
<g id="a_edge5&#45;headlabel"><a xlink:href="dir_000004_000005.html" target="_top" xlink:title="2">
<text text-anchor="middle" x="104.89" y="-64.54" font-family="Helvetica,sans-Serif" font-size="10.00">2</text>
</a>
</g>
</g>
<!-- dir_8b3d6293463b6781f7bf8859fc72e182&#45;&gt;dir_8a4ca9b4a73205797ab566a10a6011af -->
<g id="edge2" class="edge">
<title>dir_8b3d6293463b6781f7bf8859fc72e182&#45;&gt;dir_8a4ca9b4a73205797ab566a10a6011af</title>
<path fill="none" stroke="black" d="M59.16,-52.1C64.81,-60.13 70.88,-69.87 75.83,-78.8"/>
<polygon fill="black" stroke="black" points="72.77,-80.49 80.53,-87.7 78.96,-77.22 72.77,-80.49"/>
<g id="a_edge2&#45;headlabel"><a xlink:href="dir_000010_000004.html" target="_top" xlink:title="1">
<text text-anchor="middle" x="68.58" y="-76.13" font-family="Helvetica,sans-Serif" font-size="10.00">1</text>
</a>
</g>
</g>
<!-- dir_e78bc76dd94a8744fef38d57611bd23c&#45;&gt;dir_8a4ca9b4a73205797ab566a10a6011af -->
<g id="edge10" class="edge">
<title>dir_e78bc76dd94a8744fef38d57611bd23c&#45;&gt;dir_8a4ca9b4a73205797ab566a10a6011af</title>
<path fill="none" stroke="black" d="M118.1,-52.1C114.81,-60.13 110.02,-69.87 105.03,-78.8"/>
<polygon fill="black" stroke="black" points="101.85,-77.3 99.81,-87.7 107.89,-80.84 101.85,-77.3"/>
<g id="a_edge10&#45;headlabel"><a xlink:href="dir_000005_000004.html" target="_top" xlink:title="2">
<text text-anchor="middle" x="101.22" y="-70.26" font-family="Helvetica,sans-Serif" font-size="10.00">2</text>
</a>
</g>
</g>
<!-- dir_54da8e06181df970e10d68c1aa7bbb33 -->
<g id="node5" class="node">
<title>dir_54da8e06181df970e10d68c1aa7bbb33</title>
<g id="a_node5"><a xlink:href="dir_54da8e06181df970e10d68c1aa7bbb33.html" target="_top" xlink:title="loops">
<polygon fill="#eeeeff" stroke="black" points="127,-268 73,-268 73,-232 127,-232 127,-268"/>
<text text-anchor="middle" x="100" y="-247.5" font-family="Helvetica,sans-Serif" font-size="10.00">loops</text>
</a>
</g>
</g>
<!-- dir_54da8e06181df970e10d68c1aa7bbb33&#45;&gt;dir_1ddf03e95848b6488d60454f7a385ded -->
<g id="edge6" class="edge">
<title>dir_54da8e06181df970e10d68c1aa7bbb33&#45;&gt;dir_1ddf03e95848b6488d60454f7a385ded</title>
<path fill="none" stroke="black" d="M94.31,-231.7C91.75,-223.9 88.67,-214.51 85.82,-205.83"/>
<polygon fill="black" stroke="black" points="89.07,-204.51 82.62,-196.1 82.42,-206.7 89.07,-204.51"/>
<g id="a_edge6&#45;headlabel"><a xlink:href="dir_000008_000011.html" target="_top" xlink:title="3">
<text text-anchor="middle" x="92.89" y="-204.54" font-family="Helvetica,sans-Serif" font-size="10.00">3</text>
</a>
</g>
</g>
<!-- dir_54da8e06181df970e10d68c1aa7bbb33&#45;&gt;dir_8a4ca9b4a73205797ab566a10a6011af -->
<g id="edge7" class="edge">
<title>dir_54da8e06181df970e10d68c1aa7bbb33&#45;&gt;dir_8a4ca9b4a73205797ab566a10a6011af</title>
<path fill="none" stroke="black" d="M106.43,-231.74C112.26,-213.67 119.09,-184.55 113,-160 110.71,-150.75 106.47,-141.34 101.98,-133.07"/>
<polygon fill="black" stroke="black" points="104.93,-131.17 96.89,-124.28 98.87,-134.68 104.93,-131.17"/>
<g id="a_edge7&#45;headlabel"><a xlink:href="dir_000008_000004.html" target="_top" xlink:title="4">
<text text-anchor="middle" x="109.19" y="-130.36" font-family="Helvetica,sans-Serif" font-size="10.00">4</text>
</a>
</g>
</g>
<!-- dir_54da8e06181df970e10d68c1aa7bbb33&#45;&gt;dir_8b3d6293463b6781f7bf8859fc72e182 -->
<g id="edge8" class="edge">
<title>dir_54da8e06181df970e10d68c1aa7bbb33&#45;&gt;dir_8b3d6293463b6781f7bf8859fc72e182</title>
<path fill="none" stroke="black" d="M72.87,-231.94C60.89,-222.84 47.97,-210.53 41,-196 20.27,-152.79 28.21,-95.24 35.71,-61.95"/>
<polygon fill="black" stroke="black" points="39.15,-62.58 38.09,-52.04 32.35,-60.94 39.15,-62.58"/>
<g id="a_edge8&#45;headlabel"><a xlink:href="dir_000008_000010.html" target="_top" xlink:title="4">
<text text-anchor="middle" x="41.07" y="-64.24" font-family="Helvetica,sans-Serif" font-size="10.00">4</text>
</a>
</g>
</g>
<!-- dir_54da8e06181df970e10d68c1aa7bbb33&#45;&gt;dir_e78bc76dd94a8744fef38d57611bd23c -->
<g id="edge9" class="edge">
<title>dir_54da8e06181df970e10d68c1aa7bbb33&#45;&gt;dir_e78bc76dd94a8744fef38d57611bd23c</title>
<path fill="none" stroke="black" d="M107.48,-231.78C119.31,-202.5 140.41,-141.04 134,-88 132.98,-79.53 131.07,-70.47 129.02,-62.28"/>
<polygon fill="black" stroke="black" points="132.36,-61.23 126.41,-52.47 125.6,-63.03 132.36,-61.23"/>
<g id="a_edge9&#45;headlabel"><a xlink:href="dir_000008_000005.html" target="_top" xlink:title="2">
<text text-anchor="middle" x="136.03" y="-61.48" font-family="Helvetica,sans-Serif" font-size="10.00">2</text>
</a>
</g>
</g>
</g>
</svg>
