<?xml version="1.0" encoding="UTF-8" standalone="no"?>
<!DOCTYPE svg PUBLIC "-//W3C//DTD SVG 1.1//EN"
 "http://www.w3.org/Graphics/SVG/1.1/DTD/svg11.dtd">
<!-- Generated by graphviz version 2.47.0 (0)
 -->
<!-- Title: ViennaRNA Pages: 1 -->
<svg width="318pt" height="292pt"
 viewBox="0.00 0.00 318.00 292.00" xmlns="http://www.w3.org/2000/svg" xmlns:xlink="http://www.w3.org/1999/xlink">
<g id="graph0" class="graph" transform="scale(1 1) rotate(0) translate(4 288)">
<title>ViennaRNA</title>
<g id="clust1" class="cluster">
<title>clusterdir_94a42affd43e91f8a4e9ff1a4c7599c5</title>
<g id="a_clust1"><a xlink:href="dir_94a42affd43e91f8a4e9ff1a4c7599c5.html" target="_top">
<polygon fill="#eeeeff" stroke="black" points="8,-8 8,-276 302,-276 302,-8 8,-8"/>
</a>
</g>
</g>
<!-- dir_94a42affd43e91f8a4e9ff1a4c7599c5 -->
<g id="node1" class="node">
<title>dir_94a42affd43e91f8a4e9ff1a4c7599c5</title>
<text text-anchor="middle" x="195" y="-247.5" font-family="Helvetica,sans-Serif" font-size="10.00">ViennaRNA</text>
</g>
<!-- dir_45ac42044d8b814ecf694abd17d2de12 -->
<g id="node4" class="node">
<title>dir_45ac42044d8b814ecf694abd17d2de12</title>
<g id="a_node4"><a xlink:href="dir_45ac42044d8b814ecf694abd17d2de12.html" target="_top" xlink:title="io">
<polygon fill="white" stroke="black" points="222,-196 168,-196 168,-160 222,-160 222,-196"/>
<text text-anchor="middle" x="195" y="-175.5" font-family="Helvetica,sans-Serif" font-size="10.00">io</text>
</a>
</g>
</g>
<!-- dir_94a42affd43e91f8a4e9ff1a4c7599c5&#45;&gt;dir_45ac42044d8b814ecf694abd17d2de12 -->
<g id="edge7" class="edge">
<title>dir_94a42affd43e91f8a4e9ff1a4c7599c5&#45;&gt;dir_45ac42044d8b814ecf694abd17d2de12</title>
<path fill="none" stroke="black" d="M195,-231.7C195,-223.98 195,-214.71 195,-206.11"/>
<polygon fill="black" stroke="black" points="198.5,-206.1 195,-196.1 191.5,-206.1 198.5,-206.1"/>
<g id="a_edge7&#45;headlabel"><a xlink:href="dir_000003_000006.html" target="_top" xlink:title="5">
<text text-anchor="middle" x="201.34" y="-207.2" font-family="Helvetica,sans-Serif" font-size="10.00">5</text>
</a>
</g>
</g>
<!-- dir_3d74ce004720553e7871f65d12e07ff9 -->
<g id="node5" class="node">
<title>dir_3d74ce004720553e7871f65d12e07ff9</title>
<g id="a_node5"><a xlink:href="dir_3d74ce004720553e7871f65d12e07ff9.html" target="_top" xlink:title="landscape">
<polygon fill="white" stroke="black" points="149.5,-196 88.5,-196 88.5,-160 149.5,-160 149.5,-196"/>
<text text-anchor="middle" x="119" y="-175.5" font-family="Helvetica,sans-Serif" font-size="10.00">landscape</text>
</a>
</g>
</g>
<!-- dir_94a42affd43e91f8a4e9ff1a4c7599c5&#45;&gt;dir_3d74ce004720553e7871f65d12e07ff9 -->
<g id="edge6" class="edge">
<title>dir_94a42affd43e91f8a4e9ff1a4c7599c5&#45;&gt;dir_3d74ce004720553e7871f65d12e07ff9</title>
<path fill="none" stroke="black" d="M176.21,-231.7C166.83,-223.05 155.32,-212.45 145.09,-203.03"/>
<polygon fill="black" stroke="black" points="147.3,-200.3 137.57,-196.1 142.55,-205.45 147.3,-200.3"/>
<g id="a_edge6&#45;headlabel"><a xlink:href="dir_000003_000007.html" target="_top" xlink:title="6">
<text text-anchor="middle" x="151.86" y="-198.15" font-family="Helvetica,sans-Serif" font-size="10.00">6</text>
</a>
</g>
</g>
<!-- dir_54da8e06181df970e10d68c1aa7bbb33 -->
<g id="node6" class="node">
<title>dir_54da8e06181df970e10d68c1aa7bbb33</title>
<g id="a_node6"><a xlink:href="dir_54da8e06181df970e10d68c1aa7bbb33.html" target="_top" xlink:title="loops">
<polygon fill="white" stroke="black" points="294,-196 240,-196 240,-160 294,-160 294,-196"/>
<text text-anchor="middle" x="267" y="-175.5" font-family="Helvetica,sans-Serif" font-size="10.00">loops</text>
</a>
</g>
</g>
<!-- dir_94a42affd43e91f8a4e9ff1a4c7599c5&#45;&gt;dir_54da8e06181df970e10d68c1aa7bbb33 -->
<g id="edge8" class="edge">
<title>dir_94a42affd43e91f8a4e9ff1a4c7599c5&#45;&gt;dir_54da8e06181df970e10d68c1aa7bbb33</title>
<path fill="none" stroke="black" d="M212.8,-231.7C221.6,-223.14 232.38,-212.66 242,-203.3"/>
<polygon fill="black" stroke="black" points="244.68,-205.58 249.41,-196.1 239.8,-200.57 244.68,-205.58"/>
<g id="a_edge8&#45;headlabel"><a xlink:href="dir_000003_000008.html" target="_top" xlink:title="5">
<text text-anchor="middle" x="244.08" y="-207.63" font-family="Helvetica,sans-Serif" font-size="10.00">5</text>
</a>
</g>
</g>
<!-- dir_e78bc76dd94a8744fef38d57611bd23c -->
<g id="node2" class="node">
<title>dir_e78bc76dd94a8744fef38d57611bd23c</title>
<g id="a_node2"><a xlink:href="dir_e78bc76dd94a8744fef38d57611bd23c.html" target="_top" xlink:title="constraints">
<polygon fill="white" stroke="black" points="221.5,-52 156.5,-52 156.5,-16 221.5,-16 221.5,-52"/>
<text text-anchor="middle" x="189" y="-31.5" font-family="Helvetica,sans-Serif" font-size="10.00">constraints</text>
</a>
</g>
</g>
<!-- dir_8a4ca9b4a73205797ab566a10a6011af -->
<g id="node3" class="node">
<title>dir_8a4ca9b4a73205797ab566a10a6011af</title>
<g id="a_node3"><a xlink:href="dir_8a4ca9b4a73205797ab566a10a6011af.html" target="_top" xlink:title="datastructures">
<polygon fill="white" stroke="black" points="228.5,-124 149.5,-124 149.5,-88 228.5,-88 228.5,-124"/>
<text text-anchor="middle" x="189" y="-103.5" font-family="Helvetica,sans-Serif" font-size="10.00">datastructures</text>
</a>
</g>
</g>
<!-- dir_e78bc76dd94a8744fef38d57611bd23c&#45;&gt;dir_8a4ca9b4a73205797ab566a10a6011af -->
<g id="edge13" class="edge">
<title>dir_e78bc76dd94a8744fef38d57611bd23c&#45;&gt;dir_8a4ca9b4a73205797ab566a10a6011af</title>
<path fill="none" stroke="black" d="M194.9,-52.1C195.7,-59.79 195.94,-69.05 195.6,-77.67"/>
<polygon fill="black" stroke="black" points="192.11,-77.48 194.92,-87.7 199.09,-77.96 192.11,-77.48"/>
<g id="a_edge13&#45;headlabel"><a xlink:href="dir_000005_000004.html" target="_top" xlink:title="2">
<text text-anchor="middle" x="189.52" y="-71.2" font-family="Helvetica,sans-Serif" font-size="10.00">2</text>
</a>
</g>
</g>
<!-- dir_8a4ca9b4a73205797ab566a10a6011af&#45;&gt;dir_e78bc76dd94a8744fef38d57611bd23c -->
<g id="edge5" class="edge">
<title>dir_8a4ca9b4a73205797ab566a10a6011af&#45;&gt;dir_e78bc76dd94a8744fef38d57611bd23c</title>
<path fill="none" stroke="black" d="M183.08,-87.7C182.29,-79.98 182.06,-70.71 182.4,-62.11"/>
<polygon fill="black" stroke="black" points="185.9,-62.32 183.1,-52.1 178.92,-61.84 185.9,-62.32"/>
<g id="a_edge5&#45;headlabel"><a xlink:href="dir_000004_000005.html" target="_top" xlink:title="2">
<text text-anchor="middle" x="188.48" y="-63.61" font-family="Helvetica,sans-Serif" font-size="10.00">2</text>
</a>
</g>
</g>
<!-- dir_8b3d6293463b6781f7bf8859fc72e182 -->
<g id="node7" class="node">
<title>dir_8b3d6293463b6781f7bf8859fc72e182</title>
<g id="a_node7"><a xlink:href="dir_8b3d6293463b6781f7bf8859fc72e182.html" target="_top" xlink:title="params">
<polygon fill="white" stroke="black" points="294,-52 240,-52 240,-16 294,-16 294,-52"/>
<text text-anchor="middle" x="267" y="-31.5" font-family="Helvetica,sans-Serif" font-size="10.00">params</text>
</a>
</g>
</g>
<!-- dir_8a4ca9b4a73205797ab566a10a6011af&#45;&gt;dir_8b3d6293463b6781f7bf8859fc72e182 -->
<g id="edge4" class="edge">
<title>dir_8a4ca9b4a73205797ab566a10a6011af&#45;&gt;dir_8b3d6293463b6781f7bf8859fc72e182</title>
<path fill="none" stroke="black" d="M202.37,-87.7C211.19,-78.97 222.97,-68.24 234.11,-58.75"/>
<polygon fill="black" stroke="black" points="236.62,-61.21 242.05,-52.1 232.13,-55.84 236.62,-61.21"/>
<g id="a_edge4&#45;headlabel"><a xlink:href="dir_000004_000010.html" target="_top" xlink:title="2">
<text text-anchor="middle" x="235.69" y="-63.19" font-family="Helvetica,sans-Serif" font-size="10.00">2</text>
</a>
</g>
</g>
<!-- dir_1ddf03e95848b6488d60454f7a385ded -->
<g id="node10" class="node">
<title>dir_1ddf03e95848b6488d60454f7a385ded</title>
<g id="a_node10"><a xlink:href="dir_1ddf03e95848b6488d60454f7a385ded.html" target="_top" xlink:title="utils">
<polygon fill="white" stroke="black" points="138,-52 84,-52 84,-16 138,-16 138,-52"/>
<text text-anchor="middle" x="111" y="-31.5" font-family="Helvetica,sans-Serif" font-size="10.00">utils</text>
</a>
</g>
</g>
<!-- dir_8a4ca9b4a73205797ab566a10a6011af&#45;&gt;dir_1ddf03e95848b6488d60454f7a385ded -->
<g id="edge3" class="edge">
<title>dir_8a4ca9b4a73205797ab566a10a6011af&#45;&gt;dir_1ddf03e95848b6488d60454f7a385ded</title>
<path fill="none" stroke="black" d="M163.8,-87.7C153.38,-79.14 141.52,-68.66 131.62,-59.3"/>
<polygon fill="black" stroke="black" points="133.79,-56.53 124.16,-52.1 128.93,-61.57 133.79,-56.53"/>
<g id="a_edge3&#45;headlabel"><a xlink:href="dir_000004_000011.html" target="_top" xlink:title="1">
<text text-anchor="middle" x="138.35" y="-54.49" font-family="Helvetica,sans-Serif" font-size="10.00">1</text>
</a>
</g>
</g>
<!-- dir_45ac42044d8b814ecf694abd17d2de12&#45;&gt;dir_8a4ca9b4a73205797ab566a10a6011af -->
<g id="edge14" class="edge">
<title>dir_45ac42044d8b814ecf694abd17d2de12&#45;&gt;dir_8a4ca9b4a73205797ab566a10a6011af</title>
<path fill="none" stroke="black" d="M193.52,-159.7C192.86,-151.98 192.06,-142.71 191.32,-134.11"/>
<polygon fill="black" stroke="black" points="194.81,-133.77 190.47,-124.1 187.83,-134.37 194.81,-133.77"/>
<g id="a_edge14&#45;headlabel"><a xlink:href="dir_000006_000004.html" target="_top" xlink:title="1">
<text text-anchor="middle" x="197.94" y="-134.61" font-family="Helvetica,sans-Serif" font-size="10.00">1</text>
</a>
</g>
</g>
<!-- dir_54da8e06181df970e10d68c1aa7bbb33&#45;&gt;dir_e78bc76dd94a8744fef38d57611bd23c -->
<g id="edge12" class="edge">
<title>dir_54da8e06181df970e10d68c1aa7bbb33&#45;&gt;dir_e78bc76dd94a8744fef38d57611bd23c</title>
<path fill="none" stroke="black" d="M263.68,-159.68C259.6,-141.05 251.49,-110.99 238,-88 231.98,-77.74 223.69,-67.8 215.63,-59.35"/>
<polygon fill="black" stroke="black" points="217.91,-56.68 208.38,-52.05 212.94,-61.61 217.91,-56.68"/>
<g id="a_edge12&#45;headlabel"><a xlink:href="dir_000008_000005.html" target="_top" xlink:title="2">
<text text-anchor="middle" x="222.46" y="-54.73" font-family="Helvetica,sans-Serif" font-size="10.00">2</text>
</a>
</g>
</g>
<!-- dir_54da8e06181df970e10d68c1aa7bbb33&#45;&gt;dir_8a4ca9b4a73205797ab566a10a6011af -->
<g id="edge10" class="edge">
<title>dir_54da8e06181df970e10d68c1aa7bbb33&#45;&gt;dir_8a4ca9b4a73205797ab566a10a6011af</title>
<path fill="none" stroke="black" d="M247.72,-159.7C238.08,-151.05 226.27,-140.45 215.77,-131.03"/>
<polygon fill="black" stroke="black" points="217.84,-128.18 208.06,-124.1 213.16,-133.39 217.84,-128.18"/>
<g id="a_edge10&#45;headlabel"><a xlink:href="dir_000008_000004.html" target="_top" xlink:title="4">
<text text-anchor="middle" x="222.41" y="-125.97" font-family="Helvetica,sans-Serif" font-size="10.00">4</text>
</a>
</g>
</g>
<!-- dir_54da8e06181df970e10d68c1aa7bbb33&#45;&gt;dir_8b3d6293463b6781f7bf8859fc72e182 -->
<g id="edge11" class="edge">
<title>dir_54da8e06181df970e10d68c1aa7bbb33&#45;&gt;dir_8b3d6293463b6781f7bf8859fc72e182</title>
<path fill="none" stroke="black" d="M267,-159.87C267,-135.67 267,-91.21 267,-62.39"/>
<polygon fill="black" stroke="black" points="270.5,-62.19 267,-52.19 263.5,-62.19 270.5,-62.19"/>
<g id="a_edge11&#45;headlabel"><a xlink:href="dir_000008_000010.html" target="_top" xlink:title="4">
<text text-anchor="middle" x="273.34" y="-63.28" font-family="Helvetica,sans-Serif" font-size="10.00">4</text>
</a>
</g>
</g>
<!-- dir_54da8e06181df970e10d68c1aa7bbb33&#45;&gt;dir_1ddf03e95848b6488d60454f7a385ded -->
<g id="edge9" class="edge">
<title>dir_54da8e06181df970e10d68c1aa7bbb33&#45;&gt;dir_1ddf03e95848b6488d60454f7a385ded</title>
<path fill="none" stroke="black" d="M239.95,-164.01C236.94,-162.63 233.91,-161.27 231,-160 191.5,-142.79 170.61,-155.29 141,-124 125.12,-107.21 117.62,-81.73 114.1,-62.32"/>
<polygon fill="black" stroke="black" points="117.53,-61.6 112.52,-52.27 110.61,-62.69 117.53,-61.6"/>
<g id="a_edge9&#45;headlabel"><a xlink:href="dir_000008_000011.html" target="_top" xlink:title="3">
<text text-anchor="middle" x="120.89" y="-62.21" font-family="Helvetica,sans-Serif" font-size="10.00">3</text>
</a>
</g>
</g>
<!-- dir_8b3d6293463b6781f7bf8859fc72e182&#45;&gt;dir_8a4ca9b4a73205797ab566a10a6011af -->
<g id="edge2" class="edge">
<title>dir_8b3d6293463b6781f7bf8859fc72e182&#45;&gt;dir_8a4ca9b4a73205797ab566a10a6011af</title>
<path fill="none" stroke="black" d="M253.84,-52.1C245.05,-60.8 233.29,-71.52 222.15,-81.03"/>
<polygon fill="black" stroke="black" points="219.61,-78.59 214.2,-87.7 224.11,-83.96 219.61,-78.59"/>
<g id="a_edge2&#45;headlabel"><a xlink:href="dir_000010_000004.html" target="_top" xlink:title="1">
<text text-anchor="middle" x="220.54" y="-71.61" font-family="Helvetica,sans-Serif" font-size="10.00">1</text>
</a>
</g>
</g>
<!-- dir_1ca6f3a46323f79e1934000abf5d4efb -->
<g id="node8" class="node">
<title>dir_1ca6f3a46323f79e1934000abf5d4efb</title>
<g id="a_node8"><a xlink:href="dir_1ca6f3a46323f79e1934000abf5d4efb.html" target="_top" xlink:title="plotting">
<polygon fill="white" stroke="red" points="70,-196 16,-196 16,-160 70,-160 70,-196"/>
<text text-anchor="middle" x="43" y="-175.5" font-family="Helvetica,sans-Serif" font-size="10.00">plotting</text>
</a>
</g>
</g>
<!-- dir_1ca6f3a46323f79e1934000abf5d4efb&#45;&gt;dir_8a4ca9b4a73205797ab566a10a6011af -->
<g id="edge16" class="edge">
<title>dir_1ca6f3a46323f79e1934000abf5d4efb&#45;&gt;dir_8a4ca9b4a73205797ab566a10a6011af</title>
<path fill="none" stroke="black" d="M70.12,-164C90.96,-154.01 120.19,-139.99 144.45,-128.36"/>
<polygon fill="black" stroke="black" points="145.97,-131.51 153.48,-124.03 142.95,-125.2 145.97,-131.51"/>
<g id="a_edge16&#45;headlabel"><a xlink:href="dir_000009_000004.html" target="_top" xlink:title="3">
<text text-anchor="middle" x="143.96" y="-133.13" font-family="Helvetica,sans-Serif" font-size="10.00">3</text>
</a>
</g>
</g>
<!-- dir_1ca6f3a46323f79e1934000abf5d4efb&#45;&gt;dir_1ddf03e95848b6488d60454f7a385ded -->
<g id="edge15" class="edge">
<title>dir_1ca6f3a46323f79e1934000abf5d4efb&#45;&gt;dir_1ddf03e95848b6488d60454f7a385ded</title>
<path fill="none" stroke="black" d="M51.2,-159.87C62.94,-135.35 84.65,-90.03 98.43,-61.26"/>
<polygon fill="black" stroke="black" points="101.61,-62.72 102.77,-52.19 95.29,-59.7 101.61,-62.72"/>
<g id="a_edge15&#45;headlabel"><a xlink:href="dir_000009_000011.html" target="_top" xlink:title="2">
<text text-anchor="middle" x="102.61" y="-64.69" font-family="Helvetica,sans-Serif" font-size="10.00">2</text>
</a>
</g>
</g>
<!-- dir_ece6de16e10c3ab1bafd819fa99af76e -->
<g id="node9" class="node">
<title>dir_ece6de16e10c3ab1bafd819fa99af76e</title>
<g id="a_node9"><a xlink:href="dir_ece6de16e10c3ab1bafd819fa99af76e.html" target="_top" xlink:title="search">
<polygon fill="white" stroke="black" points="107,-268 53,-268 53,-232 107,-232 107,-268"/>
<text text-anchor="middle" x="80" y="-247.5" font-family="Helvetica,sans-Serif" font-size="10.00">search</text>
</a>
</g>
</g>
<!-- dir_1ddf03e95848b6488d60454f7a385ded&#45;&gt;dir_8a4ca9b4a73205797ab566a10a6011af -->
<g id="edge1" class="edge">
<title>dir_1ddf03e95848b6488d60454f7a385ded&#45;&gt;dir_8a4ca9b4a73205797ab566a10a6011af</title>
<path fill="none" stroke="black" d="M135.95,-52.1C146.35,-60.64 158.22,-71.11 168.15,-80.48"/>
<polygon fill="black" stroke="black" points="166.01,-83.27 175.63,-87.7 170.87,-78.24 166.01,-83.27"/>
<g id="a_edge1&#45;headlabel"><a xlink:href="dir_000011_000004.html" target="_top" xlink:title="3">
<text text-anchor="middle" x="161.45" y="-80.32" font-family="Helvetica,sans-Serif" font-size="10.00">3</text>
</a>
</g>
</g>
</g>
</svg>
