<?xml version="1.0" encoding="UTF-8" standalone="no"?>
<!DOCTYPE svg PUBLIC "-//W3C//DTD SVG 1.1//EN"
 "http://www.w3.org/Graphics/SVG/1.1/DTD/svg11.dtd">
<!-- Generated by graphviz version 2.47.0 (0)
 -->
<!-- Title: ViennaRNA/datastructures Pages: 1 -->
<svg width="178pt" height="239pt"
 viewBox="0.00 0.00 178.00 239.00" xmlns="http://www.w3.org/2000/svg" xmlns:xlink="http://www.w3.org/1999/xlink">
<g id="graph0" class="graph" transform="scale(1 1) rotate(0) translate(4 235)">
<title>ViennaRNA/datastructures</title>
<g id="clust1" class="cluster">
<title>clusterdir_94a42affd43e91f8a4e9ff1a4c7599c5</title>
<g id="a_clust1"><a xlink:href="dir_94a42affd43e91f8a4e9ff1a4c7599c5.html" target="_top" xlink:title="ViennaRNA">
<polygon fill="#ddddee" stroke="black" points="8,-8 8,-223 162,-223 162,-8 8,-8"/>
<text text-anchor="middle" x="85" y="-211" font-family="Helvetica,sans-Serif" font-size="10.00">ViennaRNA</text>
</a>
</g>
</g>
<!-- dir_1ddf03e95848b6488d60454f7a385ded -->
<g id="node1" class="node">
<title>dir_1ddf03e95848b6488d60454f7a385ded</title>
<g id="a_node1"><a xlink:href="dir_1ddf03e95848b6488d60454f7a385ded.html" target="_top" xlink:title="utils">
<polygon fill="none" stroke="black" points="112,-196 58,-196 58,-160 112,-160 112,-196"/>
<text text-anchor="middle" x="85" y="-175.5" font-family="Helvetica,sans-Serif" font-size="10.00">utils</text>
</a>
</g>
</g>
<!-- dir_8a4ca9b4a73205797ab566a10a6011af -->
<g id="node4" class="node">
<title>dir_8a4ca9b4a73205797ab566a10a6011af</title>
<g id="a_node4"><a xlink:href="dir_8a4ca9b4a73205797ab566a10a6011af.html" target="_top" xlink:title="datastructures">
<polygon fill="#eeeeff" stroke="black" points="124.5,-124 45.5,-124 45.5,-88 124.5,-88 124.5,-124"/>
<text text-anchor="middle" x="85" y="-103.5" font-family="Helvetica,sans-Serif" font-size="10.00">datastructures</text>
</a>
</g>
</g>
<!-- dir_1ddf03e95848b6488d60454f7a385ded&#45;&gt;dir_8a4ca9b4a73205797ab566a10a6011af -->
<g id="edge1" class="edge">
<title>dir_1ddf03e95848b6488d60454f7a385ded&#45;&gt;dir_8a4ca9b4a73205797ab566a10a6011af</title>
<path fill="none" stroke="black" d="M79.08,-159.7C78.29,-151.98 78.06,-142.71 78.4,-134.11"/>
<polygon fill="black" stroke="black" points="81.9,-134.32 79.1,-124.1 74.92,-133.84 81.9,-134.32"/>
<g id="a_edge1&#45;headlabel"><a xlink:href="dir_000011_000004.html" target="_top" xlink:title="3">
<text text-anchor="middle" x="84.48" y="-135.61" font-family="Helvetica,sans-Serif" font-size="10.00">3</text>
</a>
</g>
</g>
<!-- dir_8b3d6293463b6781f7bf8859fc72e182 -->
<g id="node2" class="node">
<title>dir_8b3d6293463b6781f7bf8859fc72e182</title>
<g id="a_node2"><a xlink:href="dir_8b3d6293463b6781f7bf8859fc72e182.html" target="_top" xlink:title="params">
<polygon fill="none" stroke="black" points="70,-52 16,-52 16,-16 70,-16 70,-52"/>
<text text-anchor="middle" x="43" y="-31.5" font-family="Helvetica,sans-Serif" font-size="10.00">params</text>
</a>
</g>
</g>
<!-- dir_8b3d6293463b6781f7bf8859fc72e182&#45;&gt;dir_8a4ca9b4a73205797ab566a10a6011af -->
<g id="edge2" class="edge">
<title>dir_8b3d6293463b6781f7bf8859fc72e182&#45;&gt;dir_8a4ca9b4a73205797ab566a10a6011af</title>
<path fill="none" stroke="black" d="M59.16,-52.1C64.81,-60.13 70.88,-69.87 75.83,-78.8"/>
<polygon fill="black" stroke="black" points="72.77,-80.49 80.53,-87.7 78.96,-77.22 72.77,-80.49"/>
<g id="a_edge2&#45;headlabel"><a xlink:href="dir_000010_000004.html" target="_top" xlink:title="1">
<text text-anchor="middle" x="68.58" y="-76.13" font-family="Helvetica,sans-Serif" font-size="10.00">1</text>
</a>
</g>
</g>
<!-- dir_e78bc76dd94a8744fef38d57611bd23c -->
<g id="node3" class="node">
<title>dir_e78bc76dd94a8744fef38d57611bd23c</title>
<g id="a_node3"><a xlink:href="dir_e78bc76dd94a8744fef38d57611bd23c.html" target="_top" xlink:title="constraints">
<polygon fill="none" stroke="black" points="153.5,-52 88.5,-52 88.5,-16 153.5,-16 153.5,-52"/>
<text text-anchor="middle" x="121" y="-31.5" font-family="Helvetica,sans-Serif" font-size="10.00">constraints</text>
</a>
</g>
</g>
<!-- dir_e78bc76dd94a8744fef38d57611bd23c&#45;&gt;dir_8a4ca9b4a73205797ab566a10a6011af -->
<g id="edge6" class="edge">
<title>dir_e78bc76dd94a8744fef38d57611bd23c&#45;&gt;dir_8a4ca9b4a73205797ab566a10a6011af</title>
<path fill="none" stroke="black" d="M118.1,-52.1C114.81,-60.13 110.02,-69.87 105.03,-78.8"/>
<polygon fill="black" stroke="black" points="101.85,-77.3 99.81,-87.7 107.89,-80.84 101.85,-77.3"/>
<g id="a_edge6&#45;headlabel"><a xlink:href="dir_000005_000004.html" target="_top" xlink:title="2">
<text text-anchor="middle" x="101.22" y="-70.26" font-family="Helvetica,sans-Serif" font-size="10.00">2</text>
</a>
</g>
</g>
<!-- dir_8a4ca9b4a73205797ab566a10a6011af&#45;&gt;dir_1ddf03e95848b6488d60454f7a385ded -->
<g id="edge3" class="edge">
<title>dir_8a4ca9b4a73205797ab566a10a6011af&#45;&gt;dir_1ddf03e95848b6488d60454f7a385ded</title>
<path fill="none" stroke="black" d="M90.9,-124.1C91.7,-131.79 91.94,-141.05 91.6,-149.67"/>
<polygon fill="black" stroke="black" points="88.11,-149.48 90.92,-159.7 95.09,-149.96 88.11,-149.48"/>
<g id="a_edge3&#45;headlabel"><a xlink:href="dir_000004_000011.html" target="_top" xlink:title="1">
<text text-anchor="middle" x="85.52" y="-143.2" font-family="Helvetica,sans-Serif" font-size="10.00">1</text>
</a>
</g>
</g>
<!-- dir_8a4ca9b4a73205797ab566a10a6011af&#45;&gt;dir_8b3d6293463b6781f7bf8859fc72e182 -->
<g id="edge4" class="edge">
<title>dir_8a4ca9b4a73205797ab566a10a6011af&#45;&gt;dir_8b3d6293463b6781f7bf8859fc72e182</title>
<path fill="none" stroke="black" d="M68.7,-87.7C63.04,-79.64 56.98,-69.89 52.04,-60.98"/>
<polygon fill="black" stroke="black" points="55.12,-59.32 47.37,-52.1 48.93,-62.58 55.12,-59.32"/>
<g id="a_edge4&#45;headlabel"><a xlink:href="dir_000004_000010.html" target="_top" xlink:title="2">
<text text-anchor="middle" x="59.31" y="-58.68" font-family="Helvetica,sans-Serif" font-size="10.00">2</text>
</a>
</g>
</g>
<!-- dir_8a4ca9b4a73205797ab566a10a6011af&#45;&gt;dir_e78bc76dd94a8744fef38d57611bd23c -->
<g id="edge5" class="edge">
<title>dir_8a4ca9b4a73205797ab566a10a6011af&#45;&gt;dir_e78bc76dd94a8744fef38d57611bd23c</title>
<path fill="none" stroke="black" d="M87.98,-87.7C91.29,-79.64 96.1,-69.89 101.09,-60.98"/>
<polygon fill="black" stroke="black" points="104.26,-62.5 106.31,-52.1 98.22,-58.95 104.26,-62.5"/>
<g id="a_edge5&#45;headlabel"><a xlink:href="dir_000004_000005.html" target="_top" xlink:title="2">
<text text-anchor="middle" x="104.89" y="-64.54" font-family="Helvetica,sans-Serif" font-size="10.00">2</text>
</a>
</g>
</g>
</g>
</svg>
