<?xml version="1.0" encoding="UTF-8" standalone="no"?>
<!DOCTYPE svg PUBLIC "-//W3C//DTD SVG 1.1//EN"
 "http://www.w3.org/Graphics/SVG/1.1/DTD/svg11.dtd">
<!-- Generated by graphviz version 2.47.0 (0)
 -->
<!-- Title: ViennaRNA/dist_vars.h Pages: 1 -->
<svg width="258pt" height="84pt"
 viewBox="0.00 0.00 257.50 84.00" xmlns="http://www.w3.org/2000/svg" xmlns:xlink="http://www.w3.org/1999/xlink">
<g id="graph0" class="graph" transform="scale(1 1) rotate(0) translate(4 80)">
<title>ViennaRNA/dist_vars.h</title>
<!-- Node1 -->
<g id="node1" class="node">
<title>Node1</title>
<g id="a_node1"><a xlink:title="Global variables for Distance&#45;Package.">
<polygon fill="#bfbfbf" stroke="black" points="67,-56.5 67,-75.5 186,-75.5 186,-56.5 67,-56.5"/>
<text text-anchor="middle" x="126.5" y="-63.5" font-family="Helvetica,sans-Serif" font-size="10.00">ViennaRNA/dist_vars.h</text>
</a>
</g>
</g>
<!-- Node2 -->
<g id="node2" class="node">
<title>Node2</title>
<g id="a_node2"><a xlink:href="stringdist_8h.html" target="_top" xlink:title="Functions for String Alignment.">
<polygon fill="none" stroke="black" points="0,-0.5 0,-19.5 119,-19.5 119,-0.5 0,-0.5"/>
<text text-anchor="middle" x="59.5" y="-7.5" font-family="Helvetica,sans-Serif" font-size="10.00">ViennaRNA/stringdist.h</text>
</a>
</g>
</g>
<!-- Node1&#45;&gt;Node2 -->
<g id="edge1" class="edge">
<title>Node1&#45;&gt;Node2</title>
<path fill="none" stroke="midnightblue" d="M107.67,-49.82C95.66,-40.15 80.53,-27.95 70.46,-19.83"/>
<polygon fill="midnightblue" stroke="midnightblue" points="105.75,-52.77 115.74,-56.32 110.15,-47.32 105.75,-52.77"/>
</g>
<!-- Node3 -->
<g id="node3" class="node">
<title>Node3</title>
<g id="a_node3"><a xlink:href="treedist_8h.html" target="_top" xlink:title="Functions for Tree Edit Distances.">
<polygon fill="none" stroke="black" points="137.5,-0.5 137.5,-19.5 249.5,-19.5 249.5,-0.5 137.5,-0.5"/>
<text text-anchor="middle" x="193.5" y="-7.5" font-family="Helvetica,sans-Serif" font-size="10.00">ViennaRNA/treedist.h</text>
</a>
</g>
</g>
<!-- Node1&#45;&gt;Node3 -->
<g id="edge2" class="edge">
<title>Node1&#45;&gt;Node3</title>
<path fill="none" stroke="midnightblue" d="M145.33,-49.82C157.34,-40.15 172.47,-27.95 182.54,-19.83"/>
<polygon fill="midnightblue" stroke="midnightblue" points="142.85,-47.32 137.26,-56.32 147.25,-52.77 142.85,-47.32"/>
</g>
</g>
</svg>
