<?xml version="1.0" encoding="UTF-8" standalone="no"?>
<!DOCTYPE svg PUBLIC "-//W3C//DTD SVG 1.1//EN"
 "http://www.w3.org/Graphics/SVG/1.1/DTD/svg11.dtd">
<!-- Generated by graphviz version 2.47.0 (0)
 -->
<!-- Title: ViennaRNA/dp_matrices.h Pages: 1 -->
<!--zoomable 341 -->
<svg id="main" version="1.1" xmlns="http://www.w3.org/2000/svg" xmlns:xlink="http://www.w3.org/1999/xlink" xml:space="preserve" onload="init(evt)">
<style type="text/css"><![CDATA[
.edge:hover path { stroke: red; }
.edge:hover polygon { stroke: red; fill: red; }
]]></style>
<script type="text/javascript"><![CDATA[
var edges = document.getElementsByTagName('g');
if (edges && edges.length) {
  for (var i=0;i<edges.length;i++) {
    if (edges[i].id.substr(0,4)=='edge') {
      edges[i].setAttribute('class','edge');
    }
  }
}
]]></script>
        <defs>
                <circle id="rim" cx="0" cy="0" r="7"/>
                <circle id="rim2" cx="0" cy="0" r="3.5"/>
                <g id="zoomPlus">
                        <use xlink:href="#rim" fill="#404040">
                                <set attributeName="fill" to="#808080" begin="zoomplus.mouseover" end="zoomplus.mouseout"/>
                        </use>
                        <path d="M-4,0h8M0,-4v8" fill="none" stroke="white" stroke-width="1.5" pointer-events="none"/>
                </g>
                <g id="zoomMin">
                        <use xlink:href="#rim" fill="#404040">
                                <set attributeName="fill" to="#808080" begin="zoomminus.mouseover" end="zoomminus.mouseout"/>
                        </use>
                        <path d="M-4,0h8" fill="none" stroke="white" stroke-width="1.5" pointer-events="none"/>
                </g>
                <g id="dirArrow">
                        <path fill="none" stroke="white" stroke-width="1.5" d="M0,-3.0v7 M-2.5,-0.5L0,-3.0L2.5,-0.5"/>
                </g>
               <g id="resetDef">
                       <use xlink:href="#rim2" fill="#404040">
                               <set attributeName="fill" to="#808080" begin="reset.mouseover" end="reset.mouseout"/>
                       </use>
               </g>
        </defs>

<script type="text/javascript">
var viewWidth = 1409;
var viewHeight = 341;
var sectionId = 'dynsection-0';
</script>
<script xlink:href="svgpan.js"/>
<svg id="graph" class="graph">
<g id="viewport">
<title>ViennaRNA/dp_matrices.h</title>
<!-- Node1 -->
<g id="node1" class="node">
<title>Node1</title>
<g id="a_node1"><a xlink:title="Functions to deal with standard dynamic programming (DP) matrices.">
<polygon fill="#bfbfbf" stroke="black" points="683.5,-313.5 683.5,-332.5 816.5,-332.5 816.5,-313.5 683.5,-313.5"/>
<text text-anchor="middle" x="750" y="-320.5" font-family="Helvetica,sans-Serif" font-size="10.00">ViennaRNA/dp_matrices.h</text>
</a>
</g>
</g>
<!-- Node2 -->
<g id="node2" class="node">
<title>Node2</title>
<g id="a_node2"><a xlink:href="datastructures_2basic_8h.html" target="_top" xlink:title="Various data structures and pre&#45;processor macros.">
<polygon fill="none" stroke="black" points="738,-246.5 738,-276.5 872,-276.5 872,-246.5 738,-246.5"/>
<text text-anchor="start" x="746" y="-264.5" font-family="Helvetica,sans-Serif" font-size="10.00">ViennaRNA/datastructures</text>
<text text-anchor="middle" x="805" y="-253.5" font-family="Helvetica,sans-Serif" font-size="10.00">/basic.h</text>
</a>
</g>
</g>
<!-- Node1&#45;&gt;Node2 -->
<g id="edge1" class="edge">
<title>Node1&#45;&gt;Node2</title>
<path fill="none" stroke="midnightblue" d="M752.98,-313.48C758.46,-305.72 768.81,-293.94 778.94,-283.66"/>
<polygon fill="midnightblue" stroke="midnightblue" points="781.53,-286.03 786.21,-276.52 776.62,-281.04 781.53,-286.03"/>
</g>
<!-- Node5 -->
<g id="node5" class="node">
<title>Node5</title>
<g id="a_node5"><a xlink:href="fold__compound_8h.html" target="_top" xlink:title="The Basic Fold Compound API.">
<polygon fill="none" stroke="black" points="622,-190.5 622,-209.5 768,-209.5 768,-190.5 622,-190.5"/>
<text text-anchor="middle" x="695" y="-197.5" font-family="Helvetica,sans-Serif" font-size="10.00">ViennaRNA/fold_compound.h</text>
</a>
</g>
</g>
<!-- Node1&#45;&gt;Node5 -->
<g id="edge41" class="edge">
<title>Node1&#45;&gt;Node5</title>
<path fill="none" stroke="midnightblue" d="M739.21,-313.39C732.67,-304.35 725.81,-289.7 720,-277 711.1,-257.53 701.13,-235.16 696.03,-219.76"/>
<polygon fill="midnightblue" stroke="midnightblue" points="699.34,-218.6 693.27,-209.91 692.6,-220.49 699.34,-218.6"/>
</g>
<!-- Node2&#45;&gt;Node1 -->
<g id="edge34" class="edge">
<title>Node2&#45;&gt;Node1</title>
<path fill="none" stroke="midnightblue" d="M797.87,-276.52C790.67,-285.57 779.84,-297.35 770.18,-306.65"/>
<polygon fill="midnightblue" stroke="midnightblue" points="767.76,-304.12 762.78,-313.48 772.5,-309.27 767.76,-304.12"/>
</g>
<!-- Node3 -->
<g id="node3" class="node">
<title>Node3</title>
<g id="a_node3"><a xlink:href="constants_8h.html" target="_top" xlink:title="Energy parameter constants.">
<polygon fill="none" stroke="black" points="0,-62 0,-81 158,-81 158,-62 0,-62"/>
<text text-anchor="middle" x="79" y="-69" font-family="Helvetica,sans-Serif" font-size="10.00">ViennaRNA/params/constants.h</text>
</a>
</g>
</g>
<!-- Node2&#45;&gt;Node3 -->
<g id="edge2" class="edge">
<title>Node2&#45;&gt;Node3</title>
<path fill="none" stroke="midnightblue" d="M737.79,-261.37C573.9,-261.89 160.92,-253.15 76,-154 61.22,-136.74 66.15,-109.09 71.89,-90.86"/>
<polygon fill="midnightblue" stroke="midnightblue" points="75.21,-91.96 75.22,-81.36 68.6,-89.64 75.21,-91.96"/>
</g>
<!-- Node2&#45;&gt;Node5 -->
<g id="edge4" class="edge">
<title>Node2&#45;&gt;Node5</title>
<path fill="none" stroke="midnightblue" d="M778.93,-246.4C761.13,-236.77 737.69,-224.09 720.1,-214.58"/>
<polygon fill="midnightblue" stroke="midnightblue" points="721.47,-211.34 711.01,-209.66 718.14,-217.49 721.47,-211.34"/>
</g>
<!-- Node6 -->
<g id="node6" class="node">
<title>Node6</title>
<g id="a_node6"><a xlink:href="model_8h.html" target="_top" xlink:title="The model details data structure and its corresponding modifiers.">
<polygon fill="none" stroke="black" points="198,-62 198,-81 304,-81 304,-62 198,-62"/>
<text text-anchor="middle" x="251" y="-69" font-family="Helvetica,sans-Serif" font-size="10.00">ViennaRNA/model.h</text>
</a>
</g>
</g>
<!-- Node2&#45;&gt;Node6 -->
<g id="edge32" class="edge">
<title>Node2&#45;&gt;Node6</title>
<path fill="none" stroke="midnightblue" d="M872.11,-260.95C1025.3,-259.93 1378.8,-244.73 1263,-123 1254.78,-114.36 534.62,-84.13 314.31,-75.08"/>
<polygon fill="midnightblue" stroke="midnightblue" points="314.34,-71.58 304.21,-74.67 314.05,-78.57 314.34,-71.58"/>
</g>
<!-- Node7 -->
<g id="node7" class="node">
<title>Node7</title>
<g id="a_node7"><a xlink:href="params_2basic_8h.html" target="_top" xlink:title="Functions to deal with sets of energy parameters.">
<polygon fill="none" stroke="black" points="85,-129 85,-148 223,-148 223,-129 85,-129"/>
<text text-anchor="middle" x="154" y="-136" font-family="Helvetica,sans-Serif" font-size="10.00">ViennaRNA/params/basic.h</text>
</a>
</g>
</g>
<!-- Node2&#45;&gt;Node7 -->
<g id="edge33" class="edge">
<title>Node2&#45;&gt;Node7</title>
<path fill="none" stroke="midnightblue" d="M737.79,-248.79C607.64,-225.24 323.94,-172.5 206.47,-150"/>
<polygon fill="midnightblue" stroke="midnightblue" points="206.78,-146.49 196.29,-148.04 205.46,-153.37 206.78,-146.49"/>
</g>
<!-- Node9 -->
<g id="node9" class="node">
<title>Node9</title>
<g id="a_node9"><a xlink:href="hard_8h.html" target="_top" xlink:title="Functions and data structures for handling of secondary structure hard constraints.">
<polygon fill="none" stroke="black" points="279.5,-123.5 279.5,-153.5 398.5,-153.5 398.5,-123.5 279.5,-123.5"/>
<text text-anchor="start" x="287.5" y="-141.5" font-family="Helvetica,sans-Serif" font-size="10.00">ViennaRNA/constraints</text>
<text text-anchor="middle" x="339" y="-130.5" font-family="Helvetica,sans-Serif" font-size="10.00">/hard.h</text>
</a>
</g>
</g>
<!-- Node2&#45;&gt;Node9 -->
<g id="edge35" class="edge">
<title>Node2&#45;&gt;Node9</title>
<path fill="none" stroke="midnightblue" d="M750.63,-246.38C664,-223.89 495.01,-180.01 402.79,-156.06"/>
<polygon fill="midnightblue" stroke="midnightblue" points="403.58,-152.65 393.02,-153.53 401.82,-159.43 403.58,-152.65"/>
</g>
<!-- Node11 -->
<g id="node11" class="node">
<title>Node11</title>
<g id="a_node11"><a xlink:href="soft_8h.html" target="_top" xlink:title="Functions and data structures for secondary structure soft constraints.">
<polygon fill="none" stroke="black" points="723.5,-123.5 723.5,-153.5 842.5,-153.5 842.5,-123.5 723.5,-123.5"/>
<text text-anchor="start" x="731.5" y="-141.5" font-family="Helvetica,sans-Serif" font-size="10.00">ViennaRNA/constraints</text>
<text text-anchor="middle" x="783" y="-130.5" font-family="Helvetica,sans-Serif" font-size="10.00">/soft.h</text>
</a>
</g>
</g>
<!-- Node2&#45;&gt;Node11 -->
<g id="edge36" class="edge">
<title>Node2&#45;&gt;Node11</title>
<path fill="none" stroke="midnightblue" d="M797.84,-246.14C791.6,-225.86 784.48,-188.53 781.89,-163.86"/>
<polygon fill="midnightblue" stroke="midnightblue" points="785.37,-163.51 781.05,-153.84 778.4,-164.09 785.37,-163.51"/>
</g>
<!-- Node12 -->
<g id="node12" class="node">
<title>Node12</title>
<g id="a_node12"><a xlink:href="grammar_8h.html" target="_top" xlink:title="Implementations for the RNA folding grammar.">
<polygon fill="none" stroke="black" points="860.5,-129 860.5,-148 977.5,-148 977.5,-129 860.5,-129"/>
<text text-anchor="middle" x="919" y="-136" font-family="Helvetica,sans-Serif" font-size="10.00">ViennaRNA/grammar.h</text>
</a>
</g>
</g>
<!-- Node2&#45;&gt;Node12 -->
<g id="edge37" class="edge">
<title>Node2&#45;&gt;Node12</title>
<path fill="none" stroke="midnightblue" d="M818.52,-246.14C839.95,-223.41 881.53,-179.27 903.9,-155.53"/>
<polygon fill="midnightblue" stroke="midnightblue" points="906.63,-157.73 910.94,-148.05 901.54,-152.93 906.63,-157.73"/>
</g>
<!-- Node13 -->
<g id="node13" class="node">
<title>Node13</title>
<g id="a_node13"><a xlink:href="structured__domains_8h.html" target="_top" xlink:title="This module provides interfaces that deal with additional structured domains in the folding grammar.">
<polygon fill="none" stroke="black" points="995.5,-123.5 995.5,-153.5 1110.5,-153.5 1110.5,-123.5 995.5,-123.5"/>
<text text-anchor="start" x="1003.5" y="-141.5" font-family="Helvetica,sans-Serif" font-size="10.00">ViennaRNA/structured</text>
<text text-anchor="middle" x="1053" y="-130.5" font-family="Helvetica,sans-Serif" font-size="10.00">_domains.h</text>
</a>
</g>
</g>
<!-- Node2&#45;&gt;Node13 -->
<g id="edge38" class="edge">
<title>Node2&#45;&gt;Node13</title>
<path fill="none" stroke="midnightblue" d="M833.93,-246.38C878.83,-224.48 965.27,-182.3 1015.09,-157.99"/>
<polygon fill="midnightblue" stroke="midnightblue" points="1016.8,-161.06 1024.25,-153.53 1013.73,-154.77 1016.8,-161.06"/>
</g>
<!-- Node14 -->
<g id="node14" class="node">
<title>Node14</title>
<g id="a_node14"><a xlink:href="unstructured__domains_8h.html" target="_top" xlink:title="Functions to modify unstructured domains, e.g. to incorporate ligands binding to unpaired stretches.">
<polygon fill="none" stroke="black" points="1128.5,-123.5 1128.5,-153.5 1253.5,-153.5 1253.5,-123.5 1128.5,-123.5"/>
<text text-anchor="start" x="1136.5" y="-141.5" font-family="Helvetica,sans-Serif" font-size="10.00">ViennaRNA/unstructured</text>
<text text-anchor="middle" x="1191" y="-130.5" font-family="Helvetica,sans-Serif" font-size="10.00">_domains.h</text>
</a>
</g>
</g>
<!-- Node2&#45;&gt;Node14 -->
<g id="edge39" class="edge">
<title>Node2&#45;&gt;Node14</title>
<path fill="none" stroke="midnightblue" d="M845.51,-246.38C913.99,-224.02 1052.59,-180.54 1131.9,-156.5"/>
<polygon fill="midnightblue" stroke="midnightblue" points="1133.18,-159.77 1141.74,-153.53 1131.15,-153.07 1133.18,-159.77"/>
</g>
<!-- Node15 -->
<g id="node15" class="node">
<title>Node15</title>
<g id="a_node15"><a xlink:href="utils_2structures_8h.html" target="_top" xlink:title="Various utility&#45; and helper&#45;functions for secondary structure parsing, converting,...">
<polygon fill="none" stroke="black" points="1257,-62 1257,-81 1401,-81 1401,-62 1257,-62"/>
<text text-anchor="middle" x="1329" y="-69" font-family="Helvetica,sans-Serif" font-size="10.00">ViennaRNA/utils/structures.h</text>
</a>
</g>
</g>
<!-- Node2&#45;&gt;Node15 -->
<g id="edge40" class="edge">
<title>Node2&#45;&gt;Node15</title>
<path fill="none" stroke="midnightblue" d="M872.18,-257.62C997.37,-251.83 1256.17,-236.98 1287,-210 1321.24,-180.04 1323.2,-121.4 1325.09,-91.3"/>
<polygon fill="midnightblue" stroke="midnightblue" points="1328.58,-91.53 1325.87,-81.29 1321.6,-90.98 1328.58,-91.53"/>
</g>
<!-- Node4 -->
<g id="node4" class="node">
<title>Node4</title>
<g id="a_node4"><a xlink:title=" ">
<polygon fill="none" stroke="#bfbfbf" points="55,-0.5 55,-19.5 103,-19.5 103,-0.5 55,-0.5"/>
<text text-anchor="middle" x="79" y="-7.5" font-family="Helvetica,sans-Serif" font-size="10.00">limits.h</text>
</a>
</g>
</g>
<!-- Node3&#45;&gt;Node4 -->
<g id="edge3" class="edge">
<title>Node3&#45;&gt;Node4</title>
<path fill="none" stroke="midnightblue" d="M79,-61.98C79,-53.58 79,-40.48 79,-29.66"/>
<polygon fill="midnightblue" stroke="midnightblue" points="82.5,-29.51 79,-19.51 75.5,-29.51 82.5,-29.51"/>
</g>
<!-- Node5&#45;&gt;Node1 -->
<g id="edge13" class="edge">
<title>Node5&#45;&gt;Node1</title>
<path fill="none" stroke="midnightblue" d="M704.59,-209.91C714.22,-224.13 726.95,-252.81 738,-277 742.04,-285.83 746.59,-295.6 749.65,-303.78"/>
<polygon fill="midnightblue" stroke="midnightblue" points="746.33,-304.89 752.65,-313.39 753.01,-302.8 746.33,-304.89"/>
</g>
<!-- Node5&#45;&gt;Node6 -->
<g id="edge5" class="edge">
<title>Node5&#45;&gt;Node6</title>
<path fill="none" stroke="midnightblue" d="M621.66,-195.76C507.3,-190.03 296.82,-176.55 271,-154 253.29,-138.53 249.96,-110.17 249.92,-91.32"/>
<polygon fill="midnightblue" stroke="midnightblue" points="253.42,-91.35 250.21,-81.25 246.42,-91.15 253.42,-91.35"/>
</g>
<!-- Node5&#45;&gt;Node7 -->
<g id="edge6" class="edge">
<title>Node5&#45;&gt;Node7</title>
<path fill="none" stroke="midnightblue" d="M621.94,-194.01C529.69,-186.98 366.54,-172.88 228,-154 219.05,-152.78 209.59,-151.3 200.51,-149.77"/>
<polygon fill="midnightblue" stroke="midnightblue" points="200.92,-146.29 190.46,-148.02 199.71,-153.18 200.92,-146.29"/>
</g>
<!-- Node8 -->
<g id="node8" class="node">
<title>Node8</title>
<g id="a_node8"><a xlink:href="sequence_8h.html" target="_top" xlink:title="Functions and data structures related to sequence representations ,.">
<polygon fill="none" stroke="black" points="417,-129 417,-148 539,-148 539,-129 417,-129"/>
<text text-anchor="middle" x="478" y="-136" font-family="Helvetica,sans-Serif" font-size="10.00">ViennaRNA/sequence.h</text>
</a>
</g>
</g>
<!-- Node5&#45;&gt;Node8 -->
<g id="edge11" class="edge">
<title>Node5&#45;&gt;Node8</title>
<path fill="none" stroke="midnightblue" d="M659.01,-190.48C618.71,-180.05 554.03,-162.36 513.81,-150.81"/>
<polygon fill="midnightblue" stroke="midnightblue" points="514.71,-147.43 504.14,-148.01 512.77,-154.15 514.71,-147.43"/>
</g>
<!-- Node5&#45;&gt;Node9 -->
<g id="edge14" class="edge">
<title>Node5&#45;&gt;Node9</title>
<path fill="none" stroke="midnightblue" d="M627.74,-190.46C569.94,-182.36 484.38,-169.42 406.42,-155.34"/>
<polygon fill="midnightblue" stroke="midnightblue" points="406.92,-151.88 396.46,-153.53 405.67,-158.76 406.92,-151.88"/>
</g>
<!-- Node5&#45;&gt;Node11 -->
<g id="edge18" class="edge">
<title>Node5&#45;&gt;Node11</title>
<path fill="none" stroke="midnightblue" d="M702.71,-190.48C713.06,-182.27 731.36,-169.56 747.96,-158.88"/>
<polygon fill="midnightblue" stroke="midnightblue" points="749.85,-161.83 756.43,-153.52 746.11,-155.91 749.85,-161.83"/>
</g>
<!-- Node5&#45;&gt;Node12 -->
<g id="edge22" class="edge">
<title>Node5&#45;&gt;Node12</title>
<path fill="none" stroke="midnightblue" d="M722.19,-190.48C759.49,-179.96 826.71,-162.06 872.15,-150.51"/>
<polygon fill="midnightblue" stroke="midnightblue" points="873.23,-153.85 882.07,-148.01 871.52,-147.07 873.23,-153.85"/>
</g>
<!-- Node5&#45;&gt;Node13 -->
<g id="edge24" class="edge">
<title>Node5&#45;&gt;Node13</title>
<path fill="none" stroke="midnightblue" d="M757.85,-190.49C814.86,-182.5 901.44,-169.71 985.48,-154.22"/>
<polygon fill="midnightblue" stroke="midnightblue" points="986.26,-157.64 995.45,-152.37 984.98,-150.75 986.26,-157.64"/>
</g>
<!-- Node5&#45;&gt;Node14 -->
<g id="edge25" class="edge">
<title>Node5&#45;&gt;Node14</title>
<path fill="none" stroke="midnightblue" d="M768.13,-192.85C851.43,-185.72 991.3,-172.52 1111,-154 1113.36,-153.63 1115.76,-153.24 1118.19,-152.83"/>
<polygon fill="midnightblue" stroke="midnightblue" points="1119.02,-156.24 1128.26,-151.05 1117.8,-149.35 1119.02,-156.24"/>
</g>
<!-- Node17 -->
<g id="node17" class="node">
<title>Node17</title>
<g id="a_node17"><a xlink:href="zscore_8h_source.html" target="_top" xlink:title=" ">
<polygon fill="none" stroke="black" points="557.5,-129 557.5,-148 666.5,-148 666.5,-129 557.5,-129"/>
<text text-anchor="middle" x="612" y="-136" font-family="Helvetica,sans-Serif" font-size="10.00">ViennaRNA/zscore.h</text>
</a>
</g>
</g>
<!-- Node5&#45;&gt;Node17 -->
<g id="edge31" class="edge">
<title>Node5&#45;&gt;Node17</title>
<path fill="none" stroke="midnightblue" d="M683.11,-190.48C669.8,-180.93 648,-165.31 632.04,-153.87"/>
<polygon fill="midnightblue" stroke="midnightblue" points="634.04,-150.99 623.87,-148.01 629.96,-156.68 634.04,-150.99"/>
</g>
<!-- Node7&#45;&gt;Node2 -->
<g id="edge8" class="edge">
<title>Node7&#45;&gt;Node2</title>
<path fill="none" stroke="midnightblue" d="M203.41,-148C316.15,-168.26 592.69,-219.6 728,-245.32"/>
<polygon fill="midnightblue" stroke="midnightblue" points="727.41,-248.77 737.89,-247.2 728.72,-241.9 727.41,-248.77"/>
</g>
<!-- Node7&#45;&gt;Node3 -->
<g id="edge7" class="edge">
<title>Node7&#45;&gt;Node3</title>
<path fill="none" stroke="midnightblue" d="M143.89,-128.73C131.85,-118.31 111.55,-100.71 96.85,-87.97"/>
<polygon fill="midnightblue" stroke="midnightblue" points="98.8,-85.03 88.95,-81.13 94.22,-90.32 98.8,-85.03"/>
</g>
<!-- Node7&#45;&gt;Node5 -->
<g id="edge9" class="edge">
<title>Node7&#45;&gt;Node5</title>
<path fill="none" stroke="midnightblue" d="M207.81,-148.02C220.39,-150.16 233.68,-152.32 246,-154 373.3,-171.35 521.38,-184.66 611.68,-192.16"/>
<polygon fill="midnightblue" stroke="midnightblue" points="611.61,-195.66 621.86,-193 612.18,-188.69 611.61,-195.66"/>
</g>
<!-- Node7&#45;&gt;Node6 -->
<g id="edge10" class="edge">
<title>Node7&#45;&gt;Node6</title>
<path fill="none" stroke="midnightblue" d="M167.08,-128.73C183.15,-117.96 210.63,-99.55 229.75,-86.74"/>
<polygon fill="midnightblue" stroke="midnightblue" points="231.77,-89.6 238.13,-81.13 227.87,-83.79 231.77,-89.6"/>
</g>
<!-- Node8&#45;&gt;Node5 -->
<g id="edge12" class="edge">
<title>Node8&#45;&gt;Node5</title>
<path fill="none" stroke="midnightblue" d="M513.93,-148.01C554.21,-158.43 618.89,-176.11 659.13,-187.68"/>
<polygon fill="midnightblue" stroke="midnightblue" points="658.23,-191.06 668.81,-190.48 660.18,-184.33 658.23,-191.06"/>
</g>
<!-- Node9&#45;&gt;Node5 -->
<g id="edge15" class="edge">
<title>Node9&#45;&gt;Node5</title>
<path fill="none" stroke="midnightblue" d="M398.75,-150.49C404.93,-151.72 411.1,-152.92 417,-154 490.44,-167.46 574.91,-180.4 631.36,-188.92"/>
<polygon fill="midnightblue" stroke="midnightblue" points="631.16,-192.43 641.57,-190.46 632.2,-185.51 631.16,-192.43"/>
</g>
<!-- Node10 -->
<g id="node10" class="node">
<title>Node10</title>
<g id="a_node10"><a xlink:href="constraints_2basic_8h.html" target="_top" xlink:title="Functions and data structures for constraining secondary structure predictions and evaluation.">
<polygon fill="none" stroke="black" points="635.5,-56.5 635.5,-86.5 754.5,-86.5 754.5,-56.5 635.5,-56.5"/>
<text text-anchor="start" x="643.5" y="-74.5" font-family="Helvetica,sans-Serif" font-size="10.00">ViennaRNA/constraints</text>
<text text-anchor="middle" x="695" y="-63.5" font-family="Helvetica,sans-Serif" font-size="10.00">/basic.h</text>
</a>
</g>
</g>
<!-- Node9&#45;&gt;Node10 -->
<g id="edge16" class="edge">
<title>Node9&#45;&gt;Node10</title>
<path fill="none" stroke="midnightblue" d="M398.81,-124.8C401.92,-124.18 405,-123.58 408,-123 481.92,-108.73 566.89,-93.99 625.07,-84.14"/>
<polygon fill="midnightblue" stroke="midnightblue" points="625.98,-87.54 635.25,-82.42 624.81,-80.64 625.98,-87.54"/>
</g>
<!-- Node10&#45;&gt;Node5 -->
<g id="edge17" class="edge">
<title>Node10&#45;&gt;Node5</title>
<path fill="none" stroke="midnightblue" d="M695,-86.89C695,-109.81 695,-154.63 695,-180.11"/>
<polygon fill="midnightblue" stroke="midnightblue" points="691.5,-180.31 695,-190.31 698.5,-180.31 691.5,-180.31"/>
</g>
<!-- Node11&#45;&gt;Node2 -->
<g id="edge19" class="edge">
<title>Node11&#45;&gt;Node2</title>
<path fill="none" stroke="midnightblue" d="M790.16,-153.84C796.4,-174.11 803.51,-211.44 806.11,-236.12"/>
<polygon fill="midnightblue" stroke="midnightblue" points="802.62,-236.47 806.94,-246.14 809.6,-235.89 802.62,-236.47"/>
</g>
<!-- Node11&#45;&gt;Node5 -->
<g id="edge20" class="edge">
<title>Node11&#45;&gt;Node5</title>
<path fill="none" stroke="midnightblue" d="M768.09,-153.52C755.15,-163.11 736.44,-175.75 721.09,-185.28"/>
<polygon fill="midnightblue" stroke="midnightblue" points="719.25,-182.3 712.51,-190.48 722.88,-188.29 719.25,-182.3"/>
</g>
<!-- Node11&#45;&gt;Node10 -->
<g id="edge21" class="edge">
<title>Node11&#45;&gt;Node10</title>
<path fill="none" stroke="midnightblue" d="M763.91,-123.4C751.68,-114.37 735.63,-102.51 722.1,-92.52"/>
<polygon fill="midnightblue" stroke="midnightblue" points="724.18,-89.7 714.06,-86.58 720.02,-95.33 724.18,-89.7"/>
</g>
<!-- Node12&#45;&gt;Node5 -->
<g id="edge23" class="edge">
<title>Node12&#45;&gt;Node5</title>
<path fill="none" stroke="midnightblue" d="M891.86,-148.01C854.6,-158.52 787.38,-176.41 741.91,-187.97"/>
<polygon fill="midnightblue" stroke="midnightblue" points="740.83,-184.63 731.99,-190.48 742.55,-191.42 740.83,-184.63"/>
</g>
<!-- Node14&#45;&gt;Node2 -->
<g id="edge26" class="edge">
<title>Node14&#45;&gt;Node2</title>
<path fill="none" stroke="midnightblue" d="M1150.77,-153.53C1082.48,-175.83 943.89,-219.31 864.42,-243.4"/>
<polygon fill="midnightblue" stroke="midnightblue" points="863.12,-240.14 854.56,-246.38 865.14,-246.84 863.12,-240.14"/>
</g>
<!-- Node14&#45;&gt;Node5 -->
<g id="edge27" class="edge">
<title>Node14&#45;&gt;Node5</title>
<path fill="none" stroke="midnightblue" d="M1132,-153.53C1131,-153.69 1129.99,-153.85 1129,-154 1007.86,-172.74 866.07,-186.03 778.32,-193.11"/>
<polygon fill="midnightblue" stroke="midnightblue" points="777.85,-189.63 768.16,-193.92 778.4,-196.61 777.85,-189.63"/>
</g>
<!-- Node14&#45;&gt;Node15 -->
<g id="edge28" class="edge">
<title>Node14&#45;&gt;Node15</title>
<path fill="none" stroke="midnightblue" d="M1220.94,-123.4C1244.94,-112.09 1278.34,-96.36 1301.63,-85.39"/>
<polygon fill="midnightblue" stroke="midnightblue" points="1303.38,-88.43 1310.94,-81.01 1300.4,-82.1 1303.38,-88.43"/>
</g>
<!-- Node15&#45;&gt;Node2 -->
<g id="edge30" class="edge">
<title>Node15&#45;&gt;Node2</title>
<path fill="none" stroke="midnightblue" d="M1334.08,-81.29C1341.17,-105.95 1343.61,-176.21 1305,-210 1274.12,-237.02 1014.66,-251.87 882.13,-257.64"/>
<polygon fill="midnightblue" stroke="midnightblue" points="881.88,-254.15 872.04,-258.08 882.18,-261.15 881.88,-254.15"/>
</g>
<!-- Node16 -->
<g id="node16" class="node">
<title>Node16</title>
<g id="a_node16"><a xlink:title=" ">
<polygon fill="none" stroke="#bfbfbf" points="1306,-0.5 1306,-19.5 1352,-19.5 1352,-0.5 1306,-0.5"/>
<text text-anchor="middle" x="1329" y="-7.5" font-family="Helvetica,sans-Serif" font-size="10.00">stdio.h</text>
</a>
</g>
</g>
<!-- Node15&#45;&gt;Node16 -->
<g id="edge29" class="edge">
<title>Node15&#45;&gt;Node16</title>
<path fill="none" stroke="midnightblue" d="M1329,-61.98C1329,-53.58 1329,-40.48 1329,-29.66"/>
<polygon fill="midnightblue" stroke="midnightblue" points="1332.5,-29.51 1329,-19.51 1325.5,-29.51 1332.5,-29.51"/>
</g>
</g>
</svg>
        <g id="navigator" transform="translate(0 0)" fill="#404254">
                <rect fill="#f2f5e9" fill-opacity="0.5" stroke="#606060" stroke-width=".5" x="0" y="0" width="60" height="60"/>
                <use id="zoomplus" xlink:href="#zoomPlus" x="17" y="9" onmousedown="handleZoom(evt,'in')"/>
                <use id="zoomminus" xlink:href="#zoomMin" x="42" y="9" onmousedown="handleZoom(evt,'out')"/>
                <use id="reset" xlink:href="#resetDef" x="30" y="36" onmousedown="handleReset()"/>
                <g id="arrowUp" xlink:href="#dirArrow" transform="translate(30 24)" onmousedown="handlePan(0,-1)">
                  <use xlink:href="#rim" fill="#404040">
                        <set attributeName="fill" to="#808080" begin="arrowUp.mouseover" end="arrowUp.mouseout"/>
                  </use>
                  <path fill="none" stroke="white" stroke-width="1.5" d="M0,-3.0v7 M-2.5,-0.5L0,-3.0L2.5,-0.5"/>
                </g>
                <g id="arrowRight" xlink:href="#dirArrow" transform="rotate(90) translate(36 -43)" onmousedown="handlePan(1,0)">
                  <use xlink:href="#rim" fill="#404040">
                        <set attributeName="fill" to="#808080" begin="arrowRight.mouseover" end="arrowRight.mouseout"/>
                  </use>
                  <path fill="none" stroke="white" stroke-width="1.5" d="M0,-3.0v7 M-2.5,-0.5L0,-3.0L2.5,-0.5"/>
                </g>
                <g id="arrowDown" xlink:href="#dirArrow" transform="rotate(180) translate(-30 -48)" onmousedown="handlePan(0,1)">
                  <use xlink:href="#rim" fill="#404040">
                        <set attributeName="fill" to="#808080" begin="arrowDown.mouseover" end="arrowDown.mouseout"/>
                  </use>
                  <path fill="none" stroke="white" stroke-width="1.5" d="M0,-3.0v7 M-2.5,-0.5L0,-3.0L2.5,-0.5"/>
                </g>
                <g id="arrowLeft" xlink:href="#dirArrow" transform="rotate(270) translate(-36 17)" onmousedown="handlePan(-1,0)">
                  <use xlink:href="#rim" fill="#404040">
                        <set attributeName="fill" to="#808080" begin="arrowLeft.mouseover" end="arrowLeft.mouseout"/>
                  </use>
                  <path fill="none" stroke="white" stroke-width="1.5" d="M0,-3.0v7 M-2.5,-0.5L0,-3.0L2.5,-0.5"/>
                </g>
        </g>
        <svg viewBox="0 0 15 15" width="100%" height="30px" preserveAspectRatio="xMaxYMin meet">
         <g id="arrow_out" transform="scale(0.3 0.3)">
          <a xlink:href="dp__matrices_8h__incl_org.svg" target="_base">
           <rect id="button" ry="5" rx="5" y="6" x="6" height="38" width="38"
                fill="#f2f5e9" fill-opacity="0.5" stroke="#606060" stroke-width="1.0"/>
           <path id="arrow"
             d="M 11.500037,31.436501 C 11.940474,20.09759 22.043105,11.32322 32.158766,21.979434 L 37.068811,17.246167 C 37.068811,17.246167 37.088388,32 37.088388,32 L 22.160133,31.978069 C 22.160133,31.978069 26.997745,27.140456 26.997745,27.140456 C 18.528582,18.264221 13.291696,25.230495 11.500037,31.436501 z"
             style="fill:#404040;"/>
          </a>
         </g>
        </svg>
</svg>
