<?xml version="1.0" encoding="UTF-8" standalone="no"?>
<!DOCTYPE svg PUBLIC "-//W3C//DTD SVG 1.1//EN"
 "http://www.w3.org/Graphics/SVG/1.1/DTD/svg11.dtd">
<!-- Generated by graphviz version 2.47.0 (0)
 -->
<!-- Title: ViennaRNA/energy_par.h Pages: 1 -->
<svg width="166pt" height="196pt"
 viewBox="0.00 0.00 166.00 196.00" xmlns="http://www.w3.org/2000/svg" xmlns:xlink="http://www.w3.org/1999/xlink">
<g id="graph0" class="graph" transform="scale(1 1) rotate(0) translate(4 192)">
<title>ViennaRNA/energy_par.h</title>
<!-- Node1 -->
<g id="node1" class="node">
<title>Node1</title>
<g id="a_node1"><a xlink:title="Use ViennaRNA/params/default.h instead.">
<polygon fill="#bfbfbf" stroke="black" points="15.5,-168.5 15.5,-187.5 142.5,-187.5 142.5,-168.5 15.5,-168.5"/>
<text text-anchor="middle" x="79" y="-175.5" font-family="Helvetica,sans-Serif" font-size="10.00">ViennaRNA/energy_par.h</text>
</a>
</g>
</g>
<!-- Node2 -->
<g id="node2" class="node">
<title>Node2</title>
<g id="a_node2"><a xlink:href="default_8h_source.html" target="_top" xlink:title=" ">
<polygon fill="none" stroke="black" points="7,-112.5 7,-131.5 151,-131.5 151,-112.5 7,-112.5"/>
<text text-anchor="middle" x="79" y="-119.5" font-family="Helvetica,sans-Serif" font-size="10.00">ViennaRNA/params/default.h</text>
</a>
</g>
</g>
<!-- Node1&#45;&gt;Node2 -->
<g id="edge1" class="edge">
<title>Node1&#45;&gt;Node2</title>
<path fill="none" stroke="midnightblue" d="M79,-168.08C79,-161.01 79,-150.86 79,-141.99"/>
<polygon fill="midnightblue" stroke="midnightblue" points="82.5,-141.75 79,-131.75 75.5,-141.75 82.5,-141.75"/>
</g>
<!-- Node3 -->
<g id="node3" class="node">
<title>Node3</title>
<g id="a_node3"><a xlink:href="constants_8h.html" target="_top" xlink:title="Energy parameter constants.">
<polygon fill="none" stroke="black" points="0,-56.5 0,-75.5 158,-75.5 158,-56.5 0,-56.5"/>
<text text-anchor="middle" x="79" y="-63.5" font-family="Helvetica,sans-Serif" font-size="10.00">ViennaRNA/params/constants.h</text>
</a>
</g>
</g>
<!-- Node2&#45;&gt;Node3 -->
<g id="edge2" class="edge">
<title>Node2&#45;&gt;Node3</title>
<path fill="none" stroke="midnightblue" d="M79,-112.08C79,-105.01 79,-94.86 79,-85.99"/>
<polygon fill="midnightblue" stroke="midnightblue" points="82.5,-85.75 79,-75.75 75.5,-85.75 82.5,-85.75"/>
</g>
<!-- Node4 -->
<g id="node4" class="node">
<title>Node4</title>
<g id="a_node4"><a xlink:title=" ">
<polygon fill="none" stroke="#bfbfbf" points="55,-0.5 55,-19.5 103,-19.5 103,-0.5 55,-0.5"/>
<text text-anchor="middle" x="79" y="-7.5" font-family="Helvetica,sans-Serif" font-size="10.00">limits.h</text>
</a>
</g>
</g>
<!-- Node3&#45;&gt;Node4 -->
<g id="edge3" class="edge">
<title>Node3&#45;&gt;Node4</title>
<path fill="none" stroke="midnightblue" d="M79,-56.08C79,-49.01 79,-38.86 79,-29.99"/>
<polygon fill="midnightblue" stroke="midnightblue" points="82.5,-29.75 79,-19.75 75.5,-29.75 82.5,-29.75"/>
</g>
</g>
</svg>
