<?xml version="1.0" encoding="UTF-8" standalone="no"?>
<!DOCTYPE svg PUBLIC "-//W3C//DTD SVG 1.1//EN"
 "http://www.w3.org/Graphics/SVG/1.1/DTD/svg11.dtd">
<!-- Generated by graphviz version 2.47.0 (0)
 -->
<!-- Title: ViennaRNA/equilibrium_probs.h Pages: 1 -->
<svg width="268pt" height="151pt"
 viewBox="0.00 0.00 267.50 151.00" xmlns="http://www.w3.org/2000/svg" xmlns:xlink="http://www.w3.org/1999/xlink">
<g id="graph0" class="graph" transform="scale(1 1) rotate(0) translate(4 147)">
<title>ViennaRNA/equilibrium_probs.h</title>
<!-- Node1 -->
<g id="node1" class="node">
<title>Node1</title>
<g id="a_node1"><a xlink:title="Equilibrium Probability implementations.">
<polygon fill="#bfbfbf" stroke="black" points="88.5,-112.5 88.5,-142.5 206.5,-142.5 206.5,-112.5 88.5,-112.5"/>
<text text-anchor="start" x="96.5" y="-130.5" font-family="Helvetica,sans-Serif" font-size="10.00">ViennaRNA/equilibrium</text>
<text text-anchor="middle" x="147.5" y="-119.5" font-family="Helvetica,sans-Serif" font-size="10.00">_probs.h</text>
</a>
</g>
</g>
<!-- Node2 -->
<g id="node2" class="node">
<title>Node2</title>
<g id="a_node2"><a xlink:href="part__func_8h.html" target="_top" xlink:title="Partition function implementations.">
<polygon fill="none" stroke="black" points="43.5,-56.5 43.5,-75.5 163.5,-75.5 163.5,-56.5 43.5,-56.5"/>
<text text-anchor="middle" x="103.5" y="-63.5" font-family="Helvetica,sans-Serif" font-size="10.00">ViennaRNA/part_func.h</text>
</a>
</g>
</g>
<!-- Node1&#45;&gt;Node2 -->
<g id="edge1" class="edge">
<title>Node1&#45;&gt;Node2</title>
<path fill="none" stroke="midnightblue" d="M130.94,-104.1C123.6,-94.19 115.41,-83.11 109.9,-75.66"/>
<polygon fill="midnightblue" stroke="midnightblue" points="128.31,-106.44 137.07,-112.4 133.94,-102.28 128.31,-106.44"/>
</g>
<!-- Node4 -->
<g id="node4" class="node">
<title>Node4</title>
<g id="a_node4"><a xlink:href="part__func__co_8h.html" target="_top" xlink:title="Partition function for two RNA sequences.">
<polygon fill="none" stroke="black" points="123.5,-0.5 123.5,-19.5 259.5,-19.5 259.5,-0.5 123.5,-0.5"/>
<text text-anchor="middle" x="191.5" y="-7.5" font-family="Helvetica,sans-Serif" font-size="10.00">ViennaRNA/part_func_co.h</text>
</a>
</g>
</g>
<!-- Node1&#45;&gt;Node4 -->
<g id="edge4" class="edge">
<title>Node1&#45;&gt;Node4</title>
<path fill="none" stroke="midnightblue" d="M160.04,-103.32C164.33,-94.86 168.93,-85.14 172.5,-76 180.19,-56.29 186.46,-32.16 189.5,-19.57"/>
<polygon fill="midnightblue" stroke="midnightblue" points="156.92,-101.73 155.41,-112.22 163.13,-104.96 156.92,-101.73"/>
</g>
<!-- Node3 -->
<g id="node3" class="node">
<title>Node3</title>
<g id="a_node3"><a xlink:href="alifold_8h.html" target="_top" xlink:title="Functions for comparative structure prediction using RNA sequence alignments.">
<polygon fill="none" stroke="black" points="0,-0.5 0,-19.5 105,-19.5 105,-0.5 0,-0.5"/>
<text text-anchor="middle" x="52.5" y="-7.5" font-family="Helvetica,sans-Serif" font-size="10.00">ViennaRNA/alifold.h</text>
</a>
</g>
</g>
<!-- Node2&#45;&gt;Node3 -->
<g id="edge2" class="edge">
<title>Node2&#45;&gt;Node3</title>
<path fill="none" stroke="midnightblue" d="M88.12,-48.72C79.13,-39.2 68.14,-27.56 60.76,-19.75"/>
<polygon fill="midnightblue" stroke="midnightblue" points="85.67,-51.22 95.08,-56.08 90.76,-46.41 85.67,-51.22"/>
</g>
<!-- Node2&#45;&gt;Node4 -->
<g id="edge3" class="edge">
<title>Node2&#45;&gt;Node4</title>
<path fill="none" stroke="midnightblue" d="M126.48,-50.9C142.61,-41 163.68,-28.07 177.4,-19.65"/>
<polygon fill="midnightblue" stroke="midnightblue" points="124.33,-48.11 117.64,-56.32 127.99,-54.08 124.33,-48.11"/>
</g>
</g>
</svg>
