<?xml version="1.0" encoding="UTF-8" standalone="no"?>
<!DOCTYPE svg PUBLIC "-//W3C//DTD SVG 1.1//EN"
 "http://www.w3.org/Graphics/SVG/1.1/DTD/svg11.dtd">
<!-- Generated by graphviz version 2.47.0 (0)
 -->
<!-- Title: ViennaRNA/equilibrium_probs.h Pages: 1 -->
<!--zoomable 352 -->
<svg id="main" version="1.1" xmlns="http://www.w3.org/2000/svg" xmlns:xlink="http://www.w3.org/1999/xlink" xml:space="preserve" onload="init(evt)">
<style type="text/css"><![CDATA[
.edge:hover path { stroke: red; }
.edge:hover polygon { stroke: red; fill: red; }
]]></style>
<script type="text/javascript"><![CDATA[
var edges = document.getElementsByTagName('g');
if (edges && edges.length) {
  for (var i=0;i<edges.length;i++) {
    if (edges[i].id.substr(0,4)=='edge') {
      edges[i].setAttribute('class','edge');
    }
  }
}
]]></script>
        <defs>
                <circle id="rim" cx="0" cy="0" r="7"/>
                <circle id="rim2" cx="0" cy="0" r="3.5"/>
                <g id="zoomPlus">
                        <use xlink:href="#rim" fill="#404040">
                                <set attributeName="fill" to="#808080" begin="zoomplus.mouseover" end="zoomplus.mouseout"/>
                        </use>
                        <path d="M-4,0h8M0,-4v8" fill="none" stroke="white" stroke-width="1.5" pointer-events="none"/>
                </g>
                <g id="zoomMin">
                        <use xlink:href="#rim" fill="#404040">
                                <set attributeName="fill" to="#808080" begin="zoomminus.mouseover" end="zoomminus.mouseout"/>
                        </use>
                        <path d="M-4,0h8" fill="none" stroke="white" stroke-width="1.5" pointer-events="none"/>
                </g>
                <g id="dirArrow">
                        <path fill="none" stroke="white" stroke-width="1.5" d="M0,-3.0v7 M-2.5,-0.5L0,-3.0L2.5,-0.5"/>
                </g>
               <g id="resetDef">
                       <use xlink:href="#rim2" fill="#404040">
                               <set attributeName="fill" to="#808080" begin="reset.mouseover" end="reset.mouseout"/>
                       </use>
               </g>
        </defs>

<script type="text/javascript">
var viewWidth = 1560;
var viewHeight = 352;
var sectionId = 'dynsection-0';
</script>
<script xlink:href="svgpan.js"/>
<svg id="graph" class="graph">
<g id="viewport">
<title>ViennaRNA/equilibrium_probs.h</title>
<!-- Node1 -->
<g id="node1" class="node">
<title>Node1</title>
<g id="a_node1"><a xlink:title="Equilibrium Probability implementations.">
<polygon fill="#bfbfbf" stroke="black" points="825,-313.5 825,-343.5 943,-343.5 943,-313.5 825,-313.5"/>
<text text-anchor="start" x="833" y="-331.5" font-family="Helvetica,sans-Serif" font-size="10.00">ViennaRNA/equilibrium</text>
<text text-anchor="middle" x="884" y="-320.5" font-family="Helvetica,sans-Serif" font-size="10.00">_probs.h</text>
</a>
</g>
</g>
<!-- Node2 -->
<g id="node2" class="node">
<title>Node2</title>
<g id="a_node2"><a xlink:href="datastructures_2basic_8h.html" target="_top" xlink:title="Various data structures and pre&#45;processor macros.">
<polygon fill="none" stroke="black" points="865,-246.5 865,-276.5 999,-276.5 999,-246.5 865,-246.5"/>
<text text-anchor="start" x="873" y="-264.5" font-family="Helvetica,sans-Serif" font-size="10.00">ViennaRNA/datastructures</text>
<text text-anchor="middle" x="932" y="-253.5" font-family="Helvetica,sans-Serif" font-size="10.00">/basic.h</text>
</a>
</g>
</g>
<!-- Node1&#45;&gt;Node2 -->
<g id="edge1" class="edge">
<title>Node1&#45;&gt;Node2</title>
<path fill="none" stroke="midnightblue" d="M894.42,-313.4C900.58,-305.05 908.53,-294.29 915.52,-284.81"/>
<polygon fill="midnightblue" stroke="midnightblue" points="918.48,-286.7 921.61,-276.58 912.85,-282.54 918.48,-286.7"/>
</g>
<!-- Node5 -->
<g id="node5" class="node">
<title>Node5</title>
<g id="a_node5"><a xlink:href="fold__compound_8h.html" target="_top" xlink:title="The Basic Fold Compound API.">
<polygon fill="none" stroke="black" points="758,-190.5 758,-209.5 904,-209.5 904,-190.5 758,-190.5"/>
<text text-anchor="middle" x="831" y="-197.5" font-family="Helvetica,sans-Serif" font-size="10.00">ViennaRNA/fold_compound.h</text>
</a>
</g>
</g>
<!-- Node1&#45;&gt;Node5 -->
<g id="edge43" class="edge">
<title>Node1&#45;&gt;Node5</title>
<path fill="none" stroke="midnightblue" d="M875.17,-313.28C869.24,-303.36 861.54,-289.68 856,-277 847.67,-257.95 840.54,-235.2 836.05,-219.58"/>
<polygon fill="midnightblue" stroke="midnightblue" points="839.33,-218.32 833.26,-209.63 832.59,-220.2 839.33,-218.32"/>
</g>
<!-- Node7 -->
<g id="node7" class="node">
<title>Node7</title>
<g id="a_node7"><a xlink:href="params_2basic_8h.html" target="_top" xlink:title="Functions to deal with sets of energy parameters.">
<polygon fill="none" stroke="black" points="85,-129 85,-148 223,-148 223,-129 85,-129"/>
<text text-anchor="middle" x="154" y="-136" font-family="Helvetica,sans-Serif" font-size="10.00">ViennaRNA/params/basic.h</text>
</a>
</g>
</g>
<!-- Node1&#45;&gt;Node7 -->
<g id="edge45" class="edge">
<title>Node1&#45;&gt;Node7</title>
<path fill="none" stroke="midnightblue" d="M824.73,-323.46C677.93,-312.49 301.83,-278.3 199,-210 180.15,-197.48 167.57,-174.07 160.62,-157.68"/>
<polygon fill="midnightblue" stroke="midnightblue" points="163.77,-156.12 156.85,-148.1 157.25,-158.69 163.77,-156.12"/>
</g>
<!-- Node16 -->
<g id="node16" class="node">
<title>Node16</title>
<g id="a_node16"><a xlink:href="utils_2structures_8h.html" target="_top" xlink:title="Various utility&#45; and helper&#45;functions for secondary structure parsing, converting,...">
<polygon fill="none" stroke="black" points="1408,-62 1408,-81 1552,-81 1552,-62 1408,-62"/>
<text text-anchor="middle" x="1480" y="-69" font-family="Helvetica,sans-Serif" font-size="10.00">ViennaRNA/utils/structures.h</text>
</a>
</g>
</g>
<!-- Node1&#45;&gt;Node16 -->
<g id="edge44" class="edge">
<title>Node1&#45;&gt;Node16</title>
<path fill="none" stroke="midnightblue" d="M943.08,-316.93C1034.75,-299.66 1216.1,-262.04 1364,-210 1419.52,-190.46 1452.38,-203.64 1484,-154 1496.04,-135.1 1491.67,-108.44 1486.58,-90.83"/>
<polygon fill="midnightblue" stroke="midnightblue" points="1489.87,-89.62 1483.45,-81.18 1483.21,-91.77 1489.87,-89.62"/>
</g>
<!-- Node3 -->
<g id="node3" class="node">
<title>Node3</title>
<g id="a_node3"><a xlink:href="constants_8h.html" target="_top" xlink:title="Energy parameter constants.">
<polygon fill="none" stroke="black" points="0,-62 0,-81 158,-81 158,-62 0,-62"/>
<text text-anchor="middle" x="79" y="-69" font-family="Helvetica,sans-Serif" font-size="10.00">ViennaRNA/params/constants.h</text>
</a>
</g>
</g>
<!-- Node2&#45;&gt;Node3 -->
<g id="edge2" class="edge">
<title>Node2&#45;&gt;Node3</title>
<path fill="none" stroke="midnightblue" d="M864.88,-258.94C708.54,-254.8 323.97,-241.65 199,-210 140.77,-195.26 108.5,-204.51 76,-154 63.88,-135.17 67.88,-108.49 72.71,-90.86"/>
<polygon fill="midnightblue" stroke="midnightblue" points="76.09,-91.78 75.69,-81.2 69.4,-89.72 76.09,-91.78"/>
</g>
<!-- Node2&#45;&gt;Node5 -->
<g id="edge4" class="edge">
<title>Node2&#45;&gt;Node5</title>
<path fill="none" stroke="midnightblue" d="M908.06,-246.4C891.87,-236.86 870.59,-224.32 854.5,-214.84"/>
<polygon fill="midnightblue" stroke="midnightblue" points="856.09,-211.72 845.7,-209.66 852.54,-217.75 856.09,-211.72"/>
</g>
<!-- Node6 -->
<g id="node6" class="node">
<title>Node6</title>
<g id="a_node6"><a xlink:href="model_8h.html" target="_top" xlink:title="The model details data structure and its corresponding modifiers.">
<polygon fill="none" stroke="black" points="198,-62 198,-81 304,-81 304,-62 198,-62"/>
<text text-anchor="middle" x="251" y="-69" font-family="Helvetica,sans-Serif" font-size="10.00">ViennaRNA/model.h</text>
</a>
</g>
</g>
<!-- Node2&#45;&gt;Node6 -->
<g id="edge34" class="edge">
<title>Node2&#45;&gt;Node6</title>
<path fill="none" stroke="midnightblue" d="M864.86,-258.87C714.34,-253.8 356.4,-233.5 271,-154 253.87,-138.05 250.36,-110.02 250.13,-91.36"/>
<polygon fill="midnightblue" stroke="midnightblue" points="253.63,-91.2 250.31,-81.14 246.63,-91.07 253.63,-91.2"/>
</g>
<!-- Node2&#45;&gt;Node7 -->
<g id="edge35" class="edge">
<title>Node2&#45;&gt;Node7</title>
<path fill="none" stroke="midnightblue" d="M864.79,-260.88C711.62,-261 341.58,-256.47 228,-210 199.8,-198.46 174.21,-173.51 161.37,-156.61"/>
<polygon fill="midnightblue" stroke="midnightblue" points="164.14,-154.46 155.61,-148.18 158.36,-158.41 164.14,-154.46"/>
</g>
<!-- Node9 -->
<g id="node9" class="node">
<title>Node9</title>
<g id="a_node9"><a xlink:href="dp__matrices_8h.html" target="_top" xlink:title="Functions to deal with standard dynamic programming (DP) matrices.">
<polygon fill="none" stroke="black" points="279.5,-129 279.5,-148 412.5,-148 412.5,-129 279.5,-129"/>
<text text-anchor="middle" x="346" y="-136" font-family="Helvetica,sans-Serif" font-size="10.00">ViennaRNA/dp_matrices.h</text>
</a>
</g>
</g>
<!-- Node2&#45;&gt;Node9 -->
<g id="edge36" class="edge">
<title>Node2&#45;&gt;Node9</title>
<path fill="none" stroke="midnightblue" d="M864.92,-247.55C745.2,-223.51 497.79,-172.4 393.7,-150.18"/>
<polygon fill="midnightblue" stroke="midnightblue" points="394.3,-146.73 383.78,-148.06 392.83,-153.58 394.3,-146.73"/>
</g>
<!-- Node10 -->
<g id="node10" class="node">
<title>Node10</title>
<g id="a_node10"><a xlink:href="hard_8h.html" target="_top" xlink:title="Functions and data structures for handling of secondary structure hard constraints.">
<polygon fill="none" stroke="black" points="910.5,-123.5 910.5,-153.5 1029.5,-153.5 1029.5,-123.5 910.5,-123.5"/>
<text text-anchor="start" x="918.5" y="-141.5" font-family="Helvetica,sans-Serif" font-size="10.00">ViennaRNA/constraints</text>
<text text-anchor="middle" x="970" y="-130.5" font-family="Helvetica,sans-Serif" font-size="10.00">/hard.h</text>
</a>
</g>
</g>
<!-- Node2&#45;&gt;Node10 -->
<g id="edge37" class="edge">
<title>Node2&#45;&gt;Node10</title>
<path fill="none" stroke="midnightblue" d="M936.51,-246.14C942.91,-225.77 954.71,-188.2 962.45,-163.53"/>
<polygon fill="midnightblue" stroke="midnightblue" points="965.84,-164.43 965.5,-153.84 959.16,-162.33 965.84,-164.43"/>
</g>
<!-- Node12 -->
<g id="node12" class="node">
<title>Node12</title>
<g id="a_node12"><a xlink:href="soft_8h.html" target="_top" xlink:title="Functions and data structures for secondary structure soft constraints.">
<polygon fill="none" stroke="black" points="1180.5,-123.5 1180.5,-153.5 1299.5,-153.5 1299.5,-123.5 1180.5,-123.5"/>
<text text-anchor="start" x="1188.5" y="-141.5" font-family="Helvetica,sans-Serif" font-size="10.00">ViennaRNA/constraints</text>
<text text-anchor="middle" x="1240" y="-130.5" font-family="Helvetica,sans-Serif" font-size="10.00">/soft.h</text>
</a>
</g>
</g>
<!-- Node2&#45;&gt;Node12 -->
<g id="edge38" class="edge">
<title>Node2&#45;&gt;Node12</title>
<path fill="none" stroke="midnightblue" d="M963.41,-246.38C1017.03,-224.21 1126.25,-181.25 1190.29,-157.09"/>
<polygon fill="midnightblue" stroke="midnightblue" points="1191.65,-160.32 1199.78,-153.53 1189.19,-153.77 1191.65,-160.32"/>
</g>
<!-- Node13 -->
<g id="node13" class="node">
<title>Node13</title>
<g id="a_node13"><a xlink:href="grammar_8h.html" target="_top" xlink:title="Implementations for the RNA folding grammar.">
<polygon fill="none" stroke="black" points="775.5,-129 775.5,-148 892.5,-148 892.5,-129 775.5,-129"/>
<text text-anchor="middle" x="834" y="-136" font-family="Helvetica,sans-Serif" font-size="10.00">ViennaRNA/grammar.h</text>
</a>
</g>
</g>
<!-- Node2&#45;&gt;Node13 -->
<g id="edge39" class="edge">
<title>Node2&#45;&gt;Node13</title>
<path fill="none" stroke="midnightblue" d="M931.16,-246.22C929.63,-230.98 925.29,-206.77 913,-190 900.85,-173.43 881.48,-160.92 864.95,-152.5"/>
<polygon fill="midnightblue" stroke="midnightblue" points="866.16,-149.2 855.63,-148.01 863.13,-155.5 866.16,-149.2"/>
</g>
<!-- Node14 -->
<g id="node14" class="node">
<title>Node14</title>
<g id="a_node14"><a xlink:href="structured__domains_8h.html" target="_top" xlink:title="This module provides interfaces that deal with additional structured domains in the folding grammar.">
<polygon fill="none" stroke="black" points="1047.5,-123.5 1047.5,-153.5 1162.5,-153.5 1162.5,-123.5 1047.5,-123.5"/>
<text text-anchor="start" x="1055.5" y="-141.5" font-family="Helvetica,sans-Serif" font-size="10.00">ViennaRNA/structured</text>
<text text-anchor="middle" x="1105" y="-130.5" font-family="Helvetica,sans-Serif" font-size="10.00">_domains.h</text>
</a>
</g>
</g>
<!-- Node2&#45;&gt;Node14 -->
<g id="edge40" class="edge">
<title>Node2&#45;&gt;Node14</title>
<path fill="none" stroke="midnightblue" d="M952.18,-246.38C982.91,-224.89 1041.55,-183.88 1076.58,-159.38"/>
<polygon fill="midnightblue" stroke="midnightblue" points="1078.76,-162.13 1084.94,-153.53 1074.74,-156.39 1078.76,-162.13"/>
</g>
<!-- Node15 -->
<g id="node15" class="node">
<title>Node15</title>
<g id="a_node15"><a xlink:href="unstructured__domains_8h.html" target="_top" xlink:title="Functions to modify unstructured domains, e.g. to incorporate ligands binding to unpaired stretches.">
<polygon fill="none" stroke="black" points="1317.5,-123.5 1317.5,-153.5 1442.5,-153.5 1442.5,-123.5 1317.5,-123.5"/>
<text text-anchor="start" x="1325.5" y="-141.5" font-family="Helvetica,sans-Serif" font-size="10.00">ViennaRNA/unstructured</text>
<text text-anchor="middle" x="1380" y="-130.5" font-family="Helvetica,sans-Serif" font-size="10.00">_domains.h</text>
</a>
</g>
</g>
<!-- Node2&#45;&gt;Node15 -->
<g id="edge41" class="edge">
<title>Node2&#45;&gt;Node15</title>
<path fill="none" stroke="midnightblue" d="M979.74,-246.38C1060.17,-223.89 1222.53,-180.01 1313.86,-156.06"/>
<polygon fill="midnightblue" stroke="midnightblue" points="1314.76,-159.44 1323.55,-153.53 1312.99,-152.67 1314.76,-159.44"/>
</g>
<!-- Node2&#45;&gt;Node16 -->
<g id="edge42" class="edge">
<title>Node2&#45;&gt;Node16</title>
<path fill="none" stroke="midnightblue" d="M999.44,-254.44C1122.66,-242.47 1377.25,-211.8 1443,-154 1461.22,-137.98 1467.59,-109.55 1472.11,-90.86"/>
<polygon fill="midnightblue" stroke="midnightblue" points="1475.5,-91.71 1474.62,-81.15 1468.72,-89.96 1475.5,-91.71"/>
</g>
<!-- Node4 -->
<g id="node4" class="node">
<title>Node4</title>
<g id="a_node4"><a xlink:title=" ">
<polygon fill="none" stroke="#bfbfbf" points="55,-0.5 55,-19.5 103,-19.5 103,-0.5 55,-0.5"/>
<text text-anchor="middle" x="79" y="-7.5" font-family="Helvetica,sans-Serif" font-size="10.00">limits.h</text>
</a>
</g>
</g>
<!-- Node3&#45;&gt;Node4 -->
<g id="edge3" class="edge">
<title>Node3&#45;&gt;Node4</title>
<path fill="none" stroke="midnightblue" d="M79,-61.98C79,-53.58 79,-40.48 79,-29.66"/>
<polygon fill="midnightblue" stroke="midnightblue" points="82.5,-29.51 79,-19.51 75.5,-29.51 82.5,-29.51"/>
</g>
<!-- Node5&#45;&gt;Node6 -->
<g id="edge5" class="edge">
<title>Node5&#45;&gt;Node6</title>
<path fill="none" stroke="midnightblue" d="M816.61,-190.34C786.25,-172.2 716.26,-131.25 690,-123 560.77,-82.39 400.96,-73.78 314.23,-72.34"/>
<polygon fill="midnightblue" stroke="midnightblue" points="314.08,-68.84 304.03,-72.2 313.98,-75.84 314.08,-68.84"/>
</g>
<!-- Node5&#45;&gt;Node7 -->
<g id="edge6" class="edge">
<title>Node5&#45;&gt;Node7</title>
<path fill="none" stroke="midnightblue" d="M757.97,-194.53C649.43,-187.33 439.57,-172.13 262,-154 248.32,-152.6 233.76,-150.94 219.89,-149.25"/>
<polygon fill="midnightblue" stroke="midnightblue" points="220.29,-145.77 209.93,-148.01 219.42,-152.72 220.29,-145.77"/>
</g>
<!-- Node8 -->
<g id="node8" class="node">
<title>Node8</title>
<g id="a_node8"><a xlink:href="sequence_8h.html" target="_top" xlink:title="Functions and data structures related to sequence representations ,.">
<polygon fill="none" stroke="black" points="431,-129 431,-148 553,-148 553,-129 431,-129"/>
<text text-anchor="middle" x="492" y="-136" font-family="Helvetica,sans-Serif" font-size="10.00">ViennaRNA/sequence.h</text>
</a>
</g>
</g>
<!-- Node5&#45;&gt;Node8 -->
<g id="edge11" class="edge">
<title>Node5&#45;&gt;Node8</title>
<path fill="none" stroke="midnightblue" d="M769.91,-190.46C713.54,-181.8 627.87,-167.74 554,-154 547.51,-152.79 540.69,-151.47 534.03,-150.13"/>
<polygon fill="midnightblue" stroke="midnightblue" points="534.28,-146.61 523.78,-148.03 532.87,-153.46 534.28,-146.61"/>
</g>
<!-- Node5&#45;&gt;Node9 -->
<g id="edge13" class="edge">
<title>Node5&#45;&gt;Node9</title>
<path fill="none" stroke="midnightblue" d="M757.83,-193.28C674.05,-185.96 533.09,-172.03 413,-154 405.15,-152.82 396.88,-151.42 388.91,-149.95"/>
<polygon fill="midnightblue" stroke="midnightblue" points="389.51,-146.5 379.03,-148.07 388.2,-153.38 389.51,-146.5"/>
</g>
<!-- Node5&#45;&gt;Node10 -->
<g id="edge16" class="edge">
<title>Node5&#45;&gt;Node10</title>
<path fill="none" stroke="midnightblue" d="M846.01,-190.48C864.2,-181.89 895.3,-168.38 921.86,-157.43"/>
<polygon fill="midnightblue" stroke="midnightblue" points="923.48,-160.55 931.41,-153.52 920.83,-154.07 923.48,-160.55"/>
</g>
<!-- Node5&#45;&gt;Node12 -->
<g id="edge20" class="edge">
<title>Node5&#45;&gt;Node12</title>
<path fill="none" stroke="midnightblue" d="M902.04,-190.46C969.43,-182.47 1073.26,-169.46 1163,-154 1165.36,-153.59 1167.76,-153.16 1170.19,-152.71"/>
<polygon fill="midnightblue" stroke="midnightblue" points="1171.11,-156.1 1180.27,-150.79 1169.79,-149.23 1171.11,-156.1"/>
</g>
<!-- Node5&#45;&gt;Node13 -->
<g id="edge24" class="edge">
<title>Node5&#45;&gt;Node13</title>
<path fill="none" stroke="midnightblue" d="M826.53,-190.48C825.12,-182.08 825.31,-168.98 826.74,-158.16"/>
<polygon fill="midnightblue" stroke="midnightblue" points="830.25,-158.49 828.67,-148.01 823.37,-157.18 830.25,-158.49"/>
</g>
<!-- Node5&#45;&gt;Node14 -->
<g id="edge26" class="edge">
<title>Node5&#45;&gt;Node14</title>
<path fill="none" stroke="midnightblue" d="M870.5,-190.49C910.3,-181.91 973.76,-168.21 1037.58,-154.31"/>
<polygon fill="midnightblue" stroke="midnightblue" points="1038.38,-157.71 1047.41,-152.16 1036.89,-150.87 1038.38,-157.71"/>
</g>
<!-- Node5&#45;&gt;Node15 -->
<g id="edge27" class="edge">
<title>Node5&#45;&gt;Node15</title>
<path fill="none" stroke="midnightblue" d="M904.41,-194.12C996.98,-187.7 1160.67,-174.72 1300,-154 1302.36,-153.65 1304.76,-153.27 1307.19,-152.87"/>
<polygon fill="midnightblue" stroke="midnightblue" points="1308.02,-156.28 1317.27,-151.12 1306.82,-149.38 1308.02,-156.28"/>
</g>
<!-- Node18 -->
<g id="node18" class="node">
<title>Node18</title>
<g id="a_node18"><a xlink:href="zscore_8h_source.html" target="_top" xlink:title=" ">
<polygon fill="none" stroke="black" points="571.5,-129 571.5,-148 680.5,-148 680.5,-129 571.5,-129"/>
<text text-anchor="middle" x="626" y="-136" font-family="Helvetica,sans-Serif" font-size="10.00">ViennaRNA/zscore.h</text>
</a>
</g>
</g>
<!-- Node5&#45;&gt;Node18 -->
<g id="edge33" class="edge">
<title>Node5&#45;&gt;Node18</title>
<path fill="none" stroke="midnightblue" d="M801.63,-190.48C765.7,-180.05 704.77,-162.36 664.96,-150.81"/>
<polygon fill="midnightblue" stroke="midnightblue" points="665.9,-147.44 655.32,-148.01 663.95,-154.16 665.9,-147.44"/>
</g>
<!-- Node7&#45;&gt;Node2 -->
<g id="edge8" class="edge">
<title>Node7&#45;&gt;Node2</title>
<path fill="none" stroke="midnightblue" d="M166.13,-148.18C182.83,-163.81 212.58,-196.33 246,-210 354.77,-254.5 698.74,-260.54 854.33,-260.87"/>
<polygon fill="midnightblue" stroke="midnightblue" points="854.75,-264.37 864.75,-260.88 854.76,-257.37 854.75,-264.37"/>
</g>
<!-- Node7&#45;&gt;Node3 -->
<g id="edge7" class="edge">
<title>Node7&#45;&gt;Node3</title>
<path fill="none" stroke="midnightblue" d="M143.89,-128.73C131.85,-118.31 111.55,-100.71 96.85,-87.97"/>
<polygon fill="midnightblue" stroke="midnightblue" points="98.8,-85.03 88.95,-81.13 94.22,-90.32 98.8,-85.03"/>
</g>
<!-- Node7&#45;&gt;Node5 -->
<g id="edge9" class="edge">
<title>Node7&#45;&gt;Node5</title>
<path fill="none" stroke="midnightblue" d="M223.28,-147.52C241.77,-149.78 261.67,-152.13 280,-154 445.67,-170.91 639.46,-185.28 747.49,-192.98"/>
<polygon fill="midnightblue" stroke="midnightblue" points="747.45,-196.49 757.67,-193.7 747.95,-189.5 747.45,-196.49"/>
</g>
<!-- Node7&#45;&gt;Node6 -->
<g id="edge10" class="edge">
<title>Node7&#45;&gt;Node6</title>
<path fill="none" stroke="midnightblue" d="M167.08,-128.73C183.15,-117.96 210.63,-99.55 229.75,-86.74"/>
<polygon fill="midnightblue" stroke="midnightblue" points="231.77,-89.6 238.13,-81.13 227.87,-83.79 231.77,-89.6"/>
</g>
<!-- Node8&#45;&gt;Node5 -->
<g id="edge12" class="edge">
<title>Node8&#45;&gt;Node5</title>
<path fill="none" stroke="midnightblue" d="M541.23,-148.03C551.46,-150.05 562.11,-152.16 572,-154 641.14,-166.86 720.63,-180 773.19,-188.74"/>
<polygon fill="midnightblue" stroke="midnightblue" points="772.9,-192.23 783.34,-190.42 774.05,-185.33 772.9,-192.23"/>
</g>
<!-- Node9&#45;&gt;Node2 -->
<g id="edge14" class="edge">
<title>Node9&#45;&gt;Node2</title>
<path fill="none" stroke="midnightblue" d="M390.96,-148.03C491.57,-168.04 735.26,-218.28 858.35,-244.31"/>
<polygon fill="midnightblue" stroke="midnightblue" points="857.93,-247.79 868.44,-246.44 859.38,-240.95 857.93,-247.79"/>
</g>
<!-- Node9&#45;&gt;Node5 -->
<g id="edge15" class="edge">
<title>Node9&#45;&gt;Node5</title>
<path fill="none" stroke="midnightblue" d="M396.39,-148.07C407.82,-150.19 419.84,-152.32 431,-154 540.24,-170.4 666.74,-183.41 747.81,-191.14"/>
<polygon fill="midnightblue" stroke="midnightblue" points="747.67,-194.64 757.96,-192.1 748.33,-187.67 747.67,-194.64"/>
</g>
<!-- Node10&#45;&gt;Node5 -->
<g id="edge17" class="edge">
<title>Node10&#45;&gt;Node5</title>
<path fill="none" stroke="midnightblue" d="M943.07,-153.52C920.83,-163.6 889.3,-177.06 865.28,-186.72"/>
<polygon fill="midnightblue" stroke="midnightblue" points="863.82,-183.53 855.82,-190.48 866.4,-190.04 863.82,-183.53"/>
</g>
<!-- Node11 -->
<g id="node11" class="node">
<title>Node11</title>
<g id="a_node11"><a xlink:href="constraints_2basic_8h.html" target="_top" xlink:title="Functions and data structures for constraining secondary structure predictions and evaluation.">
<polygon fill="none" stroke="black" points="910.5,-56.5 910.5,-86.5 1029.5,-86.5 1029.5,-56.5 910.5,-56.5"/>
<text text-anchor="start" x="918.5" y="-74.5" font-family="Helvetica,sans-Serif" font-size="10.00">ViennaRNA/constraints</text>
<text text-anchor="middle" x="970" y="-63.5" font-family="Helvetica,sans-Serif" font-size="10.00">/basic.h</text>
</a>
</g>
</g>
<!-- Node10&#45;&gt;Node11 -->
<g id="edge18" class="edge">
<title>Node10&#45;&gt;Node11</title>
<path fill="none" stroke="midnightblue" d="M970,-123.4C970,-115.64 970,-105.81 970,-96.86"/>
<polygon fill="midnightblue" stroke="midnightblue" points="973.5,-96.58 970,-86.58 966.5,-96.58 973.5,-96.58"/>
</g>
<!-- Node11&#45;&gt;Node5 -->
<g id="edge19" class="edge">
<title>Node11&#45;&gt;Node5</title>
<path fill="none" stroke="midnightblue" d="M910.28,-79.24C856.93,-86.63 784.56,-100.54 767,-123 758.51,-133.85 760.65,-141.77 767,-154 774.15,-167.77 787.67,-178.22 800.45,-185.56"/>
<polygon fill="midnightblue" stroke="midnightblue" points="799.04,-188.77 809.52,-190.36 802.32,-182.59 799.04,-188.77"/>
</g>
<!-- Node12&#45;&gt;Node2 -->
<g id="edge21" class="edge">
<title>Node12&#45;&gt;Node2</title>
<path fill="none" stroke="midnightblue" d="M1208.81,-153.53C1155.33,-175.65 1046.14,-218.6 981.97,-242.81"/>
<polygon fill="midnightblue" stroke="midnightblue" points="980.59,-239.59 972.46,-246.38 983.05,-246.14 980.59,-239.59"/>
</g>
<!-- Node12&#45;&gt;Node5 -->
<g id="edge22" class="edge">
<title>Node12&#45;&gt;Node5</title>
<path fill="none" stroke="midnightblue" d="M1183.51,-153.56C1182.67,-153.71 1181.83,-153.86 1181,-154 1090.56,-169.59 985.8,-182.68 914.57,-190.65"/>
<polygon fill="midnightblue" stroke="midnightblue" points="913.87,-187.21 904.31,-191.79 914.64,-194.17 913.87,-187.21"/>
</g>
<!-- Node12&#45;&gt;Node11 -->
<g id="edge23" class="edge">
<title>Node12&#45;&gt;Node11</title>
<path fill="none" stroke="midnightblue" d="M1181.75,-123.48C1139.66,-113.34 1082.68,-99.63 1038.42,-88.97"/>
<polygon fill="midnightblue" stroke="midnightblue" points="1039.16,-85.55 1028.61,-86.61 1037.52,-92.35 1039.16,-85.55"/>
</g>
<!-- Node13&#45;&gt;Node5 -->
<g id="edge25" class="edge">
<title>Node13&#45;&gt;Node5</title>
<path fill="none" stroke="midnightblue" d="M838.47,-148.01C839.88,-156.4 839.69,-169.5 838.26,-180.32"/>
<polygon fill="midnightblue" stroke="midnightblue" points="834.76,-180 836.33,-190.48 841.63,-181.3 834.76,-180"/>
</g>
<!-- Node15&#45;&gt;Node2 -->
<g id="edge28" class="edge">
<title>Node15&#45;&gt;Node2</title>
<path fill="none" stroke="midnightblue" d="M1332.58,-153.53C1252.37,-175.97 1090.03,-219.84 998.51,-243.84"/>
<polygon fill="midnightblue" stroke="midnightblue" points="997.58,-240.47 988.79,-246.38 999.35,-247.24 997.58,-240.47"/>
</g>
<!-- Node15&#45;&gt;Node5 -->
<g id="edge29" class="edge">
<title>Node15&#45;&gt;Node5</title>
<path fill="none" stroke="midnightblue" d="M1321.01,-153.54C1320,-153.7 1319,-153.85 1318,-154 1177.26,-174.93 1011.67,-187.96 914.28,-194.31"/>
<polygon fill="midnightblue" stroke="midnightblue" points="913.96,-190.83 904.21,-194.96 914.41,-197.81 913.96,-190.83"/>
</g>
<!-- Node15&#45;&gt;Node16 -->
<g id="edge30" class="edge">
<title>Node15&#45;&gt;Node16</title>
<path fill="none" stroke="midnightblue" d="M1401.7,-123.4C1418.47,-112.5 1441.57,-97.48 1458.33,-86.58"/>
<polygon fill="midnightblue" stroke="midnightblue" points="1460.44,-89.39 1466.91,-81.01 1456.62,-83.52 1460.44,-89.39"/>
</g>
<!-- Node16&#45;&gt;Node2 -->
<g id="edge32" class="edge">
<title>Node16&#45;&gt;Node2</title>
<path fill="none" stroke="midnightblue" d="M1484.79,-81.15C1487.64,-97.91 1482.8,-134.84 1461,-154 1395.13,-211.9 1139.73,-242.58 1009.37,-254.5"/>
<polygon fill="midnightblue" stroke="midnightblue" points="1008.7,-251.05 999.06,-255.43 1009.33,-258.02 1008.7,-251.05"/>
</g>
<!-- Node17 -->
<g id="node17" class="node">
<title>Node17</title>
<g id="a_node17"><a xlink:title=" ">
<polygon fill="none" stroke="#bfbfbf" points="1457,-0.5 1457,-19.5 1503,-19.5 1503,-0.5 1457,-0.5"/>
<text text-anchor="middle" x="1480" y="-7.5" font-family="Helvetica,sans-Serif" font-size="10.00">stdio.h</text>
</a>
</g>
</g>
<!-- Node16&#45;&gt;Node17 -->
<g id="edge31" class="edge">
<title>Node16&#45;&gt;Node17</title>
<path fill="none" stroke="midnightblue" d="M1480,-61.98C1480,-53.58 1480,-40.48 1480,-29.66"/>
<polygon fill="midnightblue" stroke="midnightblue" points="1483.5,-29.51 1480,-19.51 1476.5,-29.51 1483.5,-29.51"/>
</g>
</g>
</svg>
        <g id="navigator" transform="translate(0 0)" fill="#404254">
                <rect fill="#f2f5e9" fill-opacity="0.5" stroke="#606060" stroke-width=".5" x="0" y="0" width="60" height="60"/>
                <use id="zoomplus" xlink:href="#zoomPlus" x="17" y="9" onmousedown="handleZoom(evt,'in')"/>
                <use id="zoomminus" xlink:href="#zoomMin" x="42" y="9" onmousedown="handleZoom(evt,'out')"/>
                <use id="reset" xlink:href="#resetDef" x="30" y="36" onmousedown="handleReset()"/>
                <g id="arrowUp" xlink:href="#dirArrow" transform="translate(30 24)" onmousedown="handlePan(0,-1)">
                  <use xlink:href="#rim" fill="#404040">
                        <set attributeName="fill" to="#808080" begin="arrowUp.mouseover" end="arrowUp.mouseout"/>
                  </use>
                  <path fill="none" stroke="white" stroke-width="1.5" d="M0,-3.0v7 M-2.5,-0.5L0,-3.0L2.5,-0.5"/>
                </g>
                <g id="arrowRight" xlink:href="#dirArrow" transform="rotate(90) translate(36 -43)" onmousedown="handlePan(1,0)">
                  <use xlink:href="#rim" fill="#404040">
                        <set attributeName="fill" to="#808080" begin="arrowRight.mouseover" end="arrowRight.mouseout"/>
                  </use>
                  <path fill="none" stroke="white" stroke-width="1.5" d="M0,-3.0v7 M-2.5,-0.5L0,-3.0L2.5,-0.5"/>
                </g>
                <g id="arrowDown" xlink:href="#dirArrow" transform="rotate(180) translate(-30 -48)" onmousedown="handlePan(0,1)">
                  <use xlink:href="#rim" fill="#404040">
                        <set attributeName="fill" to="#808080" begin="arrowDown.mouseover" end="arrowDown.mouseout"/>
                  </use>
                  <path fill="none" stroke="white" stroke-width="1.5" d="M0,-3.0v7 M-2.5,-0.5L0,-3.0L2.5,-0.5"/>
                </g>
                <g id="arrowLeft" xlink:href="#dirArrow" transform="rotate(270) translate(-36 17)" onmousedown="handlePan(-1,0)">
                  <use xlink:href="#rim" fill="#404040">
                        <set attributeName="fill" to="#808080" begin="arrowLeft.mouseover" end="arrowLeft.mouseout"/>
                  </use>
                  <path fill="none" stroke="white" stroke-width="1.5" d="M0,-3.0v7 M-2.5,-0.5L0,-3.0L2.5,-0.5"/>
                </g>
        </g>
        <svg viewBox="0 0 15 15" width="100%" height="30px" preserveAspectRatio="xMaxYMin meet">
         <g id="arrow_out" transform="scale(0.3 0.3)">
          <a xlink:href="equilibrium__probs_8h__incl_org.svg" target="_base">
           <rect id="button" ry="5" rx="5" y="6" x="6" height="38" width="38"
                fill="#f2f5e9" fill-opacity="0.5" stroke="#606060" stroke-width="1.0"/>
           <path id="arrow"
             d="M 11.500037,31.436501 C 11.940474,20.09759 22.043105,11.32322 32.158766,21.979434 L 37.068811,17.246167 C 37.068811,17.246167 37.088388,32 37.088388,32 L 22.160133,31.978069 C 22.160133,31.978069 26.997745,27.140456 26.997745,27.140456 C 18.528582,18.264221 13.291696,25.230495 11.500037,31.436501 z"
             style="fill:#404040;"/>
          </a>
         </g>
        </svg>
</svg>
