<?xml version="1.0" encoding="UTF-8" standalone="no"?>
<!DOCTYPE svg PUBLIC "-//W3C//DTD SVG 1.1//EN"
 "http://www.w3.org/Graphics/SVG/1.1/DTD/svg11.dtd">
<!-- Generated by graphviz version 2.47.0 (0)
 -->
<!-- Title: ViennaRNA/loops/external.h Pages: 1 -->
<svg width="258pt" height="151pt"
 viewBox="0.00 0.00 258.00 151.00" xmlns="http://www.w3.org/2000/svg" xmlns:xlink="http://www.w3.org/1999/xlink">
<g id="graph0" class="graph" transform="scale(1 1) rotate(0) translate(4 147)">
<title>ViennaRNA/loops/external.h</title>
<!-- Node1 -->
<g id="node1" class="node">
<title>Node1</title>
<g id="a_node1"><a xlink:title="Energy evaluation of exterior loops for MFE and partition function calculations.">
<polygon fill="#bfbfbf" stroke="black" points="46,-123.5 46,-142.5 186,-142.5 186,-123.5 46,-123.5"/>
<text text-anchor="middle" x="116" y="-130.5" font-family="Helvetica,sans-Serif" font-size="10.00">ViennaRNA/loops/external.h</text>
</a>
</g>
</g>
<!-- Node2 -->
<g id="node2" class="node">
<title>Node2</title>
<g id="a_node2"><a xlink:href="exterior__loops_8h.html" target="_top" xlink:title="Use ViennaRNA/loops/external.h instead.">
<polygon fill="none" stroke="black" points="0,-56.5 0,-86.5 104,-86.5 104,-56.5 0,-56.5"/>
<text text-anchor="start" x="8" y="-74.5" font-family="Helvetica,sans-Serif" font-size="10.00">ViennaRNA/exterior</text>
<text text-anchor="middle" x="52" y="-63.5" font-family="Helvetica,sans-Serif" font-size="10.00">_loops.h</text>
</a>
</g>
</g>
<!-- Node1&#45;&gt;Node2 -->
<g id="edge1" class="edge">
<title>Node1&#45;&gt;Node2</title>
<path fill="none" stroke="midnightblue" d="M99.48,-116.65C89.48,-107.35 76.82,-95.57 67.08,-86.52"/>
<polygon fill="midnightblue" stroke="midnightblue" points="97.12,-119.23 106.83,-123.48 101.89,-114.1 97.12,-119.23"/>
</g>
<!-- Node3 -->
<g id="node3" class="node">
<title>Node3</title>
<g id="a_node3"><a xlink:href="all_8h.html" target="_top" xlink:title="Energy evaluation for MFE and partition function calculations.">
<polygon fill="none" stroke="black" points="122,-62 122,-81 238,-81 238,-62 122,-62"/>
<text text-anchor="middle" x="180" y="-69" font-family="Helvetica,sans-Serif" font-size="10.00">ViennaRNA/loops/all.h</text>
</a>
</g>
</g>
<!-- Node1&#45;&gt;Node3 -->
<g id="edge2" class="edge">
<title>Node1&#45;&gt;Node3</title>
<path fill="none" stroke="midnightblue" d="M132.51,-116.65C144.71,-105.31 160.87,-90.28 170.85,-81.01"/>
<polygon fill="midnightblue" stroke="midnightblue" points="130.11,-114.1 125.17,-123.48 134.88,-119.23 130.11,-114.1"/>
</g>
<!-- Node4 -->
<g id="node4" class="node">
<title>Node4</title>
<g id="a_node4"><a xlink:href="loop__energies_8h.html" target="_top" xlink:title="Use ViennaRNA/loops/all.h instead.">
<polygon fill="none" stroke="black" points="110,-0.5 110,-19.5 250,-19.5 250,-0.5 110,-0.5"/>
<text text-anchor="middle" x="180" y="-7.5" font-family="Helvetica,sans-Serif" font-size="10.00">ViennaRNA/loop_energies.h</text>
</a>
</g>
</g>
<!-- Node3&#45;&gt;Node4 -->
<g id="edge3" class="edge">
<title>Node3&#45;&gt;Node4</title>
<path fill="none" stroke="midnightblue" d="M180,-51.82C180,-41 180,-27.9 180,-19.51"/>
<polygon fill="midnightblue" stroke="midnightblue" points="176.5,-51.98 180,-61.98 183.5,-51.98 176.5,-51.98"/>
</g>
</g>
</svg>
