<?xml version="1.0" encoding="UTF-8" standalone="no"?>
<!DOCTYPE svg PUBLIC "-//W3C//DTD SVG 1.1//EN"
 "http://www.w3.org/Graphics/SVG/1.1/DTD/svg11.dtd">
<!-- Generated by graphviz version 2.47.0 (0)
 -->
<!-- Title: ViennaRNA/file_formats.h Pages: 1 -->
<!--zoomable 397 -->
<svg id="main" version="1.1" xmlns="http://www.w3.org/2000/svg" xmlns:xlink="http://www.w3.org/1999/xlink" xml:space="preserve" onload="init(evt)">
<style type="text/css"><![CDATA[
.edge:hover path { stroke: red; }
.edge:hover polygon { stroke: red; fill: red; }
]]></style>
<script type="text/javascript"><![CDATA[
var edges = document.getElementsByTagName('g');
if (edges && edges.length) {
  for (var i=0;i<edges.length;i++) {
    if (edges[i].id.substr(0,4)=='edge') {
      edges[i].setAttribute('class','edge');
    }
  }
}
]]></script>
        <defs>
                <circle id="rim" cx="0" cy="0" r="7"/>
                <circle id="rim2" cx="0" cy="0" r="3.5"/>
                <g id="zoomPlus">
                        <use xlink:href="#rim" fill="#404040">
                                <set attributeName="fill" to="#808080" begin="zoomplus.mouseover" end="zoomplus.mouseout"/>
                        </use>
                        <path d="M-4,0h8M0,-4v8" fill="none" stroke="white" stroke-width="1.5" pointer-events="none"/>
                </g>
                <g id="zoomMin">
                        <use xlink:href="#rim" fill="#404040">
                                <set attributeName="fill" to="#808080" begin="zoomminus.mouseover" end="zoomminus.mouseout"/>
                        </use>
                        <path d="M-4,0h8" fill="none" stroke="white" stroke-width="1.5" pointer-events="none"/>
                </g>
                <g id="dirArrow">
                        <path fill="none" stroke="white" stroke-width="1.5" d="M0,-3.0v7 M-2.5,-0.5L0,-3.0L2.5,-0.5"/>
                </g>
               <g id="resetDef">
                       <use xlink:href="#rim2" fill="#404040">
                               <set attributeName="fill" to="#808080" begin="reset.mouseover" end="reset.mouseout"/>
                       </use>
               </g>
        </defs>

<script type="text/javascript">
var viewWidth = 1676;
var viewHeight = 397;
var sectionId = 'dynsection-0';
</script>
<script xlink:href="svgpan.js"/>
<svg id="graph" class="graph">
<g id="viewport">
<title>ViennaRNA/file_formats.h</title>
<!-- Node1 -->
<g id="node1" class="node">
<title>Node1</title>
<g id="a_node1"><a xlink:title="Use ViennaRNA/io/file_formats.h instead.">
<polygon fill="#bfbfbf" stroke="black" points="1486,-369.5 1486,-388.5 1617,-388.5 1617,-369.5 1486,-369.5"/>
<text text-anchor="middle" x="1551.5" y="-376.5" font-family="Helvetica,sans-Serif" font-size="10.00">ViennaRNA/file_formats.h</text>
</a>
</g>
</g>
<!-- Node2 -->
<g id="node2" class="node">
<title>Node2</title>
<g id="a_node2"><a xlink:href="io_2file__formats_8h.html" target="_top" xlink:title="Read and write different file formats for RNA sequences, structures.">
<polygon fill="none" stroke="black" points="1432,-313.5 1432,-332.5 1573,-332.5 1573,-313.5 1432,-313.5"/>
<text text-anchor="middle" x="1502.5" y="-320.5" font-family="Helvetica,sans-Serif" font-size="10.00">ViennaRNA/io/file_formats.h</text>
</a>
</g>
</g>
<!-- Node1&#45;&gt;Node2 -->
<g id="edge1" class="edge">
<title>Node1&#45;&gt;Node2</title>
<path fill="none" stroke="midnightblue" d="M1543.41,-369.08C1536.34,-361.3 1525.91,-349.8 1517.35,-340.37"/>
<polygon fill="midnightblue" stroke="midnightblue" points="1519.75,-337.8 1510.44,-332.75 1514.57,-342.51 1519.75,-337.8"/>
</g>
<!-- Node20 -->
<g id="node20" class="node">
<title>Node20</title>
<g id="a_node20"><a xlink:href="io_2file__formats__msa_8h.html" target="_top" xlink:title="Functions dealing with file formats for Multiple Sequence Alignments (MSA)">
<polygon fill="none" stroke="black" points="1535,-246.5 1535,-276.5 1668,-276.5 1668,-246.5 1535,-246.5"/>
<text text-anchor="start" x="1543" y="-264.5" font-family="Helvetica,sans-Serif" font-size="10.00">ViennaRNA/io/file_formats</text>
<text text-anchor="middle" x="1601.5" y="-253.5" font-family="Helvetica,sans-Serif" font-size="10.00">_msa.h</text>
</a>
</g>
</g>
<!-- Node1&#45;&gt;Node20 -->
<g id="edge45" class="edge">
<title>Node1&#45;&gt;Node20</title>
<path fill="none" stroke="midnightblue" d="M1558.59,-369.19C1565.31,-360.46 1575.29,-346.47 1581.5,-333 1588.34,-318.18 1593.34,-300.51 1596.64,-286.56"/>
<polygon fill="midnightblue" stroke="midnightblue" points="1600.07,-287.26 1598.83,-276.74 1593.24,-285.74 1600.07,-287.26"/>
</g>
<!-- Node3 -->
<g id="node3" class="node">
<title>Node3</title>
<g id="a_node3"><a xlink:title=" ">
<polygon fill="none" stroke="#bfbfbf" points="1483.5,-0.5 1483.5,-19.5 1529.5,-19.5 1529.5,-0.5 1483.5,-0.5"/>
<text text-anchor="middle" x="1506.5" y="-7.5" font-family="Helvetica,sans-Serif" font-size="10.00">stdio.h</text>
</a>
</g>
</g>
<!-- Node2&#45;&gt;Node3 -->
<g id="edge2" class="edge">
<title>Node2&#45;&gt;Node3</title>
<path fill="none" stroke="midnightblue" d="M1502.97,-313.49C1504.03,-293.75 1506.5,-243.25 1506.5,-201 1506.5,-201 1506.5,-201 1506.5,-137.5 1506.5,-99.2 1506.5,-54.38 1506.5,-29.7"/>
<polygon fill="midnightblue" stroke="midnightblue" points="1510,-29.59 1506.5,-19.59 1503,-29.59 1510,-29.59"/>
</g>
<!-- Node4 -->
<g id="node4" class="node">
<title>Node4</title>
<g id="a_node4"><a xlink:href="datastructures_2basic_8h.html" target="_top" xlink:title="Various data structures and pre&#45;processor macros.">
<polygon fill="none" stroke="black" points="981.5,-246.5 981.5,-276.5 1115.5,-276.5 1115.5,-246.5 981.5,-246.5"/>
<text text-anchor="start" x="989.5" y="-264.5" font-family="Helvetica,sans-Serif" font-size="10.00">ViennaRNA/datastructures</text>
<text text-anchor="middle" x="1048.5" y="-253.5" font-family="Helvetica,sans-Serif" font-size="10.00">/basic.h</text>
</a>
</g>
</g>
<!-- Node2&#45;&gt;Node4 -->
<g id="edge3" class="edge">
<title>Node2&#45;&gt;Node4</title>
<path fill="none" stroke="midnightblue" d="M1437.45,-313.48C1355.14,-302.69 1213.55,-284.13 1125.81,-272.63"/>
<polygon fill="midnightblue" stroke="midnightblue" points="1126.02,-269.13 1115.65,-271.3 1125.11,-276.07 1126.02,-269.13"/>
</g>
<!-- Node5 -->
<g id="node5" class="node">
<title>Node5</title>
<g id="a_node5"><a xlink:href="constants_8h.html" target="_top" xlink:title="Energy parameter constants.">
<polygon fill="none" stroke="black" points="1152.5,-62 1152.5,-81 1310.5,-81 1310.5,-62 1152.5,-62"/>
<text text-anchor="middle" x="1231.5" y="-69" font-family="Helvetica,sans-Serif" font-size="10.00">ViennaRNA/params/constants.h</text>
</a>
</g>
</g>
<!-- Node4&#45;&gt;Node5 -->
<g id="edge4" class="edge">
<title>Node4&#45;&gt;Node5</title>
<path fill="none" stroke="midnightblue" d="M1115.81,-259.5C1190.98,-254.32 1309.53,-233.15 1366.5,-154 1391.96,-118.63 1333.56,-95.74 1285.75,-83.48"/>
<polygon fill="midnightblue" stroke="midnightblue" points="1286.29,-80.01 1275.74,-81.02 1284.62,-86.8 1286.29,-80.01"/>
</g>
<!-- Node7 -->
<g id="node7" class="node">
<title>Node7</title>
<g id="a_node7"><a xlink:href="fold__compound_8h.html" target="_top" xlink:title="The Basic Fold Compound API.">
<polygon fill="none" stroke="black" points="617.5,-190.5 617.5,-209.5 763.5,-209.5 763.5,-190.5 617.5,-190.5"/>
<text text-anchor="middle" x="690.5" y="-197.5" font-family="Helvetica,sans-Serif" font-size="10.00">ViennaRNA/fold_compound.h</text>
</a>
</g>
</g>
<!-- Node4&#45;&gt;Node7 -->
<g id="edge6" class="edge">
<title>Node4&#45;&gt;Node7</title>
<path fill="none" stroke="midnightblue" d="M981.16,-249.31C915.22,-238.35 815.61,-221.79 751.81,-211.19"/>
<polygon fill="midnightblue" stroke="midnightblue" points="752.33,-207.73 741.89,-209.54 751.18,-214.63 752.33,-207.73"/>
</g>
<!-- Node8 -->
<g id="node8" class="node">
<title>Node8</title>
<g id="a_node8"><a xlink:href="model_8h.html" target="_top" xlink:title="The model details data structure and its corresponding modifiers.">
<polygon fill="none" stroke="black" points="995.5,-62 995.5,-81 1101.5,-81 1101.5,-62 995.5,-62"/>
<text text-anchor="middle" x="1048.5" y="-69" font-family="Helvetica,sans-Serif" font-size="10.00">ViennaRNA/model.h</text>
</a>
</g>
</g>
<!-- Node4&#45;&gt;Node8 -->
<g id="edge36" class="edge">
<title>Node4&#45;&gt;Node8</title>
<path fill="none" stroke="midnightblue" d="M1048.5,-246.37C1048.5,-212.94 1048.5,-128.97 1048.5,-91.3"/>
<polygon fill="midnightblue" stroke="midnightblue" points="1052,-91.21 1048.5,-81.21 1045,-91.21 1052,-91.21"/>
</g>
<!-- Node9 -->
<g id="node9" class="node">
<title>Node9</title>
<g id="a_node9"><a xlink:href="params_2basic_8h.html" target="_top" xlink:title="Functions to deal with sets of energy parameters.">
<polygon fill="none" stroke="black" points="1076.5,-129 1076.5,-148 1214.5,-148 1214.5,-129 1076.5,-129"/>
<text text-anchor="middle" x="1145.5" y="-136" font-family="Helvetica,sans-Serif" font-size="10.00">ViennaRNA/params/basic.h</text>
</a>
</g>
</g>
<!-- Node4&#45;&gt;Node9 -->
<g id="edge37" class="edge">
<title>Node4&#45;&gt;Node9</title>
<path fill="none" stroke="midnightblue" d="M1055.45,-246.14C1070.82,-223.41 1106.14,-179.27 1127.89,-155.53"/>
<polygon fill="midnightblue" stroke="midnightblue" points="1130.64,-157.72 1134.97,-148.05 1125.55,-152.91 1130.64,-157.72"/>
</g>
<!-- Node11 -->
<g id="node11" class="node">
<title>Node11</title>
<g id="a_node11"><a xlink:href="dp__matrices_8h.html" target="_top" xlink:title="Functions to deal with standard dynamic programming (DP) matrices.">
<polygon fill="none" stroke="black" points="137,-129 137,-148 270,-148 270,-129 137,-129"/>
<text text-anchor="middle" x="203.5" y="-136" font-family="Helvetica,sans-Serif" font-size="10.00">ViennaRNA/dp_matrices.h</text>
</a>
</g>
</g>
<!-- Node4&#45;&gt;Node11 -->
<g id="edge38" class="edge">
<title>Node4&#45;&gt;Node11</title>
<path fill="none" stroke="midnightblue" d="M981.35,-257.15C878.87,-251.18 677.92,-236.76 509.5,-210 410.82,-194.32 296.8,-166.28 239.71,-150.71"/>
<polygon fill="midnightblue" stroke="midnightblue" points="240.63,-147.33 230.06,-148.04 238.77,-154.08 240.63,-147.33"/>
</g>
<!-- Node12 -->
<g id="node12" class="node">
<title>Node12</title>
<g id="a_node12"><a xlink:href="hard_8h.html" target="_top" xlink:title="Functions and data structures for handling of secondary structure hard constraints.">
<polygon fill="none" stroke="black" points="288,-123.5 288,-153.5 407,-153.5 407,-123.5 288,-123.5"/>
<text text-anchor="start" x="296" y="-141.5" font-family="Helvetica,sans-Serif" font-size="10.00">ViennaRNA/constraints</text>
<text text-anchor="middle" x="347.5" y="-130.5" font-family="Helvetica,sans-Serif" font-size="10.00">/hard.h</text>
</a>
</g>
</g>
<!-- Node4&#45;&gt;Node12 -->
<g id="edge39" class="edge">
<title>Node4&#45;&gt;Node12</title>
<path fill="none" stroke="midnightblue" d="M981.31,-255.93C894.61,-249.31 739.34,-235.03 608.5,-210 535.74,-196.08 453.49,-172.53 401.11,-156.51"/>
<polygon fill="midnightblue" stroke="midnightblue" points="401.95,-153.11 391.36,-153.51 399.89,-159.8 401.95,-153.11"/>
</g>
<!-- Node14 -->
<g id="node14" class="node">
<title>Node14</title>
<g id="a_node14"><a xlink:href="soft_8h.html" target="_top" xlink:title="Functions and data structures for secondary structure soft constraints.">
<polygon fill="none" stroke="black" points="0,-123.5 0,-153.5 119,-153.5 119,-123.5 0,-123.5"/>
<text text-anchor="start" x="8" y="-141.5" font-family="Helvetica,sans-Serif" font-size="10.00">ViennaRNA/constraints</text>
<text text-anchor="middle" x="59.5" y="-130.5" font-family="Helvetica,sans-Serif" font-size="10.00">/soft.h</text>
</a>
</g>
</g>
<!-- Node4&#45;&gt;Node14 -->
<g id="edge40" class="edge">
<title>Node4&#45;&gt;Node14</title>
<path fill="none" stroke="midnightblue" d="M981.39,-258C863.4,-252.85 611.73,-239.02 401.5,-210 302.62,-196.35 189.66,-172.08 121.43,-155.89"/>
<polygon fill="midnightblue" stroke="midnightblue" points="122.23,-152.48 111.69,-153.56 120.6,-159.29 122.23,-152.48"/>
</g>
<!-- Node15 -->
<g id="node15" class="node">
<title>Node15</title>
<g id="a_node15"><a xlink:href="grammar_8h.html" target="_top" xlink:title="Implementations for the RNA folding grammar.">
<polygon fill="none" stroke="black" points="770,-129 770,-148 887,-148 887,-129 770,-129"/>
<text text-anchor="middle" x="828.5" y="-136" font-family="Helvetica,sans-Serif" font-size="10.00">ViennaRNA/grammar.h</text>
</a>
</g>
</g>
<!-- Node4&#45;&gt;Node15 -->
<g id="edge41" class="edge">
<title>Node4&#45;&gt;Node15</title>
<path fill="none" stroke="midnightblue" d="M1022.83,-246.38C980.14,-222.9 895.09,-176.12 853.11,-153.03"/>
<polygon fill="midnightblue" stroke="midnightblue" points="854.57,-149.84 844.12,-148.09 851.2,-155.98 854.57,-149.84"/>
</g>
<!-- Node16 -->
<g id="node16" class="node">
<title>Node16</title>
<g id="a_node16"><a xlink:href="structured__domains_8h.html" target="_top" xlink:title="This module provides interfaces that deal with additional structured domains in the folding grammar.">
<polygon fill="none" stroke="black" points="905,-123.5 905,-153.5 1020,-153.5 1020,-123.5 905,-123.5"/>
<text text-anchor="start" x="913" y="-141.5" font-family="Helvetica,sans-Serif" font-size="10.00">ViennaRNA/structured</text>
<text text-anchor="middle" x="962.5" y="-130.5" font-family="Helvetica,sans-Serif" font-size="10.00">_domains.h</text>
</a>
</g>
</g>
<!-- Node4&#45;&gt;Node16 -->
<g id="edge42" class="edge">
<title>Node4&#45;&gt;Node16</title>
<path fill="none" stroke="midnightblue" d="M1038.3,-246.14C1023.56,-225.4 996.15,-186.85 978.65,-162.22"/>
<polygon fill="midnightblue" stroke="midnightblue" points="981.34,-159.96 972.69,-153.84 975.63,-164.02 981.34,-159.96"/>
</g>
<!-- Node17 -->
<g id="node17" class="node">
<title>Node17</title>
<g id="a_node17"><a xlink:href="unstructured__domains_8h.html" target="_top" xlink:title="Functions to modify unstructured domains, e.g. to incorporate ligands binding to unpaired stretches.">
<polygon fill="none" stroke="black" points="1233,-123.5 1233,-153.5 1358,-153.5 1358,-123.5 1233,-123.5"/>
<text text-anchor="start" x="1241" y="-141.5" font-family="Helvetica,sans-Serif" font-size="10.00">ViennaRNA/unstructured</text>
<text text-anchor="middle" x="1295.5" y="-130.5" font-family="Helvetica,sans-Serif" font-size="10.00">_domains.h</text>
</a>
</g>
</g>
<!-- Node4&#45;&gt;Node17 -->
<g id="edge43" class="edge">
<title>Node4&#45;&gt;Node17</title>
<path fill="none" stroke="midnightblue" d="M1072.79,-246.38C1114.8,-224.43 1201,-182.13 1253.05,-157.84"/>
<polygon fill="midnightblue" stroke="midnightblue" points="1254.75,-160.91 1262.35,-153.53 1251.81,-154.56 1254.75,-160.91"/>
</g>
<!-- Node18 -->
<g id="node18" class="node">
<title>Node18</title>
<g id="a_node18"><a xlink:href="utils_2structures_8h.html" target="_top" xlink:title="Various utility&#45; and helper&#45;functions for secondary structure parsing, converting,...">
<polygon fill="none" stroke="black" points="1334.5,-62 1334.5,-81 1478.5,-81 1478.5,-62 1334.5,-62"/>
<text text-anchor="middle" x="1406.5" y="-69" font-family="Helvetica,sans-Serif" font-size="10.00">ViennaRNA/utils/structures.h</text>
</a>
</g>
</g>
<!-- Node4&#45;&gt;Node18 -->
<g id="edge44" class="edge">
<title>Node4&#45;&gt;Node18</title>
<path fill="none" stroke="midnightblue" d="M1115.54,-260.3C1174,-257.21 1259.26,-245.96 1324.5,-210 1353.98,-193.75 1359.33,-183.52 1375.5,-154 1386.47,-133.97 1392.24,-108.12 1397.1,-90.96"/>
<polygon fill="midnightblue" stroke="midnightblue" points="1400.55,-91.68 1400.21,-81.09 1393.87,-89.57 1400.55,-91.68"/>
</g>
<!-- Node6 -->
<g id="node6" class="node">
<title>Node6</title>
<g id="a_node6"><a xlink:title=" ">
<polygon fill="none" stroke="#bfbfbf" points="1207.5,-0.5 1207.5,-19.5 1255.5,-19.5 1255.5,-0.5 1207.5,-0.5"/>
<text text-anchor="middle" x="1231.5" y="-7.5" font-family="Helvetica,sans-Serif" font-size="10.00">limits.h</text>
</a>
</g>
</g>
<!-- Node5&#45;&gt;Node6 -->
<g id="edge5" class="edge">
<title>Node5&#45;&gt;Node6</title>
<path fill="none" stroke="midnightblue" d="M1231.5,-61.98C1231.5,-53.58 1231.5,-40.48 1231.5,-29.66"/>
<polygon fill="midnightblue" stroke="midnightblue" points="1235,-29.51 1231.5,-19.51 1228,-29.51 1235,-29.51"/>
</g>
<!-- Node7&#45;&gt;Node8 -->
<g id="edge7" class="edge">
<title>Node7&#45;&gt;Node8</title>
<path fill="none" stroke="midnightblue" d="M666.03,-190.44C649.93,-183.38 630.12,-171.63 620.5,-154 613.9,-141.91 611.35,-133.3 620.5,-123 644.27,-96.26 871.46,-81.29 984.82,-75.42"/>
<polygon fill="midnightblue" stroke="midnightblue" points="985.29,-78.9 995.1,-74.9 984.93,-71.91 985.29,-78.9"/>
</g>
<!-- Node7&#45;&gt;Node9 -->
<g id="edge8" class="edge">
<title>Node7&#45;&gt;Node9</title>
<path fill="none" stroke="midnightblue" d="M750.79,-190.48C831.93,-179.55 976.27,-160.67 1066.15,-149.2"/>
<polygon fill="midnightblue" stroke="midnightblue" points="1066.81,-152.65 1076.29,-147.91 1065.93,-145.7 1066.81,-152.65"/>
</g>
<!-- Node10 -->
<g id="node10" class="node">
<title>Node10</title>
<g id="a_node10"><a xlink:href="sequence_8h.html" target="_top" xlink:title="Functions and data structures related to sequence representations ,.">
<polygon fill="none" stroke="black" points="629.5,-129 629.5,-148 751.5,-148 751.5,-129 629.5,-129"/>
<text text-anchor="middle" x="690.5" y="-136" font-family="Helvetica,sans-Serif" font-size="10.00">ViennaRNA/sequence.h</text>
</a>
</g>
</g>
<!-- Node7&#45;&gt;Node10 -->
<g id="edge13" class="edge">
<title>Node7&#45;&gt;Node10</title>
<path fill="none" stroke="midnightblue" d="M685.6,-190.48C683.77,-182.08 683.3,-168.98 684.19,-158.16"/>
<polygon fill="midnightblue" stroke="midnightblue" points="687.69,-158.4 685.6,-148.01 680.75,-157.43 687.69,-158.4"/>
</g>
<!-- Node7&#45;&gt;Node11 -->
<g id="edge15" class="edge">
<title>Node7&#45;&gt;Node11</title>
<path fill="none" stroke="midnightblue" d="M617.21,-193.39C532.86,-186.16 390.63,-172.29 269.5,-154 261.66,-152.82 253.4,-151.4 245.44,-149.91"/>
<polygon fill="midnightblue" stroke="midnightblue" points="246.08,-146.47 235.6,-148.01 244.75,-153.34 246.08,-146.47"/>
</g>
<!-- Node7&#45;&gt;Node12 -->
<g id="edge18" class="edge">
<title>Node7&#45;&gt;Node12</title>
<path fill="none" stroke="midnightblue" d="M630.03,-190.47C575.8,-182.09 494.08,-168.69 416.9,-154.78"/>
<polygon fill="midnightblue" stroke="midnightblue" points="417.49,-151.33 407.03,-153 416.24,-158.22 417.49,-151.33"/>
</g>
<!-- Node7&#45;&gt;Node14 -->
<g id="edge22" class="edge">
<title>Node7&#45;&gt;Node14</title>
<path fill="none" stroke="midnightblue" d="M617.32,-196.45C510.06,-191.89 304.12,-180.39 125.36,-154.97"/>
<polygon fill="midnightblue" stroke="midnightblue" points="125.65,-151.47 115.25,-153.51 124.65,-158.4 125.65,-151.47"/>
</g>
<!-- Node7&#45;&gt;Node15 -->
<g id="edge26" class="edge">
<title>Node7&#45;&gt;Node15</title>
<path fill="none" stroke="midnightblue" d="M705.37,-190.48C726.63,-180.36 765.72,-163.4 794.26,-151.85"/>
<polygon fill="midnightblue" stroke="midnightblue" points="795.88,-154.97 803.87,-148.01 793.28,-148.47 795.88,-154.97"/>
</g>
<!-- Node7&#45;&gt;Node16 -->
<g id="edge28" class="edge">
<title>Node7&#45;&gt;Node16</title>
<path fill="none" stroke="midnightblue" d="M729.47,-190.48C772.6,-181.04 842.88,-165.67 895,-154.27"/>
<polygon fill="midnightblue" stroke="midnightblue" points="895.82,-157.67 904.84,-152.11 894.32,-150.83 895.82,-157.67"/>
</g>
<!-- Node7&#45;&gt;Node17 -->
<g id="edge29" class="edge">
<title>Node7&#45;&gt;Node17</title>
<path fill="none" stroke="midnightblue" d="M763.67,-195.14C865.24,-189.42 1054.3,-176.82 1214.5,-154 1217.19,-153.62 1219.93,-153.2 1222.7,-152.75"/>
<polygon fill="midnightblue" stroke="midnightblue" points="1223.54,-156.16 1232.81,-151.02 1222.36,-149.26 1223.54,-156.16"/>
</g>
<!-- Node19 -->
<g id="node19" class="node">
<title>Node19</title>
<g id="a_node19"><a xlink:href="zscore_8h_source.html" target="_top" xlink:title=" ">
<polygon fill="none" stroke="black" points="464,-129 464,-148 573,-148 573,-129 464,-129"/>
<text text-anchor="middle" x="518.5" y="-136" font-family="Helvetica,sans-Serif" font-size="10.00">ViennaRNA/zscore.h</text>
</a>
</g>
</g>
<!-- Node7&#45;&gt;Node19 -->
<g id="edge35" class="edge">
<title>Node7&#45;&gt;Node19</title>
<path fill="none" stroke="midnightblue" d="M665.86,-190.48C636.22,-180.22 586.32,-162.96 552.9,-151.4"/>
<polygon fill="midnightblue" stroke="midnightblue" points="553.69,-147.97 543.1,-148.01 551.4,-154.59 553.69,-147.97"/>
</g>
<!-- Node9&#45;&gt;Node4 -->
<g id="edge10" class="edge">
<title>Node9&#45;&gt;Node4</title>
<path fill="none" stroke="midnightblue" d="M1142.32,-148.05C1130.8,-166.72 1095.36,-211.61 1071.32,-238.69"/>
<polygon fill="midnightblue" stroke="midnightblue" points="1068.68,-236.38 1064.56,-246.14 1073.87,-241.08 1068.68,-236.38"/>
</g>
<!-- Node9&#45;&gt;Node5 -->
<g id="edge9" class="edge">
<title>Node9&#45;&gt;Node5</title>
<path fill="none" stroke="midnightblue" d="M1157.1,-128.73C1171.15,-118.11 1195.05,-100.05 1211.97,-87.26"/>
<polygon fill="midnightblue" stroke="midnightblue" points="1214.22,-89.95 1220.09,-81.13 1210,-84.36 1214.22,-89.95"/>
</g>
<!-- Node9&#45;&gt;Node7 -->
<g id="edge11" class="edge">
<title>Node9&#45;&gt;Node7</title>
<path fill="none" stroke="midnightblue" d="M1085.33,-148.01C1004.48,-158.89 860.73,-177.7 770.75,-189.18"/>
<polygon fill="midnightblue" stroke="midnightblue" points="770.07,-185.74 760.59,-190.48 770.95,-192.68 770.07,-185.74"/>
</g>
<!-- Node9&#45;&gt;Node8 -->
<g id="edge12" class="edge">
<title>Node9&#45;&gt;Node8</title>
<path fill="none" stroke="midnightblue" d="M1132.42,-128.73C1116.35,-117.96 1088.87,-99.55 1069.75,-86.74"/>
<polygon fill="midnightblue" stroke="midnightblue" points="1071.63,-83.79 1061.37,-81.13 1067.73,-89.6 1071.63,-83.79"/>
</g>
<!-- Node10&#45;&gt;Node7 -->
<g id="edge14" class="edge">
<title>Node10&#45;&gt;Node7</title>
<path fill="none" stroke="midnightblue" d="M695.4,-148.01C697.23,-156.4 697.7,-169.5 696.82,-180.32"/>
<polygon fill="midnightblue" stroke="midnightblue" points="693.31,-180.09 695.4,-190.48 700.25,-181.05 693.31,-180.09"/>
</g>
<!-- Node11&#45;&gt;Node4 -->
<g id="edge16" class="edge">
<title>Node11&#45;&gt;Node4</title>
<path fill="none" stroke="midnightblue" d="M240.82,-148.04C301.05,-162.87 422.9,-193.38 527.5,-210 684.15,-234.89 868.94,-249.1 971.04,-255.77"/>
<polygon fill="midnightblue" stroke="midnightblue" points="971.06,-259.28 981.26,-256.43 971.51,-252.29 971.06,-259.28"/>
</g>
<!-- Node11&#45;&gt;Node7 -->
<g id="edge17" class="edge">
<title>Node11&#45;&gt;Node7</title>
<path fill="none" stroke="midnightblue" d="M252.94,-148.01C264.34,-150.15 276.35,-152.32 287.5,-154 397.69,-170.64 525.35,-183.62 607.01,-191.27"/>
<polygon fill="midnightblue" stroke="midnightblue" points="606.95,-194.78 617.24,-192.22 607.6,-187.81 606.95,-194.78"/>
</g>
<!-- Node12&#45;&gt;Node7 -->
<g id="edge19" class="edge">
<title>Node12&#45;&gt;Node7</title>
<path fill="none" stroke="midnightblue" d="M407.31,-149.67C415.14,-151.16 423.03,-152.64 430.5,-154 500.38,-166.69 580.73,-179.96 633.47,-188.77"/>
<polygon fill="midnightblue" stroke="midnightblue" points="633.2,-192.27 643.64,-190.47 634.35,-185.37 633.2,-192.27"/>
</g>
<!-- Node13 -->
<g id="node13" class="node">
<title>Node13</title>
<g id="a_node13"><a xlink:href="constraints_2basic_8h.html" target="_top" xlink:title="Functions and data structures for constraining secondary structure predictions and evaluation.">
<polygon fill="none" stroke="black" points="288,-56.5 288,-86.5 407,-86.5 407,-56.5 288,-56.5"/>
<text text-anchor="start" x="296" y="-74.5" font-family="Helvetica,sans-Serif" font-size="10.00">ViennaRNA/constraints</text>
<text text-anchor="middle" x="347.5" y="-63.5" font-family="Helvetica,sans-Serif" font-size="10.00">/basic.h</text>
</a>
</g>
</g>
<!-- Node12&#45;&gt;Node13 -->
<g id="edge20" class="edge">
<title>Node12&#45;&gt;Node13</title>
<path fill="none" stroke="midnightblue" d="M347.5,-123.4C347.5,-115.64 347.5,-105.81 347.5,-96.86"/>
<polygon fill="midnightblue" stroke="midnightblue" points="351,-96.58 347.5,-86.58 344,-96.58 351,-96.58"/>
</g>
<!-- Node13&#45;&gt;Node7 -->
<g id="edge21" class="edge">
<title>Node13&#45;&gt;Node7</title>
<path fill="none" stroke="midnightblue" d="M366.97,-86.7C380.64,-96.73 399.29,-110.55 415.5,-123 433.06,-136.49 434.37,-144.77 454.5,-154 502.45,-175.99 560.62,-187.24 607.21,-192.99"/>
<polygon fill="midnightblue" stroke="midnightblue" points="606.93,-196.48 617.27,-194.17 607.75,-189.53 606.93,-196.48"/>
</g>
<!-- Node14&#45;&gt;Node4 -->
<g id="edge23" class="edge">
<title>Node14&#45;&gt;Node4</title>
<path fill="none" stroke="midnightblue" d="M119.21,-152.36C190.49,-168.35 313.14,-195.32 419.5,-210 617.36,-237.31 851.93,-251.17 970.98,-257"/>
<polygon fill="midnightblue" stroke="midnightblue" points="970.93,-260.5 981.09,-257.49 971.27,-253.51 970.93,-260.5"/>
</g>
<!-- Node14&#45;&gt;Node7 -->
<g id="edge24" class="edge">
<title>Node14&#45;&gt;Node7</title>
<path fill="none" stroke="midnightblue" d="M119.18,-151.07C125.04,-152.17 130.89,-153.18 136.5,-154 302.64,-178.25 498.4,-190.19 607.14,-195.44"/>
<polygon fill="midnightblue" stroke="midnightblue" points="607.23,-198.95 617.39,-195.93 607.56,-191.96 607.23,-198.95"/>
</g>
<!-- Node14&#45;&gt;Node13 -->
<g id="edge25" class="edge">
<title>Node14&#45;&gt;Node13</title>
<path fill="none" stroke="midnightblue" d="M119.17,-124.03C165.42,-113.6 229.57,-99.12 278.11,-88.16"/>
<polygon fill="midnightblue" stroke="midnightblue" points="278.92,-91.57 287.9,-85.95 277.38,-84.74 278.92,-91.57"/>
</g>
<!-- Node15&#45;&gt;Node7 -->
<g id="edge27" class="edge">
<title>Node15&#45;&gt;Node7</title>
<path fill="none" stroke="midnightblue" d="M813.66,-148.01C792.42,-158.12 753.34,-175.07 724.79,-186.63"/>
<polygon fill="midnightblue" stroke="midnightblue" points="723.16,-183.51 715.17,-190.48 725.76,-190.01 723.16,-183.51"/>
</g>
<!-- Node17&#45;&gt;Node4 -->
<g id="edge30" class="edge">
<title>Node17&#45;&gt;Node4</title>
<path fill="none" stroke="midnightblue" d="M1271.38,-153.53C1229.49,-175.42 1143.31,-217.72 1091.16,-242.06"/>
<polygon fill="midnightblue" stroke="midnightblue" points="1089.44,-239 1081.84,-246.38 1092.39,-245.35 1089.44,-239"/>
</g>
<!-- Node17&#45;&gt;Node7 -->
<g id="edge31" class="edge">
<title>Node17&#45;&gt;Node7</title>
<path fill="none" stroke="midnightblue" d="M1235.55,-153.55C1234.53,-153.71 1233.51,-153.86 1232.5,-154 1071.3,-176.96 880.87,-189.58 773.99,-195.25"/>
<polygon fill="midnightblue" stroke="midnightblue" points="773.71,-191.76 763.91,-195.78 774.08,-198.75 773.71,-191.76"/>
</g>
<!-- Node17&#45;&gt;Node18 -->
<g id="edge32" class="edge">
<title>Node17&#45;&gt;Node18</title>
<path fill="none" stroke="midnightblue" d="M1319.59,-123.4C1338.46,-112.34 1364.56,-97.06 1383.22,-86.13"/>
<polygon fill="midnightblue" stroke="midnightblue" points="1385.11,-89.08 1391.97,-81.01 1381.57,-83.04 1385.11,-89.08"/>
</g>
<!-- Node18&#45;&gt;Node3 -->
<g id="edge33" class="edge">
<title>Node18&#45;&gt;Node3</title>
<path fill="none" stroke="midnightblue" d="M1420.83,-61.98C1437.16,-52.25 1464.1,-36.23 1483.41,-24.74"/>
<polygon fill="midnightblue" stroke="midnightblue" points="1485.39,-27.63 1492.2,-19.51 1481.82,-21.61 1485.39,-27.63"/>
</g>
<!-- Node18&#45;&gt;Node4 -->
<g id="edge34" class="edge">
<title>Node18&#45;&gt;Node4</title>
<path fill="none" stroke="midnightblue" d="M1410.86,-81.09C1412.52,-96.51 1406.88,-129.58 1393.5,-154 1377.33,-183.52 1371.98,-193.75 1342.5,-210 1275.8,-246.76 1188.18,-257.7 1125.93,-260.5"/>
<polygon fill="midnightblue" stroke="midnightblue" points="1125.63,-257.01 1115.77,-260.89 1125.9,-264 1125.63,-257.01"/>
</g>
<!-- Node20&#45;&gt;Node3 -->
<g id="edge46" class="edge">
<title>Node20&#45;&gt;Node3</title>
<path fill="none" stroke="midnightblue" d="M1596.12,-246.37C1579.92,-203.82 1531.59,-76.89 1513.47,-29.3"/>
<polygon fill="midnightblue" stroke="midnightblue" points="1516.73,-28.03 1509.9,-19.93 1510.19,-30.52 1516.73,-28.03"/>
</g>
</g>
</svg>
        <g id="navigator" transform="translate(0 0)" fill="#404254">
                <rect fill="#f2f5e9" fill-opacity="0.5" stroke="#606060" stroke-width=".5" x="0" y="0" width="60" height="60"/>
                <use id="zoomplus" xlink:href="#zoomPlus" x="17" y="9" onmousedown="handleZoom(evt,'in')"/>
                <use id="zoomminus" xlink:href="#zoomMin" x="42" y="9" onmousedown="handleZoom(evt,'out')"/>
                <use id="reset" xlink:href="#resetDef" x="30" y="36" onmousedown="handleReset()"/>
                <g id="arrowUp" xlink:href="#dirArrow" transform="translate(30 24)" onmousedown="handlePan(0,-1)">
                  <use xlink:href="#rim" fill="#404040">
                        <set attributeName="fill" to="#808080" begin="arrowUp.mouseover" end="arrowUp.mouseout"/>
                  </use>
                  <path fill="none" stroke="white" stroke-width="1.5" d="M0,-3.0v7 M-2.5,-0.5L0,-3.0L2.5,-0.5"/>
                </g>
                <g id="arrowRight" xlink:href="#dirArrow" transform="rotate(90) translate(36 -43)" onmousedown="handlePan(1,0)">
                  <use xlink:href="#rim" fill="#404040">
                        <set attributeName="fill" to="#808080" begin="arrowRight.mouseover" end="arrowRight.mouseout"/>
                  </use>
                  <path fill="none" stroke="white" stroke-width="1.5" d="M0,-3.0v7 M-2.5,-0.5L0,-3.0L2.5,-0.5"/>
                </g>
                <g id="arrowDown" xlink:href="#dirArrow" transform="rotate(180) translate(-30 -48)" onmousedown="handlePan(0,1)">
                  <use xlink:href="#rim" fill="#404040">
                        <set attributeName="fill" to="#808080" begin="arrowDown.mouseover" end="arrowDown.mouseout"/>
                  </use>
                  <path fill="none" stroke="white" stroke-width="1.5" d="M0,-3.0v7 M-2.5,-0.5L0,-3.0L2.5,-0.5"/>
                </g>
                <g id="arrowLeft" xlink:href="#dirArrow" transform="rotate(270) translate(-36 17)" onmousedown="handlePan(-1,0)">
                  <use xlink:href="#rim" fill="#404040">
                        <set attributeName="fill" to="#808080" begin="arrowLeft.mouseover" end="arrowLeft.mouseout"/>
                  </use>
                  <path fill="none" stroke="white" stroke-width="1.5" d="M0,-3.0v7 M-2.5,-0.5L0,-3.0L2.5,-0.5"/>
                </g>
        </g>
        <svg viewBox="0 0 15 15" width="100%" height="30px" preserveAspectRatio="xMaxYMin meet">
         <g id="arrow_out" transform="scale(0.3 0.3)">
          <a xlink:href="file__formats_8h__incl_org.svg" target="_base">
           <rect id="button" ry="5" rx="5" y="6" x="6" height="38" width="38"
                fill="#f2f5e9" fill-opacity="0.5" stroke="#606060" stroke-width="1.0"/>
           <path id="arrow"
             d="M 11.500037,31.436501 C 11.940474,20.09759 22.043105,11.32322 32.158766,21.979434 L 37.068811,17.246167 C 37.068811,17.246167 37.088388,32 37.088388,32 L 22.160133,31.978069 C 22.160133,31.978069 26.997745,27.140456 26.997745,27.140456 C 18.528582,18.264221 13.291696,25.230495 11.500037,31.436501 z"
             style="fill:#404040;"/>
          </a>
         </g>
        </svg>
</svg>
