<?xml version="1.0" encoding="UTF-8" standalone="no"?>
<!DOCTYPE svg PUBLIC "-//W3C//DTD SVG 1.1//EN"
 "http://www.w3.org/Graphics/SVG/1.1/DTD/svg11.dtd">
<!-- Generated by graphviz version 2.47.0 (0)
 -->
<!-- Title: ViennaRNA/gquad.h Pages: 1 -->
<!--zoomable 341 -->
<svg id="main" version="1.1" xmlns="http://www.w3.org/2000/svg" xmlns:xlink="http://www.w3.org/1999/xlink" xml:space="preserve" onload="init(evt)">
<style type="text/css"><![CDATA[
.edge:hover path { stroke: red; }
.edge:hover polygon { stroke: red; fill: red; }
]]></style>
<script type="text/javascript"><![CDATA[
var edges = document.getElementsByTagName('g');
if (edges && edges.length) {
  for (var i=0;i<edges.length;i++) {
    if (edges[i].id.substr(0,4)=='edge') {
      edges[i].setAttribute('class','edge');
    }
  }
}
]]></script>
        <defs>
                <circle id="rim" cx="0" cy="0" r="7"/>
                <circle id="rim2" cx="0" cy="0" r="3.5"/>
                <g id="zoomPlus">
                        <use xlink:href="#rim" fill="#404040">
                                <set attributeName="fill" to="#808080" begin="zoomplus.mouseover" end="zoomplus.mouseout"/>
                        </use>
                        <path d="M-4,0h8M0,-4v8" fill="none" stroke="white" stroke-width="1.5" pointer-events="none"/>
                </g>
                <g id="zoomMin">
                        <use xlink:href="#rim" fill="#404040">
                                <set attributeName="fill" to="#808080" begin="zoomminus.mouseover" end="zoomminus.mouseout"/>
                        </use>
                        <path d="M-4,0h8" fill="none" stroke="white" stroke-width="1.5" pointer-events="none"/>
                </g>
                <g id="dirArrow">
                        <path fill="none" stroke="white" stroke-width="1.5" d="M0,-3.0v7 M-2.5,-0.5L0,-3.0L2.5,-0.5"/>
                </g>
               <g id="resetDef">
                       <use xlink:href="#rim2" fill="#404040">
                               <set attributeName="fill" to="#808080" begin="reset.mouseover" end="reset.mouseout"/>
                       </use>
               </g>
        </defs>

<script type="text/javascript">
var viewWidth = 1512;
var viewHeight = 341;
var sectionId = 'dynsection-0';
</script>
<script xlink:href="svgpan.js"/>
<svg id="graph" class="graph">
<g id="viewport">
<title>ViennaRNA/gquad.h</title>
<!-- Node1 -->
<g id="node1" class="node">
<title>Node1</title>
<g id="a_node1"><a xlink:title="G&#45;quadruplexes.">
<polygon fill="#bfbfbf" stroke="black" points="682,-313.5 682,-332.5 788,-332.5 788,-313.5 682,-313.5"/>
<text text-anchor="middle" x="735" y="-320.5" font-family="Helvetica,sans-Serif" font-size="10.00">ViennaRNA/gquad.h</text>
</a>
</g>
</g>
<!-- Node2 -->
<g id="node2" class="node">
<title>Node2</title>
<g id="a_node2"><a xlink:href="datastructures_2basic_8h.html" target="_top" xlink:title="Various data structures and pre&#45;processor macros.">
<polygon fill="none" stroke="black" points="529,-246.5 529,-276.5 663,-276.5 663,-246.5 529,-246.5"/>
<text text-anchor="start" x="537" y="-264.5" font-family="Helvetica,sans-Serif" font-size="10.00">ViennaRNA/datastructures</text>
<text text-anchor="middle" x="596" y="-253.5" font-family="Helvetica,sans-Serif" font-size="10.00">/basic.h</text>
</a>
</g>
</g>
<!-- Node1&#45;&gt;Node2 -->
<g id="edge1" class="edge">
<title>Node1&#45;&gt;Node2</title>
<path fill="none" stroke="midnightblue" d="M715.08,-313.48C695.12,-304.93 663.75,-291.5 638.22,-280.57"/>
<polygon fill="midnightblue" stroke="midnightblue" points="639.33,-277.24 628.76,-276.52 636.58,-283.68 639.33,-277.24"/>
</g>
<!-- Node5 -->
<g id="node5" class="node">
<title>Node5</title>
<g id="a_node5"><a xlink:href="fold__compound_8h.html" target="_top" xlink:title="The Basic Fold Compound API.">
<polygon fill="none" stroke="black" points="662,-190.5 662,-209.5 808,-209.5 808,-190.5 662,-190.5"/>
<text text-anchor="middle" x="735" y="-197.5" font-family="Helvetica,sans-Serif" font-size="10.00">ViennaRNA/fold_compound.h</text>
</a>
</g>
</g>
<!-- Node1&#45;&gt;Node5 -->
<g id="edge43" class="edge">
<title>Node1&#45;&gt;Node5</title>
<path fill="none" stroke="midnightblue" d="M735,-313.3C735,-293.85 735,-246.49 735,-219.9"/>
<polygon fill="midnightblue" stroke="midnightblue" points="738.5,-219.62 735,-209.62 731.5,-219.62 738.5,-219.62"/>
</g>
<!-- Node7 -->
<g id="node7" class="node">
<title>Node7</title>
<g id="a_node7"><a xlink:href="params_2basic_8h.html" target="_top" xlink:title="Functions to deal with sets of energy parameters.">
<polygon fill="none" stroke="black" points="1329,-129 1329,-148 1467,-148 1467,-129 1329,-129"/>
<text text-anchor="middle" x="1398" y="-136" font-family="Helvetica,sans-Serif" font-size="10.00">ViennaRNA/params/basic.h</text>
</a>
</g>
</g>
<!-- Node1&#45;&gt;Node7 -->
<g id="edge44" class="edge">
<title>Node1&#45;&gt;Node7</title>
<path fill="none" stroke="midnightblue" d="M788.37,-317.88C920.98,-306.77 1261.47,-272.75 1354,-210 1372.61,-197.38 1384.87,-173.99 1391.61,-157.63"/>
<polygon fill="midnightblue" stroke="midnightblue" points="1394.96,-158.66 1395.26,-148.07 1388.42,-156.17 1394.96,-158.66"/>
</g>
<!-- Node3 -->
<g id="node3" class="node">
<title>Node3</title>
<g id="a_node3"><a xlink:href="constants_8h.html" target="_top" xlink:title="Energy parameter constants.">
<polygon fill="none" stroke="black" points="1222,-62 1222,-81 1380,-81 1380,-62 1222,-62"/>
<text text-anchor="middle" x="1301" y="-69" font-family="Helvetica,sans-Serif" font-size="10.00">ViennaRNA/params/constants.h</text>
</a>
</g>
</g>
<!-- Node2&#45;&gt;Node3 -->
<g id="edge2" class="edge">
<title>Node2&#45;&gt;Node3</title>
<path fill="none" stroke="midnightblue" d="M663.07,-259.33C817.7,-255.21 1192.81,-236.74 1282,-154 1299.11,-138.13 1302.23,-110.08 1302.18,-91.39"/>
<polygon fill="midnightblue" stroke="midnightblue" points="1305.67,-91.03 1301.83,-81.15 1298.67,-91.26 1305.67,-91.03"/>
</g>
<!-- Node2&#45;&gt;Node5 -->
<g id="edge4" class="edge">
<title>Node2&#45;&gt;Node5</title>
<path fill="none" stroke="midnightblue" d="M628.94,-246.4C652.16,-236.46 682.99,-223.26 705.42,-213.66"/>
<polygon fill="midnightblue" stroke="midnightblue" points="706.96,-216.81 714.77,-209.66 704.2,-210.38 706.96,-216.81"/>
</g>
<!-- Node6 -->
<g id="node6" class="node">
<title>Node6</title>
<g id="a_node6"><a xlink:href="model_8h.html" target="_top" xlink:title="The model details data structure and its corresponding modifiers.">
<polygon fill="none" stroke="black" points="1398,-62 1398,-81 1504,-81 1504,-62 1398,-62"/>
<text text-anchor="middle" x="1451" y="-69" font-family="Helvetica,sans-Serif" font-size="10.00">ViennaRNA/model.h</text>
</a>
</g>
</g>
<!-- Node2&#45;&gt;Node6 -->
<g id="edge34" class="edge">
<title>Node2&#45;&gt;Node6</title>
<path fill="none" stroke="midnightblue" d="M663.03,-259.14C823.15,-255.4 1224.16,-242.94 1354,-210 1411.83,-195.33 1443.79,-204.22 1476,-154 1488.81,-134.03 1475.77,-107.11 1464.24,-89.78"/>
<polygon fill="midnightblue" stroke="midnightblue" points="1466.81,-87.35 1458.16,-81.24 1461.11,-91.41 1466.81,-87.35"/>
</g>
<!-- Node2&#45;&gt;Node7 -->
<g id="edge35" class="edge">
<title>Node2&#45;&gt;Node7</title>
<path fill="none" stroke="midnightblue" d="M663.11,-261.09C816.93,-261.49 1190.2,-257.21 1306,-210 1335,-198.18 1361.22,-172.14 1378.55,-155.23"/>
<polygon fill="midnightblue" stroke="midnightblue" points="1381.09,-157.65 1385.87,-148.19 1376.24,-152.6 1381.09,-157.65"/>
</g>
<!-- Node9 -->
<g id="node9" class="node">
<title>Node9</title>
<g id="a_node9"><a xlink:href="dp__matrices_8h.html" target="_top" xlink:title="Functions to deal with standard dynamic programming (DP) matrices.">
<polygon fill="none" stroke="black" points="389.5,-129 389.5,-148 522.5,-148 522.5,-129 389.5,-129"/>
<text text-anchor="middle" x="456" y="-136" font-family="Helvetica,sans-Serif" font-size="10.00">ViennaRNA/dp_matrices.h</text>
</a>
</g>
</g>
<!-- Node2&#45;&gt;Node9 -->
<g id="edge36" class="edge">
<title>Node2&#45;&gt;Node9</title>
<path fill="none" stroke="midnightblue" d="M575.14,-246.38C545.93,-223.64 494.28,-179.05 469.54,-155.29"/>
<polygon fill="midnightblue" stroke="midnightblue" points="471.83,-152.63 462.26,-148.09 466.91,-157.61 471.83,-152.63"/>
</g>
<!-- Node10 -->
<g id="node10" class="node">
<title>Node10</title>
<g id="a_node10"><a xlink:href="hard_8h.html" target="_top" xlink:title="Functions and data structures for handling of secondary structure hard constraints.">
<polygon fill="none" stroke="black" points="673.5,-123.5 673.5,-153.5 792.5,-153.5 792.5,-123.5 673.5,-123.5"/>
<text text-anchor="start" x="681.5" y="-141.5" font-family="Helvetica,sans-Serif" font-size="10.00">ViennaRNA/constraints</text>
<text text-anchor="middle" x="733" y="-130.5" font-family="Helvetica,sans-Serif" font-size="10.00">/hard.h</text>
</a>
</g>
</g>
<!-- Node2&#45;&gt;Node10 -->
<g id="edge37" class="edge">
<title>Node2&#45;&gt;Node10</title>
<path fill="none" stroke="midnightblue" d="M605.32,-246.38C615.74,-231.26 633.71,-207.16 653,-190 666.31,-178.16 682.71,-167.28 697.18,-158.68"/>
<polygon fill="midnightblue" stroke="midnightblue" points="699,-161.67 705.9,-153.63 695.5,-155.62 699,-161.67"/>
</g>
<!-- Node12 -->
<g id="node12" class="node">
<title>Node12</title>
<g id="a_node12"><a xlink:href="soft_8h.html" target="_top" xlink:title="Functions and data structures for secondary structure soft constraints.">
<polygon fill="none" stroke="black" points="252.5,-123.5 252.5,-153.5 371.5,-153.5 371.5,-123.5 252.5,-123.5"/>
<text text-anchor="start" x="260.5" y="-141.5" font-family="Helvetica,sans-Serif" font-size="10.00">ViennaRNA/constraints</text>
<text text-anchor="middle" x="312" y="-130.5" font-family="Helvetica,sans-Serif" font-size="10.00">/soft.h</text>
</a>
</g>
</g>
<!-- Node2&#45;&gt;Node12 -->
<g id="edge38" class="edge">
<title>Node2&#45;&gt;Node12</title>
<path fill="none" stroke="midnightblue" d="M558.34,-246.38C503.91,-224.39 404.16,-181.95 349.71,-157.69"/>
<polygon fill="midnightblue" stroke="midnightblue" points="350.97,-154.42 340.41,-153.53 348.11,-160.81 350.97,-154.42"/>
</g>
<!-- Node13 -->
<g id="node13" class="node">
<title>Node13</title>
<g id="a_node13"><a xlink:href="grammar_8h.html" target="_top" xlink:title="Implementations for the RNA folding grammar.">
<polygon fill="none" stroke="black" points="1155.5,-129 1155.5,-148 1272.5,-148 1272.5,-129 1155.5,-129"/>
<text text-anchor="middle" x="1214" y="-136" font-family="Helvetica,sans-Serif" font-size="10.00">ViennaRNA/grammar.h</text>
</a>
</g>
</g>
<!-- Node2&#45;&gt;Node13 -->
<g id="edge39" class="edge">
<title>Node2&#45;&gt;Node13</title>
<path fill="none" stroke="midnightblue" d="M663.14,-247.45C766.01,-227.44 968.85,-187.92 1141,-154 1147.56,-152.71 1154.45,-151.35 1161.27,-149.99"/>
<polygon fill="midnightblue" stroke="midnightblue" points="1162.03,-153.41 1171.16,-148.03 1160.67,-146.55 1162.03,-153.41"/>
</g>
<!-- Node14 -->
<g id="node14" class="node">
<title>Node14</title>
<g id="a_node14"><a xlink:href="structured__domains_8h.html" target="_top" xlink:title="This module provides interfaces that deal with additional structured domains in the folding grammar.">
<polygon fill="none" stroke="black" points="540.5,-123.5 540.5,-153.5 655.5,-153.5 655.5,-123.5 540.5,-123.5"/>
<text text-anchor="start" x="548.5" y="-141.5" font-family="Helvetica,sans-Serif" font-size="10.00">ViennaRNA/structured</text>
<text text-anchor="middle" x="598" y="-130.5" font-family="Helvetica,sans-Serif" font-size="10.00">_domains.h</text>
</a>
</g>
</g>
<!-- Node2&#45;&gt;Node14 -->
<g id="edge40" class="edge">
<title>Node2&#45;&gt;Node14</title>
<path fill="none" stroke="midnightblue" d="M596.24,-246.14C596.57,-225.86 597.19,-188.53 597.6,-163.86"/>
<polygon fill="midnightblue" stroke="midnightblue" points="601.1,-163.89 597.76,-153.84 594.1,-163.78 601.1,-163.89"/>
</g>
<!-- Node15 -->
<g id="node15" class="node">
<title>Node15</title>
<g id="a_node15"><a xlink:href="unstructured__domains_8h.html" target="_top" xlink:title="Functions to modify unstructured domains, e.g. to incorporate ligands binding to unpaired stretches.">
<polygon fill="none" stroke="black" points="109.5,-123.5 109.5,-153.5 234.5,-153.5 234.5,-123.5 109.5,-123.5"/>
<text text-anchor="start" x="117.5" y="-141.5" font-family="Helvetica,sans-Serif" font-size="10.00">ViennaRNA/unstructured</text>
<text text-anchor="middle" x="172" y="-130.5" font-family="Helvetica,sans-Serif" font-size="10.00">_domains.h</text>
</a>
</g>
</g>
<!-- Node2&#45;&gt;Node15 -->
<g id="edge41" class="edge">
<title>Node2&#45;&gt;Node15</title>
<path fill="none" stroke="midnightblue" d="M542.01,-246.38C460.81,-224.02 308.33,-180.54 226.71,-156.5"/>
<polygon fill="midnightblue" stroke="midnightblue" points="227.22,-153 216.64,-153.53 225.24,-159.72 227.22,-153"/>
</g>
<!-- Node16 -->
<g id="node16" class="node">
<title>Node16</title>
<g id="a_node16"><a xlink:href="utils_2structures_8h.html" target="_top" xlink:title="Various utility&#45; and helper&#45;functions for secondary structure parsing, converting,...">
<polygon fill="none" stroke="black" points="0,-62 0,-81 144,-81 144,-62 0,-62"/>
<text text-anchor="middle" x="72" y="-69" font-family="Helvetica,sans-Serif" font-size="10.00">ViennaRNA/utils/structures.h</text>
</a>
</g>
</g>
<!-- Node2&#45;&gt;Node16 -->
<g id="edge42" class="edge">
<title>Node2&#45;&gt;Node16</title>
<path fill="none" stroke="midnightblue" d="M528.95,-254.79C406.73,-242.7 154.77,-210.85 91,-154 73.06,-138.01 66.61,-109.99 66.52,-91.34"/>
<polygon fill="midnightblue" stroke="midnightblue" points="70.02,-91.35 67.24,-81.13 63.04,-90.86 70.02,-91.35"/>
</g>
<!-- Node4 -->
<g id="node4" class="node">
<title>Node4</title>
<g id="a_node4"><a xlink:title=" ">
<polygon fill="none" stroke="#bfbfbf" points="1277,-0.5 1277,-19.5 1325,-19.5 1325,-0.5 1277,-0.5"/>
<text text-anchor="middle" x="1301" y="-7.5" font-family="Helvetica,sans-Serif" font-size="10.00">limits.h</text>
</a>
</g>
</g>
<!-- Node3&#45;&gt;Node4 -->
<g id="edge3" class="edge">
<title>Node3&#45;&gt;Node4</title>
<path fill="none" stroke="midnightblue" d="M1301,-61.98C1301,-53.58 1301,-40.48 1301,-29.66"/>
<polygon fill="midnightblue" stroke="midnightblue" points="1304.5,-29.51 1301,-19.51 1297.5,-29.51 1304.5,-29.51"/>
</g>
<!-- Node5&#45;&gt;Node6 -->
<g id="edge5" class="edge">
<title>Node5&#45;&gt;Node6</title>
<path fill="none" stroke="midnightblue" d="M808.2,-192.33C908.96,-182.82 1081.03,-165.27 1108,-154 1128.43,-145.46 1126.69,-131.82 1147,-123 1246.74,-79.69 1282.19,-107.4 1389,-87 1394.77,-85.9 1400.82,-84.63 1406.79,-83.31"/>
<polygon fill="midnightblue" stroke="midnightblue" points="1407.7,-86.69 1416.67,-81.06 1406.15,-79.86 1407.7,-86.69"/>
</g>
<!-- Node5&#45;&gt;Node7 -->
<g id="edge6" class="edge">
<title>Node5&#45;&gt;Node7</title>
<path fill="none" stroke="midnightblue" d="M808.25,-193.53C911.87,-185.94 1106.9,-171.21 1273,-154 1287.82,-152.46 1303.68,-150.62 1318.98,-148.76"/>
<polygon fill="midnightblue" stroke="midnightblue" points="1319.43,-152.23 1328.93,-147.55 1318.58,-145.29 1319.43,-152.23"/>
</g>
<!-- Node8 -->
<g id="node8" class="node">
<title>Node8</title>
<g id="a_node8"><a xlink:href="sequence_8h.html" target="_top" xlink:title="Functions and data structures related to sequence representations ,.">
<polygon fill="none" stroke="black" points="849,-129 849,-148 971,-148 971,-129 849,-129"/>
<text text-anchor="middle" x="910" y="-136" font-family="Helvetica,sans-Serif" font-size="10.00">ViennaRNA/sequence.h</text>
</a>
</g>
</g>
<!-- Node5&#45;&gt;Node8 -->
<g id="edge11" class="edge">
<title>Node5&#45;&gt;Node8</title>
<path fill="none" stroke="midnightblue" d="M755.17,-190.48C783.33,-180.14 834.53,-162.66 870.4,-151.1"/>
<polygon fill="midnightblue" stroke="midnightblue" points="871.62,-154.39 880.08,-148.01 869.49,-147.72 871.62,-154.39"/>
</g>
<!-- Node5&#45;&gt;Node9 -->
<g id="edge13" class="edge">
<title>Node5&#45;&gt;Node9</title>
<path fill="none" stroke="midnightblue" d="M690.13,-190.48C638.09,-179.87 553.02,-161.76 500.96,-150.22"/>
<polygon fill="midnightblue" stroke="midnightblue" points="501.52,-146.77 491,-148.01 500,-153.6 501.52,-146.77"/>
</g>
<!-- Node5&#45;&gt;Node10 -->
<g id="edge16" class="edge">
<title>Node5&#45;&gt;Node10</title>
<path fill="none" stroke="midnightblue" d="M729.81,-190.48C728.05,-183.47 727.12,-173.19 727.17,-163.7"/>
<polygon fill="midnightblue" stroke="midnightblue" points="730.67,-163.67 727.64,-153.52 723.68,-163.35 730.67,-163.67"/>
</g>
<!-- Node5&#45;&gt;Node12 -->
<g id="edge20" class="edge">
<title>Node5&#45;&gt;Node12</title>
<path fill="none" stroke="midnightblue" d="M661.68,-192.24C590.2,-184.84 478.48,-171.84 378.11,-155.18"/>
<polygon fill="midnightblue" stroke="midnightblue" points="378.57,-151.71 368.12,-153.5 377.41,-158.61 378.57,-151.71"/>
</g>
<!-- Node5&#45;&gt;Node13 -->
<g id="edge24" class="edge">
<title>Node5&#45;&gt;Node13</title>
<path fill="none" stroke="midnightblue" d="M808.23,-192.17C888.08,-184.69 1019.34,-171.4 1132,-154 1139.63,-152.82 1147.68,-151.4 1155.65,-149.92"/>
<polygon fill="midnightblue" stroke="midnightblue" points="1156.48,-153.32 1165.66,-148.02 1155.18,-146.45 1156.48,-153.32"/>
</g>
<!-- Node5&#45;&gt;Node14 -->
<g id="edge26" class="edge">
<title>Node5&#45;&gt;Node14</title>
<path fill="none" stroke="midnightblue" d="M715.37,-190.48C695.69,-181.93 664.78,-168.5 639.61,-157.57"/>
<polygon fill="midnightblue" stroke="midnightblue" points="640.85,-154.3 630.29,-153.52 638.07,-160.72 640.85,-154.3"/>
</g>
<!-- Node5&#45;&gt;Node15 -->
<g id="edge27" class="edge">
<title>Node5&#45;&gt;Node15</title>
<path fill="none" stroke="midnightblue" d="M661.9,-195.21C566.01,-189.45 392.69,-176.82 240.96,-155"/>
<polygon fill="midnightblue" stroke="midnightblue" points="241.39,-151.52 230.99,-153.55 240.38,-158.45 241.39,-151.52"/>
</g>
<!-- Node18 -->
<g id="node18" class="node">
<title>Node18</title>
<g id="a_node18"><a xlink:href="zscore_8h_source.html" target="_top" xlink:title=" ">
<polygon fill="none" stroke="black" points="989.5,-129 989.5,-148 1098.5,-148 1098.5,-129 989.5,-129"/>
<text text-anchor="middle" x="1044" y="-136" font-family="Helvetica,sans-Serif" font-size="10.00">ViennaRNA/zscore.h</text>
</a>
</g>
</g>
<!-- Node5&#45;&gt;Node18 -->
<g id="edge33" class="edge">
<title>Node5&#45;&gt;Node18</title>
<path fill="none" stroke="midnightblue" d="M784.86,-190.46C834.44,-181.83 912.64,-167.81 980,-154 985.72,-152.83 991.71,-151.54 997.64,-150.24"/>
<polygon fill="midnightblue" stroke="midnightblue" points="998.5,-153.63 1007.5,-148.04 996.98,-146.8 998.5,-153.63"/>
</g>
<!-- Node7&#45;&gt;Node2 -->
<g id="edge8" class="edge">
<title>Node7&#45;&gt;Node2</title>
<path fill="none" stroke="midnightblue" d="M1396.39,-148.19C1387.18,-163.83 1357.44,-196.37 1324,-210 1208.42,-257.12 836.35,-261.47 673.47,-261.09"/>
<polygon fill="midnightblue" stroke="midnightblue" points="673.06,-257.59 663.05,-261.06 673.04,-264.59 673.06,-257.59"/>
</g>
<!-- Node7&#45;&gt;Node3 -->
<g id="edge7" class="edge">
<title>Node7&#45;&gt;Node3</title>
<path fill="none" stroke="midnightblue" d="M1384.92,-128.73C1368.85,-117.96 1341.37,-99.55 1322.25,-86.74"/>
<polygon fill="midnightblue" stroke="midnightblue" points="1324.13,-83.79 1313.87,-81.13 1320.23,-89.6 1324.13,-83.79"/>
</g>
<!-- Node7&#45;&gt;Node5 -->
<g id="edge9" class="edge">
<title>Node7&#45;&gt;Node5</title>
<path fill="none" stroke="midnightblue" d="M1342.32,-148.04C1325.84,-150.13 1307.76,-152.26 1291,-154 1123.89,-171.31 927.5,-186.12 818.49,-193.67"/>
<polygon fill="midnightblue" stroke="midnightblue" points="817.96,-190.19 808.22,-194.37 818.44,-197.18 817.96,-190.19"/>
</g>
<!-- Node7&#45;&gt;Node6 -->
<g id="edge10" class="edge">
<title>Node7&#45;&gt;Node6</title>
<path fill="none" stroke="midnightblue" d="M1405.15,-128.73C1413.41,-118.6 1427.2,-101.69 1437.5,-89.06"/>
<polygon fill="midnightblue" stroke="midnightblue" points="1440.36,-91.09 1443.97,-81.13 1434.93,-86.67 1440.36,-91.09"/>
</g>
<!-- Node8&#45;&gt;Node5 -->
<g id="edge12" class="edge">
<title>Node8&#45;&gt;Node5</title>
<path fill="none" stroke="midnightblue" d="M889.87,-148.01C861.74,-158.34 810.54,-175.82 774.66,-187.38"/>
<polygon fill="midnightblue" stroke="midnightblue" points="773.43,-184.1 764.97,-190.48 775.56,-190.76 773.43,-184.1"/>
</g>
<!-- Node9&#45;&gt;Node2 -->
<g id="edge14" class="edge">
<title>Node9&#45;&gt;Node2</title>
<path fill="none" stroke="midnightblue" d="M469.57,-148.05C494.72,-166.8 547.55,-212 576.47,-239.04"/>
<polygon fill="midnightblue" stroke="midnightblue" points="574.29,-241.79 583.94,-246.14 579.11,-236.72 574.29,-241.79"/>
</g>
<!-- Node9&#45;&gt;Node5 -->
<g id="edge15" class="edge">
<title>Node9&#45;&gt;Node5</title>
<path fill="none" stroke="midnightblue" d="M500.8,-148.01C552.8,-158.61 637.87,-176.72 689.97,-188.26"/>
<polygon fill="midnightblue" stroke="midnightblue" points="689.41,-191.72 699.93,-190.48 690.93,-184.89 689.41,-191.72"/>
</g>
<!-- Node10&#45;&gt;Node5 -->
<g id="edge17" class="edge">
<title>Node10&#45;&gt;Node5</title>
<path fill="none" stroke="midnightblue" d="M739.3,-153.52C740.62,-161.59 741.12,-171.81 740.68,-180.53"/>
<polygon fill="midnightblue" stroke="midnightblue" points="737.2,-180.16 739.61,-190.48 744.16,-180.9 737.2,-180.16"/>
</g>
<!-- Node11 -->
<g id="node11" class="node">
<title>Node11</title>
<g id="a_node11"><a xlink:href="constraints_2basic_8h.html" target="_top" xlink:title="Functions and data structures for constraining secondary structure predictions and evaluation.">
<polygon fill="none" stroke="black" points="673.5,-56.5 673.5,-86.5 792.5,-86.5 792.5,-56.5 673.5,-56.5"/>
<text text-anchor="start" x="681.5" y="-74.5" font-family="Helvetica,sans-Serif" font-size="10.00">ViennaRNA/constraints</text>
<text text-anchor="middle" x="733" y="-63.5" font-family="Helvetica,sans-Serif" font-size="10.00">/basic.h</text>
</a>
</g>
</g>
<!-- Node10&#45;&gt;Node11 -->
<g id="edge18" class="edge">
<title>Node10&#45;&gt;Node11</title>
<path fill="none" stroke="midnightblue" d="M733,-123.4C733,-115.64 733,-105.81 733,-96.86"/>
<polygon fill="midnightblue" stroke="midnightblue" points="736.5,-96.58 733,-86.58 729.5,-96.58 736.5,-96.58"/>
</g>
<!-- Node11&#45;&gt;Node5 -->
<g id="edge19" class="edge">
<title>Node11&#45;&gt;Node5</title>
<path fill="none" stroke="midnightblue" d="M763.12,-86.56C777.38,-94.95 793.01,-107.1 801,-123 807.19,-135.31 807.44,-141.82 801,-154 793.58,-168.05 779.58,-178.53 766.38,-185.83"/>
<polygon fill="midnightblue" stroke="midnightblue" points="764.78,-182.72 757.46,-190.38 767.96,-188.96 764.78,-182.72"/>
</g>
<!-- Node12&#45;&gt;Node2 -->
<g id="edge21" class="edge">
<title>Node12&#45;&gt;Node2</title>
<path fill="none" stroke="midnightblue" d="M349.44,-153.53C403.74,-175.47 503.49,-217.9 558.07,-242.21"/>
<polygon fill="midnightblue" stroke="midnightblue" points="556.83,-245.49 567.39,-246.38 559.69,-239.1 556.83,-245.49"/>
</g>
<!-- Node12&#45;&gt;Node5 -->
<g id="edge22" class="edge">
<title>Node12&#45;&gt;Node5</title>
<path fill="none" stroke="midnightblue" d="M371.73,-150.82C377.57,-151.96 383.41,-153.05 389,-154 478.47,-169.18 581.41,-181.69 651.65,-189.63"/>
<polygon fill="midnightblue" stroke="midnightblue" points="651.45,-193.13 661.77,-190.77 652.23,-186.17 651.45,-193.13"/>
</g>
<!-- Node12&#45;&gt;Node11 -->
<g id="edge23" class="edge">
<title>Node12&#45;&gt;Node11</title>
<path fill="none" stroke="midnightblue" d="M371.66,-124.54C374.48,-124 377.27,-123.49 380,-123 477.89,-105.58 591.89,-90.14 663.25,-81.06"/>
<polygon fill="midnightblue" stroke="midnightblue" points="663.99,-84.49 673.47,-79.76 663.11,-77.55 663.99,-84.49"/>
</g>
<!-- Node13&#45;&gt;Node5 -->
<g id="edge25" class="edge">
<title>Node13&#45;&gt;Node5</title>
<path fill="none" stroke="midnightblue" d="M1183,-148.02C1172.55,-150.16 1160.85,-152.32 1150,-154 1035.68,-171.66 902.2,-185.08 818.08,-192.5"/>
<polygon fill="midnightblue" stroke="midnightblue" points="817.72,-189.02 808.06,-193.38 818.33,-195.99 817.72,-189.02"/>
</g>
<!-- Node15&#45;&gt;Node2 -->
<g id="edge28" class="edge">
<title>Node15&#45;&gt;Node2</title>
<path fill="none" stroke="midnightblue" d="M225.67,-153.53C306.84,-175.87 459.77,-219.49 541.46,-243.55"/>
<polygon fill="midnightblue" stroke="midnightblue" points="540.47,-246.91 551.06,-246.38 542.46,-240.19 540.47,-246.91"/>
</g>
<!-- Node15&#45;&gt;Node5 -->
<g id="edge29" class="edge">
<title>Node15&#45;&gt;Node5</title>
<path fill="none" stroke="midnightblue" d="M234.73,-151.13C240.57,-152.19 246.4,-153.17 252,-154 391.74,-174.59 555.28,-187.31 651.78,-193.77"/>
<polygon fill="midnightblue" stroke="midnightblue" points="651.56,-197.26 661.77,-194.43 652.03,-190.28 651.56,-197.26"/>
</g>
<!-- Node15&#45;&gt;Node16 -->
<g id="edge30" class="edge">
<title>Node15&#45;&gt;Node16</title>
<path fill="none" stroke="midnightblue" d="M150.3,-123.4C133.53,-112.5 110.43,-97.48 93.67,-86.58"/>
<polygon fill="midnightblue" stroke="midnightblue" points="95.38,-83.52 85.09,-81.01 91.56,-89.39 95.38,-83.52"/>
</g>
<!-- Node16&#45;&gt;Node2 -->
<g id="edge32" class="edge">
<title>Node16&#45;&gt;Node2</title>
<path fill="none" stroke="midnightblue" d="M77.4,-81.13C82.43,-97.84 87.33,-134.69 109,-154 169.19,-207.65 397.02,-239.04 518.6,-252.56"/>
<polygon fill="midnightblue" stroke="midnightblue" points="518.27,-256.05 528.59,-253.66 519.04,-249.09 518.27,-256.05"/>
</g>
<!-- Node17 -->
<g id="node17" class="node">
<title>Node17</title>
<g id="a_node17"><a xlink:title=" ">
<polygon fill="none" stroke="#bfbfbf" points="49,-0.5 49,-19.5 95,-19.5 95,-0.5 49,-0.5"/>
<text text-anchor="middle" x="72" y="-7.5" font-family="Helvetica,sans-Serif" font-size="10.00">stdio.h</text>
</a>
</g>
</g>
<!-- Node16&#45;&gt;Node17 -->
<g id="edge31" class="edge">
<title>Node16&#45;&gt;Node17</title>
<path fill="none" stroke="midnightblue" d="M72,-61.98C72,-53.58 72,-40.48 72,-29.66"/>
<polygon fill="midnightblue" stroke="midnightblue" points="75.5,-29.51 72,-19.51 68.5,-29.51 75.5,-29.51"/>
</g>
</g>
</svg>
        <g id="navigator" transform="translate(0 0)" fill="#404254">
                <rect fill="#f2f5e9" fill-opacity="0.5" stroke="#606060" stroke-width=".5" x="0" y="0" width="60" height="60"/>
                <use id="zoomplus" xlink:href="#zoomPlus" x="17" y="9" onmousedown="handleZoom(evt,'in')"/>
                <use id="zoomminus" xlink:href="#zoomMin" x="42" y="9" onmousedown="handleZoom(evt,'out')"/>
                <use id="reset" xlink:href="#resetDef" x="30" y="36" onmousedown="handleReset()"/>
                <g id="arrowUp" xlink:href="#dirArrow" transform="translate(30 24)" onmousedown="handlePan(0,-1)">
                  <use xlink:href="#rim" fill="#404040">
                        <set attributeName="fill" to="#808080" begin="arrowUp.mouseover" end="arrowUp.mouseout"/>
                  </use>
                  <path fill="none" stroke="white" stroke-width="1.5" d="M0,-3.0v7 M-2.5,-0.5L0,-3.0L2.5,-0.5"/>
                </g>
                <g id="arrowRight" xlink:href="#dirArrow" transform="rotate(90) translate(36 -43)" onmousedown="handlePan(1,0)">
                  <use xlink:href="#rim" fill="#404040">
                        <set attributeName="fill" to="#808080" begin="arrowRight.mouseover" end="arrowRight.mouseout"/>
                  </use>
                  <path fill="none" stroke="white" stroke-width="1.5" d="M0,-3.0v7 M-2.5,-0.5L0,-3.0L2.5,-0.5"/>
                </g>
                <g id="arrowDown" xlink:href="#dirArrow" transform="rotate(180) translate(-30 -48)" onmousedown="handlePan(0,1)">
                  <use xlink:href="#rim" fill="#404040">
                        <set attributeName="fill" to="#808080" begin="arrowDown.mouseover" end="arrowDown.mouseout"/>
                  </use>
                  <path fill="none" stroke="white" stroke-width="1.5" d="M0,-3.0v7 M-2.5,-0.5L0,-3.0L2.5,-0.5"/>
                </g>
                <g id="arrowLeft" xlink:href="#dirArrow" transform="rotate(270) translate(-36 17)" onmousedown="handlePan(-1,0)">
                  <use xlink:href="#rim" fill="#404040">
                        <set attributeName="fill" to="#808080" begin="arrowLeft.mouseover" end="arrowLeft.mouseout"/>
                  </use>
                  <path fill="none" stroke="white" stroke-width="1.5" d="M0,-3.0v7 M-2.5,-0.5L0,-3.0L2.5,-0.5"/>
                </g>
        </g>
        <svg viewBox="0 0 15 15" width="100%" height="30px" preserveAspectRatio="xMaxYMin meet">
         <g id="arrow_out" transform="scale(0.3 0.3)">
          <a xlink:href="gquad_8h__incl_org.svg" target="_base">
           <rect id="button" ry="5" rx="5" y="6" x="6" height="38" width="38"
                fill="#f2f5e9" fill-opacity="0.5" stroke="#606060" stroke-width="1.0"/>
           <path id="arrow"
             d="M 11.500037,31.436501 C 11.940474,20.09759 22.043105,11.32322 32.158766,21.979434 L 37.068811,17.246167 C 37.068811,17.246167 37.088388,32 37.088388,32 L 22.160133,31.978069 C 22.160133,31.978069 26.997745,27.140456 26.997745,27.140456 C 18.528582,18.264221 13.291696,25.230495 11.500037,31.436501 z"
             style="fill:#404040;"/>
          </a>
         </g>
        </svg>
</svg>
