<?xml version="1.0" encoding="UTF-8" standalone="no"?>
<!DOCTYPE svg PUBLIC "-//W3C//DTD SVG 1.1//EN"
 "http://www.w3.org/Graphics/SVG/1.1/DTD/svg11.dtd">
<!-- Generated by graphviz version 2.47.0 (0)
 -->
<!-- Title: ViennaRNA/grammar.h Pages: 1 -->
<svg width="1064pt" height="397pt"
 viewBox="0.00 0.00 1063.88 397.00" xmlns="http://www.w3.org/2000/svg" xmlns:xlink="http://www.w3.org/1999/xlink">
<g id="graph0" class="graph" transform="scale(1 1) rotate(0) translate(4 393)">
<title>ViennaRNA/grammar.h</title>
<!-- Node1 -->
<g id="node1" class="node">
<title>Node1</title>
<g id="a_node1"><a xlink:title="Implementations for the RNA folding grammar.">
<polygon fill="#bfbfbf" stroke="black" points="528.5,-369.5 528.5,-388.5 645.5,-388.5 645.5,-369.5 528.5,-369.5"/>
<text text-anchor="middle" x="587" y="-376.5" font-family="Helvetica,sans-Serif" font-size="10.00">ViennaRNA/grammar.h</text>
</a>
</g>
</g>
<!-- Node2 -->
<g id="node2" class="node">
<title>Node2</title>
<g id="a_node2"><a xlink:href="fold__compound_8h.html" target="_top" xlink:title="The Basic Fold Compound API.">
<polygon fill="none" stroke="black" points="514,-313.5 514,-332.5 660,-332.5 660,-313.5 514,-313.5"/>
<text text-anchor="middle" x="587" y="-320.5" font-family="Helvetica,sans-Serif" font-size="10.00">ViennaRNA/fold_compound.h</text>
</a>
</g>
</g>
<!-- Node1&#45;&gt;Node2 -->
<g id="edge1" class="edge">
<title>Node1&#45;&gt;Node2</title>
<path fill="none" stroke="midnightblue" d="M581.83,-369.08C580.32,-361.93 579.89,-351.64 580.54,-342.69"/>
<polygon fill="midnightblue" stroke="midnightblue" points="584.02,-343.13 581.87,-332.75 577.08,-342.2 584.02,-343.13"/>
</g>
<!-- Node2&#45;&gt;Node1 -->
<g id="edge38" class="edge">
<title>Node2&#45;&gt;Node1</title>
<path fill="none" stroke="midnightblue" d="M592.13,-332.75C593.66,-339.86 594.1,-350.14 593.47,-359.1"/>
<polygon fill="midnightblue" stroke="midnightblue" points="589.99,-358.71 592.17,-369.08 596.93,-359.62 589.99,-358.71"/>
</g>
<!-- Node3 -->
<g id="node3" class="node">
<title>Node3</title>
<g id="a_node3"><a xlink:href="model_8h.html" target="_top" xlink:title="The model details data structure and its corresponding modifiers.">
<polygon fill="none" stroke="black" points="0,-129 0,-148 106,-148 106,-129 0,-129"/>
<text text-anchor="middle" x="53" y="-136" font-family="Helvetica,sans-Serif" font-size="10.00">ViennaRNA/model.h</text>
</a>
</g>
</g>
<!-- Node2&#45;&gt;Node3 -->
<g id="edge2" class="edge">
<title>Node2&#45;&gt;Node3</title>
<path fill="none" stroke="midnightblue" d="M513.71,-321.65C444.81,-319.12 339.86,-309.54 255,-277 178.64,-247.72 102.74,-184.57 69.91,-155.16"/>
<polygon fill="midnightblue" stroke="midnightblue" points="71.92,-152.26 62.17,-148.13 67.22,-157.45 71.92,-152.26"/>
</g>
<!-- Node4 -->
<g id="node4" class="node">
<title>Node4</title>
<g id="a_node4"><a xlink:href="params_2basic_8h.html" target="_top" xlink:title="Functions to deal with sets of energy parameters.">
<polygon fill="none" stroke="black" points="294,-257.5 294,-276.5 432,-276.5 432,-257.5 294,-257.5"/>
<text text-anchor="middle" x="363" y="-264.5" font-family="Helvetica,sans-Serif" font-size="10.00">ViennaRNA/params/basic.h</text>
</a>
</g>
</g>
<!-- Node2&#45;&gt;Node4 -->
<g id="edge3" class="edge">
<title>Node2&#45;&gt;Node4</title>
<path fill="none" stroke="midnightblue" d="M546.42,-313.44C505.71,-304.12 443.58,-289.18 403.06,-279"/>
<polygon fill="midnightblue" stroke="midnightblue" points="403.8,-275.57 393.25,-276.52 402.08,-282.36 403.8,-275.57"/>
</g>
<!-- Node8 -->
<g id="node8" class="node">
<title>Node8</title>
<g id="a_node8"><a xlink:href="dp__matrices_8h.html" target="_top" xlink:title="Functions to deal with standard dynamic programming (DP) matrices.">
<polygon fill="none" stroke="black" points="907.5,-129 907.5,-148 1040.5,-148 1040.5,-129 907.5,-129"/>
<text text-anchor="middle" x="974" y="-136" font-family="Helvetica,sans-Serif" font-size="10.00">ViennaRNA/dp_matrices.h</text>
</a>
</g>
</g>
<!-- Node2&#45;&gt;Node8 -->
<g id="edge35" class="edge">
<title>Node2&#45;&gt;Node8</title>
<path fill="none" stroke="midnightblue" d="M660.14,-320.37C710.9,-316.35 778.62,-305.38 832,-277 887.81,-247.33 934.14,-185.78 957.94,-156.15"/>
<polygon fill="midnightblue" stroke="midnightblue" points="960.95,-158 964.59,-148.05 955.54,-153.56 960.95,-158"/>
</g>
<!-- Node9 -->
<g id="node9" class="node">
<title>Node9</title>
<g id="a_node9"><a xlink:href="hard_8h.html" target="_top" xlink:title="Functions and data structures for handling of secondary structure hard constraints.">
<polygon fill="none" stroke="black" points="633.5,-123.5 633.5,-153.5 752.5,-153.5 752.5,-123.5 633.5,-123.5"/>
<text text-anchor="start" x="641.5" y="-141.5" font-family="Helvetica,sans-Serif" font-size="10.00">ViennaRNA/constraints</text>
<text text-anchor="middle" x="693" y="-130.5" font-family="Helvetica,sans-Serif" font-size="10.00">/hard.h</text>
</a>
</g>
</g>
<!-- Node2&#45;&gt;Node9 -->
<g id="edge36" class="edge">
<title>Node2&#45;&gt;Node9</title>
<path fill="none" stroke="midnightblue" d="M660.26,-313.81C706.91,-307.09 761.16,-295.6 776,-277 807.52,-237.51 752.29,-187.38 717.56,-159.86"/>
<polygon fill="midnightblue" stroke="midnightblue" points="719.7,-157.09 709.66,-153.7 715.39,-162.61 719.7,-157.09"/>
</g>
<!-- Node11 -->
<g id="node11" class="node">
<title>Node11</title>
<g id="a_node11"><a xlink:href="soft_8h.html" target="_top" xlink:title="Functions and data structures for secondary structure soft constraints.">
<polygon fill="none" stroke="black" points="770.5,-123.5 770.5,-153.5 889.5,-153.5 889.5,-123.5 770.5,-123.5"/>
<text text-anchor="start" x="778.5" y="-141.5" font-family="Helvetica,sans-Serif" font-size="10.00">ViennaRNA/constraints</text>
<text text-anchor="middle" x="830" y="-130.5" font-family="Helvetica,sans-Serif" font-size="10.00">/soft.h</text>
</a>
</g>
</g>
<!-- Node2&#45;&gt;Node11 -->
<g id="edge37" class="edge">
<title>Node2&#45;&gt;Node11</title>
<path fill="none" stroke="midnightblue" d="M660.16,-315.7C714.91,-309.53 783.45,-297.91 803,-277 831.41,-246.61 829.67,-194.61 828.3,-164.01"/>
<polygon fill="midnightblue" stroke="midnightblue" points="831.79,-163.63 827.87,-153.79 824.8,-163.92 831.79,-163.63"/>
</g>
<!-- Node12 -->
<g id="node12" class="node">
<title>Node12</title>
<g id="a_node12"><a xlink:href="structured__domains_8h.html" target="_top" xlink:title="This module provides interfaces that deal with additional structured domains in the folding grammar.">
<polygon fill="none" stroke="black" points="500.5,-123.5 500.5,-153.5 615.5,-153.5 615.5,-123.5 500.5,-123.5"/>
<text text-anchor="start" x="508.5" y="-141.5" font-family="Helvetica,sans-Serif" font-size="10.00">ViennaRNA/structured</text>
<text text-anchor="middle" x="558" y="-130.5" font-family="Helvetica,sans-Serif" font-size="10.00">_domains.h</text>
</a>
</g>
</g>
<!-- Node2&#45;&gt;Node12 -->
<g id="edge39" class="edge">
<title>Node2&#45;&gt;Node12</title>
<path fill="none" stroke="midnightblue" d="M562.53,-313.44C546.43,-306.38 526.62,-294.63 517,-277 506.19,-257.2 531.2,-196.59 546.75,-162.83"/>
<polygon fill="midnightblue" stroke="midnightblue" points="549.97,-164.22 551.04,-153.68 543.63,-161.25 549.97,-164.22"/>
</g>
<!-- Node13 -->
<g id="node13" class="node">
<title>Node13</title>
<g id="a_node13"><a xlink:href="unstructured__domains_8h.html" target="_top" xlink:title="Functions to modify unstructured domains, e.g. to incorporate ligands binding to unpaired stretches.">
<polygon fill="none" stroke="black" points="124.5,-123.5 124.5,-153.5 249.5,-153.5 249.5,-123.5 124.5,-123.5"/>
<text text-anchor="start" x="132.5" y="-141.5" font-family="Helvetica,sans-Serif" font-size="10.00">ViennaRNA/unstructured</text>
<text text-anchor="middle" x="187" y="-130.5" font-family="Helvetica,sans-Serif" font-size="10.00">_domains.h</text>
</a>
</g>
</g>
<!-- Node2&#45;&gt;Node13 -->
<g id="edge40" class="edge">
<title>Node2&#45;&gt;Node13</title>
<path fill="none" stroke="midnightblue" d="M513.95,-318.12C434.63,-312.63 314.36,-300.51 276,-277 231.99,-250.03 202.15,-195.1 190.75,-163.44"/>
<polygon fill="midnightblue" stroke="midnightblue" points="194,-162.11 187.59,-153.67 187.33,-164.26 194,-162.11"/>
</g>
<!-- Node16 -->
<g id="node16" class="node">
<title>Node16</title>
<g id="a_node16"><a xlink:href="sequence_8h.html" target="_top" xlink:title="Functions and data structures related to sequence representations ,.">
<polygon fill="none" stroke="black" points="526,-257.5 526,-276.5 648,-276.5 648,-257.5 526,-257.5"/>
<text text-anchor="middle" x="587" y="-264.5" font-family="Helvetica,sans-Serif" font-size="10.00">ViennaRNA/sequence.h</text>
</a>
</g>
</g>
<!-- Node2&#45;&gt;Node16 -->
<g id="edge33" class="edge">
<title>Node2&#45;&gt;Node16</title>
<path fill="none" stroke="midnightblue" d="M581.83,-313.08C580.32,-305.93 579.89,-295.64 580.54,-286.69"/>
<polygon fill="midnightblue" stroke="midnightblue" points="584.02,-287.13 581.87,-276.75 577.08,-286.2 584.02,-287.13"/>
</g>
<!-- Node17 -->
<g id="node17" class="node">
<title>Node17</title>
<g id="a_node17"><a xlink:href="zscore_8h_source.html" target="_top" xlink:title=" ">
<polygon fill="none" stroke="black" points="666.5,-257.5 666.5,-276.5 775.5,-276.5 775.5,-257.5 666.5,-257.5"/>
<text text-anchor="middle" x="721" y="-264.5" font-family="Helvetica,sans-Serif" font-size="10.00">ViennaRNA/zscore.h</text>
</a>
</g>
</g>
<!-- Node2&#45;&gt;Node17 -->
<g id="edge41" class="edge">
<title>Node2&#45;&gt;Node17</title>
<path fill="none" stroke="midnightblue" d="M608.23,-313.44C630.38,-304.52 665.32,-290.44 690.44,-280.32"/>
<polygon fill="midnightblue" stroke="midnightblue" points="691.9,-283.5 699.87,-276.52 689.28,-277.01 691.9,-283.5"/>
</g>
<!-- Node4&#45;&gt;Node2 -->
<g id="edge31" class="edge">
<title>Node4&#45;&gt;Node2</title>
<path fill="none" stroke="midnightblue" d="M403.41,-276.52C444.06,-285.82 506.19,-300.76 546.77,-310.96"/>
<polygon fill="midnightblue" stroke="midnightblue" points="546.04,-314.39 556.6,-313.44 547.76,-307.6 546.04,-314.39"/>
</g>
<!-- Node4&#45;&gt;Node3 -->
<g id="edge32" class="edge">
<title>Node4&#45;&gt;Node3</title>
<path fill="none" stroke="midnightblue" d="M343.73,-257.41C311.34,-243.03 243.82,-213.38 186,-190 152.3,-176.37 113.38,-161.72 86.39,-151.73"/>
<polygon fill="midnightblue" stroke="midnightblue" points="87.26,-148.32 76.66,-148.14 84.83,-154.88 87.26,-148.32"/>
</g>
<!-- Node5 -->
<g id="node5" class="node">
<title>Node5</title>
<g id="a_node5"><a xlink:href="constants_8h.html" target="_top" xlink:title="Energy parameter constants.">
<polygon fill="none" stroke="black" points="268,-129 268,-148 426,-148 426,-129 268,-129"/>
<text text-anchor="middle" x="347" y="-136" font-family="Helvetica,sans-Serif" font-size="10.00">ViennaRNA/params/constants.h</text>
</a>
</g>
</g>
<!-- Node4&#45;&gt;Node5 -->
<g id="edge4" class="edge">
<title>Node4&#45;&gt;Node5</title>
<path fill="none" stroke="midnightblue" d="M361.9,-257.31C359.33,-236.99 352.89,-186.05 349.37,-158.28"/>
<polygon fill="midnightblue" stroke="midnightblue" points="352.83,-157.74 348.11,-148.26 345.89,-158.62 352.83,-157.74"/>
</g>
<!-- Node7 -->
<g id="node7" class="node">
<title>Node7</title>
<g id="a_node7"><a xlink:href="datastructures_2basic_8h.html" target="_top" xlink:title="Various data structures and pre&#45;processor macros.">
<polygon fill="none" stroke="black" points="375,-190.5 375,-220.5 509,-220.5 509,-190.5 375,-190.5"/>
<text text-anchor="start" x="383" y="-208.5" font-family="Helvetica,sans-Serif" font-size="10.00">ViennaRNA/datastructures</text>
<text text-anchor="middle" x="442" y="-197.5" font-family="Helvetica,sans-Serif" font-size="10.00">/basic.h</text>
</a>
</g>
</g>
<!-- Node4&#45;&gt;Node7 -->
<g id="edge6" class="edge">
<title>Node4&#45;&gt;Node7</title>
<path fill="none" stroke="midnightblue" d="M369.42,-257.48C378.36,-249.42 394.31,-237.02 409.06,-226.47"/>
<polygon fill="midnightblue" stroke="midnightblue" points="411.37,-229.13 417.55,-220.52 407.35,-223.4 411.37,-229.13"/>
</g>
<!-- Node6 -->
<g id="node6" class="node">
<title>Node6</title>
<g id="a_node6"><a xlink:title=" ">
<polygon fill="none" stroke="#bfbfbf" points="323,-62 323,-81 371,-81 371,-62 323,-62"/>
<text text-anchor="middle" x="347" y="-69" font-family="Helvetica,sans-Serif" font-size="10.00">limits.h</text>
</a>
</g>
</g>
<!-- Node5&#45;&gt;Node6 -->
<g id="edge5" class="edge">
<title>Node5&#45;&gt;Node6</title>
<path fill="none" stroke="midnightblue" d="M347,-128.73C347,-119.18 347,-103.62 347,-91.28"/>
<polygon fill="midnightblue" stroke="midnightblue" points="350.5,-91.13 347,-81.13 343.5,-91.13 350.5,-91.13"/>
</g>
<!-- Node7&#45;&gt;Node1 -->
<g id="edge22" class="edge">
<title>Node7&#45;&gt;Node1</title>
<path fill="none" stroke="midnightblue" d="M374.81,-213.29C320.8,-221.61 258.03,-239.54 285,-277 337.88,-350.44 446.62,-371.26 518.16,-376.72"/>
<polygon fill="midnightblue" stroke="midnightblue" points="518.21,-380.23 528.43,-377.42 518.69,-373.25 518.21,-380.23"/>
</g>
<!-- Node7&#45;&gt;Node2 -->
<g id="edge8" class="edge">
<title>Node7&#45;&gt;Node2</title>
<path fill="none" stroke="midnightblue" d="M447.35,-220.71C453.87,-236.36 466.26,-261.36 484,-277 501.36,-292.31 524.74,-303.09 544.83,-310.25"/>
<polygon fill="midnightblue" stroke="midnightblue" points="543.8,-313.6 554.4,-313.48 546.04,-306.97 543.8,-313.6"/>
</g>
<!-- Node7&#45;&gt;Node3 -->
<g id="edge9" class="edge">
<title>Node7&#45;&gt;Node3</title>
<path fill="none" stroke="midnightblue" d="M374.73,-195.64C308.44,-186.56 204.38,-171.33 115,-154 109.23,-152.88 103.18,-151.6 97.22,-150.28"/>
<polygon fill="midnightblue" stroke="midnightblue" points="97.86,-146.83 87.33,-148.02 96.31,-153.66 97.86,-146.83"/>
</g>
<!-- Node7&#45;&gt;Node4 -->
<g id="edge10" class="edge">
<title>Node7&#45;&gt;Node4</title>
<path fill="none" stroke="midnightblue" d="M429.21,-220.52C417.94,-229.93 401.55,-242.28 387.8,-251.74"/>
<polygon fill="midnightblue" stroke="midnightblue" points="385.59,-249.01 379.22,-257.48 389.48,-254.82 385.59,-249.01"/>
</g>
<!-- Node7&#45;&gt;Node5 -->
<g id="edge7" class="edge">
<title>Node7&#45;&gt;Node5</title>
<path fill="none" stroke="midnightblue" d="M421.39,-190.4C405.6,-179.6 383.91,-164.76 368.03,-153.89"/>
<polygon fill="midnightblue" stroke="midnightblue" points="369.66,-150.77 359.43,-148.01 365.71,-156.54 369.66,-150.77"/>
</g>
<!-- Node7&#45;&gt;Node8 -->
<g id="edge11" class="edge">
<title>Node7&#45;&gt;Node8</title>
<path fill="none" stroke="midnightblue" d="M509.12,-198.23C596.94,-190.08 755.24,-174.44 890,-154 897.92,-152.8 906.29,-151.36 914.56,-149.85"/>
<polygon fill="midnightblue" stroke="midnightblue" points="915.37,-153.26 924.56,-148 914.09,-146.38 915.37,-153.26"/>
</g>
<!-- Node7&#45;&gt;Node9 -->
<g id="edge14" class="edge">
<title>Node7&#45;&gt;Node9</title>
<path fill="none" stroke="midnightblue" d="M496.15,-190.48C535.03,-180.41 587.58,-166.8 628.61,-156.17"/>
<polygon fill="midnightblue" stroke="midnightblue" points="629.71,-159.51 638.51,-153.61 627.95,-152.73 629.71,-159.51"/>
</g>
<!-- Node7&#45;&gt;Node11 -->
<g id="edge18" class="edge">
<title>Node7&#45;&gt;Node11</title>
<path fill="none" stroke="midnightblue" d="M509.1,-193.94C572.21,-184.42 669.08,-169.56 753,-154 755.35,-153.56 757.75,-153.11 760.17,-152.64"/>
<polygon fill="midnightblue" stroke="midnightblue" points="761.11,-156.02 770.24,-150.65 759.76,-149.15 761.11,-156.02"/>
</g>
<!-- Node7&#45;&gt;Node12 -->
<g id="edge23" class="edge">
<title>Node7&#45;&gt;Node12</title>
<path fill="none" stroke="midnightblue" d="M467.17,-190.4C483.74,-181.11 505.64,-168.84 523.78,-158.67"/>
<polygon fill="midnightblue" stroke="midnightblue" points="525.87,-161.52 532.88,-153.58 522.44,-155.41 525.87,-161.52"/>
</g>
<!-- Node7&#45;&gt;Node13 -->
<g id="edge24" class="edge">
<title>Node7&#45;&gt;Node13</title>
<path fill="none" stroke="midnightblue" d="M381.31,-190.48C340.49,-180.41 286.99,-166.8 246.43,-156.17"/>
<polygon fill="midnightblue" stroke="midnightblue" points="247.24,-152.77 236.68,-153.61 245.46,-159.54 247.24,-152.77"/>
</g>
<!-- Node14 -->
<g id="node14" class="node">
<title>Node14</title>
<g id="a_node14"><a xlink:href="utils_2structures_8h.html" target="_top" xlink:title="Various utility&#45; and helper&#45;functions for secondary structure parsing, converting,...">
<polygon fill="none" stroke="black" points="391,-62 391,-81 535,-81 535,-62 391,-62"/>
<text text-anchor="middle" x="463" y="-69" font-family="Helvetica,sans-Serif" font-size="10.00">ViennaRNA/utils/structures.h</text>
</a>
</g>
</g>
<!-- Node7&#45;&gt;Node14 -->
<g id="edge30" class="edge">
<title>Node7&#45;&gt;Node14</title>
<path fill="none" stroke="midnightblue" d="M439.88,-190.37C440.7,-166.29 448.34,-117.31 455.28,-90.7"/>
<polygon fill="midnightblue" stroke="midnightblue" points="458.64,-91.68 458.08,-81.1 451.92,-89.71 458.64,-91.68"/>
</g>
<!-- Node8&#45;&gt;Node2 -->
<g id="edge13" class="edge">
<title>Node8&#45;&gt;Node2</title>
<path fill="none" stroke="midnightblue" d="M972.66,-148.05C961.63,-172.71 911.58,-244.26 850,-277 794.93,-306.28 724.6,-317.02 670.47,-320.73"/>
<polygon fill="midnightblue" stroke="midnightblue" points="669.98,-317.25 660.21,-321.36 670.41,-324.24 669.98,-317.25"/>
</g>
<!-- Node8&#45;&gt;Node7 -->
<g id="edge12" class="edge">
<title>Node8&#45;&gt;Node7</title>
<path fill="none" stroke="midnightblue" d="M941.9,-148C931.16,-150.14 919.15,-152.31 908,-154 772.03,-174.62 612.08,-190.36 519.27,-198.45"/>
<polygon fill="midnightblue" stroke="midnightblue" points="518.79,-194.98 509.13,-199.32 519.39,-201.95 518.79,-194.98"/>
</g>
<!-- Node9&#45;&gt;Node2 -->
<g id="edge15" class="edge">
<title>Node9&#45;&gt;Node2</title>
<path fill="none" stroke="midnightblue" d="M720.3,-153.7C760.88,-179.27 828.04,-234.35 794,-277 778.61,-296.27 720.9,-307.92 670.25,-314.52"/>
<polygon fill="midnightblue" stroke="midnightblue" points="669.72,-311.06 660.23,-315.78 670.59,-318.01 669.72,-311.06"/>
</g>
<!-- Node10 -->
<g id="node10" class="node">
<title>Node10</title>
<g id="a_node10"><a xlink:href="constraints_2basic_8h.html" target="_top" xlink:title="Functions and data structures for constraining secondary structure predictions and evaluation.">
<polygon fill="none" stroke="black" points="770.5,-56.5 770.5,-86.5 889.5,-86.5 889.5,-56.5 770.5,-56.5"/>
<text text-anchor="start" x="778.5" y="-74.5" font-family="Helvetica,sans-Serif" font-size="10.00">ViennaRNA/constraints</text>
<text text-anchor="middle" x="830" y="-63.5" font-family="Helvetica,sans-Serif" font-size="10.00">/basic.h</text>
</a>
</g>
</g>
<!-- Node9&#45;&gt;Node10 -->
<g id="edge16" class="edge">
<title>Node9&#45;&gt;Node10</title>
<path fill="none" stroke="midnightblue" d="M722.73,-123.4C742.74,-113.9 769.35,-101.28 791.05,-90.98"/>
<polygon fill="midnightblue" stroke="midnightblue" points="792.8,-94.03 800.33,-86.58 789.8,-87.7 792.8,-94.03"/>
</g>
<!-- Node10&#45;&gt;Node2 -->
<g id="edge17" class="edge">
<title>Node10&#45;&gt;Node2</title>
<path fill="none" stroke="midnightblue" d="M889.66,-72.69C965.51,-75.51 1082.92,-89.98 1050,-154 1007.02,-237.58 965.03,-241.52 878,-277 811.32,-304.18 729.93,-315.08 670.19,-319.38"/>
<polygon fill="midnightblue" stroke="midnightblue" points="669.79,-315.9 660.05,-320.06 670.26,-322.88 669.79,-315.9"/>
</g>
<!-- Node11&#45;&gt;Node2 -->
<g id="edge20" class="edge">
<title>Node11&#45;&gt;Node2</title>
<path fill="none" stroke="midnightblue" d="M838.04,-153.79C846.79,-181.51 852.9,-242.88 821,-277 800.91,-298.49 729.1,-310.16 670.21,-316.19"/>
<polygon fill="midnightblue" stroke="midnightblue" points="669.74,-312.72 660.13,-317.18 670.43,-319.69 669.74,-312.72"/>
</g>
<!-- Node11&#45;&gt;Node7 -->
<g id="edge19" class="edge">
<title>Node11&#45;&gt;Node7</title>
<path fill="none" stroke="midnightblue" d="M773.51,-153.53C772.67,-153.69 771.83,-153.85 771,-154 685.39,-169.87 586.31,-185.01 519.36,-194.5"/>
<polygon fill="midnightblue" stroke="midnightblue" points="518.72,-191.06 509.31,-195.92 519.7,-197.99 518.72,-191.06"/>
</g>
<!-- Node11&#45;&gt;Node10 -->
<g id="edge21" class="edge">
<title>Node11&#45;&gt;Node10</title>
<path fill="none" stroke="midnightblue" d="M830,-123.4C830,-115.64 830,-105.81 830,-96.86"/>
<polygon fill="midnightblue" stroke="midnightblue" points="833.5,-96.58 830,-86.58 826.5,-96.58 833.5,-96.58"/>
</g>
<!-- Node13&#45;&gt;Node2 -->
<g id="edge26" class="edge">
<title>Node13&#45;&gt;Node2</title>
<path fill="none" stroke="midnightblue" d="M197.51,-153.67C213.59,-182.33 245.01,-246.98 294,-277 328.59,-298.19 429.76,-310.13 503.62,-316.3"/>
<polygon fill="midnightblue" stroke="midnightblue" points="503.6,-319.81 513.85,-317.14 504.17,-312.84 503.6,-319.81"/>
</g>
<!-- Node13&#45;&gt;Node7 -->
<g id="edge25" class="edge">
<title>Node13&#45;&gt;Node7</title>
<path fill="none" stroke="midnightblue" d="M248.04,-153.61C288.94,-163.7 342.43,-177.31 382.92,-187.92"/>
<polygon fill="midnightblue" stroke="midnightblue" points="382.09,-191.32 392.65,-190.48 383.87,-184.55 382.09,-191.32"/>
</g>
<!-- Node13&#45;&gt;Node14 -->
<g id="edge27" class="edge">
<title>Node13&#45;&gt;Node14</title>
<path fill="none" stroke="midnightblue" d="M246.55,-123.48C297.63,-111.45 370.19,-94.36 416.93,-83.35"/>
<polygon fill="midnightblue" stroke="midnightblue" points="417.85,-86.73 426.79,-81.03 416.25,-79.91 417.85,-86.73"/>
</g>
<!-- Node14&#45;&gt;Node7 -->
<g id="edge29" class="edge">
<title>Node14&#45;&gt;Node7</title>
<path fill="none" stroke="midnightblue" d="M465.18,-81.1C465.57,-100.91 458.3,-150.38 451.21,-180.32"/>
<polygon fill="midnightblue" stroke="midnightblue" points="447.72,-179.82 448.62,-190.37 454.5,-181.56 447.72,-179.82"/>
</g>
<!-- Node15 -->
<g id="node15" class="node">
<title>Node15</title>
<g id="a_node15"><a xlink:title=" ">
<polygon fill="none" stroke="#bfbfbf" points="440,-0.5 440,-19.5 486,-19.5 486,-0.5 440,-0.5"/>
<text text-anchor="middle" x="463" y="-7.5" font-family="Helvetica,sans-Serif" font-size="10.00">stdio.h</text>
</a>
</g>
</g>
<!-- Node14&#45;&gt;Node15 -->
<g id="edge28" class="edge">
<title>Node14&#45;&gt;Node15</title>
<path fill="none" stroke="midnightblue" d="M463,-61.98C463,-53.58 463,-40.48 463,-29.66"/>
<polygon fill="midnightblue" stroke="midnightblue" points="466.5,-29.51 463,-19.51 459.5,-29.51 466.5,-29.51"/>
</g>
<!-- Node16&#45;&gt;Node2 -->
<g id="edge34" class="edge">
<title>Node16&#45;&gt;Node2</title>
<path fill="none" stroke="midnightblue" d="M592.13,-276.75C593.66,-283.86 594.1,-294.14 593.47,-303.1"/>
<polygon fill="midnightblue" stroke="midnightblue" points="589.99,-302.71 592.17,-313.08 596.93,-303.62 589.99,-302.71"/>
</g>
</g>
</svg>
