<?xml version="1.0" encoding="UTF-8" standalone="no"?>
<!DOCTYPE svg PUBLIC "-//W3C//DTD SVG 1.1//EN"
 "http://www.w3.org/Graphics/SVG/1.1/DTD/svg11.dtd">
<!-- Generated by graphviz version 2.47.0 (0)
 -->
<!-- Title: Multiple Sequence Alignment Utilities Pages: 1 -->
<svg width="444pt" height="49pt"
 viewBox="0.00 0.00 444.00 49.00" xmlns="http://www.w3.org/2000/svg" xmlns:xlink="http://www.w3.org/1999/xlink">
<g id="graph0" class="graph" transform="scale(1 1) rotate(0) translate(4 45)">
<title>Multiple Sequence Alignment Utilities</title>
<!-- Node2 -->
<g id="node1" class="node">
<title>Node2</title>
<g id="a_node1"><a xlink:href="group__utils.html" target="_top" xlink:title=" ">
<polygon fill="none" stroke="black" points="50,-30 0,-30 0,-11 50,-11 50,-30"/>
<text text-anchor="middle" x="25" y="-18" font-family="Helvetica,sans-Serif" font-size="10.00">Utilities</text>
</a>
</g>
</g>
<!-- Node1 -->
<g id="node2" class="node">
<title>Node1</title>
<g id="a_node2"><a xlink:title="Functions to extract features from and to manipulate multiple sequence alignments.">
<polygon fill="#bfbfbf" stroke="black" points="285,-35.5 142,-35.5 142,-5.5 285,-5.5 285,-35.5"/>
<text text-anchor="start" x="150" y="-23.5" font-family="Helvetica,sans-Serif" font-size="10.00">Multiple Sequence Alignment</text>
<text text-anchor="middle" x="213.5" y="-12.5" font-family="Helvetica,sans-Serif" font-size="10.00"> Utilities</text>
</a>
</g>
</g>
<!-- Node2&#45;&gt;Node1 -->
<g id="edge1" class="edge">
<title>Node2&#45;&gt;Node1</title>
<path fill="none" stroke="black" d="M60.58,-20.5C83.37,-20.5 114.05,-20.5 141.86,-20.5"/>
<polygon fill="black" stroke="black" points="60.38,-17 50.38,-20.5 60.38,-24 60.38,-17"/>
</g>
<!-- Node1&#45;&gt;Node2 -->
<g id="edge3" class="edge">
<title>Node1&#45;&gt;Node2</title>
<path fill="none" stroke="darkgreen" stroke-dasharray="5,2" d="M141.71,-6.39C118.17,-3.62 91.88,-2.62 68,-6.5 62.08,-7.46 55.87,-9.14 50.1,-11"/>
<text text-anchor="middle" x="96" y="-9.5" font-family="Helvetica,sans-Serif" font-size="10.00">alignments.h</text>
</g>
<!-- Node3 -->
<g id="node3" class="node">
<title>Node3</title>
<g id="a_node3"><a xlink:href="group__aln__utils__deprecated.html" target="_top" xlink:title=" ">
<polygon fill="none" stroke="black" points="436,-41 322,-41 322,0 436,0 436,-41"/>
<text text-anchor="start" x="330" y="-29" font-family="Helvetica,sans-Serif" font-size="10.00">Deprecated Interface</text>
<text text-anchor="start" x="330" y="-18" font-family="Helvetica,sans-Serif" font-size="10.00"> for Multiple Sequence</text>
<text text-anchor="middle" x="379" y="-7" font-family="Helvetica,sans-Serif" font-size="10.00"> Alignment Utilities</text>
</a>
</g>
</g>
<!-- Node1&#45;&gt;Node3 -->
<g id="edge2" class="edge">
<title>Node1&#45;&gt;Node3</title>
<path fill="none" stroke="black" d="M295.37,-20.5C304.34,-20.5 313.33,-20.5 321.91,-20.5"/>
<polygon fill="black" stroke="black" points="295.26,-17 285.26,-20.5 295.26,-24 295.26,-17"/>
</g>
</g>
</svg>
