<?xml version="1.0" encoding="UTF-8" standalone="no"?>
<!DOCTYPE svg PUBLIC "-//W3C//DTD SVG 1.1//EN"
 "http://www.w3.org/Graphics/SVG/1.1/DTD/svg11.dtd">
<!-- Generated by graphviz version 2.47.0 (0)
 -->
<!-- Title: Search Algorithms Pages: 1 -->
<svg width="251pt" height="29pt"
 viewBox="0.00 0.00 251.00 28.50" xmlns="http://www.w3.org/2000/svg" xmlns:xlink="http://www.w3.org/1999/xlink">
<g id="graph0" class="graph" transform="scale(1 1) rotate(0) translate(4 24.5)">
<title>Search Algorithms</title>
<!-- Node1 -->
<g id="node1" class="node">
<title>Node1</title>
<g id="a_node1"><a xlink:title="Implementations of various search algorithms to detect strings of objects within other strings of obj...">
<polygon fill="#bfbfbf" stroke="black" points="96,-19 0,-19 0,0 96,0 96,-19"/>
<text text-anchor="middle" x="48" y="-7" font-family="Helvetica,sans-Serif" font-size="10.00">Search Algorithms</text>
</a>
</g>
</g>
<!-- Node2 -->
<g id="node2" class="node">
<title>Node2</title>
<g id="a_node2"><a xlink:href="group__utils.html" target="_top" xlink:title=" ">
<polygon fill="none" stroke="black" points="243,-19 193,-19 193,0 243,0 243,-19"/>
<text text-anchor="middle" x="218" y="-7" font-family="Helvetica,sans-Serif" font-size="10.00">Utilities</text>
</a>
</g>
</g>
<!-- Node1&#45;&gt;Node2 -->
<g id="edge2" class="edge">
<title>Node1&#45;&gt;Node2</title>
<path fill="none" stroke="darkgreen" stroke-dasharray="5,2" d="M96.24,-9.5C127.69,-9.5 167.69,-9.5 192.83,-9.5"/>
<text text-anchor="middle" x="144.5" y="-12.5" font-family="Helvetica,sans-Serif" font-size="10.00">BoyerMoore.h</text>
</g>
<!-- Node2&#45;&gt;Node1 -->
<g id="edge1" class="edge">
<title>Node2&#45;&gt;Node1</title>
<path fill="none" stroke="black" d="M182.37,-7.72C179.88,-7.63 177.4,-7.56 175,-7.5 148.97,-6.88 119.92,-7.27 96.27,-7.86"/>
<polygon fill="black" stroke="black" points="182.44,-11.23 192.58,-8.14 182.73,-4.23 182.44,-11.23"/>
</g>
</g>
</svg>
