<?xml version="1.0" encoding="UTF-8" standalone="no"?>
<!DOCTYPE svg PUBLIC "-//W3C//DTD SVG 1.1//EN"
 "http://www.w3.org/Graphics/SVG/1.1/DTD/svg11.dtd">
<!-- Generated by graphviz version 2.47.0 (0)
 -->
<!-- Title: The RNA Secondary Structure Landscape Pages: 1 -->
<svg width="342pt" height="108pt"
 viewBox="0.00 0.00 342.00 108.00" xmlns="http://www.w3.org/2000/svg" xmlns:xlink="http://www.w3.org/1999/xlink">
<g id="graph0" class="graph" transform="scale(1 1) rotate(0) translate(4 104)">
<title>The RNA Secondary Structure Landscape</title>
<!-- Node2 -->
<g id="node1" class="node">
<title>Node2</title>
<g id="a_node1"><a xlink:href="group__neighbors.html" target="_top" xlink:title="Different functions to generate structural neighbors of a secondary structure according to a particul...">
<polygon fill="none" stroke="black" points="334,-100 185,-100 185,-59 334,-59 334,-100"/>
<text text-anchor="start" x="193" y="-88" font-family="Helvetica,sans-Serif" font-size="10.00">Neighborhood Relation</text>
<text text-anchor="start" x="193" y="-77" font-family="Helvetica,sans-Serif" font-size="10.00"> and Move Sets for Secondary</text>
<text text-anchor="middle" x="259.5" y="-66" font-family="Helvetica,sans-Serif" font-size="10.00"> Structures</text>
</a>
</g>
</g>
<!-- Node3 -->
<g id="node2" class="node">
<title>Node3</title>
<g id="a_node2"><a xlink:href="group__paths.html" target="_top" xlink:title="API for various RNA folding path algorithms.">
<polygon fill="none" stroke="black" points="327.5,-41 191.5,-41 191.5,0 327.5,0 327.5,-41"/>
<text text-anchor="start" x="199.5" y="-29" font-family="Helvetica,sans-Serif" font-size="10.00">(Re&#45;)folding Paths,</text>
<text text-anchor="start" x="199.5" y="-18" font-family="Helvetica,sans-Serif" font-size="10.00"> Saddle Points, Energy</text>
<text text-anchor="middle" x="259.5" y="-7" font-family="Helvetica,sans-Serif" font-size="10.00"> Barriers, and Local Minima</text>
</a>
</g>
</g>
<!-- Node1 -->
<g id="node3" class="node">
<title>Node1</title>
<g id="a_node3"><a xlink:title=" ">
<polygon fill="#bfbfbf" stroke="black" points="149,-64.5 0,-64.5 0,-34.5 149,-34.5 149,-64.5"/>
<text text-anchor="start" x="8" y="-52.5" font-family="Helvetica,sans-Serif" font-size="10.00">The RNA Secondary Structure</text>
<text text-anchor="middle" x="74.5" y="-41.5" font-family="Helvetica,sans-Serif" font-size="10.00"> Landscape</text>
</a>
</g>
</g>
<!-- Node1&#45;&gt;Node2 -->
<g id="edge1" class="edge">
<title>Node1&#45;&gt;Node2</title>
<path fill="none" stroke="black" d="M159.11,-63.21C167.65,-64.61 176.28,-66.02 184.71,-67.4"/>
<polygon fill="black" stroke="black" points="159.58,-59.74 149.14,-61.57 158.44,-66.64 159.58,-59.74"/>
</g>
<!-- Node1&#45;&gt;Node3 -->
<g id="edge2" class="edge">
<title>Node1&#45;&gt;Node3</title>
<path fill="none" stroke="black" d="M159.33,-36.22C170.01,-34.52 180.84,-32.81 191.22,-31.16"/>
<polygon fill="black" stroke="black" points="158.47,-32.81 149.14,-37.83 159.57,-39.72 158.47,-32.81"/>
</g>
</g>
</svg>
