<?xml version="1.0" encoding="UTF-8" standalone="no"?>
<!DOCTYPE svg PUBLIC "-//W3C//DTD SVG 1.1//EN"
 "http://www.w3.org/Graphics/SVG/1.1/DTD/svg11.dtd">
<!-- Generated by graphviz version 2.47.0 (0)
 -->
<!-- Title: Command Files Pages: 1 -->
<svg width="260pt" height="75pt"
 viewBox="0.00 0.00 260.00 75.00" xmlns="http://www.w3.org/2000/svg" xmlns:xlink="http://www.w3.org/1999/xlink">
<g id="graph0" class="graph" transform="scale(1 1) rotate(0) translate(4 71)">
<title>Command Files</title>
<!-- Node1 -->
<g id="node1" class="node">
<title>Node1</title>
<g id="a_node1"><a xlink:title="Functions to parse and interpret the content of Command Files.">
<polygon fill="#bfbfbf" stroke="black" points="86,-45 0,-45 0,-26 86,-26 86,-45"/>
<text text-anchor="middle" x="43" y="-33" font-family="Helvetica,sans-Serif" font-size="10.00">Command Files</text>
</a>
</g>
</g>
<!-- Node2 -->
<g id="node2" class="node">
<title>Node2</title>
<g id="a_node2"><a xlink:href="group__file__utils.html" target="_top" xlink:title="Functions to parse, write, and convert various file formats and to deal with file system related issu...">
<polygon fill="none" stroke="black" points="252,-67 179,-67 179,-48 252,-48 252,-67"/>
<text text-anchor="middle" x="215.5" y="-55" font-family="Helvetica,sans-Serif" font-size="10.00">Files and I/O</text>
</a>
</g>
</g>
<!-- Node1&#45;&gt;Node2 -->
<g id="edge3" class="edge">
<title>Node1&#45;&gt;Node2</title>
<path fill="none" stroke="darkgreen" stroke-dasharray="5,2" d="M86.22,-43.69C92.17,-44.71 98.23,-45.69 104,-46.5 128.82,-50 156.92,-52.79 178.58,-54.68"/>
<text text-anchor="middle" x="132.5" y="-55.5" font-family="Helvetica,sans-Serif" font-size="10.00">commands.h</text>
</g>
<!-- Node3 -->
<g id="node3" class="node">
<title>Node3</title>
<g id="a_node3"><a xlink:href="group__utils.html" target="_top" xlink:title=" ">
<polygon fill="none" stroke="black" points="240.5,-19 190.5,-19 190.5,0 240.5,0 240.5,-19"/>
<text text-anchor="middle" x="215.5" y="-7" font-family="Helvetica,sans-Serif" font-size="10.00">Utilities</text>
</a>
</g>
</g>
<!-- Node1&#45;&gt;Node3 -->
<g id="edge2" class="edge">
<title>Node1&#45;&gt;Node3</title>
<path fill="none" stroke="darkgreen" stroke-dasharray="5,2" d="M86.15,-29.07C118.89,-24.08 163.14,-17.33 190.2,-13.21"/>
<text text-anchor="middle" x="132.5" y="-28.5" font-family="Helvetica,sans-Serif" font-size="10.00">commands.h</text>
</g>
<!-- Node2&#45;&gt;Node1 -->
<g id="edge1" class="edge">
<title>Node2&#45;&gt;Node1</title>
<path fill="none" stroke="black" d="M168.73,-50.57C166.11,-50.2 163.52,-49.84 161,-49.5 136.16,-46.16 108.31,-42.81 86.01,-40.22"/>
<polygon fill="black" stroke="black" points="168.44,-54.06 178.84,-52.02 169.44,-47.13 168.44,-54.06"/>
</g>
</g>
</svg>
