<?xml version="1.0" encoding="UTF-8" standalone="no"?>
<!DOCTYPE svg PUBLIC "-//W3C//DTD SVG 1.1//EN"
 "http://www.w3.org/Graphics/SVG/1.1/DTD/svg11.dtd">
<!-- Generated by graphviz version 2.47.0 (0)
 -->
<!-- Title: Plotting Pages: 1 -->
<svg width="246pt" height="191pt"
 viewBox="0.00 0.00 246.00 191.00" xmlns="http://www.w3.org/2000/svg" xmlns:xlink="http://www.w3.org/1999/xlink">
<g id="graph0" class="graph" transform="scale(1 1) rotate(0) translate(4 187)">
<title>Plotting</title>
<!-- Node3 -->
<g id="node1" class="node">
<title>Node3</title>
<g id="a_node1"><a xlink:href="group__plot__layout__utils.html" target="_top" xlink:title="Functions to compute coordinate layouts for secondary structure plots.">
<polygon fill="none" stroke="black" points="238,-183 113,-183 113,-164 238,-164 238,-183"/>
<text text-anchor="middle" x="175.5" y="-171" font-family="Helvetica,sans-Serif" font-size="10.00">Layouts and Coordinates</text>
</a>
</g>
</g>
<!-- Node6 -->
<g id="node2" class="node">
<title>Node6</title>
<g id="a_node2"><a xlink:href="group__plotting__utils__deprecated.html" target="_top" xlink:title=" ">
<polygon fill="none" stroke="black" points="229.5,-145.5 121.5,-145.5 121.5,-115.5 229.5,-115.5 229.5,-145.5"/>
<text text-anchor="start" x="129.5" y="-133.5" font-family="Helvetica,sans-Serif" font-size="10.00">Deprecated Interface</text>
<text text-anchor="middle" x="175.5" y="-122.5" font-family="Helvetica,sans-Serif" font-size="10.00"> for Plotting Utilities</text>
</a>
</g>
</g>
<!-- Node1 -->
<g id="node3" class="node">
<title>Node1</title>
<g id="a_node3"><a xlink:title="Functions for Creating Secondary Structure Plots, Dot&#45;Plots, and More.">
<polygon fill="#bfbfbf" stroke="black" points="50,-97 0,-97 0,-78 50,-78 50,-97"/>
<text text-anchor="middle" x="25" y="-85" font-family="Helvetica,sans-Serif" font-size="10.00">Plotting</text>
</a>
</g>
</g>
<!-- Node1&#45;&gt;Node3 -->
<g id="edge2" class="edge">
<title>Node1&#45;&gt;Node3</title>
<path fill="none" stroke="black" d="M43.69,-104.22C60.41,-119.22 86.76,-140.91 113,-154.5 120.14,-158.2 128.13,-161.32 135.93,-163.9"/>
<polygon fill="black" stroke="black" points="45.62,-101.23 35.88,-97.06 40.89,-106.39 45.62,-101.23"/>
</g>
<!-- Node1&#45;&gt;Node6 -->
<g id="edge5" class="edge">
<title>Node1&#45;&gt;Node6</title>
<path fill="none" stroke="black" d="M60.02,-99.02C62.72,-99.88 65.4,-100.71 68,-101.5 85.24,-106.72 104.18,-112.01 121.24,-116.63"/>
<polygon fill="black" stroke="black" points="60.95,-95.64 50.36,-95.87 58.78,-102.3 60.95,-95.64"/>
</g>
<!-- Node2 -->
<g id="node4" class="node">
<title>Node2</title>
<g id="a_node4"><a xlink:href="group__utils.html" target="_top" xlink:title=" ">
<polygon fill="none" stroke="black" points="200.5,-95 150.5,-95 150.5,-76 200.5,-76 200.5,-95"/>
<text text-anchor="middle" x="175.5" y="-83" font-family="Helvetica,sans-Serif" font-size="10.00">Utilities</text>
</a>
</g>
</g>
<!-- Node1&#45;&gt;Node2 -->
<g id="edge6" class="edge">
<title>Node1&#45;&gt;Node2</title>
<path fill="none" stroke="darkgreen" stroke-dasharray="5,2" d="M50.19,-87.17C77.8,-86.8 122.71,-86.2 150.32,-85.83"/>
<text text-anchor="middle" x="81.5" y="-89.5" font-family="Helvetica,sans-Serif" font-size="10.00">utils.h</text>
</g>
<!-- Node5 -->
<g id="node5" class="node">
<title>Node5</title>
<g id="a_node5"><a xlink:href="group__alignment__plots.html" target="_top" xlink:title="Functions to generate Alignment plots with annotated consensus structure.">
<polygon fill="none" stroke="black" points="218.5,-56 132.5,-56 132.5,-37 218.5,-37 218.5,-56"/>
<text text-anchor="middle" x="175.5" y="-44" font-family="Helvetica,sans-Serif" font-size="10.00">Alignment Plots</text>
</a>
</g>
</g>
<!-- Node1&#45;&gt;Node5 -->
<g id="edge4" class="edge">
<title>Node1&#45;&gt;Node5</title>
<path fill="none" stroke="black" d="M59.93,-78.13C83.92,-71.51 115.96,-62.66 140.06,-56.01"/>
<polygon fill="black" stroke="black" points="58.9,-74.79 50.19,-80.82 60.76,-81.53 58.9,-74.79"/>
</g>
<!-- Node4 -->
<g id="node6" class="node">
<title>Node4</title>
<g id="a_node6"><a xlink:href="group__annotation__utils.html" target="_top" xlink:title="Functions to generate annotations for Secondary Structure Plots, Dot&#45;Plots, and Others.">
<polygon fill="none" stroke="black" points="207,-19 144,-19 144,0 207,0 207,-19"/>
<text text-anchor="middle" x="175.5" y="-7" font-family="Helvetica,sans-Serif" font-size="10.00">Annotation</text>
</a>
</g>
</g>
<!-- Node1&#45;&gt;Node4 -->
<g id="edge3" class="edge">
<title>Node1&#45;&gt;Node4</title>
<path fill="none" stroke="black" d="M45.37,-71.44C62.3,-58.07 88.03,-39.39 113,-27.5 122.64,-22.91 133.7,-19.23 143.76,-16.43"/>
<polygon fill="black" stroke="black" points="42.96,-68.88 37.36,-77.87 47.35,-74.33 42.96,-68.88"/>
</g>
<!-- Node2&#45;&gt;Node1 -->
<g id="edge1" class="edge">
<title>Node2&#45;&gt;Node1</title>
<path fill="none" stroke="black" d="M140.1,-85.09C119.24,-84.94 92.08,-84.93 68,-85.5 62.31,-85.64 56.19,-85.87 50.42,-86.14"/>
<polygon fill="black" stroke="black" points="140.36,-88.59 150.39,-85.17 140.42,-81.59 140.36,-88.59"/>
</g>
</g>
</svg>
