<?xml version="1.0" encoding="UTF-8" standalone="no"?>
<!DOCTYPE svg PUBLIC "-//W3C//DTD SVG 1.1//EN"
 "http://www.w3.org/Graphics/SVG/1.1/DTD/svg11.dtd">
<!-- Generated by graphviz version 2.47.0 (0)
 -->
<!-- Title: Random Structure Samples from the Ensemble Pages: 1 -->
<svg width="515pt" height="98pt"
 viewBox="0.00 0.00 515.00 97.50" xmlns="http://www.w3.org/2000/svg" xmlns:xlink="http://www.w3.org/1999/xlink">
<g id="graph0" class="graph" transform="scale(1 1) rotate(0) translate(4 93.5)">
<title>Random Structure Samples from the Ensemble</title>
<!-- Node3 -->
<g id="node1" class="node">
<title>Node3</title>
<g id="a_node1"><a xlink:href="group__kl__neighborhood__stochbt.html" target="_top" xlink:title="Contains functions related to stochastic backtracking from a specified distance class.">
<polygon fill="none" stroke="black" points="507,-89.5 367,-89.5 367,-48.5 507,-48.5 507,-89.5"/>
<text text-anchor="start" x="375" y="-77.5" font-family="Helvetica,sans-Serif" font-size="10.00">Stochastic Backtracking</text>
<text text-anchor="start" x="375" y="-66.5" font-family="Helvetica,sans-Serif" font-size="10.00"> of Structures from Distance</text>
<text text-anchor="middle" x="437" y="-55.5" font-family="Helvetica,sans-Serif" font-size="10.00"> Based Partitioning</text>
</a>
</g>
</g>
<!-- Node1 -->
<g id="node2" class="node">
<title>Node1</title>
<g id="a_node2"><a xlink:title="Functions to draw random structure samples from the ensemble according to their equilibrium probabili...">
<polygon fill="#bfbfbf" stroke="black" points="331,-57 194,-57 194,-27 331,-27 331,-57"/>
<text text-anchor="start" x="202" y="-45" font-family="Helvetica,sans-Serif" font-size="10.00">Random Structure Samples</text>
<text text-anchor="middle" x="262.5" y="-34" font-family="Helvetica,sans-Serif" font-size="10.00"> from the Ensemble</text>
</a>
</g>
</g>
<!-- Node1&#45;&gt;Node3 -->
<g id="edge2" class="edge">
<title>Node1&#45;&gt;Node3</title>
<path fill="none" stroke="black" d="M341.15,-54.15C349.7,-55.49 358.37,-56.85 366.81,-58.17"/>
<polygon fill="black" stroke="black" points="341.6,-50.68 331.18,-52.59 340.52,-57.6 341.6,-50.68"/>
</g>
<!-- Node4 -->
<g id="node4" class="node">
<title>Node4</title>
<g id="a_node4"><a xlink:href="group__subopt__stochbt__deprecated.html" target="_top" xlink:title=" ">
<polygon fill="none" stroke="black" points="507,-30 367,-30 367,0 507,0 507,-30"/>
<text text-anchor="start" x="375" y="-18" font-family="Helvetica,sans-Serif" font-size="10.00">Deprecated Interface</text>
<text text-anchor="middle" x="437" y="-7" font-family="Helvetica,sans-Serif" font-size="10.00"> for Stochastic Backtracking</text>
</a>
</g>
</g>
<!-- Node1&#45;&gt;Node4 -->
<g id="edge3" class="edge">
<title>Node1&#45;&gt;Node4</title>
<path fill="none" stroke="black" d="M341.15,-29.85C349.7,-28.51 358.37,-27.15 366.81,-25.83"/>
<polygon fill="black" stroke="black" points="340.52,-26.4 331.18,-31.41 341.6,-33.32 340.52,-26.4"/>
</g>
<!-- Node2 -->
<g id="node3" class="node">
<title>Node2</title>
<g id="a_node3"><a xlink:href="group__subopt__and__representatives.html" target="_top" xlink:title="Sample and enumerate suboptimal secondary structures from RNA sequence data.">
<polygon fill="none" stroke="black" points="158,-57 0,-57 0,-27 158,-27 158,-57"/>
<text text-anchor="start" x="8" y="-45" font-family="Helvetica,sans-Serif" font-size="10.00">Suboptimals and Representative</text>
<text text-anchor="middle" x="79" y="-34" font-family="Helvetica,sans-Serif" font-size="10.00"> Structures</text>
</a>
</g>
</g>
<!-- Node2&#45;&gt;Node1 -->
<g id="edge1" class="edge">
<title>Node2&#45;&gt;Node1</title>
<path fill="none" stroke="black" d="M168.13,-42C176.77,-42 185.43,-42 193.82,-42"/>
<polygon fill="black" stroke="black" points="168.03,-38.5 158.03,-42 168.03,-45.5 168.03,-38.5"/>
</g>
</g>
</svg>
