<?xml version="1.0" encoding="UTF-8" standalone="no"?>
<!DOCTYPE svg PUBLIC "-//W3C//DTD SVG 1.1//EN"
 "http://www.w3.org/Graphics/SVG/1.1/DTD/svg11.dtd">
<!-- Generated by graphviz version 2.47.0 (0)
 -->
<!-- Title: (Nucleic Acid Sequence) String Utilitites Pages: 1 -->
<svg width="256pt" height="38pt"
 viewBox="0.00 0.00 256.00 38.00" xmlns="http://www.w3.org/2000/svg" xmlns:xlink="http://www.w3.org/1999/xlink">
<g id="graph0" class="graph" transform="scale(1 1) rotate(0) translate(4 34)">
<title>(Nucleic Acid Sequence) String Utilitites</title>
<!-- Node1 -->
<g id="node1" class="node">
<title>Node1</title>
<g id="a_node1"><a xlink:title="Functions to parse, convert, manipulate, create, and compare (nucleic acid sequence) strings.">
<polygon fill="#bfbfbf" stroke="black" points="124,-30 0,-30 0,0 124,0 124,-30"/>
<text text-anchor="start" x="8" y="-18" font-family="Helvetica,sans-Serif" font-size="10.00">(Nucleic Acid Sequence)</text>
<text text-anchor="middle" x="62" y="-7" font-family="Helvetica,sans-Serif" font-size="10.00"> String Utilitites</text>
</a>
</g>
</g>
<!-- Node2 -->
<g id="node2" class="node">
<title>Node2</title>
<g id="a_node2"><a xlink:href="group__utils.html" target="_top" xlink:title=" ">
<polygon fill="none" stroke="black" points="248,-24.5 198,-24.5 198,-5.5 248,-5.5 248,-24.5"/>
<text text-anchor="middle" x="223" y="-12.5" font-family="Helvetica,sans-Serif" font-size="10.00">Utilities</text>
</a>
</g>
</g>
<!-- Node1&#45;&gt;Node2 -->
<g id="edge2" class="edge">
<title>Node1&#45;&gt;Node2</title>
<path fill="none" stroke="darkgreen" stroke-dasharray="5,2" d="M124.02,-15C149.77,-15 178.25,-15 197.84,-15"/>
<text text-anchor="middle" x="161" y="-18" font-family="Helvetica,sans-Serif" font-size="10.00">strings.h</text>
</g>
<!-- Node2&#45;&gt;Node1 -->
<g id="edge1" class="edge">
<title>Node2&#45;&gt;Node1</title>
<path fill="none" stroke="black" d="M187.37,-13.22C184.88,-13.13 182.4,-13.06 180,-13 161.82,-12.57 142.05,-12.68 124.03,-13.01"/>
<polygon fill="black" stroke="black" points="187.44,-16.73 197.58,-13.64 187.73,-9.73 187.44,-16.73"/>
</g>
</g>
</svg>
