<?xml version="1.0" encoding="UTF-8" standalone="no"?>
<!DOCTYPE svg PUBLIC "-//W3C//DTD SVG 1.1//EN"
 "http://www.w3.org/Graphics/SVG/1.1/DTD/svg11.dtd">
<!-- Generated by graphviz version 2.47.0 (0)
 -->
<!-- Title: Global Partition Function and Equilibrium Probabilities Pages: 1 -->
<svg width="370pt" height="210pt"
 viewBox="0.00 0.00 370.00 209.50" xmlns="http://www.w3.org/2000/svg" xmlns:xlink="http://www.w3.org/1999/xlink">
<g id="graph0" class="graph" transform="scale(1 1) rotate(0) translate(4 205.5)">
<title>Global Partition Function and Equilibrium Probabilities</title>
<!-- Node4 -->
<g id="node1" class="node">
<title>Node4</title>
<g id="a_node1"><a xlink:href="group__thermodynamics.html" target="_top" xlink:title="Compute various thermodynamic properties using the partition function.">
<polygon fill="none" stroke="black" points="361,-148.5 229,-148.5 229,-118.5 361,-118.5 361,-148.5"/>
<text text-anchor="start" x="237" y="-136.5" font-family="Helvetica,sans-Serif" font-size="10.00">Predicting various</text>
<text text-anchor="middle" x="295" y="-125.5" font-family="Helvetica,sans-Serif" font-size="10.00"> thermodynamic properties</text>
</a>
</g>
</g>
<!-- Node2 -->
<g id="node2" class="node">
<title>Node2</title>
<g id="a_node2"><a xlink:href="group__pf__fold.html" target="_top" xlink:title="Compute the partition function to assess various equilibrium properties.">
<polygon fill="none" stroke="black" points="362,-201.5 228,-201.5 228,-171.5 362,-171.5 362,-201.5"/>
<text text-anchor="start" x="236" y="-189.5" font-family="Helvetica,sans-Serif" font-size="10.00">Partition Function</text>
<text text-anchor="middle" x="295" y="-178.5" font-family="Helvetica,sans-Serif" font-size="10.00"> and Equilibrium Properties</text>
</a>
</g>
</g>
<!-- Node1 -->
<g id="node5" class="node">
<title>Node1</title>
<g id="a_node5"><a xlink:title="Variations of the global partition function algorithm.">
<polygon fill="#bfbfbf" stroke="black" points="143,-145.5 0,-145.5 0,-115.5 143,-115.5 143,-145.5"/>
<text text-anchor="start" x="8" y="-133.5" font-family="Helvetica,sans-Serif" font-size="10.00">Global Partition Function</text>
<text text-anchor="middle" x="71.5" y="-122.5" font-family="Helvetica,sans-Serif" font-size="10.00"> and Equilibrium Probabilities</text>
</a>
</g>
</g>
<!-- Node2&#45;&gt;Node1 -->
<g id="edge1" class="edge">
<title>Node2&#45;&gt;Node1</title>
<path fill="none" stroke="black" d="M224.58,-168.95C194.82,-161.42 160.41,-152.73 131.86,-145.51"/>
<polygon fill="black" stroke="black" points="223.93,-172.39 234.48,-171.45 225.64,-165.61 223.93,-172.39"/>
</g>
<!-- Node3 -->
<g id="node3" class="node">
<title>Node3</title>
<g id="a_node3"><a xlink:href="group__kl__neighborhood__pf.html" target="_top" xlink:title="Compute the partition function and stochastically sample secondary structures for a partitioning of t...">
<polygon fill="none" stroke="black" points="357,-100 233,-100 233,-59 357,-59 357,-100"/>
<text text-anchor="start" x="241" y="-88" font-family="Helvetica,sans-Serif" font-size="10.00">Computing Partition</text>
<text text-anchor="start" x="241" y="-77" font-family="Helvetica,sans-Serif" font-size="10.00"> Functions of a Distance</text>
<text text-anchor="middle" x="295" y="-66" font-family="Helvetica,sans-Serif" font-size="10.00"> Based Partitioning</text>
</a>
</g>
</g>
<!-- Node5 -->
<g id="node4" class="node">
<title>Node5</title>
<g id="a_node4"><a xlink:href="group__part__func__global__deprecated.html" target="_top" xlink:title=" ">
<polygon fill="none" stroke="black" points="353,-41 237,-41 237,0 353,0 353,-41"/>
<text text-anchor="start" x="245" y="-29" font-family="Helvetica,sans-Serif" font-size="10.00">Deprecated Interface</text>
<text text-anchor="start" x="245" y="-18" font-family="Helvetica,sans-Serif" font-size="10.00"> for Global Partition</text>
<text text-anchor="middle" x="295" y="-7" font-family="Helvetica,sans-Serif" font-size="10.00"> Function Computation</text>
</a>
</g>
</g>
<!-- Node1&#45;&gt;Node4 -->
<g id="edge3" class="edge">
<title>Node1&#45;&gt;Node4</title>
<path fill="none" stroke="black" d="M153.33,-131.59C178.18,-131.93 205.2,-132.3 228.86,-132.62"/>
<polygon fill="black" stroke="black" points="153.24,-128.09 143.19,-131.46 153.14,-135.09 153.24,-128.09"/>
</g>
<!-- Node1&#45;&gt;Node2 -->
<g id="edge5" class="edge">
<title>Node1&#45;&gt;Node2</title>
<path fill="none" stroke="darkgreen" stroke-dasharray="5,2" d="M104.23,-145.54C120.82,-152.86 141.64,-161.19 161,-166.5 182.39,-172.37 206.22,-176.64 227.74,-179.68"/>
<text text-anchor="middle" x="185.5" y="-179.5" font-family="Helvetica,sans-Serif" font-size="10.00">part_func.h</text>
</g>
<!-- Node1&#45;&gt;Node3 -->
<g id="edge2" class="edge">
<title>Node1&#45;&gt;Node3</title>
<path fill="none" stroke="black" d="M147.82,-113.16C175.58,-106.77 206.66,-99.61 233,-93.55"/>
<polygon fill="black" stroke="black" points="146.72,-109.82 137.76,-115.47 148.29,-116.64 146.72,-109.82"/>
</g>
<!-- Node1&#45;&gt;Node5 -->
<g id="edge4" class="edge">
<title>Node1&#45;&gt;Node5</title>
<path fill="none" stroke="black" d="M109.9,-110.61C141.24,-94.1 187.26,-70.22 228,-50.5 234.46,-47.37 241.31,-44.15 248.06,-41.03"/>
<polygon fill="black" stroke="black" points="107.88,-107.72 100.67,-115.49 111.15,-113.91 107.88,-107.72"/>
</g>
</g>
</svg>
