<?xml version="1.0" encoding="UTF-8" standalone="no"?>
<!DOCTYPE svg PUBLIC "-//W3C//DTD SVG 1.1//EN"
 "http://www.w3.org/Graphics/SVG/1.1/DTD/svg11.dtd">
<!-- Generated by graphviz version 2.47.0 (0)
 -->
<!-- Title: Reading/Writing Energy Parameter Sets from/to File Pages: 1 -->
<svg width="467pt" height="38pt"
 viewBox="0.00 0.00 467.00 38.00" xmlns="http://www.w3.org/2000/svg" xmlns:xlink="http://www.w3.org/1999/xlink">
<g id="graph0" class="graph" transform="scale(1 1) rotate(0) translate(4 34)">
<title>Reading/Writing Energy Parameter Sets from/to File</title>
<!-- Node2 -->
<g id="node1" class="node">
<title>Node2</title>
<g id="a_node1"><a xlink:href="group__energy__parameters.html" target="_top" xlink:title="All relevant functions to retrieve and copy pre&#45;calculated energy parameter sets as well as reading/w...">
<polygon fill="none" stroke="black" points="101,-24.5 0,-24.5 0,-5.5 101,-5.5 101,-24.5"/>
<text text-anchor="middle" x="50.5" y="-12.5" font-family="Helvetica,sans-Serif" font-size="10.00">Energy Parameters</text>
</a>
</g>
</g>
<!-- Node1 -->
<g id="node2" class="node">
<title>Node1</title>
<g id="a_node2"><a xlink:title="Read and Write energy parameter sets from and to files or strings.">
<polygon fill="#bfbfbf" stroke="black" points="277,-30 137,-30 137,0 277,0 277,-30"/>
<text text-anchor="start" x="145" y="-18" font-family="Helvetica,sans-Serif" font-size="10.00">Reading/Writing Energy</text>
<text text-anchor="middle" x="207" y="-7" font-family="Helvetica,sans-Serif" font-size="10.00"> Parameter Sets from/to File</text>
</a>
</g>
</g>
<!-- Node2&#45;&gt;Node1 -->
<g id="edge1" class="edge">
<title>Node2&#45;&gt;Node1</title>
<path fill="none" stroke="black" d="M111.3,-15C119.7,-15 128.39,-15 136.94,-15"/>
<polygon fill="black" stroke="black" points="111.24,-11.5 101.24,-15 111.24,-18.5 111.24,-11.5"/>
</g>
<!-- Node3 -->
<g id="node3" class="node">
<title>Node3</title>
<g id="a_node3"><a xlink:href="group__energy__parameters__convert.html" target="_top" xlink:title="Convert energy parameter files into the latest format.">
<polygon fill="none" stroke="black" points="459,-30 313,-30 313,0 459,0 459,-30"/>
<text text-anchor="start" x="321" y="-18" font-family="Helvetica,sans-Serif" font-size="10.00">Converting Energy Parameter</text>
<text text-anchor="middle" x="386" y="-7" font-family="Helvetica,sans-Serif" font-size="10.00"> Files</text>
</a>
</g>
</g>
<!-- Node1&#45;&gt;Node3 -->
<g id="edge2" class="edge">
<title>Node1&#45;&gt;Node3</title>
<path fill="none" stroke="black" d="M287.47,-15C295.95,-15 304.55,-15 312.94,-15"/>
<polygon fill="black" stroke="black" points="287.19,-11.5 277.19,-15 287.19,-18.5 287.19,-11.5"/>
</g>
</g>
</svg>
