<?xml version="1.0" encoding="UTF-8" standalone="no"?>
<!DOCTYPE svg PUBLIC "-//W3C//DTD SVG 1.1//EN"
 "http://www.w3.org/Graphics/SVG/1.1/DTD/svg11.dtd">
<!-- Generated by graphviz version 2.47.0 (0)
 -->
<!-- Title: (Abstract) Data Structures Pages: 1 -->
<svg width="397pt" height="187pt"
 viewBox="0.00 0.00 397.00 187.00" xmlns="http://www.w3.org/2000/svg" xmlns:xlink="http://www.w3.org/1999/xlink">
<g id="graph0" class="graph" transform="scale(1 1) rotate(0) translate(4 183)">
<title>(Abstract) Data Structures</title>
<!-- Node1 -->
<g id="node1" class="node">
<title>Node1</title>
<g id="a_node1"><a xlink:title="All datastructures and typedefs shared among the ViennaRNA Package can be found here.">
<polygon fill="#bfbfbf" stroke="black" points="217,-99 86,-99 86,-80 217,-80 217,-99"/>
<text text-anchor="middle" x="151.5" y="-87" font-family="Helvetica,sans-Serif" font-size="10.00">(Abstract) Data Structures</text>
</a>
</g>
</g>
<!-- Node3 -->
<g id="node2" class="node">
<title>Node3</title>
<g id="a_node2"><a xlink:href="group__fold__compound.html" target="_top" xlink:title="This module provides interfaces that deal with the most basic data structure used in structure predic...">
<polygon fill="none" stroke="black" points="373.5,-179 268.5,-179 268.5,-160 373.5,-160 373.5,-179"/>
<text text-anchor="middle" x="321" y="-167" font-family="Helvetica,sans-Serif" font-size="10.00">The Fold Compound</text>
</a>
</g>
</g>
<!-- Node1&#45;&gt;Node3 -->
<g id="edge2" class="edge">
<title>Node1&#45;&gt;Node3</title>
<path fill="none" stroke="black" d="M173.38,-104.89C193.05,-118.77 223.78,-138.88 253,-151.5 260.63,-154.79 269.01,-157.62 277.19,-159.99"/>
<polygon fill="black" stroke="black" points="175.33,-101.99 165.16,-99 171.25,-107.68 175.33,-101.99"/>
</g>
<!-- Node7 -->
<g id="node4" class="node">
<title>Node7</title>
<g id="a_node4"><a xlink:href="group__buffer__utils.html" target="_top" xlink:title="Functions that provide dynamically buffered stream&#45;like data structures.">
<polygon fill="none" stroke="black" points="345,-142 297,-142 297,-123 345,-123 345,-142"/>
<text text-anchor="middle" x="321" y="-130" font-family="Helvetica,sans-Serif" font-size="10.00">Buffers</text>
</a>
</g>
</g>
<!-- Node1&#45;&gt;Node7 -->
<g id="edge6" class="edge">
<title>Node1&#45;&gt;Node7</title>
<path fill="none" stroke="black" d="M199.64,-101.6C231.39,-109.75 271.87,-120.14 296.85,-126.56"/>
<polygon fill="black" stroke="black" points="200.23,-98.14 189.67,-99.04 198.49,-104.92 200.23,-98.14"/>
</g>
<!-- Node4 -->
<g id="node5" class="node">
<title>Node4</title>
<g id="a_node5"><a xlink:href="group__dp__matrices.html" target="_top" xlink:title="This module provides interfaces that deal with creation and destruction of dynamic programming matric...">
<polygon fill="none" stroke="black" points="389,-104.5 253,-104.5 253,-74.5 389,-74.5 389,-104.5"/>
<text text-anchor="start" x="261" y="-92.5" font-family="Helvetica,sans-Serif" font-size="10.00">The Dynamic Programming</text>
<text text-anchor="middle" x="321" y="-81.5" font-family="Helvetica,sans-Serif" font-size="10.00"> Matrices</text>
</a>
</g>
</g>
<!-- Node1&#45;&gt;Node4 -->
<g id="edge3" class="edge">
<title>Node1&#45;&gt;Node4</title>
<path fill="none" stroke="black" d="M227.51,-89.5C235.97,-89.5 244.56,-89.5 252.92,-89.5"/>
<polygon fill="black" stroke="black" points="227.26,-86 217.26,-89.5 227.26,-93 227.26,-86"/>
</g>
<!-- Node6 -->
<g id="node6" class="node">
<title>Node6</title>
<g id="a_node6"><a xlink:href="group__heap__utils.html" target="_top" xlink:title="Interface for an abstract implementation of a heap data structure.">
<polygon fill="none" stroke="black" points="343.5,-56 298.5,-56 298.5,-37 343.5,-37 343.5,-56"/>
<text text-anchor="middle" x="321" y="-44" font-family="Helvetica,sans-Serif" font-size="10.00">Heaps</text>
</a>
</g>
</g>
<!-- Node1&#45;&gt;Node6 -->
<g id="edge5" class="edge">
<title>Node1&#45;&gt;Node6</title>
<path fill="none" stroke="black" d="M199.4,-77.46C231.8,-69.14 273.39,-58.47 298.3,-52.07"/>
<polygon fill="black" stroke="black" points="198.49,-74.08 189.67,-79.96 200.23,-80.86 198.49,-74.08"/>
</g>
<!-- Node5 -->
<g id="node7" class="node">
<title>Node5</title>
<g id="a_node7"><a xlink:href="group__hash__table__utils.html" target="_top" xlink:title="Various implementations of hash table functions.">
<polygon fill="none" stroke="black" points="356.5,-19 285.5,-19 285.5,0 356.5,0 356.5,-19"/>
<text text-anchor="middle" x="321" y="-7" font-family="Helvetica,sans-Serif" font-size="10.00">Hash Tables</text>
</a>
</g>
</g>
<!-- Node1&#45;&gt;Node5 -->
<g id="edge4" class="edge">
<title>Node1&#45;&gt;Node5</title>
<path fill="none" stroke="black" d="M173.38,-74.11C193.05,-60.23 223.78,-40.12 253,-27.5 263.17,-23.11 274.69,-19.55 285.26,-16.79"/>
<polygon fill="black" stroke="black" points="171.25,-71.32 165.16,-80 175.33,-77.01 171.25,-71.32"/>
</g>
<!-- Node2 -->
<g id="node3" class="node">
<title>Node2</title>
<g id="a_node3"><a xlink:href="group__utils.html" target="_top" xlink:title=" ">
<polygon fill="none" stroke="black" points="50,-99 0,-99 0,-80 50,-80 50,-99"/>
<text text-anchor="middle" x="25" y="-87" font-family="Helvetica,sans-Serif" font-size="10.00">Utilities</text>
</a>
</g>
</g>
<!-- Node2&#45;&gt;Node1 -->
<g id="edge1" class="edge">
<title>Node2&#45;&gt;Node1</title>
<path fill="none" stroke="black" d="M60.08,-89.5C68.15,-89.5 77.01,-89.5 85.94,-89.5"/>
<polygon fill="black" stroke="black" points="60,-86 50,-89.5 60,-93 60,-86"/>
</g>
</g>
</svg>
