<?xml version="1.0" encoding="UTF-8" standalone="no"?>
<!DOCTYPE svg PUBLIC "-//W3C//DTD SVG 1.1//EN"
 "http://www.w3.org/Graphics/SVG/1.1/DTD/svg11.dtd">
<!-- Generated by graphviz version 2.47.0 (0)
 -->
<!-- Title: Experimental Structure Probing Data Pages: 1 -->
<svg width="291pt" height="76pt"
 viewBox="0.00 0.00 291.00 75.50" xmlns="http://www.w3.org/2000/svg" xmlns:xlink="http://www.w3.org/1999/xlink">
<g id="graph0" class="graph" transform="scale(1 1) rotate(0) translate(4 71.5)">
<title>Experimental Structure Probing Data</title>
<!-- Node3 -->
<g id="node1" class="node">
<title>Node3</title>
<g id="a_node1"><a xlink:href="group__perturbation.html" target="_top" xlink:title="Find a vector of perturbation energies that minimizes the discripancies between predicted and observe...">
<polygon fill="none" stroke="black" points="283,-67.5 152,-67.5 152,-37.5 283,-37.5 283,-67.5"/>
<text text-anchor="start" x="160" y="-55.5" font-family="Helvetica,sans-Serif" font-size="10.00">Generate Soft Constraints</text>
<text text-anchor="middle" x="217.5" y="-44.5" font-family="Helvetica,sans-Serif" font-size="10.00"> from Data</text>
</a>
</g>
</g>
<!-- Node1 -->
<g id="node2" class="node">
<title>Node1</title>
<g id="a_node2"><a xlink:title="Include Experimental Structure Probing Data to Guide Structure Predictions.">
<polygon fill="#bfbfbf" stroke="black" points="116,-45.5 0,-45.5 0,-15.5 116,-15.5 116,-45.5"/>
<text text-anchor="start" x="8" y="-33.5" font-family="Helvetica,sans-Serif" font-size="10.00">Experimental Structure</text>
<text text-anchor="middle" x="58" y="-22.5" font-family="Helvetica,sans-Serif" font-size="10.00"> Probing Data</text>
</a>
</g>
</g>
<!-- Node1&#45;&gt;Node3 -->
<g id="edge2" class="edge">
<title>Node1&#45;&gt;Node3</title>
<path fill="none" stroke="black" d="M126.44,-39.92C134.84,-41.09 143.41,-42.29 151.77,-43.46"/>
<polygon fill="black" stroke="black" points="126.69,-36.42 116.31,-38.5 125.73,-43.35 126.69,-36.42"/>
</g>
<!-- Node2 -->
<g id="node3" class="node">
<title>Node2</title>
<g id="a_node3"><a xlink:href="group__SHAPE__reactivities.html" target="_top" xlink:title="Incorporate SHAPE reactivity structure probing data into the folding recursions by means of soft cons...">
<polygon fill="none" stroke="black" points="278.5,-19 156.5,-19 156.5,0 278.5,0 278.5,-19"/>
<text text-anchor="middle" x="217.5" y="-7" font-family="Helvetica,sans-Serif" font-size="10.00">SHAPE Reactivity Data</text>
</a>
</g>
</g>
<!-- Node1&#45;&gt;Node2 -->
<g id="edge1" class="edge">
<title>Node1&#45;&gt;Node2</title>
<path fill="none" stroke="black" d="M126.52,-21.5C136.42,-20.18 146.57,-18.82 156.32,-17.52"/>
<polygon fill="black" stroke="black" points="125.76,-18.07 116.31,-22.86 126.68,-25.01 125.76,-18.07"/>
</g>
</g>
</svg>
