<?xml version="1.0" encoding="UTF-8" standalone="no"?>
<!DOCTYPE svg PUBLIC "-//W3C//DTD SVG 1.1//EN"
 "http://www.w3.org/Graphics/SVG/1.1/DTD/svg11.dtd">
<!-- Generated by graphviz version 2.47.0 (0)
 -->
<!-- Title: Multiple Sequence Alignments Pages: 1 -->
<svg width="519pt" height="36pt"
 viewBox="0.00 0.00 519.00 35.57" xmlns="http://www.w3.org/2000/svg" xmlns:xlink="http://www.w3.org/1999/xlink">
<g id="graph0" class="graph" transform="scale(1 1) rotate(0) translate(4 31.57)">
<title>Multiple Sequence Alignments</title>
<!-- Node2 -->
<g id="node1" class="node">
<title>Node2</title>
<g id="a_node1"><a xlink:href="group__file__utils.html" target="_top" xlink:title="Functions to parse, write, and convert various file formats and to deal with file system related issu...">
<polygon fill="none" stroke="black" points="73,-26.07 0,-26.07 0,-7.07 73,-7.07 73,-26.07"/>
<text text-anchor="middle" x="36.5" y="-14.07" font-family="Helvetica,sans-Serif" font-size="10.00">Files and I/O</text>
</a>
</g>
</g>
<!-- Node1 -->
<g id="node3" class="node">
<title>Node1</title>
<g id="a_node3"><a xlink:title="Functions to read/write multiple sequence alignments (MSA) in various file formats.">
<polygon fill="#bfbfbf" stroke="black" points="341,-26.07 193,-26.07 193,-7.07 341,-7.07 341,-26.07"/>
<text text-anchor="middle" x="267" y="-14.07" font-family="Helvetica,sans-Serif" font-size="10.00">Multiple Sequence Alignments</text>
</a>
</g>
</g>
<!-- Node2&#45;&gt;Node1 -->
<g id="edge1" class="edge">
<title>Node2&#45;&gt;Node1</title>
<path fill="none" stroke="black" d="M83.38,-16.57C114.69,-16.57 156.84,-16.57 192.76,-16.57"/>
<polygon fill="black" stroke="black" points="83.2,-13.07 73.2,-16.57 83.2,-20.07 83.2,-13.07"/>
</g>
<!-- Node3 -->
<g id="node2" class="node">
<title>Node3</title>
<g id="a_node2"><a xlink:href="group__utils.html" target="_top" xlink:title=" ">
<polygon fill="none" stroke="black" points="511,-26.07 461,-26.07 461,-7.07 511,-7.07 511,-26.07"/>
<text text-anchor="middle" x="486" y="-14.07" font-family="Helvetica,sans-Serif" font-size="10.00">Utilities</text>
</a>
</g>
</g>
<!-- Node1&#45;&gt;Node2 -->
<g id="edge3" class="edge">
<title>Node1&#45;&gt;Node2</title>
<path fill="none" stroke="darkgreen" stroke-dasharray="5,2" d="M215.7,-7.03C180.66,-1.72 132.87,2.82 91,-2.57 83.57,-3.53 75.7,-5.2 68.35,-7.06"/>
<text text-anchor="middle" x="133" y="-5.57" font-family="Helvetica,sans-Serif" font-size="10.00">file_formats_msa.h</text>
</g>
<!-- Node1&#45;&gt;Node3 -->
<g id="edge2" class="edge">
<title>Node1&#45;&gt;Node3</title>
<path fill="none" stroke="darkgreen" stroke-dasharray="5,2" d="M341.16,-16.57C382.75,-16.57 432.12,-16.57 460.86,-16.57"/>
<text text-anchor="middle" x="401" y="-19.57" font-family="Helvetica,sans-Serif" font-size="10.00">file_formats_msa.h</text>
</g>
</g>
</svg>
