<?xml version="1.0" encoding="UTF-8" standalone="no"?>
<!DOCTYPE svg PUBLIC "-//W3C//DTD SVG 1.1//EN"
 "http://www.w3.org/Graphics/SVG/1.1/DTD/svg11.dtd">
<!-- Generated by graphviz version 2.47.0 (0)
 -->
<!-- Title: Constraining the RNA Folding Grammar Pages: 1 -->
<svg width="419pt" height="64pt"
 viewBox="0.00 0.00 419.00 64.00" xmlns="http://www.w3.org/2000/svg" xmlns:xlink="http://www.w3.org/1999/xlink">
<g id="graph0" class="graph" transform="scale(1 1) rotate(0) translate(4 60)">
<title>Constraining the RNA Folding Grammar</title>
<!-- Node1 -->
<g id="node1" class="node">
<title>Node1</title>
<g id="a_node1"><a xlink:title="This module provides general functions that allow for an easy control of constrained secondary struct...">
<polygon fill="#bfbfbf" stroke="black" points="284,-42.5 171,-42.5 171,-12.5 284,-12.5 284,-42.5"/>
<text text-anchor="start" x="179" y="-30.5" font-family="Helvetica,sans-Serif" font-size="10.00">Constraining the RNA</text>
<text text-anchor="middle" x="227.5" y="-19.5" font-family="Helvetica,sans-Serif" font-size="10.00"> Folding Grammar</text>
</a>
</g>
</g>
<!-- Node4 -->
<g id="node3" class="node">
<title>Node4</title>
<g id="a_node3"><a xlink:href="group__soft__constraints.html" target="_top" xlink:title="Functions and data structures for secondary structure soft constraints.">
<polygon fill="none" stroke="black" points="409.5,-56 321.5,-56 321.5,-37 409.5,-37 409.5,-56"/>
<text text-anchor="middle" x="365.5" y="-44" font-family="Helvetica,sans-Serif" font-size="10.00">Soft Constraints</text>
</a>
</g>
</g>
<!-- Node1&#45;&gt;Node4 -->
<g id="edge3" class="edge">
<title>Node1&#45;&gt;Node4</title>
<path fill="none" stroke="black" d="M294.12,-36.67C303.3,-37.95 312.53,-39.24 321.16,-40.45"/>
<polygon fill="black" stroke="black" points="294.6,-33.2 284.21,-35.28 293.63,-40.13 294.6,-33.2"/>
</g>
<!-- Node3 -->
<g id="node4" class="node">
<title>Node3</title>
<g id="a_node4"><a xlink:href="group__hard__constraints.html" target="_top" xlink:title="This module covers all functionality for hard constraints in secondary structure prediction.">
<polygon fill="none" stroke="black" points="411,-19 320,-19 320,0 411,0 411,-19"/>
<text text-anchor="middle" x="365.5" y="-7" font-family="Helvetica,sans-Serif" font-size="10.00">Hard Constraints</text>
</a>
</g>
</g>
<!-- Node1&#45;&gt;Node3 -->
<g id="edge2" class="edge">
<title>Node1&#45;&gt;Node3</title>
<path fill="none" stroke="black" d="M294.32,-18.79C302.99,-17.64 311.7,-16.49 319.9,-15.4"/>
<polygon fill="black" stroke="black" points="293.66,-15.34 284.21,-20.13 294.58,-22.28 293.66,-15.34"/>
</g>
<!-- Node2 -->
<g id="node2" class="node">
<title>Node2</title>
<g id="a_node2"><a xlink:href="group__grammar.html" target="_top" xlink:title="The RNA folding grammar as implemented in RNAlib.">
<polygon fill="none" stroke="black" points="135,-37 0,-37 0,-18 135,-18 135,-37"/>
<text text-anchor="middle" x="67.5" y="-25" font-family="Helvetica,sans-Serif" font-size="10.00">The RNA Folding Grammar</text>
</a>
</g>
</g>
<!-- Node2&#45;&gt;Node1 -->
<g id="edge1" class="edge">
<title>Node2&#45;&gt;Node1</title>
<path fill="none" stroke="black" d="M145.08,-27.5C153.65,-27.5 162.27,-27.5 170.52,-27.5"/>
<polygon fill="black" stroke="black" points="145.05,-24 135.05,-27.5 145.05,-31 145.05,-24"/>
</g>
</g>
</svg>
