<?xml version="1.0" encoding="UTF-8" standalone="no"?>
<!DOCTYPE svg PUBLIC "-//W3C//DTD SVG 1.1//EN"
 "http://www.w3.org/Graphics/SVG/1.1/DTD/svg11.dtd">
<!-- Generated by graphviz version 2.47.0 (0)
 -->
<!-- Title: Buffers Pages: 1 -->
<svg width="381pt" height="40pt"
 viewBox="0.00 0.00 381.00 39.50" xmlns="http://www.w3.org/2000/svg" xmlns:xlink="http://www.w3.org/1999/xlink">
<g id="graph0" class="graph" transform="scale(1 1) rotate(0) translate(4 35.5)">
<title>Buffers</title>
<!-- Node2 -->
<g id="node1" class="node">
<title>Node2</title>
<g id="a_node1"><a xlink:href="group__data__structures.html" target="_top" xlink:title="All datastructures and typedefs shared among the ViennaRNA Package can be found here.">
<polygon fill="none" stroke="black" points="131,-19 0,-19 0,0 131,0 131,-19"/>
<text text-anchor="middle" x="65.5" y="-7" font-family="Helvetica,sans-Serif" font-size="10.00">(Abstract) Data Structures</text>
</a>
</g>
</g>
<!-- Node1 -->
<g id="node3" class="node">
<title>Node1</title>
<g id="a_node3"><a xlink:title="Functions that provide dynamically buffered stream&#45;like data structures.">
<polygon fill="#bfbfbf" stroke="black" points="216,-19 168,-19 168,0 216,0 216,-19"/>
<text text-anchor="middle" x="192" y="-7" font-family="Helvetica,sans-Serif" font-size="10.00">Buffers</text>
</a>
</g>
</g>
<!-- Node2&#45;&gt;Node1 -->
<g id="edge1" class="edge">
<title>Node2&#45;&gt;Node1</title>
<path fill="none" stroke="black" d="M141.38,-9.5C150.94,-9.5 160.09,-9.5 167.86,-9.5"/>
<polygon fill="black" stroke="black" points="141.3,-6 131.3,-9.5 141.3,-13 141.3,-6"/>
</g>
<!-- Node3 -->
<g id="node2" class="node">
<title>Node3</title>
<g id="a_node2"><a xlink:href="group__utils.html" target="_top" xlink:title=" ">
<polygon fill="none" stroke="black" points="373,-19 323,-19 323,0 373,0 373,-19"/>
<text text-anchor="middle" x="348" y="-7" font-family="Helvetica,sans-Serif" font-size="10.00">Utilities</text>
</a>
</g>
</g>
<!-- Node1&#45;&gt;Node3 -->
<g id="edge2" class="edge">
<title>Node1&#45;&gt;Node3</title>
<path fill="none" stroke="darkgreen" stroke-dasharray="5,2" d="M216.06,-9.5C244.75,-9.5 293.54,-9.5 322.77,-9.5"/>
<text text-anchor="middle" x="269.5" y="-23.5" font-family="Helvetica,sans-Serif" font-size="10.00">char_stream.h</text>
<text text-anchor="middle" x="269.5" y="-12.5" font-family="Helvetica,sans-Serif" font-size="10.00">stream_output.h</text>
</g>
</g>
</svg>
