<?xml version="1.0" encoding="UTF-8" standalone="no"?>
<!DOCTYPE svg PUBLIC "-//W3C//DTD SVG 1.1//EN"
 "http://www.w3.org/Graphics/SVG/1.1/DTD/svg11.dtd">
<!-- Generated by graphviz version 2.47.0 (0)
 -->
<!-- Title: Distance Based Partitioning of the Secondary Structure Space Pages: 1 -->
<svg width="524pt" height="157pt"
 viewBox="0.00 0.00 524.00 156.50" xmlns="http://www.w3.org/2000/svg" xmlns:xlink="http://www.w3.org/1999/xlink">
<g id="graph0" class="graph" transform="scale(1 1) rotate(0) translate(4 152.5)">
<title>Distance Based Partitioning of the Secondary Structure Space</title>
<!-- Node5 -->
<g id="node1" class="node">
<title>Node5</title>
<g id="a_node1"><a xlink:href="group__kl__neighborhood__stochbt.html" target="_top" xlink:title="Contains functions related to stochastic backtracking from a specified distance class.">
<polygon fill="none" stroke="black" points="505.5,-148.5 365.5,-148.5 365.5,-107.5 505.5,-107.5 505.5,-148.5"/>
<text text-anchor="start" x="373.5" y="-136.5" font-family="Helvetica,sans-Serif" font-size="10.00">Stochastic Backtracking</text>
<text text-anchor="start" x="373.5" y="-125.5" font-family="Helvetica,sans-Serif" font-size="10.00"> of Structures from Distance</text>
<text text-anchor="middle" x="435.5" y="-114.5" font-family="Helvetica,sans-Serif" font-size="10.00"> Based Partitioning</text>
</a>
</g>
</g>
<!-- Node2 -->
<g id="node2" class="node">
<title>Node2</title>
<g id="a_node2"><a xlink:href="group__class__fold.html" target="_top" xlink:title=" ">
<polygon fill="none" stroke="black" points="116,-84 0,-84 0,-54 116,-54 116,-84"/>
<text text-anchor="start" x="8" y="-72" font-family="Helvetica,sans-Serif" font-size="10.00">Classified Dynamic</text>
<text text-anchor="middle" x="58" y="-61" font-family="Helvetica,sans-Serif" font-size="10.00"> Programming Variants</text>
</a>
</g>
</g>
<!-- Node1 -->
<g id="node3" class="node">
<title>Node1</title>
<g id="a_node3"><a xlink:title=" ">
<polygon fill="#bfbfbf" stroke="black" points="319,-84 152,-84 152,-54 319,-54 319,-84"/>
<text text-anchor="start" x="160" y="-72" font-family="Helvetica,sans-Serif" font-size="10.00">Distance Based Partitioning</text>
<text text-anchor="middle" x="235.5" y="-61" font-family="Helvetica,sans-Serif" font-size="10.00"> of the Secondary Structure Space</text>
</a>
</g>
</g>
<!-- Node2&#45;&gt;Node1 -->
<g id="edge1" class="edge">
<title>Node2&#45;&gt;Node1</title>
<path fill="none" stroke="black" d="M126.7,-69C134.91,-69 143.36,-69 151.76,-69"/>
<polygon fill="black" stroke="black" points="126.47,-65.5 116.47,-69 126.47,-72.5 126.47,-65.5"/>
</g>
<!-- Node1&#45;&gt;Node5 -->
<g id="edge4" class="edge">
<title>Node1&#45;&gt;Node5</title>
<path fill="none" stroke="black" d="M296.72,-86.94C318.41,-93.41 343.05,-100.75 365.44,-107.42"/>
<polygon fill="black" stroke="black" points="297.56,-83.54 286.98,-84.04 295.56,-90.25 297.56,-83.54"/>
</g>
<!-- Node4 -->
<g id="node4" class="node">
<title>Node4</title>
<g id="a_node4"><a xlink:href="group__kl__neighborhood__pf.html" target="_top" xlink:title="Compute the partition function and stochastically sample secondary structures for a partitioning of t...">
<polygon fill="none" stroke="black" points="497.5,-89.5 373.5,-89.5 373.5,-48.5 497.5,-48.5 497.5,-89.5"/>
<text text-anchor="start" x="381.5" y="-77.5" font-family="Helvetica,sans-Serif" font-size="10.00">Computing Partition</text>
<text text-anchor="start" x="381.5" y="-66.5" font-family="Helvetica,sans-Serif" font-size="10.00"> Functions of a Distance</text>
<text text-anchor="middle" x="435.5" y="-55.5" font-family="Helvetica,sans-Serif" font-size="10.00"> Based Partitioning</text>
</a>
</g>
</g>
<!-- Node1&#45;&gt;Node4 -->
<g id="edge3" class="edge">
<title>Node1&#45;&gt;Node4</title>
<path fill="none" stroke="black" d="M329.31,-69C344.21,-69 359.3,-69 373.22,-69"/>
<polygon fill="black" stroke="black" points="329.04,-65.5 319.04,-69 329.04,-72.5 329.04,-65.5"/>
</g>
<!-- Node3 -->
<g id="node5" class="node">
<title>Node3</title>
<g id="a_node5"><a xlink:href="group__kl__neighborhood__mfe.html" target="_top" xlink:title="Compute the minimum free energy (MFE) and secondary structures for a partitioning of the secondary st...">
<polygon fill="none" stroke="black" points="516,-30 355,-30 355,0 516,0 516,-30"/>
<text text-anchor="start" x="363" y="-18" font-family="Helvetica,sans-Serif" font-size="10.00">Computing MFE representatives</text>
<text text-anchor="middle" x="435.5" y="-7" font-family="Helvetica,sans-Serif" font-size="10.00"> of a Distance Based Partitioning</text>
</a>
</g>
</g>
<!-- Node1&#45;&gt;Node3 -->
<g id="edge2" class="edge">
<title>Node1&#45;&gt;Node3</title>
<path fill="none" stroke="black" d="M301.48,-51.28C326.65,-44.41 355.15,-36.64 379.3,-30.05"/>
<polygon fill="black" stroke="black" points="300.38,-47.95 291.65,-53.96 302.22,-54.7 300.38,-47.95"/>
</g>
</g>
</svg>
