<?xml version="1.0" encoding="UTF-8" standalone="no"?>
<!DOCTYPE svg PUBLIC "-//W3C//DTD SVG 1.1//EN"
 "http://www.w3.org/Graphics/SVG/1.1/DTD/svg11.dtd">
<!-- Generated by graphviz version 2.47.0 (0)
 -->
<!-- Title: Extending the Folding Grammar with Additional Domains Pages: 1 -->
<svg width="456pt" height="64pt"
 viewBox="0.00 0.00 456.00 64.00" xmlns="http://www.w3.org/2000/svg" xmlns:xlink="http://www.w3.org/1999/xlink">
<g id="graph0" class="graph" transform="scale(1 1) rotate(0) translate(4 60)">
<title>Extending the Folding Grammar with Additional Domains</title>
<!-- Node4 -->
<g id="node1" class="node">
<title>Node4</title>
<g id="a_node1"><a xlink:href="group__domains__struc.html" target="_top" xlink:title="Add and modify structured domains to the RNA folding grammar.">
<polygon fill="none" stroke="black" points="442.5,-56 338.5,-56 338.5,-37 442.5,-37 442.5,-56"/>
<text text-anchor="middle" x="390.5" y="-44" font-family="Helvetica,sans-Serif" font-size="10.00">Structured Domains</text>
</a>
</g>
</g>
<!-- Node2 -->
<g id="node2" class="node">
<title>Node2</title>
<g id="a_node2"><a xlink:href="group__grammar.html" target="_top" xlink:title="The RNA folding grammar as implemented in RNAlib.">
<polygon fill="none" stroke="black" points="135,-37 0,-37 0,-18 135,-18 135,-37"/>
<text text-anchor="middle" x="67.5" y="-25" font-family="Helvetica,sans-Serif" font-size="10.00">The RNA Folding Grammar</text>
</a>
</g>
</g>
<!-- Node1 -->
<g id="node4" class="node">
<title>Node1</title>
<g id="a_node4"><a xlink:title="This module covers simple and straight&#45;forward extensions to the RNA folding grammar.">
<polygon fill="#bfbfbf" stroke="black" points="297,-48 171,-48 171,-7 297,-7 297,-48"/>
<text text-anchor="start" x="179" y="-36" font-family="Helvetica,sans-Serif" font-size="10.00">Extending the Folding</text>
<text text-anchor="start" x="179" y="-25" font-family="Helvetica,sans-Serif" font-size="10.00"> Grammar with Additional</text>
<text text-anchor="middle" x="234" y="-14" font-family="Helvetica,sans-Serif" font-size="10.00"> Domains</text>
</a>
</g>
</g>
<!-- Node2&#45;&gt;Node1 -->
<g id="edge1" class="edge">
<title>Node2&#45;&gt;Node1</title>
<path fill="none" stroke="black" d="M145.67,-27.5C154.14,-27.5 162.68,-27.5 170.93,-27.5"/>
<polygon fill="black" stroke="black" points="145.41,-24 135.41,-27.5 145.41,-31 145.41,-24"/>
</g>
<!-- Node3 -->
<g id="node3" class="node">
<title>Node3</title>
<g id="a_node3"><a xlink:href="group__domains__up.html" target="_top" xlink:title="Add and modify unstructured domains to the RNA folding grammar.">
<polygon fill="none" stroke="black" points="448,-19 333,-19 333,0 448,0 448,-19"/>
<text text-anchor="middle" x="390.5" y="-7" font-family="Helvetica,sans-Serif" font-size="10.00">Unstructured Domains</text>
</a>
</g>
</g>
<!-- Node1&#45;&gt;Node4 -->
<g id="edge3" class="edge">
<title>Node1&#45;&gt;Node4</title>
<path fill="none" stroke="black" d="M307.34,-36.4C317.78,-37.68 328.33,-38.98 338.24,-40.2"/>
<polygon fill="black" stroke="black" points="307.75,-32.92 297.4,-35.17 306.89,-39.87 307.75,-32.92"/>
</g>
<!-- Node1&#45;&gt;Node3 -->
<g id="edge2" class="edge">
<title>Node1&#45;&gt;Node3</title>
<path fill="none" stroke="black" d="M307.38,-19.07C315.93,-18.07 324.56,-17.07 332.86,-16.1"/>
<polygon fill="black" stroke="black" points="306.92,-15.6 297.4,-20.23 307.73,-22.55 306.92,-15.6"/>
</g>
</g>
</svg>
