<?xml version="1.0" encoding="UTF-8" standalone="no"?>
<!DOCTYPE svg PUBLIC "-//W3C//DTD SVG 1.1//EN"
 "http://www.w3.org/Graphics/SVG/1.1/DTD/svg11.dtd">
<!-- Generated by graphviz version 2.47.0 (0)
 -->
<!-- Title: Minimum Free Energy (MFE) Algorithms Pages: 1 -->
<svg width="363pt" height="128pt"
 viewBox="0.00 0.00 363.00 128.48" xmlns="http://www.w3.org/2000/svg" xmlns:xlink="http://www.w3.org/1999/xlink">
<g id="graph0" class="graph" transform="scale(1 1) rotate(0) translate(4 124.48)">
<title>Minimum Free Energy (MFE) Algorithms</title>
<!-- Node2 -->
<g id="node1" class="node">
<title>Node2</title>
<g id="a_node1"><a xlink:href="group__mfe__global.html" target="_top" xlink:title="Variations of the global Minimum Free Energy (MFE) prediction algorithm.">
<polygon fill="none" stroke="black" points="340.5,-117 225.5,-117 225.5,-98 340.5,-98 340.5,-117"/>
<text text-anchor="middle" x="283" y="-105" font-family="Helvetica,sans-Serif" font-size="10.00">Global MFE Prediction</text>
</a>
</g>
</g>
<!-- Node3 -->
<g id="node2" class="node">
<title>Node3</title>
<g id="a_node2"><a xlink:href="group__mfe__window.html" target="_top" xlink:title="Variations of the local (sliding window) Minimum Free Energy (MFE) prediction algorithm.">
<polygon fill="none" stroke="black" points="339.5,-76.5 226.5,-76.5 226.5,-46.5 339.5,-46.5 339.5,-76.5"/>
<text text-anchor="start" x="234.5" y="-64.5" font-family="Helvetica,sans-Serif" font-size="10.00">Local (sliding window)</text>
<text text-anchor="middle" x="283" y="-53.5" font-family="Helvetica,sans-Serif" font-size="10.00"> MFE Prediction</text>
</a>
</g>
</g>
<!-- Node1 -->
<g id="node3" class="node">
<title>Node1</title>
<g id="a_node3"><a xlink:title="Predicting the Minimum Free Energy (MFE) and a corresponding (consensus) secondary structure.">
<polygon fill="#bfbfbf" stroke="black" points="113,-83.5 0,-83.5 0,-53.5 113,-53.5 113,-83.5"/>
<text text-anchor="start" x="8" y="-71.5" font-family="Helvetica,sans-Serif" font-size="10.00">Minimum Free Energy</text>
<text text-anchor="middle" x="56.5" y="-60.5" font-family="Helvetica,sans-Serif" font-size="10.00"> (MFE) Algorithms</text>
</a>
</g>
</g>
<!-- Node1&#45;&gt;Node2 -->
<g id="edge1" class="edge">
<title>Node1&#45;&gt;Node2</title>
<path fill="none" stroke="black" d="M83.97,-89.62C97.26,-98.89 114.11,-108.74 131,-113.5 164.21,-122.86 203.14,-121.02 233.16,-117.02"/>
<polygon fill="black" stroke="black" points="85.93,-86.72 75.78,-83.67 81.81,-92.38 85.93,-86.72"/>
</g>
<!-- Node1&#45;&gt;Node2 -->
<g id="edge4" class="edge">
<title>Node1&#45;&gt;Node2</title>
<path fill="none" stroke="darkgreen" stroke-dasharray="5,2" d="M113.28,-78.19C148.09,-84.24 192.68,-91.98 227.28,-97.99"/>
<text text-anchor="middle" x="162" y="-93.5" font-family="Helvetica,sans-Serif" font-size="10.00">mfe.h</text>
</g>
<!-- Node1&#45;&gt;Node3 -->
<g id="edge2" class="edge">
<title>Node1&#45;&gt;Node3</title>
<path fill="none" stroke="black" d="M123.62,-66.44C156.2,-65.42 195.05,-64.21 226.12,-63.24"/>
<polygon fill="black" stroke="black" points="123.17,-62.95 113.28,-66.76 123.39,-69.95 123.17,-62.95"/>
</g>
<!-- Node1&#45;&gt;Node3 -->
<g id="edge5" class="edge">
<title>Node1&#45;&gt;Node3</title>
<path fill="none" stroke="darkgreen" stroke-dasharray="5,2" d="M105.76,-53.42C114.1,-51.38 122.74,-49.6 131,-48.5 162.43,-44.3 197.72,-46.93 226.29,-50.9"/>
<text text-anchor="middle" x="162" y="-51.5" font-family="Helvetica,sans-Serif" font-size="10.00">mfe_window.h</text>
</g>
<!-- Node4 -->
<g id="node4" class="node">
<title>Node4</title>
<g id="a_node4"><a xlink:href="group__mfe__backtracking.html" target="_top" xlink:title="Backtracking related interfaces.">
<polygon fill="none" stroke="black" points="355,-19 211,-19 211,0 355,0 355,-19"/>
<text text-anchor="middle" x="283" y="-7" font-family="Helvetica,sans-Serif" font-size="10.00">Backtracking MFE structures</text>
</a>
</g>
</g>
<!-- Node1&#45;&gt;Node4 -->
<g id="edge3" class="edge">
<title>Node1&#45;&gt;Node4</title>
<path fill="none" stroke="black" d="M104.86,-49.98C113.48,-46.93 122.46,-43.96 131,-41.5 162.67,-32.38 198.77,-24.63 227.73,-19.05"/>
<polygon fill="black" stroke="black" points="103.51,-46.74 95.3,-53.44 105.9,-53.32 103.51,-46.74"/>
</g>
</g>
</svg>
