<?xml version="1.0" encoding="UTF-8" standalone="no"?>
<!DOCTYPE svg PUBLIC "-//W3C//DTD SVG 1.1//EN"
 "http://www.w3.org/Graphics/SVG/1.1/DTD/svg11.dtd">
<!-- Generated by graphviz version 2.47.0 (0)
 -->
<!-- Title: Utilities to deal with Nucleotide Alphabets Pages: 1 -->
<svg width="257pt" height="45pt"
 viewBox="0.00 0.00 257.00 45.00" xmlns="http://www.w3.org/2000/svg" xmlns:xlink="http://www.w3.org/1999/xlink">
<g id="graph0" class="graph" transform="scale(1 1) rotate(0) translate(4 41)">
<title>Utilities to deal with Nucleotide Alphabets</title>
<!-- Node1 -->
<g id="node1" class="node">
<title>Node1</title>
<g id="a_node1"><a xlink:title="Functions to cope with various aspects related to the nucleotide sequence alphabet.">
<polygon fill="#bfbfbf" stroke="black" points="112,-30 0,-30 0,0 112,0 112,-30"/>
<text text-anchor="start" x="8" y="-18" font-family="Helvetica,sans-Serif" font-size="10.00">Utilities to deal with</text>
<text text-anchor="middle" x="56" y="-7" font-family="Helvetica,sans-Serif" font-size="10.00"> Nucleotide Alphabets</text>
</a>
</g>
</g>
<!-- Node2 -->
<g id="node2" class="node">
<title>Node2</title>
<g id="a_node2"><a xlink:href="group__utils.html" target="_top" xlink:title=" ">
<polygon fill="none" stroke="black" points="249,-24.5 199,-24.5 199,-5.5 249,-5.5 249,-24.5"/>
<text text-anchor="middle" x="224" y="-12.5" font-family="Helvetica,sans-Serif" font-size="10.00">Utilities</text>
</a>
</g>
</g>
<!-- Node1&#45;&gt;Node2 -->
<g id="edge2" class="edge">
<title>Node1&#45;&gt;Node2</title>
<path fill="none" stroke="darkgreen" stroke-dasharray="5,2" d="M112.28,-15C141.7,-15 176.38,-15 198.98,-15"/>
<text text-anchor="middle" x="155.5" y="-29" font-family="Helvetica,sans-Serif" font-size="10.00">alphabet.h</text>
<text text-anchor="middle" x="155.5" y="-18" font-family="Helvetica,sans-Serif" font-size="10.00">sequence.h</text>
</g>
<!-- Node2&#45;&gt;Node1 -->
<g id="edge1" class="edge">
<title>Node2&#45;&gt;Node1</title>
<path fill="none" stroke="black" d="M188.37,-13.22C185.88,-13.13 183.4,-13.06 181,-13 158.51,-12.46 133.72,-12.7 112.25,-13.17"/>
<polygon fill="black" stroke="black" points="188.44,-16.73 198.58,-13.64 188.73,-9.73 188.44,-16.73"/>
</g>
</g>
</svg>
