<?xml version="1.0" encoding="UTF-8" standalone="no"?>
<!DOCTYPE svg PUBLIC "-//W3C//DTD SVG 1.1//EN"
 "http://www.w3.org/Graphics/SVG/1.1/DTD/svg11.dtd">
<!-- Generated by graphviz version 2.47.0 (0)
 -->
<!-- Title: The RNA Folding Grammar Pages: 1 -->
<svg width="305pt" height="184pt"
 viewBox="0.00 0.00 305.00 183.50" xmlns="http://www.w3.org/2000/svg" xmlns:xlink="http://www.w3.org/1999/xlink">
<g id="graph0" class="graph" transform="scale(1 1) rotate(0) translate(4 179.5)">
<title>The RNA Folding Grammar</title>
<!-- Node2 -->
<g id="node1" class="node">
<title>Node2</title>
<g id="a_node1"><a xlink:href="group__model__details.html" target="_top" xlink:title="Functions and data structures to fine&#45;tune the implemented secondary structure evaluation model.">
<polygon fill="none" stroke="black" points="289,-175.5 179,-175.5 179,-145.5 289,-145.5 289,-175.5"/>
<text text-anchor="start" x="187" y="-163.5" font-family="Helvetica,sans-Serif" font-size="10.00">Fine&#45;tuning of the</text>
<text text-anchor="middle" x="234" y="-152.5" font-family="Helvetica,sans-Serif" font-size="10.00"> Implemented Models</text>
</a>
</g>
</g>
<!-- Node3 -->
<g id="node2" class="node">
<title>Node3</title>
<g id="a_node2"><a xlink:href="group__energy__parameters.html" target="_top" xlink:title="All relevant functions to retrieve and copy pre&#45;calculated energy parameter sets as well as reading/w...">
<polygon fill="none" stroke="black" points="284.5,-127 183.5,-127 183.5,-108 284.5,-108 284.5,-127"/>
<text text-anchor="middle" x="234" y="-115" font-family="Helvetica,sans-Serif" font-size="10.00">Energy Parameters</text>
</a>
</g>
</g>
<!-- Node5 -->
<g id="node3" class="node">
<title>Node5</title>
<g id="a_node3"><a xlink:href="group__constraints.html" target="_top" xlink:title="This module provides general functions that allow for an easy control of constrained secondary struct...">
<polygon fill="none" stroke="black" points="290.5,-89.5 177.5,-89.5 177.5,-59.5 290.5,-59.5 290.5,-89.5"/>
<text text-anchor="start" x="185.5" y="-77.5" font-family="Helvetica,sans-Serif" font-size="10.00">Constraining the RNA</text>
<text text-anchor="middle" x="234" y="-66.5" font-family="Helvetica,sans-Serif" font-size="10.00"> Folding Grammar</text>
</a>
</g>
</g>
<!-- Node1 -->
<g id="node4" class="node">
<title>Node1</title>
<g id="a_node4"><a xlink:title="The RNA folding grammar as implemented in RNAlib.">
<polygon fill="#bfbfbf" stroke="black" points="135,-105 0,-105 0,-86 135,-86 135,-105"/>
<text text-anchor="middle" x="67.5" y="-93" font-family="Helvetica,sans-Serif" font-size="10.00">The RNA Folding Grammar</text>
</a>
</g>
</g>
<!-- Node1&#45;&gt;Node2 -->
<g id="edge1" class="edge">
<title>Node1&#45;&gt;Node2</title>
<path fill="none" stroke="black" d="M101.41,-108.77C121.49,-116.85 147.7,-127.33 171,-136.5 178.41,-139.42 186.33,-142.5 193.95,-145.46"/>
<polygon fill="black" stroke="black" points="102.67,-105.51 92.08,-105.02 100.05,-112 102.67,-105.51"/>
</g>
<!-- Node1&#45;&gt;Node3 -->
<g id="edge2" class="edge">
<title>Node1&#45;&gt;Node3</title>
<path fill="none" stroke="black" d="M145.62,-105.81C158.44,-107.53 171.41,-109.26 183.31,-110.85"/>
<polygon fill="black" stroke="black" points="145.78,-102.3 135.41,-104.45 144.86,-109.24 145.78,-102.3"/>
</g>
<!-- Node1&#45;&gt;Node5 -->
<g id="edge4" class="edge">
<title>Node1&#45;&gt;Node5</title>
<path fill="none" stroke="black" d="M145.64,-85.65C156.37,-84.28 167.22,-82.9 177.45,-81.59"/>
<polygon fill="black" stroke="black" points="144.88,-82.22 135.41,-86.96 145.77,-89.16 144.88,-82.22"/>
</g>
<!-- Node4 -->
<g id="node5" class="node">
<title>Node4</title>
<g id="a_node5"><a xlink:href="group__domains.html" target="_top" xlink:title="This module covers simple and straight&#45;forward extensions to the RNA folding grammar.">
<polygon fill="none" stroke="black" points="297,-41 171,-41 171,0 297,0 297,-41"/>
<text text-anchor="start" x="179" y="-29" font-family="Helvetica,sans-Serif" font-size="10.00">Extending the Folding</text>
<text text-anchor="start" x="179" y="-18" font-family="Helvetica,sans-Serif" font-size="10.00"> Grammar with Additional</text>
<text text-anchor="middle" x="234" y="-7" font-family="Helvetica,sans-Serif" font-size="10.00"> Domains</text>
</a>
</g>
</g>
<!-- Node1&#45;&gt;Node4 -->
<g id="edge3" class="edge">
<title>Node1&#45;&gt;Node4</title>
<path fill="none" stroke="black" d="M98.98,-81.6C123.89,-70.25 159.47,-54.03 187.71,-41.15"/>
<polygon fill="black" stroke="black" points="97.32,-78.52 89.67,-85.85 100.22,-84.88 97.32,-78.52"/>
</g>
</g>
</svg>
