<?xml version="1.0" encoding="UTF-8" standalone="no"?>
<!DOCTYPE svg PUBLIC "-//W3C//DTD SVG 1.1//EN"
 "http://www.w3.org/Graphics/SVG/1.1/DTD/svg11.dtd">
<!-- Generated by graphviz version 2.47.0 (0)
 -->
<!-- Title: Combinatorics Algorithms Pages: 1 -->
<svg width="292pt" height="29pt"
 viewBox="0.00 0.00 292.00 28.50" xmlns="http://www.w3.org/2000/svg" xmlns:xlink="http://www.w3.org/1999/xlink">
<g id="graph0" class="graph" transform="scale(1 1) rotate(0) translate(4 24.5)">
<title>Combinatorics Algorithms</title>
<!-- Node1 -->
<g id="node1" class="node">
<title>Node1</title>
<g id="a_node1"><a xlink:title="Implementations to solve various combinatorial aspects for strings of objects.">
<polygon fill="#bfbfbf" stroke="black" points="128,-19 0,-19 0,0 128,0 128,-19"/>
<text text-anchor="middle" x="64" y="-7" font-family="Helvetica,sans-Serif" font-size="10.00">Combinatorics Algorithms</text>
</a>
</g>
</g>
<!-- Node2 -->
<g id="node2" class="node">
<title>Node2</title>
<g id="a_node2"><a xlink:href="group__utils.html" target="_top" xlink:title=" ">
<polygon fill="none" stroke="black" points="284,-19 234,-19 234,0 284,0 284,-19"/>
<text text-anchor="middle" x="259" y="-7" font-family="Helvetica,sans-Serif" font-size="10.00">Utilities</text>
</a>
</g>
</g>
<!-- Node1&#45;&gt;Node2 -->
<g id="edge2" class="edge">
<title>Node1&#45;&gt;Node2</title>
<path fill="none" stroke="darkgreen" stroke-dasharray="5,2" d="M128.2,-9.5C164.25,-9.5 207.38,-9.5 233.73,-9.5"/>
<text text-anchor="middle" x="181" y="-12.5" font-family="Helvetica,sans-Serif" font-size="10.00">combinatorics.h</text>
</g>
<!-- Node2&#45;&gt;Node1 -->
<g id="edge1" class="edge">
<title>Node2&#45;&gt;Node1</title>
<path fill="none" stroke="black" d="M223.37,-7.72C220.88,-7.63 218.4,-7.56 216,-7.5 187.17,-6.81 155.24,-7.09 128.19,-7.62"/>
<polygon fill="black" stroke="black" points="223.44,-11.23 233.58,-8.14 223.73,-4.23 223.44,-11.23"/>
</g>
</g>
</svg>
