<?xml version="1.0" encoding="UTF-8" standalone="no"?>
<!DOCTYPE svg PUBLIC "-//W3C//DTD SVG 1.1//EN"
 "http://www.w3.org/Graphics/SVG/1.1/DTD/svg11.dtd">
<!-- Generated by graphviz version 2.47.0 (0)
 -->
<!-- Title: Files and I/O Pages: 1 -->
<svg width="349pt" height="248pt"
 viewBox="0.00 0.00 349.00 248.42" xmlns="http://www.w3.org/2000/svg" xmlns:xlink="http://www.w3.org/1999/xlink">
<g id="graph0" class="graph" transform="scale(1 1) rotate(0) translate(4 244.42)">
<title>Files and I/O</title>
<!-- Node5 -->
<g id="node1" class="node">
<title>Node5</title>
<g id="a_node1"><a xlink:href="group__command__files.html" target="_top" xlink:title="Functions to parse and interpret the content of Command Files.">
<polygon fill="none" stroke="black" points="310,-232.68 224,-232.68 224,-213.68 310,-213.68 310,-232.68"/>
<text text-anchor="middle" x="267" y="-220.68" font-family="Helvetica,sans-Serif" font-size="10.00">Command Files</text>
</a>
</g>
</g>
<!-- Node3 -->
<g id="node2" class="node">
<title>Node3</title>
<g id="a_node2"><a xlink:href="group__file__formats.html" target="_top" xlink:title="Functions to read/write different file formats for nucleic acid sequences and secondary structures.">
<polygon fill="none" stroke="black" points="328.5,-179.18 205.5,-179.18 205.5,-149.18 328.5,-149.18 328.5,-179.18"/>
<text text-anchor="start" x="213.5" y="-167.18" font-family="Helvetica,sans-Serif" font-size="10.00">Nucleic Acid Sequences</text>
<text text-anchor="middle" x="267" y="-156.18" font-family="Helvetica,sans-Serif" font-size="10.00"> and Structures</text>
</a>
</g>
</g>
<!-- Node1 -->
<g id="node3" class="node">
<title>Node1</title>
<g id="a_node3"><a xlink:title="Functions to parse, write, and convert various file formats and to deal with file system related issu...">
<polygon fill="#bfbfbf" stroke="black" points="73,-132.68 0,-132.68 0,-113.68 73,-113.68 73,-132.68"/>
<text text-anchor="middle" x="36.5" y="-120.68" font-family="Helvetica,sans-Serif" font-size="10.00">Files and I/O</text>
</a>
</g>
</g>
<!-- Node1&#45;&gt;Node5 -->
<g id="edge4" class="edge">
<title>Node1&#45;&gt;Node5</title>
<path fill="none" stroke="black" d="M41.72,-142.66C47.98,-166.23 62.22,-204.91 91,-222.18 133.85,-247.9 193.89,-240.97 231.34,-232.74"/>
<polygon fill="black" stroke="black" points="45.07,-141.64 39.32,-132.74 38.27,-143.28 45.07,-141.64"/>
</g>
<!-- Node1&#45;&gt;Node5 -->
<g id="edge6" class="edge">
<title>Node1&#45;&gt;Node5</title>
<path fill="none" stroke="darkgreen" stroke-dasharray="5,2" d="M43.47,-132.79C52.21,-146.04 69.79,-169.69 91,-182.18 113.18,-195.24 179.47,-208.5 223.79,-216.27"/>
<text text-anchor="middle" x="133" y="-209.18" font-family="Helvetica,sans-Serif" font-size="10.00">commands.h</text>
</g>
<!-- Node1&#45;&gt;Node3 -->
<g id="edge2" class="edge">
<title>Node1&#45;&gt;Node3</title>
<path fill="none" stroke="black" d="M54.03,-139.93C63.85,-148.68 77.09,-158.51 91,-163.18 127.58,-175.46 170.93,-175.8 205.34,-173.02"/>
<polygon fill="black" stroke="black" points="56.32,-137.28 46.64,-132.98 51.52,-142.38 56.32,-137.28"/>
</g>
<!-- Node1&#45;&gt;Node3 -->
<g id="edge7" class="edge">
<title>Node1&#45;&gt;Node3</title>
<path fill="none" stroke="darkgreen" stroke-dasharray="5,2" d="M73.2,-129.58C108.47,-135.91 163.1,-145.71 205.22,-153.27"/>
<text text-anchor="middle" x="133" y="-150.18" font-family="Helvetica,sans-Serif" font-size="10.00">file_formats.h</text>
</g>
<!-- Node2 -->
<g id="node4" class="node">
<title>Node2</title>
<g id="a_node4"><a xlink:href="group__utils.html" target="_top" xlink:title=" ">
<polygon fill="none" stroke="black" points="292,-80.68 242,-80.68 242,-61.68 292,-61.68 292,-80.68"/>
<text text-anchor="middle" x="267" y="-68.68" font-family="Helvetica,sans-Serif" font-size="10.00">Utilities</text>
</a>
</g>
</g>
<!-- Node1&#45;&gt;Node2 -->
<g id="edge5" class="edge">
<title>Node1&#45;&gt;Node2</title>
<path fill="none" stroke="darkgreen" stroke-dasharray="5,2" d="M52.34,-113.62C62.75,-107.37 77.22,-99.58 91,-95.18 143.14,-78.52 207.65,-73.42 241.93,-71.86"/>
<text text-anchor="middle" x="133" y="-120.18" font-family="Helvetica,sans-Serif" font-size="10.00">commands.h</text>
<text text-anchor="middle" x="133" y="-109.18" font-family="Helvetica,sans-Serif" font-size="10.00">file_formats_msa.h</text>
<text text-anchor="middle" x="133" y="-98.18" font-family="Helvetica,sans-Serif" font-size="10.00">utils.h</text>
</g>
<!-- Node4 -->
<g id="node5" class="node">
<title>Node4</title>
<g id="a_node5"><a xlink:href="group__file__formats__msa.html" target="_top" xlink:title="Functions to read/write multiple sequence alignments (MSA) in various file formats.">
<polygon fill="none" stroke="black" points="341,-36.68 193,-36.68 193,-17.68 341,-17.68 341,-36.68"/>
<text text-anchor="middle" x="267" y="-24.68" font-family="Helvetica,sans-Serif" font-size="10.00">Multiple Sequence Alignments</text>
</a>
</g>
</g>
<!-- Node1&#45;&gt;Node4 -->
<g id="edge3" class="edge">
<title>Node1&#45;&gt;Node4</title>
<path fill="none" stroke="black" d="M47.73,-104.14C56.96,-88.9 72,-68.3 91,-57.18 121.46,-39.34 159.68,-31.46 192.62,-28.2"/>
<polygon fill="black" stroke="black" points="44.46,-102.8 42.52,-113.22 50.53,-106.29 44.46,-102.8"/>
</g>
<!-- Node1&#45;&gt;Node4 -->
<g id="edge8" class="edge">
<title>Node1&#45;&gt;Node4</title>
<path fill="none" stroke="darkgreen" stroke-dasharray="5,2" d="M38.93,-113.52C42.76,-91.57 55.49,-38.12 91,-16.18 138.13,12.95 206.7,-4.9 242.4,-17.65"/>
<text text-anchor="middle" x="133" y="-19.18" font-family="Helvetica,sans-Serif" font-size="10.00">file_formats_msa.h</text>
</g>
<!-- Node2&#45;&gt;Node1 -->
<g id="edge1" class="edge">
<title>Node2&#45;&gt;Node1</title>
<path fill="none" stroke="black" d="M231.69,-65.49C195.39,-60.97 137.08,-58.05 91,-76.18 71.44,-83.87 54.27,-102.07 44.93,-113.43"/>
<polygon fill="black" stroke="black" points="231.39,-68.98 241.77,-66.86 232.33,-62.05 231.39,-68.98"/>
</g>
</g>
</svg>
