<?xml version="1.0" encoding="UTF-8" standalone="no"?>
<!DOCTYPE svg PUBLIC "-//W3C//DTD SVG 1.1//EN"
 "http://www.w3.org/Graphics/SVG/1.1/DTD/svg11.dtd">
<!-- Generated by graphviz version 2.47.0 (0)
 -->
<!-- Title: Utilities Pages: 1 -->
<svg width="326pt" height="717pt"
 viewBox="0.00 0.00 326.00 716.98" xmlns="http://www.w3.org/2000/svg" xmlns:xlink="http://www.w3.org/1999/xlink">
<g id="graph0" class="graph" transform="scale(1 1) rotate(0) translate(4 712.98)">
<title>Utilities</title>
<!-- Node13 -->
<g id="node1" class="node">
<title>Node13</title>
<g id="a_node1"><a xlink:href="group__command__files.html" target="_top" xlink:title="Functions to parse and interpret the content of Command Files.">
<polygon fill="none" stroke="black" points="287,-704.48 201,-704.48 201,-685.48 287,-685.48 287,-704.48"/>
<text text-anchor="middle" x="244" y="-692.48" font-family="Helvetica,sans-Serif" font-size="10.00">Command Files</text>
</a>
</g>
</g>
<!-- Node11 -->
<g id="node2" class="node">
<title>Node11</title>
<g id="a_node2"><a xlink:href="group__message__utils.html" target="_top" xlink:title="Functions to print various kind of messages.">
<polygon fill="none" stroke="black" points="275,-667.48 213,-667.48 213,-648.48 275,-648.48 275,-667.48"/>
<text text-anchor="middle" x="244" y="-655.48" font-family="Helvetica,sans-Serif" font-size="10.00">Messages</text>
</a>
</g>
</g>
<!-- Node10 -->
<g id="node3" class="node">
<title>Node10</title>
<g id="a_node3"><a xlink:href="group__data__structures.html" target="_top" xlink:title="All datastructures and typedefs shared among the ViennaRNA Package can be found here.">
<polygon fill="none" stroke="black" points="309.5,-630.48 178.5,-630.48 178.5,-611.48 309.5,-611.48 309.5,-630.48"/>
<text text-anchor="middle" x="244" y="-618.48" font-family="Helvetica,sans-Serif" font-size="10.00">(Abstract) Data Structures</text>
</a>
</g>
</g>
<!-- Node9 -->
<g id="node4" class="node">
<title>Node9</title>
<g id="a_node4"><a xlink:href="group__combinatorics__utils.html" target="_top" xlink:title="Implementations to solve various combinatorial aspects for strings of objects.">
<polygon fill="none" stroke="black" points="308,-592.48 180,-592.48 180,-573.48 308,-573.48 308,-592.48"/>
<text text-anchor="middle" x="244" y="-580.48" font-family="Helvetica,sans-Serif" font-size="10.00">Combinatorics Algorithms</text>
</a>
</g>
</g>
<!-- Node4 -->
<g id="node5" class="node">
<title>Node4</title>
<g id="a_node5"><a xlink:href="group__struct__utils.html" target="_top" xlink:title="Functions to create, parse, convert, manipulate, and compare secondary structure representations.">
<polygon fill="none" stroke="black" points="297,-552.98 191,-552.98 191,-522.98 297,-522.98 297,-552.98"/>
<text text-anchor="start" x="199" y="-540.98" font-family="Helvetica,sans-Serif" font-size="10.00">Secondary Structure</text>
<text text-anchor="middle" x="244" y="-529.98" font-family="Helvetica,sans-Serif" font-size="10.00"> Utilities</text>
</a>
</g>
</g>
<!-- Node12 -->
<g id="node6" class="node">
<title>Node12</title>
<g id="a_node6"><a xlink:href="group__units.html" target="_top" xlink:title="Functions to convert between various physical units.">
<polygon fill="none" stroke="black" points="287.5,-500.48 200.5,-500.48 200.5,-481.48 287.5,-481.48 287.5,-500.48"/>
<text text-anchor="middle" x="244" y="-488.48" font-family="Helvetica,sans-Serif" font-size="10.00">Unit Conversion</text>
</a>
</g>
</g>
<!-- Node3 -->
<g id="node7" class="node">
<title>Node3</title>
<g id="a_node7"><a xlink:href="group__string__utils.html" target="_top" xlink:title="Functions to parse, convert, manipulate, create, and compare (nucleic acid sequence) strings.">
<polygon fill="none" stroke="black" points="306,-452.98 182,-452.98 182,-422.98 306,-422.98 306,-452.98"/>
<text text-anchor="start" x="190" y="-440.98" font-family="Helvetica,sans-Serif" font-size="10.00">(Nucleic Acid Sequence)</text>
<text text-anchor="middle" x="244" y="-429.98" font-family="Helvetica,sans-Serif" font-size="10.00"> String Utilitites</text>
</a>
</g>
</g>
<!-- Node2 -->
<g id="node8" class="node">
<title>Node2</title>
<g id="a_node8"><a xlink:href="group__alphabet__utils.html" target="_top" xlink:title="Functions to cope with various aspects related to the nucleotide sequence alphabet.">
<polygon fill="none" stroke="black" points="300,-388.98 188,-388.98 188,-358.98 300,-358.98 300,-388.98"/>
<text text-anchor="start" x="196" y="-376.98" font-family="Helvetica,sans-Serif" font-size="10.00">Utilities to deal with</text>
<text text-anchor="middle" x="244" y="-365.98" font-family="Helvetica,sans-Serif" font-size="10.00"> Nucleotide Alphabets</text>
</a>
</g>
</g>
<!-- Node7 -->
<g id="node9" class="node">
<title>Node7</title>
<g id="a_node9"><a xlink:href="group__plotting__utils.html" target="_top" xlink:title="Functions for Creating Secondary Structure Plots, Dot&#45;Plots, and More.">
<polygon fill="none" stroke="black" points="269,-321.48 219,-321.48 219,-302.48 269,-302.48 269,-321.48"/>
<text text-anchor="middle" x="244" y="-309.48" font-family="Helvetica,sans-Serif" font-size="10.00">Plotting</text>
</a>
</g>
</g>
<!-- Node8 -->
<g id="node10" class="node">
<title>Node8</title>
<g id="a_node10"><a xlink:href="group__search__utils.html" target="_top" xlink:title="Implementations of various search algorithms to detect strings of objects within other strings of obj...">
<polygon fill="none" stroke="black" points="292,-262.48 196,-262.48 196,-243.48 292,-243.48 292,-262.48"/>
<text text-anchor="middle" x="244" y="-250.48" font-family="Helvetica,sans-Serif" font-size="10.00">Search Algorithms</text>
</a>
</g>
</g>
<!-- Node6 -->
<g id="node11" class="node">
<title>Node6</title>
<g id="a_node11"><a xlink:href="group__file__utils.html" target="_top" xlink:title="Functions to parse, write, and convert various file formats and to deal with file system related issu...">
<polygon fill="none" stroke="black" points="280.5,-192.48 207.5,-192.48 207.5,-173.48 280.5,-173.48 280.5,-192.48"/>
<text text-anchor="middle" x="244" y="-180.48" font-family="Helvetica,sans-Serif" font-size="10.00">Files and I/O</text>
</a>
</g>
</g>
<!-- Node1 -->
<g id="node12" class="node">
<title>Node1</title>
<g id="a_node12"><a xlink:title=" ">
<polygon fill="#bfbfbf" stroke="black" points="50,-385.48 0,-385.48 0,-366.48 50,-366.48 50,-385.48"/>
<text text-anchor="middle" x="25" y="-373.48" font-family="Helvetica,sans-Serif" font-size="10.00">Utilities</text>
</a>
</g>
</g>
<!-- Node1&#45;&gt;Node13 -->
<g id="edge15" class="edge">
<title>Node1&#45;&gt;Node13</title>
<path fill="none" stroke="darkgreen" stroke-dasharray="5,2" d="M25.97,-385.49C26.02,-430.56 28.57,-622.12 68,-662.98 101.99,-698.2 160.98,-702.08 200.98,-699.92"/>
<text text-anchor="middle" x="110" y="-700.98" font-family="Helvetica,sans-Serif" font-size="10.00">commands.h</text>
</g>
<!-- Node1&#45;&gt;Node11 -->
<g id="edge10" class="edge">
<title>Node1&#45;&gt;Node11</title>
<path fill="none" stroke="black" d="M26.3,-395.79C27.56,-450.35 34.1,-600.92 68,-633.98 106.31,-671.34 173.7,-668.92 212.73,-663.59"/>
<polygon fill="black" stroke="black" points="29.8,-395.62 26.1,-385.69 22.8,-395.75 29.8,-395.62"/>
</g>
<!-- Node1&#45;&gt;Node10 -->
<g id="edge9" class="edge">
<title>Node1&#45;&gt;Node10</title>
<path fill="none" stroke="black" d="M26.62,-395.78C28.65,-446.45 36.87,-578.82 68,-606.98 103.82,-639.39 162.37,-637.03 201.77,-630.54"/>
<polygon fill="black" stroke="black" points="30.11,-395.38 26.25,-385.51 23.11,-395.63 30.11,-395.38"/>
</g>
<!-- Node1&#45;&gt;Node9 -->
<g id="edge8" class="edge">
<title>Node1&#45;&gt;Node9</title>
<path fill="none" stroke="black" d="M26.94,-395.72C29.64,-442.79 39.15,-559.39 68,-582.98 109.87,-617.21 178.12,-603.84 215.82,-592.51"/>
<polygon fill="black" stroke="black" points="30.43,-395.39 26.41,-385.59 23.44,-395.76 30.43,-395.39"/>
</g>
<!-- Node1&#45;&gt;Node9 -->
<g id="edge13" class="edge">
<title>Node1&#45;&gt;Node9</title>
<path fill="none" stroke="darkgreen" stroke-dasharray="5,2" d="M26.99,-385.64C30.55,-418.61 43.86,-525.93 68,-548.98 76.25,-556.86 133.09,-566.95 179.79,-574.08"/>
<text text-anchor="middle" x="110" y="-571.98" font-family="Helvetica,sans-Serif" font-size="10.00">combinatorics.h</text>
</g>
<!-- Node1&#45;&gt;Node4 -->
<g id="edge3" class="edge">
<title>Node1&#45;&gt;Node4</title>
<path fill="none" stroke="black" d="M25.22,-396.13C25.19,-428.32 30.35,-490.84 68,-521.98 101.74,-549.88 152.64,-551.53 190.86,-547.59"/>
<polygon fill="black" stroke="black" points="28.73,-395.83 25.42,-385.76 21.73,-395.7 28.73,-395.83"/>
</g>
<!-- Node1&#45;&gt;Node12 -->
<g id="edge11" class="edge">
<title>Node1&#45;&gt;Node12</title>
<path fill="none" stroke="black" d="M26.19,-396.15C27.68,-424.54 35.09,-475.44 68,-498.98 113.15,-531.27 182.86,-513.45 219.17,-500.56"/>
<polygon fill="black" stroke="black" points="29.68,-395.71 25.86,-385.83 22.68,-395.93 29.68,-395.71"/>
</g>
<!-- Node1&#45;&gt;Node12 -->
<g id="edge20" class="edge">
<title>Node1&#45;&gt;Node12</title>
<path fill="none" stroke="darkgreen" stroke-dasharray="5,2" d="M27.81,-385.72C31.71,-403.72 42.67,-442.08 68,-460.98 88.39,-476.18 155.19,-484.25 200.11,-488.06"/>
<text text-anchor="middle" x="110" y="-484.98" font-family="Helvetica,sans-Serif" font-size="10.00">units.h</text>
</g>
<!-- Node1&#45;&gt;Node3 -->
<g id="edge2" class="edge">
<title>Node1&#45;&gt;Node3</title>
<path fill="none" stroke="black" d="M32.68,-395.09C39.13,-410.3 50.52,-430.54 68,-439.98 102.49,-458.6 146.66,-457.94 181.99,-452.71"/>
<polygon fill="black" stroke="black" points="35.87,-393.62 28.99,-385.56 29.34,-396.15 35.87,-393.62"/>
</g>
<!-- Node1&#45;&gt;Node3 -->
<g id="edge19" class="edge">
<title>Node1&#45;&gt;Node3</title>
<path fill="none" stroke="darkgreen" stroke-dasharray="5,2" d="M45.35,-385.63C52.37,-388.89 60.44,-392.36 68,-394.98 105.11,-407.81 147.89,-418.39 181.87,-425.85"/>
<text text-anchor="middle" x="110" y="-420.98" font-family="Helvetica,sans-Serif" font-size="10.00">strings.h</text>
</g>
<!-- Node1&#45;&gt;Node2 -->
<g id="edge1" class="edge">
<title>Node1&#45;&gt;Node2</title>
<path fill="none" stroke="black" d="M60.6,-380.43C63.1,-380.65 65.59,-380.84 68,-380.98 108.07,-383.35 153.34,-381.42 187.8,-378.99"/>
<polygon fill="black" stroke="black" points="60.69,-376.92 50.39,-379.38 59.98,-383.88 60.69,-376.92"/>
</g>
<!-- Node1&#45;&gt;Node2 -->
<g id="edge12" class="edge">
<title>Node1&#45;&gt;Node2</title>
<path fill="none" stroke="darkgreen" stroke-dasharray="5,2" d="M40.9,-366.4C48.66,-361.98 58.48,-357.23 68,-354.98 108.15,-345.5 154.62,-351.3 189.58,-358.9"/>
<text text-anchor="middle" x="110" y="-368.98" font-family="Helvetica,sans-Serif" font-size="10.00">alphabet.h</text>
<text text-anchor="middle" x="110" y="-357.98" font-family="Helvetica,sans-Serif" font-size="10.00">sequence.h</text>
</g>
<!-- Node1&#45;&gt;Node7 -->
<g id="edge6" class="edge">
<title>Node1&#45;&gt;Node7</title>
<path fill="none" stroke="black" d="M44.64,-360.05C51.58,-354.85 59.78,-349.51 68,-345.98 118.9,-324.09 184.18,-316.19 218.84,-313.42"/>
<polygon fill="black" stroke="black" points="42.28,-357.46 36.61,-366.42 46.62,-362.95 42.28,-357.46"/>
</g>
<!-- Node1&#45;&gt;Node7 -->
<g id="edge17" class="edge">
<title>Node1&#45;&gt;Node7</title>
<path fill="none" stroke="darkgreen" stroke-dasharray="5,2" d="M28.53,-366.44C33.27,-350.72 45.14,-319.83 68,-306.98 115.83,-280.1 183.21,-293.61 218.79,-303.92"/>
<text text-anchor="middle" x="110" y="-309.98" font-family="Helvetica,sans-Serif" font-size="10.00">utils.h</text>
</g>
<!-- Node1&#45;&gt;Node8 -->
<g id="edge7" class="edge">
<title>Node1&#45;&gt;Node8</title>
<path fill="none" stroke="black" d="M29.76,-356.59C34.8,-336.04 45.82,-304.22 68,-286.98 104.41,-258.67 157.72,-251.8 195.92,-251"/>
<polygon fill="black" stroke="black" points="26.33,-355.91 27.59,-366.43 33.16,-357.41 26.33,-355.91"/>
</g>
<!-- Node1&#45;&gt;Node8 -->
<g id="edge21" class="edge">
<title>Node1&#45;&gt;Node8</title>
<path fill="none" stroke="darkgreen" stroke-dasharray="5,2" d="M25.5,-366.28C24.78,-340.52 26.84,-270.35 68,-239.98 113.97,-206.07 186.48,-228.8 221.99,-243.4"/>
<text text-anchor="middle" x="110" y="-242.98" font-family="Helvetica,sans-Serif" font-size="10.00">BoyerMoore.h</text>
</g>
<!-- Node1&#45;&gt;Node6 -->
<g id="edge5" class="edge">
<title>Node1&#45;&gt;Node6</title>
<path fill="none" stroke="black" d="M25.27,-356.07C25.22,-323.02 30.22,-256.89 68,-220.98 87.72,-202.24 162.26,-191.36 207.45,-186.36"/>
<polygon fill="black" stroke="black" points="21.78,-356.35 25.46,-366.28 28.78,-356.22 21.78,-356.35"/>
</g>
<!-- Node1&#45;&gt;Node6 -->
<g id="edge14" class="edge">
<title>Node1&#45;&gt;Node6</title>
<path fill="none" stroke="darkgreen" stroke-dasharray="5,2" d="M26.29,-366.35C27.68,-327.64 35.03,-184.23 68,-156.98 114.76,-118.33 193.53,-154.79 227.09,-173.47"/>
<text text-anchor="middle" x="110" y="-181.98" font-family="Helvetica,sans-Serif" font-size="10.00">commands.h</text>
<text text-anchor="middle" x="110" y="-170.98" font-family="Helvetica,sans-Serif" font-size="10.00">file_formats_msa.h</text>
<text text-anchor="middle" x="110" y="-159.98" font-family="Helvetica,sans-Serif" font-size="10.00">utils.h</text>
</g>
<!-- Node15 -->
<g id="node13" class="node">
<title>Node15</title>
<g id="a_node13"><a xlink:href="group__buffer__utils.html" target="_top" xlink:title="Functions that provide dynamically buffered stream&#45;like data structures.">
<polygon fill="none" stroke="black" points="268,-123.48 220,-123.48 220,-104.48 268,-104.48 268,-123.48"/>
<text text-anchor="middle" x="244" y="-111.48" font-family="Helvetica,sans-Serif" font-size="10.00">Buffers</text>
</a>
</g>
</g>
<!-- Node1&#45;&gt;Node15 -->
<g id="edge22" class="edge">
<title>Node1&#45;&gt;Node15</title>
<path fill="none" stroke="darkgreen" stroke-dasharray="5,2" d="M25.96,-366.25C25.99,-322.74 28.6,-146.59 68,-112.98 90.19,-94.05 177.53,-104.08 219.82,-110.27"/>
<text text-anchor="middle" x="110" y="-126.98" font-family="Helvetica,sans-Serif" font-size="10.00">char_stream.h</text>
<text text-anchor="middle" x="110" y="-115.98" font-family="Helvetica,sans-Serif" font-size="10.00">stream_output.h</text>
</g>
<!-- Node5 -->
<g id="node14" class="node">
<title>Node5</title>
<g id="a_node14"><a xlink:href="group__aln__utils.html" target="_top" xlink:title="Functions to extract features from and to manipulate multiple sequence alignments.">
<polygon fill="none" stroke="black" points="315.5,-82.98 172.5,-82.98 172.5,-52.98 315.5,-52.98 315.5,-82.98"/>
<text text-anchor="start" x="180.5" y="-70.98" font-family="Helvetica,sans-Serif" font-size="10.00">Multiple Sequence Alignment</text>
<text text-anchor="middle" x="244" y="-59.98" font-family="Helvetica,sans-Serif" font-size="10.00"> Utilities</text>
</a>
</g>
</g>
<!-- Node1&#45;&gt;Node5 -->
<g id="edge4" class="edge">
<title>Node1&#45;&gt;Node5</title>
<path fill="none" stroke="black" d="M26.1,-356.23C26.82,-298.98 32.04,-134.66 68,-97.98 82.57,-83.12 130.44,-75.59 172.43,-71.79"/>
<polygon fill="black" stroke="black" points="22.6,-356.43 26.01,-366.46 29.6,-356.49 22.6,-356.43"/>
</g>
<!-- Node1&#45;&gt;Node5 -->
<g id="edge18" class="edge">
<title>Node1&#45;&gt;Node5</title>
<path fill="none" stroke="darkgreen" stroke-dasharray="5,2" d="M26.54,-366.18C29.48,-314.99 44.2,-79.83 68,-58.98 105.87,-25.8 167.91,-39.28 207.05,-52.96"/>
<text text-anchor="middle" x="110" y="-61.98" font-family="Helvetica,sans-Serif" font-size="10.00">alignments.h</text>
</g>
<!-- Node14 -->
<g id="node15" class="node">
<title>Node14</title>
<g id="a_node15"><a xlink:href="group__file__formats__msa.html" target="_top" xlink:title="Functions to read/write multiple sequence alignments (MSA) in various file formats.">
<polygon fill="none" stroke="black" points="318,-30.48 170,-30.48 170,-11.48 318,-11.48 318,-30.48"/>
<text text-anchor="middle" x="244" y="-18.48" font-family="Helvetica,sans-Serif" font-size="10.00">Multiple Sequence Alignments</text>
</a>
</g>
</g>
<!-- Node1&#45;&gt;Node14 -->
<g id="edge16" class="edge">
<title>Node1&#45;&gt;Node14</title>
<path fill="none" stroke="darkgreen" stroke-dasharray="5,2" d="M26.41,-366.2C28.82,-311.78 41.8,-47.65 68,-23.98 108.03,12.17 176.68,-0.36 215.02,-11.45"/>
<text text-anchor="middle" x="110" y="-26.98" font-family="Helvetica,sans-Serif" font-size="10.00">file_formats_msa.h</text>
</g>
</g>
</svg>
