<?xml version="1.0" encoding="UTF-8" standalone="no"?>
<!DOCTYPE svg PUBLIC "-//W3C//DTD SVG 1.1//EN"
 "http://www.w3.org/Graphics/SVG/1.1/DTD/svg11.dtd">
<!-- Generated by graphviz version 2.47.0 (0)
 -->
<!-- Title: Secondary Structure Utilities Pages: 1 -->
<svg width="394pt" height="397pt"
 viewBox="0.00 0.00 394.00 396.50" xmlns="http://www.w3.org/2000/svg" xmlns:xlink="http://www.w3.org/1999/xlink">
<g id="graph0" class="graph" transform="scale(1 1) rotate(0) translate(4 392.5)">
<title>Secondary Structure Utilities</title>
<!-- Node6 -->
<g id="node1" class="node">
<title>Node6</title>
<g id="a_node1"><a xlink:href="group__struct__utils__plist.html" target="_top" xlink:title=" ">
<polygon fill="none" stroke="black" points="369.5,-388.5 244.5,-388.5 244.5,-358.5 369.5,-358.5 369.5,-388.5"/>
<text text-anchor="start" x="252.5" y="-376.5" font-family="Helvetica,sans-Serif" font-size="10.00">Pair List Representation</text>
<text text-anchor="middle" x="307" y="-365.5" font-family="Helvetica,sans-Serif" font-size="10.00"> of Secondary Structures</text>
</a>
</g>
</g>
<!-- Node9 -->
<g id="node2" class="node">
<title>Node9</title>
<g id="a_node2"><a xlink:href="group__struct__utils__tree.html" target="_top" xlink:title="Secondary structures can be readily represented as trees, where internal nodes represent base pairs,...">
<polygon fill="none" stroke="black" points="369.5,-340.5 244.5,-340.5 244.5,-310.5 369.5,-310.5 369.5,-340.5"/>
<text text-anchor="start" x="252.5" y="-328.5" font-family="Helvetica,sans-Serif" font-size="10.00">Tree Representation</text>
<text text-anchor="middle" x="307" y="-317.5" font-family="Helvetica,sans-Serif" font-size="10.00"> of Secondary Structures</text>
</a>
</g>
</g>
<!-- Node3 -->
<g id="node3" class="node">
<title>Node3</title>
<g id="a_node3"><a xlink:href="group__struct__utils__dot__bracket.html" target="_top" xlink:title="The Dot&#45;Bracket notation as introduced already in the early times of the ViennaRNA Package denotes ba...">
<polygon fill="none" stroke="black" points="369.5,-292.5 244.5,-292.5 244.5,-262.5 369.5,-262.5 369.5,-292.5"/>
<text text-anchor="start" x="252.5" y="-280.5" font-family="Helvetica,sans-Serif" font-size="10.00">Dot&#45;Bracket Notation</text>
<text text-anchor="middle" x="307" y="-269.5" font-family="Helvetica,sans-Serif" font-size="10.00"> of Secondary Structures</text>
</a>
</g>
</g>
<!-- Node7 -->
<g id="node4" class="node">
<title>Node7</title>
<g id="a_node4"><a xlink:href="group__struct__utils__abstract__shapes.html" target="_top" xlink:title="Abstract Shapes, introduced by Giegerich et al. in (2004) , collapse the secondary structure while re...">
<polygon fill="none" stroke="black" points="386,-244.5 228,-244.5 228,-214.5 386,-214.5 386,-244.5"/>
<text text-anchor="start" x="236" y="-232.5" font-family="Helvetica,sans-Serif" font-size="10.00">Abstract Shapes Representation</text>
<text text-anchor="middle" x="307" y="-221.5" font-family="Helvetica,sans-Serif" font-size="10.00"> of Secondary Structures</text>
</a>
</g>
</g>
<!-- Node1 -->
<g id="node5" class="node">
<title>Node1</title>
<g id="a_node5"><a xlink:title="Functions to create, parse, convert, manipulate, and compare secondary structure representations.">
<polygon fill="#bfbfbf" stroke="black" points="192,-220.5 86,-220.5 86,-190.5 192,-190.5 192,-220.5"/>
<text text-anchor="start" x="94" y="-208.5" font-family="Helvetica,sans-Serif" font-size="10.00">Secondary Structure</text>
<text text-anchor="middle" x="139" y="-197.5" font-family="Helvetica,sans-Serif" font-size="10.00"> Utilities</text>
</a>
</g>
</g>
<!-- Node1&#45;&gt;Node6 -->
<g id="edge5" class="edge">
<title>Node1&#45;&gt;Node6</title>
<path fill="none" stroke="black" d="M148.68,-230.15C161.24,-262.27 187.49,-318.04 228,-349.5 232.92,-353.32 238.46,-356.54 244.25,-359.25"/>
<polygon fill="black" stroke="black" points="151.89,-228.73 145.09,-220.61 145.34,-231.2 151.89,-228.73"/>
</g>
<!-- Node1&#45;&gt;Node9 -->
<g id="edge8" class="edge">
<title>Node1&#45;&gt;Node9</title>
<path fill="none" stroke="black" d="M156.01,-229.19C171.88,-250.95 198.1,-282.6 228,-301.5 233.39,-304.91 239.29,-307.86 245.37,-310.41"/>
<polygon fill="black" stroke="black" points="158.7,-226.94 150.06,-220.82 153,-230.99 158.7,-226.94"/>
</g>
<!-- Node1&#45;&gt;Node3 -->
<g id="edge2" class="edge">
<title>Node1&#45;&gt;Node3</title>
<path fill="none" stroke="black" d="M173.4,-225.78C189.52,-235.03 209.37,-245.65 228,-253.5 235.57,-256.69 243.72,-259.67 251.79,-262.37"/>
<polygon fill="black" stroke="black" points="174.78,-222.54 164.37,-220.53 171.25,-228.58 174.78,-222.54"/>
</g>
<!-- Node1&#45;&gt;Node7 -->
<g id="edge6" class="edge">
<title>Node1&#45;&gt;Node7</title>
<path fill="none" stroke="black" d="M202.17,-214.49C210.59,-215.71 219.32,-216.97 227.97,-218.22"/>
<polygon fill="black" stroke="black" points="202.47,-210.99 192.07,-213.03 201.46,-217.92 202.47,-210.99"/>
</g>
<!-- Node5 -->
<g id="node6" class="node">
<title>Node5</title>
<g id="a_node6"><a xlink:href="group__struct__utils__pair__table.html" target="_top" xlink:title=" ">
<polygon fill="none" stroke="black" points="371.5,-196.5 242.5,-196.5 242.5,-166.5 371.5,-166.5 371.5,-196.5"/>
<text text-anchor="start" x="250.5" y="-184.5" font-family="Helvetica,sans-Serif" font-size="10.00">Pair Table Representation</text>
<text text-anchor="middle" x="307" y="-173.5" font-family="Helvetica,sans-Serif" font-size="10.00"> of Secondary Structures</text>
</a>
</g>
</g>
<!-- Node1&#45;&gt;Node5 -->
<g id="edge4" class="edge">
<title>Node1&#45;&gt;Node5</title>
<path fill="none" stroke="black" d="M202,-196.54C215.21,-194.63 229.18,-192.61 242.45,-190.69"/>
<polygon fill="black" stroke="black" points="201.46,-193.08 192.07,-197.97 202.47,-200.01 201.46,-193.08"/>
</g>
<!-- Node8 -->
<g id="node8" class="node">
<title>Node8</title>
<g id="a_node8"><a xlink:href="group__struct__utils__helix__list.html" target="_top" xlink:title=" ">
<polygon fill="none" stroke="black" points="370.5,-148.5 243.5,-148.5 243.5,-118.5 370.5,-118.5 370.5,-148.5"/>
<text text-anchor="start" x="251.5" y="-136.5" font-family="Helvetica,sans-Serif" font-size="10.00">Helix List Representation</text>
<text text-anchor="middle" x="307" y="-125.5" font-family="Helvetica,sans-Serif" font-size="10.00"> of Secondary Structures</text>
</a>
</g>
</g>
<!-- Node1&#45;&gt;Node8 -->
<g id="edge7" class="edge">
<title>Node1&#45;&gt;Node8</title>
<path fill="none" stroke="black" d="M173.4,-185.22C189.52,-175.97 209.37,-165.35 228,-157.5 235.57,-154.31 243.72,-151.33 251.79,-148.63"/>
<polygon fill="black" stroke="black" points="171.25,-182.42 164.37,-190.47 174.78,-188.46 171.25,-182.42"/>
</g>
<!-- Node10 -->
<g id="node9" class="node">
<title>Node10</title>
<g id="a_node9"><a xlink:href="group__struct__utils__deprecated.html" target="_top" xlink:title=" ">
<polygon fill="none" stroke="black" points="368.5,-100 245.5,-100 245.5,-59 368.5,-59 368.5,-100"/>
<text text-anchor="start" x="253.5" y="-88" font-family="Helvetica,sans-Serif" font-size="10.00">Deprecated Interface</text>
<text text-anchor="start" x="253.5" y="-77" font-family="Helvetica,sans-Serif" font-size="10.00"> for Secondary Structure</text>
<text text-anchor="middle" x="307" y="-66" font-family="Helvetica,sans-Serif" font-size="10.00"> Utilities</text>
</a>
</g>
</g>
<!-- Node1&#45;&gt;Node10 -->
<g id="edge9" class="edge">
<title>Node1&#45;&gt;Node10</title>
<path fill="none" stroke="black" d="M156.58,-181.91C172.7,-160.49 198.93,-129.3 228,-109.5 233.4,-105.82 239.3,-102.51 245.38,-99.55"/>
<polygon fill="black" stroke="black" points="153.63,-180.02 150.52,-190.15 159.26,-184.17 153.63,-180.02"/>
</g>
<!-- Node4 -->
<g id="node10" class="node">
<title>Node4</title>
<g id="a_node10"><a xlink:href="group__struct__utils__wuss.html" target="_top" xlink:title="The WUSS notation, as frequently used for consensus secondary structures in Stockholm 1....">
<polygon fill="none" stroke="black" points="364.5,-41 249.5,-41 249.5,0 364.5,0 364.5,-41"/>
<text text-anchor="start" x="257.5" y="-29" font-family="Helvetica,sans-Serif" font-size="10.00">Washington University</text>
<text text-anchor="start" x="257.5" y="-18" font-family="Helvetica,sans-Serif" font-size="10.00"> Secondary Structure</text>
<text text-anchor="middle" x="307" y="-7" font-family="Helvetica,sans-Serif" font-size="10.00"> (WUSS) notation</text>
</a>
</g>
</g>
<!-- Node1&#45;&gt;Node4 -->
<g id="edge3" class="edge">
<title>Node1&#45;&gt;Node4</title>
<path fill="none" stroke="black" d="M147.88,-180.67C159.91,-146.56 185.99,-85.36 228,-49.5 234.26,-44.15 241.6,-39.75 249.23,-36.14"/>
<polygon fill="black" stroke="black" points="144.5,-179.74 144.6,-190.33 151.13,-181.99 144.5,-179.74"/>
</g>
<!-- Node2 -->
<g id="node7" class="node">
<title>Node2</title>
<g id="a_node7"><a xlink:href="group__utils.html" target="_top" xlink:title=" ">
<polygon fill="none" stroke="black" points="50,-215 0,-215 0,-196 50,-196 50,-215"/>
<text text-anchor="middle" x="25" y="-203" font-family="Helvetica,sans-Serif" font-size="10.00">Utilities</text>
</a>
</g>
</g>
<!-- Node2&#45;&gt;Node1 -->
<g id="edge1" class="edge">
<title>Node2&#45;&gt;Node1</title>
<path fill="none" stroke="black" d="M60.22,-205.5C68.35,-205.5 77.21,-205.5 85.93,-205.5"/>
<polygon fill="black" stroke="black" points="60.03,-202 50.03,-205.5 60.03,-209 60.03,-202"/>
</g>
</g>
</svg>
