<?xml version="1.0" encoding="UTF-8" standalone="no"?>
<!DOCTYPE svg PUBLIC "-//W3C//DTD SVG 1.1//EN"
 "http://www.w3.org/Graphics/SVG/1.1/DTD/svg11.dtd">
<!-- Generated by graphviz version 2.47.0 (0)
 -->
<!-- Title: Partition Function for Two Hybridized Sequences Pages: 1 -->
<svg width="352pt" height="89pt"
 viewBox="0.00 0.00 352.00 89.00" xmlns="http://www.w3.org/2000/svg" xmlns:xlink="http://www.w3.org/1999/xlink">
<g id="graph0" class="graph" transform="scale(1 1) rotate(0) translate(4 85)">
<title>Partition Function for Two Hybridized Sequences</title>
<!-- Node3 -->
<g id="node1" class="node">
<title>Node3</title>
<g id="a_node1"><a xlink:href="group__pf__fold.html" target="_top" xlink:title="Compute the partition function to assess various equilibrium properties.">
<polygon fill="none" stroke="black" points="344,-30 210,-30 210,0 344,0 344,-30"/>
<text text-anchor="start" x="218" y="-18" font-family="Helvetica,sans-Serif" font-size="10.00">Partition Function</text>
<text text-anchor="middle" x="277" y="-7" font-family="Helvetica,sans-Serif" font-size="10.00"> and Equilibrium Properties</text>
</a>
</g>
</g>
<!-- Node2 -->
<g id="node2" class="node">
<title>Node2</title>
<g id="a_node2"><a xlink:href="group__cofold.html" target="_top" xlink:title=" ">
<polygon fill="none" stroke="black" points="332.5,-75.5 221.5,-75.5 221.5,-56.5 332.5,-56.5 332.5,-75.5"/>
<text text-anchor="middle" x="277" y="-63.5" font-family="Helvetica,sans-Serif" font-size="10.00">RNA&#45;RNA Interaction</text>
</a>
</g>
</g>
<!-- Node1 -->
<g id="node3" class="node">
<title>Node1</title>
<g id="a_node3"><a xlink:title="Partition Function Cofolding.">
<polygon fill="#bfbfbf" stroke="black" points="101,-61.5 0,-61.5 0,-20.5 101,-20.5 101,-61.5"/>
<text text-anchor="start" x="8" y="-49.5" font-family="Helvetica,sans-Serif" font-size="10.00">Partition Function</text>
<text text-anchor="start" x="8" y="-38.5" font-family="Helvetica,sans-Serif" font-size="10.00"> for Two Hybridized</text>
<text text-anchor="middle" x="50.5" y="-27.5" font-family="Helvetica,sans-Serif" font-size="10.00"> Sequences</text>
</a>
</g>
</g>
<!-- Node2&#45;&gt;Node1 -->
<g id="edge1" class="edge">
<title>Node2&#45;&gt;Node1</title>
<path fill="none" stroke="black" d="M211.21,-57.31C204.72,-56.5 198.23,-55.72 192,-55 161.93,-51.53 128.17,-48.15 101.28,-45.58"/>
<polygon fill="black" stroke="black" points="211,-60.81 221.36,-58.6 211.87,-53.87 211,-60.81"/>
</g>
<!-- Node1&#45;&gt;Node3 -->
<g id="edge2" class="edge">
<title>Node1&#45;&gt;Node3</title>
<path fill="none" stroke="darkgreen" stroke-dasharray="5,2" d="M101.26,-35.08C107.24,-34.38 113.26,-33.67 119,-33 148.84,-29.52 181.88,-25.73 209.92,-22.52"/>
<text text-anchor="middle" x="155.5" y="-36" font-family="Helvetica,sans-Serif" font-size="10.00">concentrations.h</text>
</g>
<!-- Node1&#45;&gt;Node2 -->
<g id="edge3" class="edge">
<title>Node1&#45;&gt;Node2</title>
<path fill="none" stroke="darkgreen" stroke-dasharray="5,2" d="M101.21,-49.52C107.19,-50.42 113.23,-51.27 119,-52 152.94,-56.27 191.17,-59.71 221.4,-62.11"/>
<text text-anchor="middle" x="155.5" y="-73" font-family="Helvetica,sans-Serif" font-size="10.00">concentrations.h</text>
<text text-anchor="middle" x="155.5" y="-62" font-family="Helvetica,sans-Serif" font-size="10.00">part_func_up.h</text>
</g>
</g>
</svg>
