<?xml version="1.0" encoding="UTF-8" standalone="no"?>
<!DOCTYPE svg PUBLIC "-//W3C//DTD SVG 1.1//EN"
 "http://www.w3.org/Graphics/SVG/1.1/DTD/svg11.dtd">
<!-- Generated by graphviz version 2.47.0 (0)
 -->
<!-- Title: Local (sliding window) MFE Prediction Pages: 1 -->
<svg width="353pt" height="100pt"
 viewBox="0.00 0.00 353.00 99.50" xmlns="http://www.w3.org/2000/svg" xmlns:xlink="http://www.w3.org/1999/xlink">
<g id="graph0" class="graph" transform="scale(1 1) rotate(0) translate(4 95.5)">
<title>Local (sliding window) MFE Prediction</title>
<!-- Node1 -->
<g id="node1" class="node">
<title>Node1</title>
<g id="a_node1"><a xlink:title="Variations of the local (sliding window) Minimum Free Energy (MFE) prediction algorithm.">
<polygon fill="#bfbfbf" stroke="black" points="113,-60.5 0,-60.5 0,-30.5 113,-30.5 113,-60.5"/>
<text text-anchor="start" x="8" y="-48.5" font-family="Helvetica,sans-Serif" font-size="10.00">Local (sliding window)</text>
<text text-anchor="middle" x="56.5" y="-37.5" font-family="Helvetica,sans-Serif" font-size="10.00"> MFE Prediction</text>
</a>
</g>
</g>
<!-- Node2 -->
<g id="node2" class="node">
<title>Node2</title>
<g id="a_node2"><a xlink:href="group__mfe.html" target="_top" xlink:title="Predicting the Minimum Free Energy (MFE) and a corresponding (consensus) secondary structure.">
<polygon fill="none" stroke="black" points="334.5,-91.5 221.5,-91.5 221.5,-61.5 334.5,-61.5 334.5,-91.5"/>
<text text-anchor="start" x="229.5" y="-79.5" font-family="Helvetica,sans-Serif" font-size="10.00">Minimum Free Energy</text>
<text text-anchor="middle" x="278" y="-68.5" font-family="Helvetica,sans-Serif" font-size="10.00"> (MFE) Algorithms</text>
</a>
</g>
</g>
<!-- Node1&#45;&gt;Node2 -->
<g id="edge3" class="edge">
<title>Node1&#45;&gt;Node2</title>
<path fill="none" stroke="darkgreen" stroke-dasharray="5,2" d="M113.27,-53.92C119.25,-54.8 125.25,-55.68 131,-56.5 160.76,-60.76 193.96,-65.33 221.17,-69.02"/>
<text text-anchor="middle" x="162" y="-67.5" font-family="Helvetica,sans-Serif" font-size="10.00">mfe_window.h</text>
</g>
<!-- Node3 -->
<g id="node3" class="node">
<title>Node3</title>
<g id="a_node3"><a xlink:href="group__mfe__window__deprecated.html" target="_top" xlink:title=" ">
<polygon fill="none" stroke="black" points="345,-41 211,-41 211,0 345,0 345,-41"/>
<text text-anchor="start" x="219" y="-29" font-family="Helvetica,sans-Serif" font-size="10.00">Deprecated Interface</text>
<text text-anchor="start" x="219" y="-18" font-family="Helvetica,sans-Serif" font-size="10.00"> for Local (Sliding Window)</text>
<text text-anchor="middle" x="278" y="-7" font-family="Helvetica,sans-Serif" font-size="10.00"> MFE Prediction</text>
</a>
</g>
</g>
<!-- Node1&#45;&gt;Node3 -->
<g id="edge2" class="edge">
<title>Node1&#45;&gt;Node3</title>
<path fill="none" stroke="black" d="M123.32,-35.48C125.91,-35.14 128.48,-34.81 131,-34.5 157.03,-31.31 185.75,-28.42 210.78,-26.1"/>
<polygon fill="black" stroke="black" points="122.68,-32.03 113.24,-36.84 123.62,-38.97 122.68,-32.03"/>
</g>
<!-- Node2&#45;&gt;Node1 -->
<g id="edge1" class="edge">
<title>Node2&#45;&gt;Node1</title>
<path fill="none" stroke="black" d="M210.95,-62.51C204.89,-61.41 198.84,-60.39 193,-59.5 166.82,-55.51 137.61,-52.33 113.03,-50.02"/>
<polygon fill="black" stroke="black" points="210.63,-66.01 221.11,-64.4 211.92,-59.13 210.63,-66.01"/>
</g>
</g>
</svg>
