<?xml version="1.0" encoding="UTF-8" standalone="no"?>
<!DOCTYPE svg PUBLIC "-//W3C//DTD SVG 1.1//EN"
 "http://www.w3.org/Graphics/SVG/1.1/DTD/svg11.dtd">
<!-- Generated by graphviz version 2.47.0 (0)
 -->
<!-- Title: RNA&#45;RNA Interaction Pages: 1 -->
<svg width="362pt" height="176pt"
 viewBox="0.00 0.00 362.00 175.50" xmlns="http://www.w3.org/2000/svg" xmlns:xlink="http://www.w3.org/1999/xlink">
<g id="graph0" class="graph" transform="scale(1 1) rotate(0) translate(4 171.5)">
<title>RNA&#45;RNA Interaction</title>
<!-- Node3 -->
<g id="node1" class="node">
<title>Node3</title>
<g id="a_node1"><a xlink:href="group__up__cofold.html" target="_top" xlink:title="RNA&#45;RNA interaction as a stepwise process.">
<polygon fill="none" stroke="black" points="354,-167.5 220,-167.5 220,-115.5 354,-115.5 354,-167.5"/>
<text text-anchor="start" x="228" y="-155.5" font-family="Helvetica,sans-Serif" font-size="10.00">Partition Function</text>
<text text-anchor="start" x="228" y="-144.5" font-family="Helvetica,sans-Serif" font-size="10.00"> for two Hybridized</text>
<text text-anchor="start" x="228" y="-133.5" font-family="Helvetica,sans-Serif" font-size="10.00"> Sequences as a Stepwise</text>
<text text-anchor="middle" x="287" y="-122.5" font-family="Helvetica,sans-Serif" font-size="10.00"> Process</text>
</a>
</g>
</g>
<!-- Node4 -->
<g id="node2" class="node">
<title>Node4</title>
<g id="a_node2"><a xlink:href="group__pf__fold.html" target="_top" xlink:title="Compute the partition function to assess various equilibrium properties.">
<polygon fill="none" stroke="black" points="354,-97.5 220,-97.5 220,-67.5 354,-67.5 354,-97.5"/>
<text text-anchor="start" x="228" y="-85.5" font-family="Helvetica,sans-Serif" font-size="10.00">Partition Function</text>
<text text-anchor="middle" x="287" y="-74.5" font-family="Helvetica,sans-Serif" font-size="10.00"> and Equilibrium Properties</text>
</a>
</g>
</g>
<!-- Node1 -->
<g id="node3" class="node">
<title>Node1</title>
<g id="a_node3"><a xlink:title=" ">
<polygon fill="#bfbfbf" stroke="black" points="111,-75 0,-75 0,-56 111,-56 111,-75"/>
<text text-anchor="middle" x="55.5" y="-63" font-family="Helvetica,sans-Serif" font-size="10.00">RNA&#45;RNA Interaction</text>
</a>
</g>
</g>
<!-- Node1&#45;&gt;Node3 -->
<g id="edge2" class="edge">
<title>Node1&#45;&gt;Node3</title>
<path fill="none" stroke="black" d="M93.61,-78.44C104.96,-82.36 117.48,-86.64 129,-90.5 158.76,-100.46 191.78,-111.23 219.84,-120.3"/>
<polygon fill="black" stroke="black" points="94.6,-75.08 84,-75.11 92.31,-81.69 94.6,-75.08"/>
</g>
<!-- Node1&#45;&gt;Node4 -->
<g id="edge3" class="edge">
<title>Node1&#45;&gt;Node4</title>
<path fill="none" stroke="darkgreen" stroke-dasharray="5,2" d="M111.18,-69.55C143.79,-71.97 185.43,-75.05 219.88,-77.6"/>
<text text-anchor="middle" x="165.5" y="-78.5" font-family="Helvetica,sans-Serif" font-size="10.00">concentrations.h</text>
</g>
<!-- Node2 -->
<g id="node4" class="node">
<title>Node2</title>
<g id="a_node4"><a xlink:href="group__pf__cofold.html" target="_top" xlink:title="Partition Function Cofolding.">
<polygon fill="none" stroke="black" points="337.5,-41 236.5,-41 236.5,0 337.5,0 337.5,-41"/>
<text text-anchor="start" x="244.5" y="-29" font-family="Helvetica,sans-Serif" font-size="10.00">Partition Function</text>
<text text-anchor="start" x="244.5" y="-18" font-family="Helvetica,sans-Serif" font-size="10.00"> for Two Hybridized</text>
<text text-anchor="middle" x="287" y="-7" font-family="Helvetica,sans-Serif" font-size="10.00"> Sequences</text>
</a>
</g>
</g>
<!-- Node1&#45;&gt;Node2 -->
<g id="edge1" class="edge">
<title>Node1&#45;&gt;Node2</title>
<path fill="none" stroke="black" d="M115.43,-53.95C152.83,-46.61 200.71,-37.22 236.21,-30.26"/>
<polygon fill="black" stroke="black" points="114.31,-50.6 105.17,-55.96 115.66,-57.47 114.31,-50.6"/>
</g>
<!-- Node1&#45;&gt;Node2 -->
<g id="edge4" class="edge">
<title>Node1&#45;&gt;Node2</title>
<path fill="none" stroke="darkgreen" stroke-dasharray="5,2" d="M65.67,-55.7C78.43,-42.87 102.91,-21.02 129,-12.5 163.64,-1.19 204.84,-3.85 236.35,-8.99"/>
<text text-anchor="middle" x="165.5" y="-26.5" font-family="Helvetica,sans-Serif" font-size="10.00">concentrations.h</text>
<text text-anchor="middle" x="165.5" y="-15.5" font-family="Helvetica,sans-Serif" font-size="10.00">part_func_up.h</text>
</g>
</g>
</svg>
