<?xml version="1.0" encoding="UTF-8" standalone="no"?>
<!DOCTYPE svg PUBLIC "-//W3C//DTD SVG 1.1//EN"
 "http://www.w3.org/Graphics/SVG/1.1/DTD/svg11.dtd">
<!-- Generated by graphviz version 2.47.0 (0)
 -->
<!-- Title: Energy Parameters Pages: 1 -->
<svg width="456pt" height="38pt"
 viewBox="0.00 0.00 456.00 38.00" xmlns="http://www.w3.org/2000/svg" xmlns:xlink="http://www.w3.org/1999/xlink">
<g id="graph0" class="graph" transform="scale(1 1) rotate(0) translate(4 34)">
<title>Energy Parameters</title>
<!-- Node1 -->
<g id="node1" class="node">
<title>Node1</title>
<g id="a_node1"><a xlink:title="All relevant functions to retrieve and copy pre&#45;calculated energy parameter sets as well as reading/w...">
<polygon fill="#bfbfbf" stroke="black" points="272,-24.5 171,-24.5 171,-5.5 272,-5.5 272,-24.5"/>
<text text-anchor="middle" x="221.5" y="-12.5" font-family="Helvetica,sans-Serif" font-size="10.00">Energy Parameters</text>
</a>
</g>
</g>
<!-- Node3 -->
<g id="node2" class="node">
<title>Node3</title>
<g id="a_node2"><a xlink:href="group__energy__parameters__rw.html" target="_top" xlink:title="Read and Write energy parameter sets from and to files or strings.">
<polygon fill="none" stroke="black" points="448,-30 308,-30 308,0 448,0 448,-30"/>
<text text-anchor="start" x="316" y="-18" font-family="Helvetica,sans-Serif" font-size="10.00">Reading/Writing Energy</text>
<text text-anchor="middle" x="378" y="-7" font-family="Helvetica,sans-Serif" font-size="10.00"> Parameter Sets from/to File</text>
</a>
</g>
</g>
<!-- Node1&#45;&gt;Node3 -->
<g id="edge2" class="edge">
<title>Node1&#45;&gt;Node3</title>
<path fill="none" stroke="black" d="M282.3,-15C290.7,-15 299.39,-15 307.94,-15"/>
<polygon fill="black" stroke="black" points="282.24,-11.5 272.24,-15 282.24,-18.5 282.24,-11.5"/>
</g>
<!-- Node2 -->
<g id="node3" class="node">
<title>Node2</title>
<g id="a_node3"><a xlink:href="group__grammar.html" target="_top" xlink:title="The RNA folding grammar as implemented in RNAlib.">
<polygon fill="none" stroke="black" points="135,-24.5 0,-24.5 0,-5.5 135,-5.5 135,-24.5"/>
<text text-anchor="middle" x="67.5" y="-12.5" font-family="Helvetica,sans-Serif" font-size="10.00">The RNA Folding Grammar</text>
</a>
</g>
</g>
<!-- Node2&#45;&gt;Node1 -->
<g id="edge1" class="edge">
<title>Node2&#45;&gt;Node1</title>
<path fill="none" stroke="black" d="M145.31,-15C153.97,-15 162.61,-15 170.79,-15"/>
<polygon fill="black" stroke="black" points="145.17,-11.5 135.17,-15 145.17,-18.5 145.17,-11.5"/>
</g>
</g>
</svg>
