<?xml version="1.0" encoding="UTF-8" standalone="no"?>
<!DOCTYPE svg PUBLIC "-//W3C//DTD SVG 1.1//EN"
 "http://www.w3.org/Graphics/SVG/1.1/DTD/svg11.dtd">
<!-- Generated by graphviz version 2.47.0 (0)
 -->
<!-- Title: Global MFE Prediction Pages: 1 -->
<svg width="345pt" height="134pt"
 viewBox="0.00 0.00 345.00 134.00" xmlns="http://www.w3.org/2000/svg" xmlns:xlink="http://www.w3.org/1999/xlink">
<g id="graph0" class="graph" transform="scale(1 1) rotate(0) translate(4 130)">
<title>Global MFE Prediction</title>
<!-- Node4 -->
<g id="node1" class="node">
<title>Node4</title>
<g id="a_node1"><a xlink:href="group__mfe__global__deprecated.html" target="_top" xlink:title=" ">
<polygon fill="none" stroke="black" points="322.5,-126 190.5,-126 190.5,-96 322.5,-96 322.5,-126"/>
<text text-anchor="start" x="198.5" y="-114" font-family="Helvetica,sans-Serif" font-size="10.00">Deprecated Interface</text>
<text text-anchor="middle" x="256.5" y="-103" font-family="Helvetica,sans-Serif" font-size="10.00"> for Global MFE Prediction</text>
</a>
</g>
</g>
<!-- Node1 -->
<g id="node2" class="node">
<title>Node1</title>
<g id="a_node2"><a xlink:title="Variations of the global Minimum Free Energy (MFE) prediction algorithm.">
<polygon fill="#bfbfbf" stroke="black" points="115,-71.5 0,-71.5 0,-52.5 115,-52.5 115,-71.5"/>
<text text-anchor="middle" x="57.5" y="-59.5" font-family="Helvetica,sans-Serif" font-size="10.00">Global MFE Prediction</text>
</a>
</g>
</g>
<!-- Node1&#45;&gt;Node4 -->
<g id="edge3" class="edge">
<title>Node1&#45;&gt;Node4</title>
<path fill="none" stroke="black" d="M106.8,-74.01C133.42,-80.64 166.71,-88.92 195.05,-95.96"/>
<polygon fill="black" stroke="black" points="107.5,-70.58 96.95,-71.56 105.81,-77.37 107.5,-70.58"/>
</g>
<!-- Node2 -->
<g id="node3" class="node">
<title>Node2</title>
<g id="a_node3"><a xlink:href="group__mfe.html" target="_top" xlink:title="Predicting the Minimum Free Energy (MFE) and a corresponding (consensus) secondary structure.">
<polygon fill="none" stroke="black" points="313,-78 200,-78 200,-48 313,-48 313,-78"/>
<text text-anchor="start" x="208" y="-66" font-family="Helvetica,sans-Serif" font-size="10.00">Minimum Free Energy</text>
<text text-anchor="middle" x="256.5" y="-55" font-family="Helvetica,sans-Serif" font-size="10.00"> (MFE) Algorithms</text>
</a>
</g>
</g>
<!-- Node1&#45;&gt;Node2 -->
<g id="edge4" class="edge">
<title>Node1&#45;&gt;Node2</title>
<path fill="none" stroke="darkgreen" stroke-dasharray="5,2" d="M115.22,-62.29C141.81,-62.42 173.4,-62.58 199.86,-62.72"/>
<text text-anchor="middle" x="145.5" y="-65" font-family="Helvetica,sans-Serif" font-size="10.00">mfe.h</text>
</g>
<!-- Node3 -->
<g id="node4" class="node">
<title>Node3</title>
<g id="a_node4"><a xlink:href="group__kl__neighborhood__mfe.html" target="_top" xlink:title="Compute the minimum free energy (MFE) and secondary structures for a partitioning of the secondary st...">
<polygon fill="none" stroke="black" points="337,-30 176,-30 176,0 337,0 337,-30"/>
<text text-anchor="start" x="184" y="-18" font-family="Helvetica,sans-Serif" font-size="10.00">Computing MFE representatives</text>
<text text-anchor="middle" x="256.5" y="-7" font-family="Helvetica,sans-Serif" font-size="10.00"> of a Distance Based Partitioning</text>
</a>
</g>
</g>
<!-- Node1&#45;&gt;Node3 -->
<g id="edge2" class="edge">
<title>Node1&#45;&gt;Node3</title>
<path fill="none" stroke="black" d="M108.21,-50.14C133.76,-44.04 165.18,-36.55 192.42,-30.05"/>
<polygon fill="black" stroke="black" points="107.28,-46.76 98.37,-52.49 108.91,-53.57 107.28,-46.76"/>
</g>
<!-- Node2&#45;&gt;Node1 -->
<g id="edge1" class="edge">
<title>Node2&#45;&gt;Node1</title>
<path fill="none" stroke="black" d="M189.7,-60.47C171.34,-60.02 151.4,-59.75 133,-60 127.18,-60.08 121.1,-60.19 115.04,-60.32"/>
<polygon fill="black" stroke="black" points="189.62,-63.97 199.71,-60.74 189.8,-56.97 189.62,-63.97"/>
</g>
</g>
</svg>
