<?xml version="1.0" encoding="UTF-8" standalone="no"?>
<!DOCTYPE svg PUBLIC "-//W3C//DTD SVG 1.1//EN"
 "http://www.w3.org/Graphics/SVG/1.1/DTD/svg11.dtd">
<!-- Generated by graphviz version 2.47.0 (0)
 -->
<!-- Title: (Re&#45;)folding Paths, Saddle Points, Energy Barriers, and Local Minima Pages: 1 -->
<svg width="502pt" height="179pt"
 viewBox="0.00 0.00 502.00 179.00" xmlns="http://www.w3.org/2000/svg" xmlns:xlink="http://www.w3.org/1999/xlink">
<g id="graph0" class="graph" transform="scale(1 1) rotate(0) translate(4 175)">
<title>(Re&#45;)folding Paths, Saddle Points, Energy Barriers, and Local Minima</title>
<!-- Node4 -->
<g id="node1" class="node">
<title>Node4</title>
<g id="a_node1"><a xlink:href="group__paths__walk.html" target="_top" xlink:title="Implementation of gradient&#45; and random walks starting from a single secondary structure.">
<polygon fill="none" stroke="black" points="494,-171 357,-171 357,-130 494,-130 494,-171"/>
<text text-anchor="start" x="365" y="-159" font-family="Helvetica,sans-Serif" font-size="10.00">Folding Paths that</text>
<text text-anchor="start" x="365" y="-148" font-family="Helvetica,sans-Serif" font-size="10.00"> start at a single Secondary</text>
<text text-anchor="middle" x="425.5" y="-137" font-family="Helvetica,sans-Serif" font-size="10.00"> Structure</text>
</a>
</g>
</g>
<!-- Node1 -->
<g id="node2" class="node">
<title>Node1</title>
<g id="a_node2"><a xlink:title="API for various RNA folding path algorithms.">
<polygon fill="#bfbfbf" stroke="black" points="321,-106 185,-106 185,-65 321,-65 321,-106"/>
<text text-anchor="start" x="193" y="-94" font-family="Helvetica,sans-Serif" font-size="10.00">(Re&#45;)folding Paths,</text>
<text text-anchor="start" x="193" y="-83" font-family="Helvetica,sans-Serif" font-size="10.00"> Saddle Points, Energy</text>
<text text-anchor="middle" x="253" y="-72" font-family="Helvetica,sans-Serif" font-size="10.00"> Barriers, and Local Minima</text>
</a>
</g>
</g>
<!-- Node1&#45;&gt;Node4 -->
<g id="edge3" class="edge">
<title>Node1&#45;&gt;Node4</title>
<path fill="none" stroke="black" d="M317.5,-109.71C334.97,-116.37 353.74,-123.52 370.61,-129.96"/>
<polygon fill="black" stroke="black" points="318.54,-106.36 307.95,-106.07 316.04,-112.9 318.54,-106.36"/>
</g>
<!-- Node5 -->
<g id="node3" class="node">
<title>Node5</title>
<g id="a_node3"><a xlink:href="group__paths__deprecated.html" target="_top" xlink:title=" ">
<polygon fill="none" stroke="black" points="493.5,-111.5 357.5,-111.5 357.5,-59.5 493.5,-59.5 493.5,-111.5"/>
<text text-anchor="start" x="365.5" y="-99.5" font-family="Helvetica,sans-Serif" font-size="10.00">Deprecated Interface</text>
<text text-anchor="start" x="365.5" y="-88.5" font-family="Helvetica,sans-Serif" font-size="10.00"> for (Re&#45;)folding Paths,</text>
<text text-anchor="start" x="365.5" y="-77.5" font-family="Helvetica,sans-Serif" font-size="10.00"> Saddle Points, and Energy</text>
<text text-anchor="middle" x="425.5" y="-66.5" font-family="Helvetica,sans-Serif" font-size="10.00"> Barriers</text>
</a>
</g>
</g>
<!-- Node1&#45;&gt;Node5 -->
<g id="edge4" class="edge">
<title>Node1&#45;&gt;Node5</title>
<path fill="none" stroke="black" d="M331.45,-85.5C340.09,-85.5 348.83,-85.5 357.32,-85.5"/>
<polygon fill="black" stroke="black" points="331.39,-82 321.39,-85.5 331.39,-89 331.39,-82"/>
</g>
<!-- Node3 -->
<g id="node4" class="node">
<title>Node3</title>
<g id="a_node4"><a xlink:href="group__paths__direct.html" target="_top" xlink:title="Heuristics to explore direct, optimal (re&#45;)folding paths between two secondary structures.">
<polygon fill="none" stroke="black" points="488,-41 363,-41 363,0 488,0 488,-41"/>
<text text-anchor="start" x="371" y="-29" font-family="Helvetica,sans-Serif" font-size="10.00">Direct Refolding Paths</text>
<text text-anchor="start" x="371" y="-18" font-family="Helvetica,sans-Serif" font-size="10.00"> between two Secondary</text>
<text text-anchor="middle" x="425.5" y="-7" font-family="Helvetica,sans-Serif" font-size="10.00"> Structures</text>
</a>
</g>
</g>
<!-- Node1&#45;&gt;Node3 -->
<g id="edge2" class="edge">
<title>Node1&#45;&gt;Node3</title>
<path fill="none" stroke="black" d="M317.5,-61.29C334.97,-54.63 353.74,-47.48 370.61,-41.04"/>
<polygon fill="black" stroke="black" points="316.04,-58.1 307.95,-64.93 318.54,-64.64 316.04,-58.1"/>
</g>
<!-- Node2 -->
<g id="node5" class="node">
<title>Node2</title>
<g id="a_node5"><a xlink:href="group__landscape.html" target="_top" xlink:title=" ">
<polygon fill="none" stroke="black" points="149,-100.5 0,-100.5 0,-70.5 149,-70.5 149,-100.5"/>
<text text-anchor="start" x="8" y="-88.5" font-family="Helvetica,sans-Serif" font-size="10.00">The RNA Secondary Structure</text>
<text text-anchor="middle" x="74.5" y="-77.5" font-family="Helvetica,sans-Serif" font-size="10.00"> Landscape</text>
</a>
</g>
</g>
<!-- Node2&#45;&gt;Node1 -->
<g id="edge1" class="edge">
<title>Node2&#45;&gt;Node1</title>
<path fill="none" stroke="black" d="M159.12,-85.5C167.71,-85.5 176.36,-85.5 184.75,-85.5"/>
<polygon fill="black" stroke="black" points="159.07,-82 149.07,-85.5 159.07,-89 159.07,-82"/>
</g>
</g>
</svg>
