<?xml version="1.0" encoding="UTF-8" standalone="no"?>
<!DOCTYPE svg PUBLIC "-//W3C//DTD SVG 1.1//EN"
 "http://www.w3.org/Graphics/SVG/1.1/DTD/svg11.dtd">
<!-- Generated by graphviz version 2.47.0 (0)
 -->
<!-- Title: Suboptimals and Representative Structures Pages: 1 -->
<svg width="339pt" height="264pt"
 viewBox="0.00 0.00 339.00 264.00" xmlns="http://www.w3.org/2000/svg" xmlns:xlink="http://www.w3.org/1999/xlink">
<g id="graph0" class="graph" transform="scale(1 1) rotate(0) translate(4 260)">
<title>Suboptimals and Representative Structures</title>
<!-- Node2 -->
<g id="node1" class="node">
<title>Node2</title>
<g id="a_node1"><a xlink:href="group__subopt__zuker.html" target="_top" xlink:title=" ">
<polygon fill="none" stroke="black" points="324,-256 201,-256 201,-215 324,-215 324,-256"/>
<text text-anchor="start" x="209" y="-244" font-family="Helvetica,sans-Serif" font-size="10.00">Suboptimal Structures</text>
<text text-anchor="start" x="209" y="-233" font-family="Helvetica,sans-Serif" font-size="10.00"> sensu Stiegler et al.</text>
<text text-anchor="middle" x="262.5" y="-222" font-family="Helvetica,sans-Serif" font-size="10.00"> 1984 / Zuker et al. 1989</text>
</a>
</g>
</g>
<!-- Node5 -->
<g id="node2" class="node">
<title>Node5</title>
<g id="a_node2"><a xlink:href="group__mea__fold.html" target="_top" xlink:title=" ">
<polygon fill="none" stroke="black" points="326.5,-197 198.5,-197 198.5,-156 326.5,-156 326.5,-197"/>
<text text-anchor="start" x="206.5" y="-185" font-family="Helvetica,sans-Serif" font-size="10.00">Compute the Structure</text>
<text text-anchor="start" x="206.5" y="-174" font-family="Helvetica,sans-Serif" font-size="10.00"> with Maximum Expected</text>
<text text-anchor="middle" x="262.5" y="-163" font-family="Helvetica,sans-Serif" font-size="10.00"> Accuracy (MEA)</text>
</a>
</g>
</g>
<!-- Node4 -->
<g id="node3" class="node">
<title>Node4</title>
<g id="a_node3"><a xlink:href="group__subopt__stochbt.html" target="_top" xlink:title="Functions to draw random structure samples from the ensemble according to their equilibrium probabili...">
<polygon fill="none" stroke="black" points="331,-137.5 194,-137.5 194,-107.5 331,-107.5 331,-137.5"/>
<text text-anchor="start" x="202" y="-125.5" font-family="Helvetica,sans-Serif" font-size="10.00">Random Structure Samples</text>
<text text-anchor="middle" x="262.5" y="-114.5" font-family="Helvetica,sans-Serif" font-size="10.00"> from the Ensemble</text>
</a>
</g>
</g>
<!-- Node6 -->
<g id="node4" class="node">
<title>Node6</title>
<g id="a_node4"><a xlink:href="group__centroid__fold.html" target="_top" xlink:title=" ">
<polygon fill="none" stroke="black" points="319,-89.5 206,-89.5 206,-59.5 319,-59.5 319,-89.5"/>
<text text-anchor="start" x="214" y="-77.5" font-family="Helvetica,sans-Serif" font-size="10.00">Compute the Centroid</text>
<text text-anchor="middle" x="262.5" y="-66.5" font-family="Helvetica,sans-Serif" font-size="10.00"> Structure</text>
</a>
</g>
</g>
<!-- Node1 -->
<g id="node5" class="node">
<title>Node1</title>
<g id="a_node5"><a xlink:title="Sample and enumerate suboptimal secondary structures from RNA sequence data.">
<polygon fill="#bfbfbf" stroke="black" points="158,-137.5 0,-137.5 0,-107.5 158,-107.5 158,-137.5"/>
<text text-anchor="start" x="8" y="-125.5" font-family="Helvetica,sans-Serif" font-size="10.00">Suboptimals and Representative</text>
<text text-anchor="middle" x="79" y="-114.5" font-family="Helvetica,sans-Serif" font-size="10.00"> Structures</text>
</a>
</g>
</g>
<!-- Node1&#45;&gt;Node2 -->
<g id="edge1" class="edge">
<title>Node1&#45;&gt;Node2</title>
<path fill="none" stroke="black" d="M105.66,-144.08C128.03,-162.22 161.85,-188.07 194,-206.5 199.09,-209.42 204.53,-212.22 210.03,-214.86"/>
<polygon fill="black" stroke="black" points="107.63,-141.17 97.68,-137.53 103.19,-146.58 107.63,-141.17"/>
</g>
<!-- Node1&#45;&gt;Node5 -->
<g id="edge4" class="edge">
<title>Node1&#45;&gt;Node5</title>
<path fill="none" stroke="black" d="M140.37,-140.46C158.97,-145.99 179.48,-152.1 198.26,-157.68"/>
<polygon fill="black" stroke="black" points="141.14,-137.04 130.56,-137.54 139.14,-143.75 141.14,-137.04"/>
</g>
<!-- Node1&#45;&gt;Node4 -->
<g id="edge3" class="edge">
<title>Node1&#45;&gt;Node4</title>
<path fill="none" stroke="black" d="M168.13,-122.5C176.77,-122.5 185.43,-122.5 193.82,-122.5"/>
<polygon fill="black" stroke="black" points="168.03,-119 158.03,-122.5 168.03,-126 168.03,-119"/>
</g>
<!-- Node1&#45;&gt;Node6 -->
<g id="edge5" class="edge">
<title>Node1&#45;&gt;Node6</title>
<path fill="none" stroke="black" d="M146.61,-104.88C166.03,-99.75 187.03,-94.19 205.71,-89.26"/>
<polygon fill="black" stroke="black" points="145.7,-101.5 136.93,-107.44 147.49,-108.27 145.7,-101.5"/>
</g>
<!-- Node3 -->
<g id="node6" class="node">
<title>Node3</title>
<g id="a_node6"><a xlink:href="group__subopt__wuchty.html" target="_top" xlink:title=" ">
<polygon fill="none" stroke="black" points="321.5,-41 203.5,-41 203.5,0 321.5,0 321.5,-41"/>
<text text-anchor="start" x="211.5" y="-29" font-family="Helvetica,sans-Serif" font-size="10.00">Suboptimal Structures</text>
<text text-anchor="start" x="211.5" y="-18" font-family="Helvetica,sans-Serif" font-size="10.00"> within an Energy Band</text>
<text text-anchor="middle" x="262.5" y="-7" font-family="Helvetica,sans-Serif" font-size="10.00"> around the MFE</text>
</a>
</g>
</g>
<!-- Node1&#45;&gt;Node3 -->
<g id="edge2" class="edge">
<title>Node1&#45;&gt;Node3</title>
<path fill="none" stroke="black" d="M110.18,-101.75C132.75,-86.64 164.66,-66.18 194,-50.5 199.99,-47.3 206.4,-44.13 212.79,-41.13"/>
<polygon fill="black" stroke="black" points="108.05,-98.96 101.71,-107.45 111.96,-104.77 108.05,-98.96"/>
</g>
</g>
</svg>
