<?xml version="1.0" encoding="UTF-8" standalone="no"?>
<!DOCTYPE svg PUBLIC "-//W3C//DTD SVG 1.1//EN"
 "http://www.w3.org/Graphics/SVG/1.1/DTD/svg11.dtd">
<!-- Generated by graphviz version 2.47.0 (0)
 -->
<!-- Title: ViennaRNA/hairpin_loops.h Pages: 1 -->
<!--zoomable 453 -->
<svg id="main" version="1.1" xmlns="http://www.w3.org/2000/svg" xmlns:xlink="http://www.w3.org/1999/xlink" xml:space="preserve" onload="init(evt)">
<style type="text/css"><![CDATA[
.edge:hover path { stroke: red; }
.edge:hover polygon { stroke: red; fill: red; }
]]></style>
<script type="text/javascript"><![CDATA[
var edges = document.getElementsByTagName('g');
if (edges && edges.length) {
  for (var i=0;i<edges.length;i++) {
    if (edges[i].id.substr(0,4)=='edge') {
      edges[i].setAttribute('class','edge');
    }
  }
}
]]></script>
        <defs>
                <circle id="rim" cx="0" cy="0" r="7"/>
                <circle id="rim2" cx="0" cy="0" r="3.5"/>
                <g id="zoomPlus">
                        <use xlink:href="#rim" fill="#404040">
                                <set attributeName="fill" to="#808080" begin="zoomplus.mouseover" end="zoomplus.mouseout"/>
                        </use>
                        <path d="M-4,0h8M0,-4v8" fill="none" stroke="white" stroke-width="1.5" pointer-events="none"/>
                </g>
                <g id="zoomMin">
                        <use xlink:href="#rim" fill="#404040">
                                <set attributeName="fill" to="#808080" begin="zoomminus.mouseover" end="zoomminus.mouseout"/>
                        </use>
                        <path d="M-4,0h8" fill="none" stroke="white" stroke-width="1.5" pointer-events="none"/>
                </g>
                <g id="dirArrow">
                        <path fill="none" stroke="white" stroke-width="1.5" d="M0,-3.0v7 M-2.5,-0.5L0,-3.0L2.5,-0.5"/>
                </g>
               <g id="resetDef">
                       <use xlink:href="#rim2" fill="#404040">
                               <set attributeName="fill" to="#808080" begin="reset.mouseover" end="reset.mouseout"/>
                       </use>
               </g>
        </defs>

<script type="text/javascript">
var viewWidth = 1614;
var viewHeight = 453;
var sectionId = 'dynsection-0';
</script>
<script xlink:href="svgpan.js"/>
<svg id="graph" class="graph">
<g id="viewport">
<title>ViennaRNA/hairpin_loops.h</title>
<!-- Node1 -->
<g id="node1" class="node">
<title>Node1</title>
<g id="a_node1"><a xlink:title="Use ViennaRNA/loops/hairpin.h instead.">
<polygon fill="#bfbfbf" stroke="black" points="513.5,-425.5 513.5,-444.5 650.5,-444.5 650.5,-425.5 513.5,-425.5"/>
<text text-anchor="middle" x="582" y="-432.5" font-family="Helvetica,sans-Serif" font-size="10.00">ViennaRNA/hairpin_loops.h</text>
</a>
</g>
</g>
<!-- Node2 -->
<g id="node2" class="node">
<title>Node2</title>
<g id="a_node2"><a xlink:href="hairpin_8h.html" target="_top" xlink:title="Energy evaluation of hairpin loops for MFE and partition function calculations.">
<polygon fill="none" stroke="black" points="515,-369.5 515,-388.5 649,-388.5 649,-369.5 515,-369.5"/>
<text text-anchor="middle" x="582" y="-376.5" font-family="Helvetica,sans-Serif" font-size="10.00">ViennaRNA/loops/hairpin.h</text>
</a>
</g>
</g>
<!-- Node1&#45;&gt;Node2 -->
<g id="edge1" class="edge">
<title>Node1&#45;&gt;Node2</title>
<path fill="none" stroke="midnightblue" d="M582,-425.08C582,-418.01 582,-407.86 582,-398.99"/>
<polygon fill="midnightblue" stroke="midnightblue" points="585.5,-398.75 582,-388.75 578.5,-398.75 585.5,-398.75"/>
</g>
<!-- Node3 -->
<g id="node3" class="node">
<title>Node3</title>
<g id="a_node3"><a xlink:title=" ">
<polygon fill="none" stroke="#bfbfbf" points="342.5,-313.5 342.5,-332.5 389.5,-332.5 389.5,-313.5 342.5,-313.5"/>
<text text-anchor="middle" x="366" y="-320.5" font-family="Helvetica,sans-Serif" font-size="10.00">math.h</text>
</a>
</g>
</g>
<!-- Node2&#45;&gt;Node3 -->
<g id="edge2" class="edge">
<title>Node2&#45;&gt;Node3</title>
<path fill="none" stroke="midnightblue" d="M545.6,-369.49C510.45,-361.18 455.47,-347.96 399.47,-333.33"/>
<polygon fill="midnightblue" stroke="midnightblue" points="400.3,-329.93 389.74,-330.77 398.52,-336.7 400.3,-329.93"/>
</g>
<!-- Node4 -->
<g id="node4" class="node">
<title>Node4</title>
<g id="a_node4"><a xlink:title=" ">
<polygon fill="none" stroke="#bfbfbf" points="407.5,-313.5 407.5,-332.5 456.5,-332.5 456.5,-313.5 407.5,-313.5"/>
<text text-anchor="middle" x="432" y="-320.5" font-family="Helvetica,sans-Serif" font-size="10.00">string.h</text>
</a>
</g>
</g>
<!-- Node2&#45;&gt;Node4 -->
<g id="edge3" class="edge">
<title>Node2&#45;&gt;Node4</title>
<path fill="none" stroke="midnightblue" d="M558.23,-369.44C533.11,-360.4 493.29,-346.06 465.1,-335.92"/>
<polygon fill="midnightblue" stroke="midnightblue" points="466.25,-332.61 455.66,-332.52 463.88,-339.2 466.25,-332.61"/>
</g>
<!-- Node5 -->
<g id="node5" class="node">
<title>Node5</title>
<g id="a_node5"><a xlink:href="utils_2basic_8h.html" target="_top" xlink:title="General utility&#45; and helper&#45;functions used throughout the ViennaRNA Package.">
<polygon fill="none" stroke="black" points="475,-313.5 475,-332.5 599,-332.5 599,-313.5 475,-313.5"/>
<text text-anchor="middle" x="537" y="-320.5" font-family="Helvetica,sans-Serif" font-size="10.00">ViennaRNA/utils/basic.h</text>
</a>
</g>
</g>
<!-- Node2&#45;&gt;Node5 -->
<g id="edge4" class="edge">
<title>Node2&#45;&gt;Node5</title>
<path fill="none" stroke="midnightblue" d="M574.57,-369.08C568.15,-361.38 558.69,-350.03 550.88,-340.65"/>
<polygon fill="midnightblue" stroke="midnightblue" points="553.38,-338.19 544.29,-332.75 548.01,-342.67 553.38,-338.19"/>
</g>
<!-- Node8 -->
<g id="node8" class="node">
<title>Node8</title>
<g id="a_node8"><a xlink:href="datastructures_2basic_8h.html" target="_top" xlink:title="Various data structures and pre&#45;processor macros.">
<polygon fill="none" stroke="black" points="515,-246.5 515,-276.5 649,-276.5 649,-246.5 515,-246.5"/>
<text text-anchor="start" x="523" y="-264.5" font-family="Helvetica,sans-Serif" font-size="10.00">ViennaRNA/datastructures</text>
<text text-anchor="middle" x="582" y="-253.5" font-family="Helvetica,sans-Serif" font-size="10.00">/basic.h</text>
</a>
</g>
</g>
<!-- Node2&#45;&gt;Node8 -->
<g id="edge49" class="edge">
<title>Node2&#45;&gt;Node8</title>
<path fill="none" stroke="midnightblue" d="M588.89,-369.32C595.27,-360.68 604.31,-346.77 608,-333 612.36,-316.72 605.7,-298.92 598.03,-285.28"/>
<polygon fill="midnightblue" stroke="midnightblue" points="600.9,-283.26 592.68,-276.57 594.93,-286.92 600.9,-283.26"/>
</g>
<!-- Node11 -->
<g id="node11" class="node">
<title>Node11</title>
<g id="a_node11"><a xlink:href="fold__compound_8h.html" target="_top" xlink:title="The Basic Fold Compound API.">
<polygon fill="none" stroke="black" points="715,-190.5 715,-209.5 861,-209.5 861,-190.5 715,-190.5"/>
<text text-anchor="middle" x="788" y="-197.5" font-family="Helvetica,sans-Serif" font-size="10.00">ViennaRNA/fold_compound.h</text>
</a>
</g>
</g>
<!-- Node2&#45;&gt;Node11 -->
<g id="edge50" class="edge">
<title>Node2&#45;&gt;Node11</title>
<path fill="none" stroke="midnightblue" d="M591.94,-369.46C624.42,-341.55 727.79,-252.74 769.89,-216.56"/>
<polygon fill="midnightblue" stroke="midnightblue" points="772.37,-219.04 777.68,-209.87 767.81,-213.73 772.37,-219.04"/>
</g>
<!-- Node13 -->
<g id="node13" class="node">
<title>Node13</title>
<g id="a_node13"><a xlink:href="params_2basic_8h.html" target="_top" xlink:title="Functions to deal with sets of energy parameters.">
<polygon fill="none" stroke="black" points="1383,-129 1383,-148 1521,-148 1521,-129 1383,-129"/>
<text text-anchor="middle" x="1452" y="-136" font-family="Helvetica,sans-Serif" font-size="10.00">ViennaRNA/params/basic.h</text>
</a>
</g>
</g>
<!-- Node2&#45;&gt;Node13 -->
<g id="edge51" class="edge">
<title>Node2&#45;&gt;Node13</title>
<path fill="none" stroke="midnightblue" d="M649.1,-371.22C823.1,-352.56 1283.95,-296.1 1408,-210 1426.47,-197.18 1438.76,-173.84 1445.55,-157.54"/>
<polygon fill="midnightblue" stroke="midnightblue" points="1448.89,-158.61 1449.22,-148.02 1442.36,-156.09 1448.89,-158.61"/>
</g>
<!-- Node6 -->
<g id="node6" class="node">
<title>Node6</title>
<g id="a_node6"><a xlink:title=" ">
<polygon fill="none" stroke="#bfbfbf" points="107,-0.5 107,-19.5 153,-19.5 153,-0.5 107,-0.5"/>
<text text-anchor="middle" x="130" y="-7.5" font-family="Helvetica,sans-Serif" font-size="10.00">stdio.h</text>
</a>
</g>
</g>
<!-- Node5&#45;&gt;Node6 -->
<g id="edge5" class="edge">
<title>Node5&#45;&gt;Node6</title>
<path fill="none" stroke="midnightblue" d="M483.23,-313.43C362.43,-293.44 80,-242.29 80,-201 80,-201 80,-201 80,-137.5 80,-100.31 83.97,-90.02 99,-56 103.45,-45.93 110.23,-35.75 116.32,-27.62"/>
<polygon fill="midnightblue" stroke="midnightblue" points="119.11,-29.74 122.51,-19.71 113.59,-25.43 119.11,-29.74"/>
</g>
<!-- Node7 -->
<g id="node7" class="node">
<title>Node7</title>
<g id="a_node7"><a xlink:title=" ">
<polygon fill="none" stroke="#bfbfbf" points="0,-252 0,-271 52,-271 52,-252 0,-252"/>
<text text-anchor="middle" x="26" y="-259" font-family="Helvetica,sans-Serif" font-size="10.00">stdarg.h</text>
</a>
</g>
</g>
<!-- Node5&#45;&gt;Node7 -->
<g id="edge6" class="edge">
<title>Node5&#45;&gt;Node7</title>
<path fill="none" stroke="midnightblue" d="M474.96,-314.11C471.59,-313.72 468.26,-313.35 465,-313 287.97,-293.95 239.81,-315.66 66,-277 62.76,-276.28 59.42,-275.36 56.11,-274.34"/>
<polygon fill="midnightblue" stroke="midnightblue" points="57.05,-270.97 46.46,-271.06 54.8,-277.59 57.05,-270.97"/>
</g>
<!-- Node5&#45;&gt;Node8 -->
<g id="edge7" class="edge">
<title>Node5&#45;&gt;Node8</title>
<path fill="none" stroke="midnightblue" d="M543.45,-313.48C549.14,-305.94 557.7,-294.63 565.31,-284.57"/>
<polygon fill="midnightblue" stroke="midnightblue" points="568.15,-286.61 571.39,-276.52 562.57,-282.39 568.15,-286.61"/>
</g>
<!-- Node9 -->
<g id="node9" class="node">
<title>Node9</title>
<g id="a_node9"><a xlink:href="constants_8h.html" target="_top" xlink:title="Energy parameter constants.">
<polygon fill="none" stroke="black" points="1448,-62 1448,-81 1606,-81 1606,-62 1448,-62"/>
<text text-anchor="middle" x="1527" y="-69" font-family="Helvetica,sans-Serif" font-size="10.00">ViennaRNA/params/constants.h</text>
</a>
</g>
</g>
<!-- Node8&#45;&gt;Node9 -->
<g id="edge8" class="edge">
<title>Node8&#45;&gt;Node9</title>
<path fill="none" stroke="midnightblue" d="M649.03,-259.57C819.25,-256.71 1264.81,-245.91 1408,-210 1465.87,-195.49 1497.79,-204.22 1530,-154 1542.09,-135.15 1538.09,-108.48 1533.28,-90.85"/>
<polygon fill="midnightblue" stroke="midnightblue" points="1536.59,-89.72 1530.31,-81.19 1529.9,-91.78 1536.59,-89.72"/>
</g>
<!-- Node8&#45;&gt;Node11 -->
<g id="edge10" class="edge">
<title>Node8&#45;&gt;Node11</title>
<path fill="none" stroke="midnightblue" d="M630.56,-246.47C666.56,-236.08 715.02,-222.08 748.63,-212.37"/>
<polygon fill="midnightblue" stroke="midnightblue" points="749.91,-215.64 758.55,-209.51 747.97,-208.92 749.91,-215.64"/>
</g>
<!-- Node12 -->
<g id="node12" class="node">
<title>Node12</title>
<g id="a_node12"><a xlink:href="model_8h.html" target="_top" xlink:title="The model details data structure and its corresponding modifiers.">
<polygon fill="none" stroke="black" points="1302,-62 1302,-81 1408,-81 1408,-62 1302,-62"/>
<text text-anchor="middle" x="1355" y="-69" font-family="Helvetica,sans-Serif" font-size="10.00">ViennaRNA/model.h</text>
</a>
</g>
</g>
<!-- Node8&#45;&gt;Node12 -->
<g id="edge40" class="edge">
<title>Node8&#45;&gt;Node12</title>
<path fill="none" stroke="midnightblue" d="M649.2,-260.43C814.88,-258.84 1236.65,-245.67 1336,-154 1353.15,-138.17 1356.26,-110.11 1356.2,-91.41"/>
<polygon fill="midnightblue" stroke="midnightblue" points="1359.68,-91.04 1355.84,-81.16 1352.69,-91.28 1359.68,-91.04"/>
</g>
<!-- Node8&#45;&gt;Node13 -->
<g id="edge41" class="edge">
<title>Node8&#45;&gt;Node13</title>
<path fill="none" stroke="midnightblue" d="M649.19,-258.48C826,-252.98 1294.71,-236.39 1360,-210 1389.03,-198.27 1415.24,-172.2 1432.57,-155.27"/>
<polygon fill="midnightblue" stroke="midnightblue" points="1435.11,-157.67 1439.88,-148.21 1430.25,-152.63 1435.11,-157.67"/>
</g>
<!-- Node15 -->
<g id="node15" class="node">
<title>Node15</title>
<g id="a_node15"><a xlink:href="dp__matrices_8h.html" target="_top" xlink:title="Functions to deal with standard dynamic programming (DP) matrices.">
<polygon fill="none" stroke="black" points="444.5,-129 444.5,-148 577.5,-148 577.5,-129 444.5,-129"/>
<text text-anchor="middle" x="511" y="-136" font-family="Helvetica,sans-Serif" font-size="10.00">ViennaRNA/dp_matrices.h</text>
</a>
</g>
</g>
<!-- Node8&#45;&gt;Node15 -->
<g id="edge42" class="edge">
<title>Node8&#45;&gt;Node15</title>
<path fill="none" stroke="midnightblue" d="M569.02,-246.14C553.25,-224 528.21,-181.57 516.56,-157.44"/>
<polygon fill="midnightblue" stroke="midnightblue" points="519.63,-155.74 512.34,-148.05 513.25,-158.61 519.63,-155.74"/>
</g>
<!-- Node16 -->
<g id="node16" class="node">
<title>Node16</title>
<g id="a_node16"><a xlink:href="hard_8h.html" target="_top" xlink:title="Functions and data structures for handling of secondary structure hard constraints.">
<polygon fill="none" stroke="black" points="728.5,-123.5 728.5,-153.5 847.5,-153.5 847.5,-123.5 728.5,-123.5"/>
<text text-anchor="start" x="736.5" y="-141.5" font-family="Helvetica,sans-Serif" font-size="10.00">ViennaRNA/constraints</text>
<text text-anchor="middle" x="788" y="-130.5" font-family="Helvetica,sans-Serif" font-size="10.00">/hard.h</text>
</a>
</g>
</g>
<!-- Node8&#45;&gt;Node16 -->
<g id="edge43" class="edge">
<title>Node8&#45;&gt;Node16</title>
<path fill="none" stroke="midnightblue" d="M606.03,-246.38C643.01,-224.66 713.94,-183 755.47,-158.6"/>
<polygon fill="midnightblue" stroke="midnightblue" points="757.27,-161.61 764.12,-153.53 753.72,-155.57 757.27,-161.61"/>
</g>
<!-- Node18 -->
<g id="node18" class="node">
<title>Node18</title>
<g id="a_node18"><a xlink:href="soft_8h.html" target="_top" xlink:title="Functions and data structures for secondary structure soft constraints.">
<polygon fill="none" stroke="black" points="307.5,-123.5 307.5,-153.5 426.5,-153.5 426.5,-123.5 307.5,-123.5"/>
<text text-anchor="start" x="315.5" y="-141.5" font-family="Helvetica,sans-Serif" font-size="10.00">ViennaRNA/constraints</text>
<text text-anchor="middle" x="367" y="-130.5" font-family="Helvetica,sans-Serif" font-size="10.00">/soft.h</text>
</a>
</g>
</g>
<!-- Node8&#45;&gt;Node18 -->
<g id="edge44" class="edge">
<title>Node8&#45;&gt;Node18</title>
<path fill="none" stroke="midnightblue" d="M552.39,-246.38C511.11,-224.71 437.13,-183.18 396.12,-158.76"/>
<polygon fill="midnightblue" stroke="midnightblue" points="397.79,-155.68 387.41,-153.53 394.18,-161.68 397.79,-155.68"/>
</g>
<!-- Node19 -->
<g id="node19" class="node">
<title>Node19</title>
<g id="a_node19"><a xlink:href="grammar_8h.html" target="_top" xlink:title="Implementations for the RNA folding grammar.">
<polygon fill="none" stroke="black" points="1209.5,-129 1209.5,-148 1326.5,-148 1326.5,-129 1209.5,-129"/>
<text text-anchor="middle" x="1268" y="-136" font-family="Helvetica,sans-Serif" font-size="10.00">ViennaRNA/grammar.h</text>
</a>
</g>
</g>
<!-- Node8&#45;&gt;Node19 -->
<g id="edge45" class="edge">
<title>Node8&#45;&gt;Node19</title>
<path fill="none" stroke="midnightblue" d="M649.04,-249.93C762.8,-231.78 1000.82,-192.86 1201,-154 1207.13,-152.81 1213.57,-151.5 1219.93,-150.16"/>
<polygon fill="midnightblue" stroke="midnightblue" points="1220.74,-153.57 1229.79,-148.06 1219.28,-146.72 1220.74,-153.57"/>
</g>
<!-- Node20 -->
<g id="node20" class="node">
<title>Node20</title>
<g id="a_node20"><a xlink:href="structured__domains_8h.html" target="_top" xlink:title="This module provides interfaces that deal with additional structured domains in the folding grammar.">
<polygon fill="none" stroke="black" points="595.5,-123.5 595.5,-153.5 710.5,-153.5 710.5,-123.5 595.5,-123.5"/>
<text text-anchor="start" x="603.5" y="-141.5" font-family="Helvetica,sans-Serif" font-size="10.00">ViennaRNA/structured</text>
<text text-anchor="middle" x="653" y="-130.5" font-family="Helvetica,sans-Serif" font-size="10.00">_domains.h</text>
</a>
</g>
</g>
<!-- Node8&#45;&gt;Node20 -->
<g id="edge46" class="edge">
<title>Node8&#45;&gt;Node20</title>
<path fill="none" stroke="midnightblue" d="M590.42,-246.14C602.54,-225.5 625.02,-187.19 639.48,-162.55"/>
<polygon fill="midnightblue" stroke="midnightblue" points="642.55,-164.23 644.59,-153.84 636.51,-160.69 642.55,-164.23"/>
</g>
<!-- Node21 -->
<g id="node21" class="node">
<title>Node21</title>
<g id="a_node21"><a xlink:href="unstructured__domains_8h.html" target="_top" xlink:title="Functions to modify unstructured domains, e.g. to incorporate ligands binding to unpaired stretches.">
<polygon fill="none" stroke="black" points="164.5,-123.5 164.5,-153.5 289.5,-153.5 289.5,-123.5 164.5,-123.5"/>
<text text-anchor="start" x="172.5" y="-141.5" font-family="Helvetica,sans-Serif" font-size="10.00">ViennaRNA/unstructured</text>
<text text-anchor="middle" x="227" y="-130.5" font-family="Helvetica,sans-Serif" font-size="10.00">_domains.h</text>
</a>
</g>
</g>
<!-- Node8&#45;&gt;Node21 -->
<g id="edge47" class="edge">
<title>Node8&#45;&gt;Node21</title>
<path fill="none" stroke="midnightblue" d="M536.06,-246.38C468.03,-224.16 341.48,-181.07 273.27,-156.94"/>
<polygon fill="midnightblue" stroke="midnightblue" points="274.24,-153.57 263.64,-153.53 271.89,-160.17 274.24,-153.57"/>
</g>
<!-- Node22 -->
<g id="node22" class="node">
<title>Node22</title>
<g id="a_node22"><a xlink:href="utils_2structures_8h.html" target="_top" xlink:title="Various utility&#45; and helper&#45;functions for secondary structure parsing, converting,...">
<polygon fill="none" stroke="black" points="108,-62 108,-81 252,-81 252,-62 108,-62"/>
<text text-anchor="middle" x="180" y="-69" font-family="Helvetica,sans-Serif" font-size="10.00">ViennaRNA/utils/structures.h</text>
</a>
</g>
</g>
<!-- Node8&#45;&gt;Node22 -->
<g id="edge48" class="edge">
<title>Node8&#45;&gt;Node22</title>
<path fill="none" stroke="midnightblue" d="M514.64,-254.27C403.69,-242.08 190.63,-211.12 146,-154 130.97,-134.76 145.7,-106.46 160.48,-88.78"/>
<polygon fill="midnightblue" stroke="midnightblue" points="163.41,-90.76 167.61,-81.04 158.26,-86.02 163.41,-90.76"/>
</g>
<!-- Node10 -->
<g id="node10" class="node">
<title>Node10</title>
<g id="a_node10"><a xlink:title=" ">
<polygon fill="none" stroke="#bfbfbf" points="1503,-0.5 1503,-19.5 1551,-19.5 1551,-0.5 1503,-0.5"/>
<text text-anchor="middle" x="1527" y="-7.5" font-family="Helvetica,sans-Serif" font-size="10.00">limits.h</text>
</a>
</g>
</g>
<!-- Node9&#45;&gt;Node10 -->
<g id="edge9" class="edge">
<title>Node9&#45;&gt;Node10</title>
<path fill="none" stroke="midnightblue" d="M1527,-61.98C1527,-53.58 1527,-40.48 1527,-29.66"/>
<polygon fill="midnightblue" stroke="midnightblue" points="1530.5,-29.51 1527,-19.51 1523.5,-29.51 1530.5,-29.51"/>
</g>
<!-- Node11&#45;&gt;Node12 -->
<g id="edge11" class="edge">
<title>Node11&#45;&gt;Node12</title>
<path fill="none" stroke="midnightblue" d="M804.18,-190.42C841.27,-170.77 929.57,-124.06 933,-123 1056.12,-84.79 1207.74,-75.21 1291.62,-72.98"/>
<polygon fill="midnightblue" stroke="midnightblue" points="1291.84,-76.48 1301.75,-72.74 1291.67,-69.48 1291.84,-76.48"/>
</g>
<!-- Node11&#45;&gt;Node13 -->
<g id="edge12" class="edge">
<title>Node11&#45;&gt;Node13</title>
<path fill="none" stroke="midnightblue" d="M861.39,-193.53C965.21,-185.95 1160.6,-171.22 1327,-154 1341.82,-152.47 1357.68,-150.62 1372.98,-148.77"/>
<polygon fill="midnightblue" stroke="midnightblue" points="1373.43,-152.24 1382.93,-147.55 1372.58,-145.29 1373.43,-152.24"/>
</g>
<!-- Node14 -->
<g id="node14" class="node">
<title>Node14</title>
<g id="a_node14"><a xlink:href="sequence_8h.html" target="_top" xlink:title="Functions and data structures related to sequence representations ,.">
<polygon fill="none" stroke="black" points="942,-129 942,-148 1064,-148 1064,-129 942,-129"/>
<text text-anchor="middle" x="1003" y="-136" font-family="Helvetica,sans-Serif" font-size="10.00">ViennaRNA/sequence.h</text>
</a>
</g>
</g>
<!-- Node11&#45;&gt;Node14 -->
<g id="edge17" class="edge">
<title>Node11&#45;&gt;Node14</title>
<path fill="none" stroke="midnightblue" d="M813.9,-190.48C849.53,-179.98 913.85,-162.14 957.54,-150.59"/>
<polygon fill="midnightblue" stroke="midnightblue" points="958.57,-153.94 967.36,-148.01 956.79,-147.17 958.57,-153.94"/>
</g>
<!-- Node11&#45;&gt;Node15 -->
<g id="edge19" class="edge">
<title>Node11&#45;&gt;Node15</title>
<path fill="none" stroke="midnightblue" d="M743.41,-190.48C691.73,-179.87 607.27,-161.76 555.6,-150.22"/>
<polygon fill="midnightblue" stroke="midnightblue" points="556.24,-146.78 545.72,-148.01 554.71,-153.61 556.24,-146.78"/>
</g>
<!-- Node11&#45;&gt;Node16 -->
<g id="edge22" class="edge">
<title>Node11&#45;&gt;Node16</title>
<path fill="none" stroke="midnightblue" d="M783.1,-190.48C781.57,-183.47 780.99,-173.19 781.36,-163.7"/>
<polygon fill="midnightblue" stroke="midnightblue" points="784.86,-163.77 782.17,-153.52 777.88,-163.21 784.86,-163.77"/>
</g>
<!-- Node11&#45;&gt;Node18 -->
<g id="edge26" class="edge">
<title>Node11&#45;&gt;Node18</title>
<path fill="none" stroke="midnightblue" d="M714.72,-192.18C643.61,-184.76 532.71,-171.75 433.04,-155.17"/>
<polygon fill="midnightblue" stroke="midnightblue" points="433.57,-151.71 423.12,-153.5 432.41,-158.61 433.57,-151.71"/>
</g>
<!-- Node11&#45;&gt;Node19 -->
<g id="edge30" class="edge">
<title>Node11&#45;&gt;Node19</title>
<path fill="none" stroke="midnightblue" d="M861.16,-192.79C942.33,-185.72 1076.84,-172.68 1192,-154 1198.95,-152.87 1206.26,-151.49 1213.51,-150.04"/>
<polygon fill="midnightblue" stroke="midnightblue" points="1214.22,-153.46 1223.31,-148.02 1212.81,-146.61 1214.22,-153.46"/>
</g>
<!-- Node11&#45;&gt;Node20 -->
<g id="edge32" class="edge">
<title>Node11&#45;&gt;Node20</title>
<path fill="none" stroke="midnightblue" d="M768.66,-190.48C749.26,-181.93 718.8,-168.5 694.01,-157.57"/>
<polygon fill="midnightblue" stroke="midnightblue" points="695.38,-154.35 684.82,-153.52 692.56,-160.76 695.38,-154.35"/>
</g>
<!-- Node11&#45;&gt;Node21 -->
<g id="edge33" class="edge">
<title>Node11&#45;&gt;Node21</title>
<path fill="none" stroke="midnightblue" d="M714.76,-195.17C619.16,-189.37 446.83,-176.73 295.9,-154.99"/>
<polygon fill="midnightblue" stroke="midnightblue" points="296.39,-151.52 285.99,-153.54 295.38,-158.45 296.39,-151.52"/>
</g>
<!-- Node23 -->
<g id="node23" class="node">
<title>Node23</title>
<g id="a_node23"><a xlink:href="zscore_8h_source.html" target="_top" xlink:title=" ">
<polygon fill="none" stroke="black" points="1082.5,-129 1082.5,-148 1191.5,-148 1191.5,-129 1082.5,-129"/>
<text text-anchor="middle" x="1137" y="-136" font-family="Helvetica,sans-Serif" font-size="10.00">ViennaRNA/zscore.h</text>
</a>
</g>
</g>
<!-- Node11&#45;&gt;Node23 -->
<g id="edge39" class="edge">
<title>Node11&#45;&gt;Node23</title>
<path fill="none" stroke="midnightblue" d="M849.64,-190.47C907.5,-182.18 996.38,-168.71 1073,-154 1078.88,-152.87 1085.04,-151.6 1091.12,-150.28"/>
<polygon fill="midnightblue" stroke="midnightblue" points="1092.2,-153.63 1101.21,-148.05 1090.69,-146.79 1092.2,-153.63"/>
</g>
<!-- Node13&#45;&gt;Node8 -->
<g id="edge14" class="edge">
<title>Node13&#45;&gt;Node8</title>
<path fill="none" stroke="midnightblue" d="M1450.4,-148.21C1441.2,-163.88 1411.48,-196.47 1378,-210 1312.87,-236.32 846.4,-252.9 659.28,-258.43"/>
<polygon fill="midnightblue" stroke="midnightblue" points="659.13,-254.94 649.24,-258.73 659.34,-261.93 659.13,-254.94"/>
</g>
<!-- Node13&#45;&gt;Node9 -->
<g id="edge13" class="edge">
<title>Node13&#45;&gt;Node9</title>
<path fill="none" stroke="midnightblue" d="M1462.11,-128.73C1474.15,-118.31 1494.45,-100.71 1509.15,-87.97"/>
<polygon fill="midnightblue" stroke="midnightblue" points="1511.78,-90.32 1517.05,-81.13 1507.2,-85.03 1511.78,-90.32"/>
</g>
<!-- Node13&#45;&gt;Node11 -->
<g id="edge15" class="edge">
<title>Node13&#45;&gt;Node11</title>
<path fill="none" stroke="midnightblue" d="M1396.62,-148C1380.06,-150.11 1361.86,-152.26 1345,-154 1177.59,-171.33 980.84,-186.13 871.63,-193.67"/>
<polygon fill="midnightblue" stroke="midnightblue" points="871.08,-190.2 861.34,-194.38 871.56,-197.18 871.08,-190.2"/>
</g>
<!-- Node13&#45;&gt;Node12 -->
<g id="edge16" class="edge">
<title>Node13&#45;&gt;Node12</title>
<path fill="none" stroke="midnightblue" d="M1438.92,-128.73C1422.85,-117.96 1395.37,-99.55 1376.25,-86.74"/>
<polygon fill="midnightblue" stroke="midnightblue" points="1378.13,-83.79 1367.87,-81.13 1374.23,-89.6 1378.13,-83.79"/>
</g>
<!-- Node14&#45;&gt;Node11 -->
<g id="edge18" class="edge">
<title>Node14&#45;&gt;Node11</title>
<path fill="none" stroke="midnightblue" d="M977.15,-148.01C941.55,-158.5 877.24,-176.34 833.52,-187.9"/>
<polygon fill="midnightblue" stroke="midnightblue" points="832.49,-184.55 823.7,-190.48 834.27,-191.32 832.49,-184.55"/>
</g>
<!-- Node15&#45;&gt;Node8 -->
<g id="edge20" class="edge">
<title>Node15&#45;&gt;Node8</title>
<path fill="none" stroke="midnightblue" d="M519.69,-148.05C533.78,-166.32 559.83,-209.7 573.64,-236.92"/>
<polygon fill="midnightblue" stroke="midnightblue" points="570.61,-238.68 578.13,-246.14 576.9,-235.62 570.61,-238.68"/>
</g>
<!-- Node15&#45;&gt;Node11 -->
<g id="edge21" class="edge">
<title>Node15&#45;&gt;Node11</title>
<path fill="none" stroke="midnightblue" d="M555.51,-148.01C607.16,-158.61 691.62,-176.72 743.33,-188.26"/>
<polygon fill="midnightblue" stroke="midnightblue" points="742.69,-191.7 753.21,-190.48 744.22,-184.87 742.69,-191.7"/>
</g>
<!-- Node16&#45;&gt;Node11 -->
<g id="edge23" class="edge">
<title>Node16&#45;&gt;Node11</title>
<path fill="none" stroke="midnightblue" d="M793.83,-153.52C794.87,-161.59 795.03,-171.81 794.3,-180.53"/>
<polygon fill="midnightblue" stroke="midnightblue" points="790.83,-180.09 792.9,-190.48 797.76,-181.06 790.83,-180.09"/>
</g>
<!-- Node17 -->
<g id="node17" class="node">
<title>Node17</title>
<g id="a_node17"><a xlink:href="constraints_2basic_8h.html" target="_top" xlink:title="Functions and data structures for constraining secondary structure predictions and evaluation.">
<polygon fill="none" stroke="black" points="728.5,-56.5 728.5,-86.5 847.5,-86.5 847.5,-56.5 728.5,-56.5"/>
<text text-anchor="start" x="736.5" y="-74.5" font-family="Helvetica,sans-Serif" font-size="10.00">ViennaRNA/constraints</text>
<text text-anchor="middle" x="788" y="-63.5" font-family="Helvetica,sans-Serif" font-size="10.00">/basic.h</text>
</a>
</g>
</g>
<!-- Node16&#45;&gt;Node17 -->
<g id="edge24" class="edge">
<title>Node16&#45;&gt;Node17</title>
<path fill="none" stroke="midnightblue" d="M788,-123.4C788,-115.64 788,-105.81 788,-96.86"/>
<polygon fill="midnightblue" stroke="midnightblue" points="791.5,-96.58 788,-86.58 784.5,-96.58 791.5,-96.58"/>
</g>
<!-- Node17&#45;&gt;Node11 -->
<g id="edge25" class="edge">
<title>Node17&#45;&gt;Node11</title>
<path fill="none" stroke="midnightblue" d="M818.12,-86.56C832.38,-94.95 848.01,-107.1 856,-123 862.19,-135.31 862.52,-141.86 856,-154 848.38,-168.18 834.1,-178.65 820.59,-185.9"/>
<polygon fill="midnightblue" stroke="midnightblue" points="818.87,-182.84 811.45,-190.41 821.97,-189.12 818.87,-182.84"/>
</g>
<!-- Node18&#45;&gt;Node8 -->
<g id="edge27" class="edge">
<title>Node18&#45;&gt;Node8</title>
<path fill="none" stroke="midnightblue" d="M396.44,-153.53C437.62,-175.15 511.61,-216.67 552.71,-241.14"/>
<polygon fill="midnightblue" stroke="midnightblue" points="551.07,-244.24 561.44,-246.38 554.67,-238.24 551.07,-244.24"/>
</g>
<!-- Node18&#45;&gt;Node11 -->
<g id="edge28" class="edge">
<title>Node18&#45;&gt;Node11</title>
<path fill="none" stroke="midnightblue" d="M426.73,-150.81C432.58,-151.96 438.41,-153.05 444,-154 532.82,-169.1 634.99,-181.6 704.82,-189.56"/>
<polygon fill="midnightblue" stroke="midnightblue" points="704.55,-193.05 714.89,-190.7 705.34,-186.1 704.55,-193.05"/>
</g>
<!-- Node18&#45;&gt;Node17 -->
<g id="edge29" class="edge">
<title>Node18&#45;&gt;Node17</title>
<path fill="none" stroke="midnightblue" d="M426.66,-124.54C429.48,-124 432.27,-123.49 435,-123 532.89,-105.58 646.89,-90.14 718.25,-81.06"/>
<polygon fill="midnightblue" stroke="midnightblue" points="718.99,-84.49 728.47,-79.76 718.11,-77.55 718.99,-84.49"/>
</g>
<!-- Node19&#45;&gt;Node11 -->
<g id="edge31" class="edge">
<title>Node19&#45;&gt;Node11</title>
<path fill="none" stroke="midnightblue" d="M1240.63,-148.02C1230.98,-150.19 1220.1,-152.36 1210,-154 1093.35,-172.92 956.85,-186.06 871.33,-193.06"/>
<polygon fill="midnightblue" stroke="midnightblue" points="870.84,-189.59 861.15,-193.88 871.4,-196.57 870.84,-189.59"/>
</g>
<!-- Node21&#45;&gt;Node8 -->
<g id="edge34" class="edge">
<title>Node21&#45;&gt;Node8</title>
<path fill="none" stroke="midnightblue" d="M272.67,-153.53C340.54,-175.69 467.08,-218.78 535.46,-242.96"/>
<polygon fill="midnightblue" stroke="midnightblue" points="534.51,-246.34 545.11,-246.38 536.85,-239.74 534.51,-246.34"/>
</g>
<!-- Node21&#45;&gt;Node11 -->
<g id="edge35" class="edge">
<title>Node21&#45;&gt;Node11</title>
<path fill="none" stroke="midnightblue" d="M289.73,-151.13C295.57,-152.19 301.4,-153.17 307,-154 445.82,-174.49 608.24,-187.21 704.43,-193.7"/>
<polygon fill="midnightblue" stroke="midnightblue" points="704.47,-197.21 714.68,-194.38 704.94,-190.22 704.47,-197.21"/>
</g>
<!-- Node21&#45;&gt;Node22 -->
<g id="edge36" class="edge">
<title>Node21&#45;&gt;Node22</title>
<path fill="none" stroke="midnightblue" d="M216.8,-123.4C209.62,-113.46 199.96,-100.11 192.34,-89.57"/>
<polygon fill="midnightblue" stroke="midnightblue" points="194.98,-87.25 186.29,-81.19 189.31,-91.35 194.98,-87.25"/>
</g>
<!-- Node22&#45;&gt;Node6 -->
<g id="edge37" class="edge">
<title>Node22&#45;&gt;Node6</title>
<path fill="none" stroke="midnightblue" d="M172.84,-61.98C165.26,-52.96 153.13,-38.52 143.71,-27.31"/>
<polygon fill="midnightblue" stroke="midnightblue" points="146.26,-24.91 137.15,-19.51 140.9,-29.42 146.26,-24.91"/>
</g>
<!-- Node22&#45;&gt;Node8 -->
<g id="edge38" class="edge">
<title>Node22&#45;&gt;Node8</title>
<path fill="none" stroke="midnightblue" d="M178.02,-81.04C169.32,-96.96 146.51,-131.61 164,-154 205.85,-207.57 395.83,-238.12 504.77,-251.78"/>
<polygon fill="midnightblue" stroke="midnightblue" points="504.37,-255.25 514.73,-253 505.23,-248.31 504.37,-255.25"/>
</g>
</g>
</svg>
        <g id="navigator" transform="translate(0 0)" fill="#404254">
                <rect fill="#f2f5e9" fill-opacity="0.5" stroke="#606060" stroke-width=".5" x="0" y="0" width="60" height="60"/>
                <use id="zoomplus" xlink:href="#zoomPlus" x="17" y="9" onmousedown="handleZoom(evt,'in')"/>
                <use id="zoomminus" xlink:href="#zoomMin" x="42" y="9" onmousedown="handleZoom(evt,'out')"/>
                <use id="reset" xlink:href="#resetDef" x="30" y="36" onmousedown="handleReset()"/>
                <g id="arrowUp" xlink:href="#dirArrow" transform="translate(30 24)" onmousedown="handlePan(0,-1)">
                  <use xlink:href="#rim" fill="#404040">
                        <set attributeName="fill" to="#808080" begin="arrowUp.mouseover" end="arrowUp.mouseout"/>
                  </use>
                  <path fill="none" stroke="white" stroke-width="1.5" d="M0,-3.0v7 M-2.5,-0.5L0,-3.0L2.5,-0.5"/>
                </g>
                <g id="arrowRight" xlink:href="#dirArrow" transform="rotate(90) translate(36 -43)" onmousedown="handlePan(1,0)">
                  <use xlink:href="#rim" fill="#404040">
                        <set attributeName="fill" to="#808080" begin="arrowRight.mouseover" end="arrowRight.mouseout"/>
                  </use>
                  <path fill="none" stroke="white" stroke-width="1.5" d="M0,-3.0v7 M-2.5,-0.5L0,-3.0L2.5,-0.5"/>
                </g>
                <g id="arrowDown" xlink:href="#dirArrow" transform="rotate(180) translate(-30 -48)" onmousedown="handlePan(0,1)">
                  <use xlink:href="#rim" fill="#404040">
                        <set attributeName="fill" to="#808080" begin="arrowDown.mouseover" end="arrowDown.mouseout"/>
                  </use>
                  <path fill="none" stroke="white" stroke-width="1.5" d="M0,-3.0v7 M-2.5,-0.5L0,-3.0L2.5,-0.5"/>
                </g>
                <g id="arrowLeft" xlink:href="#dirArrow" transform="rotate(270) translate(-36 17)" onmousedown="handlePan(-1,0)">
                  <use xlink:href="#rim" fill="#404040">
                        <set attributeName="fill" to="#808080" begin="arrowLeft.mouseover" end="arrowLeft.mouseout"/>
                  </use>
                  <path fill="none" stroke="white" stroke-width="1.5" d="M0,-3.0v7 M-2.5,-0.5L0,-3.0L2.5,-0.5"/>
                </g>
        </g>
        <svg viewBox="0 0 15 15" width="100%" height="30px" preserveAspectRatio="xMaxYMin meet">
         <g id="arrow_out" transform="scale(0.3 0.3)">
          <a xlink:href="hairpin__loops_8h__incl_org.svg" target="_base">
           <rect id="button" ry="5" rx="5" y="6" x="6" height="38" width="38"
                fill="#f2f5e9" fill-opacity="0.5" stroke="#606060" stroke-width="1.0"/>
           <path id="arrow"
             d="M 11.500037,31.436501 C 11.940474,20.09759 22.043105,11.32322 32.158766,21.979434 L 37.068811,17.246167 C 37.068811,17.246167 37.088388,32 37.088388,32 L 22.160133,31.978069 C 22.160133,31.978069 26.997745,27.140456 26.997745,27.140456 C 18.528582,18.264221 13.291696,25.230495 11.500037,31.436501 z"
             style="fill:#404040;"/>
          </a>
         </g>
        </svg>
</svg>
