<?xml version="1.0" encoding="UTF-8" standalone="no"?>
<!DOCTYPE svg PUBLIC "-//W3C//DTD SVG 1.1//EN"
 "http://www.w3.org/Graphics/SVG/1.1/DTD/svg11.dtd">
<!-- Generated by graphviz version 2.47.0 (0)
 -->
<!-- Title: ViennaRNA/loops/hairpin.h Pages: 1 -->
<svg width="292pt" height="140pt"
 viewBox="0.00 0.00 291.50 140.00" xmlns="http://www.w3.org/2000/svg" xmlns:xlink="http://www.w3.org/1999/xlink">
<g id="graph0" class="graph" transform="scale(1 1) rotate(0) translate(4 136)">
<title>ViennaRNA/loops/hairpin.h</title>
<!-- Node1 -->
<g id="node1" class="node">
<title>Node1</title>
<g id="a_node1"><a xlink:title="Energy evaluation of hairpin loops for MFE and partition function calculations.">
<polygon fill="#bfbfbf" stroke="black" points="73.5,-112.5 73.5,-131.5 207.5,-131.5 207.5,-112.5 73.5,-112.5"/>
<text text-anchor="middle" x="140.5" y="-119.5" font-family="Helvetica,sans-Serif" font-size="10.00">ViennaRNA/loops/hairpin.h</text>
</a>
</g>
</g>
<!-- Node2 -->
<g id="node2" class="node">
<title>Node2</title>
<g id="a_node2"><a xlink:href="hairpin__loops_8h.html" target="_top" xlink:title="Use ViennaRNA/loops/hairpin.h instead.">
<polygon fill="none" stroke="black" points="0,-56.5 0,-75.5 137,-75.5 137,-56.5 0,-56.5"/>
<text text-anchor="middle" x="68.5" y="-63.5" font-family="Helvetica,sans-Serif" font-size="10.00">ViennaRNA/hairpin_loops.h</text>
</a>
</g>
</g>
<!-- Node1&#45;&gt;Node2 -->
<g id="edge1" class="edge">
<title>Node1&#45;&gt;Node2</title>
<path fill="none" stroke="midnightblue" d="M120.63,-106.1C107.68,-96.38 91.2,-84.03 80.28,-75.83"/>
<polygon fill="midnightblue" stroke="midnightblue" points="118.83,-109.12 128.93,-112.32 123.03,-103.52 118.83,-109.12"/>
</g>
<!-- Node3 -->
<g id="node3" class="node">
<title>Node3</title>
<g id="a_node3"><a xlink:href="all_8h.html" target="_top" xlink:title="Energy evaluation for MFE and partition function calculations.">
<polygon fill="none" stroke="black" points="155.5,-56.5 155.5,-75.5 271.5,-75.5 271.5,-56.5 155.5,-56.5"/>
<text text-anchor="middle" x="213.5" y="-63.5" font-family="Helvetica,sans-Serif" font-size="10.00">ViennaRNA/loops/all.h</text>
</a>
</g>
</g>
<!-- Node1&#45;&gt;Node3 -->
<g id="edge2" class="edge">
<title>Node1&#45;&gt;Node3</title>
<path fill="none" stroke="midnightblue" d="M160.64,-106.1C173.78,-96.38 190.48,-84.03 201.56,-75.83"/>
<polygon fill="midnightblue" stroke="midnightblue" points="158.19,-103.56 152.23,-112.32 162.35,-109.19 158.19,-103.56"/>
</g>
<!-- Node4 -->
<g id="node4" class="node">
<title>Node4</title>
<g id="a_node4"><a xlink:href="loop__energies_8h.html" target="_top" xlink:title="Use ViennaRNA/loops/all.h instead.">
<polygon fill="none" stroke="black" points="143.5,-0.5 143.5,-19.5 283.5,-19.5 283.5,-0.5 143.5,-0.5"/>
<text text-anchor="middle" x="213.5" y="-7.5" font-family="Helvetica,sans-Serif" font-size="10.00">ViennaRNA/loop_energies.h</text>
</a>
</g>
</g>
<!-- Node3&#45;&gt;Node4 -->
<g id="edge3" class="edge">
<title>Node3&#45;&gt;Node4</title>
<path fill="none" stroke="midnightblue" d="M213.5,-45.8C213.5,-36.91 213.5,-26.78 213.5,-19.75"/>
<polygon fill="midnightblue" stroke="midnightblue" points="210,-46.08 213.5,-56.08 217,-46.08 210,-46.08"/>
</g>
</g>
</svg>
