<?xml version="1.0" encoding="UTF-8" standalone="no"?>
<!DOCTYPE svg PUBLIC "-//W3C//DTD SVG 1.1//EN"
 "http://www.w3.org/Graphics/SVG/1.1/DTD/svg11.dtd">
<!-- Generated by graphviz version 2.47.0 (0)
 -->
<!-- Title: ViennaRNA/constraints/hard.h Pages: 1 -->
<svg width="1134pt" height="408pt"
 viewBox="0.00 0.00 1134.00 408.00" xmlns="http://www.w3.org/2000/svg" xmlns:xlink="http://www.w3.org/1999/xlink">
<g id="graph0" class="graph" transform="scale(1 1) rotate(0) translate(4 404)">
<title>ViennaRNA/constraints/hard.h</title>
<!-- Node1 -->
<g id="node1" class="node">
<title>Node1</title>
<g id="a_node1"><a xlink:title="Functions and data structures for handling of secondary structure hard constraints.">
<polygon fill="#bfbfbf" stroke="black" points="834,-369.5 834,-399.5 953,-399.5 953,-369.5 834,-369.5"/>
<text text-anchor="start" x="842" y="-387.5" font-family="Helvetica,sans-Serif" font-size="10.00">ViennaRNA/constraints</text>
<text text-anchor="middle" x="893.5" y="-376.5" font-family="Helvetica,sans-Serif" font-size="10.00">/hard.h</text>
</a>
</g>
</g>
<!-- Node2 -->
<g id="node2" class="node">
<title>Node2</title>
<g id="a_node2"><a xlink:href="fold__compound_8h.html" target="_top" xlink:title="The Basic Fold Compound API.">
<polygon fill="none" stroke="black" points="674.5,-313.5 674.5,-332.5 820.5,-332.5 820.5,-313.5 674.5,-313.5"/>
<text text-anchor="middle" x="747.5" y="-320.5" font-family="Helvetica,sans-Serif" font-size="10.00">ViennaRNA/fold_compound.h</text>
</a>
</g>
</g>
<!-- Node1&#45;&gt;Node2 -->
<g id="edge1" class="edge">
<title>Node1&#45;&gt;Node2</title>
<path fill="none" stroke="midnightblue" d="M853.06,-369.4C827.51,-359.51 795.37,-346.38 773.23,-336.79"/>
<polygon fill="midnightblue" stroke="midnightblue" points="774.38,-333.47 763.81,-332.66 771.56,-339.88 774.38,-333.47"/>
</g>
<!-- Node10 -->
<g id="node10" class="node">
<title>Node10</title>
<g id="a_node10"><a xlink:href="constraints_2basic_8h.html" target="_top" xlink:title="Functions and data structures for constraining secondary structure predictions and evaluation.">
<polygon fill="none" stroke="black" points="1007,-56.5 1007,-86.5 1126,-86.5 1126,-56.5 1007,-56.5"/>
<text text-anchor="start" x="1015" y="-74.5" font-family="Helvetica,sans-Serif" font-size="10.00">ViennaRNA/constraints</text>
<text text-anchor="middle" x="1066.5" y="-63.5" font-family="Helvetica,sans-Serif" font-size="10.00">/basic.h</text>
</a>
</g>
</g>
<!-- Node1&#45;&gt;Node10 -->
<g id="edge41" class="edge">
<title>Node1&#45;&gt;Node10</title>
<path fill="none" stroke="midnightblue" d="M953.12,-376.47C1015.51,-365.39 1104.5,-337.43 1104.5,-268 1104.5,-268 1104.5,-268 1104.5,-204.5 1104.5,-165.34 1088.87,-122.11 1077.65,-96.14"/>
<polygon fill="midnightblue" stroke="midnightblue" points="1080.74,-94.47 1073.47,-86.76 1074.35,-97.32 1080.74,-94.47"/>
</g>
<!-- Node2&#45;&gt;Node1 -->
<g id="edge35" class="edge">
<title>Node2&#45;&gt;Node1</title>
<path fill="none" stroke="midnightblue" d="M773.67,-332.66C796.46,-341.2 829.58,-354.51 855.29,-365.37"/>
<polygon fill="midnightblue" stroke="midnightblue" points="854.17,-368.7 864.74,-369.4 856.91,-362.26 854.17,-368.7"/>
</g>
<!-- Node3 -->
<g id="node3" class="node">
<title>Node3</title>
<g id="a_node3"><a xlink:href="model_8h.html" target="_top" xlink:title="The model details data structure and its corresponding modifiers.">
<polygon fill="none" stroke="black" points="268.5,-129 268.5,-148 374.5,-148 374.5,-129 268.5,-129"/>
<text text-anchor="middle" x="321.5" y="-136" font-family="Helvetica,sans-Serif" font-size="10.00">ViennaRNA/model.h</text>
</a>
</g>
</g>
<!-- Node2&#45;&gt;Node3 -->
<g id="edge2" class="edge">
<title>Node2&#45;&gt;Node3</title>
<path fill="none" stroke="midnightblue" d="M674.15,-318.32C565.73,-312.21 372.93,-298.45 349.5,-277 316.2,-246.52 316.44,-188.11 319.11,-158.18"/>
<polygon fill="midnightblue" stroke="midnightblue" points="322.59,-158.54 320.19,-148.23 315.63,-157.79 322.59,-158.54"/>
</g>
<!-- Node4 -->
<g id="node4" class="node">
<title>Node4</title>
<g id="a_node4"><a xlink:href="params_2basic_8h.html" target="_top" xlink:title="Functions to deal with sets of energy parameters.">
<polygon fill="none" stroke="black" points="358.5,-257.5 358.5,-276.5 496.5,-276.5 496.5,-257.5 358.5,-257.5"/>
<text text-anchor="middle" x="427.5" y="-264.5" font-family="Helvetica,sans-Serif" font-size="10.00">ViennaRNA/params/basic.h</text>
</a>
</g>
</g>
<!-- Node2&#45;&gt;Node4 -->
<g id="edge3" class="edge">
<title>Node2&#45;&gt;Node4</title>
<path fill="none" stroke="midnightblue" d="M691.71,-313.44C633.09,-303.9 541.59,-288.48 483.06,-278.29"/>
<polygon fill="midnightblue" stroke="midnightblue" points="483.34,-274.79 472.89,-276.52 482.14,-281.68 483.34,-274.79"/>
</g>
<!-- Node8 -->
<g id="node8" class="node">
<title>Node8</title>
<g id="a_node8"><a xlink:href="dp__matrices_8h.html" target="_top" xlink:title="Functions to deal with standard dynamic programming (DP) matrices.">
<polygon fill="none" stroke="black" points="768,-129 768,-148 901,-148 901,-129 768,-129"/>
<text text-anchor="middle" x="834.5" y="-136" font-family="Helvetica,sans-Serif" font-size="10.00">ViennaRNA/dp_matrices.h</text>
</a>
</g>
</g>
<!-- Node2&#45;&gt;Node8 -->
<g id="edge34" class="edge">
<title>Node2&#45;&gt;Node8</title>
<path fill="none" stroke="midnightblue" d="M775.45,-313.4C793.38,-306.81 815.13,-295.59 826.5,-277 849.17,-239.95 839.11,-186.12 834.63,-158.07"/>
<polygon fill="midnightblue" stroke="midnightblue" points="838.07,-157.45 833.19,-148.05 831.14,-158.45 838.07,-157.45"/>
</g>
<!-- Node9 -->
<g id="node9" class="node">
<title>Node9</title>
<g id="a_node9"><a xlink:href="soft_8h.html" target="_top" xlink:title="Functions and data structures for secondary structure soft constraints.">
<polygon fill="none" stroke="black" points="919,-123.5 919,-153.5 1038,-153.5 1038,-123.5 919,-123.5"/>
<text text-anchor="start" x="927" y="-141.5" font-family="Helvetica,sans-Serif" font-size="10.00">ViennaRNA/constraints</text>
<text text-anchor="middle" x="978.5" y="-130.5" font-family="Helvetica,sans-Serif" font-size="10.00">/soft.h</text>
</a>
</g>
</g>
<!-- Node2&#45;&gt;Node9 -->
<g id="edge36" class="edge">
<title>Node2&#45;&gt;Node9</title>
<path fill="none" stroke="midnightblue" d="M774.38,-313.42C796.99,-306.3 829.1,-294.48 853.5,-277 898.33,-244.89 936.51,-191.66 958.83,-161.72"/>
<polygon fill="midnightblue" stroke="midnightblue" points="961.74,-163.67 964.97,-153.58 956.15,-159.46 961.74,-163.67"/>
</g>
<!-- Node11 -->
<g id="node11" class="node">
<title>Node11</title>
<g id="a_node11"><a xlink:href="grammar_8h.html" target="_top" xlink:title="Implementations for the RNA folding grammar.">
<polygon fill="none" stroke="black" points="0,-129 0,-148 117,-148 117,-129 0,-129"/>
<text text-anchor="middle" x="58.5" y="-136" font-family="Helvetica,sans-Serif" font-size="10.00">ViennaRNA/grammar.h</text>
</a>
</g>
</g>
<!-- Node2&#45;&gt;Node11 -->
<g id="edge37" class="edge">
<title>Node2&#45;&gt;Node11</title>
<path fill="none" stroke="midnightblue" d="M674.25,-318.78C562.72,-313.05 356.19,-299.52 286.5,-277 198.87,-248.69 108.24,-184.56 73.15,-154.98"/>
<polygon fill="midnightblue" stroke="midnightblue" points="75.3,-152.2 65.47,-148.25 70.68,-157.47 75.3,-152.2"/>
</g>
<!-- Node12 -->
<g id="node12" class="node">
<title>Node12</title>
<g id="a_node12"><a xlink:href="structured__domains_8h.html" target="_top" xlink:title="This module provides interfaces that deal with additional structured domains in the folding grammar.">
<polygon fill="none" stroke="black" points="135,-123.5 135,-153.5 250,-153.5 250,-123.5 135,-123.5"/>
<text text-anchor="start" x="143" y="-141.5" font-family="Helvetica,sans-Serif" font-size="10.00">ViennaRNA/structured</text>
<text text-anchor="middle" x="192.5" y="-130.5" font-family="Helvetica,sans-Serif" font-size="10.00">_domains.h</text>
</a>
</g>
</g>
<!-- Node2&#45;&gt;Node12 -->
<g id="edge38" class="edge">
<title>Node2&#45;&gt;Node12</title>
<path fill="none" stroke="midnightblue" d="M674.46,-319.86C571.72,-315.89 390.46,-305.04 331.5,-277 276.58,-250.88 230.45,-193.98 207.71,-162.17"/>
<polygon fill="midnightblue" stroke="midnightblue" points="210.53,-160.1 201.93,-153.91 204.79,-164.11 210.53,-160.1"/>
</g>
<!-- Node13 -->
<g id="node13" class="node">
<title>Node13</title>
<g id="a_node13"><a xlink:href="unstructured__domains_8h.html" target="_top" xlink:title="Functions to modify unstructured domains, e.g. to incorporate ligands binding to unpaired stretches.">
<polygon fill="none" stroke="black" points="625,-123.5 625,-153.5 750,-153.5 750,-123.5 625,-123.5"/>
<text text-anchor="start" x="633" y="-141.5" font-family="Helvetica,sans-Serif" font-size="10.00">ViennaRNA/unstructured</text>
<text text-anchor="middle" x="687.5" y="-130.5" font-family="Helvetica,sans-Serif" font-size="10.00">_domains.h</text>
</a>
</g>
</g>
<!-- Node2&#45;&gt;Node13 -->
<g id="edge39" class="edge">
<title>Node2&#45;&gt;Node13</title>
<path fill="none" stroke="midnightblue" d="M761.52,-313.36C774.89,-306.09 793.61,-294.12 802.5,-277 806.6,-269.11 806.01,-265.17 802.5,-257 784.13,-214.29 741.75,-179.82 713.73,-159.52"/>
<polygon fill="midnightblue" stroke="midnightblue" points="715.71,-156.63 705.54,-153.68 711.65,-162.33 715.71,-156.63"/>
</g>
<!-- Node16 -->
<g id="node16" class="node">
<title>Node16</title>
<g id="a_node16"><a xlink:href="sequence_8h.html" target="_top" xlink:title="Functions and data structures related to sequence representations ,.">
<polygon fill="none" stroke="black" points="552.5,-257.5 552.5,-276.5 674.5,-276.5 674.5,-257.5 552.5,-257.5"/>
<text text-anchor="middle" x="613.5" y="-264.5" font-family="Helvetica,sans-Serif" font-size="10.00">ViennaRNA/sequence.h</text>
</a>
</g>
</g>
<!-- Node2&#45;&gt;Node16 -->
<g id="edge32" class="edge">
<title>Node2&#45;&gt;Node16</title>
<path fill="none" stroke="midnightblue" d="M721.18,-313.44C697.28,-304.6 662.53,-290.69 638.92,-280.59"/>
<polygon fill="midnightblue" stroke="midnightblue" points="640.12,-277.29 629.55,-276.52 637.33,-283.71 640.12,-277.29"/>
</g>
<!-- Node17 -->
<g id="node17" class="node">
<title>Node17</title>
<g id="a_node17"><a xlink:href="zscore_8h_source.html" target="_top" xlink:title=" ">
<polygon fill="none" stroke="black" points="693,-257.5 693,-276.5 802,-276.5 802,-257.5 693,-257.5"/>
<text text-anchor="middle" x="747.5" y="-264.5" font-family="Helvetica,sans-Serif" font-size="10.00">ViennaRNA/zscore.h</text>
</a>
</g>
</g>
<!-- Node2&#45;&gt;Node17 -->
<g id="edge40" class="edge">
<title>Node2&#45;&gt;Node17</title>
<path fill="none" stroke="midnightblue" d="M747.5,-313.08C747.5,-306.01 747.5,-295.86 747.5,-286.99"/>
<polygon fill="midnightblue" stroke="midnightblue" points="751,-286.75 747.5,-276.75 744,-286.75 751,-286.75"/>
</g>
<!-- Node4&#45;&gt;Node2 -->
<g id="edge30" class="edge">
<title>Node4&#45;&gt;Node2</title>
<path fill="none" stroke="midnightblue" d="M483.05,-276.52C541.57,-286.04 633.08,-301.46 691.69,-311.66"/>
<polygon fill="midnightblue" stroke="midnightblue" points="691.43,-315.17 701.88,-313.44 692.64,-308.28 691.43,-315.17"/>
</g>
<!-- Node4&#45;&gt;Node3 -->
<g id="edge31" class="edge">
<title>Node4&#45;&gt;Node3</title>
<path fill="none" stroke="midnightblue" d="M420.21,-257.31C402.74,-236.45 358.21,-183.31 335.41,-156.11"/>
<polygon fill="midnightblue" stroke="midnightblue" points="337.94,-153.67 328.84,-148.26 332.58,-158.17 337.94,-153.67"/>
</g>
<!-- Node5 -->
<g id="node5" class="node">
<title>Node5</title>
<g id="a_node5"><a xlink:href="constants_8h.html" target="_top" xlink:title="Energy parameter constants.">
<polygon fill="none" stroke="black" points="392.5,-129 392.5,-148 550.5,-148 550.5,-129 392.5,-129"/>
<text text-anchor="middle" x="471.5" y="-136" font-family="Helvetica,sans-Serif" font-size="10.00">ViennaRNA/params/constants.h</text>
</a>
</g>
</g>
<!-- Node4&#45;&gt;Node5 -->
<g id="edge4" class="edge">
<title>Node4&#45;&gt;Node5</title>
<path fill="none" stroke="midnightblue" d="M430.52,-257.31C437.62,-236.9 455.47,-185.6 465.1,-157.91"/>
<polygon fill="midnightblue" stroke="midnightblue" points="468.48,-158.85 468.45,-148.26 461.86,-156.55 468.48,-158.85"/>
</g>
<!-- Node7 -->
<g id="node7" class="node">
<title>Node7</title>
<g id="a_node7"><a xlink:href="datastructures_2basic_8h.html" target="_top" xlink:title="Various data structures and pre&#45;processor macros.">
<polygon fill="none" stroke="black" points="520.5,-190.5 520.5,-220.5 654.5,-220.5 654.5,-190.5 520.5,-190.5"/>
<text text-anchor="start" x="528.5" y="-208.5" font-family="Helvetica,sans-Serif" font-size="10.00">ViennaRNA/datastructures</text>
<text text-anchor="middle" x="587.5" y="-197.5" font-family="Helvetica,sans-Serif" font-size="10.00">/basic.h</text>
</a>
</g>
</g>
<!-- Node4&#45;&gt;Node7 -->
<g id="edge6" class="edge">
<title>Node4&#45;&gt;Node7</title>
<path fill="none" stroke="midnightblue" d="M445.52,-257.48C467.02,-248.78 503.55,-235.03 534.23,-224"/>
<polygon fill="midnightblue" stroke="midnightblue" points="535.72,-227.18 543.96,-220.52 533.37,-220.59 535.72,-227.18"/>
</g>
<!-- Node6 -->
<g id="node6" class="node">
<title>Node6</title>
<g id="a_node6"><a xlink:title=" ">
<polygon fill="none" stroke="#bfbfbf" points="447.5,-62 447.5,-81 495.5,-81 495.5,-62 447.5,-62"/>
<text text-anchor="middle" x="471.5" y="-69" font-family="Helvetica,sans-Serif" font-size="10.00">limits.h</text>
</a>
</g>
</g>
<!-- Node5&#45;&gt;Node6 -->
<g id="edge5" class="edge">
<title>Node5&#45;&gt;Node6</title>
<path fill="none" stroke="midnightblue" d="M471.5,-128.73C471.5,-119.18 471.5,-103.62 471.5,-91.28"/>
<polygon fill="midnightblue" stroke="midnightblue" points="475,-91.13 471.5,-81.13 468,-91.13 475,-91.13"/>
</g>
<!-- Node7&#45;&gt;Node1 -->
<g id="edge14" class="edge">
<title>Node7&#45;&gt;Node1</title>
<path fill="none" stroke="midnightblue" d="M654.58,-208.46C702.12,-212.8 765.39,-224.86 811.5,-257 848.38,-282.7 872.68,-330.86 884.68,-359.77"/>
<polygon fill="midnightblue" stroke="midnightblue" points="881.46,-361.13 888.42,-369.12 887.96,-358.54 881.46,-361.13"/>
</g>
<!-- Node7&#45;&gt;Node2 -->
<g id="edge8" class="edge">
<title>Node7&#45;&gt;Node2</title>
<path fill="none" stroke="midnightblue" d="M568.14,-220.67C550.37,-235.39 528.86,-258.78 543.5,-277 558.85,-296.11 614.88,-307.59 664.34,-314.16"/>
<polygon fill="midnightblue" stroke="midnightblue" points="664.09,-317.66 674.45,-315.45 664.98,-310.71 664.09,-317.66"/>
</g>
<!-- Node7&#45;&gt;Node3 -->
<g id="edge9" class="edge">
<title>Node7&#45;&gt;Node3</title>
<path fill="none" stroke="midnightblue" d="M530.11,-190.48C480.98,-178.47 411.24,-161.43 366.18,-150.42"/>
<polygon fill="midnightblue" stroke="midnightblue" points="366.95,-147 356.4,-148.03 365.29,-153.8 366.95,-147"/>
</g>
<!-- Node7&#45;&gt;Node4 -->
<g id="edge10" class="edge">
<title>Node7&#45;&gt;Node4</title>
<path fill="none" stroke="midnightblue" d="M555.62,-220.52C529.48,-230.74 492.58,-244.42 465.02,-254.1"/>
<polygon fill="midnightblue" stroke="midnightblue" points="463.62,-250.88 455.32,-257.48 465.92,-257.5 463.62,-250.88"/>
</g>
<!-- Node7&#45;&gt;Node5 -->
<g id="edge7" class="edge">
<title>Node7&#45;&gt;Node5</title>
<path fill="none" stroke="midnightblue" d="M562.33,-190.4C542.52,-179.29 515.08,-163.92 495.56,-152.98"/>
<polygon fill="midnightblue" stroke="midnightblue" points="497.12,-149.84 486.68,-148.01 493.69,-155.95 497.12,-149.84"/>
</g>
<!-- Node7&#45;&gt;Node8 -->
<g id="edge11" class="edge">
<title>Node7&#45;&gt;Node8</title>
<path fill="none" stroke="midnightblue" d="M635.12,-190.48C679.06,-178.5 743.8,-161.5 787.53,-150.49"/>
<polygon fill="midnightblue" stroke="midnightblue" points="788.5,-153.85 797.35,-148.03 786.8,-147.06 788.5,-153.85"/>
</g>
<!-- Node7&#45;&gt;Node9 -->
<g id="edge15" class="edge">
<title>Node7&#45;&gt;Node9</title>
<path fill="none" stroke="midnightblue" d="M654.68,-194.07C718.38,-184.58 816.52,-169.69 901.5,-154 903.85,-153.57 906.25,-153.11 908.67,-152.64"/>
<polygon fill="midnightblue" stroke="midnightblue" points="909.61,-156.03 918.75,-150.65 908.26,-149.16 909.61,-156.03"/>
</g>
<!-- Node7&#45;&gt;Node11 -->
<g id="edge20" class="edge">
<title>Node7&#45;&gt;Node11</title>
<path fill="none" stroke="midnightblue" d="M520.26,-199.36C430.06,-191.97 265.07,-176.67 125.5,-154 118.71,-152.9 111.58,-151.55 104.59,-150.13"/>
<polygon fill="midnightblue" stroke="midnightblue" points="105.04,-146.65 94.53,-148.02 103.6,-153.5 105.04,-146.65"/>
</g>
<!-- Node7&#45;&gt;Node12 -->
<g id="edge22" class="edge">
<title>Node7&#45;&gt;Node12</title>
<path fill="none" stroke="midnightblue" d="M520.4,-195.38C456.17,-186.37 356.34,-171.66 260.1,-154.04"/>
<polygon fill="midnightblue" stroke="midnightblue" points="260.67,-150.59 250.2,-152.22 259.4,-157.47 260.67,-150.59"/>
</g>
<!-- Node7&#45;&gt;Node13 -->
<g id="edge23" class="edge">
<title>Node7&#45;&gt;Node13</title>
<path fill="none" stroke="midnightblue" d="M603.52,-190.4C616.47,-181.2 634.94,-169.07 651.33,-158.95"/>
<polygon fill="midnightblue" stroke="midnightblue" points="653.44,-161.76 660.17,-153.58 649.81,-155.78 653.44,-161.76"/>
</g>
<!-- Node14 -->
<g id="node14" class="node">
<title>Node14</title>
<g id="a_node14"><a xlink:href="utils_2structures_8h.html" target="_top" xlink:title="Various utility&#45; and helper&#45;functions for secondary structure parsing, converting,...">
<polygon fill="none" stroke="black" points="515.5,-62 515.5,-81 659.5,-81 659.5,-62 515.5,-62"/>
<text text-anchor="middle" x="587.5" y="-69" font-family="Helvetica,sans-Serif" font-size="10.00">ViennaRNA/utils/structures.h</text>
</a>
</g>
</g>
<!-- Node7&#45;&gt;Node14 -->
<g id="edge29" class="edge">
<title>Node7&#45;&gt;Node14</title>
<path fill="none" stroke="midnightblue" d="M583.13,-190.37C580.13,-166.4 579.97,-117.75 582.63,-91.06"/>
<polygon fill="midnightblue" stroke="midnightblue" points="586.11,-91.47 583.95,-81.1 579.17,-90.55 586.11,-91.47"/>
</g>
<!-- Node8&#45;&gt;Node2 -->
<g id="edge13" class="edge">
<title>Node8&#45;&gt;Node2</title>
<path fill="none" stroke="midnightblue" d="M841.67,-148.05C853.72,-170.96 870.29,-234.85 844.5,-277 834.9,-292.68 817.92,-303.12 800.76,-309.96"/>
<polygon fill="midnightblue" stroke="midnightblue" points="799.47,-306.71 791.25,-313.4 801.85,-313.29 799.47,-306.71"/>
</g>
<!-- Node8&#45;&gt;Node7 -->
<g id="edge12" class="edge">
<title>Node8&#45;&gt;Node7</title>
<path fill="none" stroke="midnightblue" d="M806.83,-148.03C770.55,-158.15 705.97,-175.25 656.2,-187.99"/>
<polygon fill="midnightblue" stroke="midnightblue" points="655.28,-184.61 646.46,-190.48 657.01,-191.39 655.28,-184.61"/>
</g>
<!-- Node9&#45;&gt;Node2 -->
<g id="edge17" class="edge">
<title>Node9&#45;&gt;Node2</title>
<path fill="none" stroke="midnightblue" d="M975.14,-153.58C961.98,-180.95 920.76,-241.72 871.5,-277 850.07,-292.35 822.7,-303.33 799.04,-310.6"/>
<polygon fill="midnightblue" stroke="midnightblue" points="797.78,-307.33 789.16,-313.5 799.74,-314.05 797.78,-307.33"/>
</g>
<!-- Node9&#45;&gt;Node7 -->
<g id="edge16" class="edge">
<title>Node9&#45;&gt;Node7</title>
<path fill="none" stroke="midnightblue" d="M922.01,-153.53C921.17,-153.69 920.33,-153.85 919.5,-154 832.83,-170 732.47,-185.17 664.9,-194.63"/>
<polygon fill="midnightblue" stroke="midnightblue" points="664.18,-191.2 654.76,-196.04 665.15,-198.13 664.18,-191.2"/>
</g>
<!-- Node9&#45;&gt;Node10 -->
<g id="edge18" class="edge">
<title>Node9&#45;&gt;Node10</title>
<path fill="none" stroke="midnightblue" d="M997.59,-123.4C1009.82,-114.37 1025.87,-102.51 1039.4,-92.52"/>
<polygon fill="midnightblue" stroke="midnightblue" points="1041.48,-95.33 1047.44,-86.58 1037.32,-89.7 1041.48,-95.33"/>
</g>
<!-- Node10&#45;&gt;Node2 -->
<g id="edge19" class="edge">
<title>Node10&#45;&gt;Node2</title>
<path fill="none" stroke="midnightblue" d="M1065.95,-86.51C1064.69,-103.63 1060.62,-132.9 1047.5,-154 1001.96,-227.2 973.6,-236.49 897.5,-277 867.77,-292.83 831.68,-303.87 802.35,-311.06"/>
<polygon fill="midnightblue" stroke="midnightblue" points="801.21,-307.74 792.28,-313.44 802.82,-314.55 801.21,-307.74"/>
</g>
<!-- Node11&#45;&gt;Node2 -->
<g id="edge21" class="edge">
<title>Node11&#45;&gt;Node2</title>
<path fill="none" stroke="midnightblue" d="M73.27,-148.07C110.39,-173.09 209.22,-246.22 304.5,-277 369.81,-298.1 555.28,-311.31 664.48,-317.61"/>
<polygon fill="midnightblue" stroke="midnightblue" points="664.29,-321.1 674.47,-318.18 664.69,-314.11 664.29,-321.1"/>
</g>
<!-- Node13&#45;&gt;Node2 -->
<g id="edge25" class="edge">
<title>Node13&#45;&gt;Node2</title>
<path fill="none" stroke="midnightblue" d="M717.7,-153.52C750.44,-172.56 800.17,-209.73 820.5,-257 824.01,-265.17 824.6,-269.11 820.5,-277 813.21,-291.04 799.3,-301.62 785.46,-308.98"/>
<polygon fill="midnightblue" stroke="midnightblue" points="783.91,-305.84 776.45,-313.36 786.97,-312.14 783.91,-305.84"/>
</g>
<!-- Node13&#45;&gt;Node7 -->
<g id="edge24" class="edge">
<title>Node13&#45;&gt;Node7</title>
<path fill="none" stroke="midnightblue" d="M671.52,-153.58C658.58,-162.77 640.11,-174.9 623.72,-185.02"/>
<polygon fill="midnightblue" stroke="midnightblue" points="621.6,-182.21 614.88,-190.4 625.24,-188.19 621.6,-182.21"/>
</g>
<!-- Node13&#45;&gt;Node14 -->
<g id="edge26" class="edge">
<title>Node13&#45;&gt;Node14</title>
<path fill="none" stroke="midnightblue" d="M665.8,-123.4C649.03,-112.5 625.93,-97.48 609.17,-86.58"/>
<polygon fill="midnightblue" stroke="midnightblue" points="610.88,-83.52 600.59,-81.01 607.06,-89.39 610.88,-83.52"/>
</g>
<!-- Node14&#45;&gt;Node7 -->
<g id="edge28" class="edge">
<title>Node14&#45;&gt;Node7</title>
<path fill="none" stroke="midnightblue" d="M591.05,-81.1C594.59,-100.91 595.19,-150.38 592.86,-180.32"/>
<polygon fill="midnightblue" stroke="midnightblue" points="589.37,-180.08 591.87,-190.37 596.33,-180.77 589.37,-180.08"/>
</g>
<!-- Node15 -->
<g id="node15" class="node">
<title>Node15</title>
<g id="a_node15"><a xlink:title=" ">
<polygon fill="none" stroke="#bfbfbf" points="564.5,-0.5 564.5,-19.5 610.5,-19.5 610.5,-0.5 564.5,-0.5"/>
<text text-anchor="middle" x="587.5" y="-7.5" font-family="Helvetica,sans-Serif" font-size="10.00">stdio.h</text>
</a>
</g>
</g>
<!-- Node14&#45;&gt;Node15 -->
<g id="edge27" class="edge">
<title>Node14&#45;&gt;Node15</title>
<path fill="none" stroke="midnightblue" d="M587.5,-61.98C587.5,-53.58 587.5,-40.48 587.5,-29.66"/>
<polygon fill="midnightblue" stroke="midnightblue" points="591,-29.51 587.5,-19.51 584,-29.51 591,-29.51"/>
</g>
<!-- Node16&#45;&gt;Node2 -->
<g id="edge33" class="edge">
<title>Node16&#45;&gt;Node2</title>
<path fill="none" stroke="midnightblue" d="M639.71,-276.52C663.58,-285.35 698.33,-299.26 721.97,-309.37"/>
<polygon fill="midnightblue" stroke="midnightblue" points="720.79,-312.67 731.36,-313.44 723.58,-306.25 720.79,-312.67"/>
</g>
</g>
</svg>
