<?xml version="1.0" encoding="UTF-8" standalone="no"?>
<!DOCTYPE svg PUBLIC "-//W3C//DTD SVG 1.1//EN"
 "http://www.w3.org/Graphics/SVG/1.1/DTD/svg11.dtd">
<!-- Generated by graphviz version 2.47.0 (0)
 -->
<!-- Title: ViennaRNA/loops/internal.h Pages: 1 -->
<svg width="256pt" height="151pt"
 viewBox="0.00 0.00 255.50 151.00" xmlns="http://www.w3.org/2000/svg" xmlns:xlink="http://www.w3.org/1999/xlink">
<g id="graph0" class="graph" transform="scale(1 1) rotate(0) translate(4 147)">
<title>ViennaRNA/loops/internal.h</title>
<!-- Node1 -->
<g id="node1" class="node">
<title>Node1</title>
<g id="a_node1"><a xlink:title="Energy evaluation of interior loops for MFE and partition function calculations.">
<polygon fill="#bfbfbf" stroke="black" points="45,-123.5 45,-142.5 182,-142.5 182,-123.5 45,-123.5"/>
<text text-anchor="middle" x="113.5" y="-130.5" font-family="Helvetica,sans-Serif" font-size="10.00">ViennaRNA/loops/internal.h</text>
</a>
</g>
</g>
<!-- Node2 -->
<g id="node2" class="node">
<title>Node2</title>
<g id="a_node2"><a xlink:href="interior__loops_8h.html" target="_top" xlink:title="Use ViennaRNA/loops/internal.h instead.">
<polygon fill="none" stroke="black" points="0,-56.5 0,-86.5 101,-86.5 101,-56.5 0,-56.5"/>
<text text-anchor="start" x="8" y="-74.5" font-family="Helvetica,sans-Serif" font-size="10.00">ViennaRNA/interior</text>
<text text-anchor="middle" x="50.5" y="-63.5" font-family="Helvetica,sans-Serif" font-size="10.00">_loops.h</text>
</a>
</g>
</g>
<!-- Node1&#45;&gt;Node2 -->
<g id="edge1" class="edge">
<title>Node1&#45;&gt;Node2</title>
<path fill="none" stroke="midnightblue" d="M96.95,-116.37C87.15,-107.11 74.83,-95.48 65.35,-86.52"/>
<polygon fill="midnightblue" stroke="midnightblue" points="94.8,-119.15 104.47,-123.48 99.61,-114.06 94.8,-119.15"/>
</g>
<!-- Node3 -->
<g id="node3" class="node">
<title>Node3</title>
<g id="a_node3"><a xlink:href="all_8h.html" target="_top" xlink:title="Energy evaluation for MFE and partition function calculations.">
<polygon fill="none" stroke="black" points="119.5,-62 119.5,-81 235.5,-81 235.5,-62 119.5,-62"/>
<text text-anchor="middle" x="177.5" y="-69" font-family="Helvetica,sans-Serif" font-size="10.00">ViennaRNA/loops/all.h</text>
</a>
</g>
</g>
<!-- Node1&#45;&gt;Node3 -->
<g id="edge2" class="edge">
<title>Node1&#45;&gt;Node3</title>
<path fill="none" stroke="midnightblue" d="M130.01,-116.65C142.21,-105.31 158.37,-90.28 168.35,-81.01"/>
<polygon fill="midnightblue" stroke="midnightblue" points="127.61,-114.1 122.67,-123.48 132.38,-119.23 127.61,-114.1"/>
</g>
<!-- Node4 -->
<g id="node4" class="node">
<title>Node4</title>
<g id="a_node4"><a xlink:href="loop__energies_8h.html" target="_top" xlink:title="Use ViennaRNA/loops/all.h instead.">
<polygon fill="none" stroke="black" points="107.5,-0.5 107.5,-19.5 247.5,-19.5 247.5,-0.5 107.5,-0.5"/>
<text text-anchor="middle" x="177.5" y="-7.5" font-family="Helvetica,sans-Serif" font-size="10.00">ViennaRNA/loop_energies.h</text>
</a>
</g>
</g>
<!-- Node3&#45;&gt;Node4 -->
<g id="edge3" class="edge">
<title>Node3&#45;&gt;Node4</title>
<path fill="none" stroke="midnightblue" d="M177.5,-51.82C177.5,-41 177.5,-27.9 177.5,-19.51"/>
<polygon fill="midnightblue" stroke="midnightblue" points="174,-51.98 177.5,-61.98 181,-51.98 174,-51.98"/>
</g>
</g>
</svg>
