<?xml version="1.0" encoding="UTF-8" standalone="no"?>
<!DOCTYPE svg PUBLIC "-//W3C//DTD SVG 1.1//EN"
 "http://www.w3.org/Graphics/SVG/1.1/DTD/svg11.dtd">
<!-- Generated by graphviz version 2.47.0 (0)
 -->
<!-- Title: ViennaRNA/loops/internal.h Pages: 1 -->
<svg width="1678pt" height="397pt"
 viewBox="0.00 0.00 1678.00 397.00" xmlns="http://www.w3.org/2000/svg" xmlns:xlink="http://www.w3.org/1999/xlink">
<g id="graph0" class="graph" transform="scale(1 1) rotate(0) translate(4 393)">
<title>ViennaRNA/loops/internal.h</title>
<!-- Node1 -->
<g id="node1" class="node">
<title>Node1</title>
<g id="a_node1"><a xlink:title="Energy evaluation of interior loops for MFE and partition function calculations.">
<polygon fill="#bfbfbf" stroke="black" points="1047.5,-369.5 1047.5,-388.5 1184.5,-388.5 1184.5,-369.5 1047.5,-369.5"/>
<text text-anchor="middle" x="1116" y="-376.5" font-family="Helvetica,sans-Serif" font-size="10.00">ViennaRNA/loops/internal.h</text>
</a>
</g>
</g>
<!-- Node2 -->
<g id="node2" class="node">
<title>Node2</title>
<g id="a_node2"><a xlink:href="utils_2basic_8h.html" target="_top" xlink:title="General utility&#45; and helper&#45;functions used throughout the ViennaRNA Package.">
<polygon fill="none" stroke="black" points="518,-313.5 518,-332.5 642,-332.5 642,-313.5 518,-313.5"/>
<text text-anchor="middle" x="580" y="-320.5" font-family="Helvetica,sans-Serif" font-size="10.00">ViennaRNA/utils/basic.h</text>
</a>
</g>
</g>
<!-- Node1&#45;&gt;Node2 -->
<g id="edge1" class="edge">
<title>Node1&#45;&gt;Node2</title>
<path fill="none" stroke="midnightblue" d="M1047.3,-371.08C945.6,-360.83 755.88,-341.72 652.2,-331.27"/>
<polygon fill="midnightblue" stroke="midnightblue" points="652.44,-327.78 642.14,-330.26 651.74,-334.75 652.44,-327.78"/>
</g>
<!-- Node5 -->
<g id="node5" class="node">
<title>Node5</title>
<g id="a_node5"><a xlink:href="datastructures_2basic_8h.html" target="_top" xlink:title="Various data structures and pre&#45;processor macros.">
<polygon fill="none" stroke="black" points="568,-246.5 568,-276.5 702,-276.5 702,-246.5 568,-246.5"/>
<text text-anchor="start" x="576" y="-264.5" font-family="Helvetica,sans-Serif" font-size="10.00">ViennaRNA/datastructures</text>
<text text-anchor="middle" x="635" y="-253.5" font-family="Helvetica,sans-Serif" font-size="10.00">/basic.h</text>
</a>
</g>
</g>
<!-- Node1&#45;&gt;Node5 -->
<g id="edge48" class="edge">
<title>Node1&#45;&gt;Node5</title>
<path fill="none" stroke="midnightblue" d="M1080.24,-369.41C1000.51,-350.27 807.08,-303.82 703.37,-278.92"/>
<polygon fill="midnightblue" stroke="midnightblue" points="704.16,-275.51 693.62,-276.58 702.52,-282.31 704.16,-275.51"/>
</g>
<!-- Node8 -->
<g id="node8" class="node">
<title>Node8</title>
<g id="a_node8"><a xlink:href="fold__compound_8h.html" target="_top" xlink:title="The Basic Fold Compound API.">
<polygon fill="none" stroke="black" points="738,-190.5 738,-209.5 884,-209.5 884,-190.5 738,-190.5"/>
<text text-anchor="middle" x="811" y="-197.5" font-family="Helvetica,sans-Serif" font-size="10.00">ViennaRNA/fold_compound.h</text>
</a>
</g>
</g>
<!-- Node1&#45;&gt;Node8 -->
<g id="edge49" class="edge">
<title>Node1&#45;&gt;Node8</title>
<path fill="none" stroke="midnightblue" d="M1101.29,-369.46C1052.38,-341.08 894.93,-249.71 834.72,-214.76"/>
<polygon fill="midnightblue" stroke="midnightblue" points="836.33,-211.65 825.92,-209.66 832.81,-217.71 836.33,-211.65"/>
</g>
<!-- Node10 -->
<g id="node10" class="node">
<title>Node10</title>
<g id="a_node10"><a xlink:href="params_2basic_8h.html" target="_top" xlink:title="Functions to deal with sets of energy parameters.">
<polygon fill="none" stroke="black" points="1194,-129 1194,-148 1332,-148 1332,-129 1194,-129"/>
<text text-anchor="middle" x="1263" y="-136" font-family="Helvetica,sans-Serif" font-size="10.00">ViennaRNA/params/basic.h</text>
</a>
</g>
</g>
<!-- Node1&#45;&gt;Node10 -->
<g id="edge50" class="edge">
<title>Node1&#45;&gt;Node10</title>
<path fill="none" stroke="midnightblue" d="M1121.41,-369.23C1142.97,-334.24 1223.11,-204.22 1252.29,-156.88"/>
<polygon fill="midnightblue" stroke="midnightblue" points="1255.43,-158.45 1257.7,-148.1 1249.47,-154.78 1255.43,-158.45"/>
</g>
<!-- Node13 -->
<g id="node13" class="node">
<title>Node13</title>
<g id="a_node13"><a xlink:href="hard_8h.html" target="_top" xlink:title="Functions and data structures for handling of secondary structure hard constraints.">
<polygon fill="none" stroke="black" points="1350.5,-123.5 1350.5,-153.5 1469.5,-153.5 1469.5,-123.5 1350.5,-123.5"/>
<text text-anchor="start" x="1358.5" y="-141.5" font-family="Helvetica,sans-Serif" font-size="10.00">ViennaRNA/constraints</text>
<text text-anchor="middle" x="1410" y="-130.5" font-family="Helvetica,sans-Serif" font-size="10.00">/hard.h</text>
</a>
</g>
</g>
<!-- Node1&#45;&gt;Node13 -->
<g id="edge51" class="edge">
<title>Node1&#45;&gt;Node13</title>
<path fill="none" stroke="midnightblue" d="M1126.81,-369.23C1168.96,-335.04 1322.95,-210.12 1384.41,-160.26"/>
<polygon fill="midnightblue" stroke="midnightblue" points="1386.89,-162.75 1392.45,-153.74 1382.48,-157.32 1386.89,-162.75"/>
</g>
<!-- Node15 -->
<g id="node15" class="node">
<title>Node15</title>
<g id="a_node15"><a xlink:href="soft_8h.html" target="_top" xlink:title="Functions and data structures for secondary structure soft constraints.">
<polygon fill="none" stroke="black" points="1056.5,-123.5 1056.5,-153.5 1175.5,-153.5 1175.5,-123.5 1056.5,-123.5"/>
<text text-anchor="start" x="1064.5" y="-141.5" font-family="Helvetica,sans-Serif" font-size="10.00">ViennaRNA/constraints</text>
<text text-anchor="middle" x="1116" y="-130.5" font-family="Helvetica,sans-Serif" font-size="10.00">/soft.h</text>
</a>
</g>
</g>
<!-- Node1&#45;&gt;Node15 -->
<g id="edge52" class="edge">
<title>Node1&#45;&gt;Node15</title>
<path fill="none" stroke="midnightblue" d="M1116,-369.23C1116,-335.88 1116,-216.19 1116,-164.06"/>
<polygon fill="midnightblue" stroke="midnightblue" points="1119.5,-163.74 1116,-153.74 1112.5,-163.74 1119.5,-163.74"/>
</g>
<!-- Node21 -->
<g id="node21" class="node">
<title>Node21</title>
<g id="a_node21"><a xlink:href="default_8h_source.html" target="_top" xlink:title=" ">
<polygon fill="none" stroke="black" points="1526,-190.5 1526,-209.5 1670,-209.5 1670,-190.5 1526,-190.5"/>
<text text-anchor="middle" x="1598" y="-197.5" font-family="Helvetica,sans-Serif" font-size="10.00">ViennaRNA/params/default.h</text>
</a>
</g>
</g>
<!-- Node1&#45;&gt;Node21 -->
<g id="edge46" class="edge">
<title>Node1&#45;&gt;Node21</title>
<path fill="none" stroke="midnightblue" d="M1184.71,-375.35C1243.6,-371.17 1329.79,-360.44 1400,-333 1473.82,-304.15 1548.2,-244.4 1580.84,-216.27"/>
<polygon fill="midnightblue" stroke="midnightblue" points="1583.33,-218.75 1588.56,-209.54 1578.73,-213.48 1583.33,-218.75"/>
</g>
<!-- Node3 -->
<g id="node3" class="node">
<title>Node3</title>
<g id="a_node3"><a xlink:title=" ">
<polygon fill="none" stroke="#bfbfbf" points="27,-0.5 27,-19.5 73,-19.5 73,-0.5 27,-0.5"/>
<text text-anchor="middle" x="50" y="-7.5" font-family="Helvetica,sans-Serif" font-size="10.00">stdio.h</text>
</a>
</g>
</g>
<!-- Node2&#45;&gt;Node3 -->
<g id="edge2" class="edge">
<title>Node2&#45;&gt;Node3</title>
<path fill="none" stroke="midnightblue" d="M517.93,-322.04C368.31,-320.46 0,-305.92 0,-201 0,-201 0,-201 0,-137.5 0,-100.31 3.97,-90.02 19,-56 23.45,-45.93 30.23,-35.75 36.32,-27.62"/>
<polygon fill="midnightblue" stroke="midnightblue" points="39.11,-29.74 42.51,-19.71 33.59,-25.43 39.11,-29.74"/>
</g>
<!-- Node4 -->
<g id="node4" class="node">
<title>Node4</title>
<g id="a_node4"><a xlink:title=" ">
<polygon fill="none" stroke="#bfbfbf" points="498,-252 498,-271 550,-271 550,-252 498,-252"/>
<text text-anchor="middle" x="524" y="-259" font-family="Helvetica,sans-Serif" font-size="10.00">stdarg.h</text>
</a>
</g>
</g>
<!-- Node2&#45;&gt;Node4 -->
<g id="edge3" class="edge">
<title>Node2&#45;&gt;Node4</title>
<path fill="none" stroke="midnightblue" d="M571.98,-313.48C563.41,-304.37 549.64,-289.74 539.04,-278.48"/>
<polygon fill="midnightblue" stroke="midnightblue" points="541.41,-275.89 532.01,-271.01 536.31,-280.69 541.41,-275.89"/>
</g>
<!-- Node2&#45;&gt;Node5 -->
<g id="edge4" class="edge">
<title>Node2&#45;&gt;Node5</title>
<path fill="none" stroke="midnightblue" d="M587.88,-313.48C594.98,-305.79 605.72,-294.17 615.16,-283.96"/>
<polygon fill="midnightblue" stroke="midnightblue" points="617.82,-286.24 622.04,-276.52 612.68,-281.49 617.82,-286.24"/>
</g>
<!-- Node6 -->
<g id="node6" class="node">
<title>Node6</title>
<g id="a_node6"><a xlink:href="constants_8h.html" target="_top" xlink:title="Energy parameter constants.">
<polygon fill="none" stroke="black" points="1419,-62 1419,-81 1577,-81 1577,-62 1419,-62"/>
<text text-anchor="middle" x="1498" y="-69" font-family="Helvetica,sans-Serif" font-size="10.00">ViennaRNA/params/constants.h</text>
</a>
</g>
</g>
<!-- Node5&#45;&gt;Node6 -->
<g id="edge5" class="edge">
<title>Node5&#45;&gt;Node6</title>
<path fill="none" stroke="midnightblue" d="M702.11,-256.46C891.81,-244.43 1421.98,-206.41 1479,-154 1496.19,-138.2 1499.28,-110.14 1499.21,-91.42"/>
<polygon fill="midnightblue" stroke="midnightblue" points="1502.7,-91.04 1498.85,-81.17 1495.7,-91.29 1502.7,-91.04"/>
</g>
<!-- Node5&#45;&gt;Node8 -->
<g id="edge7" class="edge">
<title>Node5&#45;&gt;Node8</title>
<path fill="none" stroke="midnightblue" d="M676.71,-246.4C706.99,-236.16 747.49,-222.47 776.07,-212.81"/>
<polygon fill="midnightblue" stroke="midnightblue" points="777.3,-216.09 785.65,-209.57 775.05,-209.46 777.3,-216.09"/>
</g>
<!-- Node9 -->
<g id="node9" class="node">
<title>Node9</title>
<g id="a_node9"><a xlink:href="model_8h.html" target="_top" xlink:title="The model details data structure and its corresponding modifiers.">
<polygon fill="none" stroke="black" points="669,-62 669,-81 775,-81 775,-62 669,-62"/>
<text text-anchor="middle" x="722" y="-69" font-family="Helvetica,sans-Serif" font-size="10.00">ViennaRNA/model.h</text>
</a>
</g>
</g>
<!-- Node5&#45;&gt;Node9 -->
<g id="edge37" class="edge">
<title>Node5&#45;&gt;Node9</title>
<path fill="none" stroke="midnightblue" d="M575.18,-246.5C479.45,-223.5 300.74,-177.9 283,-154 274.79,-142.94 273.83,-133.28 283,-123 307.56,-95.45 543.27,-80.78 658.8,-75.2"/>
<polygon fill="midnightblue" stroke="midnightblue" points="659.1,-78.69 668.92,-74.72 658.77,-71.7 659.1,-78.69"/>
</g>
<!-- Node5&#45;&gt;Node10 -->
<g id="edge38" class="edge">
<title>Node5&#45;&gt;Node10</title>
<path fill="none" stroke="midnightblue" d="M702.22,-249.92C764.35,-240.49 859.01,-225.79 941,-210 1037.37,-191.44 1149.35,-165.03 1212.74,-150.37"/>
<polygon fill="midnightblue" stroke="midnightblue" points="1213.91,-153.69 1222.86,-148.04 1212.33,-146.87 1213.91,-153.69"/>
</g>
<!-- Node12 -->
<g id="node12" class="node">
<title>Node12</title>
<g id="a_node12"><a xlink:href="dp__matrices_8h.html" target="_top" xlink:title="Functions to deal with standard dynamic programming (DP) matrices.">
<polygon fill="none" stroke="black" points="425.5,-129 425.5,-148 558.5,-148 558.5,-129 425.5,-129"/>
<text text-anchor="middle" x="492" y="-136" font-family="Helvetica,sans-Serif" font-size="10.00">ViennaRNA/dp_matrices.h</text>
</a>
</g>
</g>
<!-- Node5&#45;&gt;Node12 -->
<g id="edge39" class="edge">
<title>Node5&#45;&gt;Node12</title>
<path fill="none" stroke="midnightblue" d="M613.79,-246.38C584.02,-223.64 531.26,-179.05 505.93,-155.29"/>
<polygon fill="midnightblue" stroke="midnightblue" points="508.1,-152.52 498.47,-148.09 503.24,-157.55 508.1,-152.52"/>
</g>
<!-- Node5&#45;&gt;Node13 -->
<g id="edge40" class="edge">
<title>Node5&#45;&gt;Node13</title>
<path fill="none" stroke="midnightblue" d="M702.24,-252.55C779.17,-243.26 908.88,-226.97 1020,-210 1159.95,-188.62 1197.13,-181.65 1340.16,-154.13"/>
<polygon fill="midnightblue" stroke="midnightblue" points="1341.03,-157.53 1350.19,-152.2 1339.7,-150.65 1341.03,-157.53"/>
</g>
<!-- Node5&#45;&gt;Node15 -->
<g id="edge41" class="edge">
<title>Node5&#45;&gt;Node15</title>
<path fill="none" stroke="midnightblue" d="M702.15,-248.17C752.51,-239.07 822.86,-225.6 884,-210 944.61,-194.54 1013.02,-172.16 1059.86,-156.78"/>
<polygon fill="midnightblue" stroke="midnightblue" points="1061.11,-160.06 1069.52,-153.61 1058.92,-153.41 1061.11,-160.06"/>
</g>
<!-- Node16 -->
<g id="node16" class="node">
<title>Node16</title>
<g id="a_node16"><a xlink:href="grammar_8h.html" target="_top" xlink:title="Implementations for the RNA folding grammar.">
<polygon fill="none" stroke="black" points="576.5,-129 576.5,-148 693.5,-148 693.5,-129 576.5,-129"/>
<text text-anchor="middle" x="635" y="-136" font-family="Helvetica,sans-Serif" font-size="10.00">ViennaRNA/grammar.h</text>
</a>
</g>
</g>
<!-- Node5&#45;&gt;Node16 -->
<g id="edge42" class="edge">
<title>Node5&#45;&gt;Node16</title>
<path fill="none" stroke="midnightblue" d="M635,-246.14C635,-224.2 635,-182.33 635,-158.09"/>
<polygon fill="midnightblue" stroke="midnightblue" points="638.5,-158.05 635,-148.05 631.5,-158.05 638.5,-158.05"/>
</g>
<!-- Node17 -->
<g id="node17" class="node">
<title>Node17</title>
<g id="a_node17"><a xlink:href="structured__domains_8h.html" target="_top" xlink:title="This module provides interfaces that deal with additional structured domains in the folding grammar.">
<polygon fill="none" stroke="black" points="292.5,-123.5 292.5,-153.5 407.5,-153.5 407.5,-123.5 292.5,-123.5"/>
<text text-anchor="start" x="300.5" y="-141.5" font-family="Helvetica,sans-Serif" font-size="10.00">ViennaRNA/structured</text>
<text text-anchor="middle" x="350" y="-130.5" font-family="Helvetica,sans-Serif" font-size="10.00">_domains.h</text>
</a>
</g>
</g>
<!-- Node5&#45;&gt;Node17 -->
<g id="edge43" class="edge">
<title>Node5&#45;&gt;Node17</title>
<path fill="none" stroke="midnightblue" d="M601.75,-246.38C549.84,-224.34 449.58,-181.78 392.49,-157.54"/>
<polygon fill="midnightblue" stroke="midnightblue" points="393.61,-154.21 383.04,-153.53 390.88,-160.66 393.61,-154.21"/>
</g>
<!-- Node18 -->
<g id="node18" class="node">
<title>Node18</title>
<g id="a_node18"><a xlink:href="unstructured__domains_8h.html" target="_top" xlink:title="Functions to modify unstructured domains, e.g. to incorporate ligands binding to unpaired stretches.">
<polygon fill="none" stroke="black" points="110.5,-123.5 110.5,-153.5 235.5,-153.5 235.5,-123.5 110.5,-123.5"/>
<text text-anchor="start" x="118.5" y="-141.5" font-family="Helvetica,sans-Serif" font-size="10.00">ViennaRNA/unstructured</text>
<text text-anchor="middle" x="173" y="-130.5" font-family="Helvetica,sans-Serif" font-size="10.00">_domains.h</text>
</a>
</g>
</g>
<!-- Node5&#45;&gt;Node18 -->
<g id="edge44" class="edge">
<title>Node5&#45;&gt;Node18</title>
<path fill="none" stroke="midnightblue" d="M567.61,-248.91C561.64,-247.87 555.71,-246.88 550,-246 413.34,-225.03 366.75,-267.47 241,-210 217.35,-199.19 196.03,-178.36 183.44,-162.14"/>
<polygon fill="midnightblue" stroke="midnightblue" points="186.05,-159.77 177.38,-153.69 180.36,-163.85 186.05,-159.77"/>
</g>
<!-- Node19 -->
<g id="node19" class="node">
<title>Node19</title>
<g id="a_node19"><a xlink:href="utils_2structures_8h.html" target="_top" xlink:title="Various utility&#45; and helper&#45;functions for secondary structure parsing, converting,...">
<polygon fill="none" stroke="black" points="28,-62 28,-81 172,-81 172,-62 28,-62"/>
<text text-anchor="middle" x="100" y="-69" font-family="Helvetica,sans-Serif" font-size="10.00">ViennaRNA/utils/structures.h</text>
</a>
</g>
</g>
<!-- Node5&#45;&gt;Node19 -->
<g id="edge45" class="edge">
<title>Node5&#45;&gt;Node19</title>
<path fill="none" stroke="midnightblue" d="M567.62,-248.85C561.65,-247.82 555.71,-246.85 550,-246 399.24,-223.7 355.64,-251.5 209,-210 153.53,-194.3 123.03,-202.59 92,-154 79.95,-135.14 82.41,-108.47 88.17,-90.84"/>
<polygon fill="midnightblue" stroke="midnightblue" points="91.57,-91.77 92.09,-81.19 85.09,-89.14 91.57,-91.77"/>
</g>
<!-- Node7 -->
<g id="node7" class="node">
<title>Node7</title>
<g id="a_node7"><a xlink:title=" ">
<polygon fill="none" stroke="#bfbfbf" points="1474,-0.5 1474,-19.5 1522,-19.5 1522,-0.5 1474,-0.5"/>
<text text-anchor="middle" x="1498" y="-7.5" font-family="Helvetica,sans-Serif" font-size="10.00">limits.h</text>
</a>
</g>
</g>
<!-- Node6&#45;&gt;Node7 -->
<g id="edge6" class="edge">
<title>Node6&#45;&gt;Node7</title>
<path fill="none" stroke="midnightblue" d="M1498,-61.98C1498,-53.58 1498,-40.48 1498,-29.66"/>
<polygon fill="midnightblue" stroke="midnightblue" points="1501.5,-29.51 1498,-19.51 1494.5,-29.51 1501.5,-29.51"/>
</g>
<!-- Node8&#45;&gt;Node9 -->
<g id="edge8" class="edge">
<title>Node8&#45;&gt;Node9</title>
<path fill="none" stroke="midnightblue" d="M789.41,-190.46C773.64,-183.11 752.99,-171 741,-154 727.88,-135.4 723.7,-109.04 722.44,-91.38"/>
<polygon fill="midnightblue" stroke="midnightblue" points="725.92,-91.03 721.96,-81.21 718.93,-91.36 725.92,-91.03"/>
</g>
<!-- Node8&#45;&gt;Node10 -->
<g id="edge9" class="edge">
<title>Node8&#45;&gt;Node10</title>
<path fill="none" stroke="midnightblue" d="M884.14,-190.86C957.96,-182.8 1074.99,-169.45 1176,-154 1184.12,-152.76 1192.69,-151.31 1201.18,-149.81"/>
<polygon fill="midnightblue" stroke="midnightblue" points="1201.84,-153.25 1211.07,-148.05 1200.61,-146.36 1201.84,-153.25"/>
</g>
<!-- Node11 -->
<g id="node11" class="node">
<title>Node11</title>
<g id="a_node11"><a xlink:href="sequence_8h.html" target="_top" xlink:title="Functions and data structures related to sequence representations ,.">
<polygon fill="none" stroke="black" points="750,-129 750,-148 872,-148 872,-129 750,-129"/>
<text text-anchor="middle" x="811" y="-136" font-family="Helvetica,sans-Serif" font-size="10.00">ViennaRNA/sequence.h</text>
</a>
</g>
</g>
<!-- Node8&#45;&gt;Node11 -->
<g id="edge14" class="edge">
<title>Node8&#45;&gt;Node11</title>
<path fill="none" stroke="midnightblue" d="M806.1,-190.48C804.27,-182.08 803.8,-168.98 804.69,-158.16"/>
<polygon fill="midnightblue" stroke="midnightblue" points="808.19,-158.4 806.1,-148.01 801.25,-157.43 808.19,-158.4"/>
</g>
<!-- Node8&#45;&gt;Node12 -->
<g id="edge16" class="edge">
<title>Node8&#45;&gt;Node12</title>
<path fill="none" stroke="midnightblue" d="M757.48,-190.49C706.07,-181.53 626.57,-166.95 558,-154 551.26,-152.73 544.18,-151.38 537.25,-150.03"/>
<polygon fill="midnightblue" stroke="midnightblue" points="537.74,-146.56 527.25,-148.07 536.39,-153.43 537.74,-146.56"/>
</g>
<!-- Node8&#45;&gt;Node13 -->
<g id="edge19" class="edge">
<title>Node8&#45;&gt;Node13</title>
<path fill="none" stroke="midnightblue" d="M884.19,-195.3C985.31,-189.76 1173.03,-177.36 1332,-154 1334.69,-153.6 1337.43,-153.17 1340.2,-152.7"/>
<polygon fill="midnightblue" stroke="midnightblue" points="1341.09,-156.1 1350.32,-150.9 1339.86,-149.21 1341.09,-156.1"/>
</g>
<!-- Node8&#45;&gt;Node15 -->
<g id="edge23" class="edge">
<title>Node8&#45;&gt;Node15</title>
<path fill="none" stroke="midnightblue" d="M848.16,-190.47C892.32,-181.43 967.84,-166.73 1033,-154 1037.31,-153.16 1041.76,-152.29 1046.26,-151.41"/>
<polygon fill="midnightblue" stroke="midnightblue" points="1047,-154.83 1056.15,-149.49 1045.67,-147.96 1047,-154.83"/>
</g>
<!-- Node8&#45;&gt;Node16 -->
<g id="edge27" class="edge">
<title>Node8&#45;&gt;Node16</title>
<path fill="none" stroke="midnightblue" d="M780.88,-190.48C748.47,-180.27 697.49,-163.11 665.09,-151.55"/>
<polygon fill="midnightblue" stroke="midnightblue" points="665.87,-148.11 655.27,-148.01 663.49,-154.69 665.87,-148.11"/>
</g>
<!-- Node8&#45;&gt;Node17 -->
<g id="edge29" class="edge">
<title>Node8&#45;&gt;Node17</title>
<path fill="none" stroke="midnightblue" d="M737.89,-192.94C660.54,-186.01 534.77,-173.29 417.4,-154.13"/>
<polygon fill="midnightblue" stroke="midnightblue" points="417.96,-150.68 407.53,-152.5 416.82,-157.59 417.96,-150.68"/>
</g>
<!-- Node8&#45;&gt;Node18 -->
<g id="edge30" class="edge">
<title>Node8&#45;&gt;Node18</title>
<path fill="none" stroke="midnightblue" d="M737.98,-194.27C634.4,-186.97 439.32,-171.93 274,-154 264.86,-153.01 255.3,-151.88 245.86,-150.71"/>
<polygon fill="midnightblue" stroke="midnightblue" points="246.05,-147.2 235.69,-149.42 245.17,-154.15 246.05,-147.2"/>
</g>
<!-- Node20 -->
<g id="node20" class="node">
<title>Node20</title>
<g id="a_node20"><a xlink:href="zscore_8h_source.html" target="_top" xlink:title=" ">
<polygon fill="none" stroke="black" points="890.5,-129 890.5,-148 999.5,-148 999.5,-129 890.5,-129"/>
<text text-anchor="middle" x="945" y="-136" font-family="Helvetica,sans-Serif" font-size="10.00">ViennaRNA/zscore.h</text>
</a>
</g>
</g>
<!-- Node8&#45;&gt;Node20 -->
<g id="edge36" class="edge">
<title>Node8&#45;&gt;Node20</title>
<path fill="none" stroke="midnightblue" d="M830.2,-190.48C852.79,-180.45 890.5,-163.7 916.5,-152.15"/>
<polygon fill="midnightblue" stroke="midnightblue" points="918.12,-155.27 925.84,-148.01 915.28,-148.87 918.12,-155.27"/>
</g>
<!-- Node10&#45;&gt;Node5 -->
<g id="edge11" class="edge">
<title>Node10&#45;&gt;Node5</title>
<path fill="none" stroke="midnightblue" d="M1233.96,-148.04C1179.87,-162.07 1060.74,-190.41 959,-210 875.2,-226.14 778.15,-241.15 712.21,-250.54"/>
<polygon fill="midnightblue" stroke="midnightblue" points="711.72,-247.07 702.3,-251.94 712.7,-254 711.72,-247.07"/>
</g>
<!-- Node10&#45;&gt;Node6 -->
<g id="edge10" class="edge">
<title>Node10&#45;&gt;Node6</title>
<path fill="none" stroke="midnightblue" d="M1294.21,-128.87C1336.2,-117.25 1410.96,-96.58 1457.32,-83.75"/>
<polygon fill="midnightblue" stroke="midnightblue" points="1458.33,-87.1 1467.04,-81.06 1456.47,-80.36 1458.33,-87.1"/>
</g>
<!-- Node10&#45;&gt;Node8 -->
<g id="edge12" class="edge">
<title>Node10&#45;&gt;Node8</title>
<path fill="none" stroke="midnightblue" d="M1228.46,-148.05C1217.47,-150.14 1205.3,-152.27 1194,-154 1091.45,-169.68 972.39,-183.21 894.51,-191.23"/>
<polygon fill="midnightblue" stroke="midnightblue" points="893.87,-187.78 884.28,-192.28 894.58,-194.74 893.87,-187.78"/>
</g>
<!-- Node10&#45;&gt;Node9 -->
<g id="edge13" class="edge">
<title>Node10&#45;&gt;Node9</title>
<path fill="none" stroke="midnightblue" d="M1220.18,-128.94C1208.78,-126.83 1196.45,-124.69 1185,-123 1042.69,-102.04 874.59,-85.83 785.26,-77.88"/>
<polygon fill="midnightblue" stroke="midnightblue" points="785.56,-74.39 775.29,-77 784.94,-81.37 785.56,-74.39"/>
</g>
<!-- Node11&#45;&gt;Node8 -->
<g id="edge15" class="edge">
<title>Node11&#45;&gt;Node8</title>
<path fill="none" stroke="midnightblue" d="M815.9,-148.01C817.73,-156.4 818.2,-169.5 817.32,-180.32"/>
<polygon fill="midnightblue" stroke="midnightblue" points="813.81,-180.09 815.9,-190.48 820.75,-181.05 813.81,-180.09"/>
</g>
<!-- Node12&#45;&gt;Node5 -->
<g id="edge17" class="edge">
<title>Node12&#45;&gt;Node5</title>
<path fill="none" stroke="midnightblue" d="M505.84,-148.09C531.55,-166.92 585.72,-212.3 615.22,-239.3"/>
<polygon fill="midnightblue" stroke="midnightblue" points="613.13,-242.14 622.84,-246.38 617.9,-237.01 613.13,-242.14"/>
</g>
<!-- Node12&#45;&gt;Node8 -->
<g id="edge18" class="edge">
<title>Node12&#45;&gt;Node8</title>
<path fill="none" stroke="midnightblue" d="M544.76,-148.07C555.18,-150.04 565.97,-152.1 576,-154 639.88,-166.07 713.25,-179.55 760.87,-188.58"/>
<polygon fill="midnightblue" stroke="midnightblue" points="760.44,-192.06 770.92,-190.49 761.75,-185.18 760.44,-192.06"/>
</g>
<!-- Node13&#45;&gt;Node8 -->
<g id="edge20" class="edge">
<title>Node13&#45;&gt;Node8</title>
<path fill="none" stroke="midnightblue" d="M1353.29,-153.5C1352.19,-153.67 1351.09,-153.84 1350,-154 1189.8,-177.54 1000.41,-189.95 894.08,-195.43"/>
<polygon fill="midnightblue" stroke="midnightblue" points="893.86,-191.93 884.05,-195.93 894.22,-198.92 893.86,-191.93"/>
</g>
<!-- Node14 -->
<g id="node14" class="node">
<title>Node14</title>
<g id="a_node14"><a xlink:href="constraints_2basic_8h.html" target="_top" xlink:title="Functions and data structures for constraining secondary structure predictions and evaluation.">
<polygon fill="none" stroke="black" points="1056.5,-56.5 1056.5,-86.5 1175.5,-86.5 1175.5,-56.5 1056.5,-56.5"/>
<text text-anchor="start" x="1064.5" y="-74.5" font-family="Helvetica,sans-Serif" font-size="10.00">ViennaRNA/constraints</text>
<text text-anchor="middle" x="1116" y="-63.5" font-family="Helvetica,sans-Serif" font-size="10.00">/basic.h</text>
</a>
</g>
</g>
<!-- Node13&#45;&gt;Node14 -->
<g id="edge21" class="edge">
<title>Node13&#45;&gt;Node14</title>
<path fill="none" stroke="midnightblue" d="M1350.15,-124.27C1302.38,-113.71 1235.39,-98.9 1185.3,-87.82"/>
<polygon fill="midnightblue" stroke="midnightblue" points="1186.03,-84.4 1175.51,-85.66 1184.52,-91.23 1186.03,-84.4"/>
</g>
<!-- Node14&#45;&gt;Node8 -->
<g id="edge22" class="edge">
<title>Node14&#45;&gt;Node8</title>
<path fill="none" stroke="midnightblue" d="M1096.53,-86.7C1082.86,-96.73 1064.21,-110.55 1048,-123 1030.44,-136.49 1028.96,-144.42 1009,-154 973.12,-171.22 930.39,-182 893.82,-188.68"/>
<polygon fill="midnightblue" stroke="midnightblue" points="892.92,-185.28 883.68,-190.46 894.13,-192.18 892.92,-185.28"/>
</g>
<!-- Node15&#45;&gt;Node5 -->
<g id="edge24" class="edge">
<title>Node15&#45;&gt;Node5</title>
<path fill="none" stroke="midnightblue" d="M1082.7,-153.61C1040.79,-168.94 966.92,-193.44 902,-210 838.95,-226.08 766.11,-239.91 712.39,-249.01"/>
<polygon fill="midnightblue" stroke="midnightblue" points="711.53,-245.61 702.25,-250.71 712.69,-252.51 711.53,-245.61"/>
</g>
<!-- Node15&#45;&gt;Node8 -->
<g id="edge25" class="edge">
<title>Node15&#45;&gt;Node8</title>
<path fill="none" stroke="midnightblue" d="M1056.46,-152.93C1054.62,-153.29 1052.8,-153.65 1051,-154 990.16,-165.89 920.31,-179.49 871.61,-188.6"/>
<polygon fill="midnightblue" stroke="midnightblue" points="870.75,-185.2 861.56,-190.47 872.03,-192.08 870.75,-185.2"/>
</g>
<!-- Node15&#45;&gt;Node14 -->
<g id="edge26" class="edge">
<title>Node15&#45;&gt;Node14</title>
<path fill="none" stroke="midnightblue" d="M1116,-123.4C1116,-115.64 1116,-105.81 1116,-96.86"/>
<polygon fill="midnightblue" stroke="midnightblue" points="1119.5,-96.58 1116,-86.58 1112.5,-96.58 1119.5,-96.58"/>
</g>
<!-- Node16&#45;&gt;Node8 -->
<g id="edge28" class="edge">
<title>Node16&#45;&gt;Node8</title>
<path fill="none" stroke="midnightblue" d="M665.07,-148.01C697.46,-158.21 748.44,-175.37 780.86,-186.93"/>
<polygon fill="midnightblue" stroke="midnightblue" points="780.09,-190.38 790.68,-190.48 782.46,-183.79 780.09,-190.38"/>
</g>
<!-- Node18&#45;&gt;Node5 -->
<g id="edge31" class="edge">
<title>Node18&#45;&gt;Node5</title>
<path fill="none" stroke="midnightblue" d="M190.11,-153.69C206.22,-170.31 230.98,-197.19 259,-210 381.68,-266.07 429.02,-227.04 560.75,-244.98"/>
<polygon fill="midnightblue" stroke="midnightblue" points="560.41,-248.47 570.8,-246.44 561.41,-241.54 560.41,-248.47"/>
</g>
<!-- Node18&#45;&gt;Node8 -->
<g id="edge32" class="edge">
<title>Node18&#45;&gt;Node8</title>
<path fill="none" stroke="midnightblue" d="M235.75,-147.15C253.97,-149.52 273.81,-152.03 292,-154 445.79,-170.68 625.35,-184.86 727.92,-192.63"/>
<polygon fill="midnightblue" stroke="midnightblue" points="727.68,-196.12 737.91,-193.39 728.2,-189.14 727.68,-196.12"/>
</g>
<!-- Node18&#45;&gt;Node19 -->
<g id="edge33" class="edge">
<title>Node18&#45;&gt;Node19</title>
<path fill="none" stroke="midnightblue" d="M157.16,-123.4C145.44,-112.96 129.48,-98.75 117.41,-88"/>
<polygon fill="midnightblue" stroke="midnightblue" points="119.56,-85.23 109.76,-81.19 114.91,-90.46 119.56,-85.23"/>
</g>
<!-- Node19&#45;&gt;Node3 -->
<g id="edge34" class="edge">
<title>Node19&#45;&gt;Node3</title>
<path fill="none" stroke="midnightblue" d="M92.84,-61.98C85.26,-52.96 73.13,-38.52 63.71,-27.31"/>
<polygon fill="midnightblue" stroke="midnightblue" points="66.26,-24.91 57.15,-19.51 60.9,-29.42 66.26,-24.91"/>
</g>
<!-- Node19&#45;&gt;Node5 -->
<g id="edge35" class="edge">
<title>Node19&#45;&gt;Node5</title>
<path fill="none" stroke="midnightblue" d="M102.61,-81.19C102.06,-97.07 95.45,-131.22 110,-154 141.03,-202.59 171.53,-194.3 227,-210 370.34,-250.57 415.23,-224.91 561,-245.02"/>
<polygon fill="midnightblue" stroke="midnightblue" points="560.82,-248.53 571.21,-246.48 561.81,-241.6 560.82,-248.53"/>
</g>
<!-- Node21&#45;&gt;Node6 -->
<g id="edge47" class="edge">
<title>Node21&#45;&gt;Node6</title>
<path fill="none" stroke="midnightblue" d="M1591.13,-190.31C1574.64,-169.45 1532.64,-116.31 1511.13,-89.11"/>
<polygon fill="midnightblue" stroke="midnightblue" points="1513.87,-86.93 1504.92,-81.26 1508.38,-91.27 1513.87,-86.93"/>
</g>
</g>
</svg>
