<?xml version="1.0" encoding="UTF-8" standalone="no"?>
<!DOCTYPE svg PUBLIC "-//W3C//DTD SVG 1.1//EN"
 "http://www.w3.org/Graphics/SVG/1.1/DTD/svg11.dtd">
<!-- Generated by graphviz version 2.47.0 (0)
 -->
<!-- Title: ViennaRNA/io/file_formats.h Pages: 1 -->
<!--zoomable 341 -->
<svg id="main" version="1.1" xmlns="http://www.w3.org/2000/svg" xmlns:xlink="http://www.w3.org/1999/xlink" xml:space="preserve" onload="init(evt)">
<style type="text/css"><![CDATA[
.edge:hover path { stroke: red; }
.edge:hover polygon { stroke: red; fill: red; }
]]></style>
<script type="text/javascript"><![CDATA[
var edges = document.getElementsByTagName('g');
if (edges && edges.length) {
  for (var i=0;i<edges.length;i++) {
    if (edges[i].id.substr(0,4)=='edge') {
      edges[i].setAttribute('class','edge');
    }
  }
}
]]></script>
        <defs>
                <circle id="rim" cx="0" cy="0" r="7"/>
                <circle id="rim2" cx="0" cy="0" r="3.5"/>
                <g id="zoomPlus">
                        <use xlink:href="#rim" fill="#404040">
                                <set attributeName="fill" to="#808080" begin="zoomplus.mouseover" end="zoomplus.mouseout"/>
                        </use>
                        <path d="M-4,0h8M0,-4v8" fill="none" stroke="white" stroke-width="1.5" pointer-events="none"/>
                </g>
                <g id="zoomMin">
                        <use xlink:href="#rim" fill="#404040">
                                <set attributeName="fill" to="#808080" begin="zoomminus.mouseover" end="zoomminus.mouseout"/>
                        </use>
                        <path d="M-4,0h8" fill="none" stroke="white" stroke-width="1.5" pointer-events="none"/>
                </g>
                <g id="dirArrow">
                        <path fill="none" stroke="white" stroke-width="1.5" d="M0,-3.0v7 M-2.5,-0.5L0,-3.0L2.5,-0.5"/>
                </g>
               <g id="resetDef">
                       <use xlink:href="#rim2" fill="#404040">
                               <set attributeName="fill" to="#808080" begin="reset.mouseover" end="reset.mouseout"/>
                       </use>
               </g>
        </defs>

<script type="text/javascript">
var viewWidth = 1493;
var viewHeight = 341;
var sectionId = 'dynsection-0';
</script>
<script xlink:href="svgpan.js"/>
<svg id="graph" class="graph">
<g id="viewport">
<title>ViennaRNA/io/file_formats.h</title>
<!-- Node1 -->
<g id="node1" class="node">
<title>Node1</title>
<g id="a_node1"><a xlink:title="Read and write different file formats for RNA sequences, structures.">
<polygon fill="#bfbfbf" stroke="black" points="1117.5,-313.5 1117.5,-332.5 1258.5,-332.5 1258.5,-313.5 1117.5,-313.5"/>
<text text-anchor="middle" x="1188" y="-320.5" font-family="Helvetica,sans-Serif" font-size="10.00">ViennaRNA/io/file_formats.h</text>
</a>
</g>
</g>
<!-- Node2 -->
<g id="node2" class="node">
<title>Node2</title>
<g id="a_node2"><a xlink:title=" ">
<polygon fill="none" stroke="#bfbfbf" points="1439,-0.5 1439,-19.5 1485,-19.5 1485,-0.5 1439,-0.5"/>
<text text-anchor="middle" x="1462" y="-7.5" font-family="Helvetica,sans-Serif" font-size="10.00">stdio.h</text>
</a>
</g>
</g>
<!-- Node1&#45;&gt;Node2 -->
<g id="edge1" class="edge">
<title>Node1&#45;&gt;Node2</title>
<path fill="none" stroke="midnightblue" d="M1232.16,-313.46C1314.46,-296.28 1483,-254.56 1483,-201 1483,-201 1483,-201 1483,-137.5 1483,-98.5 1473.17,-53.64 1466.96,-29.21"/>
<polygon fill="midnightblue" stroke="midnightblue" points="1470.34,-28.29 1464.41,-19.51 1463.57,-30.07 1470.34,-28.29"/>
</g>
<!-- Node3 -->
<g id="node3" class="node">
<title>Node3</title>
<g id="a_node3"><a xlink:href="datastructures_2basic_8h.html" target="_top" xlink:title="Various data structures and pre&#45;processor macros.">
<polygon fill="none" stroke="black" points="827,-246.5 827,-276.5 961,-276.5 961,-246.5 827,-246.5"/>
<text text-anchor="start" x="835" y="-264.5" font-family="Helvetica,sans-Serif" font-size="10.00">ViennaRNA/datastructures</text>
<text text-anchor="middle" x="894" y="-253.5" font-family="Helvetica,sans-Serif" font-size="10.00">/basic.h</text>
</a>
</g>
</g>
<!-- Node1&#45;&gt;Node3 -->
<g id="edge2" class="edge">
<title>Node1&#45;&gt;Node3</title>
<path fill="none" stroke="midnightblue" d="M1145.88,-313.48C1100.34,-304.26 1026.8,-289.38 970.9,-278.06"/>
<polygon fill="midnightblue" stroke="midnightblue" points="971.53,-274.62 961.04,-276.07 970.14,-281.48 971.53,-274.62"/>
</g>
<!-- Node4 -->
<g id="node4" class="node">
<title>Node4</title>
<g id="a_node4"><a xlink:href="constants_8h.html" target="_top" xlink:title="Energy parameter constants.">
<polygon fill="none" stroke="black" points="1297,-62 1297,-81 1455,-81 1455,-62 1297,-62"/>
<text text-anchor="middle" x="1376" y="-69" font-family="Helvetica,sans-Serif" font-size="10.00">ViennaRNA/params/constants.h</text>
</a>
</g>
</g>
<!-- Node3&#45;&gt;Node4 -->
<g id="edge3" class="edge">
<title>Node3&#45;&gt;Node4</title>
<path fill="none" stroke="midnightblue" d="M961.36,-256.18C1063.9,-248.98 1254,-233.02 1318,-210 1361.27,-194.44 1382.98,-194.37 1405,-154 1416.41,-133.09 1402.55,-106.8 1390.35,-89.83"/>
<polygon fill="midnightblue" stroke="midnightblue" points="1392.78,-87.25 1383.91,-81.45 1387.23,-91.51 1392.78,-87.25"/>
</g>
<!-- Node6 -->
<g id="node6" class="node">
<title>Node6</title>
<g id="a_node6"><a xlink:href="fold__compound_8h.html" target="_top" xlink:title="The Basic Fold Compound API.">
<polygon fill="none" stroke="black" points="645,-190.5 645,-209.5 791,-209.5 791,-190.5 645,-190.5"/>
<text text-anchor="middle" x="718" y="-197.5" font-family="Helvetica,sans-Serif" font-size="10.00">ViennaRNA/fold_compound.h</text>
</a>
</g>
</g>
<!-- Node3&#45;&gt;Node6 -->
<g id="edge5" class="edge">
<title>Node3&#45;&gt;Node6</title>
<path fill="none" stroke="midnightblue" d="M852.29,-246.4C822.01,-236.16 781.51,-222.47 752.93,-212.81"/>
<polygon fill="midnightblue" stroke="midnightblue" points="753.95,-209.46 743.35,-209.57 751.7,-216.09 753.95,-209.46"/>
</g>
<!-- Node7 -->
<g id="node7" class="node">
<title>Node7</title>
<g id="a_node7"><a xlink:href="model_8h.html" target="_top" xlink:title="The model details data structure and its corresponding modifiers.">
<polygon fill="none" stroke="black" points="1173,-62 1173,-81 1279,-81 1279,-62 1173,-62"/>
<text text-anchor="middle" x="1226" y="-69" font-family="Helvetica,sans-Serif" font-size="10.00">ViennaRNA/model.h</text>
</a>
</g>
</g>
<!-- Node3&#45;&gt;Node7 -->
<g id="edge35" class="edge">
<title>Node3&#45;&gt;Node7</title>
<path fill="none" stroke="midnightblue" d="M961.27,-256.15C1083.67,-246.67 1335.09,-219.53 1388,-154 1396.66,-143.28 1396.16,-134.1 1388,-123 1380.84,-113.27 1316.3,-95.26 1270.88,-83.59"/>
<polygon fill="midnightblue" stroke="midnightblue" points="1271.49,-80.13 1260.94,-81.06 1269.76,-86.92 1271.49,-80.13"/>
</g>
<!-- Node8 -->
<g id="node8" class="node">
<title>Node8</title>
<g id="a_node8"><a xlink:href="params_2basic_8h.html" target="_top" xlink:title="Functions to deal with sets of energy parameters.">
<polygon fill="none" stroke="black" points="1241,-129 1241,-148 1379,-148 1379,-129 1241,-129"/>
<text text-anchor="middle" x="1310" y="-136" font-family="Helvetica,sans-Serif" font-size="10.00">ViennaRNA/params/basic.h</text>
</a>
</g>
</g>
<!-- Node3&#45;&gt;Node8 -->
<g id="edge36" class="edge">
<title>Node3&#45;&gt;Node8</title>
<path fill="none" stroke="midnightblue" d="M938.01,-246.38C1018.46,-222.08 1187.94,-172.82 1267.37,-150.7"/>
<polygon fill="midnightblue" stroke="midnightblue" points="1268.35,-154.06 1277.05,-148.02 1266.48,-147.32 1268.35,-154.06"/>
</g>
<!-- Node10 -->
<g id="node10" class="node">
<title>Node10</title>
<g id="a_node10"><a xlink:href="dp__matrices_8h.html" target="_top" xlink:title="Functions to deal with standard dynamic programming (DP) matrices.">
<polygon fill="none" stroke="black" points="202.5,-129 202.5,-148 335.5,-148 335.5,-129 202.5,-129"/>
<text text-anchor="middle" x="269" y="-136" font-family="Helvetica,sans-Serif" font-size="10.00">ViennaRNA/dp_matrices.h</text>
</a>
</g>
</g>
<!-- Node3&#45;&gt;Node10 -->
<g id="edge37" class="edge">
<title>Node3&#45;&gt;Node10</title>
<path fill="none" stroke="midnightblue" d="M826.91,-252.77C758.15,-243.94 648.57,-228.31 555,-210 464.46,-192.28 359.67,-165.8 305.43,-150.84"/>
<polygon fill="midnightblue" stroke="midnightblue" points="306.16,-147.41 295.59,-148.1 304.28,-154.15 306.16,-147.41"/>
</g>
<!-- Node11 -->
<g id="node11" class="node">
<title>Node11</title>
<g id="a_node11"><a xlink:href="hard_8h.html" target="_top" xlink:title="Functions and data structures for handling of secondary structure hard constraints.">
<polygon fill="none" stroke="black" points="353.5,-123.5 353.5,-153.5 472.5,-153.5 472.5,-123.5 353.5,-123.5"/>
<text text-anchor="start" x="361.5" y="-141.5" font-family="Helvetica,sans-Serif" font-size="10.00">ViennaRNA/constraints</text>
<text text-anchor="middle" x="413" y="-130.5" font-family="Helvetica,sans-Serif" font-size="10.00">/hard.h</text>
</a>
</g>
</g>
<!-- Node3&#45;&gt;Node11 -->
<g id="edge38" class="edge">
<title>Node3&#45;&gt;Node11</title>
<path fill="none" stroke="midnightblue" d="M826.99,-249.52C774.64,-240.43 700.24,-226.39 636,-210 575.52,-194.57 507.27,-172.25 462.38,-156.88"/>
<polygon fill="midnightblue" stroke="midnightblue" points="463.49,-153.56 452.89,-153.61 461.21,-160.18 463.49,-153.56"/>
</g>
<!-- Node13 -->
<g id="node13" class="node">
<title>Node13</title>
<g id="a_node13"><a xlink:href="soft_8h.html" target="_top" xlink:title="Functions and data structures for secondary structure soft constraints.">
<polygon fill="none" stroke="black" points="970.5,-123.5 970.5,-153.5 1089.5,-153.5 1089.5,-123.5 970.5,-123.5"/>
<text text-anchor="start" x="978.5" y="-141.5" font-family="Helvetica,sans-Serif" font-size="10.00">ViennaRNA/constraints</text>
<text text-anchor="middle" x="1030" y="-130.5" font-family="Helvetica,sans-Serif" font-size="10.00">/soft.h</text>
</a>
</g>
</g>
<!-- Node3&#45;&gt;Node13 -->
<g id="edge39" class="edge">
<title>Node3&#45;&gt;Node13</title>
<path fill="none" stroke="midnightblue" d="M905.58,-246.14C926.83,-224.86 971.61,-184.81 1001.37,-160.31"/>
<polygon fill="midnightblue" stroke="midnightblue" points="1003.78,-162.86 1009.33,-153.84 999.37,-157.43 1003.78,-162.86"/>
</g>
<!-- Node14 -->
<g id="node14" class="node">
<title>Node14</title>
<g id="a_node14"><a xlink:href="grammar_8h.html" target="_top" xlink:title="Implementations for the RNA folding grammar.">
<polygon fill="none" stroke="black" points="835.5,-129 835.5,-148 952.5,-148 952.5,-129 835.5,-129"/>
<text text-anchor="middle" x="894" y="-136" font-family="Helvetica,sans-Serif" font-size="10.00">ViennaRNA/grammar.h</text>
</a>
</g>
</g>
<!-- Node3&#45;&gt;Node14 -->
<g id="edge40" class="edge">
<title>Node3&#45;&gt;Node14</title>
<path fill="none" stroke="midnightblue" d="M894,-246.14C894,-224.2 894,-182.33 894,-158.09"/>
<polygon fill="midnightblue" stroke="midnightblue" points="897.5,-158.05 894,-148.05 890.5,-158.05 897.5,-158.05"/>
</g>
<!-- Node15 -->
<g id="node15" class="node">
<title>Node15</title>
<g id="a_node15"><a xlink:href="structured__domains_8h.html" target="_top" xlink:title="This module provides interfaces that deal with additional structured domains in the folding grammar.">
<polygon fill="none" stroke="black" points="1107.5,-123.5 1107.5,-153.5 1222.5,-153.5 1222.5,-123.5 1107.5,-123.5"/>
<text text-anchor="start" x="1115.5" y="-141.5" font-family="Helvetica,sans-Serif" font-size="10.00">ViennaRNA/structured</text>
<text text-anchor="middle" x="1165" y="-130.5" font-family="Helvetica,sans-Serif" font-size="10.00">_domains.h</text>
</a>
</g>
</g>
<!-- Node3&#45;&gt;Node15 -->
<g id="edge41" class="edge">
<title>Node3&#45;&gt;Node15</title>
<path fill="none" stroke="midnightblue" d="M925.62,-246.38C974.88,-224.39 1069.92,-181.95 1124.26,-157.69"/>
<polygon fill="midnightblue" stroke="midnightblue" points="1125.88,-160.8 1133.58,-153.53 1123.03,-154.41 1125.88,-160.8"/>
</g>
<!-- Node16 -->
<g id="node16" class="node">
<title>Node16</title>
<g id="a_node16"><a xlink:href="unstructured__domains_8h.html" target="_top" xlink:title="Functions to modify unstructured domains, e.g. to incorporate ligands binding to unpaired stretches.">
<polygon fill="none" stroke="black" points="59.5,-123.5 59.5,-153.5 184.5,-153.5 184.5,-123.5 59.5,-123.5"/>
<text text-anchor="start" x="67.5" y="-141.5" font-family="Helvetica,sans-Serif" font-size="10.00">ViennaRNA/unstructured</text>
<text text-anchor="middle" x="122" y="-130.5" font-family="Helvetica,sans-Serif" font-size="10.00">_domains.h</text>
</a>
</g>
</g>
<!-- Node3&#45;&gt;Node16 -->
<g id="edge42" class="edge">
<title>Node3&#45;&gt;Node16</title>
<path fill="none" stroke="midnightblue" d="M826.74,-254.75C741.4,-246.64 590.16,-230.53 462,-210 340.95,-190.61 309.23,-179.66 191.87,-155.61"/>
<polygon fill="midnightblue" stroke="midnightblue" points="192.27,-152.12 181.77,-153.55 190.87,-158.97 192.27,-152.12"/>
</g>
<!-- Node17 -->
<g id="node17" class="node">
<title>Node17</title>
<g id="a_node17"><a xlink:href="utils_2structures_8h.html" target="_top" xlink:title="Various utility&#45; and helper&#45;functions for secondary structure parsing, converting,...">
<polygon fill="none" stroke="black" points="0,-62 0,-81 144,-81 144,-62 0,-62"/>
<text text-anchor="middle" x="72" y="-69" font-family="Helvetica,sans-Serif" font-size="10.00">ViennaRNA/utils/structures.h</text>
</a>
</g>
</g>
<!-- Node3&#45;&gt;Node17 -->
<g id="edge43" class="edge">
<title>Node3&#45;&gt;Node17</title>
<path fill="none" stroke="midnightblue" d="M826.97,-257.4C634.49,-247.52 91.09,-213.91 41,-154 25.49,-135.45 39.11,-106.95 53.17,-89.04"/>
<polygon fill="midnightblue" stroke="midnightblue" points="56.07,-91.04 59.98,-81.19 50.78,-86.45 56.07,-91.04"/>
</g>
<!-- Node5 -->
<g id="node5" class="node">
<title>Node5</title>
<g id="a_node5"><a xlink:title=" ">
<polygon fill="none" stroke="#bfbfbf" points="1352,-0.5 1352,-19.5 1400,-19.5 1400,-0.5 1352,-0.5"/>
<text text-anchor="middle" x="1376" y="-7.5" font-family="Helvetica,sans-Serif" font-size="10.00">limits.h</text>
</a>
</g>
</g>
<!-- Node4&#45;&gt;Node5 -->
<g id="edge4" class="edge">
<title>Node4&#45;&gt;Node5</title>
<path fill="none" stroke="midnightblue" d="M1376,-61.98C1376,-53.58 1376,-40.48 1376,-29.66"/>
<polygon fill="midnightblue" stroke="midnightblue" points="1379.5,-29.51 1376,-19.51 1372.5,-29.51 1379.5,-29.51"/>
</g>
<!-- Node6&#45;&gt;Node7 -->
<g id="edge6" class="edge">
<title>Node6&#45;&gt;Node7</title>
<path fill="none" stroke="midnightblue" d="M732.22,-190.44C746.56,-181.67 769.21,-167.46 788,-154 806,-141.11 806.6,-131.6 827,-123 886.06,-98.12 1065.56,-82.95 1162.42,-76.37"/>
<polygon fill="midnightblue" stroke="midnightblue" points="1162.93,-79.84 1172.67,-75.68 1162.46,-72.86 1162.93,-79.84"/>
</g>
<!-- Node6&#45;&gt;Node8 -->
<g id="edge7" class="edge">
<title>Node6&#45;&gt;Node8</title>
<path fill="none" stroke="midnightblue" d="M791.27,-194.43C889.75,-188.06 1069.9,-174.88 1223,-154 1231.53,-152.84 1240.54,-151.38 1249.42,-149.84"/>
<polygon fill="midnightblue" stroke="midnightblue" points="1250.13,-153.27 1259.36,-148.07 1248.9,-146.37 1250.13,-153.27"/>
</g>
<!-- Node9 -->
<g id="node9" class="node">
<title>Node9</title>
<g id="a_node9"><a xlink:href="sequence_8h.html" target="_top" xlink:title="Functions and data structures related to sequence representations ,.">
<polygon fill="none" stroke="black" points="657,-129 657,-148 779,-148 779,-129 657,-129"/>
<text text-anchor="middle" x="718" y="-136" font-family="Helvetica,sans-Serif" font-size="10.00">ViennaRNA/sequence.h</text>
</a>
</g>
</g>
<!-- Node6&#45;&gt;Node9 -->
<g id="edge12" class="edge">
<title>Node6&#45;&gt;Node9</title>
<path fill="none" stroke="midnightblue" d="M713.1,-190.48C711.27,-182.08 710.8,-168.98 711.69,-158.16"/>
<polygon fill="midnightblue" stroke="midnightblue" points="715.19,-158.4 713.1,-148.01 708.25,-157.43 715.19,-158.4"/>
</g>
<!-- Node6&#45;&gt;Node10 -->
<g id="edge14" class="edge">
<title>Node6&#45;&gt;Node10</title>
<path fill="none" stroke="midnightblue" d="M644.7,-192.42C567.29,-184.69 442.09,-170.77 335,-154 327.35,-152.8 319.28,-151.4 311.5,-149.94"/>
<polygon fill="midnightblue" stroke="midnightblue" points="311.97,-146.46 301.49,-148.01 310.64,-153.34 311.97,-146.46"/>
</g>
<!-- Node6&#45;&gt;Node11 -->
<g id="edge17" class="edge">
<title>Node6&#45;&gt;Node11</title>
<path fill="none" stroke="midnightblue" d="M667.44,-190.47C620.96,-181.86 550.18,-168.1 482.5,-154.88"/>
<polygon fill="midnightblue" stroke="midnightblue" points="483.02,-151.41 472.54,-152.93 481.68,-158.28 483.02,-151.41"/>
</g>
<!-- Node6&#45;&gt;Node13 -->
<g id="edge21" class="edge">
<title>Node6&#45;&gt;Node13</title>
<path fill="none" stroke="midnightblue" d="M759.88,-190.43C806.99,-181.66 885.4,-167.44 953,-154 955.35,-153.53 957.74,-153.05 960.16,-152.56"/>
<polygon fill="midnightblue" stroke="midnightblue" points="961.12,-155.94 970.22,-150.5 959.72,-149.08 961.12,-155.94"/>
</g>
<!-- Node6&#45;&gt;Node14 -->
<g id="edge25" class="edge">
<title>Node6&#45;&gt;Node14</title>
<path fill="none" stroke="midnightblue" d="M738.32,-190.48C766.64,-180.14 818.14,-162.66 854.2,-151.1"/>
<polygon fill="midnightblue" stroke="midnightblue" points="855.46,-154.37 863.93,-148.01 853.34,-147.7 855.46,-154.37"/>
</g>
<!-- Node6&#45;&gt;Node15 -->
<g id="edge27" class="edge">
<title>Node6&#45;&gt;Node15</title>
<path fill="none" stroke="midnightblue" d="M791.35,-192.5C866.04,-185.4 985.36,-172.7 1097.35,-154.18"/>
<polygon fill="midnightblue" stroke="midnightblue" points="1098.19,-157.59 1107.47,-152.49 1097.03,-150.69 1098.19,-157.59"/>
</g>
<!-- Node6&#45;&gt;Node16 -->
<g id="edge28" class="edge">
<title>Node6&#45;&gt;Node16</title>
<path fill="none" stroke="midnightblue" d="M644.74,-195.73C543.51,-190.41 355.34,-178.13 191.27,-155.02"/>
<polygon fill="midnightblue" stroke="midnightblue" points="191.39,-151.5 180.99,-153.55 190.4,-158.43 191.39,-151.5"/>
</g>
<!-- Node18 -->
<g id="node18" class="node">
<title>Node18</title>
<g id="a_node18"><a xlink:href="zscore_8h_source.html" target="_top" xlink:title=" ">
<polygon fill="none" stroke="black" points="529.5,-129 529.5,-148 638.5,-148 638.5,-129 529.5,-129"/>
<text text-anchor="middle" x="584" y="-136" font-family="Helvetica,sans-Serif" font-size="10.00">ViennaRNA/zscore.h</text>
</a>
</g>
</g>
<!-- Node6&#45;&gt;Node18 -->
<g id="edge34" class="edge">
<title>Node6&#45;&gt;Node18</title>
<path fill="none" stroke="midnightblue" d="M698.8,-190.48C676.21,-180.45 638.5,-163.7 612.5,-152.15"/>
<polygon fill="midnightblue" stroke="midnightblue" points="613.72,-148.87 603.16,-148.01 610.88,-155.27 613.72,-148.87"/>
</g>
<!-- Node8&#45;&gt;Node3 -->
<g id="edge9" class="edge">
<title>Node8&#45;&gt;Node3</title>
<path fill="none" stroke="midnightblue" d="M1284.14,-148.09C1219.45,-167.97 1049.8,-217.43 956.9,-243.62"/>
<polygon fill="midnightblue" stroke="midnightblue" points="955.74,-240.31 947.06,-246.38 957.63,-247.05 955.74,-240.31"/>
</g>
<!-- Node8&#45;&gt;Node4 -->
<g id="edge8" class="edge">
<title>Node8&#45;&gt;Node4</title>
<path fill="none" stroke="midnightblue" d="M1318.9,-128.73C1329.39,-118.4 1347.02,-101.04 1359.92,-88.33"/>
<polygon fill="midnightblue" stroke="midnightblue" points="1362.57,-90.64 1367.24,-81.13 1357.66,-85.65 1362.57,-90.64"/>
</g>
<!-- Node8&#45;&gt;Node6 -->
<g id="edge10" class="edge">
<title>Node8&#45;&gt;Node6</title>
<path fill="none" stroke="midnightblue" d="M1276.68,-148.07C1265.39,-150.24 1252.74,-152.4 1241,-154 1086.6,-175.06 904.7,-188.28 801.14,-194.59"/>
<polygon fill="midnightblue" stroke="midnightblue" points="800.83,-191.1 791.06,-195.19 801.25,-198.09 800.83,-191.1"/>
</g>
<!-- Node8&#45;&gt;Node7 -->
<g id="edge11" class="edge">
<title>Node8&#45;&gt;Node7</title>
<path fill="none" stroke="midnightblue" d="M1298.67,-128.73C1284.94,-118.11 1261.6,-100.05 1245.08,-87.26"/>
<polygon fill="midnightblue" stroke="midnightblue" points="1247.2,-84.48 1237.15,-81.13 1242.92,-90.02 1247.2,-84.48"/>
</g>
<!-- Node9&#45;&gt;Node6 -->
<g id="edge13" class="edge">
<title>Node9&#45;&gt;Node6</title>
<path fill="none" stroke="midnightblue" d="M722.9,-148.01C724.73,-156.4 725.2,-169.5 724.32,-180.32"/>
<polygon fill="midnightblue" stroke="midnightblue" points="720.81,-180.09 722.9,-190.48 727.75,-181.05 720.81,-180.09"/>
</g>
<!-- Node10&#45;&gt;Node3 -->
<g id="edge15" class="edge">
<title>Node10&#45;&gt;Node3</title>
<path fill="none" stroke="midnightblue" d="M306.63,-148.1C364.1,-162.34 476.62,-191.14 573,-210 655.88,-226.22 751.31,-240.33 816.51,-249.49"/>
<polygon fill="midnightblue" stroke="midnightblue" points="816.32,-252.99 826.71,-250.91 817.29,-246.06 816.32,-252.99"/>
</g>
<!-- Node10&#45;&gt;Node6 -->
<g id="edge16" class="edge">
<title>Node10&#45;&gt;Node6</title>
<path fill="none" stroke="midnightblue" d="M318.85,-148.01C330.14,-150.12 341.99,-152.28 353,-154 449.42,-169.1 560.52,-181.89 634.63,-189.93"/>
<polygon fill="midnightblue" stroke="midnightblue" points="634.52,-193.44 644.84,-191.03 635.27,-186.48 634.52,-193.44"/>
</g>
<!-- Node11&#45;&gt;Node6 -->
<g id="edge18" class="edge">
<title>Node11&#45;&gt;Node6</title>
<path fill="none" stroke="midnightblue" d="M472.85,-149.49C480.67,-151 488.55,-152.54 496,-154 556.45,-165.81 625.82,-179.32 670.79,-188.43"/>
<polygon fill="midnightblue" stroke="midnightblue" points="670.34,-191.91 680.84,-190.47 671.74,-185.05 670.34,-191.91"/>
</g>
<!-- Node12 -->
<g id="node12" class="node">
<title>Node12</title>
<g id="a_node12"><a xlink:href="constraints_2basic_8h.html" target="_top" xlink:title="Functions and data structures for constraining secondary structure predictions and evaluation.">
<polygon fill="none" stroke="black" points="441.5,-56.5 441.5,-86.5 560.5,-86.5 560.5,-56.5 441.5,-56.5"/>
<text text-anchor="start" x="449.5" y="-74.5" font-family="Helvetica,sans-Serif" font-size="10.00">ViennaRNA/constraints</text>
<text text-anchor="middle" x="501" y="-63.5" font-family="Helvetica,sans-Serif" font-size="10.00">/basic.h</text>
</a>
</g>
</g>
<!-- Node11&#45;&gt;Node12 -->
<g id="edge19" class="edge">
<title>Node11&#45;&gt;Node12</title>
<path fill="none" stroke="midnightblue" d="M432.09,-123.4C444.32,-114.37 460.37,-102.51 473.9,-92.52"/>
<polygon fill="midnightblue" stroke="midnightblue" points="475.98,-95.33 481.94,-86.58 471.82,-89.7 475.98,-95.33"/>
</g>
<!-- Node12&#45;&gt;Node6 -->
<g id="edge20" class="edge">
<title>Node12&#45;&gt;Node6</title>
<path fill="none" stroke="midnightblue" d="M500.08,-86.74C499.74,-104.93 502.07,-136.17 520,-154 536.45,-170.36 588.3,-181.79 634.82,-189.03"/>
<polygon fill="midnightblue" stroke="midnightblue" points="634.55,-192.53 644.96,-190.56 635.59,-185.61 634.55,-192.53"/>
</g>
<!-- Node13&#45;&gt;Node3 -->
<g id="edge22" class="edge">
<title>Node13&#45;&gt;Node3</title>
<path fill="none" stroke="midnightblue" d="M1018.75,-153.53C997.58,-174.78 952.3,-215.28 922.39,-239.89"/>
<polygon fill="midnightblue" stroke="midnightblue" points="919.95,-237.36 914.39,-246.38 924.36,-242.8 919.95,-237.36"/>
</g>
<!-- Node13&#45;&gt;Node6 -->
<g id="edge23" class="edge">
<title>Node13&#45;&gt;Node6</title>
<path fill="none" stroke="midnightblue" d="M973.5,-153.5C972.66,-153.67 971.83,-153.84 971,-154 907.63,-166.6 834.75,-179.88 783.45,-188.72"/>
<polygon fill="midnightblue" stroke="midnightblue" points="782.75,-185.29 773.49,-190.43 783.94,-192.19 782.75,-185.29"/>
</g>
<!-- Node13&#45;&gt;Node12 -->
<g id="edge24" class="edge">
<title>Node13&#45;&gt;Node12</title>
<path fill="none" stroke="midnightblue" d="M970.36,-124.43C967.54,-123.92 964.74,-123.44 962,-123 824.04,-100.79 661.25,-85.48 570.71,-77.93"/>
<polygon fill="midnightblue" stroke="midnightblue" points="570.82,-74.43 560.57,-77.09 570.24,-81.4 570.82,-74.43"/>
</g>
<!-- Node14&#45;&gt;Node6 -->
<g id="edge26" class="edge">
<title>Node14&#45;&gt;Node6</title>
<path fill="none" stroke="midnightblue" d="M873.73,-148.01C845.42,-158.34 793.93,-175.82 757.85,-187.38"/>
<polygon fill="midnightblue" stroke="midnightblue" points="756.59,-184.11 748.12,-190.48 758.71,-190.78 756.59,-184.11"/>
</g>
<!-- Node16&#45;&gt;Node3 -->
<g id="edge29" class="edge">
<title>Node16&#45;&gt;Node3</title>
<path fill="none" stroke="midnightblue" d="M184.83,-150.52C190.66,-151.7 196.45,-152.87 202,-154 325.52,-179.05 355.55,-190.07 480,-210 597.07,-228.75 733.4,-243.82 816.75,-252.47"/>
<polygon fill="midnightblue" stroke="midnightblue" points="816.59,-255.97 826.89,-253.51 817.31,-249.01 816.59,-255.97"/>
</g>
<!-- Node16&#45;&gt;Node6 -->
<g id="edge30" class="edge">
<title>Node16&#45;&gt;Node6</title>
<path fill="none" stroke="midnightblue" d="M184.72,-151.16C190.57,-152.22 196.4,-153.19 202,-154 353.87,-175.94 532.12,-188.45 634.44,-194.47"/>
<polygon fill="midnightblue" stroke="midnightblue" points="634.53,-197.98 644.71,-195.06 634.93,-190.99 634.53,-197.98"/>
</g>
<!-- Node16&#45;&gt;Node17 -->
<g id="edge31" class="edge">
<title>Node16&#45;&gt;Node17</title>
<path fill="none" stroke="midnightblue" d="M111.15,-123.4C103.43,-113.36 93.03,-99.84 84.89,-89.25"/>
<polygon fill="midnightblue" stroke="midnightblue" points="87.56,-86.99 78.69,-81.19 82.01,-91.25 87.56,-86.99"/>
</g>
<!-- Node17&#45;&gt;Node2 -->
<g id="edge32" class="edge">
<title>Node17&#45;&gt;Node2</title>
<path fill="none" stroke="midnightblue" d="M144.06,-67.53C216.73,-64.54 332.15,-59.85 432,-56 866.19,-39.26 976.76,-64.47 1409,-20 1415.46,-19.34 1422.32,-18.37 1428.89,-17.31"/>
<polygon fill="midnightblue" stroke="midnightblue" points="1429.6,-20.74 1438.87,-15.61 1428.42,-13.84 1429.6,-20.74"/>
</g>
<!-- Node17&#45;&gt;Node3 -->
<g id="edge33" class="edge">
<title>Node17&#45;&gt;Node3</title>
<path fill="none" stroke="midnightblue" d="M70.38,-81.19C62.35,-97.36 40.95,-132.41 59,-154 107.53,-212.05 619.24,-245.41 816.83,-256.41"/>
<polygon fill="midnightblue" stroke="midnightblue" points="816.67,-259.9 826.85,-256.96 817.06,-252.91 816.67,-259.9"/>
</g>
</g>
</svg>
        <g id="navigator" transform="translate(0 0)" fill="#404254">
                <rect fill="#f2f5e9" fill-opacity="0.5" stroke="#606060" stroke-width=".5" x="0" y="0" width="60" height="60"/>
                <use id="zoomplus" xlink:href="#zoomPlus" x="17" y="9" onmousedown="handleZoom(evt,'in')"/>
                <use id="zoomminus" xlink:href="#zoomMin" x="42" y="9" onmousedown="handleZoom(evt,'out')"/>
                <use id="reset" xlink:href="#resetDef" x="30" y="36" onmousedown="handleReset()"/>
                <g id="arrowUp" xlink:href="#dirArrow" transform="translate(30 24)" onmousedown="handlePan(0,-1)">
                  <use xlink:href="#rim" fill="#404040">
                        <set attributeName="fill" to="#808080" begin="arrowUp.mouseover" end="arrowUp.mouseout"/>
                  </use>
                  <path fill="none" stroke="white" stroke-width="1.5" d="M0,-3.0v7 M-2.5,-0.5L0,-3.0L2.5,-0.5"/>
                </g>
                <g id="arrowRight" xlink:href="#dirArrow" transform="rotate(90) translate(36 -43)" onmousedown="handlePan(1,0)">
                  <use xlink:href="#rim" fill="#404040">
                        <set attributeName="fill" to="#808080" begin="arrowRight.mouseover" end="arrowRight.mouseout"/>
                  </use>
                  <path fill="none" stroke="white" stroke-width="1.5" d="M0,-3.0v7 M-2.5,-0.5L0,-3.0L2.5,-0.5"/>
                </g>
                <g id="arrowDown" xlink:href="#dirArrow" transform="rotate(180) translate(-30 -48)" onmousedown="handlePan(0,1)">
                  <use xlink:href="#rim" fill="#404040">
                        <set attributeName="fill" to="#808080" begin="arrowDown.mouseover" end="arrowDown.mouseout"/>
                  </use>
                  <path fill="none" stroke="white" stroke-width="1.5" d="M0,-3.0v7 M-2.5,-0.5L0,-3.0L2.5,-0.5"/>
                </g>
                <g id="arrowLeft" xlink:href="#dirArrow" transform="rotate(270) translate(-36 17)" onmousedown="handlePan(-1,0)">
                  <use xlink:href="#rim" fill="#404040">
                        <set attributeName="fill" to="#808080" begin="arrowLeft.mouseover" end="arrowLeft.mouseout"/>
                  </use>
                  <path fill="none" stroke="white" stroke-width="1.5" d="M0,-3.0v7 M-2.5,-0.5L0,-3.0L2.5,-0.5"/>
                </g>
        </g>
        <svg viewBox="0 0 15 15" width="100%" height="30px" preserveAspectRatio="xMaxYMin meet">
         <g id="arrow_out" transform="scale(0.3 0.3)">
          <a xlink:href="io_2file__formats_8h__incl_org.svg" target="_base">
           <rect id="button" ry="5" rx="5" y="6" x="6" height="38" width="38"
                fill="#f2f5e9" fill-opacity="0.5" stroke="#606060" stroke-width="1.0"/>
           <path id="arrow"
             d="M 11.500037,31.436501 C 11.940474,20.09759 22.043105,11.32322 32.158766,21.979434 L 37.068811,17.246167 C 37.068811,17.246167 37.088388,32 37.088388,32 L 22.160133,31.978069 C 22.160133,31.978069 26.997745,27.140456 26.997745,27.140456 C 18.528582,18.264221 13.291696,25.230495 11.500037,31.436501 z"
             style="fill:#404040;"/>
          </a>
         </g>
        </svg>
</svg>
