<?xml version="1.0" encoding="UTF-8" standalone="no"?>
<!DOCTYPE svg PUBLIC "-//W3C//DTD SVG 1.1//EN"
 "http://www.w3.org/Graphics/SVG/1.1/DTD/svg11.dtd">
<!-- Generated by graphviz version 2.47.0 (0)
 -->
<!-- Title: ViennaRNA/landscape/neighbor.h Pages: 1 -->
<svg width="242pt" height="95pt"
 viewBox="0.00 0.00 242.00 95.00" xmlns="http://www.w3.org/2000/svg" xmlns:xlink="http://www.w3.org/1999/xlink">
<g id="graph0" class="graph" transform="scale(1 1) rotate(0) translate(4 91)">
<title>ViennaRNA/landscape/neighbor.h</title>
<!-- Node1 -->
<g id="node1" class="node">
<title>Node1</title>
<g id="a_node1"><a xlink:title="Methods to compute the neighbors of an RNA secondary structure.">
<polygon fill="#bfbfbf" stroke="black" points="63,-56.5 63,-86.5 179,-86.5 179,-56.5 63,-56.5"/>
<text text-anchor="start" x="71" y="-74.5" font-family="Helvetica,sans-Serif" font-size="10.00">ViennaRNA/landscape</text>
<text text-anchor="middle" x="121" y="-63.5" font-family="Helvetica,sans-Serif" font-size="10.00">/neighbor.h</text>
</a>
</g>
</g>
<!-- Node2 -->
<g id="node2" class="node">
<title>Node2</title>
<g id="a_node2"><a xlink:href="neighbor_8h.html" target="_top" xlink:title="Use ViennaRNA/landscape/neighbor.h instead.">
<polygon fill="none" stroke="black" points="0,-0.5 0,-19.5 116,-19.5 116,-0.5 0,-0.5"/>
<text text-anchor="middle" x="58" y="-7.5" font-family="Helvetica,sans-Serif" font-size="10.00">ViennaRNA/neighbor.h</text>
</a>
</g>
</g>
<!-- Node1&#45;&gt;Node2 -->
<g id="edge1" class="edge">
<title>Node1&#45;&gt;Node2</title>
<path fill="none" stroke="midnightblue" d="M98.55,-49.3C87.74,-39.09 75.37,-27.41 67.17,-19.66"/>
<polygon fill="midnightblue" stroke="midnightblue" points="96.4,-52.08 106.07,-56.4 101.2,-46.99 96.4,-52.08"/>
</g>
<!-- Node3 -->
<g id="node3" class="node">
<title>Node3</title>
<g id="a_node3"><a xlink:href="walk_8h.html" target="_top" xlink:title="Use ViennaRNA/landscape/walk.h instead.">
<polygon fill="none" stroke="black" points="134,-0.5 134,-19.5 234,-19.5 234,-0.5 134,-0.5"/>
<text text-anchor="middle" x="184" y="-7.5" font-family="Helvetica,sans-Serif" font-size="10.00">ViennaRNA/walk.h</text>
</a>
</g>
</g>
<!-- Node1&#45;&gt;Node3 -->
<g id="edge2" class="edge">
<title>Node1&#45;&gt;Node3</title>
<path fill="none" stroke="midnightblue" d="M143.45,-49.3C154.26,-39.09 166.63,-27.41 174.83,-19.66"/>
<polygon fill="midnightblue" stroke="midnightblue" points="140.8,-46.99 135.93,-56.4 145.6,-52.08 140.8,-46.99"/>
</g>
</g>
</svg>
