<?xml version="1.0" encoding="UTF-8" standalone="no"?>
<!DOCTYPE svg PUBLIC "-//W3C//DTD SVG 1.1//EN"
 "http://www.w3.org/Graphics/SVG/1.1/DTD/svg11.dtd">
<!-- Generated by graphviz version 2.47.0 (0)
 -->
<!-- Title: ViennaRNA/plotting/layouts.h Pages: 1 -->
<svg width="382pt" height="162pt"
 viewBox="0.00 0.00 381.50 162.00" xmlns="http://www.w3.org/2000/svg" xmlns:xlink="http://www.w3.org/1999/xlink">
<g id="graph0" class="graph" transform="scale(1 1) rotate(0) translate(4 158)">
<title>ViennaRNA/plotting/layouts.h</title>
<!-- Node1 -->
<g id="node1" class="node">
<title>Node1</title>
<g id="a_node1"><a xlink:title="Secondary structure plot layout algorithms.">
<polygon fill="#bfbfbf" stroke="black" points="108.5,-123.5 108.5,-153.5 211.5,-153.5 211.5,-123.5 108.5,-123.5"/>
<text text-anchor="start" x="116.5" y="-141.5" font-family="Helvetica,sans-Serif" font-size="10.00">ViennaRNA/plotting</text>
<text text-anchor="middle" x="160" y="-130.5" font-family="Helvetica,sans-Serif" font-size="10.00">/layouts.h</text>
</a>
</g>
</g>
<!-- Node2 -->
<g id="node2" class="node">
<title>Node2</title>
<g id="a_node2"><a xlink:href="plot__layouts_8h.html" target="_top" xlink:title="Use ViennaRNA/plotting/layouts.h instead.">
<polygon fill="none" stroke="black" points="0,-62 0,-81 132,-81 132,-62 0,-62"/>
<text text-anchor="middle" x="66" y="-69" font-family="Helvetica,sans-Serif" font-size="10.00">ViennaRNA/plot_layouts.h</text>
</a>
</g>
</g>
<!-- Node1&#45;&gt;Node2 -->
<g id="edge1" class="edge">
<title>Node1&#45;&gt;Node2</title>
<path fill="none" stroke="midnightblue" d="M131.28,-117.64C113.54,-105.37 91.69,-90.26 78.3,-81.01"/>
<polygon fill="midnightblue" stroke="midnightblue" points="129.39,-120.59 139.6,-123.4 133.37,-114.83 129.39,-120.59"/>
</g>
<!-- Node3 -->
<g id="node3" class="node">
<title>Node3</title>
<g id="a_node3"><a xlink:href="PS__dot_8h.html" target="_top" xlink:title="Use ViennaRNA/plotting/probabilities.h instead.">
<polygon fill="none" stroke="black" points="104,-0.5 104,-19.5 216,-19.5 216,-0.5 104,-0.5"/>
<text text-anchor="middle" x="160" y="-7.5" font-family="Helvetica,sans-Serif" font-size="10.00">ViennaRNA/PS_dot.h</text>
</a>
</g>
</g>
<!-- Node1&#45;&gt;Node3 -->
<g id="edge2" class="edge">
<title>Node1&#45;&gt;Node3</title>
<path fill="none" stroke="midnightblue" d="M160,-113.14C160,-84.62 160,-38.86 160,-19.79"/>
<polygon fill="midnightblue" stroke="midnightblue" points="156.5,-113.48 160,-123.48 163.5,-113.48 156.5,-113.48"/>
</g>
<!-- Node4 -->
<g id="node4" class="node">
<title>Node4</title>
<g id="a_node4"><a xlink:href="plotting_2structures_8h.html" target="_top" xlink:title="Various functions for plotting RNA secondary structures.">
<polygon fill="none" stroke="black" points="188.5,-56.5 188.5,-86.5 291.5,-86.5 291.5,-56.5 188.5,-56.5"/>
<text text-anchor="start" x="196.5" y="-74.5" font-family="Helvetica,sans-Serif" font-size="10.00">ViennaRNA/plotting</text>
<text text-anchor="middle" x="240" y="-63.5" font-family="Helvetica,sans-Serif" font-size="10.00">/structures.h</text>
</a>
</g>
</g>
<!-- Node1&#45;&gt;Node4 -->
<g id="edge3" class="edge">
<title>Node1&#45;&gt;Node4</title>
<path fill="none" stroke="midnightblue" d="M185.37,-116.88C197.53,-107.01 211.78,-95.43 222.68,-86.58"/>
<polygon fill="midnightblue" stroke="midnightblue" points="182.91,-114.37 177.36,-123.4 187.33,-119.81 182.91,-114.37"/>
</g>
<!-- Node4&#45;&gt;Node3 -->
<g id="edge5" class="edge">
<title>Node4&#45;&gt;Node3</title>
<path fill="none" stroke="midnightblue" d="M212.69,-50.19C198.68,-39.77 182.36,-27.63 171.64,-19.66"/>
<polygon fill="midnightblue" stroke="midnightblue" points="210.93,-53.24 221.04,-56.4 215.11,-47.62 210.93,-53.24"/>
</g>
<!-- Node5 -->
<g id="node5" class="node">
<title>Node5</title>
<g id="a_node5"><a xlink:href="plot__structure_8h.html" target="_top" xlink:title="Use ViennaRNA/plotting/structures.h instead.">
<polygon fill="none" stroke="black" points="234.5,-0.5 234.5,-19.5 373.5,-19.5 373.5,-0.5 234.5,-0.5"/>
<text text-anchor="middle" x="304" y="-7.5" font-family="Helvetica,sans-Serif" font-size="10.00">ViennaRNA/plot_structure.h</text>
</a>
</g>
</g>
<!-- Node4&#45;&gt;Node5 -->
<g id="edge4" class="edge">
<title>Node4&#45;&gt;Node5</title>
<path fill="none" stroke="midnightblue" d="M262.8,-49.3C273.79,-39.09 286.35,-27.41 294.69,-19.66"/>
<polygon fill="midnightblue" stroke="midnightblue" points="260.11,-47.03 255.17,-56.4 264.87,-52.15 260.11,-47.03"/>
</g>
</g>
</svg>
