<?xml version="1.0" encoding="UTF-8" standalone="no"?>
<!DOCTYPE svg PUBLIC "-//W3C//DTD SVG 1.1//EN"
 "http://www.w3.org/Graphics/SVG/1.1/DTD/svg11.dtd">
<!-- Generated by graphviz version 2.47.0 (0)
 -->
<!-- Title: ViennaRNA/constraints/ligand.h Pages: 1 -->
<svg width="274pt" height="106pt"
 viewBox="0.00 0.00 273.50 106.00" xmlns="http://www.w3.org/2000/svg" xmlns:xlink="http://www.w3.org/1999/xlink">
<g id="graph0" class="graph" transform="scale(1 1) rotate(0) translate(4 102)">
<title>ViennaRNA/constraints/ligand.h</title>
<!-- Node1 -->
<g id="node1" class="node">
<title>Node1</title>
<g id="a_node1"><a xlink:title="Functions for incorporation of ligands binding to hairpin and interior loop motifs using the soft con...">
<polygon fill="#bfbfbf" stroke="black" points="75.5,-67.5 75.5,-97.5 194.5,-97.5 194.5,-67.5 75.5,-67.5"/>
<text text-anchor="start" x="83.5" y="-85.5" font-family="Helvetica,sans-Serif" font-size="10.00">ViennaRNA/constraints</text>
<text text-anchor="middle" x="135" y="-74.5" font-family="Helvetica,sans-Serif" font-size="10.00">/ligand.h</text>
</a>
</g>
</g>
<!-- Node2 -->
<g id="node2" class="node">
<title>Node2</title>
<g id="a_node2"><a xlink:href="constraints_8h.html" target="_top" xlink:title="Use ViennaRNA/constraints/basic.h instead.">
<polygon fill="none" stroke="black" points="0,-6 0,-25 128,-25 128,-6 0,-6"/>
<text text-anchor="middle" x="64" y="-13" font-family="Helvetica,sans-Serif" font-size="10.00">ViennaRNA/constraints.h</text>
</a>
</g>
</g>
<!-- Node1&#45;&gt;Node2 -->
<g id="edge1" class="edge">
<title>Node1&#45;&gt;Node2</title>
<path fill="none" stroke="midnightblue" d="M111.88,-60.34C98.85,-48.4 83.26,-34.14 73.5,-25.19"/>
<polygon fill="midnightblue" stroke="midnightblue" points="109.85,-63.22 119.59,-67.4 114.58,-58.06 109.85,-63.22"/>
</g>
<!-- Node3 -->
<g id="node3" class="node">
<title>Node3</title>
<g id="a_node3"><a xlink:href="constraints__ligand_8h.html" target="_top" xlink:title="Use ViennaRNA/constraints/ligand.h instead.">
<polygon fill="none" stroke="black" points="146.5,-0.5 146.5,-30.5 265.5,-30.5 265.5,-0.5 146.5,-0.5"/>
<text text-anchor="start" x="154.5" y="-18.5" font-family="Helvetica,sans-Serif" font-size="10.00">ViennaRNA/constraints</text>
<text text-anchor="middle" x="206" y="-7.5" font-family="Helvetica,sans-Serif" font-size="10.00">_ligand.h</text>
</a>
</g>
</g>
<!-- Node1&#45;&gt;Node3 -->
<g id="edge2" class="edge">
<title>Node1&#45;&gt;Node3</title>
<path fill="none" stroke="midnightblue" d="M157.83,-60.6C168.55,-50.78 181.05,-39.34 190.62,-30.58"/>
<polygon fill="midnightblue" stroke="midnightblue" points="155.42,-58.06 150.41,-67.4 160.15,-63.22 155.42,-58.06"/>
</g>
</g>
</svg>
