<?xml version="1.0" encoding="UTF-8" standalone="no"?>
<!DOCTYPE svg PUBLIC "-//W3C//DTD SVG 1.1//EN"
 "http://www.w3.org/Graphics/SVG/1.1/DTD/svg11.dtd">
<!-- Generated by graphviz version 2.47.0 (0)
 -->
<!-- Title: ViennaRNA/LPfold.h Pages: 1 -->
<!--zoomable 408 -->
<svg id="main" version="1.1" xmlns="http://www.w3.org/2000/svg" xmlns:xlink="http://www.w3.org/1999/xlink" xml:space="preserve" onload="init(evt)">
<style type="text/css"><![CDATA[
.edge:hover path { stroke: red; }
.edge:hover polygon { stroke: red; fill: red; }
]]></style>
<script type="text/javascript"><![CDATA[
var edges = document.getElementsByTagName('g');
if (edges && edges.length) {
  for (var i=0;i<edges.length;i++) {
    if (edges[i].id.substr(0,4)=='edge') {
      edges[i].setAttribute('class','edge');
    }
  }
}
]]></script>
        <defs>
                <circle id="rim" cx="0" cy="0" r="7"/>
                <circle id="rim2" cx="0" cy="0" r="3.5"/>
                <g id="zoomPlus">
                        <use xlink:href="#rim" fill="#404040">
                                <set attributeName="fill" to="#808080" begin="zoomplus.mouseover" end="zoomplus.mouseout"/>
                        </use>
                        <path d="M-4,0h8M0,-4v8" fill="none" stroke="white" stroke-width="1.5" pointer-events="none"/>
                </g>
                <g id="zoomMin">
                        <use xlink:href="#rim" fill="#404040">
                                <set attributeName="fill" to="#808080" begin="zoomminus.mouseover" end="zoomminus.mouseout"/>
                        </use>
                        <path d="M-4,0h8" fill="none" stroke="white" stroke-width="1.5" pointer-events="none"/>
                </g>
                <g id="dirArrow">
                        <path fill="none" stroke="white" stroke-width="1.5" d="M0,-3.0v7 M-2.5,-0.5L0,-3.0L2.5,-0.5"/>
                </g>
               <g id="resetDef">
                       <use xlink:href="#rim2" fill="#404040">
                               <set attributeName="fill" to="#808080" begin="reset.mouseover" end="reset.mouseout"/>
                       </use>
               </g>
        </defs>

<script type="text/javascript">
var viewWidth = 1588;
var viewHeight = 408;
var sectionId = 'dynsection-0';
</script>
<script xlink:href="svgpan.js"/>
<svg id="graph" class="graph">
<g id="viewport">
<title>ViennaRNA/LPfold.h</title>
<!-- Node1 -->
<g id="node1" class="node">
<title>Node1</title>
<g id="a_node1"><a xlink:title="Partition function and equilibrium probability implementation for the sliding window algorithm.">
<polygon fill="#bfbfbf" stroke="black" points="794.5,-380.5 794.5,-399.5 901.5,-399.5 901.5,-380.5 794.5,-380.5"/>
<text text-anchor="middle" x="848" y="-387.5" font-family="Helvetica,sans-Serif" font-size="10.00">ViennaRNA/LPfold.h</text>
</a>
</g>
</g>
<!-- Node2 -->
<g id="node2" class="node">
<title>Node2</title>
<g id="a_node2"><a xlink:title=" ">
<polygon fill="none" stroke="#bfbfbf" points="27,-0.5 27,-19.5 73,-19.5 73,-0.5 27,-0.5"/>
<text text-anchor="middle" x="50" y="-7.5" font-family="Helvetica,sans-Serif" font-size="10.00">stdio.h</text>
</a>
</g>
</g>
<!-- Node1&#45;&gt;Node2 -->
<g id="edge1" class="edge">
<title>Node1&#45;&gt;Node2</title>
<path fill="none" stroke="midnightblue" d="M794.31,-386.68C607.9,-377.92 0,-343.16 0,-262.5 0,-262.5 0,-262.5 0,-137.5 0,-100.31 3.97,-90.02 19,-56 23.45,-45.93 30.23,-35.75 36.32,-27.62"/>
<polygon fill="midnightblue" stroke="midnightblue" points="39.11,-29.74 42.51,-19.71 33.59,-25.43 39.11,-29.74"/>
</g>
<!-- Node3 -->
<g id="node3" class="node">
<title>Node3</title>
<g id="a_node3"><a xlink:href="datastructures_2basic_8h.html" target="_top" xlink:title="Various data structures and pre&#45;processor macros.">
<polygon fill="none" stroke="black" points="829,-246.5 829,-276.5 963,-276.5 963,-246.5 829,-246.5"/>
<text text-anchor="start" x="837" y="-264.5" font-family="Helvetica,sans-Serif" font-size="10.00">ViennaRNA/datastructures</text>
<text text-anchor="middle" x="896" y="-253.5" font-family="Helvetica,sans-Serif" font-size="10.00">/basic.h</text>
</a>
</g>
</g>
<!-- Node1&#45;&gt;Node3 -->
<g id="edge2" class="edge">
<title>Node1&#45;&gt;Node3</title>
<path fill="none" stroke="midnightblue" d="M851.52,-380.4C855.2,-371.37 861.11,-356.73 866,-344 873.4,-324.72 881.47,-302.73 887.38,-286.46"/>
<polygon fill="midnightblue" stroke="midnightblue" points="890.81,-287.27 890.92,-276.68 884.22,-284.89 890.81,-287.27"/>
</g>
<!-- Node8 -->
<g id="node8" class="node">
<title>Node8</title>
<g id="a_node8"><a xlink:href="params_2basic_8h.html" target="_top" xlink:title="Functions to deal with sets of energy parameters.">
<polygon fill="none" stroke="black" points="1357,-129 1357,-148 1495,-148 1495,-129 1357,-129"/>
<text text-anchor="middle" x="1426" y="-136" font-family="Helvetica,sans-Serif" font-size="10.00">ViennaRNA/params/basic.h</text>
</a>
</g>
</g>
<!-- Node1&#45;&gt;Node8 -->
<g id="edge44" class="edge">
<title>Node1&#45;&gt;Node8</title>
<path fill="none" stroke="midnightblue" d="M901.58,-382.94C1004.41,-368.95 1232.37,-326.16 1381,-210 1398.64,-196.21 1411.36,-173.45 1418.68,-157.53"/>
<polygon fill="midnightblue" stroke="midnightblue" points="1421.95,-158.79 1422.71,-148.22 1415.53,-156.01 1421.95,-158.79"/>
</g>
<!-- Node19 -->
<g id="node19" class="node">
<title>Node19</title>
<g id="a_node19"><a xlink:href="part__func__window_8h.html" target="_top" xlink:title="Partition function and equilibrium probability implementation for the sliding window algorithm.">
<polygon fill="none" stroke="black" points="745,-313.5 745,-343.5 857,-343.5 857,-313.5 745,-313.5"/>
<text text-anchor="start" x="753" y="-331.5" font-family="Helvetica,sans-Serif" font-size="10.00">ViennaRNA/part_func</text>
<text text-anchor="middle" x="801" y="-320.5" font-family="Helvetica,sans-Serif" font-size="10.00">_window.h</text>
</a>
</g>
</g>
<!-- Node1&#45;&gt;Node19 -->
<g id="edge45" class="edge">
<title>Node1&#45;&gt;Node19</title>
<path fill="none" stroke="midnightblue" d="M841.27,-380.48C835.32,-372.94 826.38,-361.63 818.43,-351.57"/>
<polygon fill="midnightblue" stroke="midnightblue" points="821.02,-349.2 812.08,-343.52 815.53,-353.54 821.02,-349.2"/>
</g>
<!-- Node4 -->
<g id="node4" class="node">
<title>Node4</title>
<g id="a_node4"><a xlink:href="constants_8h.html" target="_top" xlink:title="Energy parameter constants.">
<polygon fill="none" stroke="black" points="1422,-62 1422,-81 1580,-81 1580,-62 1422,-62"/>
<text text-anchor="middle" x="1501" y="-69" font-family="Helvetica,sans-Serif" font-size="10.00">ViennaRNA/params/constants.h</text>
</a>
</g>
</g>
<!-- Node3&#45;&gt;Node4 -->
<g id="edge3" class="edge">
<title>Node3&#45;&gt;Node4</title>
<path fill="none" stroke="midnightblue" d="M963.14,-260.3C1057.91,-258.51 1235.59,-249.54 1381,-210 1438.96,-194.24 1471.5,-204.51 1504,-154 1516.12,-135.17 1512.12,-108.49 1507.29,-90.86"/>
<polygon fill="midnightblue" stroke="midnightblue" points="1510.6,-89.72 1504.31,-81.2 1503.91,-91.78 1510.6,-89.72"/>
</g>
<!-- Node6 -->
<g id="node6" class="node">
<title>Node6</title>
<g id="a_node6"><a xlink:href="fold__compound_8h.html" target="_top" xlink:title="The Basic Fold Compound API.">
<polygon fill="none" stroke="black" points="724,-190.5 724,-209.5 870,-209.5 870,-190.5 724,-190.5"/>
<text text-anchor="middle" x="797" y="-197.5" font-family="Helvetica,sans-Serif" font-size="10.00">ViennaRNA/fold_compound.h</text>
</a>
</g>
</g>
<!-- Node3&#45;&gt;Node6 -->
<g id="edge5" class="edge">
<title>Node3&#45;&gt;Node6</title>
<path fill="none" stroke="midnightblue" d="M872.54,-246.4C856.67,-236.86 835.81,-224.32 820.03,-214.84"/>
<polygon fill="midnightblue" stroke="midnightblue" points="821.78,-211.81 811.41,-209.66 818.17,-217.81 821.78,-211.81"/>
</g>
<!-- Node7 -->
<g id="node7" class="node">
<title>Node7</title>
<g id="a_node7"><a xlink:href="model_8h.html" target="_top" xlink:title="The model details data structure and its corresponding modifiers.">
<polygon fill="none" stroke="black" points="1276,-62 1276,-81 1382,-81 1382,-62 1276,-62"/>
<text text-anchor="middle" x="1329" y="-69" font-family="Helvetica,sans-Serif" font-size="10.00">ViennaRNA/model.h</text>
</a>
</g>
</g>
<!-- Node3&#45;&gt;Node7 -->
<g id="edge35" class="edge">
<title>Node3&#45;&gt;Node7</title>
<path fill="none" stroke="midnightblue" d="M963.42,-251.59C1067.66,-236.46 1260.99,-202.59 1309,-154 1325.37,-137.44 1329.09,-109.79 1329.58,-91.35"/>
<polygon fill="midnightblue" stroke="midnightblue" points="1333.08,-91.23 1329.55,-81.24 1326.08,-91.25 1333.08,-91.23"/>
</g>
<!-- Node3&#45;&gt;Node8 -->
<g id="edge36" class="edge">
<title>Node3&#45;&gt;Node8</title>
<path fill="none" stroke="midnightblue" d="M963.03,-257.42C1068.73,-251.95 1268.5,-238.34 1334,-210 1362.74,-197.57 1389.04,-171.71 1406.46,-155"/>
<polygon fill="midnightblue" stroke="midnightblue" points="1408.95,-157.47 1413.81,-148.05 1404.14,-152.38 1408.95,-157.47"/>
</g>
<!-- Node10 -->
<g id="node10" class="node">
<title>Node10</title>
<g id="a_node10"><a xlink:href="dp__matrices_8h.html" target="_top" xlink:title="Functions to deal with standard dynamic programming (DP) matrices.">
<polygon fill="none" stroke="black" points="280.5,-129 280.5,-148 413.5,-148 413.5,-129 280.5,-129"/>
<text text-anchor="middle" x="347" y="-136" font-family="Helvetica,sans-Serif" font-size="10.00">ViennaRNA/dp_matrices.h</text>
</a>
</g>
</g>
<!-- Node3&#45;&gt;Node10 -->
<g id="edge37" class="edge">
<title>Node3&#45;&gt;Node10</title>
<path fill="none" stroke="midnightblue" d="M828.8,-246.68C715.31,-222.36 488.8,-172.41 392.22,-150.36"/>
<polygon fill="midnightblue" stroke="midnightblue" points="392.72,-146.89 382.19,-148.07 391.15,-153.71 392.72,-146.89"/>
</g>
<!-- Node11 -->
<g id="node11" class="node">
<title>Node11</title>
<g id="a_node11"><a xlink:href="hard_8h.html" target="_top" xlink:title="Functions and data structures for handling of secondary structure hard constraints.">
<polygon fill="none" stroke="black" points="737.5,-123.5 737.5,-153.5 856.5,-153.5 856.5,-123.5 737.5,-123.5"/>
<text text-anchor="start" x="745.5" y="-141.5" font-family="Helvetica,sans-Serif" font-size="10.00">ViennaRNA/constraints</text>
<text text-anchor="middle" x="797" y="-130.5" font-family="Helvetica,sans-Serif" font-size="10.00">/hard.h</text>
</a>
</g>
</g>
<!-- Node3&#45;&gt;Node11 -->
<g id="edge38" class="edge">
<title>Node3&#45;&gt;Node11</title>
<path fill="none" stroke="midnightblue" d="M895.71,-246.48C894.74,-231.24 891.2,-206.81 879,-190 869.41,-176.79 855.22,-166.31 841.32,-158.4"/>
<polygon fill="midnightblue" stroke="midnightblue" points="842.75,-155.2 832.28,-153.57 839.45,-161.37 842.75,-155.2"/>
</g>
<!-- Node13 -->
<g id="node13" class="node">
<title>Node13</title>
<g id="a_node13"><a xlink:href="soft_8h.html" target="_top" xlink:title="Functions and data structures for secondary structure soft constraints.">
<polygon fill="none" stroke="black" points="1181.5,-123.5 1181.5,-153.5 1300.5,-153.5 1300.5,-123.5 1181.5,-123.5"/>
<text text-anchor="start" x="1189.5" y="-141.5" font-family="Helvetica,sans-Serif" font-size="10.00">ViennaRNA/constraints</text>
<text text-anchor="middle" x="1241" y="-130.5" font-family="Helvetica,sans-Serif" font-size="10.00">/soft.h</text>
</a>
</g>
</g>
<!-- Node3&#45;&gt;Node13 -->
<g id="edge39" class="edge">
<title>Node3&#45;&gt;Node13</title>
<path fill="none" stroke="midnightblue" d="M931.73,-246.38C992.38,-224.11 1115.49,-180.9 1186.79,-156.8"/>
<polygon fill="midnightblue" stroke="midnightblue" points="1188.13,-160.04 1196.49,-153.53 1185.9,-153.4 1188.13,-160.04"/>
</g>
<!-- Node14 -->
<g id="node14" class="node">
<title>Node14</title>
<g id="a_node14"><a xlink:href="grammar_8h.html" target="_top" xlink:title="Implementations for the RNA folding grammar.">
<polygon fill="none" stroke="black" points="913.5,-129 913.5,-148 1030.5,-148 1030.5,-129 913.5,-129"/>
<text text-anchor="middle" x="972" y="-136" font-family="Helvetica,sans-Serif" font-size="10.00">ViennaRNA/grammar.h</text>
</a>
</g>
</g>
<!-- Node3&#45;&gt;Node14 -->
<g id="edge40" class="edge">
<title>Node3&#45;&gt;Node14</title>
<path fill="none" stroke="midnightblue" d="M905.02,-246.14C919.05,-223.81 946.06,-180.8 961.14,-156.79"/>
<polygon fill="midnightblue" stroke="midnightblue" points="964.27,-158.38 966.63,-148.05 958.35,-154.66 964.27,-158.38"/>
</g>
<!-- Node15 -->
<g id="node15" class="node">
<title>Node15</title>
<g id="a_node15"><a xlink:href="structured__domains_8h.html" target="_top" xlink:title="This module provides interfaces that deal with additional structured domains in the folding grammar.">
<polygon fill="none" stroke="black" points="1048.5,-123.5 1048.5,-153.5 1163.5,-153.5 1163.5,-123.5 1048.5,-123.5"/>
<text text-anchor="start" x="1056.5" y="-141.5" font-family="Helvetica,sans-Serif" font-size="10.00">ViennaRNA/structured</text>
<text text-anchor="middle" x="1106" y="-130.5" font-family="Helvetica,sans-Serif" font-size="10.00">_domains.h</text>
</a>
</g>
</g>
<!-- Node3&#45;&gt;Node15 -->
<g id="edge41" class="edge">
<title>Node3&#45;&gt;Node15</title>
<path fill="none" stroke="midnightblue" d="M920.5,-246.38C958.2,-224.66 1030.5,-183 1072.84,-158.6"/>
<polygon fill="midnightblue" stroke="midnightblue" points="1074.74,-161.55 1081.66,-153.53 1071.24,-155.49 1074.74,-161.55"/>
</g>
<!-- Node16 -->
<g id="node16" class="node">
<title>Node16</title>
<g id="a_node16"><a xlink:href="unstructured__domains_8h.html" target="_top" xlink:title="Functions to modify unstructured domains, e.g. to incorporate ligands binding to unpaired stretches.">
<polygon fill="none" stroke="black" points="137.5,-123.5 137.5,-153.5 262.5,-153.5 262.5,-123.5 137.5,-123.5"/>
<text text-anchor="start" x="145.5" y="-141.5" font-family="Helvetica,sans-Serif" font-size="10.00">ViennaRNA/unstructured</text>
<text text-anchor="middle" x="200" y="-130.5" font-family="Helvetica,sans-Serif" font-size="10.00">_domains.h</text>
</a>
</g>
</g>
<!-- Node3&#45;&gt;Node16 -->
<g id="edge42" class="edge">
<title>Node3&#45;&gt;Node16</title>
<path fill="none" stroke="midnightblue" d="M828.89,-250.82C714.71,-233.31 475.55,-194.61 269.84,-155.49"/>
<polygon fill="midnightblue" stroke="midnightblue" points="270.24,-152.01 259.76,-153.57 268.93,-158.88 270.24,-152.01"/>
</g>
<!-- Node17 -->
<g id="node17" class="node">
<title>Node17</title>
<g id="a_node17"><a xlink:href="utils_2structures_8h.html" target="_top" xlink:title="Various utility&#45; and helper&#45;functions for secondary structure parsing, converting,...">
<polygon fill="none" stroke="black" points="28,-62 28,-81 172,-81 172,-62 28,-62"/>
<text text-anchor="middle" x="100" y="-69" font-family="Helvetica,sans-Serif" font-size="10.00">ViennaRNA/utils/structures.h</text>
</a>
</g>
</g>
<!-- Node3&#45;&gt;Node17 -->
<g id="edge43" class="edge">
<title>Node3&#45;&gt;Node17</title>
<path fill="none" stroke="midnightblue" d="M828.91,-260.15C660.33,-257.96 225.33,-243.63 119,-154 100.54,-138.44 94.22,-110.1 94.34,-91.28"/>
<polygon fill="midnightblue" stroke="midnightblue" points="97.83,-91.48 95.14,-81.23 90.85,-90.92 97.83,-91.48"/>
</g>
<!-- Node5 -->
<g id="node5" class="node">
<title>Node5</title>
<g id="a_node5"><a xlink:title=" ">
<polygon fill="none" stroke="#bfbfbf" points="1477,-0.5 1477,-19.5 1525,-19.5 1525,-0.5 1477,-0.5"/>
<text text-anchor="middle" x="1501" y="-7.5" font-family="Helvetica,sans-Serif" font-size="10.00">limits.h</text>
</a>
</g>
</g>
<!-- Node4&#45;&gt;Node5 -->
<g id="edge4" class="edge">
<title>Node4&#45;&gt;Node5</title>
<path fill="none" stroke="midnightblue" d="M1501,-61.98C1501,-53.58 1501,-40.48 1501,-29.66"/>
<polygon fill="midnightblue" stroke="midnightblue" points="1504.5,-29.51 1501,-19.51 1497.5,-29.51 1504.5,-29.51"/>
</g>
<!-- Node6&#45;&gt;Node7 -->
<g id="edge6" class="edge">
<title>Node6&#45;&gt;Node7</title>
<path fill="none" stroke="midnightblue" d="M810.78,-190.38C824.69,-181.56 846.67,-167.31 865,-154 882.92,-140.99 883.56,-131.52 904,-123 967.82,-96.4 1163.46,-81.78 1265.53,-75.79"/>
<polygon fill="midnightblue" stroke="midnightblue" points="1265.93,-79.27 1275.71,-75.2 1265.52,-72.28 1265.93,-79.27"/>
</g>
<!-- Node6&#45;&gt;Node8 -->
<g id="edge7" class="edge">
<title>Node6&#45;&gt;Node8</title>
<path fill="none" stroke="midnightblue" d="M870.2,-192.9C968.2,-184.96 1147.15,-170.18 1300,-154 1315.03,-152.41 1331.12,-150.53 1346.62,-148.66"/>
<polygon fill="midnightblue" stroke="midnightblue" points="1347.21,-152.12 1356.71,-147.44 1346.36,-145.17 1347.21,-152.12"/>
</g>
<!-- Node9 -->
<g id="node9" class="node">
<title>Node9</title>
<g id="a_node9"><a xlink:href="sequence_8h.html" target="_top" xlink:title="Functions and data structures related to sequence representations ,.">
<polygon fill="none" stroke="black" points="559,-129 559,-148 681,-148 681,-129 559,-129"/>
<text text-anchor="middle" x="620" y="-136" font-family="Helvetica,sans-Serif" font-size="10.00">ViennaRNA/sequence.h</text>
</a>
</g>
</g>
<!-- Node6&#45;&gt;Node9 -->
<g id="edge12" class="edge">
<title>Node6&#45;&gt;Node9</title>
<path fill="none" stroke="midnightblue" d="M766.74,-190.48C734.01,-180.22 682.44,-162.96 649.87,-151.4"/>
<polygon fill="midnightblue" stroke="midnightblue" points="651.01,-148.09 640.42,-148.01 648.65,-154.68 651.01,-148.09"/>
</g>
<!-- Node6&#45;&gt;Node10 -->
<g id="edge14" class="edge">
<title>Node6&#45;&gt;Node10</title>
<path fill="none" stroke="midnightblue" d="M723.87,-192.46C646.29,-184.75 520.54,-170.83 413,-154 405.35,-152.8 397.28,-151.4 389.5,-149.94"/>
<polygon fill="midnightblue" stroke="midnightblue" points="389.97,-146.47 379.49,-148.01 388.64,-153.34 389.97,-146.47"/>
</g>
<!-- Node6&#45;&gt;Node11 -->
<g id="edge17" class="edge">
<title>Node6&#45;&gt;Node11</title>
<path fill="none" stroke="midnightblue" d="M792.1,-190.48C790.57,-183.47 789.99,-173.19 790.36,-163.7"/>
<polygon fill="midnightblue" stroke="midnightblue" points="793.86,-163.77 791.17,-153.52 786.88,-163.21 793.86,-163.77"/>
</g>
<!-- Node6&#45;&gt;Node13 -->
<g id="edge21" class="edge">
<title>Node6&#45;&gt;Node13</title>
<path fill="none" stroke="midnightblue" d="M870.08,-191.45C944.14,-183.78 1061.75,-170.68 1163,-154 1165.68,-153.56 1168.42,-153.08 1171.18,-152.59"/>
<polygon fill="midnightblue" stroke="midnightblue" points="1172.1,-155.98 1181.29,-150.7 1170.81,-149.09 1172.1,-155.98"/>
</g>
<!-- Node6&#45;&gt;Node14 -->
<g id="edge25" class="edge">
<title>Node6&#45;&gt;Node14</title>
<path fill="none" stroke="midnightblue" d="M817.17,-190.48C845.33,-180.14 896.53,-162.66 932.4,-151.1"/>
<polygon fill="midnightblue" stroke="midnightblue" points="933.62,-154.39 942.08,-148.01 931.49,-147.72 933.62,-154.39"/>
</g>
<!-- Node6&#45;&gt;Node15 -->
<g id="edge27" class="edge">
<title>Node6&#45;&gt;Node15</title>
<path fill="none" stroke="midnightblue" d="M845.29,-190.45C892.09,-182.07 965.34,-168.69 1038.44,-154.08"/>
<polygon fill="midnightblue" stroke="midnightblue" points="1039.16,-157.5 1048.28,-152.1 1037.79,-150.64 1039.16,-157.5"/>
</g>
<!-- Node6&#45;&gt;Node16 -->
<g id="edge28" class="edge">
<title>Node6&#45;&gt;Node16</title>
<path fill="none" stroke="midnightblue" d="M723.61,-195.74C622.19,-190.43 433.67,-178.16 269.28,-155.02"/>
<polygon fill="midnightblue" stroke="midnightblue" points="269.39,-151.5 258.99,-153.55 268.4,-158.43 269.39,-151.5"/>
</g>
<!-- Node18 -->
<g id="node18" class="node">
<title>Node18</title>
<g id="a_node18"><a xlink:href="zscore_8h_source.html" target="_top" xlink:title=" ">
<polygon fill="none" stroke="black" points="431.5,-129 431.5,-148 540.5,-148 540.5,-129 431.5,-129"/>
<text text-anchor="middle" x="486" y="-136" font-family="Helvetica,sans-Serif" font-size="10.00">ViennaRNA/zscore.h</text>
</a>
</g>
</g>
<!-- Node6&#45;&gt;Node18 -->
<g id="edge34" class="edge">
<title>Node6&#45;&gt;Node18</title>
<path fill="none" stroke="midnightblue" d="M746.73,-190.49C696.74,-181.87 617.9,-167.87 550,-154 544.28,-152.83 538.28,-151.55 532.35,-150.25"/>
<polygon fill="midnightblue" stroke="midnightblue" points="533.02,-146.81 522.49,-148.05 531.49,-153.64 533.02,-146.81"/>
</g>
<!-- Node8&#45;&gt;Node3 -->
<g id="edge9" class="edge">
<title>Node8&#45;&gt;Node3</title>
<path fill="none" stroke="midnightblue" d="M1424.19,-148.3C1414.72,-163.81 1384.97,-195.74 1352,-210 1286.32,-238.42 1085.57,-252.03 973.52,-257.47"/>
<polygon fill="midnightblue" stroke="midnightblue" points="973.11,-253.98 963.29,-257.96 973.44,-260.98 973.11,-253.98"/>
</g>
<!-- Node8&#45;&gt;Node4 -->
<g id="edge8" class="edge">
<title>Node8&#45;&gt;Node4</title>
<path fill="none" stroke="midnightblue" d="M1436.11,-128.73C1448.15,-118.31 1468.45,-100.71 1483.15,-87.97"/>
<polygon fill="midnightblue" stroke="midnightblue" points="1485.78,-90.32 1491.05,-81.13 1481.2,-85.03 1485.78,-90.32"/>
</g>
<!-- Node8&#45;&gt;Node6 -->
<g id="edge10" class="edge">
<title>Node8&#45;&gt;Node6</title>
<path fill="none" stroke="midnightblue" d="M1369.46,-148C1352.91,-150.08 1334.79,-152.22 1318,-154 1163.85,-170.32 983.15,-185.21 880.1,-193.1"/>
<polygon fill="midnightblue" stroke="midnightblue" points="879.77,-189.61 870.06,-193.86 880.3,-196.59 879.77,-189.61"/>
</g>
<!-- Node8&#45;&gt;Node7 -->
<g id="edge11" class="edge">
<title>Node8&#45;&gt;Node7</title>
<path fill="none" stroke="midnightblue" d="M1412.92,-128.73C1396.85,-117.96 1369.37,-99.55 1350.25,-86.74"/>
<polygon fill="midnightblue" stroke="midnightblue" points="1352.13,-83.79 1341.87,-81.13 1348.23,-89.6 1352.13,-83.79"/>
</g>
<!-- Node9&#45;&gt;Node6 -->
<g id="edge13" class="edge">
<title>Node9&#45;&gt;Node6</title>
<path fill="none" stroke="midnightblue" d="M650.21,-148.01C682.92,-158.25 734.49,-175.52 767.08,-187.08"/>
<polygon fill="midnightblue" stroke="midnightblue" points="765.95,-190.4 776.54,-190.48 768.31,-183.81 765.95,-190.4"/>
</g>
<!-- Node10&#45;&gt;Node3 -->
<g id="edge15" class="edge">
<title>Node10&#45;&gt;Node3</title>
<path fill="none" stroke="midnightblue" d="M389.36,-148.03C483.75,-168.02 711.71,-218.18 826.95,-244.23"/>
<polygon fill="midnightblue" stroke="midnightblue" points="826.21,-247.65 836.73,-246.44 827.75,-240.82 826.21,-247.65"/>
</g>
<!-- Node10&#45;&gt;Node6 -->
<g id="edge16" class="edge">
<title>Node10&#45;&gt;Node6</title>
<path fill="none" stroke="midnightblue" d="M396.85,-148.01C408.14,-150.12 419.99,-152.28 431,-154 527.83,-169.15 639.43,-181.95 713.74,-189.98"/>
<polygon fill="midnightblue" stroke="midnightblue" points="713.66,-193.49 723.98,-191.08 714.41,-186.53 713.66,-193.49"/>
</g>
<!-- Node11&#45;&gt;Node6 -->
<g id="edge18" class="edge">
<title>Node11&#45;&gt;Node6</title>
<path fill="none" stroke="midnightblue" d="M802.83,-153.52C803.87,-161.59 804.03,-171.81 803.3,-180.53"/>
<polygon fill="midnightblue" stroke="midnightblue" points="799.83,-180.09 801.9,-190.48 806.76,-181.06 799.83,-180.09"/>
</g>
<!-- Node12 -->
<g id="node12" class="node">
<title>Node12</title>
<g id="a_node12"><a xlink:href="constraints_2basic_8h.html" target="_top" xlink:title="Functions and data structures for constraining secondary structure predictions and evaluation.">
<polygon fill="none" stroke="black" points="737.5,-56.5 737.5,-86.5 856.5,-86.5 856.5,-56.5 737.5,-56.5"/>
<text text-anchor="start" x="745.5" y="-74.5" font-family="Helvetica,sans-Serif" font-size="10.00">ViennaRNA/constraints</text>
<text text-anchor="middle" x="797" y="-63.5" font-family="Helvetica,sans-Serif" font-size="10.00">/basic.h</text>
</a>
</g>
</g>
<!-- Node11&#45;&gt;Node12 -->
<g id="edge19" class="edge">
<title>Node11&#45;&gt;Node12</title>
<path fill="none" stroke="midnightblue" d="M797,-123.4C797,-115.64 797,-105.81 797,-96.86"/>
<polygon fill="midnightblue" stroke="midnightblue" points="800.5,-96.58 797,-86.58 793.5,-96.58 800.5,-96.58"/>
</g>
<!-- Node12&#45;&gt;Node6 -->
<g id="edge20" class="edge">
<title>Node12&#45;&gt;Node6</title>
<path fill="none" stroke="midnightblue" d="M766.09,-86.66C751.72,-95.02 736.06,-107.11 728,-123 721.77,-135.29 721.44,-141.89 728,-154 735.75,-168.3 750.23,-178.78 763.94,-186.01"/>
<polygon fill="midnightblue" stroke="midnightblue" points="762.69,-189.29 773.21,-190.5 765.74,-182.99 762.69,-189.29"/>
</g>
<!-- Node13&#45;&gt;Node3 -->
<g id="edge22" class="edge">
<title>Node13&#45;&gt;Node3</title>
<path fill="none" stroke="midnightblue" d="M1205.52,-153.53C1145.03,-175.74 1021.94,-218.96 950.5,-243.11"/>
<polygon fill="midnightblue" stroke="midnightblue" points="949.13,-239.87 940.78,-246.38 951.37,-246.51 949.13,-239.87"/>
</g>
<!-- Node13&#45;&gt;Node6 -->
<g id="edge23" class="edge">
<title>Node13&#45;&gt;Node6</title>
<path fill="none" stroke="midnightblue" d="M1183.92,-153.51C1182.94,-153.68 1181.97,-153.84 1181,-154 1078.21,-170.93 958.58,-184.18 880.45,-191.79"/>
<polygon fill="midnightblue" stroke="midnightblue" points="879.8,-188.34 870.18,-192.79 880.47,-195.31 879.8,-188.34"/>
</g>
<!-- Node13&#45;&gt;Node12 -->
<g id="edge24" class="edge">
<title>Node13&#45;&gt;Node12</title>
<path fill="none" stroke="midnightblue" d="M1181.21,-124.66C1178.1,-124.08 1175.02,-123.52 1172,-123 1066.11,-104.77 942.46,-89.22 866.96,-80.37"/>
<polygon fill="midnightblue" stroke="midnightblue" points="866.97,-76.85 856.63,-79.16 866.16,-83.8 866.97,-76.85"/>
</g>
<!-- Node14&#45;&gt;Node6 -->
<g id="edge26" class="edge">
<title>Node14&#45;&gt;Node6</title>
<path fill="none" stroke="midnightblue" d="M951.87,-148.01C923.74,-158.34 872.54,-175.82 836.66,-187.38"/>
<polygon fill="midnightblue" stroke="midnightblue" points="835.43,-184.1 826.97,-190.48 837.56,-190.76 835.43,-184.1"/>
</g>
<!-- Node16&#45;&gt;Node3 -->
<g id="edge29" class="edge">
<title>Node16&#45;&gt;Node3</title>
<path fill="none" stroke="midnightblue" d="M262.81,-150.65C268.64,-151.8 274.44,-152.94 280,-154 473.55,-191.02 702.06,-228.35 818.89,-247.45"/>
<polygon fill="midnightblue" stroke="midnightblue" points="818.39,-250.91 828.82,-249.07 819.52,-244 818.39,-250.91"/>
</g>
<!-- Node16&#45;&gt;Node6 -->
<g id="edge30" class="edge">
<title>Node16&#45;&gt;Node6</title>
<path fill="none" stroke="midnightblue" d="M262.72,-151.16C268.57,-152.22 274.4,-153.19 280,-154 432.38,-176 611.26,-188.51 713.71,-194.5"/>
<polygon fill="midnightblue" stroke="midnightblue" points="713.81,-198.01 723.99,-195.1 714.21,-191.02 713.81,-198.01"/>
</g>
<!-- Node16&#45;&gt;Node17 -->
<g id="edge31" class="edge">
<title>Node16&#45;&gt;Node17</title>
<path fill="none" stroke="midnightblue" d="M178.3,-123.4C161.53,-112.5 138.43,-97.48 121.67,-86.58"/>
<polygon fill="midnightblue" stroke="midnightblue" points="123.38,-83.52 113.09,-81.01 119.56,-89.39 123.38,-83.52"/>
</g>
<!-- Node17&#45;&gt;Node2 -->
<g id="edge32" class="edge">
<title>Node17&#45;&gt;Node2</title>
<path fill="none" stroke="midnightblue" d="M92.84,-61.98C85.26,-52.96 73.13,-38.52 63.71,-27.31"/>
<polygon fill="midnightblue" stroke="midnightblue" points="66.26,-24.91 57.15,-19.51 60.9,-29.42 66.26,-24.91"/>
</g>
<!-- Node17&#45;&gt;Node3 -->
<g id="edge33" class="edge">
<title>Node17&#45;&gt;Node3</title>
<path fill="none" stroke="midnightblue" d="M105.31,-81.23C110.17,-98.14 114.81,-135.29 137,-154 239.37,-240.3 646.42,-256.78 818.57,-259.85"/>
<polygon fill="midnightblue" stroke="midnightblue" points="818.76,-263.35 828.82,-260.02 818.88,-256.35 818.76,-263.35"/>
</g>
<!-- Node19&#45;&gt;Node3 -->
<g id="edge46" class="edge">
<title>Node19&#45;&gt;Node3</title>
<path fill="none" stroke="midnightblue" d="M821.61,-313.4C834.93,-304.28 852.46,-292.29 867.16,-282.24"/>
<polygon fill="midnightblue" stroke="midnightblue" points="869.15,-285.11 875.43,-276.58 865.2,-279.33 869.15,-285.11"/>
</g>
<!-- Node19&#45;&gt;Node6 -->
<g id="edge47" class="edge">
<title>Node19&#45;&gt;Node6</title>
<path fill="none" stroke="midnightblue" d="M800.56,-313.48C799.84,-290.72 798.41,-245.7 797.6,-220.06"/>
<polygon fill="midnightblue" stroke="midnightblue" points="801.09,-219.67 797.28,-209.79 794.1,-219.89 801.09,-219.67"/>
</g>
<!-- Node19&#45;&gt;Node17 -->
<g id="edge48" class="edge">
<title>Node19&#45;&gt;Node17</title>
<path fill="none" stroke="midnightblue" d="M744.75,-323.12C635.93,-313.23 390.37,-284 198,-210 152.97,-192.68 130.01,-195.26 105,-154 93.48,-135.01 94.19,-108.73 96.47,-91.21"/>
<polygon fill="midnightblue" stroke="midnightblue" points="99.96,-91.54 98.09,-81.12 93.05,-90.44 99.96,-91.54"/>
</g>
</g>
</svg>
        <g id="navigator" transform="translate(0 0)" fill="#404254">
                <rect fill="#f2f5e9" fill-opacity="0.5" stroke="#606060" stroke-width=".5" x="0" y="0" width="60" height="60"/>
                <use id="zoomplus" xlink:href="#zoomPlus" x="17" y="9" onmousedown="handleZoom(evt,'in')"/>
                <use id="zoomminus" xlink:href="#zoomMin" x="42" y="9" onmousedown="handleZoom(evt,'out')"/>
                <use id="reset" xlink:href="#resetDef" x="30" y="36" onmousedown="handleReset()"/>
                <g id="arrowUp" xlink:href="#dirArrow" transform="translate(30 24)" onmousedown="handlePan(0,-1)">
                  <use xlink:href="#rim" fill="#404040">
                        <set attributeName="fill" to="#808080" begin="arrowUp.mouseover" end="arrowUp.mouseout"/>
                  </use>
                  <path fill="none" stroke="white" stroke-width="1.5" d="M0,-3.0v7 M-2.5,-0.5L0,-3.0L2.5,-0.5"/>
                </g>
                <g id="arrowRight" xlink:href="#dirArrow" transform="rotate(90) translate(36 -43)" onmousedown="handlePan(1,0)">
                  <use xlink:href="#rim" fill="#404040">
                        <set attributeName="fill" to="#808080" begin="arrowRight.mouseover" end="arrowRight.mouseout"/>
                  </use>
                  <path fill="none" stroke="white" stroke-width="1.5" d="M0,-3.0v7 M-2.5,-0.5L0,-3.0L2.5,-0.5"/>
                </g>
                <g id="arrowDown" xlink:href="#dirArrow" transform="rotate(180) translate(-30 -48)" onmousedown="handlePan(0,1)">
                  <use xlink:href="#rim" fill="#404040">
                        <set attributeName="fill" to="#808080" begin="arrowDown.mouseover" end="arrowDown.mouseout"/>
                  </use>
                  <path fill="none" stroke="white" stroke-width="1.5" d="M0,-3.0v7 M-2.5,-0.5L0,-3.0L2.5,-0.5"/>
                </g>
                <g id="arrowLeft" xlink:href="#dirArrow" transform="rotate(270) translate(-36 17)" onmousedown="handlePan(-1,0)">
                  <use xlink:href="#rim" fill="#404040">
                        <set attributeName="fill" to="#808080" begin="arrowLeft.mouseover" end="arrowLeft.mouseout"/>
                  </use>
                  <path fill="none" stroke="white" stroke-width="1.5" d="M0,-3.0v7 M-2.5,-0.5L0,-3.0L2.5,-0.5"/>
                </g>
        </g>
        <svg viewBox="0 0 15 15" width="100%" height="30px" preserveAspectRatio="xMaxYMin meet">
         <g id="arrow_out" transform="scale(0.3 0.3)">
          <a xlink:href="LPfold_8h__incl_org.svg" target="_base">
           <rect id="button" ry="5" rx="5" y="6" x="6" height="38" width="38"
                fill="#f2f5e9" fill-opacity="0.5" stroke="#606060" stroke-width="1.0"/>
           <path id="arrow"
             d="M 11.500037,31.436501 C 11.940474,20.09759 22.043105,11.32322 32.158766,21.979434 L 37.068811,17.246167 C 37.068811,17.246167 37.088388,32 37.088388,32 L 22.160133,31.978069 C 22.160133,31.978069 26.997745,27.140456 26.997745,27.140456 C 18.528582,18.264221 13.291696,25.230495 11.500037,31.436501 z"
             style="fill:#404040;"/>
          </a>
         </g>
        </svg>
</svg>
