<?xml version="1.0" encoding="UTF-8" standalone="no"?>
<!DOCTYPE svg PUBLIC "-//W3C//DTD SVG 1.1//EN"
 "http://www.w3.org/Graphics/SVG/1.1/DTD/svg11.dtd">
<!-- Generated by graphviz version 2.47.0 (0)
 -->
<!-- Title: ViennaRNA/MEA.h Pages: 1 -->
<!--zoomable 341 -->
<svg id="main" version="1.1" xmlns="http://www.w3.org/2000/svg" xmlns:xlink="http://www.w3.org/1999/xlink" xml:space="preserve" onload="init(evt)">
<style type="text/css"><![CDATA[
.edge:hover path { stroke: red; }
.edge:hover polygon { stroke: red; fill: red; }
]]></style>
<script type="text/javascript"><![CDATA[
var edges = document.getElementsByTagName('g');
if (edges && edges.length) {
  for (var i=0;i<edges.length;i++) {
    if (edges[i].id.substr(0,4)=='edge') {
      edges[i].setAttribute('class','edge');
    }
  }
}
]]></script>
        <defs>
                <circle id="rim" cx="0" cy="0" r="7"/>
                <circle id="rim2" cx="0" cy="0" r="3.5"/>
                <g id="zoomPlus">
                        <use xlink:href="#rim" fill="#404040">
                                <set attributeName="fill" to="#808080" begin="zoomplus.mouseover" end="zoomplus.mouseout"/>
                        </use>
                        <path d="M-4,0h8M0,-4v8" fill="none" stroke="white" stroke-width="1.5" pointer-events="none"/>
                </g>
                <g id="zoomMin">
                        <use xlink:href="#rim" fill="#404040">
                                <set attributeName="fill" to="#808080" begin="zoomminus.mouseover" end="zoomminus.mouseout"/>
                        </use>
                        <path d="M-4,0h8" fill="none" stroke="white" stroke-width="1.5" pointer-events="none"/>
                </g>
                <g id="dirArrow">
                        <path fill="none" stroke="white" stroke-width="1.5" d="M0,-3.0v7 M-2.5,-0.5L0,-3.0L2.5,-0.5"/>
                </g>
               <g id="resetDef">
                       <use xlink:href="#rim2" fill="#404040">
                               <set attributeName="fill" to="#808080" begin="reset.mouseover" end="reset.mouseout"/>
                       </use>
               </g>
        </defs>

<script type="text/javascript">
var viewWidth = 1508;
var viewHeight = 341;
var sectionId = 'dynsection-0';
</script>
<script xlink:href="svgpan.js"/>
<svg id="graph" class="graph">
<g id="viewport">
<title>ViennaRNA/MEA.h</title>
<!-- Node1 -->
<g id="node1" class="node">
<title>Node1</title>
<g id="a_node1"><a xlink:title="Computes a MEA (maximum expected accuracy) structure.">
<polygon fill="#bfbfbf" stroke="black" points="361.5,-313.5 361.5,-332.5 462.5,-332.5 462.5,-313.5 361.5,-313.5"/>
<text text-anchor="middle" x="412" y="-320.5" font-family="Helvetica,sans-Serif" font-size="10.00">ViennaRNA/MEA.h</text>
</a>
</g>
</g>
<!-- Node2 -->
<g id="node2" class="node">
<title>Node2</title>
<g id="a_node2"><a xlink:href="datastructures_2basic_8h.html" target="_top" xlink:title="Various data structures and pre&#45;processor macros.">
<polygon fill="none" stroke="black" points="645,-246.5 645,-276.5 779,-276.5 779,-246.5 645,-246.5"/>
<text text-anchor="start" x="653" y="-264.5" font-family="Helvetica,sans-Serif" font-size="10.00">ViennaRNA/datastructures</text>
<text text-anchor="middle" x="712" y="-253.5" font-family="Helvetica,sans-Serif" font-size="10.00">/basic.h</text>
</a>
</g>
</g>
<!-- Node1&#45;&gt;Node2 -->
<g id="edge1" class="edge">
<title>Node1&#45;&gt;Node2</title>
<path fill="none" stroke="midnightblue" d="M454.98,-313.48C501.75,-304.2 577.48,-289.18 634.65,-277.84"/>
<polygon fill="midnightblue" stroke="midnightblue" points="635.61,-281.22 644.74,-275.84 634.25,-274.35 635.61,-281.22"/>
</g>
<!-- Node7 -->
<g id="node7" class="node">
<title>Node7</title>
<g id="a_node7"><a xlink:href="params_2basic_8h.html" target="_top" xlink:title="Functions to deal with sets of energy parameters.">
<polygon fill="none" stroke="black" points="85,-129 85,-148 223,-148 223,-129 85,-129"/>
<text text-anchor="middle" x="154" y="-136" font-family="Helvetica,sans-Serif" font-size="10.00">ViennaRNA/params/basic.h</text>
</a>
</g>
</g>
<!-- Node1&#45;&gt;Node7 -->
<g id="edge43" class="edge">
<title>Node1&#45;&gt;Node7</title>
<path fill="none" stroke="midnightblue" d="M386.63,-313.41C344.13,-298.04 257.52,-262.45 200,-210 183.52,-194.97 170.35,-172.82 162.39,-157.37"/>
<polygon fill="midnightblue" stroke="midnightblue" points="165.49,-155.74 157.93,-148.32 159.21,-158.84 165.49,-155.74"/>
</g>
<!-- Node3 -->
<g id="node3" class="node">
<title>Node3</title>
<g id="a_node3"><a xlink:href="constants_8h.html" target="_top" xlink:title="Energy parameter constants.">
<polygon fill="none" stroke="black" points="0,-62 0,-81 158,-81 158,-62 0,-62"/>
<text text-anchor="middle" x="79" y="-69" font-family="Helvetica,sans-Serif" font-size="10.00">ViennaRNA/params/constants.h</text>
</a>
</g>
</g>
<!-- Node2&#45;&gt;Node3 -->
<g id="edge2" class="edge">
<title>Node2&#45;&gt;Node3</title>
<path fill="none" stroke="midnightblue" d="M644.9,-260.78C545.87,-259.65 355.54,-251.59 200,-210 141.58,-194.38 108.8,-204.8 76,-154 63.85,-135.19 67.86,-108.51 72.7,-90.87"/>
<polygon fill="midnightblue" stroke="midnightblue" points="76.08,-91.79 75.68,-81.2 69.39,-89.72 76.08,-91.79"/>
</g>
<!-- Node5 -->
<g id="node5" class="node">
<title>Node5</title>
<g id="a_node5"><a xlink:href="fold__compound_8h.html" target="_top" xlink:title="The Basic Fold Compound API.">
<polygon fill="none" stroke="black" points="639,-190.5 639,-209.5 785,-209.5 785,-190.5 639,-190.5"/>
<text text-anchor="middle" x="712" y="-197.5" font-family="Helvetica,sans-Serif" font-size="10.00">ViennaRNA/fold_compound.h</text>
</a>
</g>
</g>
<!-- Node2&#45;&gt;Node5 -->
<g id="edge4" class="edge">
<title>Node2&#45;&gt;Node5</title>
<path fill="none" stroke="midnightblue" d="M712,-246.4C712,-238.47 712,-228.46 712,-219.86"/>
<polygon fill="midnightblue" stroke="midnightblue" points="715.5,-219.66 712,-209.66 708.5,-219.66 715.5,-219.66"/>
</g>
<!-- Node6 -->
<g id="node6" class="node">
<title>Node6</title>
<g id="a_node6"><a xlink:href="model_8h.html" target="_top" xlink:title="The model details data structure and its corresponding modifiers.">
<polygon fill="none" stroke="black" points="198,-62 198,-81 304,-81 304,-62 198,-62"/>
<text text-anchor="middle" x="251" y="-69" font-family="Helvetica,sans-Serif" font-size="10.00">ViennaRNA/model.h</text>
</a>
</g>
</g>
<!-- Node2&#45;&gt;Node6 -->
<g id="edge34" class="edge">
<title>Node2&#45;&gt;Node6</title>
<path fill="none" stroke="midnightblue" d="M644.97,-252.84C535,-238.93 323.24,-206.05 271,-154 254.42,-137.48 250.77,-109.6 250.36,-91.12"/>
<polygon fill="midnightblue" stroke="midnightblue" points="253.86,-91.04 250.43,-81.02 246.86,-90.99 253.86,-91.04"/>
</g>
<!-- Node2&#45;&gt;Node7 -->
<g id="edge35" class="edge">
<title>Node2&#45;&gt;Node7</title>
<path fill="none" stroke="midnightblue" d="M644.95,-258.44C529.97,-253.99 300.89,-241.25 228,-210 200.14,-198.06 174.63,-173.42 161.65,-156.68"/>
<polygon fill="midnightblue" stroke="midnightblue" points="164.4,-154.5 155.8,-148.32 158.67,-158.52 164.4,-154.5"/>
</g>
<!-- Node9 -->
<g id="node9" class="node">
<title>Node9</title>
<g id="a_node9"><a xlink:href="dp__matrices_8h.html" target="_top" xlink:title="Functions to deal with standard dynamic programming (DP) matrices.">
<polygon fill="none" stroke="black" points="279.5,-129 279.5,-148 412.5,-148 412.5,-129 279.5,-129"/>
<text text-anchor="middle" x="346" y="-136" font-family="Helvetica,sans-Serif" font-size="10.00">ViennaRNA/dp_matrices.h</text>
</a>
</g>
</g>
<!-- Node2&#45;&gt;Node9 -->
<g id="edge36" class="edge">
<title>Node2&#45;&gt;Node9</title>
<path fill="none" stroke="midnightblue" d="M664.77,-246.38C589.04,-222.36 442.7,-173.94 377.97,-151.47"/>
<polygon fill="midnightblue" stroke="midnightblue" points="378.9,-148.09 368.31,-148.09 376.59,-154.69 378.9,-148.09"/>
</g>
<!-- Node10 -->
<g id="node10" class="node">
<title>Node10</title>
<g id="a_node10"><a xlink:href="hard_8h.html" target="_top" xlink:title="Functions and data structures for handling of secondary structure hard constraints.">
<polygon fill="none" stroke="black" points="469.5,-123.5 469.5,-153.5 588.5,-153.5 588.5,-123.5 469.5,-123.5"/>
<text text-anchor="start" x="477.5" y="-141.5" font-family="Helvetica,sans-Serif" font-size="10.00">ViennaRNA/constraints</text>
<text text-anchor="middle" x="529" y="-130.5" font-family="Helvetica,sans-Serif" font-size="10.00">/hard.h</text>
</a>
</g>
</g>
<!-- Node2&#45;&gt;Node10 -->
<g id="edge37" class="edge">
<title>Node2&#45;&gt;Node10</title>
<path fill="none" stroke="midnightblue" d="M688.45,-246.49C671.94,-236.54 649.43,-222.75 630,-210 604.93,-193.55 577.01,-173.96 556.9,-159.62"/>
<polygon fill="midnightblue" stroke="midnightblue" points="558.68,-156.59 548.51,-153.62 554.61,-162.28 558.68,-156.59"/>
</g>
<!-- Node12 -->
<g id="node12" class="node">
<title>Node12</title>
<g id="a_node12"><a xlink:href="soft_8h.html" target="_top" xlink:title="Functions and data structures for secondary structure soft constraints.">
<polygon fill="none" stroke="black" points="912.5,-123.5 912.5,-153.5 1031.5,-153.5 1031.5,-123.5 912.5,-123.5"/>
<text text-anchor="start" x="920.5" y="-141.5" font-family="Helvetica,sans-Serif" font-size="10.00">ViennaRNA/constraints</text>
<text text-anchor="middle" x="972" y="-130.5" font-family="Helvetica,sans-Serif" font-size="10.00">/soft.h</text>
</a>
</g>
</g>
<!-- Node2&#45;&gt;Node12 -->
<g id="edge38" class="edge">
<title>Node2&#45;&gt;Node12</title>
<path fill="none" stroke="midnightblue" d="M737.81,-246.38C782.27,-224.39 873.3,-181.95 927.92,-157.69"/>
<polygon fill="midnightblue" stroke="midnightblue" points="929.61,-160.77 937.35,-153.53 926.78,-154.37 929.61,-160.77"/>
</g>
<!-- Node13 -->
<g id="node13" class="node">
<title>Node13</title>
<g id="a_node13"><a xlink:href="grammar_8h.html" target="_top" xlink:title="Implementations for the RNA folding grammar.">
<polygon fill="none" stroke="black" points="1049.5,-129 1049.5,-148 1166.5,-148 1166.5,-129 1049.5,-129"/>
<text text-anchor="middle" x="1108" y="-136" font-family="Helvetica,sans-Serif" font-size="10.00">ViennaRNA/grammar.h</text>
</a>
</g>
</g>
<!-- Node2&#45;&gt;Node13 -->
<g id="edge39" class="edge">
<title>Node2&#45;&gt;Node13</title>
<path fill="none" stroke="midnightblue" d="M758.2,-246.38C837.31,-222.21 997.23,-173.35 1070.18,-151.06"/>
<polygon fill="midnightblue" stroke="midnightblue" points="1071.34,-154.36 1079.88,-148.09 1069.29,-147.67 1071.34,-154.36"/>
</g>
<!-- Node14 -->
<g id="node14" class="node">
<title>Node14</title>
<g id="a_node14"><a xlink:href="structured__domains_8h.html" target="_top" xlink:title="This module provides interfaces that deal with additional structured domains in the folding grammar.">
<polygon fill="none" stroke="black" points="1184.5,-123.5 1184.5,-153.5 1299.5,-153.5 1299.5,-123.5 1184.5,-123.5"/>
<text text-anchor="start" x="1192.5" y="-141.5" font-family="Helvetica,sans-Serif" font-size="10.00">ViennaRNA/structured</text>
<text text-anchor="middle" x="1242" y="-130.5" font-family="Helvetica,sans-Serif" font-size="10.00">_domains.h</text>
</a>
</g>
</g>
<!-- Node2&#45;&gt;Node14 -->
<g id="edge40" class="edge">
<title>Node2&#45;&gt;Node14</title>
<path fill="none" stroke="midnightblue" d="M773.58,-246.44C873.49,-223.63 1070.2,-178.72 1174.07,-155.01"/>
<polygon fill="midnightblue" stroke="midnightblue" points="1175.16,-158.35 1184.13,-152.71 1173.6,-151.53 1175.16,-158.35"/>
</g>
<!-- Node15 -->
<g id="node15" class="node">
<title>Node15</title>
<g id="a_node15"><a xlink:href="unstructured__domains_8h.html" target="_top" xlink:title="Functions to modify unstructured domains, e.g. to incorporate ligands binding to unpaired stretches.">
<polygon fill="none" stroke="black" points="1374.5,-123.5 1374.5,-153.5 1499.5,-153.5 1499.5,-123.5 1374.5,-123.5"/>
<text text-anchor="start" x="1382.5" y="-141.5" font-family="Helvetica,sans-Serif" font-size="10.00">ViennaRNA/unstructured</text>
<text text-anchor="middle" x="1437" y="-130.5" font-family="Helvetica,sans-Serif" font-size="10.00">_domains.h</text>
</a>
</g>
</g>
<!-- Node2&#45;&gt;Node15 -->
<g id="edge41" class="edge">
<title>Node2&#45;&gt;Node15</title>
<path fill="none" stroke="midnightblue" d="M779.06,-260.74C921.52,-260.28 1249.24,-254.18 1351,-210 1375.43,-199.39 1397.19,-177.73 1412.99,-161.2"/>
<polygon fill="midnightblue" stroke="midnightblue" points="1415.9,-163.23 1420.26,-153.57 1410.83,-158.4 1415.9,-163.23"/>
</g>
<!-- Node16 -->
<g id="node16" class="node">
<title>Node16</title>
<g id="a_node16"><a xlink:href="utils_2structures_8h.html" target="_top" xlink:title="Various utility&#45; and helper&#45;functions for secondary structure parsing, converting,...">
<polygon fill="none" stroke="black" points="1265,-62 1265,-81 1409,-81 1409,-62 1265,-62"/>
<text text-anchor="middle" x="1337" y="-69" font-family="Helvetica,sans-Serif" font-size="10.00">ViennaRNA/utils/structures.h</text>
</a>
</g>
</g>
<!-- Node2&#45;&gt;Node16 -->
<g id="edge42" class="edge">
<title>Node2&#45;&gt;Node16</title>
<path fill="none" stroke="midnightblue" d="M779.23,-256.61C916.46,-247.61 1222.03,-220.77 1300,-154 1318.43,-138.22 1324.74,-109.73 1329.19,-90.96"/>
<polygon fill="midnightblue" stroke="midnightblue" points="1332.6,-91.76 1331.66,-81.2 1325.81,-90.03 1332.6,-91.76"/>
</g>
<!-- Node4 -->
<g id="node4" class="node">
<title>Node4</title>
<g id="a_node4"><a xlink:title=" ">
<polygon fill="none" stroke="#bfbfbf" points="55,-0.5 55,-19.5 103,-19.5 103,-0.5 55,-0.5"/>
<text text-anchor="middle" x="79" y="-7.5" font-family="Helvetica,sans-Serif" font-size="10.00">limits.h</text>
</a>
</g>
</g>
<!-- Node3&#45;&gt;Node4 -->
<g id="edge3" class="edge">
<title>Node3&#45;&gt;Node4</title>
<path fill="none" stroke="midnightblue" d="M79,-61.98C79,-53.58 79,-40.48 79,-29.66"/>
<polygon fill="midnightblue" stroke="midnightblue" points="82.5,-29.51 79,-19.51 75.5,-29.51 82.5,-29.51"/>
</g>
<!-- Node5&#45;&gt;Node6 -->
<g id="edge5" class="edge">
<title>Node5&#45;&gt;Node6</title>
<path fill="none" stroke="midnightblue" d="M638.89,-195.38C587.25,-190.59 517.48,-179.53 461,-154 440.82,-144.88 441.65,-133.21 422,-123 385.75,-104.16 341.43,-91.32 307,-83.31"/>
<polygon fill="midnightblue" stroke="midnightblue" points="307.63,-79.86 297.11,-81.07 306.09,-86.69 307.63,-79.86"/>
</g>
<!-- Node5&#45;&gt;Node7 -->
<g id="edge6" class="edge">
<title>Node5&#45;&gt;Node7</title>
<path fill="none" stroke="midnightblue" d="M638.87,-192.63C549.63,-184.29 394.49,-168.97 262,-154 249.03,-152.54 235.27,-150.9 222.05,-149.27"/>
<polygon fill="midnightblue" stroke="midnightblue" points="222.42,-145.79 212.07,-148.03 221.56,-152.74 222.42,-145.79"/>
</g>
<!-- Node8 -->
<g id="node8" class="node">
<title>Node8</title>
<g id="a_node8"><a xlink:href="sequence_8h.html" target="_top" xlink:title="Functions and data structures related to sequence representations ,.">
<polygon fill="none" stroke="black" points="607,-129 607,-148 729,-148 729,-129 607,-129"/>
<text text-anchor="middle" x="668" y="-136" font-family="Helvetica,sans-Serif" font-size="10.00">ViennaRNA/sequence.h</text>
</a>
</g>
</g>
<!-- Node5&#45;&gt;Node8 -->
<g id="edge11" class="edge">
<title>Node5&#45;&gt;Node8</title>
<path fill="none" stroke="midnightblue" d="M700.8,-190.48C692.42,-181.73 681.74,-167.87 674.6,-156.81"/>
<polygon fill="midnightblue" stroke="midnightblue" points="677.5,-154.83 669.4,-148.01 671.48,-158.4 677.5,-154.83"/>
</g>
<!-- Node5&#45;&gt;Node9 -->
<g id="edge13" class="edge">
<title>Node5&#45;&gt;Node9</title>
<path fill="none" stroke="midnightblue" d="M648.92,-190.46C589.18,-181.65 497.28,-167.35 418,-154 410.17,-152.68 401.93,-151.25 393.91,-149.82"/>
<polygon fill="midnightblue" stroke="midnightblue" points="394.39,-146.35 383.92,-148.02 393.14,-153.24 394.39,-146.35"/>
</g>
<!-- Node5&#45;&gt;Node10 -->
<g id="edge16" class="edge">
<title>Node5&#45;&gt;Node10</title>
<path fill="none" stroke="midnightblue" d="M680.88,-190.48C652.11,-181.74 609.13,-167.91 576.18,-156.86"/>
<polygon fill="midnightblue" stroke="midnightblue" points="576.89,-153.4 566.3,-153.52 574.66,-160.04 576.89,-153.4"/>
</g>
<!-- Node5&#45;&gt;Node12 -->
<g id="edge20" class="edge">
<title>Node5&#45;&gt;Node12</title>
<path fill="none" stroke="midnightblue" d="M744.35,-190.48C783.75,-180.99 851.15,-165.48 902.46,-154.06"/>
<polygon fill="midnightblue" stroke="midnightblue" points="903.49,-157.42 912.5,-151.84 901.98,-150.59 903.49,-157.42"/>
</g>
<!-- Node5&#45;&gt;Node13 -->
<g id="edge24" class="edge">
<title>Node5&#45;&gt;Node13</title>
<path fill="none" stroke="midnightblue" d="M779.34,-190.49C844.26,-182.44 944.99,-169.34 1032,-154 1038.54,-152.85 1045.4,-151.51 1052.24,-150.12"/>
<polygon fill="midnightblue" stroke="midnightblue" points="1053.11,-153.51 1062.2,-148.07 1051.7,-146.66 1053.11,-153.51"/>
</g>
<!-- Node5&#45;&gt;Node14 -->
<g id="edge26" class="edge">
<title>Node5&#45;&gt;Node14</title>
<path fill="none" stroke="midnightblue" d="M785.07,-194.62C874.63,-188.66 1031.14,-176.26 1174.21,-154.17"/>
<polygon fill="midnightblue" stroke="midnightblue" points="1175.15,-157.56 1184.48,-152.56 1174.06,-150.65 1175.15,-157.56"/>
</g>
<!-- Node5&#45;&gt;Node15 -->
<g id="edge27" class="edge">
<title>Node5&#45;&gt;Node15</title>
<path fill="none" stroke="midnightblue" d="M785.34,-193.98C896.69,-186.51 1114.77,-171.47 1300,-154 1320.76,-152.04 1343.38,-149.59 1364.18,-147.26"/>
<polygon fill="midnightblue" stroke="midnightblue" points="1364.69,-150.72 1374.23,-146.13 1363.9,-143.77 1364.69,-150.72"/>
</g>
<!-- Node18 -->
<g id="node18" class="node">
<title>Node18</title>
<g id="a_node18"><a xlink:href="zscore_8h_source.html" target="_top" xlink:title=" ">
<polygon fill="none" stroke="black" points="785.5,-129 785.5,-148 894.5,-148 894.5,-129 785.5,-129"/>
<text text-anchor="middle" x="840" y="-136" font-family="Helvetica,sans-Serif" font-size="10.00">ViennaRNA/zscore.h</text>
</a>
</g>
</g>
<!-- Node5&#45;&gt;Node18 -->
<g id="edge33" class="edge">
<title>Node5&#45;&gt;Node18</title>
<path fill="none" stroke="midnightblue" d="M730.34,-190.48C751.82,-180.49 787.62,-163.85 812.45,-152.31"/>
<polygon fill="midnightblue" stroke="midnightblue" points="814.1,-155.4 821.69,-148.01 811.15,-149.05 814.1,-155.4"/>
</g>
<!-- Node7&#45;&gt;Node2 -->
<g id="edge8" class="edge">
<title>Node7&#45;&gt;Node2</title>
<path fill="none" stroke="midnightblue" d="M166.18,-148.07C182.94,-163.53 212.81,-195.77 246,-210 314.53,-239.38 521.16,-252.4 634.94,-257.55"/>
<polygon fill="midnightblue" stroke="midnightblue" points="634.83,-261.05 644.98,-258 635.14,-254.06 634.83,-261.05"/>
</g>
<!-- Node7&#45;&gt;Node3 -->
<g id="edge7" class="edge">
<title>Node7&#45;&gt;Node3</title>
<path fill="none" stroke="midnightblue" d="M143.89,-128.73C131.85,-118.31 111.55,-100.71 96.85,-87.97"/>
<polygon fill="midnightblue" stroke="midnightblue" points="98.8,-85.03 88.95,-81.13 94.22,-90.32 98.8,-85.03"/>
</g>
<!-- Node7&#45;&gt;Node5 -->
<g id="edge9" class="edge">
<title>Node7&#45;&gt;Node5</title>
<path fill="none" stroke="midnightblue" d="M223.3,-147.28C241.8,-149.53 261.7,-151.93 280,-154 401.38,-167.71 541.76,-181.72 628.79,-190.38"/>
<polygon fill="midnightblue" stroke="midnightblue" points="628.57,-193.88 638.87,-191.39 629.26,-186.91 628.57,-193.88"/>
</g>
<!-- Node7&#45;&gt;Node6 -->
<g id="edge10" class="edge">
<title>Node7&#45;&gt;Node6</title>
<path fill="none" stroke="midnightblue" d="M167.08,-128.73C183.15,-117.96 210.63,-99.55 229.75,-86.74"/>
<polygon fill="midnightblue" stroke="midnightblue" points="231.77,-89.6 238.13,-81.13 227.87,-83.79 231.77,-89.6"/>
</g>
<!-- Node8&#45;&gt;Node5 -->
<g id="edge12" class="edge">
<title>Node8&#45;&gt;Node5</title>
<path fill="none" stroke="midnightblue" d="M679.19,-148.01C687.56,-156.75 698.24,-170.61 705.38,-181.67"/>
<polygon fill="midnightblue" stroke="midnightblue" points="702.49,-183.65 710.6,-190.48 708.51,-180.09 702.49,-183.65"/>
</g>
<!-- Node9&#45;&gt;Node2 -->
<g id="edge14" class="edge">
<title>Node9&#45;&gt;Node2</title>
<path fill="none" stroke="midnightblue" d="M375.67,-148.09C438.94,-167.81 587.02,-216.63 663.91,-242.98"/>
<polygon fill="midnightblue" stroke="midnightblue" points="663.23,-246.44 673.82,-246.38 665.5,-239.82 663.23,-246.44"/>
</g>
<!-- Node9&#45;&gt;Node5 -->
<g id="edge15" class="edge">
<title>Node9&#45;&gt;Node5</title>
<path fill="none" stroke="midnightblue" d="M401.39,-148.02C412.9,-150.03 424.87,-152.13 436,-154 510.64,-166.57 596.45,-179.98 652.4,-188.86"/>
<polygon fill="midnightblue" stroke="midnightblue" points="652.06,-192.35 662.49,-190.46 653.16,-185.43 652.06,-192.35"/>
</g>
<!-- Node10&#45;&gt;Node5 -->
<g id="edge17" class="edge">
<title>Node10&#45;&gt;Node5</title>
<path fill="none" stroke="midnightblue" d="M577.96,-153.52C610.69,-163.74 652.68,-177.42 680.94,-187.1"/>
<polygon fill="midnightblue" stroke="midnightblue" points="680.09,-190.51 690.68,-190.48 682.38,-183.9 680.09,-190.51"/>
</g>
<!-- Node11 -->
<g id="node11" class="node">
<title>Node11</title>
<g id="a_node11"><a xlink:href="constraints_2basic_8h.html" target="_top" xlink:title="Functions and data structures for constraining secondary structure predictions and evaluation.">
<polygon fill="none" stroke="black" points="697.5,-56.5 697.5,-86.5 816.5,-86.5 816.5,-56.5 697.5,-56.5"/>
<text text-anchor="start" x="705.5" y="-74.5" font-family="Helvetica,sans-Serif" font-size="10.00">ViennaRNA/constraints</text>
<text text-anchor="middle" x="757" y="-63.5" font-family="Helvetica,sans-Serif" font-size="10.00">/basic.h</text>
</a>
</g>
</g>
<!-- Node10&#45;&gt;Node11 -->
<g id="edge18" class="edge">
<title>Node10&#45;&gt;Node11</title>
<path fill="none" stroke="midnightblue" d="M578.19,-123.48C613.28,-113.47 660.64,-99.97 697.8,-89.38"/>
<polygon fill="midnightblue" stroke="midnightblue" points="698.85,-92.72 707.5,-86.61 696.93,-85.99 698.85,-92.72"/>
</g>
<!-- Node11&#45;&gt;Node5 -->
<g id="edge19" class="edge">
<title>Node11&#45;&gt;Node5</title>
<path fill="none" stroke="midnightblue" d="M754.99,-86.72C752.35,-103.3 746.97,-131.3 738,-154 734.19,-163.65 728.55,-173.71 723.5,-181.87"/>
<polygon fill="midnightblue" stroke="midnightblue" points="720.46,-180.12 717.99,-190.43 726.35,-183.91 720.46,-180.12"/>
</g>
<!-- Node12&#45;&gt;Node2 -->
<g id="edge21" class="edge">
<title>Node12&#45;&gt;Node2</title>
<path fill="none" stroke="midnightblue" d="M946.37,-153.53C902.04,-175.47 811.03,-217.9 756.3,-242.21"/>
<polygon fill="midnightblue" stroke="midnightblue" points="754.59,-239.14 746.86,-246.38 757.42,-245.54 754.59,-239.14"/>
</g>
<!-- Node12&#45;&gt;Node5 -->
<g id="edge22" class="edge">
<title>Node12&#45;&gt;Node5</title>
<path fill="none" stroke="midnightblue" d="M916.55,-153.52C871.44,-164.16 808.32,-178.57 764.12,-188.29"/>
<polygon fill="midnightblue" stroke="midnightblue" points="763.17,-184.92 754.15,-190.48 764.67,-191.75 763.17,-184.92"/>
</g>
<!-- Node12&#45;&gt;Node11 -->
<g id="edge23" class="edge">
<title>Node12&#45;&gt;Node11</title>
<path fill="none" stroke="midnightblue" d="M925.61,-123.48C892.66,-113.51 848.25,-100.09 813.27,-89.51"/>
<polygon fill="midnightblue" stroke="midnightblue" points="814.26,-86.15 803.67,-86.61 812.23,-92.86 814.26,-86.15"/>
</g>
<!-- Node13&#45;&gt;Node5 -->
<g id="edge25" class="edge">
<title>Node13&#45;&gt;Node5</title>
<path fill="none" stroke="midnightblue" d="M1079.58,-148.07C1070.19,-150.16 1059.73,-152.28 1050,-154 963.87,-169.19 864.28,-182.18 795.56,-190.24"/>
<polygon fill="midnightblue" stroke="midnightblue" points="794.75,-186.81 785.22,-191.44 795.56,-193.77 794.75,-186.81"/>
</g>
<!-- Node15&#45;&gt;Node2 -->
<g id="edge28" class="edge">
<title>Node15&#45;&gt;Node2</title>
<path fill="none" stroke="midnightblue" d="M1432.89,-153.57C1422.24,-170.35 1397.43,-197.66 1369,-210 1267.31,-254.15 939.99,-260.27 789.23,-260.74"/>
<polygon fill="midnightblue" stroke="midnightblue" points="789.11,-257.24 779.12,-260.76 789.13,-264.24 789.11,-257.24"/>
</g>
<!-- Node15&#45;&gt;Node5 -->
<g id="edge29" class="edge">
<title>Node15&#45;&gt;Node5</title>
<path fill="none" stroke="midnightblue" d="M1374.32,-148.07C1356.19,-150.15 1336.37,-152.27 1318,-154 1131.92,-171.55 912.69,-186.65 795.58,-194.08"/>
<polygon fill="midnightblue" stroke="midnightblue" points="795.01,-190.61 785.26,-194.73 795.46,-197.59 795.01,-190.61"/>
</g>
<!-- Node15&#45;&gt;Node16 -->
<g id="edge30" class="edge">
<title>Node15&#45;&gt;Node16</title>
<path fill="none" stroke="midnightblue" d="M1415.3,-123.4C1398.53,-112.5 1375.43,-97.48 1358.67,-86.58"/>
<polygon fill="midnightblue" stroke="midnightblue" points="1360.38,-83.52 1350.09,-81.01 1356.56,-89.39 1360.38,-83.52"/>
</g>
<!-- Node16&#45;&gt;Node2 -->
<g id="edge32" class="edge">
<title>Node16&#45;&gt;Node2</title>
<path fill="none" stroke="midnightblue" d="M1341.83,-81.2C1344.76,-98.05 1340.04,-135.12 1318,-154 1240.06,-220.75 934.62,-247.6 789.4,-256.61"/>
<polygon fill="midnightblue" stroke="midnightblue" points="788.99,-253.13 779.22,-257.23 789.42,-260.11 788.99,-253.13"/>
</g>
<!-- Node17 -->
<g id="node17" class="node">
<title>Node17</title>
<g id="a_node17"><a xlink:title=" ">
<polygon fill="none" stroke="#bfbfbf" points="1314,-0.5 1314,-19.5 1360,-19.5 1360,-0.5 1314,-0.5"/>
<text text-anchor="middle" x="1337" y="-7.5" font-family="Helvetica,sans-Serif" font-size="10.00">stdio.h</text>
</a>
</g>
</g>
<!-- Node16&#45;&gt;Node17 -->
<g id="edge31" class="edge">
<title>Node16&#45;&gt;Node17</title>
<path fill="none" stroke="midnightblue" d="M1337,-61.98C1337,-53.58 1337,-40.48 1337,-29.66"/>
<polygon fill="midnightblue" stroke="midnightblue" points="1340.5,-29.51 1337,-19.51 1333.5,-29.51 1340.5,-29.51"/>
</g>
</g>
</svg>
        <g id="navigator" transform="translate(0 0)" fill="#404254">
                <rect fill="#f2f5e9" fill-opacity="0.5" stroke="#606060" stroke-width=".5" x="0" y="0" width="60" height="60"/>
                <use id="zoomplus" xlink:href="#zoomPlus" x="17" y="9" onmousedown="handleZoom(evt,'in')"/>
                <use id="zoomminus" xlink:href="#zoomMin" x="42" y="9" onmousedown="handleZoom(evt,'out')"/>
                <use id="reset" xlink:href="#resetDef" x="30" y="36" onmousedown="handleReset()"/>
                <g id="arrowUp" xlink:href="#dirArrow" transform="translate(30 24)" onmousedown="handlePan(0,-1)">
                  <use xlink:href="#rim" fill="#404040">
                        <set attributeName="fill" to="#808080" begin="arrowUp.mouseover" end="arrowUp.mouseout"/>
                  </use>
                  <path fill="none" stroke="white" stroke-width="1.5" d="M0,-3.0v7 M-2.5,-0.5L0,-3.0L2.5,-0.5"/>
                </g>
                <g id="arrowRight" xlink:href="#dirArrow" transform="rotate(90) translate(36 -43)" onmousedown="handlePan(1,0)">
                  <use xlink:href="#rim" fill="#404040">
                        <set attributeName="fill" to="#808080" begin="arrowRight.mouseover" end="arrowRight.mouseout"/>
                  </use>
                  <path fill="none" stroke="white" stroke-width="1.5" d="M0,-3.0v7 M-2.5,-0.5L0,-3.0L2.5,-0.5"/>
                </g>
                <g id="arrowDown" xlink:href="#dirArrow" transform="rotate(180) translate(-30 -48)" onmousedown="handlePan(0,1)">
                  <use xlink:href="#rim" fill="#404040">
                        <set attributeName="fill" to="#808080" begin="arrowDown.mouseover" end="arrowDown.mouseout"/>
                  </use>
                  <path fill="none" stroke="white" stroke-width="1.5" d="M0,-3.0v7 M-2.5,-0.5L0,-3.0L2.5,-0.5"/>
                </g>
                <g id="arrowLeft" xlink:href="#dirArrow" transform="rotate(270) translate(-36 17)" onmousedown="handlePan(-1,0)">
                  <use xlink:href="#rim" fill="#404040">
                        <set attributeName="fill" to="#808080" begin="arrowLeft.mouseover" end="arrowLeft.mouseout"/>
                  </use>
                  <path fill="none" stroke="white" stroke-width="1.5" d="M0,-3.0v7 M-2.5,-0.5L0,-3.0L2.5,-0.5"/>
                </g>
        </g>
        <svg viewBox="0 0 15 15" width="100%" height="30px" preserveAspectRatio="xMaxYMin meet">
         <g id="arrow_out" transform="scale(0.3 0.3)">
          <a xlink:href="MEA_8h__incl_org.svg" target="_base">
           <rect id="button" ry="5" rx="5" y="6" x="6" height="38" width="38"
                fill="#f2f5e9" fill-opacity="0.5" stroke="#606060" stroke-width="1.0"/>
           <path id="arrow"
             d="M 11.500037,31.436501 C 11.940474,20.09759 22.043105,11.32322 32.158766,21.979434 L 37.068811,17.246167 C 37.068811,17.246167 37.088388,32 37.088388,32 L 22.160133,31.978069 C 22.160133,31.978069 26.997745,27.140456 26.997745,27.140456 C 18.528582,18.264221 13.291696,25.230495 11.500037,31.436501 z"
             style="fill:#404040;"/>
          </a>
         </g>
        </svg>
</svg>
