<?xml version="1.0" encoding="UTF-8" standalone="no"?>
<!DOCTYPE svg PUBLIC "-//W3C//DTD SVG 1.1//EN"
 "http://www.w3.org/Graphics/SVG/1.1/DTD/svg11.dtd">
<!-- Generated by graphviz version 2.47.0 (0)
 -->
<!-- Title: ViennaRNA/mfe.h Pages: 1 -->
<!--zoomable 341 -->
<svg id="main" version="1.1" xmlns="http://www.w3.org/2000/svg" xmlns:xlink="http://www.w3.org/1999/xlink" xml:space="preserve" onload="init(evt)">
<style type="text/css"><![CDATA[
.edge:hover path { stroke: red; }
.edge:hover polygon { stroke: red; fill: red; }
]]></style>
<script type="text/javascript"><![CDATA[
var edges = document.getElementsByTagName('g');
if (edges && edges.length) {
  for (var i=0;i<edges.length;i++) {
    if (edges[i].id.substr(0,4)=='edge') {
      edges[i].setAttribute('class','edge');
    }
  }
}
]]></script>
        <defs>
                <circle id="rim" cx="0" cy="0" r="7"/>
                <circle id="rim2" cx="0" cy="0" r="3.5"/>
                <g id="zoomPlus">
                        <use xlink:href="#rim" fill="#404040">
                                <set attributeName="fill" to="#808080" begin="zoomplus.mouseover" end="zoomplus.mouseout"/>
                        </use>
                        <path d="M-4,0h8M0,-4v8" fill="none" stroke="white" stroke-width="1.5" pointer-events="none"/>
                </g>
                <g id="zoomMin">
                        <use xlink:href="#rim" fill="#404040">
                                <set attributeName="fill" to="#808080" begin="zoomminus.mouseover" end="zoomminus.mouseout"/>
                        </use>
                        <path d="M-4,0h8" fill="none" stroke="white" stroke-width="1.5" pointer-events="none"/>
                </g>
                <g id="dirArrow">
                        <path fill="none" stroke="white" stroke-width="1.5" d="M0,-3.0v7 M-2.5,-0.5L0,-3.0L2.5,-0.5"/>
                </g>
               <g id="resetDef">
                       <use xlink:href="#rim2" fill="#404040">
                               <set attributeName="fill" to="#808080" begin="reset.mouseover" end="reset.mouseout"/>
                       </use>
               </g>
        </defs>

<script type="text/javascript">
var viewWidth = 1530;
var viewHeight = 341;
var sectionId = 'dynsection-0';
</script>
<script xlink:href="svgpan.js"/>
<svg id="graph" class="graph">
<g id="viewport">
<title>ViennaRNA/mfe.h</title>
<!-- Node1 -->
<g id="node1" class="node">
<title>Node1</title>
<g id="a_node1"><a xlink:title="Compute Minimum Free energy (MFE) and backtrace corresponding secondary structures from RNA sequence ...">
<polygon fill="#bfbfbf" stroke="black" points="991.5,-313.5 991.5,-332.5 1087.5,-332.5 1087.5,-313.5 991.5,-313.5"/>
<text text-anchor="middle" x="1039.5" y="-320.5" font-family="Helvetica,sans-Serif" font-size="10.00">ViennaRNA/mfe.h</text>
</a>
</g>
</g>
<!-- Node2 -->
<g id="node2" class="node">
<title>Node2</title>
<g id="a_node2"><a xlink:title=" ">
<polygon fill="none" stroke="#bfbfbf" points="1448.5,-0.5 1448.5,-19.5 1494.5,-19.5 1494.5,-0.5 1448.5,-0.5"/>
<text text-anchor="middle" x="1471.5" y="-7.5" font-family="Helvetica,sans-Serif" font-size="10.00">stdio.h</text>
</a>
</g>
</g>
<!-- Node1&#45;&gt;Node2 -->
<g id="edge1" class="edge">
<title>Node1&#45;&gt;Node2</title>
<path fill="none" stroke="midnightblue" d="M1087.92,-320.1C1210.15,-314 1521.5,-289.76 1521.5,-201 1521.5,-201 1521.5,-201 1521.5,-137.5 1521.5,-100.31 1517.53,-90.02 1502.5,-56 1498.05,-45.93 1491.27,-35.75 1485.18,-27.62"/>
<polygon fill="midnightblue" stroke="midnightblue" points="1487.91,-25.43 1478.99,-19.71 1482.39,-29.74 1487.91,-25.43"/>
</g>
<!-- Node3 -->
<g id="node3" class="node">
<title>Node3</title>
<g id="a_node3"><a xlink:href="datastructures_2basic_8h.html" target="_top" xlink:title="Various data structures and pre&#45;processor macros.">
<polygon fill="none" stroke="black" points="972.5,-246.5 972.5,-276.5 1106.5,-276.5 1106.5,-246.5 972.5,-246.5"/>
<text text-anchor="start" x="980.5" y="-264.5" font-family="Helvetica,sans-Serif" font-size="10.00">ViennaRNA/datastructures</text>
<text text-anchor="middle" x="1039.5" y="-253.5" font-family="Helvetica,sans-Serif" font-size="10.00">/basic.h</text>
</a>
</g>
</g>
<!-- Node1&#45;&gt;Node3 -->
<g id="edge2" class="edge">
<title>Node1&#45;&gt;Node3</title>
<path fill="none" stroke="midnightblue" d="M1039.5,-313.48C1039.5,-306.47 1039.5,-296.19 1039.5,-286.7"/>
<polygon fill="midnightblue" stroke="midnightblue" points="1043,-286.52 1039.5,-276.52 1036,-286.52 1043,-286.52"/>
</g>
<!-- Node6 -->
<g id="node6" class="node">
<title>Node6</title>
<g id="a_node6"><a xlink:href="fold__compound_8h.html" target="_top" xlink:title="The Basic Fold Compound API.">
<polygon fill="none" stroke="black" points="707.5,-190.5 707.5,-209.5 853.5,-209.5 853.5,-190.5 707.5,-190.5"/>
<text text-anchor="middle" x="780.5" y="-197.5" font-family="Helvetica,sans-Serif" font-size="10.00">ViennaRNA/fold_compound.h</text>
</a>
</g>
</g>
<!-- Node1&#45;&gt;Node6 -->
<g id="edge44" class="edge">
<title>Node1&#45;&gt;Node6</title>
<path fill="none" stroke="midnightblue" d="M1021.29,-313.49C976.63,-292.63 861.45,-238.82 808.23,-213.95"/>
<polygon fill="midnightblue" stroke="midnightblue" points="809.58,-210.72 799.04,-209.66 806.62,-217.06 809.58,-210.72"/>
</g>
<!-- Node4 -->
<g id="node4" class="node">
<title>Node4</title>
<g id="a_node4"><a xlink:href="constants_8h.html" target="_top" xlink:title="Energy parameter constants.">
<polygon fill="none" stroke="black" points="1162.5,-62 1162.5,-81 1320.5,-81 1320.5,-62 1162.5,-62"/>
<text text-anchor="middle" x="1241.5" y="-69" font-family="Helvetica,sans-Serif" font-size="10.00">ViennaRNA/params/constants.h</text>
</a>
</g>
</g>
<!-- Node3&#45;&gt;Node4 -->
<g id="edge3" class="edge">
<title>Node3&#45;&gt;Node4</title>
<path fill="none" stroke="midnightblue" d="M1091.07,-246.45C1114.25,-238.39 1140.96,-226.52 1161.5,-210 1201.38,-177.92 1225.44,-120.23 1235.69,-90.82"/>
<polygon fill="midnightblue" stroke="midnightblue" points="1239.11,-91.64 1238.95,-81.04 1232.47,-89.43 1239.11,-91.64"/>
</g>
<!-- Node3&#45;&gt;Node6 -->
<g id="edge5" class="edge">
<title>Node3&#45;&gt;Node6</title>
<path fill="none" stroke="midnightblue" d="M978.45,-246.47C932.2,-235.85 869.62,-221.47 827.3,-211.75"/>
<polygon fill="midnightblue" stroke="midnightblue" points="828.06,-208.33 817.53,-209.51 826.49,-215.16 828.06,-208.33"/>
</g>
<!-- Node7 -->
<g id="node7" class="node">
<title>Node7</title>
<g id="a_node7"><a xlink:href="model_8h.html" target="_top" xlink:title="The model details data structure and its corresponding modifiers.">
<polygon fill="none" stroke="black" points="1038.5,-62 1038.5,-81 1144.5,-81 1144.5,-62 1038.5,-62"/>
<text text-anchor="middle" x="1091.5" y="-69" font-family="Helvetica,sans-Serif" font-size="10.00">ViennaRNA/model.h</text>
</a>
</g>
</g>
<!-- Node3&#45;&gt;Node7 -->
<g id="edge35" class="edge">
<title>Node3&#45;&gt;Node7</title>
<path fill="none" stroke="midnightblue" d="M1074.22,-246.38C1109.33,-229.99 1161.57,-199.28 1184.5,-154 1190.72,-141.71 1191.54,-134.84 1184.5,-123 1173.49,-104.49 1153.07,-92.35 1134.16,-84.62"/>
<polygon fill="midnightblue" stroke="midnightblue" points="1135.35,-81.33 1124.76,-81.07 1132.88,-87.88 1135.35,-81.33"/>
</g>
<!-- Node8 -->
<g id="node8" class="node">
<title>Node8</title>
<g id="a_node8"><a xlink:href="params_2basic_8h.html" target="_top" xlink:title="Functions to deal with sets of energy parameters.">
<polygon fill="none" stroke="black" points="1037.5,-129 1037.5,-148 1175.5,-148 1175.5,-129 1037.5,-129"/>
<text text-anchor="middle" x="1106.5" y="-136" font-family="Helvetica,sans-Serif" font-size="10.00">ViennaRNA/params/basic.h</text>
</a>
</g>
</g>
<!-- Node3&#45;&gt;Node8 -->
<g id="edge36" class="edge">
<title>Node3&#45;&gt;Node8</title>
<path fill="none" stroke="midnightblue" d="M1042.89,-246.14C1052.5,-223.71 1076.36,-180.42 1092.24,-156.47"/>
<polygon fill="midnightblue" stroke="midnightblue" points="1095.26,-158.26 1098.09,-148.05 1089.51,-154.27 1095.26,-158.26"/>
</g>
<!-- Node10 -->
<g id="node10" class="node">
<title>Node10</title>
<g id="a_node10"><a xlink:href="dp__matrices_8h.html" target="_top" xlink:title="Functions to deal with standard dynamic programming (DP) matrices.">
<polygon fill="none" stroke="black" points="0,-129 0,-148 133,-148 133,-129 0,-129"/>
<text text-anchor="middle" x="66.5" y="-136" font-family="Helvetica,sans-Serif" font-size="10.00">ViennaRNA/dp_matrices.h</text>
</a>
</g>
</g>
<!-- Node3&#45;&gt;Node10 -->
<g id="edge37" class="edge">
<title>Node3&#45;&gt;Node10</title>
<path fill="none" stroke="midnightblue" d="M972.26,-256.95C862.2,-250.42 637.29,-234.87 448.5,-210 307.09,-191.37 272.75,-179.98 132.5,-154 125.67,-152.73 118.49,-151.38 111.47,-150.02"/>
<polygon fill="midnightblue" stroke="midnightblue" points="111.84,-146.53 101.36,-148.05 110.5,-153.4 111.84,-146.53"/>
</g>
<!-- Node11 -->
<g id="node11" class="node">
<title>Node11</title>
<g id="a_node11"><a xlink:href="hard_8h.html" target="_top" xlink:title="Functions and data structures for handling of secondary structure hard constraints.">
<polygon fill="none" stroke="black" points="284,-123.5 284,-153.5 403,-153.5 403,-123.5 284,-123.5"/>
<text text-anchor="start" x="292" y="-141.5" font-family="Helvetica,sans-Serif" font-size="10.00">ViennaRNA/constraints</text>
<text text-anchor="middle" x="343.5" y="-130.5" font-family="Helvetica,sans-Serif" font-size="10.00">/hard.h</text>
</a>
</g>
</g>
<!-- Node3&#45;&gt;Node11 -->
<g id="edge38" class="edge">
<title>Node3&#45;&gt;Node11</title>
<path fill="none" stroke="midnightblue" d="M972.39,-251.48C903.51,-242.01 793.32,-226.26 698.5,-210 573.66,-188.59 540.5,-180.41 413.33,-154.36"/>
<polygon fill="midnightblue" stroke="midnightblue" points="413.69,-150.86 403.19,-152.29 412.29,-157.72 413.69,-150.86"/>
</g>
<!-- Node13 -->
<g id="node13" class="node">
<title>Node13</title>
<g id="a_node13"><a xlink:href="soft_8h.html" target="_top" xlink:title="Functions and data structures for secondary structure soft constraints.">
<polygon fill="none" stroke="black" points="900,-123.5 900,-153.5 1019,-153.5 1019,-123.5 900,-123.5"/>
<text text-anchor="start" x="908" y="-141.5" font-family="Helvetica,sans-Serif" font-size="10.00">ViennaRNA/constraints</text>
<text text-anchor="middle" x="959.5" y="-130.5" font-family="Helvetica,sans-Serif" font-size="10.00">/soft.h</text>
</a>
</g>
</g>
<!-- Node3&#45;&gt;Node13 -->
<g id="edge39" class="edge">
<title>Node3&#45;&gt;Node13</title>
<path fill="none" stroke="midnightblue" d="M1025.45,-246.14C1009.28,-225.59 983.81,-187.53 969.49,-162.87"/>
<polygon fill="midnightblue" stroke="midnightblue" points="972.37,-160.85 964.43,-153.84 966.26,-164.27 972.37,-160.85"/>
</g>
<!-- Node14 -->
<g id="node14" class="node">
<title>Node14</title>
<g id="a_node14"><a xlink:href="grammar_8h.html" target="_top" xlink:title="Implementations for the RNA folding grammar.">
<polygon fill="none" stroke="black" points="765,-129 765,-148 882,-148 882,-129 765,-129"/>
<text text-anchor="middle" x="823.5" y="-136" font-family="Helvetica,sans-Serif" font-size="10.00">ViennaRNA/grammar.h</text>
</a>
</g>
</g>
<!-- Node3&#45;&gt;Node14 -->
<g id="edge40" class="edge">
<title>Node3&#45;&gt;Node14</title>
<path fill="none" stroke="midnightblue" d="M1014.3,-246.38C972.38,-222.9 888.88,-176.12 847.66,-153.03"/>
<polygon fill="midnightblue" stroke="midnightblue" points="849.27,-149.93 838.84,-148.09 845.85,-156.03 849.27,-149.93"/>
</g>
<!-- Node15 -->
<g id="node15" class="node">
<title>Node15</title>
<g id="a_node15"><a xlink:href="structured__domains_8h.html" target="_top" xlink:title="This module provides interfaces that deal with additional structured domains in the folding grammar.">
<polygon fill="none" stroke="black" points="151,-123.5 151,-153.5 266,-153.5 266,-123.5 151,-123.5"/>
<text text-anchor="start" x="159" y="-141.5" font-family="Helvetica,sans-Serif" font-size="10.00">ViennaRNA/structured</text>
<text text-anchor="middle" x="208.5" y="-130.5" font-family="Helvetica,sans-Serif" font-size="10.00">_domains.h</text>
</a>
</g>
</g>
<!-- Node3&#45;&gt;Node15 -->
<g id="edge41" class="edge">
<title>Node3&#45;&gt;Node15</title>
<path fill="none" stroke="midnightblue" d="M972.4,-254.46C883.64,-246.15 722.45,-229.92 585.5,-210 449.78,-190.25 413.89,-181.91 276.16,-154.3"/>
<polygon fill="midnightblue" stroke="midnightblue" points="276.56,-150.81 266.07,-152.28 275.18,-157.68 276.56,-150.81"/>
</g>
<!-- Node16 -->
<g id="node16" class="node">
<title>Node16</title>
<g id="a_node16"><a xlink:href="unstructured__domains_8h.html" target="_top" xlink:title="Functions to modify unstructured domains, e.g. to incorporate ligands binding to unpaired stretches.">
<polygon fill="none" stroke="black" points="1270,-123.5 1270,-153.5 1395,-153.5 1395,-123.5 1270,-123.5"/>
<text text-anchor="start" x="1278" y="-141.5" font-family="Helvetica,sans-Serif" font-size="10.00">ViennaRNA/unstructured</text>
<text text-anchor="middle" x="1332.5" y="-130.5" font-family="Helvetica,sans-Serif" font-size="10.00">_domains.h</text>
</a>
</g>
</g>
<!-- Node3&#45;&gt;Node16 -->
<g id="edge42" class="edge">
<title>Node3&#45;&gt;Node16</title>
<path fill="none" stroke="midnightblue" d="M1106.93,-252.5C1148.9,-245.63 1202.9,-233 1246.5,-210 1269.64,-197.79 1291.17,-176.93 1307.16,-161.06"/>
<polygon fill="midnightblue" stroke="midnightblue" points="1309.92,-163.26 1314.55,-153.73 1304.99,-158.29 1309.92,-163.26"/>
</g>
<!-- Node17 -->
<g id="node17" class="node">
<title>Node17</title>
<g id="a_node17"><a xlink:href="utils_2structures_8h.html" target="_top" xlink:title="Various utility&#45; and helper&#45;functions for secondary structure parsing, converting,...">
<polygon fill="none" stroke="black" points="1349.5,-62 1349.5,-81 1493.5,-81 1493.5,-62 1349.5,-62"/>
<text text-anchor="middle" x="1421.5" y="-69" font-family="Helvetica,sans-Serif" font-size="10.00">ViennaRNA/utils/structures.h</text>
</a>
</g>
</g>
<!-- Node3&#45;&gt;Node17 -->
<g id="edge43" class="edge">
<title>Node3&#45;&gt;Node17</title>
<path fill="none" stroke="midnightblue" d="M1106.62,-250.94C1156.33,-243.11 1225.14,-230.01 1283.5,-210 1336.14,-191.95 1361.54,-198.09 1395.5,-154 1409.46,-135.88 1412.66,-109.02 1415.19,-91.15"/>
<polygon fill="midnightblue" stroke="midnightblue" points="1418.67,-91.54 1416.82,-81.11 1411.76,-90.42 1418.67,-91.54"/>
</g>
<!-- Node5 -->
<g id="node5" class="node">
<title>Node5</title>
<g id="a_node5"><a xlink:title=" ">
<polygon fill="none" stroke="#bfbfbf" points="1217.5,-0.5 1217.5,-19.5 1265.5,-19.5 1265.5,-0.5 1217.5,-0.5"/>
<text text-anchor="middle" x="1241.5" y="-7.5" font-family="Helvetica,sans-Serif" font-size="10.00">limits.h</text>
</a>
</g>
</g>
<!-- Node4&#45;&gt;Node5 -->
<g id="edge4" class="edge">
<title>Node4&#45;&gt;Node5</title>
<path fill="none" stroke="midnightblue" d="M1241.5,-61.98C1241.5,-53.58 1241.5,-40.48 1241.5,-29.66"/>
<polygon fill="midnightblue" stroke="midnightblue" points="1245,-29.51 1241.5,-19.51 1238,-29.51 1245,-29.51"/>
</g>
<!-- Node6&#45;&gt;Node7 -->
<g id="edge6" class="edge">
<title>Node6&#45;&gt;Node7</title>
<path fill="none" stroke="midnightblue" d="M773.12,-190.42C760.88,-175.14 739.35,-142.93 756.5,-123 790.87,-83.06 941.2,-74.29 1028.36,-72.62"/>
<polygon fill="midnightblue" stroke="midnightblue" points="1028.46,-76.12 1038.4,-72.46 1028.35,-69.12 1028.46,-76.12"/>
</g>
<!-- Node6&#45;&gt;Node8 -->
<g id="edge7" class="edge">
<title>Node6&#45;&gt;Node8</title>
<path fill="none" stroke="midnightblue" d="M821.34,-190.43C868.99,-181.42 949.78,-166.81 1019.5,-154 1026.75,-152.67 1034.38,-151.26 1042,-149.86"/>
<polygon fill="midnightblue" stroke="midnightblue" points="1042.76,-153.28 1051.97,-148.04 1041.5,-146.4 1042.76,-153.28"/>
</g>
<!-- Node9 -->
<g id="node9" class="node">
<title>Node9</title>
<g id="a_node9"><a xlink:href="sequence_8h.html" target="_top" xlink:title="Functions and data structures related to sequence representations ,.">
<polygon fill="none" stroke="black" points="586.5,-129 586.5,-148 708.5,-148 708.5,-129 586.5,-129"/>
<text text-anchor="middle" x="647.5" y="-136" font-family="Helvetica,sans-Serif" font-size="10.00">ViennaRNA/sequence.h</text>
</a>
</g>
</g>
<!-- Node6&#45;&gt;Node9 -->
<g id="edge12" class="edge">
<title>Node6&#45;&gt;Node9</title>
<path fill="none" stroke="midnightblue" d="M756.54,-190.48C732.15,-180.53 694.92,-163.99 670.79,-152.46"/>
<polygon fill="midnightblue" stroke="midnightblue" points="672.15,-149.23 661.62,-148.01 669.09,-155.53 672.15,-149.23"/>
</g>
<!-- Node6&#45;&gt;Node10 -->
<g id="edge14" class="edge">
<title>Node6&#45;&gt;Node10</title>
<path fill="none" stroke="midnightblue" d="M707.16,-196.91C586.59,-192.71 339.52,-181.2 132.5,-154 124.27,-152.92 115.59,-151.5 107.29,-149.97"/>
<polygon fill="midnightblue" stroke="midnightblue" points="107.9,-146.53 97.42,-148.07 106.58,-153.4 107.9,-146.53"/>
</g>
<!-- Node6&#45;&gt;Node11 -->
<g id="edge17" class="edge">
<title>Node6&#45;&gt;Node11</title>
<path fill="none" stroke="midnightblue" d="M707.34,-192.68C633.22,-185.46 515.34,-172.44 409.8,-155.19"/>
<polygon fill="midnightblue" stroke="midnightblue" points="410.06,-151.69 399.62,-153.51 408.92,-158.59 410.06,-151.69"/>
</g>
<!-- Node6&#45;&gt;Node13 -->
<g id="edge21" class="edge">
<title>Node6&#45;&gt;Node13</title>
<path fill="none" stroke="midnightblue" d="M801.25,-190.48C825.73,-181.7 867.16,-167.79 901.53,-156.71"/>
<polygon fill="midnightblue" stroke="midnightblue" points="903.03,-159.91 911.48,-153.52 900.89,-153.24 903.03,-159.91"/>
</g>
<!-- Node6&#45;&gt;Node14 -->
<g id="edge25" class="edge">
<title>Node6&#45;&gt;Node14</title>
<path fill="none" stroke="midnightblue" d="M781.76,-190.48C786.31,-181.46 796.34,-167.02 805.62,-155.81"/>
<polygon fill="midnightblue" stroke="midnightblue" points="808.49,-157.84 812.45,-148.01 803.23,-153.22 808.49,-157.84"/>
</g>
<!-- Node6&#45;&gt;Node15 -->
<g id="edge27" class="edge">
<title>Node6&#45;&gt;Node15</title>
<path fill="none" stroke="midnightblue" d="M707.25,-195.42C610.54,-190.05 434.88,-178.02 275.97,-154.11"/>
<polygon fill="midnightblue" stroke="midnightblue" points="276.42,-150.63 266.01,-152.59 275.37,-157.55 276.42,-150.63"/>
</g>
<!-- Node6&#45;&gt;Node16 -->
<g id="edge28" class="edge">
<title>Node6&#45;&gt;Node16</title>
<path fill="none" stroke="midnightblue" d="M853.54,-190.6C959.25,-178.93 1153.59,-157.99 1259.35,-146.88"/>
<polygon fill="midnightblue" stroke="midnightblue" points="1260.04,-150.33 1269.62,-145.81 1259.31,-143.37 1260.04,-150.33"/>
</g>
<!-- Node18 -->
<g id="node18" class="node">
<title>Node18</title>
<g id="a_node18"><a xlink:href="zscore_8h_source.html" target="_top" xlink:title=" ">
<polygon fill="none" stroke="black" points="421,-129 421,-148 530,-148 530,-129 421,-129"/>
<text text-anchor="middle" x="475.5" y="-136" font-family="Helvetica,sans-Serif" font-size="10.00">ViennaRNA/zscore.h</text>
</a>
</g>
</g>
<!-- Node6&#45;&gt;Node18 -->
<g id="edge34" class="edge">
<title>Node6&#45;&gt;Node18</title>
<path fill="none" stroke="midnightblue" d="M734.32,-190.46C686.71,-181.59 610.34,-167.19 544.5,-154 538.36,-152.77 531.91,-151.45 525.53,-150.13"/>
<polygon fill="midnightblue" stroke="midnightblue" points="526.11,-146.67 515.61,-148.06 524.68,-153.53 526.11,-146.67"/>
</g>
<!-- Node8&#45;&gt;Node3 -->
<g id="edge9" class="edge">
<title>Node8&#45;&gt;Node3</title>
<path fill="none" stroke="midnightblue" d="M1105.44,-148.05C1098.63,-166.48 1074.86,-210.46 1057.58,-237.63"/>
<polygon fill="midnightblue" stroke="midnightblue" points="1054.56,-235.86 1052,-246.14 1060.41,-239.7 1054.56,-235.86"/>
</g>
<!-- Node8&#45;&gt;Node4 -->
<g id="edge8" class="edge">
<title>Node8&#45;&gt;Node4</title>
<path fill="none" stroke="midnightblue" d="M1124.43,-128.87C1147.42,-117.8 1187.53,-98.49 1214.3,-85.6"/>
<polygon fill="midnightblue" stroke="midnightblue" points="1216.01,-88.66 1223.5,-81.17 1212.97,-82.35 1216.01,-88.66"/>
</g>
<!-- Node8&#45;&gt;Node6 -->
<g id="edge10" class="edge">
<title>Node8&#45;&gt;Node6</title>
<path fill="none" stroke="midnightblue" d="M1069.48,-148.04C1059.14,-150.01 1047.93,-152.08 1037.5,-154 972.14,-166.01 897.04,-179.6 844.89,-188.68"/>
<polygon fill="midnightblue" stroke="midnightblue" points="844.03,-185.28 834.77,-190.43 845.22,-192.17 844.03,-185.28"/>
</g>
<!-- Node8&#45;&gt;Node7 -->
<g id="edge11" class="edge">
<title>Node8&#45;&gt;Node7</title>
<path fill="none" stroke="midnightblue" d="M1104.48,-128.73C1102.25,-119.09 1098.61,-103.3 1095.75,-90.91"/>
<polygon fill="midnightblue" stroke="midnightblue" points="1099.15,-90.08 1093.49,-81.13 1092.33,-91.66 1099.15,-90.08"/>
</g>
<!-- Node9&#45;&gt;Node6 -->
<g id="edge13" class="edge">
<title>Node9&#45;&gt;Node6</title>
<path fill="none" stroke="midnightblue" d="M671.42,-148.01C695.79,-157.94 733.03,-174.48 757.18,-186.02"/>
<polygon fill="midnightblue" stroke="midnightblue" points="755.82,-189.25 766.34,-190.48 758.88,-182.96 755.82,-189.25"/>
</g>
<!-- Node10&#45;&gt;Node3 -->
<g id="edge15" class="edge">
<title>Node10&#45;&gt;Node3</title>
<path fill="none" stroke="midnightblue" d="M118.85,-148.05C129.39,-150.03 140.33,-152.12 150.5,-154 290.75,-179.98 325.09,-191.37 466.5,-210 643.48,-233.31 852.21,-248.44 962.45,-255.62"/>
<polygon fill="midnightblue" stroke="midnightblue" points="962.28,-259.11 972.48,-256.27 962.73,-252.13 962.28,-259.11"/>
</g>
<!-- Node10&#45;&gt;Node6 -->
<g id="edge16" class="edge">
<title>Node10&#45;&gt;Node6</title>
<path fill="none" stroke="midnightblue" d="M114.69,-148.07C126.45,-150.29 138.93,-152.48 150.5,-154 345.5,-179.62 576.02,-191.32 696.97,-196.1"/>
<polygon fill="midnightblue" stroke="midnightblue" points="697.13,-199.61 707.26,-196.5 697.4,-192.62 697.13,-199.61"/>
</g>
<!-- Node11&#45;&gt;Node6 -->
<g id="edge18" class="edge">
<title>Node11&#45;&gt;Node6</title>
<path fill="none" stroke="midnightblue" d="M403.22,-150.84C409.07,-151.98 414.9,-153.06 420.5,-154 515.03,-169.81 624.07,-182.42 697.21,-190.22"/>
<polygon fill="midnightblue" stroke="midnightblue" points="696.98,-193.72 707.29,-191.29 697.71,-186.76 696.98,-193.72"/>
</g>
<!-- Node12 -->
<g id="node12" class="node">
<title>Node12</title>
<g id="a_node12"><a xlink:href="constraints_2basic_8h.html" target="_top" xlink:title="Functions and data structures for constraining secondary structure predictions and evaluation.">
<polygon fill="none" stroke="black" points="499,-56.5 499,-86.5 618,-86.5 618,-56.5 499,-56.5"/>
<text text-anchor="start" x="507" y="-74.5" font-family="Helvetica,sans-Serif" font-size="10.00">ViennaRNA/constraints</text>
<text text-anchor="middle" x="558.5" y="-63.5" font-family="Helvetica,sans-Serif" font-size="10.00">/basic.h</text>
</a>
</g>
</g>
<!-- Node11&#45;&gt;Node12 -->
<g id="edge19" class="edge">
<title>Node11&#45;&gt;Node12</title>
<path fill="none" stroke="midnightblue" d="M389.89,-123.48C422.84,-113.51 467.25,-100.09 502.23,-89.51"/>
<polygon fill="midnightblue" stroke="midnightblue" points="503.27,-92.86 511.83,-86.61 501.24,-86.15 503.27,-92.86"/>
</g>
<!-- Node12&#45;&gt;Node6 -->
<g id="edge20" class="edge">
<title>Node12&#45;&gt;Node6</title>
<path fill="none" stroke="midnightblue" d="M557.57,-86.76C557.21,-104.96 559.53,-136.22 577.5,-154 594.63,-170.95 649.1,-182.46 697.31,-189.59"/>
<polygon fill="midnightblue" stroke="midnightblue" points="697.09,-193.09 707.49,-191.05 698.08,-186.17 697.09,-193.09"/>
</g>
<!-- Node13&#45;&gt;Node3 -->
<g id="edge22" class="edge">
<title>Node13&#45;&gt;Node3</title>
<path fill="none" stroke="midnightblue" d="M973.53,-153.84C989.7,-174.38 1015.17,-212.44 1029.5,-237.1"/>
<polygon fill="midnightblue" stroke="midnightblue" points="1026.62,-239.13 1034.56,-246.14 1032.73,-235.71 1026.62,-239.13"/>
</g>
<!-- Node13&#45;&gt;Node6 -->
<g id="edge23" class="edge">
<title>Node13&#45;&gt;Node6</title>
<path fill="none" stroke="midnightblue" d="M923.14,-153.52C893.35,-163.87 851.38,-177.78 820.61,-187.48"/>
<polygon fill="midnightblue" stroke="midnightblue" points="819.55,-184.15 811.05,-190.48 821.64,-190.83 819.55,-184.15"/>
</g>
<!-- Node13&#45;&gt;Node12 -->
<g id="edge24" class="edge">
<title>Node13&#45;&gt;Node12</title>
<path fill="none" stroke="midnightblue" d="M899.84,-124.57C897.02,-124.02 894.23,-123.5 891.5,-123 800.94,-106.49 695.84,-91.19 628.32,-81.86"/>
<polygon fill="midnightblue" stroke="midnightblue" points="628.61,-78.36 618.23,-80.47 627.66,-85.3 628.61,-78.36"/>
</g>
<!-- Node14&#45;&gt;Node6 -->
<g id="edge26" class="edge">
<title>Node14&#45;&gt;Node6</title>
<path fill="none" stroke="midnightblue" d="M822.25,-148.01C817.71,-157.02 807.67,-171.45 798.4,-182.67"/>
<polygon fill="midnightblue" stroke="midnightblue" points="795.52,-180.65 791.56,-190.48 800.78,-185.26 795.52,-180.65"/>
</g>
<!-- Node16&#45;&gt;Node3 -->
<g id="edge29" class="edge">
<title>Node16&#45;&gt;Node3</title>
<path fill="none" stroke="midnightblue" d="M1327.46,-153.73C1316.18,-169.87 1291.43,-195.79 1264.5,-210 1218.9,-234.06 1161.92,-246.77 1116.65,-253.41"/>
<polygon fill="midnightblue" stroke="midnightblue" points="1116.01,-249.97 1106.59,-254.82 1116.98,-256.9 1116.01,-249.97"/>
</g>
<!-- Node16&#45;&gt;Node6 -->
<g id="edge30" class="edge">
<title>Node16&#45;&gt;Node6</title>
<path fill="none" stroke="midnightblue" d="M1269.96,-146.74C1170.23,-157.79 975.29,-178.81 863.84,-190.54"/>
<polygon fill="midnightblue" stroke="midnightblue" points="863.23,-187.09 853.65,-191.61 863.96,-194.05 863.23,-187.09"/>
</g>
<!-- Node16&#45;&gt;Node17 -->
<g id="edge31" class="edge">
<title>Node16&#45;&gt;Node17</title>
<path fill="none" stroke="midnightblue" d="M1351.81,-123.4C1366.46,-112.7 1386.54,-98.03 1401.38,-87.19"/>
<polygon fill="midnightblue" stroke="midnightblue" points="1403.84,-89.73 1409.85,-81.01 1399.71,-84.08 1403.84,-89.73"/>
</g>
<!-- Node17&#45;&gt;Node2 -->
<g id="edge32" class="edge">
<title>Node17&#45;&gt;Node2</title>
<path fill="none" stroke="midnightblue" d="M1428.66,-61.98C1436.24,-52.96 1448.37,-38.52 1457.79,-27.31"/>
<polygon fill="midnightblue" stroke="midnightblue" points="1460.6,-29.42 1464.35,-19.51 1455.24,-24.91 1460.6,-29.42"/>
</g>
<!-- Node17&#45;&gt;Node3 -->
<g id="edge33" class="edge">
<title>Node17&#45;&gt;Node3</title>
<path fill="none" stroke="midnightblue" d="M1427.22,-81.11C1431.53,-97.16 1430.44,-132.02 1413.5,-154 1379.54,-198.09 1354.14,-191.95 1301.5,-210 1241.2,-230.68 1169.75,-243.97 1116.63,-251.7"/>
<polygon fill="midnightblue" stroke="midnightblue" points="1116.01,-248.26 1106.6,-253.13 1117,-255.19 1116.01,-248.26"/>
</g>
</g>
</svg>
        <g id="navigator" transform="translate(0 0)" fill="#404254">
                <rect fill="#f2f5e9" fill-opacity="0.5" stroke="#606060" stroke-width=".5" x="0" y="0" width="60" height="60"/>
                <use id="zoomplus" xlink:href="#zoomPlus" x="17" y="9" onmousedown="handleZoom(evt,'in')"/>
                <use id="zoomminus" xlink:href="#zoomMin" x="42" y="9" onmousedown="handleZoom(evt,'out')"/>
                <use id="reset" xlink:href="#resetDef" x="30" y="36" onmousedown="handleReset()"/>
                <g id="arrowUp" xlink:href="#dirArrow" transform="translate(30 24)" onmousedown="handlePan(0,-1)">
                  <use xlink:href="#rim" fill="#404040">
                        <set attributeName="fill" to="#808080" begin="arrowUp.mouseover" end="arrowUp.mouseout"/>
                  </use>
                  <path fill="none" stroke="white" stroke-width="1.5" d="M0,-3.0v7 M-2.5,-0.5L0,-3.0L2.5,-0.5"/>
                </g>
                <g id="arrowRight" xlink:href="#dirArrow" transform="rotate(90) translate(36 -43)" onmousedown="handlePan(1,0)">
                  <use xlink:href="#rim" fill="#404040">
                        <set attributeName="fill" to="#808080" begin="arrowRight.mouseover" end="arrowRight.mouseout"/>
                  </use>
                  <path fill="none" stroke="white" stroke-width="1.5" d="M0,-3.0v7 M-2.5,-0.5L0,-3.0L2.5,-0.5"/>
                </g>
                <g id="arrowDown" xlink:href="#dirArrow" transform="rotate(180) translate(-30 -48)" onmousedown="handlePan(0,1)">
                  <use xlink:href="#rim" fill="#404040">
                        <set attributeName="fill" to="#808080" begin="arrowDown.mouseover" end="arrowDown.mouseout"/>
                  </use>
                  <path fill="none" stroke="white" stroke-width="1.5" d="M0,-3.0v7 M-2.5,-0.5L0,-3.0L2.5,-0.5"/>
                </g>
                <g id="arrowLeft" xlink:href="#dirArrow" transform="rotate(270) translate(-36 17)" onmousedown="handlePan(-1,0)">
                  <use xlink:href="#rim" fill="#404040">
                        <set attributeName="fill" to="#808080" begin="arrowLeft.mouseover" end="arrowLeft.mouseout"/>
                  </use>
                  <path fill="none" stroke="white" stroke-width="1.5" d="M0,-3.0v7 M-2.5,-0.5L0,-3.0L2.5,-0.5"/>
                </g>
        </g>
        <svg viewBox="0 0 15 15" width="100%" height="30px" preserveAspectRatio="xMaxYMin meet">
         <g id="arrow_out" transform="scale(0.3 0.3)">
          <a xlink:href="mfe_8h__incl_org.svg" target="_base">
           <rect id="button" ry="5" rx="5" y="6" x="6" height="38" width="38"
                fill="#f2f5e9" fill-opacity="0.5" stroke="#606060" stroke-width="1.0"/>
           <path id="arrow"
             d="M 11.500037,31.436501 C 11.940474,20.09759 22.043105,11.32322 32.158766,21.979434 L 37.068811,17.246167 C 37.068811,17.246167 37.088388,32 37.088388,32 L 22.160133,31.978069 C 22.160133,31.978069 26.997745,27.140456 26.997745,27.140456 C 18.528582,18.264221 13.291696,25.230495 11.500037,31.436501 z"
             style="fill:#404040;"/>
          </a>
         </g>
        </svg>
</svg>
