<?xml version="1.0" encoding="UTF-8" standalone="no"?>
<!DOCTYPE svg PUBLIC "-//W3C//DTD SVG 1.1//EN"
 "http://www.w3.org/Graphics/SVG/1.1/DTD/svg11.dtd">
<!-- Generated by graphviz version 2.47.0 (0)
 -->
<!-- Title: ViennaRNA/mfe.h Pages: 1 -->
<svg width="351pt" height="84pt"
 viewBox="0.00 0.00 351.00 84.00" xmlns="http://www.w3.org/2000/svg" xmlns:xlink="http://www.w3.org/1999/xlink">
<g id="graph0" class="graph" transform="scale(1 1) rotate(0) translate(4 80)">
<title>ViennaRNA/mfe.h</title>
<!-- Node1 -->
<g id="node1" class="node">
<title>Node1</title>
<g id="a_node1"><a xlink:title="Compute Minimum Free energy (MFE) and backtrace corresponding secondary structures from RNA sequence ...">
<polygon fill="#bfbfbf" stroke="black" points="128.5,-56.5 128.5,-75.5 224.5,-75.5 224.5,-56.5 128.5,-56.5"/>
<text text-anchor="middle" x="176.5" y="-63.5" font-family="Helvetica,sans-Serif" font-size="10.00">ViennaRNA/mfe.h</text>
</a>
</g>
</g>
<!-- Node2 -->
<g id="node2" class="node">
<title>Node2</title>
<g id="a_node2"><a xlink:href="alifold_8h.html" target="_top" xlink:title="Functions for comparative structure prediction using RNA sequence alignments.">
<polygon fill="none" stroke="black" points="0,-0.5 0,-19.5 105,-19.5 105,-0.5 0,-0.5"/>
<text text-anchor="middle" x="52.5" y="-7.5" font-family="Helvetica,sans-Serif" font-size="10.00">ViennaRNA/alifold.h</text>
</a>
</g>
</g>
<!-- Node1&#45;&gt;Node2 -->
<g id="edge1" class="edge">
<title>Node1&#45;&gt;Node2</title>
<path fill="none" stroke="midnightblue" d="M147.49,-52.37C124.27,-42.26 92.34,-28.35 72.06,-19.52"/>
<polygon fill="midnightblue" stroke="midnightblue" points="146.29,-55.66 156.85,-56.44 149.08,-49.24 146.29,-55.66"/>
</g>
<!-- Node3 -->
<g id="node3" class="node">
<title>Node3</title>
<g id="a_node3"><a xlink:href="cofold_8h.html" target="_top" xlink:title="MFE implementations for RNA&#45;RNA interaction.">
<polygon fill="none" stroke="black" points="123.5,-0.5 123.5,-19.5 229.5,-19.5 229.5,-0.5 123.5,-0.5"/>
<text text-anchor="middle" x="176.5" y="-7.5" font-family="Helvetica,sans-Serif" font-size="10.00">ViennaRNA/cofold.h</text>
</a>
</g>
</g>
<!-- Node1&#45;&gt;Node3 -->
<g id="edge2" class="edge">
<title>Node1&#45;&gt;Node3</title>
<path fill="none" stroke="midnightblue" d="M176.5,-45.8C176.5,-36.91 176.5,-26.78 176.5,-19.75"/>
<polygon fill="midnightblue" stroke="midnightblue" points="173,-46.08 176.5,-56.08 180,-46.08 173,-46.08"/>
</g>
<!-- Node4 -->
<g id="node4" class="node">
<title>Node4</title>
<g id="a_node4"><a xlink:href="fold_8h.html" target="_top" xlink:title="MFE calculations for single RNA sequences.">
<polygon fill="none" stroke="black" points="248,-0.5 248,-19.5 343,-19.5 343,-0.5 248,-0.5"/>
<text text-anchor="middle" x="295.5" y="-7.5" font-family="Helvetica,sans-Serif" font-size="10.00">ViennaRNA/fold.h</text>
</a>
</g>
</g>
<!-- Node1&#45;&gt;Node4 -->
<g id="edge3" class="edge">
<title>Node1&#45;&gt;Node4</title>
<path fill="none" stroke="midnightblue" d="M204.64,-52.23C226.9,-42.13 257.36,-28.31 276.73,-19.52"/>
<polygon fill="midnightblue" stroke="midnightblue" points="203.02,-49.12 195.36,-56.44 205.91,-55.5 203.02,-49.12"/>
</g>
</g>
</svg>
