<?xml version="1.0" encoding="UTF-8" standalone="no"?>
<!DOCTYPE svg PUBLIC "-//W3C//DTD SVG 1.1//EN"
 "http://www.w3.org/Graphics/SVG/1.1/DTD/svg11.dtd">
<!-- Generated by graphviz version 2.47.0 (0)
 -->
<!-- Title: ViennaRNA/mfe_window.h Pages: 1 -->
<svg width="1250pt" height="397pt"
 viewBox="0.00 0.00 1249.50 397.00" xmlns="http://www.w3.org/2000/svg" xmlns:xlink="http://www.w3.org/1999/xlink">
<g id="graph0" class="graph" transform="scale(1 1) rotate(0) translate(4 393)">
<title>ViennaRNA/mfe_window.h</title>
<!-- Node1 -->
<g id="node1" class="node">
<title>Node1</title>
<g id="a_node1"><a xlink:title="Compute local Minimum Free Energy (MFE) using a sliding window approach and backtrace corresponding s...">
<polygon fill="#bfbfbf" stroke="black" points="465.5,-369.5 465.5,-388.5 598.5,-388.5 598.5,-369.5 465.5,-369.5"/>
<text text-anchor="middle" x="532" y="-376.5" font-family="Helvetica,sans-Serif" font-size="10.00">ViennaRNA/mfe_window.h</text>
</a>
</g>
</g>
<!-- Node2 -->
<g id="node2" class="node">
<title>Node2</title>
<g id="a_node2"><a xlink:title=" ">
<polygon fill="none" stroke="#bfbfbf" points="245,-0.5 245,-19.5 291,-19.5 291,-0.5 245,-0.5"/>
<text text-anchor="middle" x="268" y="-7.5" font-family="Helvetica,sans-Serif" font-size="10.00">stdio.h</text>
</a>
</g>
</g>
<!-- Node1&#45;&gt;Node2 -->
<g id="edge1" class="edge">
<title>Node1&#45;&gt;Node2</title>
<path fill="none" stroke="midnightblue" d="M465.43,-378.04C322.68,-376.31 0,-362.02 0,-268 0,-268 0,-268 0,-137.5 0,-34.97 162.38,-15.41 234.35,-11.78"/>
<polygon fill="midnightblue" stroke="midnightblue" points="234.84,-15.26 244.69,-11.34 234.54,-8.27 234.84,-15.26"/>
</g>
<!-- Node3 -->
<g id="node3" class="node">
<title>Node3</title>
<g id="a_node3"><a xlink:href="fold__compound_8h.html" target="_top" xlink:title="The Basic Fold Compound API.">
<polygon fill="none" stroke="black" points="459,-313.5 459,-332.5 605,-332.5 605,-313.5 459,-313.5"/>
<text text-anchor="middle" x="532" y="-320.5" font-family="Helvetica,sans-Serif" font-size="10.00">ViennaRNA/fold_compound.h</text>
</a>
</g>
</g>
<!-- Node1&#45;&gt;Node3 -->
<g id="edge2" class="edge">
<title>Node1&#45;&gt;Node3</title>
<path fill="none" stroke="midnightblue" d="M532,-369.08C532,-362.01 532,-351.86 532,-342.99"/>
<polygon fill="midnightblue" stroke="midnightblue" points="535.5,-342.75 532,-332.75 528.5,-342.75 535.5,-342.75"/>
</g>
<!-- Node18 -->
<g id="node18" class="node">
<title>Node18</title>
<g id="a_node18"><a xlink:href="zscore_8h_source.html" target="_top" xlink:title=" ">
<polygon fill="none" stroke="black" points="947.5,-257.5 947.5,-276.5 1056.5,-276.5 1056.5,-257.5 947.5,-257.5"/>
<text text-anchor="middle" x="1002" y="-264.5" font-family="Helvetica,sans-Serif" font-size="10.00">ViennaRNA/zscore.h</text>
</a>
</g>
</g>
<!-- Node1&#45;&gt;Node18 -->
<g id="edge44" class="edge">
<title>Node1&#45;&gt;Node18</title>
<path fill="none" stroke="midnightblue" d="M568.49,-369.46C653,-349.68 862.04,-300.76 955.52,-278.88"/>
<polygon fill="midnightblue" stroke="midnightblue" points="956.59,-282.22 965.53,-276.53 955,-275.41 956.59,-282.22"/>
</g>
<!-- Node4 -->
<g id="node4" class="node">
<title>Node4</title>
<g id="a_node4"><a xlink:href="model_8h.html" target="_top" xlink:title="The model details data structure and its corresponding modifiers.">
<polygon fill="none" stroke="black" points="849,-129 849,-148 955,-148 955,-129 849,-129"/>
<text text-anchor="middle" x="902" y="-136" font-family="Helvetica,sans-Serif" font-size="10.00">ViennaRNA/model.h</text>
</a>
</g>
</g>
<!-- Node3&#45;&gt;Node4 -->
<g id="edge3" class="edge">
<title>Node3&#45;&gt;Node4</title>
<path fill="none" stroke="midnightblue" d="M605.12,-318.91C650.54,-314.26 708.69,-303.13 754,-277 798.73,-251.2 792.6,-224.52 831,-190 846.04,-176.48 864.74,-163.3 879.17,-153.8"/>
<polygon fill="midnightblue" stroke="midnightblue" points="881.46,-156.49 887.96,-148.13 877.66,-150.61 881.46,-156.49"/>
</g>
<!-- Node5 -->
<g id="node5" class="node">
<title>Node5</title>
<g id="a_node5"><a xlink:href="params_2basic_8h.html" target="_top" xlink:title="Functions to deal with sets of energy parameters.">
<polygon fill="none" stroke="black" points="607,-257.5 607,-276.5 745,-276.5 745,-257.5 607,-257.5"/>
<text text-anchor="middle" x="676" y="-264.5" font-family="Helvetica,sans-Serif" font-size="10.00">ViennaRNA/params/basic.h</text>
</a>
</g>
</g>
<!-- Node3&#45;&gt;Node5 -->
<g id="edge4" class="edge">
<title>Node3&#45;&gt;Node5</title>
<path fill="none" stroke="midnightblue" d="M549.73,-313.44C571.86,-304.4 609.88,-290.06 638.51,-279.92"/>
<polygon fill="midnightblue" stroke="midnightblue" points="639.93,-283.13 648.21,-276.52 637.61,-276.52 639.93,-283.13"/>
</g>
<!-- Node9 -->
<g id="node9" class="node">
<title>Node9</title>
<g id="a_node9"><a xlink:href="dp__matrices_8h.html" target="_top" xlink:title="Functions to deal with standard dynamic programming (DP) matrices.">
<polygon fill="none" stroke="black" points="973.5,-129 973.5,-148 1106.5,-148 1106.5,-129 973.5,-129"/>
<text text-anchor="middle" x="1040" y="-136" font-family="Helvetica,sans-Serif" font-size="10.00">ViennaRNA/dp_matrices.h</text>
</a>
</g>
</g>
<!-- Node3&#45;&gt;Node9 -->
<g id="edge37" class="edge">
<title>Node3&#45;&gt;Node9</title>
<path fill="none" stroke="midnightblue" d="M605.21,-317.57C653.98,-312.39 718.42,-301.18 771,-277 826.68,-251.39 824.23,-219.42 878,-190 911.24,-171.81 952.15,-158.73 984.64,-150.44"/>
<polygon fill="midnightblue" stroke="midnightblue" points="985.56,-153.82 994.43,-148.02 983.88,-147.02 985.56,-153.82"/>
</g>
<!-- Node10 -->
<g id="node10" class="node">
<title>Node10</title>
<g id="a_node10"><a xlink:href="hard_8h.html" target="_top" xlink:title="Functions and data structures for handling of secondary structure hard constraints.">
<polygon fill="none" stroke="black" points="199.5,-123.5 199.5,-153.5 318.5,-153.5 318.5,-123.5 199.5,-123.5"/>
<text text-anchor="start" x="207.5" y="-141.5" font-family="Helvetica,sans-Serif" font-size="10.00">ViennaRNA/constraints</text>
<text text-anchor="middle" x="259" y="-130.5" font-family="Helvetica,sans-Serif" font-size="10.00">/hard.h</text>
</a>
</g>
</g>
<!-- Node3&#45;&gt;Node10 -->
<g id="edge38" class="edge">
<title>Node3&#45;&gt;Node10</title>
<path fill="none" stroke="midnightblue" d="M516.13,-313.44C470.6,-285.95 340.62,-199.36 284.79,-159.7"/>
<polygon fill="midnightblue" stroke="midnightblue" points="286.66,-156.73 276.49,-153.75 282.58,-162.42 286.66,-156.73"/>
</g>
<!-- Node12 -->
<g id="node12" class="node">
<title>Node12</title>
<g id="a_node12"><a xlink:href="soft_8h.html" target="_top" xlink:title="Functions and data structures for secondary structure soft constraints.">
<polygon fill="none" stroke="black" points="336.5,-123.5 336.5,-153.5 455.5,-153.5 455.5,-123.5 336.5,-123.5"/>
<text text-anchor="start" x="344.5" y="-141.5" font-family="Helvetica,sans-Serif" font-size="10.00">ViennaRNA/constraints</text>
<text text-anchor="middle" x="396" y="-130.5" font-family="Helvetica,sans-Serif" font-size="10.00">/soft.h</text>
</a>
</g>
</g>
<!-- Node3&#45;&gt;Node12 -->
<g id="edge39" class="edge">
<title>Node3&#45;&gt;Node12</title>
<path fill="none" stroke="midnightblue" d="M522.37,-313.34C504.76,-291.76 469.07,-234.15 434,-190 426.21,-180.19 416.94,-169.97 409.31,-161.31"/>
<polygon fill="midnightblue" stroke="midnightblue" points="411.79,-158.83 402.61,-153.55 406.5,-163.4 411.79,-158.83"/>
</g>
<!-- Node13 -->
<g id="node13" class="node">
<title>Node13</title>
<g id="a_node13"><a xlink:href="grammar_8h.html" target="_top" xlink:title="Implementations for the RNA folding grammar.">
<polygon fill="none" stroke="black" points="1124.5,-129 1124.5,-148 1241.5,-148 1241.5,-129 1124.5,-129"/>
<text text-anchor="middle" x="1183" y="-136" font-family="Helvetica,sans-Serif" font-size="10.00">ViennaRNA/grammar.h</text>
</a>
</g>
</g>
<!-- Node3&#45;&gt;Node13 -->
<g id="edge40" class="edge">
<title>Node3&#45;&gt;Node13</title>
<path fill="none" stroke="midnightblue" d="M605.21,-313.76C661.52,-306.78 740.84,-295 809,-277 938.89,-242.7 1086.66,-178.99 1150.79,-152.05"/>
<polygon fill="midnightblue" stroke="midnightblue" points="1152.47,-155.14 1160.34,-148.05 1149.77,-148.68 1152.47,-155.14"/>
</g>
<!-- Node14 -->
<g id="node14" class="node">
<title>Node14</title>
<g id="a_node14"><a xlink:href="structured__domains_8h.html" target="_top" xlink:title="This module provides interfaces that deal with additional structured domains in the folding grammar.">
<polygon fill="none" stroke="black" points="66.5,-123.5 66.5,-153.5 181.5,-153.5 181.5,-123.5 66.5,-123.5"/>
<text text-anchor="start" x="74.5" y="-141.5" font-family="Helvetica,sans-Serif" font-size="10.00">ViennaRNA/structured</text>
<text text-anchor="middle" x="124" y="-130.5" font-family="Helvetica,sans-Serif" font-size="10.00">_domains.h</text>
</a>
</g>
</g>
<!-- Node3&#45;&gt;Node14 -->
<g id="edge41" class="edge">
<title>Node3&#45;&gt;Node14</title>
<path fill="none" stroke="midnightblue" d="M458.73,-315.65C388.07,-308.57 286.86,-295.6 252,-277 200.67,-249.61 158.72,-193.62 138.01,-162.2"/>
<polygon fill="midnightblue" stroke="midnightblue" points="140.86,-160.17 132.5,-153.66 134.98,-163.96 140.86,-160.17"/>
</g>
<!-- Node15 -->
<g id="node15" class="node">
<title>Node15</title>
<g id="a_node15"><a xlink:href="unstructured__domains_8h.html" target="_top" xlink:title="Functions to modify unstructured domains, e.g. to incorporate ligands binding to unpaired stretches.">
<polygon fill="none" stroke="black" points="473.5,-123.5 473.5,-153.5 598.5,-153.5 598.5,-123.5 473.5,-123.5"/>
<text text-anchor="start" x="481.5" y="-141.5" font-family="Helvetica,sans-Serif" font-size="10.00">ViennaRNA/unstructured</text>
<text text-anchor="middle" x="536" y="-130.5" font-family="Helvetica,sans-Serif" font-size="10.00">_domains.h</text>
</a>
</g>
</g>
<!-- Node3&#45;&gt;Node15 -->
<g id="edge42" class="edge">
<title>Node3&#45;&gt;Node15</title>
<path fill="none" stroke="midnightblue" d="M529.08,-313.2C525.45,-286.33 526.69,-204.74 530.72,-163.67"/>
<polygon fill="midnightblue" stroke="midnightblue" points="534.2,-164.03 531.86,-153.69 527.24,-163.23 534.2,-164.03"/>
</g>
<!-- Node17 -->
<g id="node17" class="node">
<title>Node17</title>
<g id="a_node17"><a xlink:href="sequence_8h.html" target="_top" xlink:title="Functions and data structures related to sequence representations ,.">
<polygon fill="none" stroke="black" points="261,-257.5 261,-276.5 383,-276.5 383,-257.5 261,-257.5"/>
<text text-anchor="middle" x="322" y="-264.5" font-family="Helvetica,sans-Serif" font-size="10.00">ViennaRNA/sequence.h</text>
</a>
</g>
</g>
<!-- Node3&#45;&gt;Node17 -->
<g id="edge35" class="edge">
<title>Node3&#45;&gt;Node17</title>
<path fill="none" stroke="midnightblue" d="M493.64,-313.44C455.67,-304.2 398.07,-289.44 360.17,-279.26"/>
<polygon fill="midnightblue" stroke="midnightblue" points="360.61,-275.75 350.04,-276.52 358.78,-282.51 360.61,-275.75"/>
</g>
<!-- Node3&#45;&gt;Node18 -->
<g id="edge43" class="edge">
<title>Node3&#45;&gt;Node18</title>
<path fill="none" stroke="midnightblue" d="M605.22,-314.18C685.65,-305.5 818.6,-290.88 933,-277 934.46,-276.82 935.94,-276.64 937.43,-276.46"/>
<polygon fill="midnightblue" stroke="midnightblue" points="937.91,-279.93 947.4,-275.21 937.04,-272.98 937.91,-279.93"/>
</g>
<!-- Node5&#45;&gt;Node3 -->
<g id="edge33" class="edge">
<title>Node5&#45;&gt;Node3</title>
<path fill="none" stroke="midnightblue" d="M658.37,-276.52C636.28,-285.55 598.27,-299.88 569.61,-310.04"/>
<polygon fill="midnightblue" stroke="midnightblue" points="568.18,-306.83 559.91,-313.44 570.5,-313.44 568.18,-306.83"/>
</g>
<!-- Node5&#45;&gt;Node4 -->
<g id="edge34" class="edge">
<title>Node5&#45;&gt;Node4</title>
<path fill="none" stroke="midnightblue" d="M687.94,-257.42C708.73,-242.69 753.15,-212.03 793,-190 818.92,-175.67 849.62,-161.7 871.82,-152.1"/>
<polygon fill="midnightblue" stroke="midnightblue" points="873.26,-155.29 881.08,-148.14 870.51,-148.86 873.26,-155.29"/>
</g>
<!-- Node6 -->
<g id="node6" class="node">
<title>Node6</title>
<g id="a_node6"><a xlink:href="constants_8h.html" target="_top" xlink:title="Energy parameter constants.">
<polygon fill="none" stroke="black" points="673,-129 673,-148 831,-148 831,-129 673,-129"/>
<text text-anchor="middle" x="752" y="-136" font-family="Helvetica,sans-Serif" font-size="10.00">ViennaRNA/params/constants.h</text>
</a>
</g>
</g>
<!-- Node5&#45;&gt;Node6 -->
<g id="edge5" class="edge">
<title>Node5&#45;&gt;Node6</title>
<path fill="none" stroke="midnightblue" d="M683.77,-257.46C691.5,-248.71 703.42,-234.52 712,-221 725.15,-200.28 737.1,-174.62 744.44,-157.69"/>
<polygon fill="midnightblue" stroke="midnightblue" points="747.7,-158.97 748.39,-148.4 741.26,-156.23 747.7,-158.97"/>
</g>
<!-- Node8 -->
<g id="node8" class="node">
<title>Node8</title>
<g id="a_node8"><a xlink:href="datastructures_2basic_8h.html" target="_top" xlink:title="Various data structures and pre&#45;processor macros.">
<polygon fill="none" stroke="black" points="569,-190.5 569,-220.5 703,-220.5 703,-190.5 569,-190.5"/>
<text text-anchor="start" x="577" y="-208.5" font-family="Helvetica,sans-Serif" font-size="10.00">ViennaRNA/datastructures</text>
<text text-anchor="middle" x="636" y="-197.5" font-family="Helvetica,sans-Serif" font-size="10.00">/basic.h</text>
</a>
</g>
</g>
<!-- Node5&#45;&gt;Node8 -->
<g id="edge7" class="edge">
<title>Node5&#45;&gt;Node8</title>
<path fill="none" stroke="midnightblue" d="M665.37,-257.48C658.8,-250.09 650.83,-239.08 644.66,-229.17"/>
<polygon fill="midnightblue" stroke="midnightblue" points="647.67,-227.38 639.6,-220.52 641.63,-230.92 647.67,-227.38"/>
</g>
<!-- Node7 -->
<g id="node7" class="node">
<title>Node7</title>
<g id="a_node7"><a xlink:title=" ">
<polygon fill="none" stroke="#bfbfbf" points="728,-62 728,-81 776,-81 776,-62 728,-62"/>
<text text-anchor="middle" x="752" y="-69" font-family="Helvetica,sans-Serif" font-size="10.00">limits.h</text>
</a>
</g>
</g>
<!-- Node6&#45;&gt;Node7 -->
<g id="edge6" class="edge">
<title>Node6&#45;&gt;Node7</title>
<path fill="none" stroke="midnightblue" d="M752,-128.73C752,-119.18 752,-103.62 752,-91.28"/>
<polygon fill="midnightblue" stroke="midnightblue" points="755.5,-91.13 752,-81.13 748.5,-91.13 755.5,-91.13"/>
</g>
<!-- Node8&#45;&gt;Node3 -->
<g id="edge9" class="edge">
<title>Node8&#45;&gt;Node3</title>
<path fill="none" stroke="midnightblue" d="M623.35,-220.55C603.97,-242.07 567.01,-283.11 546.55,-305.84"/>
<polygon fill="midnightblue" stroke="midnightblue" points="543.91,-303.55 539.82,-313.32 549.11,-308.23 543.91,-303.55"/>
</g>
<!-- Node8&#45;&gt;Node4 -->
<g id="edge10" class="edge">
<title>Node8&#45;&gt;Node4</title>
<path fill="none" stroke="midnightblue" d="M693.39,-190.48C742.52,-178.47 812.26,-161.43 857.32,-150.42"/>
<polygon fill="midnightblue" stroke="midnightblue" points="858.21,-153.8 867.1,-148.03 856.55,-147 858.21,-153.8"/>
</g>
<!-- Node8&#45;&gt;Node5 -->
<g id="edge11" class="edge">
<title>Node8&#45;&gt;Node5</title>
<path fill="none" stroke="midnightblue" d="M651.26,-220.52C657.94,-228.86 665.22,-239.5 670.39,-248.39"/>
<polygon fill="midnightblue" stroke="midnightblue" points="667.41,-250.26 675.17,-257.48 673.61,-247 667.41,-250.26"/>
</g>
<!-- Node8&#45;&gt;Node6 -->
<g id="edge8" class="edge">
<title>Node8&#45;&gt;Node6</title>
<path fill="none" stroke="midnightblue" d="M661.17,-190.4C680.98,-179.29 708.42,-163.92 727.94,-152.98"/>
<polygon fill="midnightblue" stroke="midnightblue" points="729.81,-155.95 736.82,-148.01 726.38,-149.84 729.81,-155.95"/>
</g>
<!-- Node8&#45;&gt;Node9 -->
<g id="edge12" class="edge">
<title>Node8&#45;&gt;Node9</title>
<path fill="none" stroke="midnightblue" d="M703.3,-193.82C767.94,-184.08 868.13,-168.97 955,-154 962.36,-152.73 970.11,-151.33 977.83,-149.91"/>
<polygon fill="midnightblue" stroke="midnightblue" points="978.72,-153.31 987.92,-148.05 977.45,-146.42 978.72,-153.31"/>
</g>
<!-- Node8&#45;&gt;Node10 -->
<g id="edge15" class="edge">
<title>Node8&#45;&gt;Node10</title>
<path fill="none" stroke="midnightblue" d="M568.93,-194.49C508.5,-185.25 416.97,-170.73 328.6,-154.25"/>
<polygon fill="midnightblue" stroke="midnightblue" points="329.15,-150.8 318.67,-152.39 327.85,-157.68 329.15,-150.8"/>
</g>
<!-- Node8&#45;&gt;Node12 -->
<g id="edge19" class="edge">
<title>Node8&#45;&gt;Node12</title>
<path fill="none" stroke="midnightblue" d="M578.55,-190.48C540.29,-180.47 490.33,-166.97 452.31,-156.38"/>
<polygon fill="midnightblue" stroke="midnightblue" points="453,-152.93 442.42,-153.61 451.11,-159.68 453,-152.93"/>
</g>
<!-- Node8&#45;&gt;Node13 -->
<g id="edge23" class="edge">
<title>Node8&#45;&gt;Node13</title>
<path fill="none" stroke="midnightblue" d="M703.08,-199.75C796.16,-192.63 969.56,-177.48 1116,-154 1122.79,-152.91 1129.93,-151.58 1136.91,-150.16"/>
<polygon fill="midnightblue" stroke="midnightblue" points="1137.91,-153.53 1146.97,-148.05 1136.47,-146.68 1137.91,-153.53"/>
</g>
<!-- Node8&#45;&gt;Node14 -->
<g id="edge25" class="edge">
<title>Node8&#45;&gt;Node14</title>
<path fill="none" stroke="midnightblue" d="M568.83,-199.08C483.33,-191.69 330.92,-176.89 191.54,-154.16"/>
<polygon fill="midnightblue" stroke="midnightblue" points="191.96,-150.68 181.52,-152.51 190.82,-157.59 191.96,-150.68"/>
</g>
<!-- Node8&#45;&gt;Node15 -->
<g id="edge26" class="edge">
<title>Node8&#45;&gt;Node15</title>
<path fill="none" stroke="midnightblue" d="M608.62,-190.4C593.55,-181.37 575.11,-169.51 560.51,-159.52"/>
<polygon fill="midnightblue" stroke="midnightblue" points="562.19,-156.42 551.98,-153.58 558.19,-162.16 562.19,-156.42"/>
</g>
<!-- Node16 -->
<g id="node16" class="node">
<title>Node16</title>
<g id="a_node16"><a xlink:href="utils_2structures_8h.html" target="_top" xlink:title="Various utility&#45; and helper&#45;functions for secondary structure parsing, converting,...">
<polygon fill="none" stroke="black" points="514,-62 514,-81 658,-81 658,-62 514,-62"/>
<text text-anchor="middle" x="586" y="-69" font-family="Helvetica,sans-Serif" font-size="10.00">ViennaRNA/utils/structures.h</text>
</a>
</g>
</g>
<!-- Node8&#45;&gt;Node16 -->
<g id="edge32" class="edge">
<title>Node8&#45;&gt;Node16</title>
<path fill="none" stroke="midnightblue" d="M624.98,-190.24C617.21,-173.87 608.06,-146.29 599,-123 594.86,-112.37 589.81,-100.67 586.49,-91.22"/>
<polygon fill="midnightblue" stroke="midnightblue" points="589.76,-89.94 583.57,-81.35 583.05,-91.93 589.76,-89.94"/>
</g>
<!-- Node9&#45;&gt;Node3 -->
<g id="edge14" class="edge">
<title>Node9&#45;&gt;Node3</title>
<path fill="none" stroke="midnightblue" d="M1008.85,-148.02C978.7,-156.07 932.68,-169.92 896,-190 842.23,-219.42 844.68,-251.39 789,-277 734.58,-302.03 667.46,-313.16 615.4,-318.09"/>
<polygon fill="midnightblue" stroke="midnightblue" points="614.85,-314.63 605.2,-319 615.47,-321.6 614.85,-314.63"/>
</g>
<!-- Node9&#45;&gt;Node8 -->
<g id="edge13" class="edge">
<title>Node9&#45;&gt;Node8</title>
<path fill="none" stroke="midnightblue" d="M1005.37,-148.05C994.98,-150.07 983.59,-152.18 973,-154 884.43,-169.26 782.01,-184.68 713.47,-194.39"/>
<polygon fill="midnightblue" stroke="midnightblue" points="712.61,-190.98 703.19,-195.84 713.58,-197.91 712.61,-190.98"/>
</g>
<!-- Node10&#45;&gt;Node3 -->
<g id="edge16" class="edge">
<title>Node10&#45;&gt;Node3</title>
<path fill="none" stroke="midnightblue" d="M284.16,-153.75C338.87,-187.74 466.79,-273.24 514.16,-307.49"/>
<polygon fill="midnightblue" stroke="midnightblue" points="512.14,-310.35 522.27,-313.44 516.28,-304.7 512.14,-310.35"/>
</g>
<!-- Node11 -->
<g id="node11" class="node">
<title>Node11</title>
<g id="a_node11"><a xlink:href="constraints_2basic_8h.html" target="_top" xlink:title="Functions and data structures for constraining secondary structure predictions and evaluation.">
<polygon fill="none" stroke="black" points="199.5,-56.5 199.5,-86.5 318.5,-86.5 318.5,-56.5 199.5,-56.5"/>
<text text-anchor="start" x="207.5" y="-74.5" font-family="Helvetica,sans-Serif" font-size="10.00">ViennaRNA/constraints</text>
<text text-anchor="middle" x="259" y="-63.5" font-family="Helvetica,sans-Serif" font-size="10.00">/basic.h</text>
</a>
</g>
</g>
<!-- Node10&#45;&gt;Node11 -->
<g id="edge17" class="edge">
<title>Node10&#45;&gt;Node11</title>
<path fill="none" stroke="midnightblue" d="M259,-123.4C259,-115.64 259,-105.81 259,-96.86"/>
<polygon fill="midnightblue" stroke="midnightblue" points="262.5,-96.58 259,-86.58 255.5,-96.58 262.5,-96.58"/>
</g>
<!-- Node11&#45;&gt;Node3 -->
<g id="edge18" class="edge">
<title>Node11&#45;&gt;Node3</title>
<path fill="none" stroke="midnightblue" d="M199.32,-74.19C129.86,-78.85 28.09,-95.52 57,-154 96.91,-234.72 134.97,-242.15 218,-277 291.99,-308.05 383.47,-318.33 448.57,-321.43"/>
<polygon fill="midnightblue" stroke="midnightblue" points="448.64,-324.94 458.78,-321.87 448.94,-317.94 448.64,-324.94"/>
</g>
<!-- Node12&#45;&gt;Node3 -->
<g id="edge21" class="edge">
<title>Node12&#45;&gt;Node3</title>
<path fill="none" stroke="midnightblue" d="M417.79,-153.55C428.86,-163.4 441.72,-177.06 452,-190 482.83,-228.8 514.13,-278 527.03,-304"/>
<polygon fill="midnightblue" stroke="midnightblue" points="523.95,-305.68 531.26,-313.34 530.32,-302.79 523.95,-305.68"/>
</g>
<!-- Node12&#45;&gt;Node8 -->
<g id="edge20" class="edge">
<title>Node12&#45;&gt;Node8</title>
<path fill="none" stroke="midnightblue" d="M453.78,-153.61C492.11,-163.63 542.07,-177.14 580.02,-187.71"/>
<polygon fill="midnightblue" stroke="midnightblue" points="579.31,-191.15 589.89,-190.48 581.2,-184.41 579.31,-191.15"/>
</g>
<!-- Node12&#45;&gt;Node11 -->
<g id="edge22" class="edge">
<title>Node12&#45;&gt;Node11</title>
<path fill="none" stroke="midnightblue" d="M366.27,-123.4C346.26,-113.9 319.65,-101.28 297.95,-90.98"/>
<polygon fill="midnightblue" stroke="midnightblue" points="299.2,-87.7 288.67,-86.58 296.2,-94.03 299.2,-87.7"/>
</g>
<!-- Node13&#45;&gt;Node3 -->
<g id="edge24" class="edge">
<title>Node13&#45;&gt;Node3</title>
<path fill="none" stroke="midnightblue" d="M1168.55,-148.05C1120.52,-172.09 963.83,-240.87 827,-277 756.94,-295.5 675.09,-307.43 615.34,-314.33"/>
<polygon fill="midnightblue" stroke="midnightblue" points="614.74,-310.88 605.2,-315.48 615.53,-317.83 614.74,-310.88"/>
</g>
<!-- Node15&#45;&gt;Node3 -->
<g id="edge28" class="edge">
<title>Node15&#45;&gt;Node3</title>
<path fill="none" stroke="midnightblue" d="M539.52,-153.69C542.52,-186.21 540.94,-266.09 536.75,-302.88"/>
<polygon fill="midnightblue" stroke="midnightblue" points="533.23,-302.81 535.3,-313.2 540.16,-303.78 533.23,-302.81"/>
</g>
<!-- Node15&#45;&gt;Node8 -->
<g id="edge27" class="edge">
<title>Node15&#45;&gt;Node8</title>
<path fill="none" stroke="midnightblue" d="M563.33,-153.58C578.4,-162.6 596.84,-174.45 611.44,-184.45"/>
<polygon fill="midnightblue" stroke="midnightblue" points="609.77,-187.55 619.98,-190.4 613.77,-181.81 609.77,-187.55"/>
</g>
<!-- Node15&#45;&gt;Node16 -->
<g id="edge29" class="edge">
<title>Node15&#45;&gt;Node16</title>
<path fill="none" stroke="midnightblue" d="M546.85,-123.4C554.57,-113.36 564.97,-99.84 573.11,-89.25"/>
<polygon fill="midnightblue" stroke="midnightblue" points="575.99,-91.25 579.31,-81.19 570.44,-86.99 575.99,-91.25"/>
</g>
<!-- Node16&#45;&gt;Node2 -->
<g id="edge30" class="edge">
<title>Node16&#45;&gt;Node2</title>
<path fill="none" stroke="midnightblue" d="M540.44,-61.98C475.61,-49.84 358.27,-27.89 301.1,-17.19"/>
<polygon fill="midnightblue" stroke="midnightblue" points="301.63,-13.73 291.15,-15.33 300.34,-20.61 301.63,-13.73"/>
</g>
<!-- Node16&#45;&gt;Node8 -->
<g id="edge31" class="edge">
<title>Node16&#45;&gt;Node8</title>
<path fill="none" stroke="midnightblue" d="M596.66,-81.35C603.7,-91.36 611.25,-108.2 617,-123 624.43,-142.1 631.92,-164.1 635.91,-180.42"/>
<polygon fill="midnightblue" stroke="midnightblue" points="632.49,-181.18 637.99,-190.24 639.34,-179.73 632.49,-181.18"/>
</g>
<!-- Node17&#45;&gt;Node3 -->
<g id="edge36" class="edge">
<title>Node17&#45;&gt;Node3</title>
<path fill="none" stroke="midnightblue" d="M360.2,-276.52C398.27,-285.78 456.2,-300.63 494.15,-310.83"/>
<polygon fill="midnightblue" stroke="midnightblue" points="493.25,-314.21 503.81,-313.44 495.07,-307.45 493.25,-314.21"/>
</g>
</g>
</svg>
