<?xml version="1.0" encoding="UTF-8" standalone="no"?>
<!DOCTYPE svg PUBLIC "-//W3C//DTD SVG 1.1//EN"
 "http://www.w3.org/Graphics/SVG/1.1/DTD/svg11.dtd">
<!-- Generated by graphviz version 2.47.0 (0)
 -->
<!-- Title: ViennaRNA/landscape/move.h Pages: 1 -->
<svg width="546pt" height="229pt"
 viewBox="0.00 0.00 546.00 229.00" xmlns="http://www.w3.org/2000/svg" xmlns:xlink="http://www.w3.org/1999/xlink">
<g id="graph0" class="graph" transform="scale(1 1) rotate(0) translate(4 225)">
<title>ViennaRNA/landscape/move.h</title>
<!-- Node1 -->
<g id="node1" class="node">
<title>Node1</title>
<g id="a_node1"><a xlink:title="Methods to operate with structural neighbors of RNA secondary structures.">
<polygon fill="#bfbfbf" stroke="black" points="154,-190.5 154,-220.5 270,-220.5 270,-190.5 154,-190.5"/>
<text text-anchor="start" x="162" y="-208.5" font-family="Helvetica,sans-Serif" font-size="10.00">ViennaRNA/landscape</text>
<text text-anchor="middle" x="212" y="-197.5" font-family="Helvetica,sans-Serif" font-size="10.00">/move.h</text>
</a>
</g>
</g>
<!-- Node2 -->
<g id="node2" class="node">
<title>Node2</title>
<g id="a_node2"><a xlink:href="eval_8h.html" target="_top" xlink:title="Functions and variables related to energy evaluation of sequence/structure pairs.">
<polygon fill="none" stroke="black" points="0,-129 0,-148 98,-148 98,-129 0,-129"/>
<text text-anchor="middle" x="49" y="-136" font-family="Helvetica,sans-Serif" font-size="10.00">ViennaRNA/eval.h</text>
</a>
</g>
</g>
<!-- Node1&#45;&gt;Node2 -->
<g id="edge1" class="edge">
<title>Node1&#45;&gt;Node2</title>
<path fill="none" stroke="midnightblue" d="M167.17,-186.62C135.62,-174.04 94.81,-157.77 70.33,-148.01"/>
<polygon fill="midnightblue" stroke="midnightblue" points="166.05,-189.94 176.63,-190.4 168.64,-183.44 166.05,-189.94"/>
</g>
<!-- Node4 -->
<g id="node4" class="node">
<title>Node4</title>
<g id="a_node4"><a xlink:href="neighbor_8h.html" target="_top" xlink:title="Use ViennaRNA/landscape/neighbor.h instead.">
<polygon fill="none" stroke="black" points="135,-62 135,-81 251,-81 251,-62 135,-62"/>
<text text-anchor="middle" x="193" y="-69" font-family="Helvetica,sans-Serif" font-size="10.00">ViennaRNA/neighbor.h</text>
</a>
</g>
</g>
<!-- Node1&#45;&gt;Node4 -->
<g id="edge3" class="edge">
<title>Node1&#45;&gt;Node4</title>
<path fill="none" stroke="midnightblue" d="M173.66,-184.75C162.32,-176.83 151.27,-166.57 145,-154 138.85,-141.67 139.89,-135.79 145,-123 152.09,-105.25 168.71,-90.18 180.4,-81.23"/>
<polygon fill="midnightblue" stroke="midnightblue" points="172.02,-187.85 182.31,-190.34 175.81,-181.97 172.02,-187.85"/>
</g>
<!-- Node5 -->
<g id="node5" class="node">
<title>Node5</title>
<g id="a_node5"><a xlink:href="landscape_2neighbor_8h.html" target="_top" xlink:title="Methods to compute the neighbors of an RNA secondary structure.">
<polygon fill="none" stroke="black" points="154,-123.5 154,-153.5 270,-153.5 270,-123.5 154,-123.5"/>
<text text-anchor="start" x="162" y="-141.5" font-family="Helvetica,sans-Serif" font-size="10.00">ViennaRNA/landscape</text>
<text text-anchor="middle" x="212" y="-130.5" font-family="Helvetica,sans-Serif" font-size="10.00">/neighbor.h</text>
</a>
</g>
</g>
<!-- Node1&#45;&gt;Node5 -->
<g id="edge4" class="edge">
<title>Node1&#45;&gt;Node5</title>
<path fill="none" stroke="midnightblue" d="M212,-180.11C212,-171.15 212,-161.32 212,-153.58"/>
<polygon fill="midnightblue" stroke="midnightblue" points="208.5,-180.4 212,-190.4 215.5,-180.4 208.5,-180.4"/>
</g>
<!-- Node7 -->
<g id="node7" class="node">
<title>Node7</title>
<g id="a_node7"><a xlink:href="paths_8h.html" target="_top" xlink:title="API for computing (optimal) (re&#45;)folding paths between secondary structures.">
<polygon fill="none" stroke="black" points="422,-123.5 422,-153.5 538,-153.5 538,-123.5 422,-123.5"/>
<text text-anchor="start" x="430" y="-141.5" font-family="Helvetica,sans-Serif" font-size="10.00">ViennaRNA/landscape</text>
<text text-anchor="middle" x="480" y="-130.5" font-family="Helvetica,sans-Serif" font-size="10.00">/paths.h</text>
</a>
</g>
</g>
<!-- Node1&#45;&gt;Node7 -->
<g id="edge7" class="edge">
<title>Node1&#45;&gt;Node7</title>
<path fill="none" stroke="midnightblue" d="M279.54,-188.12C323.39,-177.48 379.96,-163.76 421.82,-153.61"/>
<polygon fill="midnightblue" stroke="midnightblue" points="278.72,-184.72 269.82,-190.48 280.37,-191.52 278.72,-184.72"/>
</g>
<!-- Node10 -->
<g id="node10" class="node">
<title>Node10</title>
<g id="a_node10"><a xlink:href="landscape_2walk_8h.html" target="_top" xlink:title="Methods to generate particular paths such as gradient or random walks through the energy landscape of...">
<polygon fill="none" stroke="black" points="288,-123.5 288,-153.5 404,-153.5 404,-123.5 288,-123.5"/>
<text text-anchor="start" x="296" y="-141.5" font-family="Helvetica,sans-Serif" font-size="10.00">ViennaRNA/landscape</text>
<text text-anchor="middle" x="346" y="-130.5" font-family="Helvetica,sans-Serif" font-size="10.00">/walk.h</text>
</a>
</g>
</g>
<!-- Node1&#45;&gt;Node10 -->
<g id="edge10" class="edge">
<title>Node1&#45;&gt;Node10</title>
<path fill="none" stroke="midnightblue" d="M250.15,-185.99C271.39,-175.69 297.41,-163.07 316.98,-153.58"/>
<polygon fill="midnightblue" stroke="midnightblue" points="248.55,-182.88 241.08,-190.4 251.6,-189.18 248.55,-182.88"/>
</g>
<!-- Node3 -->
<g id="node3" class="node">
<title>Node3</title>
<g id="a_node3"><a xlink:href="fold_8h.html" target="_top" xlink:title="MFE calculations for single RNA sequences.">
<polygon fill="none" stroke="black" points="1.5,-62 1.5,-81 96.5,-81 96.5,-62 1.5,-62"/>
<text text-anchor="middle" x="49" y="-69" font-family="Helvetica,sans-Serif" font-size="10.00">ViennaRNA/fold.h</text>
</a>
</g>
</g>
<!-- Node2&#45;&gt;Node3 -->
<g id="edge2" class="edge">
<title>Node2&#45;&gt;Node3</title>
<path fill="none" stroke="midnightblue" d="M49,-118.54C49,-106.17 49,-90.62 49,-81.13"/>
<polygon fill="midnightblue" stroke="midnightblue" points="45.5,-118.73 49,-128.73 52.5,-118.73 45.5,-118.73"/>
</g>
<!-- Node5&#45;&gt;Node4 -->
<g id="edge5" class="edge">
<title>Node5&#45;&gt;Node4</title>
<path fill="none" stroke="midnightblue" d="M205.01,-113.6C201.7,-102.28 197.96,-89.46 195.54,-81.19"/>
<polygon fill="midnightblue" stroke="midnightblue" points="201.71,-114.78 207.88,-123.4 208.43,-112.82 201.71,-114.78"/>
</g>
<!-- Node6 -->
<g id="node6" class="node">
<title>Node6</title>
<g id="a_node6"><a xlink:href="walk_8h.html" target="_top" xlink:title="Use ViennaRNA/landscape/walk.h instead.">
<polygon fill="none" stroke="black" points="283,-62 283,-81 383,-81 383,-62 283,-62"/>
<text text-anchor="middle" x="333" y="-69" font-family="Helvetica,sans-Serif" font-size="10.00">ViennaRNA/walk.h</text>
</a>
</g>
</g>
<!-- Node5&#45;&gt;Node6 -->
<g id="edge6" class="edge">
<title>Node5&#45;&gt;Node6</title>
<path fill="none" stroke="midnightblue" d="M247.11,-118.64C270.26,-106.2 299.47,-90.51 317.16,-81.01"/>
<polygon fill="midnightblue" stroke="midnightblue" points="245.41,-115.58 238.26,-123.4 248.72,-121.75 245.41,-115.58"/>
</g>
<!-- Node8 -->
<g id="node8" class="node">
<title>Node8</title>
<g id="a_node8"><a xlink:href="landscape_2findpath_8h.html" target="_top" xlink:title="A breadth&#45;first search heuristic for optimal direct folding paths.">
<polygon fill="none" stroke="black" points="422,-56.5 422,-86.5 538,-86.5 538,-56.5 422,-56.5"/>
<text text-anchor="start" x="430" y="-74.5" font-family="Helvetica,sans-Serif" font-size="10.00">ViennaRNA/landscape</text>
<text text-anchor="middle" x="480" y="-63.5" font-family="Helvetica,sans-Serif" font-size="10.00">/findpath.h</text>
</a>
</g>
</g>
<!-- Node7&#45;&gt;Node8 -->
<g id="edge8" class="edge">
<title>Node7&#45;&gt;Node8</title>
<path fill="none" stroke="midnightblue" d="M480,-113.11C480,-104.15 480,-94.32 480,-86.58"/>
<polygon fill="midnightblue" stroke="midnightblue" points="476.5,-113.4 480,-123.4 483.5,-113.4 476.5,-113.4"/>
</g>
<!-- Node9 -->
<g id="node9" class="node">
<title>Node9</title>
<g id="a_node9"><a xlink:href="findpath_8h.html" target="_top" xlink:title="Use ViennaRNA/landscape/findpath.h instead.">
<polygon fill="none" stroke="black" points="423,-0.5 423,-19.5 537,-19.5 537,-0.5 423,-0.5"/>
<text text-anchor="middle" x="480" y="-7.5" font-family="Helvetica,sans-Serif" font-size="10.00">ViennaRNA/findpath.h</text>
</a>
</g>
</g>
<!-- Node8&#45;&gt;Node9 -->
<g id="edge9" class="edge">
<title>Node8&#45;&gt;Node9</title>
<path fill="none" stroke="midnightblue" d="M480,-46.29C480,-36.86 480,-26.65 480,-19.66"/>
<polygon fill="midnightblue" stroke="midnightblue" points="476.5,-46.4 480,-56.4 483.5,-46.4 476.5,-46.4"/>
</g>
<!-- Node10&#45;&gt;Node6 -->
<g id="edge11" class="edge">
<title>Node10&#45;&gt;Node6</title>
<path fill="none" stroke="midnightblue" d="M341.15,-113.25C338.9,-102.02 336.38,-89.38 334.74,-81.19"/>
<polygon fill="midnightblue" stroke="midnightblue" points="337.79,-114.28 343.18,-123.4 344.65,-112.9 337.79,-114.28"/>
</g>
</g>
</svg>
