<?xml version="1.0" encoding="UTF-8" standalone="no"?>
<!DOCTYPE svg PUBLIC "-//W3C//DTD SVG 1.1//EN"
 "http://www.w3.org/Graphics/SVG/1.1/DTD/svg11.dtd">
<!-- Generated by graphviz version 2.47.0 (0)
 -->
<!-- Title: ViennaRNA/loops/multibranch.h Pages: 1 -->
<svg width="276pt" height="151pt"
 viewBox="0.00 0.00 276.00 151.00" xmlns="http://www.w3.org/2000/svg" xmlns:xlink="http://www.w3.org/1999/xlink">
<g id="graph0" class="graph" transform="scale(1 1) rotate(0) translate(4 147)">
<title>ViennaRNA/loops/multibranch.h</title>
<!-- Node1 -->
<g id="node1" class="node">
<title>Node1</title>
<g id="a_node1"><a xlink:title="Energy evaluation of multibranch loops for MFE and partition function calculations.">
<polygon fill="#bfbfbf" stroke="black" points="51,-123.5 51,-142.5 207,-142.5 207,-123.5 51,-123.5"/>
<text text-anchor="middle" x="129" y="-130.5" font-family="Helvetica,sans-Serif" font-size="10.00">ViennaRNA/loops/multibranch.h</text>
</a>
</g>
</g>
<!-- Node2 -->
<g id="node2" class="node">
<title>Node2</title>
<g id="a_node2"><a xlink:href="multibranch__loops_8h.html" target="_top" xlink:title="Use ViennaRNA/loops/multibranch.h instead.">
<polygon fill="none" stroke="black" points="0,-56.5 0,-86.5 122,-86.5 122,-56.5 0,-56.5"/>
<text text-anchor="start" x="8" y="-74.5" font-family="Helvetica,sans-Serif" font-size="10.00">ViennaRNA/multibranch</text>
<text text-anchor="middle" x="61" y="-63.5" font-family="Helvetica,sans-Serif" font-size="10.00">_loops.h</text>
</a>
</g>
</g>
<!-- Node1&#45;&gt;Node2 -->
<g id="edge1" class="edge">
<title>Node1&#45;&gt;Node2</title>
<path fill="none" stroke="midnightblue" d="M111.45,-116.65C100.82,-107.35 87.37,-95.57 77.03,-86.52"/>
<polygon fill="midnightblue" stroke="midnightblue" points="109.43,-119.52 119.26,-123.48 114.04,-114.26 109.43,-119.52"/>
</g>
<!-- Node3 -->
<g id="node3" class="node">
<title>Node3</title>
<g id="a_node3"><a xlink:href="all_8h.html" target="_top" xlink:title="Energy evaluation for MFE and partition function calculations.">
<polygon fill="none" stroke="black" points="140,-62 140,-81 256,-81 256,-62 140,-62"/>
<text text-anchor="middle" x="198" y="-69" font-family="Helvetica,sans-Serif" font-size="10.00">ViennaRNA/loops/all.h</text>
</a>
</g>
</g>
<!-- Node1&#45;&gt;Node3 -->
<g id="edge2" class="edge">
<title>Node1&#45;&gt;Node3</title>
<path fill="none" stroke="midnightblue" d="M146.8,-116.65C159.96,-105.31 177.38,-90.28 188.13,-81.01"/>
<polygon fill="midnightblue" stroke="midnightblue" points="144.17,-114.29 138.89,-123.48 148.74,-119.6 144.17,-114.29"/>
</g>
<!-- Node4 -->
<g id="node4" class="node">
<title>Node4</title>
<g id="a_node4"><a xlink:href="loop__energies_8h.html" target="_top" xlink:title="Use ViennaRNA/loops/all.h instead.">
<polygon fill="none" stroke="black" points="128,-0.5 128,-19.5 268,-19.5 268,-0.5 128,-0.5"/>
<text text-anchor="middle" x="198" y="-7.5" font-family="Helvetica,sans-Serif" font-size="10.00">ViennaRNA/loop_energies.h</text>
</a>
</g>
</g>
<!-- Node3&#45;&gt;Node4 -->
<g id="edge3" class="edge">
<title>Node3&#45;&gt;Node4</title>
<path fill="none" stroke="midnightblue" d="M198,-51.82C198,-41 198,-27.9 198,-19.51"/>
<polygon fill="midnightblue" stroke="midnightblue" points="194.5,-51.98 198,-61.98 201.5,-51.98 194.5,-51.98"/>
</g>
</g>
</svg>
