<?xml version="1.0" encoding="UTF-8" standalone="no"?>
<!DOCTYPE svg PUBLIC "-//W3C//DTD SVG 1.1//EN"
 "http://www.w3.org/Graphics/SVG/1.1/DTD/svg11.dtd">
<!-- Generated by graphviz version 2.47.0 (0)
 -->
<!-- Title: ViennaRNA/loops/multibranch.h Pages: 1 -->
<svg width="1614pt" height="397pt"
 viewBox="0.00 0.00 1614.00 397.00" xmlns="http://www.w3.org/2000/svg" xmlns:xlink="http://www.w3.org/1999/xlink">
<g id="graph0" class="graph" transform="scale(1 1) rotate(0) translate(4 393)">
<title>ViennaRNA/loops/multibranch.h</title>
<!-- Node1 -->
<g id="node1" class="node">
<title>Node1</title>
<g id="a_node1"><a xlink:title="Energy evaluation of multibranch loops for MFE and partition function calculations.">
<polygon fill="#bfbfbf" stroke="black" points="632,-369.5 632,-388.5 788,-388.5 788,-369.5 632,-369.5"/>
<text text-anchor="middle" x="710" y="-376.5" font-family="Helvetica,sans-Serif" font-size="10.00">ViennaRNA/loops/multibranch.h</text>
</a>
</g>
</g>
<!-- Node2 -->
<g id="node2" class="node">
<title>Node2</title>
<g id="a_node2"><a xlink:href="utils_2basic_8h.html" target="_top" xlink:title="General utility&#45; and helper&#45;functions used throughout the ViennaRNA Package.">
<polygon fill="none" stroke="black" points="250,-313.5 250,-332.5 374,-332.5 374,-313.5 250,-313.5"/>
<text text-anchor="middle" x="312" y="-320.5" font-family="Helvetica,sans-Serif" font-size="10.00">ViennaRNA/utils/basic.h</text>
</a>
</g>
</g>
<!-- Node1&#45;&gt;Node2 -->
<g id="edge1" class="edge">
<title>Node1&#45;&gt;Node2</title>
<path fill="none" stroke="midnightblue" d="M646.94,-369.44C575.55,-359.76 459.46,-344.01 384.42,-333.83"/>
<polygon fill="midnightblue" stroke="midnightblue" points="384.49,-330.3 374.11,-332.43 383.55,-337.24 384.49,-330.3"/>
</g>
<!-- Node5 -->
<g id="node5" class="node">
<title>Node5</title>
<g id="a_node5"><a xlink:href="datastructures_2basic_8h.html" target="_top" xlink:title="Various data structures and pre&#45;processor macros.">
<polygon fill="none" stroke="black" points="470,-246.5 470,-276.5 604,-276.5 604,-246.5 470,-246.5"/>
<text text-anchor="start" x="478" y="-264.5" font-family="Helvetica,sans-Serif" font-size="10.00">ViennaRNA/datastructures</text>
<text text-anchor="middle" x="537" y="-253.5" font-family="Helvetica,sans-Serif" font-size="10.00">/basic.h</text>
</a>
</g>
</g>
<!-- Node1&#45;&gt;Node5 -->
<g id="edge46" class="edge">
<title>Node1&#45;&gt;Node5</title>
<path fill="none" stroke="midnightblue" d="M697,-369.32C669.5,-350.96 604.85,-307.8 566.67,-282.31"/>
<polygon fill="midnightblue" stroke="midnightblue" points="568.3,-279.19 558.04,-276.55 564.41,-285.01 568.3,-279.19"/>
</g>
<!-- Node8 -->
<g id="node8" class="node">
<title>Node8</title>
<g id="a_node8"><a xlink:href="fold__compound_8h.html" target="_top" xlink:title="The Basic Fold Compound API.">
<polygon fill="none" stroke="black" points="715,-190.5 715,-209.5 861,-209.5 861,-190.5 715,-190.5"/>
<text text-anchor="middle" x="788" y="-197.5" font-family="Helvetica,sans-Serif" font-size="10.00">ViennaRNA/fold_compound.h</text>
</a>
</g>
</g>
<!-- Node1&#45;&gt;Node8 -->
<g id="edge47" class="edge">
<title>Node1&#45;&gt;Node8</title>
<path fill="none" stroke="midnightblue" d="M713.76,-369.46C725.78,-342.19 763.42,-256.78 780.01,-219.13"/>
<polygon fill="midnightblue" stroke="midnightblue" points="783.26,-220.43 784.09,-209.87 776.86,-217.61 783.26,-220.43"/>
</g>
<!-- Node10 -->
<g id="node10" class="node">
<title>Node10</title>
<g id="a_node10"><a xlink:href="params_2basic_8h.html" target="_top" xlink:title="Functions to deal with sets of energy parameters.">
<polygon fill="none" stroke="black" points="1383,-129 1383,-148 1521,-148 1521,-129 1383,-129"/>
<text text-anchor="middle" x="1452" y="-136" font-family="Helvetica,sans-Serif" font-size="10.00">ViennaRNA/params/basic.h</text>
</a>
</g>
</g>
<!-- Node1&#45;&gt;Node10 -->
<g id="edge48" class="edge">
<title>Node1&#45;&gt;Node10</title>
<path fill="none" stroke="midnightblue" d="M788.04,-377.84C925.98,-373.8 1216.39,-348.1 1408,-210 1426.05,-196.99 1438.32,-174.07 1445.22,-157.9"/>
<polygon fill="midnightblue" stroke="midnightblue" points="1448.55,-159.01 1448.99,-148.42 1442.05,-156.42 1448.55,-159.01"/>
</g>
<!-- Node3 -->
<g id="node3" class="node">
<title>Node3</title>
<g id="a_node3"><a xlink:title=" ">
<polygon fill="none" stroke="#bfbfbf" points="107,-0.5 107,-19.5 153,-19.5 153,-0.5 107,-0.5"/>
<text text-anchor="middle" x="130" y="-7.5" font-family="Helvetica,sans-Serif" font-size="10.00">stdio.h</text>
</a>
</g>
</g>
<!-- Node2&#45;&gt;Node3 -->
<g id="edge2" class="edge">
<title>Node2&#45;&gt;Node3</title>
<path fill="none" stroke="midnightblue" d="M249.83,-316.17C181.11,-305.91 80,-277.77 80,-201 80,-201 80,-201 80,-137.5 80,-100.31 83.97,-90.02 99,-56 103.45,-45.93 110.23,-35.75 116.32,-27.62"/>
<polygon fill="midnightblue" stroke="midnightblue" points="119.11,-29.74 122.51,-19.71 113.59,-25.43 119.11,-29.74"/>
</g>
<!-- Node4 -->
<g id="node4" class="node">
<title>Node4</title>
<g id="a_node4"><a xlink:title=" ">
<polygon fill="none" stroke="#bfbfbf" points="0,-252 0,-271 52,-271 52,-252 0,-252"/>
<text text-anchor="middle" x="26" y="-259" font-family="Helvetica,sans-Serif" font-size="10.00">stdarg.h</text>
</a>
</g>
</g>
<!-- Node2&#45;&gt;Node4 -->
<g id="edge3" class="edge">
<title>Node2&#45;&gt;Node4</title>
<path fill="none" stroke="midnightblue" d="M249.95,-313.58C199.82,-306.08 127.71,-293.7 66,-277 63.19,-276.24 60.3,-275.37 57.42,-274.44"/>
<polygon fill="midnightblue" stroke="midnightblue" points="58.39,-271.08 47.8,-271.15 56.12,-277.7 58.39,-271.08"/>
</g>
<!-- Node2&#45;&gt;Node5 -->
<g id="edge4" class="edge">
<title>Node2&#45;&gt;Node5</title>
<path fill="none" stroke="midnightblue" d="M344.24,-313.48C377.99,-304.55 431.84,-290.31 474.06,-279.14"/>
<polygon fill="midnightblue" stroke="midnightblue" points="475.2,-282.46 483.97,-276.52 473.41,-275.7 475.2,-282.46"/>
</g>
<!-- Node6 -->
<g id="node6" class="node">
<title>Node6</title>
<g id="a_node6"><a xlink:href="constants_8h.html" target="_top" xlink:title="Energy parameter constants.">
<polygon fill="none" stroke="black" points="1448,-62 1448,-81 1606,-81 1606,-62 1448,-62"/>
<text text-anchor="middle" x="1527" y="-69" font-family="Helvetica,sans-Serif" font-size="10.00">ViennaRNA/params/constants.h</text>
</a>
</g>
</g>
<!-- Node5&#45;&gt;Node6 -->
<g id="edge5" class="edge">
<title>Node5&#45;&gt;Node6</title>
<path fill="none" stroke="midnightblue" d="M604.12,-259.82C780.86,-257.51 1255.97,-247.87 1408,-210 1465.89,-195.58 1497.79,-204.22 1530,-154 1542.09,-135.15 1538.09,-108.48 1533.28,-90.85"/>
<polygon fill="midnightblue" stroke="midnightblue" points="1536.59,-89.72 1530.31,-81.19 1529.9,-91.78 1536.59,-89.72"/>
</g>
<!-- Node5&#45;&gt;Node8 -->
<g id="edge7" class="edge">
<title>Node5&#45;&gt;Node8</title>
<path fill="none" stroke="midnightblue" d="M596.17,-246.47C640.79,-235.9 701.12,-221.59 742.13,-211.87"/>
<polygon fill="midnightblue" stroke="midnightblue" points="743.19,-215.22 752.12,-209.51 741.58,-208.41 743.19,-215.22"/>
</g>
<!-- Node9 -->
<g id="node9" class="node">
<title>Node9</title>
<g id="a_node9"><a xlink:href="model_8h.html" target="_top" xlink:title="The model details data structure and its corresponding modifiers.">
<polygon fill="none" stroke="black" points="1302,-62 1302,-81 1408,-81 1408,-62 1302,-62"/>
<text text-anchor="middle" x="1355" y="-69" font-family="Helvetica,sans-Serif" font-size="10.00">ViennaRNA/model.h</text>
</a>
</g>
</g>
<!-- Node5&#45;&gt;Node9 -->
<g id="edge37" class="edge">
<title>Node5&#45;&gt;Node9</title>
<path fill="none" stroke="midnightblue" d="M604.07,-261.06C776.63,-261.07 1229.81,-251.6 1336,-154 1353.19,-138.2 1356.28,-110.14 1356.21,-91.42"/>
<polygon fill="midnightblue" stroke="midnightblue" points="1359.7,-91.04 1355.85,-81.17 1352.7,-91.29 1359.7,-91.04"/>
</g>
<!-- Node5&#45;&gt;Node10 -->
<g id="edge38" class="edge">
<title>Node5&#45;&gt;Node10</title>
<path fill="none" stroke="midnightblue" d="M604.23,-258.75C788.21,-253.75 1290.44,-237.98 1360,-210 1389.05,-198.32 1415.26,-172.24 1432.57,-155.28"/>
<polygon fill="midnightblue" stroke="midnightblue" points="1435.12,-157.69 1439.88,-148.22 1430.26,-152.65 1435.12,-157.69"/>
</g>
<!-- Node12 -->
<g id="node12" class="node">
<title>Node12</title>
<g id="a_node12"><a xlink:href="dp__matrices_8h.html" target="_top" xlink:title="Functions to deal with standard dynamic programming (DP) matrices.">
<polygon fill="none" stroke="black" points="444.5,-129 444.5,-148 577.5,-148 577.5,-129 444.5,-129"/>
<text text-anchor="middle" x="511" y="-136" font-family="Helvetica,sans-Serif" font-size="10.00">ViennaRNA/dp_matrices.h</text>
</a>
</g>
</g>
<!-- Node5&#45;&gt;Node12 -->
<g id="edge39" class="edge">
<title>Node5&#45;&gt;Node12</title>
<path fill="none" stroke="midnightblue" d="M529.36,-246.14C521.89,-224.2 512.73,-182.33 509.96,-158.09"/>
<polygon fill="midnightblue" stroke="midnightblue" points="513.45,-157.74 509.16,-148.05 506.47,-158.3 513.45,-157.74"/>
</g>
<!-- Node13 -->
<g id="node13" class="node">
<title>Node13</title>
<g id="a_node13"><a xlink:href="hard_8h.html" target="_top" xlink:title="Functions and data structures for handling of secondary structure hard constraints.">
<polygon fill="none" stroke="black" points="728.5,-123.5 728.5,-153.5 847.5,-153.5 847.5,-123.5 728.5,-123.5"/>
<text text-anchor="start" x="736.5" y="-141.5" font-family="Helvetica,sans-Serif" font-size="10.00">ViennaRNA/constraints</text>
<text text-anchor="middle" x="788" y="-130.5" font-family="Helvetica,sans-Serif" font-size="10.00">/hard.h</text>
</a>
</g>
</g>
<!-- Node5&#45;&gt;Node13 -->
<g id="edge40" class="edge">
<title>Node5&#45;&gt;Node13</title>
<path fill="none" stroke="midnightblue" d="M566.28,-246.38C611.72,-224.48 699.21,-182.3 749.64,-157.99"/>
<polygon fill="midnightblue" stroke="midnightblue" points="751.41,-161.02 758.9,-153.53 748.37,-154.72 751.41,-161.02"/>
</g>
<!-- Node15 -->
<g id="node15" class="node">
<title>Node15</title>
<g id="a_node15"><a xlink:href="soft_8h.html" target="_top" xlink:title="Functions and data structures for secondary structure soft constraints.">
<polygon fill="none" stroke="black" points="307.5,-123.5 307.5,-153.5 426.5,-153.5 426.5,-123.5 307.5,-123.5"/>
<text text-anchor="start" x="315.5" y="-141.5" font-family="Helvetica,sans-Serif" font-size="10.00">ViennaRNA/constraints</text>
<text text-anchor="middle" x="367" y="-130.5" font-family="Helvetica,sans-Serif" font-size="10.00">/soft.h</text>
</a>
</g>
</g>
<!-- Node5&#45;&gt;Node15 -->
<g id="edge41" class="edge">
<title>Node5&#45;&gt;Node15</title>
<path fill="none" stroke="midnightblue" d="M512.64,-246.38C479.84,-224.98 422.36,-184.22 390.18,-159.69"/>
<polygon fill="midnightblue" stroke="midnightblue" points="392.25,-156.87 382.19,-153.53 387.97,-162.41 392.25,-156.87"/>
</g>
<!-- Node16 -->
<g id="node16" class="node">
<title>Node16</title>
<g id="a_node16"><a xlink:href="grammar_8h.html" target="_top" xlink:title="Implementations for the RNA folding grammar.">
<polygon fill="none" stroke="black" points="1209.5,-129 1209.5,-148 1326.5,-148 1326.5,-129 1209.5,-129"/>
<text text-anchor="middle" x="1268" y="-136" font-family="Helvetica,sans-Serif" font-size="10.00">ViennaRNA/grammar.h</text>
</a>
</g>
</g>
<!-- Node5&#45;&gt;Node16 -->
<g id="edge42" class="edge">
<title>Node5&#45;&gt;Node16</title>
<path fill="none" stroke="midnightblue" d="M604.16,-251.15C724.3,-234.11 983.75,-195.86 1201,-154 1207.21,-152.8 1213.73,-151.48 1220.17,-150.13"/>
<polygon fill="midnightblue" stroke="midnightblue" points="1221.1,-153.51 1230.15,-148.01 1219.64,-146.66 1221.1,-153.51"/>
</g>
<!-- Node17 -->
<g id="node17" class="node">
<title>Node17</title>
<g id="a_node17"><a xlink:href="structured__domains_8h.html" target="_top" xlink:title="This module provides interfaces that deal with additional structured domains in the folding grammar.">
<polygon fill="none" stroke="black" points="595.5,-123.5 595.5,-153.5 710.5,-153.5 710.5,-123.5 595.5,-123.5"/>
<text text-anchor="start" x="603.5" y="-141.5" font-family="Helvetica,sans-Serif" font-size="10.00">ViennaRNA/structured</text>
<text text-anchor="middle" x="653" y="-130.5" font-family="Helvetica,sans-Serif" font-size="10.00">_domains.h</text>
</a>
</g>
</g>
<!-- Node5&#45;&gt;Node17 -->
<g id="edge43" class="edge">
<title>Node5&#45;&gt;Node17</title>
<path fill="none" stroke="midnightblue" d="M550.76,-246.14C570.91,-225.13 608.58,-185.83 632.14,-161.26"/>
<polygon fill="midnightblue" stroke="midnightblue" points="634.86,-163.48 639.26,-153.84 629.81,-158.63 634.86,-163.48"/>
</g>
<!-- Node18 -->
<g id="node18" class="node">
<title>Node18</title>
<g id="a_node18"><a xlink:href="unstructured__domains_8h.html" target="_top" xlink:title="Functions to modify unstructured domains, e.g. to incorporate ligands binding to unpaired stretches.">
<polygon fill="none" stroke="black" points="164.5,-123.5 164.5,-153.5 289.5,-153.5 289.5,-123.5 164.5,-123.5"/>
<text text-anchor="start" x="172.5" y="-141.5" font-family="Helvetica,sans-Serif" font-size="10.00">ViennaRNA/unstructured</text>
<text text-anchor="middle" x="227" y="-130.5" font-family="Helvetica,sans-Serif" font-size="10.00">_domains.h</text>
</a>
</g>
</g>
<!-- Node5&#45;&gt;Node18 -->
<g id="edge44" class="edge">
<title>Node5&#45;&gt;Node18</title>
<path fill="none" stroke="midnightblue" d="M496.31,-246.38C436.91,-224.3 327.38,-181.6 267.88,-157.39"/>
<polygon fill="midnightblue" stroke="midnightblue" points="269.01,-154.07 258.42,-153.53 266.36,-160.55 269.01,-154.07"/>
</g>
<!-- Node19 -->
<g id="node19" class="node">
<title>Node19</title>
<g id="a_node19"><a xlink:href="utils_2structures_8h.html" target="_top" xlink:title="Various utility&#45; and helper&#45;functions for secondary structure parsing, converting,...">
<polygon fill="none" stroke="black" points="108,-62 108,-81 252,-81 252,-62 108,-62"/>
<text text-anchor="middle" x="180" y="-69" font-family="Helvetica,sans-Serif" font-size="10.00">ViennaRNA/utils/structures.h</text>
</a>
</g>
</g>
<!-- Node5&#45;&gt;Node19 -->
<g id="edge45" class="edge">
<title>Node5&#45;&gt;Node19</title>
<path fill="none" stroke="midnightblue" d="M469.66,-252.35C368.34,-238.02 184.67,-204.93 146,-154 131.31,-134.65 145.73,-106.61 160.35,-88.98"/>
<polygon fill="midnightblue" stroke="midnightblue" points="163.26,-90.99 167.41,-81.24 158.09,-86.27 163.26,-90.99"/>
</g>
<!-- Node7 -->
<g id="node7" class="node">
<title>Node7</title>
<g id="a_node7"><a xlink:title=" ">
<polygon fill="none" stroke="#bfbfbf" points="1503,-0.5 1503,-19.5 1551,-19.5 1551,-0.5 1503,-0.5"/>
<text text-anchor="middle" x="1527" y="-7.5" font-family="Helvetica,sans-Serif" font-size="10.00">limits.h</text>
</a>
</g>
</g>
<!-- Node6&#45;&gt;Node7 -->
<g id="edge6" class="edge">
<title>Node6&#45;&gt;Node7</title>
<path fill="none" stroke="midnightblue" d="M1527,-61.98C1527,-53.58 1527,-40.48 1527,-29.66"/>
<polygon fill="midnightblue" stroke="midnightblue" points="1530.5,-29.51 1527,-19.51 1523.5,-29.51 1530.5,-29.51"/>
</g>
<!-- Node8&#45;&gt;Node9 -->
<g id="edge8" class="edge">
<title>Node8&#45;&gt;Node9</title>
<path fill="none" stroke="midnightblue" d="M804.18,-190.42C841.27,-170.77 929.57,-124.06 933,-123 1056.12,-84.79 1207.74,-75.21 1291.62,-72.98"/>
<polygon fill="midnightblue" stroke="midnightblue" points="1291.84,-76.48 1301.75,-72.74 1291.67,-69.48 1291.84,-76.48"/>
</g>
<!-- Node8&#45;&gt;Node10 -->
<g id="edge9" class="edge">
<title>Node8&#45;&gt;Node10</title>
<path fill="none" stroke="midnightblue" d="M861.39,-193.53C965.21,-185.95 1160.6,-171.22 1327,-154 1341.82,-152.47 1357.68,-150.62 1372.98,-148.77"/>
<polygon fill="midnightblue" stroke="midnightblue" points="1373.43,-152.24 1382.93,-147.55 1372.58,-145.29 1373.43,-152.24"/>
</g>
<!-- Node11 -->
<g id="node11" class="node">
<title>Node11</title>
<g id="a_node11"><a xlink:href="sequence_8h.html" target="_top" xlink:title="Functions and data structures related to sequence representations ,.">
<polygon fill="none" stroke="black" points="942,-129 942,-148 1064,-148 1064,-129 942,-129"/>
<text text-anchor="middle" x="1003" y="-136" font-family="Helvetica,sans-Serif" font-size="10.00">ViennaRNA/sequence.h</text>
</a>
</g>
</g>
<!-- Node8&#45;&gt;Node11 -->
<g id="edge14" class="edge">
<title>Node8&#45;&gt;Node11</title>
<path fill="none" stroke="midnightblue" d="M813.9,-190.48C849.53,-179.98 913.85,-162.14 957.54,-150.59"/>
<polygon fill="midnightblue" stroke="midnightblue" points="958.57,-153.94 967.36,-148.01 956.79,-147.17 958.57,-153.94"/>
</g>
<!-- Node8&#45;&gt;Node12 -->
<g id="edge16" class="edge">
<title>Node8&#45;&gt;Node12</title>
<path fill="none" stroke="midnightblue" d="M743.41,-190.48C691.73,-179.87 607.27,-161.76 555.6,-150.22"/>
<polygon fill="midnightblue" stroke="midnightblue" points="556.24,-146.78 545.72,-148.01 554.71,-153.61 556.24,-146.78"/>
</g>
<!-- Node8&#45;&gt;Node13 -->
<g id="edge19" class="edge">
<title>Node8&#45;&gt;Node13</title>
<path fill="none" stroke="midnightblue" d="M783.1,-190.48C781.57,-183.47 780.99,-173.19 781.36,-163.7"/>
<polygon fill="midnightblue" stroke="midnightblue" points="784.86,-163.77 782.17,-153.52 777.88,-163.21 784.86,-163.77"/>
</g>
<!-- Node8&#45;&gt;Node15 -->
<g id="edge23" class="edge">
<title>Node8&#45;&gt;Node15</title>
<path fill="none" stroke="midnightblue" d="M714.72,-192.18C643.61,-184.76 532.71,-171.75 433.04,-155.17"/>
<polygon fill="midnightblue" stroke="midnightblue" points="433.57,-151.71 423.12,-153.5 432.41,-158.61 433.57,-151.71"/>
</g>
<!-- Node8&#45;&gt;Node16 -->
<g id="edge27" class="edge">
<title>Node8&#45;&gt;Node16</title>
<path fill="none" stroke="midnightblue" d="M861.16,-192.79C942.33,-185.72 1076.84,-172.68 1192,-154 1198.95,-152.87 1206.26,-151.49 1213.51,-150.04"/>
<polygon fill="midnightblue" stroke="midnightblue" points="1214.22,-153.46 1223.31,-148.02 1212.81,-146.61 1214.22,-153.46"/>
</g>
<!-- Node8&#45;&gt;Node17 -->
<g id="edge29" class="edge">
<title>Node8&#45;&gt;Node17</title>
<path fill="none" stroke="midnightblue" d="M768.66,-190.48C749.26,-181.93 718.8,-168.5 694.01,-157.57"/>
<polygon fill="midnightblue" stroke="midnightblue" points="695.38,-154.35 684.82,-153.52 692.56,-160.76 695.38,-154.35"/>
</g>
<!-- Node8&#45;&gt;Node18 -->
<g id="edge30" class="edge">
<title>Node8&#45;&gt;Node18</title>
<path fill="none" stroke="midnightblue" d="M714.76,-195.17C619.16,-189.37 446.83,-176.73 295.9,-154.99"/>
<polygon fill="midnightblue" stroke="midnightblue" points="296.39,-151.52 285.99,-153.54 295.38,-158.45 296.39,-151.52"/>
</g>
<!-- Node20 -->
<g id="node20" class="node">
<title>Node20</title>
<g id="a_node20"><a xlink:href="zscore_8h_source.html" target="_top" xlink:title=" ">
<polygon fill="none" stroke="black" points="1082.5,-129 1082.5,-148 1191.5,-148 1191.5,-129 1082.5,-129"/>
<text text-anchor="middle" x="1137" y="-136" font-family="Helvetica,sans-Serif" font-size="10.00">ViennaRNA/zscore.h</text>
</a>
</g>
</g>
<!-- Node8&#45;&gt;Node20 -->
<g id="edge36" class="edge">
<title>Node8&#45;&gt;Node20</title>
<path fill="none" stroke="midnightblue" d="M849.64,-190.47C907.5,-182.18 996.38,-168.71 1073,-154 1078.88,-152.87 1085.04,-151.6 1091.12,-150.28"/>
<polygon fill="midnightblue" stroke="midnightblue" points="1092.2,-153.63 1101.21,-148.05 1090.69,-146.79 1092.2,-153.63"/>
</g>
<!-- Node10&#45;&gt;Node5 -->
<g id="edge11" class="edge">
<title>Node10&#45;&gt;Node5</title>
<path fill="none" stroke="midnightblue" d="M1450.41,-148.22C1441.22,-163.91 1411.5,-196.53 1378,-210 1308.63,-237.9 808.98,-253.67 614.29,-258.71"/>
<polygon fill="midnightblue" stroke="midnightblue" points="614.05,-255.21 604.14,-258.97 614.22,-262.21 614.05,-255.21"/>
</g>
<!-- Node10&#45;&gt;Node6 -->
<g id="edge10" class="edge">
<title>Node10&#45;&gt;Node6</title>
<path fill="none" stroke="midnightblue" d="M1462.11,-128.73C1474.15,-118.31 1494.45,-100.71 1509.15,-87.97"/>
<polygon fill="midnightblue" stroke="midnightblue" points="1511.78,-90.32 1517.05,-81.13 1507.2,-85.03 1511.78,-90.32"/>
</g>
<!-- Node10&#45;&gt;Node8 -->
<g id="edge12" class="edge">
<title>Node10&#45;&gt;Node8</title>
<path fill="none" stroke="midnightblue" d="M1396.62,-148C1380.06,-150.11 1361.86,-152.26 1345,-154 1177.59,-171.33 980.84,-186.13 871.63,-193.67"/>
<polygon fill="midnightblue" stroke="midnightblue" points="871.08,-190.2 861.34,-194.38 871.56,-197.18 871.08,-190.2"/>
</g>
<!-- Node10&#45;&gt;Node9 -->
<g id="edge13" class="edge">
<title>Node10&#45;&gt;Node9</title>
<path fill="none" stroke="midnightblue" d="M1438.92,-128.73C1422.85,-117.96 1395.37,-99.55 1376.25,-86.74"/>
<polygon fill="midnightblue" stroke="midnightblue" points="1378.13,-83.79 1367.87,-81.13 1374.23,-89.6 1378.13,-83.79"/>
</g>
<!-- Node11&#45;&gt;Node8 -->
<g id="edge15" class="edge">
<title>Node11&#45;&gt;Node8</title>
<path fill="none" stroke="midnightblue" d="M977.15,-148.01C941.55,-158.5 877.24,-176.34 833.52,-187.9"/>
<polygon fill="midnightblue" stroke="midnightblue" points="832.49,-184.55 823.7,-190.48 834.27,-191.32 832.49,-184.55"/>
</g>
<!-- Node12&#45;&gt;Node5 -->
<g id="edge17" class="edge">
<title>Node12&#45;&gt;Node5</title>
<path fill="none" stroke="midnightblue" d="M516.51,-148.05C523.74,-166.16 533.55,-208.94 537.31,-236.2"/>
<polygon fill="midnightblue" stroke="midnightblue" points="533.84,-236.62 538.47,-246.14 540.79,-235.81 533.84,-236.62"/>
</g>
<!-- Node12&#45;&gt;Node8 -->
<g id="edge18" class="edge">
<title>Node12&#45;&gt;Node8</title>
<path fill="none" stroke="midnightblue" d="M555.51,-148.01C607.16,-158.61 691.62,-176.72 743.33,-188.26"/>
<polygon fill="midnightblue" stroke="midnightblue" points="742.69,-191.7 753.21,-190.48 744.22,-184.87 742.69,-191.7"/>
</g>
<!-- Node13&#45;&gt;Node8 -->
<g id="edge20" class="edge">
<title>Node13&#45;&gt;Node8</title>
<path fill="none" stroke="midnightblue" d="M793.83,-153.52C794.87,-161.59 795.03,-171.81 794.3,-180.53"/>
<polygon fill="midnightblue" stroke="midnightblue" points="790.83,-180.09 792.9,-190.48 797.76,-181.06 790.83,-180.09"/>
</g>
<!-- Node14 -->
<g id="node14" class="node">
<title>Node14</title>
<g id="a_node14"><a xlink:href="constraints_2basic_8h.html" target="_top" xlink:title="Functions and data structures for constraining secondary structure predictions and evaluation.">
<polygon fill="none" stroke="black" points="728.5,-56.5 728.5,-86.5 847.5,-86.5 847.5,-56.5 728.5,-56.5"/>
<text text-anchor="start" x="736.5" y="-74.5" font-family="Helvetica,sans-Serif" font-size="10.00">ViennaRNA/constraints</text>
<text text-anchor="middle" x="788" y="-63.5" font-family="Helvetica,sans-Serif" font-size="10.00">/basic.h</text>
</a>
</g>
</g>
<!-- Node13&#45;&gt;Node14 -->
<g id="edge21" class="edge">
<title>Node13&#45;&gt;Node14</title>
<path fill="none" stroke="midnightblue" d="M788,-123.4C788,-115.64 788,-105.81 788,-96.86"/>
<polygon fill="midnightblue" stroke="midnightblue" points="791.5,-96.58 788,-86.58 784.5,-96.58 791.5,-96.58"/>
</g>
<!-- Node14&#45;&gt;Node8 -->
<g id="edge22" class="edge">
<title>Node14&#45;&gt;Node8</title>
<path fill="none" stroke="midnightblue" d="M818.12,-86.56C832.38,-94.95 848.01,-107.1 856,-123 862.19,-135.31 862.52,-141.86 856,-154 848.38,-168.18 834.1,-178.65 820.59,-185.9"/>
<polygon fill="midnightblue" stroke="midnightblue" points="818.87,-182.84 811.45,-190.41 821.97,-189.12 818.87,-182.84"/>
</g>
<!-- Node15&#45;&gt;Node5 -->
<g id="edge24" class="edge">
<title>Node15&#45;&gt;Node5</title>
<path fill="none" stroke="midnightblue" d="M391.22,-153.53C423.95,-174.88 481.43,-215.63 513.68,-240.21"/>
<polygon fill="midnightblue" stroke="midnightblue" points="511.63,-243.05 521.69,-246.38 515.91,-237.5 511.63,-243.05"/>
</g>
<!-- Node15&#45;&gt;Node8 -->
<g id="edge25" class="edge">
<title>Node15&#45;&gt;Node8</title>
<path fill="none" stroke="midnightblue" d="M426.73,-150.81C432.58,-151.96 438.41,-153.05 444,-154 532.82,-169.1 634.99,-181.6 704.82,-189.56"/>
<polygon fill="midnightblue" stroke="midnightblue" points="704.55,-193.05 714.89,-190.7 705.34,-186.1 704.55,-193.05"/>
</g>
<!-- Node15&#45;&gt;Node14 -->
<g id="edge26" class="edge">
<title>Node15&#45;&gt;Node14</title>
<path fill="none" stroke="midnightblue" d="M426.66,-124.54C429.48,-124 432.27,-123.49 435,-123 532.89,-105.58 646.89,-90.14 718.25,-81.06"/>
<polygon fill="midnightblue" stroke="midnightblue" points="718.99,-84.49 728.47,-79.76 718.11,-77.55 718.99,-84.49"/>
</g>
<!-- Node16&#45;&gt;Node8 -->
<g id="edge28" class="edge">
<title>Node16&#45;&gt;Node8</title>
<path fill="none" stroke="midnightblue" d="M1240.63,-148.02C1230.98,-150.19 1220.1,-152.36 1210,-154 1093.35,-172.92 956.85,-186.06 871.33,-193.06"/>
<polygon fill="midnightblue" stroke="midnightblue" points="870.84,-189.59 861.15,-193.88 871.4,-196.57 870.84,-189.59"/>
</g>
<!-- Node18&#45;&gt;Node5 -->
<g id="edge31" class="edge">
<title>Node18&#45;&gt;Node5</title>
<path fill="none" stroke="midnightblue" d="M267.45,-153.53C326.71,-175.56 436.24,-218.25 495.88,-242.51"/>
<polygon fill="midnightblue" stroke="midnightblue" points="494.78,-245.84 505.36,-246.38 497.42,-239.36 494.78,-245.84"/>
</g>
<!-- Node18&#45;&gt;Node8 -->
<g id="edge32" class="edge">
<title>Node18&#45;&gt;Node8</title>
<path fill="none" stroke="midnightblue" d="M289.73,-151.13C295.57,-152.19 301.4,-153.17 307,-154 445.82,-174.49 608.24,-187.21 704.43,-193.7"/>
<polygon fill="midnightblue" stroke="midnightblue" points="704.47,-197.21 714.68,-194.38 704.94,-190.22 704.47,-197.21"/>
</g>
<!-- Node18&#45;&gt;Node19 -->
<g id="edge33" class="edge">
<title>Node18&#45;&gt;Node19</title>
<path fill="none" stroke="midnightblue" d="M216.8,-123.4C209.62,-113.46 199.96,-100.11 192.34,-89.57"/>
<polygon fill="midnightblue" stroke="midnightblue" points="194.98,-87.25 186.29,-81.19 189.31,-91.35 194.98,-87.25"/>
</g>
<!-- Node19&#45;&gt;Node3 -->
<g id="edge34" class="edge">
<title>Node19&#45;&gt;Node3</title>
<path fill="none" stroke="midnightblue" d="M172.84,-61.98C165.26,-52.96 153.13,-38.52 143.71,-27.31"/>
<polygon fill="midnightblue" stroke="midnightblue" points="146.26,-24.91 137.15,-19.51 140.9,-29.42 146.26,-24.91"/>
</g>
<!-- Node19&#45;&gt;Node5 -->
<g id="edge35" class="edge">
<title>Node19&#45;&gt;Node5</title>
<path fill="none" stroke="midnightblue" d="M177.94,-81.24C169.24,-97.2 146.9,-131.49 164,-154 199.98,-201.38 361.46,-233.32 459.84,-249.08"/>
<polygon fill="midnightblue" stroke="midnightblue" points="459.32,-252.54 469.74,-250.65 460.41,-245.63 459.32,-252.54"/>
</g>
</g>
</svg>
