<?xml version="1.0" encoding="UTF-8" standalone="no"?>
<!DOCTYPE svg PUBLIC "-//W3C//DTD SVG 1.1//EN"
 "http://www.w3.org/Graphics/SVG/1.1/DTD/svg11.dtd">
<!-- Generated by graphviz version 2.47.0 (0)
 -->
<!-- Title: ViennaRNA/neighbor.h Pages: 1 -->
<svg width="1368pt" height="475pt"
 viewBox="0.00 0.00 1367.50 475.00" xmlns="http://www.w3.org/2000/svg" xmlns:xlink="http://www.w3.org/1999/xlink">
<g id="graph0" class="graph" transform="scale(1 1) rotate(0) translate(4 471)">
<title>ViennaRNA/neighbor.h</title>
<!-- Node1 -->
<g id="node1" class="node">
<title>Node1</title>
<g id="a_node1"><a xlink:title="Use ViennaRNA/landscape/neighbor.h instead.">
<polygon fill="#bfbfbf" stroke="black" points="819,-447.5 819,-466.5 935,-466.5 935,-447.5 819,-447.5"/>
<text text-anchor="middle" x="877" y="-454.5" font-family="Helvetica,sans-Serif" font-size="10.00">ViennaRNA/neighbor.h</text>
</a>
</g>
</g>
<!-- Node2 -->
<g id="node2" class="node">
<title>Node2</title>
<g id="a_node2"><a xlink:href="landscape_2neighbor_8h.html" target="_top" xlink:title="Methods to compute the neighbors of an RNA secondary structure.">
<polygon fill="none" stroke="black" points="776,-380.5 776,-410.5 892,-410.5 892,-380.5 776,-380.5"/>
<text text-anchor="start" x="784" y="-398.5" font-family="Helvetica,sans-Serif" font-size="10.00">ViennaRNA/landscape</text>
<text text-anchor="middle" x="834" y="-387.5" font-family="Helvetica,sans-Serif" font-size="10.00">/neighbor.h</text>
</a>
</g>
</g>
<!-- Node1&#45;&gt;Node2 -->
<g id="edge1" class="edge">
<title>Node1&#45;&gt;Node2</title>
<path fill="none" stroke="midnightblue" d="M870.84,-447.48C865.45,-440.02 857.38,-428.85 850.17,-418.87"/>
<polygon fill="midnightblue" stroke="midnightblue" points="852.83,-416.58 844.13,-410.52 847.15,-420.68 852.83,-416.58"/>
</g>
<!-- Node20 -->
<g id="node20" class="node">
<title>Node20</title>
<g id="a_node20"><a xlink:href="move_8h.html" target="_top" xlink:title="Methods to operate with structural neighbors of RNA secondary structures.">
<polygon fill="none" stroke="black" points="862,-313.5 862,-343.5 978,-343.5 978,-313.5 862,-313.5"/>
<text text-anchor="start" x="870" y="-331.5" font-family="Helvetica,sans-Serif" font-size="10.00">ViennaRNA/landscape</text>
<text text-anchor="middle" x="920" y="-320.5" font-family="Helvetica,sans-Serif" font-size="10.00">/move.h</text>
</a>
</g>
</g>
<!-- Node1&#45;&gt;Node20 -->
<g id="edge45" class="edge">
<title>Node1&#45;&gt;Node20</title>
<path fill="none" stroke="midnightblue" d="M882.49,-447.36C887.89,-438.52 896.02,-424.26 901,-411 908.04,-392.26 913.01,-370.08 916.09,-353.59"/>
<polygon fill="midnightblue" stroke="midnightblue" points="919.55,-354.13 917.85,-343.67 912.66,-352.91 919.55,-354.13"/>
</g>
<!-- Node3 -->
<g id="node3" class="node">
<title>Node3</title>
<g id="a_node3"><a xlink:href="fold__compound_8h.html" target="_top" xlink:title="The Basic Fold Compound API.">
<polygon fill="none" stroke="black" points="698,-319 698,-338 844,-338 844,-319 698,-319"/>
<text text-anchor="middle" x="771" y="-326" font-family="Helvetica,sans-Serif" font-size="10.00">ViennaRNA/fold_compound.h</text>
</a>
</g>
</g>
<!-- Node2&#45;&gt;Node3 -->
<g id="edge2" class="edge">
<title>Node2&#45;&gt;Node3</title>
<path fill="none" stroke="midnightblue" d="M820.33,-380.4C810.41,-370.16 796.97,-356.3 786.63,-345.62"/>
<polygon fill="midnightblue" stroke="midnightblue" points="788.9,-342.94 779.43,-338.19 783.87,-347.81 788.9,-342.94"/>
</g>
<!-- Node2&#45;&gt;Node20 -->
<g id="edge44" class="edge">
<title>Node2&#45;&gt;Node20</title>
<path fill="none" stroke="midnightblue" d="M852.66,-380.4C864.49,-371.45 879.99,-359.74 893.14,-349.8"/>
<polygon fill="midnightblue" stroke="midnightblue" points="895.51,-352.4 901.38,-343.58 891.29,-346.81 895.51,-352.4"/>
</g>
<!-- Node4 -->
<g id="node4" class="node">
<title>Node4</title>
<g id="a_node4"><a xlink:href="model_8h.html" target="_top" xlink:title="The model details data structure and its corresponding modifiers.">
<polygon fill="none" stroke="black" points="0,-129 0,-148 106,-148 106,-129 0,-129"/>
<text text-anchor="middle" x="53" y="-136" font-family="Helvetica,sans-Serif" font-size="10.00">ViennaRNA/model.h</text>
</a>
</g>
</g>
<!-- Node3&#45;&gt;Node4 -->
<g id="edge3" class="edge">
<title>Node3&#45;&gt;Node4</title>
<path fill="none" stroke="midnightblue" d="M697.76,-320.68C629.14,-313.31 524.08,-299.49 435,-277 299.42,-242.76 144.57,-179.02 81.73,-152.06"/>
<polygon fill="midnightblue" stroke="midnightblue" points="83.03,-148.8 72.46,-148.06 80.25,-155.23 83.03,-148.8"/>
</g>
<!-- Node5 -->
<g id="node5" class="node">
<title>Node5</title>
<g id="a_node5"><a xlink:href="params_2basic_8h.html" target="_top" xlink:title="Functions to deal with sets of energy parameters.">
<polygon fill="none" stroke="black" points="502,-257.5 502,-276.5 640,-276.5 640,-257.5 502,-257.5"/>
<text text-anchor="middle" x="571" y="-264.5" font-family="Helvetica,sans-Serif" font-size="10.00">ViennaRNA/params/basic.h</text>
</a>
</g>
</g>
<!-- Node3&#45;&gt;Node5 -->
<g id="edge4" class="edge">
<title>Node3&#45;&gt;Node5</title>
<path fill="none" stroke="midnightblue" d="M737.44,-318.98C700.44,-308.64 641.5,-291.16 604.52,-279.6"/>
<polygon fill="midnightblue" stroke="midnightblue" points="605.29,-276.18 594.7,-276.51 603.19,-282.85 605.29,-276.18"/>
</g>
<!-- Node9 -->
<g id="node9" class="node">
<title>Node9</title>
<g id="a_node9"><a xlink:href="dp__matrices_8h.html" target="_top" xlink:title="Functions to deal with standard dynamic programming (DP) matrices.">
<polygon fill="none" stroke="black" points="124.5,-129 124.5,-148 257.5,-148 257.5,-129 124.5,-129"/>
<text text-anchor="middle" x="191" y="-136" font-family="Helvetica,sans-Serif" font-size="10.00">ViennaRNA/dp_matrices.h</text>
</a>
</g>
</g>
<!-- Node3&#45;&gt;Node9 -->
<g id="edge37" class="edge">
<title>Node3&#45;&gt;Node9</title>
<path fill="none" stroke="midnightblue" d="M697.88,-320.19C638.98,-312.77 554.8,-299.17 484,-277 376.73,-243.41 257.54,-181.14 210.9,-153.43"/>
<polygon fill="midnightblue" stroke="midnightblue" points="212.44,-150.27 202.08,-148.06 208.8,-156.25 212.44,-150.27"/>
</g>
<!-- Node10 -->
<g id="node10" class="node">
<title>Node10</title>
<g id="a_node10"><a xlink:href="hard_8h.html" target="_top" xlink:title="Functions and data structures for handling of secondary structure hard constraints.">
<polygon fill="none" stroke="black" points="1095.5,-123.5 1095.5,-153.5 1214.5,-153.5 1214.5,-123.5 1095.5,-123.5"/>
<text text-anchor="start" x="1103.5" y="-141.5" font-family="Helvetica,sans-Serif" font-size="10.00">ViennaRNA/constraints</text>
<text text-anchor="middle" x="1155" y="-130.5" font-family="Helvetica,sans-Serif" font-size="10.00">/hard.h</text>
</a>
</g>
</g>
<!-- Node3&#45;&gt;Node10 -->
<g id="edge38" class="edge">
<title>Node3&#45;&gt;Node10</title>
<path fill="none" stroke="midnightblue" d="M813.14,-318.97C885.64,-305.32 1026.22,-279.8 1031,-277 1078.9,-248.94 1115.89,-193.22 1136.95,-162.01"/>
<polygon fill="midnightblue" stroke="midnightblue" points="1139.99,-163.77 1142.72,-153.54 1134.2,-159.83 1139.99,-163.77"/>
</g>
<!-- Node12 -->
<g id="node12" class="node">
<title>Node12</title>
<g id="a_node12"><a xlink:href="soft_8h.html" target="_top" xlink:title="Functions and data structures for secondary structure soft constraints.">
<polygon fill="none" stroke="black" points="651.5,-123.5 651.5,-153.5 770.5,-153.5 770.5,-123.5 651.5,-123.5"/>
<text text-anchor="start" x="659.5" y="-141.5" font-family="Helvetica,sans-Serif" font-size="10.00">ViennaRNA/constraints</text>
<text text-anchor="middle" x="711" y="-130.5" font-family="Helvetica,sans-Serif" font-size="10.00">/soft.h</text>
</a>
</g>
</g>
<!-- Node3&#45;&gt;Node12 -->
<g id="edge39" class="edge">
<title>Node3&#45;&gt;Node12</title>
<path fill="none" stroke="midnightblue" d="M765.34,-318.9C757.29,-296.92 746.88,-237.04 729,-190 725.5,-180.78 720.65,-171.13 716.56,-162.76"/>
<polygon fill="midnightblue" stroke="midnightblue" points="719.67,-161.15 712.22,-153.62 713.35,-164.16 719.67,-161.15"/>
</g>
<!-- Node13 -->
<g id="node13" class="node">
<title>Node13</title>
<g id="a_node13"><a xlink:href="grammar_8h.html" target="_top" xlink:title="Implementations for the RNA folding grammar.">
<polygon fill="none" stroke="black" points="788.5,-129 788.5,-148 905.5,-148 905.5,-129 788.5,-129"/>
<text text-anchor="middle" x="847" y="-136" font-family="Helvetica,sans-Serif" font-size="10.00">ViennaRNA/grammar.h</text>
</a>
</g>
</g>
<!-- Node3&#45;&gt;Node13 -->
<g id="edge40" class="edge">
<title>Node3&#45;&gt;Node13</title>
<path fill="none" stroke="midnightblue" d="M771.43,-318.93C778.52,-290.12 816.07,-196.34 835.77,-157.06"/>
<polygon fill="midnightblue" stroke="midnightblue" points="838.91,-158.6 840.48,-148.12 832.72,-155.33 838.91,-158.6"/>
</g>
<!-- Node14 -->
<g id="node14" class="node">
<title>Node14</title>
<g id="a_node14"><a xlink:href="structured__domains_8h.html" target="_top" xlink:title="This module provides interfaces that deal with additional structured domains in the folding grammar.">
<polygon fill="none" stroke="black" points="923.5,-123.5 923.5,-153.5 1038.5,-153.5 1038.5,-123.5 923.5,-123.5"/>
<text text-anchor="start" x="931.5" y="-141.5" font-family="Helvetica,sans-Serif" font-size="10.00">ViennaRNA/structured</text>
<text text-anchor="middle" x="981" y="-130.5" font-family="Helvetica,sans-Serif" font-size="10.00">_domains.h</text>
</a>
</g>
</g>
<!-- Node3&#45;&gt;Node14 -->
<g id="edge41" class="edge">
<title>Node3&#45;&gt;Node14</title>
<path fill="none" stroke="midnightblue" d="M780.57,-318.93C811.83,-290.95 911.57,-201.65 957.47,-160.56"/>
<polygon fill="midnightblue" stroke="midnightblue" points="960.02,-162.98 965.13,-153.7 955.35,-157.77 960.02,-162.98"/>
</g>
<!-- Node15 -->
<g id="node15" class="node">
<title>Node15</title>
<g id="a_node15"><a xlink:href="unstructured__domains_8h.html" target="_top" xlink:title="Functions to modify unstructured domains, e.g. to incorporate ligands binding to unpaired stretches.">
<polygon fill="none" stroke="black" points="508.5,-123.5 508.5,-153.5 633.5,-153.5 633.5,-123.5 508.5,-123.5"/>
<text text-anchor="start" x="516.5" y="-141.5" font-family="Helvetica,sans-Serif" font-size="10.00">ViennaRNA/unstructured</text>
<text text-anchor="middle" x="571" y="-130.5" font-family="Helvetica,sans-Serif" font-size="10.00">_domains.h</text>
</a>
</g>
</g>
<!-- Node3&#45;&gt;Node15 -->
<g id="edge42" class="edge">
<title>Node3&#45;&gt;Node15</title>
<path fill="none" stroke="midnightblue" d="M760.08,-318.76C737.88,-295.93 688.14,-233.25 638,-190 624.94,-178.73 609.24,-167.92 596.2,-159.2"/>
<polygon fill="midnightblue" stroke="midnightblue" points="597.93,-156.15 587.67,-153.53 594.06,-161.98 597.93,-156.15"/>
</g>
<!-- Node18 -->
<g id="node18" class="node">
<title>Node18</title>
<g id="a_node18"><a xlink:href="sequence_8h.html" target="_top" xlink:title="Functions and data structures related to sequence representations ,.">
<polygon fill="none" stroke="black" points="1110,-257.5 1110,-276.5 1232,-276.5 1232,-257.5 1110,-257.5"/>
<text text-anchor="middle" x="1171" y="-264.5" font-family="Helvetica,sans-Serif" font-size="10.00">ViennaRNA/sequence.h</text>
</a>
</g>
</g>
<!-- Node3&#45;&gt;Node18 -->
<g id="edge35" class="edge">
<title>Node3&#45;&gt;Node18</title>
<path fill="none" stroke="midnightblue" d="M809.06,-318.94C820.29,-316.92 832.58,-314.82 844,-313 931.73,-299.04 1033.43,-285.03 1099.9,-276.43"/>
<polygon fill="midnightblue" stroke="midnightblue" points="1100.38,-279.9 1109.85,-275.15 1099.49,-272.96 1100.38,-279.9"/>
</g>
<!-- Node19 -->
<g id="node19" class="node">
<title>Node19</title>
<g id="a_node19"><a xlink:href="zscore_8h_source.html" target="_top" xlink:title=" ">
<polygon fill="none" stroke="black" points="1250.5,-257.5 1250.5,-276.5 1359.5,-276.5 1359.5,-257.5 1250.5,-257.5"/>
<text text-anchor="middle" x="1305" y="-264.5" font-family="Helvetica,sans-Serif" font-size="10.00">ViennaRNA/zscore.h</text>
</a>
</g>
</g>
<!-- Node3&#45;&gt;Node19 -->
<g id="edge43" class="edge">
<title>Node3&#45;&gt;Node19</title>
<path fill="none" stroke="midnightblue" d="M815.58,-318.93C827.69,-316.79 840.82,-314.64 853,-313 1021.45,-290.33 1067.29,-296.81 1240.26,-277.03"/>
<polygon fill="midnightblue" stroke="midnightblue" points="1240.68,-280.5 1250.21,-275.88 1239.87,-273.55 1240.68,-280.5"/>
</g>
<!-- Node5&#45;&gt;Node3 -->
<g id="edge33" class="edge">
<title>Node5&#45;&gt;Node3</title>
<path fill="none" stroke="midnightblue" d="M604.5,-276.51C641.48,-286.84 700.42,-304.32 737.43,-315.88"/>
<polygon fill="midnightblue" stroke="midnightblue" points="736.66,-319.31 747.25,-318.98 738.76,-312.63 736.66,-319.31"/>
</g>
<!-- Node5&#45;&gt;Node4 -->
<g id="edge34" class="edge">
<title>Node5&#45;&gt;Node4</title>
<path fill="none" stroke="midnightblue" d="M535.8,-257.4C444.33,-235.07 199.2,-175.2 97.83,-150.45"/>
<polygon fill="midnightblue" stroke="midnightblue" points="98.45,-147 87.9,-148.02 96.79,-153.8 98.45,-147"/>
</g>
<!-- Node6 -->
<g id="node6" class="node">
<title>Node6</title>
<g id="a_node6"><a xlink:href="constants_8h.html" target="_top" xlink:title="Energy parameter constants.">
<polygon fill="none" stroke="black" points="276,-129 276,-148 434,-148 434,-129 276,-129"/>
<text text-anchor="middle" x="355" y="-136" font-family="Helvetica,sans-Serif" font-size="10.00">ViennaRNA/params/constants.h</text>
</a>
</g>
</g>
<!-- Node5&#45;&gt;Node6 -->
<g id="edge5" class="edge">
<title>Node5&#45;&gt;Node6</title>
<path fill="none" stroke="midnightblue" d="M556.15,-257.31C519.23,-235.68 423,-179.32 378.37,-153.18"/>
<polygon fill="midnightblue" stroke="midnightblue" points="380.06,-150.12 369.66,-148.09 376.53,-156.16 380.06,-150.12"/>
</g>
<!-- Node8 -->
<g id="node8" class="node">
<title>Node8</title>
<g id="a_node8"><a xlink:href="datastructures_2basic_8h.html" target="_top" xlink:title="Various data structures and pre&#45;processor macros.">
<polygon fill="none" stroke="black" points="504,-190.5 504,-220.5 638,-220.5 638,-190.5 504,-190.5"/>
<text text-anchor="start" x="512" y="-208.5" font-family="Helvetica,sans-Serif" font-size="10.00">ViennaRNA/datastructures</text>
<text text-anchor="middle" x="571" y="-197.5" font-family="Helvetica,sans-Serif" font-size="10.00">/basic.h</text>
</a>
</g>
</g>
<!-- Node5&#45;&gt;Node8 -->
<g id="edge7" class="edge">
<title>Node5&#45;&gt;Node8</title>
<path fill="none" stroke="midnightblue" d="M566.1,-257.48C564.57,-250.47 563.99,-240.19 564.36,-230.7"/>
<polygon fill="midnightblue" stroke="midnightblue" points="567.86,-230.77 565.17,-220.52 560.88,-230.21 567.86,-230.77"/>
</g>
<!-- Node7 -->
<g id="node7" class="node">
<title>Node7</title>
<g id="a_node7"><a xlink:title=" ">
<polygon fill="none" stroke="#bfbfbf" points="331,-62 331,-81 379,-81 379,-62 331,-62"/>
<text text-anchor="middle" x="355" y="-69" font-family="Helvetica,sans-Serif" font-size="10.00">limits.h</text>
</a>
</g>
</g>
<!-- Node6&#45;&gt;Node7 -->
<g id="edge6" class="edge">
<title>Node6&#45;&gt;Node7</title>
<path fill="none" stroke="midnightblue" d="M355,-128.73C355,-119.18 355,-103.62 355,-91.28"/>
<polygon fill="midnightblue" stroke="midnightblue" points="358.5,-91.13 355,-81.13 351.5,-91.13 358.5,-91.13"/>
</g>
<!-- Node8&#45;&gt;Node3 -->
<g id="edge9" class="edge">
<title>Node8&#45;&gt;Node3</title>
<path fill="none" stroke="midnightblue" d="M594.3,-220.6C632.91,-243.96 709.68,-290.4 748.06,-313.62"/>
<polygon fill="midnightblue" stroke="midnightblue" points="746.57,-316.81 756.94,-318.99 750.19,-310.82 746.57,-316.81"/>
</g>
<!-- Node8&#45;&gt;Node4 -->
<g id="edge10" class="edge">
<title>Node8&#45;&gt;Node4</title>
<path fill="none" stroke="midnightblue" d="M503.74,-198.05C395.64,-187.51 188.01,-166.53 115,-154 108.85,-152.94 102.4,-151.65 96.08,-150.27"/>
<polygon fill="midnightblue" stroke="midnightblue" points="96.84,-146.86 86.31,-148.06 95.3,-153.68 96.84,-146.86"/>
</g>
<!-- Node8&#45;&gt;Node5 -->
<g id="edge11" class="edge">
<title>Node8&#45;&gt;Node5</title>
<path fill="none" stroke="midnightblue" d="M576.83,-220.52C577.87,-228.59 578.03,-238.81 577.3,-247.53"/>
<polygon fill="midnightblue" stroke="midnightblue" points="573.83,-247.09 575.9,-257.48 580.76,-248.06 573.83,-247.09"/>
</g>
<!-- Node8&#45;&gt;Node6 -->
<g id="edge8" class="edge">
<title>Node8&#45;&gt;Node6</title>
<path fill="none" stroke="midnightblue" d="M524.4,-190.48C485.17,-178.67 429.77,-162 393.15,-150.98"/>
<polygon fill="midnightblue" stroke="midnightblue" points="393.93,-147.56 383.34,-148.03 391.91,-154.26 393.93,-147.56"/>
</g>
<!-- Node8&#45;&gt;Node9 -->
<g id="edge12" class="edge">
<title>Node8&#45;&gt;Node9</title>
<path fill="none" stroke="midnightblue" d="M503.86,-194.91C440.26,-185.05 342.4,-169.06 258,-154 250.82,-152.72 243.26,-151.33 235.9,-149.93"/>
<polygon fill="midnightblue" stroke="midnightblue" points="236.52,-146.49 226.04,-148.04 235.2,-153.36 236.52,-146.49"/>
</g>
<!-- Node8&#45;&gt;Node10 -->
<g id="edge15" class="edge">
<title>Node8&#45;&gt;Node10</title>
<path fill="none" stroke="midnightblue" d="M638.07,-197.98C730.29,-188.87 901.37,-171.5 1047,-154 1059.38,-152.51 1072.53,-150.83 1085.25,-149.15"/>
<polygon fill="midnightblue" stroke="midnightblue" points="1085.89,-152.6 1095.34,-147.81 1084.96,-145.66 1085.89,-152.6"/>
</g>
<!-- Node8&#45;&gt;Node12 -->
<g id="edge19" class="edge">
<title>Node8&#45;&gt;Node12</title>
<path fill="none" stroke="midnightblue" d="M595.7,-190.4C615.08,-180.81 642.42,-168.05 665.66,-157.7"/>
<polygon fill="midnightblue" stroke="midnightblue" points="667.27,-160.82 675.01,-153.58 664.44,-154.41 667.27,-160.82"/>
</g>
<!-- Node8&#45;&gt;Node13 -->
<g id="edge23" class="edge">
<title>Node8&#45;&gt;Node13</title>
<path fill="none" stroke="midnightblue" d="M630.55,-190.48C681.63,-178.45 754.19,-161.36 800.93,-150.35"/>
<polygon fill="midnightblue" stroke="midnightblue" points="801.85,-153.73 810.79,-148.03 800.25,-146.91 801.85,-153.73"/>
</g>
<!-- Node8&#45;&gt;Node14 -->
<g id="edge25" class="edge">
<title>Node8&#45;&gt;Node14</title>
<path fill="none" stroke="midnightblue" d="M638.26,-195.95C705.34,-187.12 811.54,-172.31 913.17,-154.08"/>
<polygon fill="midnightblue" stroke="midnightblue" points="914.09,-157.47 923.31,-152.24 912.84,-150.58 914.09,-157.47"/>
</g>
<!-- Node8&#45;&gt;Node15 -->
<g id="edge26" class="edge">
<title>Node8&#45;&gt;Node15</title>
<path fill="none" stroke="midnightblue" d="M565.32,-190.4C564.29,-182.56 564.01,-172.6 564.46,-163.57"/>
<polygon fill="midnightblue" stroke="midnightblue" points="567.95,-163.84 565.33,-153.58 560.97,-163.24 567.95,-163.84"/>
</g>
<!-- Node16 -->
<g id="node16" class="node">
<title>Node16</title>
<g id="a_node16"><a xlink:href="utils_2structures_8h.html" target="_top" xlink:title="Various utility&#45; and helper&#45;functions for secondary structure parsing, converting,...">
<polygon fill="none" stroke="black" points="399,-62 399,-81 543,-81 543,-62 399,-62"/>
<text text-anchor="middle" x="471" y="-69" font-family="Helvetica,sans-Serif" font-size="10.00">ViennaRNA/utils/structures.h</text>
</a>
</g>
</g>
<!-- Node8&#45;&gt;Node16 -->
<g id="edge32" class="edge">
<title>Node8&#45;&gt;Node16</title>
<path fill="none" stroke="midnightblue" d="M534.8,-190.34C518.91,-181.65 501.47,-169.25 490,-154 475.91,-135.27 468.58,-108.94 467.07,-91.33"/>
<polygon fill="midnightblue" stroke="midnightblue" points="470.57,-91.12 466.91,-81.18 463.57,-91.23 470.57,-91.12"/>
</g>
<!-- Node9&#45;&gt;Node3 -->
<g id="edge14" class="edge">
<title>Node9&#45;&gt;Node3</title>
<path fill="none" stroke="midnightblue" d="M210.28,-148.06C258.52,-172.14 387.1,-241.02 502,-277 565.13,-296.77 638.89,-309.72 693.25,-317.56"/>
<polygon fill="midnightblue" stroke="midnightblue" points="692.78,-321.03 703.17,-318.96 693.76,-314.09 692.78,-321.03"/>
</g>
<!-- Node9&#45;&gt;Node8 -->
<g id="edge13" class="edge">
<title>Node9&#45;&gt;Node8</title>
<path fill="none" stroke="midnightblue" d="M243.51,-148.04C254.32,-150.04 265.55,-152.14 276,-154 349.94,-167.19 434.2,-181.1 493.74,-190.97"/>
<polygon fill="midnightblue" stroke="midnightblue" points="493.38,-194.46 503.82,-192.65 494.53,-187.56 493.38,-194.46"/>
</g>
<!-- Node10&#45;&gt;Node3 -->
<g id="edge16" class="edge">
<title>Node10&#45;&gt;Node3</title>
<path fill="none" stroke="midnightblue" d="M1152.64,-153.54C1141.08,-181.95 1101.63,-246.17 1049,-277 1044.42,-279.68 914.94,-303.27 834.25,-317.24"/>
<polygon fill="midnightblue" stroke="midnightblue" points="833.44,-313.82 824.18,-318.97 834.63,-320.72 833.44,-313.82"/>
</g>
<!-- Node11 -->
<g id="node11" class="node">
<title>Node11</title>
<g id="a_node11"><a xlink:href="constraints_2basic_8h.html" target="_top" xlink:title="Functions and data structures for constraining secondary structure predictions and evaluation.">
<polygon fill="none" stroke="black" points="1007.5,-56.5 1007.5,-86.5 1126.5,-86.5 1126.5,-56.5 1007.5,-56.5"/>
<text text-anchor="start" x="1015.5" y="-74.5" font-family="Helvetica,sans-Serif" font-size="10.00">ViennaRNA/constraints</text>
<text text-anchor="middle" x="1067" y="-63.5" font-family="Helvetica,sans-Serif" font-size="10.00">/basic.h</text>
</a>
</g>
</g>
<!-- Node10&#45;&gt;Node11 -->
<g id="edge17" class="edge">
<title>Node10&#45;&gt;Node11</title>
<path fill="none" stroke="midnightblue" d="M1135.91,-123.4C1123.68,-114.37 1107.63,-102.51 1094.1,-92.52"/>
<polygon fill="midnightblue" stroke="midnightblue" points="1096.18,-89.7 1086.06,-86.58 1092.02,-95.33 1096.18,-89.7"/>
</g>
<!-- Node11&#45;&gt;Node3 -->
<g id="edge18" class="edge">
<title>Node11&#45;&gt;Node3</title>
<path fill="none" stroke="midnightblue" d="M1066.66,-86.8C1065.58,-104.2 1061.54,-133.77 1047,-154 985.02,-240.24 865.61,-293.27 806.27,-315.44"/>
<polygon fill="midnightblue" stroke="midnightblue" points="804.78,-312.26 796.59,-318.98 807.19,-318.83 804.78,-312.26"/>
</g>
<!-- Node12&#45;&gt;Node3 -->
<g id="edge21" class="edge">
<title>Node12&#45;&gt;Node3</title>
<path fill="none" stroke="midnightblue" d="M727.4,-153.62C734.66,-163.5 742.13,-177.18 747,-190 762.58,-230.98 772.48,-281.69 773.99,-308.62"/>
<polygon fill="midnightblue" stroke="midnightblue" points="770.49,-308.94 774.1,-318.9 777.49,-308.87 770.49,-308.94"/>
</g>
<!-- Node12&#45;&gt;Node8 -->
<g id="edge20" class="edge">
<title>Node12&#45;&gt;Node8</title>
<path fill="none" stroke="midnightblue" d="M686.36,-153.58C666.99,-163.15 639.65,-175.92 616.4,-186.27"/>
<polygon fill="midnightblue" stroke="midnightblue" points="614.79,-183.15 607.06,-190.4 617.62,-189.56 614.79,-183.15"/>
</g>
<!-- Node12&#45;&gt;Node11 -->
<g id="edge22" class="edge">
<title>Node12&#45;&gt;Node11</title>
<path fill="none" stroke="midnightblue" d="M770.68,-124.65C773.49,-124.08 776.27,-123.53 779,-123 853.27,-108.57 938.69,-93.83 997.09,-84.02"/>
<polygon fill="midnightblue" stroke="midnightblue" points="998.03,-87.42 1007.31,-82.31 996.87,-80.51 998.03,-87.42"/>
</g>
<!-- Node13&#45;&gt;Node3 -->
<g id="edge24" class="edge">
<title>Node13&#45;&gt;Node3</title>
<path fill="none" stroke="midnightblue" d="M846.56,-148.12C839.43,-177 801.88,-270.79 782.2,-310.01"/>
<polygon fill="midnightblue" stroke="midnightblue" points="779.06,-308.46 777.49,-318.93 785.25,-311.72 779.06,-308.46"/>
</g>
<!-- Node15&#45;&gt;Node3 -->
<g id="edge28" class="edge">
<title>Node15&#45;&gt;Node3</title>
<path fill="none" stroke="midnightblue" d="M603.09,-153.53C619.86,-162.95 639.93,-176.14 656,-190 700.66,-228.52 744.99,-282.45 763.22,-309.92"/>
<polygon fill="midnightblue" stroke="midnightblue" points="760.46,-312.11 768.71,-318.76 766.41,-308.42 760.46,-312.11"/>
</g>
<!-- Node15&#45;&gt;Node8 -->
<g id="edge27" class="edge">
<title>Node15&#45;&gt;Node8</title>
<path fill="none" stroke="midnightblue" d="M576.67,-153.58C577.7,-161.41 577.99,-171.37 577.55,-180.4"/>
<polygon fill="midnightblue" stroke="midnightblue" points="574.06,-180.13 576.68,-190.4 581.03,-180.74 574.06,-180.13"/>
</g>
<!-- Node15&#45;&gt;Node16 -->
<g id="edge29" class="edge">
<title>Node15&#45;&gt;Node16</title>
<path fill="none" stroke="midnightblue" d="M549.3,-123.4C532.53,-112.5 509.43,-97.48 492.67,-86.58"/>
<polygon fill="midnightblue" stroke="midnightblue" points="494.38,-83.52 484.09,-81.01 490.56,-89.39 494.38,-83.52"/>
</g>
<!-- Node16&#45;&gt;Node8 -->
<g id="edge31" class="edge">
<title>Node16&#45;&gt;Node8</title>
<path fill="none" stroke="midnightblue" d="M477.44,-81.18C483.69,-97.04 490.82,-131.17 508,-154 517.23,-166.27 530.33,-176.7 542.27,-184.83"/>
<polygon fill="midnightblue" stroke="midnightblue" points="540.42,-187.8 550.7,-190.34 544.25,-181.94 540.42,-187.8"/>
</g>
<!-- Node17 -->
<g id="node17" class="node">
<title>Node17</title>
<g id="a_node17"><a xlink:title=" ">
<polygon fill="none" stroke="#bfbfbf" points="448,-0.5 448,-19.5 494,-19.5 494,-0.5 448,-0.5"/>
<text text-anchor="middle" x="471" y="-7.5" font-family="Helvetica,sans-Serif" font-size="10.00">stdio.h</text>
</a>
</g>
</g>
<!-- Node16&#45;&gt;Node17 -->
<g id="edge30" class="edge">
<title>Node16&#45;&gt;Node17</title>
<path fill="none" stroke="midnightblue" d="M471,-61.98C471,-53.58 471,-40.48 471,-29.66"/>
<polygon fill="midnightblue" stroke="midnightblue" points="474.5,-29.51 471,-19.51 467.5,-29.51 474.5,-29.51"/>
</g>
<!-- Node18&#45;&gt;Node3 -->
<g id="edge36" class="edge">
<title>Node18&#45;&gt;Node3</title>
<path fill="none" stroke="midnightblue" d="M1112.89,-276.53C1050.7,-285.13 949.42,-299.09 862,-313 853.79,-314.31 845.13,-315.76 836.54,-317.22"/>
<polygon fill="midnightblue" stroke="midnightblue" points="835.78,-313.8 826.51,-318.94 836.96,-320.7 835.78,-313.8"/>
</g>
</g>
</svg>
