<?xml version="1.0" encoding="UTF-8" standalone="no"?>
<!DOCTYPE svg PUBLIC "-//W3C//DTD SVG 1.1//EN"
 "http://www.w3.org/Graphics/SVG/1.1/DTD/svg11.dtd">
<!-- Generated by graphviz version 2.47.0 (0)
 -->
<!-- Title: ViennaRNA/params.h Pages: 1 -->
<!--zoomable 397 -->
<svg id="main" version="1.1" xmlns="http://www.w3.org/2000/svg" xmlns:xlink="http://www.w3.org/1999/xlink" xml:space="preserve" onload="init(evt)">
<style type="text/css"><![CDATA[
.edge:hover path { stroke: red; }
.edge:hover polygon { stroke: red; fill: red; }
]]></style>
<script type="text/javascript"><![CDATA[
var edges = document.getElementsByTagName('g');
if (edges && edges.length) {
  for (var i=0;i<edges.length;i++) {
    if (edges[i].id.substr(0,4)=='edge') {
      edges[i].setAttribute('class','edge');
    }
  }
}
]]></script>
        <defs>
                <circle id="rim" cx="0" cy="0" r="7"/>
                <circle id="rim2" cx="0" cy="0" r="3.5"/>
                <g id="zoomPlus">
                        <use xlink:href="#rim" fill="#404040">
                                <set attributeName="fill" to="#808080" begin="zoomplus.mouseover" end="zoomplus.mouseout"/>
                        </use>
                        <path d="M-4,0h8M0,-4v8" fill="none" stroke="white" stroke-width="1.5" pointer-events="none"/>
                </g>
                <g id="zoomMin">
                        <use xlink:href="#rim" fill="#404040">
                                <set attributeName="fill" to="#808080" begin="zoomminus.mouseover" end="zoomminus.mouseout"/>
                        </use>
                        <path d="M-4,0h8" fill="none" stroke="white" stroke-width="1.5" pointer-events="none"/>
                </g>
                <g id="dirArrow">
                        <path fill="none" stroke="white" stroke-width="1.5" d="M0,-3.0v7 M-2.5,-0.5L0,-3.0L2.5,-0.5"/>
                </g>
               <g id="resetDef">
                       <use xlink:href="#rim2" fill="#404040">
                               <set attributeName="fill" to="#808080" begin="reset.mouseover" end="reset.mouseout"/>
                       </use>
               </g>
        </defs>

<script type="text/javascript">
var viewWidth = 1432;
var viewHeight = 397;
var sectionId = 'dynsection-0';
</script>
<script xlink:href="svgpan.js"/>
<svg id="graph" class="graph">
<g id="viewport">
<title>ViennaRNA/params.h</title>
<!-- Node1 -->
<g id="node1" class="node">
<title>Node1</title>
<g id="a_node1"><a xlink:title="Use ViennaRNA/params/basic.h instead.">
<polygon fill="#bfbfbf" stroke="black" points="691,-369.5 691,-388.5 803,-388.5 803,-369.5 691,-369.5"/>
<text text-anchor="middle" x="747" y="-376.5" font-family="Helvetica,sans-Serif" font-size="10.00">ViennaRNA/params.h</text>
</a>
</g>
</g>
<!-- Node2 -->
<g id="node2" class="node">
<title>Node2</title>
<g id="a_node2"><a xlink:href="params_2basic_8h.html" target="_top" xlink:title="Functions to deal with sets of energy parameters.">
<polygon fill="none" stroke="black" points="678,-313.5 678,-332.5 816,-332.5 816,-313.5 678,-313.5"/>
<text text-anchor="middle" x="747" y="-320.5" font-family="Helvetica,sans-Serif" font-size="10.00">ViennaRNA/params/basic.h</text>
</a>
</g>
</g>
<!-- Node1&#45;&gt;Node2 -->
<g id="edge1" class="edge">
<title>Node1&#45;&gt;Node2</title>
<path fill="none" stroke="midnightblue" d="M747,-369.08C747,-362.01 747,-351.86 747,-342.99"/>
<polygon fill="midnightblue" stroke="midnightblue" points="750.5,-342.75 747,-332.75 743.5,-342.75 750.5,-342.75"/>
</g>
<!-- Node3 -->
<g id="node3" class="node">
<title>Node3</title>
<g id="a_node3"><a xlink:href="constants_8h.html" target="_top" xlink:title="Energy parameter constants.">
<polygon fill="none" stroke="black" points="329,-190.5 329,-209.5 487,-209.5 487,-190.5 329,-190.5"/>
<text text-anchor="middle" x="408" y="-197.5" font-family="Helvetica,sans-Serif" font-size="10.00">ViennaRNA/params/constants.h</text>
</a>
</g>
</g>
<!-- Node2&#45;&gt;Node3 -->
<g id="edge2" class="edge">
<title>Node2&#45;&gt;Node3</title>
<path fill="none" stroke="midnightblue" d="M677.93,-318.62C627.02,-313.96 557.16,-302.96 501,-277 469.49,-262.43 439.63,-234.66 422.6,-217.03"/>
<polygon fill="midnightblue" stroke="midnightblue" points="425.12,-214.61 415.72,-209.73 420.03,-219.4 425.12,-214.61"/>
</g>
<!-- Node5 -->
<g id="node5" class="node">
<title>Node5</title>
<g id="a_node5"><a xlink:href="datastructures_2basic_8h.html" target="_top" xlink:title="Various data structures and pre&#45;processor macros.">
<polygon fill="none" stroke="black" points="784,-246.5 784,-276.5 918,-276.5 918,-246.5 784,-246.5"/>
<text text-anchor="start" x="792" y="-264.5" font-family="Helvetica,sans-Serif" font-size="10.00">ViennaRNA/datastructures</text>
<text text-anchor="middle" x="851" y="-253.5" font-family="Helvetica,sans-Serif" font-size="10.00">/basic.h</text>
</a>
</g>
</g>
<!-- Node2&#45;&gt;Node5 -->
<g id="edge4" class="edge">
<title>Node2&#45;&gt;Node5</title>
<path fill="none" stroke="midnightblue" d="M757,-313.48C769.79,-305.12 792.08,-292.09 811.82,-281.3"/>
<polygon fill="midnightblue" stroke="midnightblue" points="813.52,-284.35 820.66,-276.52 810.2,-278.2 813.52,-284.35"/>
</g>
<!-- Node6 -->
<g id="node6" class="node">
<title>Node6</title>
<g id="a_node6"><a xlink:href="fold__compound_8h.html" target="_top" xlink:title="The Basic Fold Compound API.">
<polygon fill="none" stroke="black" points="675,-190.5 675,-209.5 821,-209.5 821,-190.5 675,-190.5"/>
<text text-anchor="middle" x="748" y="-197.5" font-family="Helvetica,sans-Serif" font-size="10.00">ViennaRNA/fold_compound.h</text>
</a>
</g>
</g>
<!-- Node2&#45;&gt;Node6 -->
<g id="edge41" class="edge">
<title>Node2&#45;&gt;Node6</title>
<path fill="none" stroke="midnightblue" d="M743.37,-313.3C739.97,-293.76 739.92,-246.06 742.82,-219.55"/>
<polygon fill="midnightblue" stroke="midnightblue" points="746.29,-220.02 744.24,-209.62 739.36,-219.03 746.29,-220.02"/>
</g>
<!-- Node7 -->
<g id="node7" class="node">
<title>Node7</title>
<g id="a_node7"><a xlink:href="model_8h.html" target="_top" xlink:title="The model details data structure and its corresponding modifiers.">
<polygon fill="none" stroke="black" points="66,-129 66,-148 172,-148 172,-129 66,-129"/>
<text text-anchor="middle" x="119" y="-136" font-family="Helvetica,sans-Serif" font-size="10.00">ViennaRNA/model.h</text>
</a>
</g>
</g>
<!-- Node2&#45;&gt;Node7 -->
<g id="edge42" class="edge">
<title>Node2&#45;&gt;Node7</title>
<path fill="none" stroke="midnightblue" d="M729.26,-313.41C691.82,-295.18 602.17,-250.9 529,-210 514.03,-201.63 512.23,-195.55 496,-190 362.66,-144.43 319.84,-178.09 181,-154 174.85,-152.93 168.4,-151.63 162.08,-150.25"/>
<polygon fill="midnightblue" stroke="midnightblue" points="162.84,-146.84 152.32,-148.04 161.3,-153.66 162.84,-146.84"/>
</g>
<!-- Node4 -->
<g id="node4" class="node">
<title>Node4</title>
<g id="a_node4"><a xlink:title=" ">
<polygon fill="none" stroke="#bfbfbf" points="0,-129 0,-148 48,-148 48,-129 0,-129"/>
<text text-anchor="middle" x="24" y="-136" font-family="Helvetica,sans-Serif" font-size="10.00">limits.h</text>
</a>
</g>
</g>
<!-- Node3&#45;&gt;Node4 -->
<g id="edge3" class="edge">
<title>Node3&#45;&gt;Node4</title>
<path fill="none" stroke="midnightblue" d="M328.66,-195.31C256.67,-190.45 148.17,-179.3 57,-154 54.84,-153.4 52.65,-152.69 50.46,-151.9"/>
<polygon fill="midnightblue" stroke="midnightblue" points="51.71,-148.63 41.13,-148.13 49.09,-155.12 51.71,-148.63"/>
</g>
<!-- Node5&#45;&gt;Node2 -->
<g id="edge33" class="edge">
<title>Node5&#45;&gt;Node2</title>
<path fill="none" stroke="midnightblue" d="M832.32,-276.52C816.51,-286.29 793.86,-299.23 775.78,-308.81"/>
<polygon fill="midnightblue" stroke="midnightblue" points="774.06,-305.76 766.8,-313.48 777.29,-311.97 774.06,-305.76"/>
</g>
<!-- Node5&#45;&gt;Node3 -->
<g id="edge5" class="edge">
<title>Node5&#45;&gt;Node3</title>
<path fill="none" stroke="midnightblue" d="M783.72,-251.46C702.31,-240.53 565.73,-222.19 481.59,-210.88"/>
<polygon fill="midnightblue" stroke="midnightblue" points="481.97,-207.4 471.6,-209.54 481.04,-214.34 481.97,-207.4"/>
</g>
<!-- Node5&#45;&gt;Node6 -->
<g id="edge6" class="edge">
<title>Node5&#45;&gt;Node6</title>
<path fill="none" stroke="midnightblue" d="M826.59,-246.4C810.08,-236.86 788.38,-224.32 771.96,-214.84"/>
<polygon fill="midnightblue" stroke="midnightblue" points="773.4,-211.63 762.99,-209.66 769.9,-217.69 773.4,-211.63"/>
</g>
<!-- Node5&#45;&gt;Node7 -->
<g id="edge32" class="edge">
<title>Node5&#45;&gt;Node7</title>
<path fill="none" stroke="midnightblue" d="M783.83,-254.46C725.34,-247.81 638.89,-234.64 567,-210 548.95,-203.81 547.27,-195.53 529,-190 380.17,-144.97 334.34,-179.76 181,-154 174.78,-152.95 168.24,-151.65 161.85,-150.26"/>
<polygon fill="midnightblue" stroke="midnightblue" points="162.51,-146.83 151.99,-148.03 160.97,-153.65 162.51,-146.83"/>
</g>
<!-- Node9 -->
<g id="node9" class="node">
<title>Node9</title>
<g id="a_node9"><a xlink:href="dp__matrices_8h.html" target="_top" xlink:title="Functions to deal with standard dynamic programming (DP) matrices.">
<polygon fill="none" stroke="black" points="1038.5,-129 1038.5,-148 1171.5,-148 1171.5,-129 1038.5,-129"/>
<text text-anchor="middle" x="1105" y="-136" font-family="Helvetica,sans-Serif" font-size="10.00">ViennaRNA/dp_matrices.h</text>
</a>
</g>
</g>
<!-- Node5&#45;&gt;Node9 -->
<g id="edge34" class="edge">
<title>Node5&#45;&gt;Node9</title>
<path fill="none" stroke="midnightblue" d="M876.11,-246.38C922.99,-222.61 1023.12,-174.94 1074.07,-152.17"/>
<polygon fill="midnightblue" stroke="midnightblue" points="1075.55,-155.34 1083.28,-148.09 1072.72,-148.94 1075.55,-155.34"/>
</g>
<!-- Node10 -->
<g id="node10" class="node">
<title>Node10</title>
<g id="a_node10"><a xlink:href="hard_8h.html" target="_top" xlink:title="Functions and data structures for handling of secondary structure hard constraints.">
<polygon fill="none" stroke="black" points="766.5,-123.5 766.5,-153.5 885.5,-153.5 885.5,-123.5 766.5,-123.5"/>
<text text-anchor="start" x="774.5" y="-141.5" font-family="Helvetica,sans-Serif" font-size="10.00">ViennaRNA/constraints</text>
<text text-anchor="middle" x="826" y="-130.5" font-family="Helvetica,sans-Serif" font-size="10.00">/hard.h</text>
</a>
</g>
</g>
<!-- Node5&#45;&gt;Node10 -->
<g id="edge35" class="edge">
<title>Node5&#45;&gt;Node10</title>
<path fill="none" stroke="midnightblue" d="M848.03,-246.14C843.84,-225.86 836.13,-188.53 831.03,-163.86"/>
<polygon fill="midnightblue" stroke="midnightblue" points="834.41,-162.92 828.96,-153.84 827.56,-164.34 834.41,-162.92"/>
</g>
<!-- Node12 -->
<g id="node12" class="node">
<title>Node12</title>
<g id="a_node12"><a xlink:href="soft_8h.html" target="_top" xlink:title="Functions and data structures for secondary structure soft constraints.">
<polygon fill="none" stroke="black" points="323.5,-123.5 323.5,-153.5 442.5,-153.5 442.5,-123.5 323.5,-123.5"/>
<text text-anchor="start" x="331.5" y="-141.5" font-family="Helvetica,sans-Serif" font-size="10.00">ViennaRNA/constraints</text>
<text text-anchor="middle" x="383" y="-130.5" font-family="Helvetica,sans-Serif" font-size="10.00">/soft.h</text>
</a>
</g>
</g>
<!-- Node5&#45;&gt;Node12 -->
<g id="edge36" class="edge">
<title>Node5&#45;&gt;Node12</title>
<path fill="none" stroke="midnightblue" d="M788.94,-246.41C750.6,-236.66 700.69,-223.11 657,-210 629.67,-201.8 623.5,-197.62 596,-190 568.62,-182.42 502,-167.43 450.43,-155.74"/>
<polygon fill="midnightblue" stroke="midnightblue" points="451.19,-152.32 440.66,-153.53 449.64,-159.15 451.19,-152.32"/>
</g>
<!-- Node13 -->
<g id="node13" class="node">
<title>Node13</title>
<g id="a_node13"><a xlink:href="grammar_8h.html" target="_top" xlink:title="Implementations for the RNA folding grammar.">
<polygon fill="none" stroke="black" points="903.5,-129 903.5,-148 1020.5,-148 1020.5,-129 903.5,-129"/>
<text text-anchor="middle" x="962" y="-136" font-family="Helvetica,sans-Serif" font-size="10.00">ViennaRNA/grammar.h</text>
</a>
</g>
</g>
<!-- Node5&#45;&gt;Node13 -->
<g id="edge37" class="edge">
<title>Node5&#45;&gt;Node13</title>
<path fill="none" stroke="midnightblue" d="M864.17,-246.14C885.03,-223.41 925.52,-179.27 947.3,-155.53"/>
<polygon fill="midnightblue" stroke="midnightblue" points="949.97,-157.79 954.15,-148.05 944.82,-153.06 949.97,-157.79"/>
</g>
<!-- Node14 -->
<g id="node14" class="node">
<title>Node14</title>
<g id="a_node14"><a xlink:href="structured__domains_8h.html" target="_top" xlink:title="This module provides interfaces that deal with additional structured domains in the folding grammar.">
<polygon fill="none" stroke="black" points="190.5,-123.5 190.5,-153.5 305.5,-153.5 305.5,-123.5 190.5,-123.5"/>
<text text-anchor="start" x="198.5" y="-141.5" font-family="Helvetica,sans-Serif" font-size="10.00">ViennaRNA/structured</text>
<text text-anchor="middle" x="248" y="-130.5" font-family="Helvetica,sans-Serif" font-size="10.00">_domains.h</text>
</a>
</g>
</g>
<!-- Node5&#45;&gt;Node14 -->
<g id="edge38" class="edge">
<title>Node5&#45;&gt;Node14</title>
<path fill="none" stroke="midnightblue" d="M783.84,-251.94C733.58,-244.29 663.7,-231 605,-210 587.03,-203.57 585.16,-195.88 567,-190 462,-156.03 427.71,-173.16 315.55,-154.16"/>
<polygon fill="midnightblue" stroke="midnightblue" points="316,-150.69 305.54,-152.41 314.79,-157.58 316,-150.69"/>
</g>
<!-- Node15 -->
<g id="node15" class="node">
<title>Node15</title>
<g id="a_node15"><a xlink:href="unstructured__domains_8h.html" target="_top" xlink:title="Functions to modify unstructured domains, e.g. to incorporate ligands binding to unpaired stretches.">
<polygon fill="none" stroke="black" points="1189.5,-123.5 1189.5,-153.5 1314.5,-153.5 1314.5,-123.5 1189.5,-123.5"/>
<text text-anchor="start" x="1197.5" y="-141.5" font-family="Helvetica,sans-Serif" font-size="10.00">ViennaRNA/unstructured</text>
<text text-anchor="middle" x="1252" y="-130.5" font-family="Helvetica,sans-Serif" font-size="10.00">_domains.h</text>
</a>
</g>
</g>
<!-- Node5&#45;&gt;Node15 -->
<g id="edge39" class="edge">
<title>Node5&#45;&gt;Node15</title>
<path fill="none" stroke="midnightblue" d="M893.26,-246.38C964.66,-223.98 1109.09,-180.36 1191.29,-156.36"/>
<polygon fill="midnightblue" stroke="midnightblue" points="1192.38,-159.68 1201,-153.53 1190.42,-152.96 1192.38,-159.68"/>
</g>
<!-- Node16 -->
<g id="node16" class="node">
<title>Node16</title>
<g id="a_node16"><a xlink:href="utils_2structures_8h.html" target="_top" xlink:title="Various utility&#45; and helper&#45;functions for secondary structure parsing, converting,...">
<polygon fill="none" stroke="black" points="1280,-62 1280,-81 1424,-81 1424,-62 1280,-62"/>
<text text-anchor="middle" x="1352" y="-69" font-family="Helvetica,sans-Serif" font-size="10.00">ViennaRNA/utils/structures.h</text>
</a>
</g>
</g>
<!-- Node5&#45;&gt;Node16 -->
<g id="edge40" class="edge">
<title>Node5&#45;&gt;Node16</title>
<path fill="none" stroke="midnightblue" d="M918.21,-252.8C1032.22,-238.97 1256.54,-206.38 1315,-154 1333.07,-137.81 1339.48,-109.42 1344.04,-90.79"/>
<polygon fill="midnightblue" stroke="midnightblue" points="1347.43,-91.68 1346.59,-81.12 1340.66,-89.9 1347.43,-91.68"/>
</g>
<!-- Node6&#45;&gt;Node2 -->
<g id="edge8" class="edge">
<title>Node6&#45;&gt;Node2</title>
<path fill="none" stroke="midnightblue" d="M751.62,-209.62C755.02,-229.08 755.08,-276.77 752.19,-303.35"/>
<polygon fill="midnightblue" stroke="midnightblue" points="748.72,-302.9 750.77,-313.3 755.65,-303.89 748.72,-302.9"/>
</g>
<!-- Node6&#45;&gt;Node7 -->
<g id="edge7" class="edge">
<title>Node6&#45;&gt;Node7</title>
<path fill="none" stroke="midnightblue" d="M674.92,-194.58C543.94,-186.42 274.18,-168.51 181,-154 174.62,-153.01 167.92,-151.71 161.39,-150.3"/>
<polygon fill="midnightblue" stroke="midnightblue" points="161.84,-146.82 151.32,-148.03 160.3,-153.65 161.84,-146.82"/>
</g>
<!-- Node8 -->
<g id="node8" class="node">
<title>Node8</title>
<g id="a_node8"><a xlink:href="sequence_8h.html" target="_top" xlink:title="Functions and data structures related to sequence representations ,.">
<polygon fill="none" stroke="black" points="461,-129 461,-148 583,-148 583,-129 461,-129"/>
<text text-anchor="middle" x="522" y="-136" font-family="Helvetica,sans-Serif" font-size="10.00">ViennaRNA/sequence.h</text>
</a>
</g>
</g>
<!-- Node6&#45;&gt;Node8 -->
<g id="edge9" class="edge">
<title>Node6&#45;&gt;Node8</title>
<path fill="none" stroke="midnightblue" d="M710.72,-190.48C668.75,-180.03 601.2,-162.29 559.25,-150.73"/>
<polygon fill="midnightblue" stroke="midnightblue" points="559.99,-147.31 549.42,-148.01 558.12,-154.05 559.99,-147.31"/>
</g>
<!-- Node6&#45;&gt;Node9 -->
<g id="edge11" class="edge">
<title>Node6&#45;&gt;Node9</title>
<path fill="none" stroke="midnightblue" d="M797.52,-190.48C852.12,-181.78 942.26,-167.64 1020,-154 1027.36,-152.71 1035.11,-151.29 1042.82,-149.87"/>
<polygon fill="midnightblue" stroke="midnightblue" points="1043.71,-153.27 1052.91,-148 1042.44,-146.38 1043.71,-153.27"/>
</g>
<!-- Node6&#45;&gt;Node10 -->
<g id="edge14" class="edge">
<title>Node6&#45;&gt;Node10</title>
<path fill="none" stroke="midnightblue" d="M754.27,-190.48C763.08,-182.42 778.82,-170.02 793.4,-159.47"/>
<polygon fill="midnightblue" stroke="midnightblue" points="795.66,-162.16 801.79,-153.52 791.61,-156.46 795.66,-162.16"/>
</g>
<!-- Node6&#45;&gt;Node12 -->
<g id="edge18" class="edge">
<title>Node6&#45;&gt;Node12</title>
<path fill="none" stroke="midnightblue" d="M678.24,-190.49C618.69,-182.46 530.75,-169.61 450.68,-155.37"/>
<polygon fill="midnightblue" stroke="midnightblue" points="450.92,-151.86 440.46,-153.54 449.68,-158.75 450.92,-151.86"/>
</g>
<!-- Node6&#45;&gt;Node13 -->
<g id="edge22" class="edge">
<title>Node6&#45;&gt;Node13</title>
<path fill="none" stroke="midnightblue" d="M773.76,-190.48C809.21,-179.98 873.23,-162.14 916.73,-150.59"/>
<polygon fill="midnightblue" stroke="midnightblue" points="917.72,-153.94 926.5,-148.01 915.94,-147.18 917.72,-153.94"/>
</g>
<!-- Node6&#45;&gt;Node14 -->
<g id="edge24" class="edge">
<title>Node6&#45;&gt;Node14</title>
<path fill="none" stroke="midnightblue" d="M674.72,-193.94C590.36,-187.55 447.5,-174.97 315.79,-154.18"/>
<polygon fill="midnightblue" stroke="midnightblue" points="315.95,-150.66 305.52,-152.54 314.84,-157.57 315.95,-150.66"/>
</g>
<!-- Node6&#45;&gt;Node15 -->
<g id="edge25" class="edge">
<title>Node6&#45;&gt;Node15</title>
<path fill="none" stroke="midnightblue" d="M821.28,-192.96C905.84,-185.86 1048.75,-172.63 1171,-154 1173.68,-153.59 1176.42,-153.15 1179.19,-152.68"/>
<polygon fill="midnightblue" stroke="midnightblue" points="1180.05,-156.09 1189.29,-150.91 1178.84,-149.19 1180.05,-156.09"/>
</g>
<!-- Node18 -->
<g id="node18" class="node">
<title>Node18</title>
<g id="a_node18"><a xlink:href="zscore_8h_source.html" target="_top" xlink:title=" ">
<polygon fill="none" stroke="black" points="639.5,-129 639.5,-148 748.5,-148 748.5,-129 639.5,-129"/>
<text text-anchor="middle" x="694" y="-136" font-family="Helvetica,sans-Serif" font-size="10.00">ViennaRNA/zscore.h</text>
</a>
</g>
</g>
<!-- Node6&#45;&gt;Node18 -->
<g id="edge31" class="edge">
<title>Node6&#45;&gt;Node18</title>
<path fill="none" stroke="midnightblue" d="M740.26,-190.48C732,-181.37 718.72,-166.74 708.51,-155.48"/>
<polygon fill="midnightblue" stroke="midnightblue" points="711.03,-153.06 701.72,-148.01 705.85,-157.77 711.03,-153.06"/>
</g>
<!-- Node8&#45;&gt;Node6 -->
<g id="edge10" class="edge">
<title>Node8&#45;&gt;Node6</title>
<path fill="none" stroke="midnightblue" d="M559.22,-148.01C601.16,-158.45 668.71,-176.19 710.69,-187.75"/>
<polygon fill="midnightblue" stroke="midnightblue" points="709.95,-191.18 720.52,-190.48 711.82,-184.43 709.95,-191.18"/>
</g>
<!-- Node9&#45;&gt;Node5 -->
<g id="edge12" class="edge">
<title>Node9&#45;&gt;Node5</title>
<path fill="none" stroke="midnightblue" d="M1090.65,-148.09C1053.27,-167.61 952.89,-215.64 894.5,-242.16"/>
<polygon fill="midnightblue" stroke="midnightblue" points="892.83,-239.08 885.16,-246.38 895.71,-245.45 892.83,-239.08"/>
</g>
<!-- Node9&#45;&gt;Node6 -->
<g id="edge13" class="edge">
<title>Node9&#45;&gt;Node6</title>
<path fill="none" stroke="midnightblue" d="M1070.36,-148C1059.98,-150.03 1048.58,-152.14 1038,-154 964.51,-166.89 879.94,-180.23 821.09,-189.01"/>
<polygon fill="midnightblue" stroke="midnightblue" points="820.52,-185.55 811.14,-190.48 821.55,-192.48 820.52,-185.55"/>
</g>
<!-- Node10&#45;&gt;Node6 -->
<g id="edge15" class="edge">
<title>Node10&#45;&gt;Node6</title>
<path fill="none" stroke="midnightblue" d="M813.45,-153.52C802.33,-162.93 786.15,-175.28 772.56,-184.74"/>
<polygon fill="midnightblue" stroke="midnightblue" points="770.4,-181.97 764.08,-190.48 774.32,-187.77 770.4,-181.97"/>
</g>
<!-- Node11 -->
<g id="node11" class="node">
<title>Node11</title>
<g id="a_node11"><a xlink:href="constraints_2basic_8h.html" target="_top" xlink:title="Functions and data structures for constraining secondary structure predictions and evaluation.">
<polygon fill="none" stroke="black" points="551.5,-56.5 551.5,-86.5 670.5,-86.5 670.5,-56.5 551.5,-56.5"/>
<text text-anchor="start" x="559.5" y="-74.5" font-family="Helvetica,sans-Serif" font-size="10.00">ViennaRNA/constraints</text>
<text text-anchor="middle" x="611" y="-63.5" font-family="Helvetica,sans-Serif" font-size="10.00">/basic.h</text>
</a>
</g>
</g>
<!-- Node10&#45;&gt;Node11 -->
<g id="edge16" class="edge">
<title>Node10&#45;&gt;Node11</title>
<path fill="none" stroke="midnightblue" d="M779.61,-123.48C746.66,-113.51 702.25,-100.09 667.27,-89.51"/>
<polygon fill="midnightblue" stroke="midnightblue" points="668.26,-86.15 657.67,-86.61 666.23,-92.86 668.26,-86.15"/>
</g>
<!-- Node11&#45;&gt;Node6 -->
<g id="edge17" class="edge">
<title>Node11&#45;&gt;Node6</title>
<path fill="none" stroke="midnightblue" d="M610.48,-86.68C610.6,-104.5 613.47,-135.07 630,-154 644.38,-170.47 665.46,-180.93 685.84,-187.58"/>
<polygon fill="midnightblue" stroke="midnightblue" points="684.85,-190.93 695.44,-190.45 686.86,-184.23 684.85,-190.93"/>
</g>
<!-- Node12&#45;&gt;Node5 -->
<g id="edge19" class="edge">
<title>Node12&#45;&gt;Node5</title>
<path fill="none" stroke="midnightblue" d="M442.68,-150.97C500.19,-163 582.72,-181.33 614,-190 641.5,-197.62 647.67,-201.8 675,-210 714.76,-221.94 759.68,-234.23 794.26,-243.69"/>
<polygon fill="midnightblue" stroke="midnightblue" points="793.61,-247.14 804.18,-246.41 795.46,-240.39 793.61,-247.14"/>
</g>
<!-- Node12&#45;&gt;Node6 -->
<g id="edge20" class="edge">
<title>Node12&#45;&gt;Node6</title>
<path fill="none" stroke="midnightblue" d="M442.74,-150.51C448.93,-151.74 455.1,-152.93 461,-154 536.63,-167.69 623.65,-180.57 681.93,-189.02"/>
<polygon fill="midnightblue" stroke="midnightblue" points="681.71,-192.53 692.11,-190.49 682.72,-185.6 681.71,-192.53"/>
</g>
<!-- Node12&#45;&gt;Node11 -->
<g id="edge21" class="edge">
<title>Node12&#45;&gt;Node11</title>
<path fill="none" stroke="midnightblue" d="M432.19,-123.48C467.28,-113.47 514.64,-99.97 551.8,-89.38"/>
<polygon fill="midnightblue" stroke="midnightblue" points="552.85,-92.72 561.5,-86.61 550.93,-85.99 552.85,-92.72"/>
</g>
<!-- Node13&#45;&gt;Node6 -->
<g id="edge23" class="edge">
<title>Node13&#45;&gt;Node6</title>
<path fill="none" stroke="midnightblue" d="M936.29,-148.01C900.87,-158.5 836.86,-176.34 793.34,-187.9"/>
<polygon fill="midnightblue" stroke="midnightblue" points="792.34,-184.54 783.56,-190.48 794.12,-191.31 792.34,-184.54"/>
</g>
<!-- Node15&#45;&gt;Node5 -->
<g id="edge26" class="edge">
<title>Node15&#45;&gt;Node5</title>
<path fill="none" stroke="midnightblue" d="M1210.03,-153.53C1138.83,-175.87 994.41,-219.49 912.04,-243.55"/>
<polygon fill="midnightblue" stroke="midnightblue" points="910.93,-240.23 902.31,-246.38 912.89,-246.95 910.93,-240.23"/>
</g>
<!-- Node15&#45;&gt;Node6 -->
<g id="edge27" class="edge">
<title>Node15&#45;&gt;Node6</title>
<path fill="none" stroke="midnightblue" d="M1192.05,-153.53C1191.02,-153.69 1190.01,-153.85 1189,-154 1065.18,-172.87 920.18,-186.2 831.14,-193.23"/>
<polygon fill="midnightblue" stroke="midnightblue" points="830.8,-189.75 821.1,-194.02 831.35,-196.73 830.8,-189.75"/>
</g>
<!-- Node15&#45;&gt;Node16 -->
<g id="edge28" class="edge">
<title>Node15&#45;&gt;Node16</title>
<path fill="none" stroke="midnightblue" d="M1273.7,-123.4C1290.47,-112.5 1313.57,-97.48 1330.33,-86.58"/>
<polygon fill="midnightblue" stroke="midnightblue" points="1332.44,-89.39 1338.91,-81.01 1328.62,-83.52 1332.44,-89.39"/>
</g>
<!-- Node16&#45;&gt;Node5 -->
<g id="edge30" class="edge">
<title>Node16&#45;&gt;Node5</title>
<path fill="none" stroke="midnightblue" d="M1356.76,-81.12C1359.55,-97.81 1354.62,-134.63 1333,-154 1274.45,-206.47 1049.49,-239.07 928.66,-252.86"/>
<polygon fill="midnightblue" stroke="midnightblue" points="927.91,-249.43 918.37,-254.02 928.69,-256.38 927.91,-249.43"/>
</g>
<!-- Node17 -->
<g id="node17" class="node">
<title>Node17</title>
<g id="a_node17"><a xlink:title=" ">
<polygon fill="none" stroke="#bfbfbf" points="1329,-0.5 1329,-19.5 1375,-19.5 1375,-0.5 1329,-0.5"/>
<text text-anchor="middle" x="1352" y="-7.5" font-family="Helvetica,sans-Serif" font-size="10.00">stdio.h</text>
</a>
</g>
</g>
<!-- Node16&#45;&gt;Node17 -->
<g id="edge29" class="edge">
<title>Node16&#45;&gt;Node17</title>
<path fill="none" stroke="midnightblue" d="M1352,-61.98C1352,-53.58 1352,-40.48 1352,-29.66"/>
<polygon fill="midnightblue" stroke="midnightblue" points="1355.5,-29.51 1352,-19.51 1348.5,-29.51 1355.5,-29.51"/>
</g>
</g>
</svg>
        <g id="navigator" transform="translate(0 0)" fill="#404254">
                <rect fill="#f2f5e9" fill-opacity="0.5" stroke="#606060" stroke-width=".5" x="0" y="0" width="60" height="60"/>
                <use id="zoomplus" xlink:href="#zoomPlus" x="17" y="9" onmousedown="handleZoom(evt,'in')"/>
                <use id="zoomminus" xlink:href="#zoomMin" x="42" y="9" onmousedown="handleZoom(evt,'out')"/>
                <use id="reset" xlink:href="#resetDef" x="30" y="36" onmousedown="handleReset()"/>
                <g id="arrowUp" xlink:href="#dirArrow" transform="translate(30 24)" onmousedown="handlePan(0,-1)">
                  <use xlink:href="#rim" fill="#404040">
                        <set attributeName="fill" to="#808080" begin="arrowUp.mouseover" end="arrowUp.mouseout"/>
                  </use>
                  <path fill="none" stroke="white" stroke-width="1.5" d="M0,-3.0v7 M-2.5,-0.5L0,-3.0L2.5,-0.5"/>
                </g>
                <g id="arrowRight" xlink:href="#dirArrow" transform="rotate(90) translate(36 -43)" onmousedown="handlePan(1,0)">
                  <use xlink:href="#rim" fill="#404040">
                        <set attributeName="fill" to="#808080" begin="arrowRight.mouseover" end="arrowRight.mouseout"/>
                  </use>
                  <path fill="none" stroke="white" stroke-width="1.5" d="M0,-3.0v7 M-2.5,-0.5L0,-3.0L2.5,-0.5"/>
                </g>
                <g id="arrowDown" xlink:href="#dirArrow" transform="rotate(180) translate(-30 -48)" onmousedown="handlePan(0,1)">
                  <use xlink:href="#rim" fill="#404040">
                        <set attributeName="fill" to="#808080" begin="arrowDown.mouseover" end="arrowDown.mouseout"/>
                  </use>
                  <path fill="none" stroke="white" stroke-width="1.5" d="M0,-3.0v7 M-2.5,-0.5L0,-3.0L2.5,-0.5"/>
                </g>
                <g id="arrowLeft" xlink:href="#dirArrow" transform="rotate(270) translate(-36 17)" onmousedown="handlePan(-1,0)">
                  <use xlink:href="#rim" fill="#404040">
                        <set attributeName="fill" to="#808080" begin="arrowLeft.mouseover" end="arrowLeft.mouseout"/>
                  </use>
                  <path fill="none" stroke="white" stroke-width="1.5" d="M0,-3.0v7 M-2.5,-0.5L0,-3.0L2.5,-0.5"/>
                </g>
        </g>
        <svg viewBox="0 0 15 15" width="100%" height="30px" preserveAspectRatio="xMaxYMin meet">
         <g id="arrow_out" transform="scale(0.3 0.3)">
          <a xlink:href="params_8h__incl_org.svg" target="_base">
           <rect id="button" ry="5" rx="5" y="6" x="6" height="38" width="38"
                fill="#f2f5e9" fill-opacity="0.5" stroke="#606060" stroke-width="1.0"/>
           <path id="arrow"
             d="M 11.500037,31.436501 C 11.940474,20.09759 22.043105,11.32322 32.158766,21.979434 L 37.068811,17.246167 C 37.068811,17.246167 37.088388,32 37.088388,32 L 22.160133,31.978069 C 22.160133,31.978069 26.997745,27.140456 26.997745,27.140456 C 18.528582,18.264221 13.291696,25.230495 11.500037,31.436501 z"
             style="fill:#404040;"/>
          </a>
         </g>
        </svg>
</svg>
