<?xml version="1.0" encoding="UTF-8" standalone="no"?>
<!DOCTYPE svg PUBLIC "-//W3C//DTD SVG 1.1//EN"
 "http://www.w3.org/Graphics/SVG/1.1/DTD/svg11.dtd">
<!-- Generated by graphviz version 2.47.0 (0)
 -->
<!-- Title: ViennaRNA/part_func_co.h Pages: 1 -->
<!--zoomable 464 -->
<svg id="main" version="1.1" xmlns="http://www.w3.org/2000/svg" xmlns:xlink="http://www.w3.org/1999/xlink" xml:space="preserve" onload="init(evt)">
<style type="text/css"><![CDATA[
.edge:hover path { stroke: red; }
.edge:hover polygon { stroke: red; fill: red; }
]]></style>
<script type="text/javascript"><![CDATA[
var edges = document.getElementsByTagName('g');
if (edges && edges.length) {
  for (var i=0;i<edges.length;i++) {
    if (edges[i].id.substr(0,4)=='edge') {
      edges[i].setAttribute('class','edge');
    }
  }
}
]]></script>
        <defs>
                <circle id="rim" cx="0" cy="0" r="7"/>
                <circle id="rim2" cx="0" cy="0" r="3.5"/>
                <g id="zoomPlus">
                        <use xlink:href="#rim" fill="#404040">
                                <set attributeName="fill" to="#808080" begin="zoomplus.mouseover" end="zoomplus.mouseout"/>
                        </use>
                        <path d="M-4,0h8M0,-4v8" fill="none" stroke="white" stroke-width="1.5" pointer-events="none"/>
                </g>
                <g id="zoomMin">
                        <use xlink:href="#rim" fill="#404040">
                                <set attributeName="fill" to="#808080" begin="zoomminus.mouseover" end="zoomminus.mouseout"/>
                        </use>
                        <path d="M-4,0h8" fill="none" stroke="white" stroke-width="1.5" pointer-events="none"/>
                </g>
                <g id="dirArrow">
                        <path fill="none" stroke="white" stroke-width="1.5" d="M0,-3.0v7 M-2.5,-0.5L0,-3.0L2.5,-0.5"/>
                </g>
               <g id="resetDef">
                       <use xlink:href="#rim2" fill="#404040">
                               <set attributeName="fill" to="#808080" begin="reset.mouseover" end="reset.mouseout"/>
                       </use>
               </g>
        </defs>

<script type="text/javascript">
var viewWidth = 1649;
var viewHeight = 464;
var sectionId = 'dynsection-0';
</script>
<script xlink:href="svgpan.js"/>
<svg id="graph" class="graph">
<g id="viewport">
<title>ViennaRNA/part_func_co.h</title>
<!-- Node1 -->
<g id="node1" class="node">
<title>Node1</title>
<g id="a_node1"><a xlink:title="Partition function for two RNA sequences.">
<polygon fill="#bfbfbf" stroke="black" points="572,-436.5 572,-455.5 708,-455.5 708,-436.5 572,-436.5"/>
<text text-anchor="middle" x="640" y="-443.5" font-family="Helvetica,sans-Serif" font-size="10.00">ViennaRNA/part_func_co.h</text>
</a>
</g>
</g>
<!-- Node2 -->
<g id="node2" class="node">
<title>Node2</title>
<g id="a_node2"><a xlink:href="datastructures_2basic_8h.html" target="_top" xlink:title="Various data structures and pre&#45;processor macros.">
<polygon fill="none" stroke="black" points="549,-246.5 549,-276.5 683,-276.5 683,-246.5 549,-246.5"/>
<text text-anchor="start" x="557" y="-264.5" font-family="Helvetica,sans-Serif" font-size="10.00">ViennaRNA/datastructures</text>
<text text-anchor="middle" x="616" y="-253.5" font-family="Helvetica,sans-Serif" font-size="10.00">/basic.h</text>
</a>
</g>
</g>
<!-- Node1&#45;&gt;Node2 -->
<g id="edge1" class="edge">
<title>Node1&#45;&gt;Node2</title>
<path fill="none" stroke="midnightblue" d="M637.26,-436.47C631.87,-419.24 620.09,-378.91 616,-344 613.77,-324.93 613.9,-303.18 614.52,-286.95"/>
<polygon fill="midnightblue" stroke="midnightblue" points="618.03,-286.85 615,-276.69 611.04,-286.52 618.03,-286.85"/>
</g>
<!-- Node7 -->
<g id="node7" class="node">
<title>Node7</title>
<g id="a_node7"><a xlink:href="params_2basic_8h.html" target="_top" xlink:title="Functions to deal with sets of energy parameters.">
<polygon fill="none" stroke="black" points="85,-129 85,-148 223,-148 223,-129 85,-129"/>
<text text-anchor="middle" x="154" y="-136" font-family="Helvetica,sans-Serif" font-size="10.00">ViennaRNA/params/basic.h</text>
</a>
</g>
</g>
<!-- Node1&#45;&gt;Node7 -->
<g id="edge43" class="edge">
<title>Node1&#45;&gt;Node7</title>
<path fill="none" stroke="midnightblue" d="M571.8,-444.7C425.57,-442.21 95,-425.92 95,-329.5 95,-329.5 95,-329.5 95,-260.5 95,-219.65 122.51,-178.17 139.96,-155.97"/>
<polygon fill="midnightblue" stroke="midnightblue" points="142.69,-158.16 146.29,-148.19 137.26,-153.74 142.69,-158.16"/>
</g>
<!-- Node16 -->
<g id="node16" class="node">
<title>Node16</title>
<g id="a_node16"><a xlink:href="utils_2structures_8h.html" target="_top" xlink:title="Various utility&#45; and helper&#45;functions for secondary structure parsing, converting,...">
<polygon fill="none" stroke="black" points="1455,-62 1455,-81 1599,-81 1599,-62 1455,-62"/>
<text text-anchor="middle" x="1527" y="-69" font-family="Helvetica,sans-Serif" font-size="10.00">ViennaRNA/utils/structures.h</text>
</a>
</g>
</g>
<!-- Node1&#45;&gt;Node16 -->
<g id="edge63" class="edge">
<title>Node1&#45;&gt;Node16</title>
<path fill="none" stroke="midnightblue" d="M708.02,-444.31C933.31,-441.13 1641,-423.64 1641,-329.5 1641,-329.5 1641,-329.5 1641,-199 1641,-146.57 1586.3,-106.08 1552.68,-86.14"/>
<polygon fill="midnightblue" stroke="midnightblue" points="1554.24,-83 1543.82,-81.07 1550.76,-89.08 1554.24,-83"/>
</g>
<!-- Node19 -->
<g id="node19" class="node">
<title>Node19</title>
<g id="a_node19"><a xlink:href="part__func_8h.html" target="_top" xlink:title="Partition function implementations.">
<polygon fill="none" stroke="black" points="699,-380.5 699,-399.5 819,-399.5 819,-380.5 699,-380.5"/>
<text text-anchor="middle" x="759" y="-387.5" font-family="Helvetica,sans-Serif" font-size="10.00">ViennaRNA/part_func.h</text>
</a>
</g>
</g>
<!-- Node1&#45;&gt;Node19 -->
<g id="edge44" class="edge">
<title>Node1&#45;&gt;Node19</title>
<path fill="none" stroke="midnightblue" d="M658.86,-436.44C678.27,-427.64 708.73,-413.81 730.96,-403.72"/>
<polygon fill="midnightblue" stroke="midnightblue" points="732.57,-406.84 740.23,-399.52 729.68,-400.46 732.57,-406.84"/>
</g>
<!-- Node21 -->
<g id="node21" class="node">
<title>Node21</title>
<g id="a_node21"><a xlink:href="equilibrium__probs_8h.html" target="_top" xlink:title="Equilibrium Probability implementations.">
<polygon fill="none" stroke="black" points="644,-313.5 644,-343.5 762,-343.5 762,-313.5 644,-313.5"/>
<text text-anchor="start" x="652" y="-331.5" font-family="Helvetica,sans-Serif" font-size="10.00">ViennaRNA/equilibrium</text>
<text text-anchor="middle" x="703" y="-320.5" font-family="Helvetica,sans-Serif" font-size="10.00">_probs.h</text>
</a>
</g>
</g>
<!-- Node1&#45;&gt;Node21 -->
<g id="edge60" class="edge">
<title>Node1&#45;&gt;Node21</title>
<path fill="none" stroke="midnightblue" d="M644.74,-436.32C654.33,-418.73 676.33,-378.39 690.38,-352.63"/>
<polygon fill="midnightblue" stroke="midnightblue" points="693.62,-354 695.34,-343.55 687.48,-350.65 693.62,-354"/>
</g>
<!-- Node23 -->
<g id="node23" class="node">
<title>Node23</title>
<g id="a_node23"><a xlink:href="concentrations_8h.html" target="_top" xlink:title="Concentration computations for RNA&#45;RNA interactions.">
<polygon fill="none" stroke="black" points="123.5,-252 123.5,-271 266.5,-271 266.5,-252 123.5,-252"/>
<text text-anchor="middle" x="195" y="-259" font-family="Helvetica,sans-Serif" font-size="10.00">ViennaRNA/concentrations.h</text>
</a>
</g>
</g>
<!-- Node1&#45;&gt;Node23 -->
<g id="edge61" class="edge">
<title>Node1&#45;&gt;Node23</title>
<path fill="none" stroke="midnightblue" d="M575.77,-436.49C501.01,-424.5 375.73,-397.79 281,-344 251.04,-326.99 223.47,-297.36 207.99,-278.89"/>
<polygon fill="midnightblue" stroke="midnightblue" points="210.62,-276.58 201.58,-271.06 205.2,-281.02 210.62,-276.58"/>
</g>
<!-- Node3 -->
<g id="node3" class="node">
<title>Node3</title>
<g id="a_node3"><a xlink:href="constants_8h.html" target="_top" xlink:title="Energy parameter constants.">
<polygon fill="none" stroke="black" points="0,-62 0,-81 158,-81 158,-62 0,-62"/>
<text text-anchor="middle" x="79" y="-69" font-family="Helvetica,sans-Serif" font-size="10.00">ViennaRNA/params/constants.h</text>
</a>
</g>
</g>
<!-- Node2&#45;&gt;Node3 -->
<g id="edge2" class="edge">
<title>Node2&#45;&gt;Node3</title>
<path fill="none" stroke="midnightblue" d="M548.89,-257.57C417.67,-250.29 134.77,-226.37 76,-154 61.74,-136.44 66.45,-109.06 72,-90.95"/>
<polygon fill="midnightblue" stroke="midnightblue" points="75.38,-91.87 75.32,-81.28 68.76,-89.6 75.38,-91.87"/>
</g>
<!-- Node5 -->
<g id="node5" class="node">
<title>Node5</title>
<g id="a_node5"><a xlink:href="fold__compound_8h.html" target="_top" xlink:title="The Basic Fold Compound API.">
<polygon fill="none" stroke="black" points="717,-190.5 717,-209.5 863,-209.5 863,-190.5 717,-190.5"/>
<text text-anchor="middle" x="790" y="-197.5" font-family="Helvetica,sans-Serif" font-size="10.00">ViennaRNA/fold_compound.h</text>
</a>
</g>
</g>
<!-- Node2&#45;&gt;Node5 -->
<g id="edge4" class="edge">
<title>Node2&#45;&gt;Node5</title>
<path fill="none" stroke="midnightblue" d="M657.24,-246.4C687.17,-236.16 727.21,-222.47 755.47,-212.81"/>
<polygon fill="midnightblue" stroke="midnightblue" points="756.61,-216.12 764.94,-209.57 754.34,-209.49 756.61,-216.12"/>
</g>
<!-- Node6 -->
<g id="node6" class="node">
<title>Node6</title>
<g id="a_node6"><a xlink:href="model_8h.html" target="_top" xlink:title="The model details data structure and its corresponding modifiers.">
<polygon fill="none" stroke="black" points="198,-62 198,-81 304,-81 304,-62 198,-62"/>
<text text-anchor="middle" x="251" y="-69" font-family="Helvetica,sans-Serif" font-size="10.00">ViennaRNA/model.h</text>
</a>
</g>
</g>
<!-- Node2&#45;&gt;Node6 -->
<g id="edge34" class="edge">
<title>Node2&#45;&gt;Node6</title>
<path fill="none" stroke="midnightblue" d="M568.54,-246.48C536.34,-236.75 492.89,-223.22 455,-210 431.62,-201.85 426.53,-197.71 403,-190 345.22,-171.06 313.44,-197.55 271,-154 254.75,-137.33 250.99,-109.7 250.47,-91.3"/>
<polygon fill="midnightblue" stroke="midnightblue" points="253.97,-91.22 250.47,-81.22 246.97,-91.22 253.97,-91.22"/>
</g>
<!-- Node2&#45;&gt;Node7 -->
<g id="edge35" class="edge">
<title>Node2&#45;&gt;Node7</title>
<path fill="none" stroke="midnightblue" d="M548.66,-246.48C506.73,-236.76 451.96,-223.22 404,-210 374.45,-201.85 367.5,-198.33 338,-190 287.42,-175.73 229,-160.63 191.67,-150.7"/>
<polygon fill="midnightblue" stroke="midnightblue" points="192.29,-147.25 181.73,-148.05 190.48,-154.01 192.29,-147.25"/>
</g>
<!-- Node9 -->
<g id="node9" class="node">
<title>Node9</title>
<g id="a_node9"><a xlink:href="dp__matrices_8h.html" target="_top" xlink:title="Functions to deal with standard dynamic programming (DP) matrices.">
<polygon fill="none" stroke="black" points="549.5,-129 549.5,-148 682.5,-148 682.5,-129 549.5,-129"/>
<text text-anchor="middle" x="616" y="-136" font-family="Helvetica,sans-Serif" font-size="10.00">ViennaRNA/dp_matrices.h</text>
</a>
</g>
</g>
<!-- Node2&#45;&gt;Node9 -->
<g id="edge36" class="edge">
<title>Node2&#45;&gt;Node9</title>
<path fill="none" stroke="midnightblue" d="M611.45,-246.14C608.69,-224.2 608.53,-182.33 610.97,-158.09"/>
<polygon fill="midnightblue" stroke="midnightblue" points="614.45,-158.43 612.32,-148.05 607.52,-157.49 614.45,-158.43"/>
</g>
<!-- Node10 -->
<g id="node10" class="node">
<title>Node10</title>
<g id="a_node10"><a xlink:href="hard_8h.html" target="_top" xlink:title="Functions and data structures for handling of secondary structure hard constraints.">
<polygon fill="none" stroke="black" points="1180.5,-123.5 1180.5,-153.5 1299.5,-153.5 1299.5,-123.5 1180.5,-123.5"/>
<text text-anchor="start" x="1188.5" y="-141.5" font-family="Helvetica,sans-Serif" font-size="10.00">ViennaRNA/constraints</text>
<text text-anchor="middle" x="1240" y="-130.5" font-family="Helvetica,sans-Serif" font-size="10.00">/hard.h</text>
</a>
</g>
</g>
<!-- Node2&#45;&gt;Node10 -->
<g id="edge37" class="edge">
<title>Node2&#45;&gt;Node10</title>
<path fill="none" stroke="midnightblue" d="M683.14,-248.01C785.69,-228.85 987.75,-190.74 1170.13,-154.16"/>
<polygon fill="midnightblue" stroke="midnightblue" points="1171.06,-157.54 1180.17,-152.14 1169.68,-150.68 1171.06,-157.54"/>
</g>
<!-- Node12 -->
<g id="node12" class="node">
<title>Node12</title>
<g id="a_node12"><a xlink:href="soft_8h.html" target="_top" xlink:title="Functions and data structures for secondary structure soft constraints.">
<polygon fill="none" stroke="black" points="412.5,-123.5 412.5,-153.5 531.5,-153.5 531.5,-123.5 412.5,-123.5"/>
<text text-anchor="start" x="420.5" y="-141.5" font-family="Helvetica,sans-Serif" font-size="10.00">ViennaRNA/constraints</text>
<text text-anchor="middle" x="472" y="-130.5" font-family="Helvetica,sans-Serif" font-size="10.00">/soft.h</text>
</a>
</g>
</g>
<!-- Node2&#45;&gt;Node12 -->
<g id="edge38" class="edge">
<title>Node2&#45;&gt;Node12</title>
<path fill="none" stroke="midnightblue" d="M594.68,-246.38C566.72,-225.16 518.58,-184.91 491.53,-160.32"/>
<polygon fill="midnightblue" stroke="midnightblue" points="493.9,-157.74 484.18,-153.53 489.15,-162.88 493.9,-157.74"/>
</g>
<!-- Node13 -->
<g id="node13" class="node">
<title>Node13</title>
<g id="a_node13"><a xlink:href="grammar_8h.html" target="_top" xlink:title="Implementations for the RNA folding grammar.">
<polygon fill="none" stroke="black" points="700.5,-129 700.5,-148 817.5,-148 817.5,-129 700.5,-129"/>
<text text-anchor="middle" x="759" y="-136" font-family="Helvetica,sans-Serif" font-size="10.00">ViennaRNA/grammar.h</text>
</a>
</g>
</g>
<!-- Node2&#45;&gt;Node13 -->
<g id="edge39" class="edge">
<title>Node2&#45;&gt;Node13</title>
<path fill="none" stroke="midnightblue" d="M632.68,-246.38C659.79,-223.45 713.17,-178.28 741.06,-154.68"/>
<polygon fill="midnightblue" stroke="midnightblue" points="743.47,-157.22 748.85,-148.09 738.95,-151.88 743.47,-157.22"/>
</g>
<!-- Node14 -->
<g id="node14" class="node">
<title>Node14</title>
<g id="a_node14"><a xlink:href="structured__domains_8h.html" target="_top" xlink:title="This module provides interfaces that deal with additional structured domains in the folding grammar.">
<polygon fill="none" stroke="black" points="279.5,-123.5 279.5,-153.5 394.5,-153.5 394.5,-123.5 279.5,-123.5"/>
<text text-anchor="start" x="287.5" y="-141.5" font-family="Helvetica,sans-Serif" font-size="10.00">ViennaRNA/structured</text>
<text text-anchor="middle" x="337" y="-130.5" font-family="Helvetica,sans-Serif" font-size="10.00">_domains.h</text>
</a>
</g>
</g>
<!-- Node2&#45;&gt;Node14 -->
<g id="edge40" class="edge">
<title>Node2&#45;&gt;Node14</title>
<path fill="none" stroke="midnightblue" d="M583.45,-246.38C532.63,-224.34 434.48,-181.78 378.6,-157.54"/>
<polygon fill="midnightblue" stroke="midnightblue" points="379.91,-154.3 369.34,-153.53 377.13,-160.72 379.91,-154.3"/>
</g>
<!-- Node15 -->
<g id="node15" class="node">
<title>Node15</title>
<g id="a_node15"><a xlink:href="unstructured__domains_8h.html" target="_top" xlink:title="Functions to modify unstructured domains, e.g. to incorporate ligands binding to unpaired stretches.">
<polygon fill="none" stroke="black" points="1317.5,-123.5 1317.5,-153.5 1442.5,-153.5 1442.5,-123.5 1317.5,-123.5"/>
<text text-anchor="start" x="1325.5" y="-141.5" font-family="Helvetica,sans-Serif" font-size="10.00">ViennaRNA/unstructured</text>
<text text-anchor="middle" x="1380" y="-130.5" font-family="Helvetica,sans-Serif" font-size="10.00">_domains.h</text>
</a>
</g>
</g>
<!-- Node2&#45;&gt;Node15 -->
<g id="edge41" class="edge">
<title>Node2&#45;&gt;Node15</title>
<path fill="none" stroke="midnightblue" d="M683.13,-250.67C805.93,-233.26 1074.54,-194.94 1300,-154 1302.35,-153.57 1304.74,-153.13 1307.16,-152.68"/>
<polygon fill="midnightblue" stroke="midnightblue" points="1308.05,-156.07 1317.21,-150.75 1306.73,-149.19 1308.05,-156.07"/>
</g>
<!-- Node2&#45;&gt;Node16 -->
<g id="edge42" class="edge">
<title>Node2&#45;&gt;Node16</title>
<path fill="none" stroke="midnightblue" d="M683.08,-257.77C855.68,-249.99 1310.48,-223.62 1443,-154 1471.79,-138.88 1495.27,-108.17 1510.49,-89.07"/>
<polygon fill="midnightblue" stroke="midnightblue" points="1513.29,-91.17 1516.89,-81.21 1507.86,-86.75 1513.29,-91.17"/>
</g>
<!-- Node4 -->
<g id="node4" class="node">
<title>Node4</title>
<g id="a_node4"><a xlink:title=" ">
<polygon fill="none" stroke="#bfbfbf" points="55,-0.5 55,-19.5 103,-19.5 103,-0.5 55,-0.5"/>
<text text-anchor="middle" x="79" y="-7.5" font-family="Helvetica,sans-Serif" font-size="10.00">limits.h</text>
</a>
</g>
</g>
<!-- Node3&#45;&gt;Node4 -->
<g id="edge3" class="edge">
<title>Node3&#45;&gt;Node4</title>
<path fill="none" stroke="midnightblue" d="M79,-61.98C79,-53.58 79,-40.48 79,-29.66"/>
<polygon fill="midnightblue" stroke="midnightblue" points="82.5,-29.51 79,-19.51 75.5,-29.51 82.5,-29.51"/>
</g>
<!-- Node5&#45;&gt;Node6 -->
<g id="edge5" class="edge">
<title>Node5&#45;&gt;Node6</title>
<path fill="none" stroke="midnightblue" d="M800.13,-190.31C816.64,-175.13 845.74,-143.45 827,-123 792.93,-85.81 457.37,-75.89 314.68,-73.34"/>
<polygon fill="midnightblue" stroke="midnightblue" points="314.4,-69.84 304.34,-73.16 314.28,-76.84 314.4,-69.84"/>
</g>
<!-- Node5&#45;&gt;Node7 -->
<g id="edge6" class="edge">
<title>Node5&#45;&gt;Node7</title>
<path fill="none" stroke="midnightblue" d="M716.87,-193.96C614.71,-186.37 423.9,-171.05 262,-154 248.62,-152.59 234.39,-150.95 220.79,-149.29"/>
<polygon fill="midnightblue" stroke="midnightblue" points="220.89,-145.77 210.54,-148.02 220.03,-152.72 220.89,-145.77"/>
</g>
<!-- Node8 -->
<g id="node8" class="node">
<title>Node8</title>
<g id="a_node8"><a xlink:href="sequence_8h.html" target="_top" xlink:title="Functions and data structures related to sequence representations ,.">
<polygon fill="none" stroke="black" points="1040,-129 1040,-148 1162,-148 1162,-129 1040,-129"/>
<text text-anchor="middle" x="1101" y="-136" font-family="Helvetica,sans-Serif" font-size="10.00">ViennaRNA/sequence.h</text>
</a>
</g>
</g>
<!-- Node5&#45;&gt;Node8 -->
<g id="edge11" class="edge">
<title>Node5&#45;&gt;Node8</title>
<path fill="none" stroke="midnightblue" d="M830.39,-190.48C876.78,-181.62 954.76,-167.24 1022,-154 1028.23,-152.77 1034.77,-151.46 1041.32,-150.14"/>
<polygon fill="midnightblue" stroke="midnightblue" points="1042.45,-153.48 1051.57,-148.07 1041.07,-146.62 1042.45,-153.48"/>
</g>
<!-- Node5&#45;&gt;Node9 -->
<g id="edge13" class="edge">
<title>Node5&#45;&gt;Node9</title>
<path fill="none" stroke="midnightblue" d="M760.17,-190.48C728.1,-180.27 677.7,-163.11 645.69,-151.55"/>
<polygon fill="midnightblue" stroke="midnightblue" points="646.58,-148.15 635.99,-148.01 644.18,-154.73 646.58,-148.15"/>
</g>
<!-- Node5&#45;&gt;Node10 -->
<g id="edge16" class="edge">
<title>Node5&#45;&gt;Node10</title>
<path fill="none" stroke="midnightblue" d="M863.29,-191.64C938.5,-184.04 1058.64,-170.93 1162,-154 1164.68,-153.56 1167.42,-153.09 1170.18,-152.59"/>
<polygon fill="midnightblue" stroke="midnightblue" points="1171.1,-155.98 1180.29,-150.71 1169.82,-149.1 1171.1,-155.98"/>
</g>
<!-- Node5&#45;&gt;Node12 -->
<g id="edge20" class="edge">
<title>Node5&#45;&gt;Node12</title>
<path fill="none" stroke="midnightblue" d="M733.51,-190.45C683.46,-182.1 608.42,-168.8 539.57,-155.47"/>
<polygon fill="midnightblue" stroke="midnightblue" points="539.95,-151.98 529.46,-153.5 538.61,-158.85 539.95,-151.98"/>
</g>
<!-- Node5&#45;&gt;Node13 -->
<g id="edge24" class="edge">
<title>Node5&#45;&gt;Node13</title>
<path fill="none" stroke="midnightblue" d="M780.66,-190.48C774.32,-181.9 766.85,-168.43 762.11,-157.48"/>
<polygon fill="midnightblue" stroke="midnightblue" points="765.34,-156.13 758.54,-148.01 758.79,-158.6 765.34,-156.13"/>
</g>
<!-- Node5&#45;&gt;Node14 -->
<g id="edge26" class="edge">
<title>Node5&#45;&gt;Node14</title>
<path fill="none" stroke="midnightblue" d="M716.78,-192.6C641.13,-185.5 519.45,-172.74 404.69,-154.01"/>
<polygon fill="midnightblue" stroke="midnightblue" points="405.11,-150.53 394.68,-152.35 403.97,-157.44 405.11,-150.53"/>
</g>
<!-- Node5&#45;&gt;Node15 -->
<g id="edge27" class="edge">
<title>Node5&#45;&gt;Node15</title>
<path fill="none" stroke="midnightblue" d="M863.24,-194.96C962.57,-189.11 1145.15,-176.45 1300,-154 1302.36,-153.66 1304.77,-153.29 1307.2,-152.89"/>
<polygon fill="midnightblue" stroke="midnightblue" points="1308.02,-156.3 1317.28,-151.16 1306.83,-149.4 1308.02,-156.3"/>
</g>
<!-- Node18 -->
<g id="node18" class="node">
<title>Node18</title>
<g id="a_node18"><a xlink:href="zscore_8h_source.html" target="_top" xlink:title=" ">
<polygon fill="none" stroke="black" points="912.5,-129 912.5,-148 1021.5,-148 1021.5,-129 912.5,-129"/>
<text text-anchor="middle" x="967" y="-136" font-family="Helvetica,sans-Serif" font-size="10.00">ViennaRNA/zscore.h</text>
</a>
</g>
</g>
<!-- Node5&#45;&gt;Node18 -->
<g id="edge33" class="edge">
<title>Node5&#45;&gt;Node18</title>
<path fill="none" stroke="midnightblue" d="M815.36,-190.48C845.98,-180.18 897.66,-162.81 932.05,-151.25"/>
<polygon fill="midnightblue" stroke="midnightblue" points="933.32,-154.51 941.69,-148.01 931.09,-147.88 933.32,-154.51"/>
</g>
<!-- Node7&#45;&gt;Node2 -->
<g id="edge8" class="edge">
<title>Node7&#45;&gt;Node2</title>
<path fill="none" stroke="midnightblue" d="M194.82,-148.05C235.94,-157.79 300.67,-174.38 356,-190 385.5,-198.33 392.45,-201.85 422,-210 466.03,-222.14 515.79,-234.54 553.96,-244.01"/>
<polygon fill="midnightblue" stroke="midnightblue" points="553.35,-247.47 563.9,-246.48 555.04,-240.68 553.35,-247.47"/>
</g>
<!-- Node7&#45;&gt;Node3 -->
<g id="edge7" class="edge">
<title>Node7&#45;&gt;Node3</title>
<path fill="none" stroke="midnightblue" d="M143.89,-128.73C131.85,-118.31 111.55,-100.71 96.85,-87.97"/>
<polygon fill="midnightblue" stroke="midnightblue" points="98.8,-85.03 88.95,-81.13 94.22,-90.32 98.8,-85.03"/>
</g>
<!-- Node7&#45;&gt;Node5 -->
<g id="edge9" class="edge">
<title>Node7&#45;&gt;Node5</title>
<path fill="none" stroke="midnightblue" d="M223.29,-147.45C241.78,-149.71 261.68,-152.07 280,-154 430.22,-169.82 605.33,-184.15 706.42,-192.2"/>
<polygon fill="midnightblue" stroke="midnightblue" points="706.32,-195.7 716.57,-193.01 706.88,-188.73 706.32,-195.7"/>
</g>
<!-- Node7&#45;&gt;Node6 -->
<g id="edge10" class="edge">
<title>Node7&#45;&gt;Node6</title>
<path fill="none" stroke="midnightblue" d="M167.08,-128.73C183.15,-117.96 210.63,-99.55 229.75,-86.74"/>
<polygon fill="midnightblue" stroke="midnightblue" points="231.77,-89.6 238.13,-81.13 227.87,-83.79 231.77,-89.6"/>
</g>
<!-- Node8&#45;&gt;Node5 -->
<g id="edge12" class="edge">
<title>Node8&#45;&gt;Node5</title>
<path fill="none" stroke="midnightblue" d="M1069.06,-148.07C1059.71,-150.05 1049.5,-152.13 1040,-154 977.1,-166.39 904.79,-179.78 854.08,-188.7"/>
<polygon fill="midnightblue" stroke="midnightblue" points="853.16,-185.31 843.92,-190.48 854.37,-192.2 853.16,-185.31"/>
</g>
<!-- Node9&#45;&gt;Node2 -->
<g id="edge14" class="edge">
<title>Node9&#45;&gt;Node2</title>
<path fill="none" stroke="midnightblue" d="M619.68,-148.05C623,-166.08 623.63,-208.56 621.56,-235.84"/>
<polygon fill="midnightblue" stroke="midnightblue" points="618.04,-235.85 620.55,-246.14 625.01,-236.53 618.04,-235.85"/>
</g>
<!-- Node9&#45;&gt;Node5 -->
<g id="edge15" class="edge">
<title>Node9&#45;&gt;Node5</title>
<path fill="none" stroke="midnightblue" d="M645.78,-148.01C677.84,-158.21 728.24,-175.37 760.26,-186.93"/>
<polygon fill="midnightblue" stroke="midnightblue" points="759.38,-190.33 769.97,-190.48 761.78,-183.76 759.38,-190.33"/>
</g>
<!-- Node10&#45;&gt;Node5 -->
<g id="edge17" class="edge">
<title>Node10&#45;&gt;Node5</title>
<path fill="none" stroke="midnightblue" d="M1182.92,-153.51C1181.94,-153.68 1180.97,-153.84 1180,-154 1075.11,-171.18 952.93,-184.43 873.6,-191.97"/>
<polygon fill="midnightblue" stroke="midnightblue" points="872.81,-188.53 863.18,-192.95 873.47,-195.5 872.81,-188.53"/>
</g>
<!-- Node11 -->
<g id="node11" class="node">
<title>Node11</title>
<g id="a_node11"><a xlink:href="constraints_2basic_8h.html" target="_top" xlink:title="Functions and data structures for constraining secondary structure predictions and evaluation.">
<polygon fill="none" stroke="black" points="824.5,-56.5 824.5,-86.5 943.5,-86.5 943.5,-56.5 824.5,-56.5"/>
<text text-anchor="start" x="832.5" y="-74.5" font-family="Helvetica,sans-Serif" font-size="10.00">ViennaRNA/constraints</text>
<text text-anchor="middle" x="884" y="-63.5" font-family="Helvetica,sans-Serif" font-size="10.00">/basic.h</text>
</a>
</g>
</g>
<!-- Node10&#45;&gt;Node11 -->
<g id="edge18" class="edge">
<title>Node10&#45;&gt;Node11</title>
<path fill="none" stroke="midnightblue" d="M1180.19,-124.8C1177.08,-124.18 1174,-123.58 1171,-123 1097.08,-108.73 1012.11,-93.99 953.93,-84.14"/>
<polygon fill="midnightblue" stroke="midnightblue" points="954.19,-80.64 943.75,-82.42 953.02,-87.54 954.19,-80.64"/>
</g>
<!-- Node11&#45;&gt;Node5 -->
<g id="edge19" class="edge">
<title>Node11&#45;&gt;Node5</title>
<path fill="none" stroke="midnightblue" d="M882.86,-86.51C880.82,-103.88 875.21,-133.7 860,-154 849.8,-167.62 834.16,-178.24 820.25,-185.73"/>
<polygon fill="midnightblue" stroke="midnightblue" points="818.33,-182.78 810.98,-190.41 821.49,-189.02 818.33,-182.78"/>
</g>
<!-- Node12&#45;&gt;Node2 -->
<g id="edge21" class="edge">
<title>Node12&#45;&gt;Node2</title>
<path fill="none" stroke="midnightblue" d="M493.21,-153.53C521.11,-174.69 569.25,-214.94 596.35,-239.58"/>
<polygon fill="midnightblue" stroke="midnightblue" points="594,-242.17 603.72,-246.38 598.75,-237.03 594,-242.17"/>
</g>
<!-- Node12&#45;&gt;Node5 -->
<g id="edge22" class="edge">
<title>Node12&#45;&gt;Node5</title>
<path fill="none" stroke="midnightblue" d="M531.77,-150.35C537.95,-151.61 544.11,-152.85 550,-154 614.4,-166.58 688.42,-179.8 737.12,-188.63"/>
<polygon fill="midnightblue" stroke="midnightblue" points="736.66,-192.1 747.12,-190.45 737.91,-185.22 736.66,-192.1"/>
</g>
<!-- Node12&#45;&gt;Node11 -->
<g id="edge23" class="edge">
<title>Node12&#45;&gt;Node11</title>
<path fill="none" stroke="midnightblue" d="M531.8,-124.7C534.91,-124.11 537.99,-123.54 541,-123 635.32,-106.16 744.95,-90.74 814.39,-81.48"/>
<polygon fill="midnightblue" stroke="midnightblue" points="814.88,-84.95 824.34,-80.16 813.96,-78.01 814.88,-84.95"/>
</g>
<!-- Node13&#45;&gt;Node5 -->
<g id="edge25" class="edge">
<title>Node13&#45;&gt;Node5</title>
<path fill="none" stroke="midnightblue" d="M768.33,-148.01C774.66,-156.57 782.14,-170.05 786.88,-181"/>
<polygon fill="midnightblue" stroke="midnightblue" points="783.65,-182.36 790.46,-190.48 790.2,-179.88 783.65,-182.36"/>
</g>
<!-- Node15&#45;&gt;Node2 -->
<g id="edge28" class="edge">
<title>Node15&#45;&gt;Node2</title>
<path fill="none" stroke="midnightblue" d="M1320.62,-153.52C1319.74,-153.68 1318.87,-153.84 1318,-154 1092.36,-194.97 823.51,-233.32 693.66,-250.71"/>
<polygon fill="midnightblue" stroke="midnightblue" points="692.87,-247.29 683.42,-252.08 693.8,-254.23 692.87,-247.29"/>
</g>
<!-- Node15&#45;&gt;Node5 -->
<g id="edge29" class="edge">
<title>Node15&#45;&gt;Node5</title>
<path fill="none" stroke="midnightblue" d="M1321.01,-153.55C1320,-153.71 1319,-153.86 1318,-154 1162.08,-176.6 978.04,-189.28 873.51,-195.08"/>
<polygon fill="midnightblue" stroke="midnightblue" points="873.13,-191.59 863.34,-195.63 873.52,-198.58 873.13,-191.59"/>
</g>
<!-- Node15&#45;&gt;Node16 -->
<g id="edge30" class="edge">
<title>Node15&#45;&gt;Node16</title>
<path fill="none" stroke="midnightblue" d="M1411.9,-123.4C1437.69,-111.99 1473.67,-96.08 1498.51,-85.1"/>
<polygon fill="midnightblue" stroke="midnightblue" points="1500.03,-88.25 1507.76,-81.01 1497.2,-81.85 1500.03,-88.25"/>
</g>
<!-- Node16&#45;&gt;Node2 -->
<g id="edge32" class="edge">
<title>Node16&#45;&gt;Node2</title>
<path fill="none" stroke="midnightblue" d="M1526.93,-81.21C1520.34,-98.4 1494.19,-136.56 1461,-154 1328.79,-223.45 875.84,-249.86 693.18,-257.71"/>
<polygon fill="midnightblue" stroke="midnightblue" points="692.96,-254.22 683.12,-258.14 693.25,-261.21 692.96,-254.22"/>
</g>
<!-- Node17 -->
<g id="node17" class="node">
<title>Node17</title>
<g id="a_node17"><a xlink:title=" ">
<polygon fill="none" stroke="#bfbfbf" points="1504,-0.5 1504,-19.5 1550,-19.5 1550,-0.5 1504,-0.5"/>
<text text-anchor="middle" x="1527" y="-7.5" font-family="Helvetica,sans-Serif" font-size="10.00">stdio.h</text>
</a>
</g>
</g>
<!-- Node16&#45;&gt;Node17 -->
<g id="edge31" class="edge">
<title>Node16&#45;&gt;Node17</title>
<path fill="none" stroke="midnightblue" d="M1527,-61.98C1527,-53.58 1527,-40.48 1527,-29.66"/>
<polygon fill="midnightblue" stroke="midnightblue" points="1530.5,-29.51 1527,-19.51 1523.5,-29.51 1530.5,-29.51"/>
</g>
<!-- Node19&#45;&gt;Node2 -->
<g id="edge45" class="edge">
<title>Node19&#45;&gt;Node2</title>
<path fill="none" stroke="midnightblue" d="M701.28,-380.43C677.66,-374.1 651.95,-363.1 635,-344 621.18,-328.43 616.88,-304.76 615.77,-286.94"/>
<polygon fill="midnightblue" stroke="midnightblue" points="619.26,-286.6 615.44,-276.72 612.27,-286.83 619.26,-286.6"/>
</g>
<!-- Node19&#45;&gt;Node5 -->
<g id="edge46" class="edge">
<title>Node19&#45;&gt;Node5</title>
<path fill="none" stroke="midnightblue" d="M761.63,-380.45C764.32,-371.45 768.44,-356.85 771,-344 779.76,-299.94 785.57,-247.42 788.27,-219.92"/>
<polygon fill="midnightblue" stroke="midnightblue" points="791.77,-220.06 789.23,-209.77 784.8,-219.39 791.77,-220.06"/>
</g>
<!-- Node19&#45;&gt;Node7 -->
<g id="edge48" class="edge">
<title>Node19&#45;&gt;Node7</title>
<path fill="none" stroke="midnightblue" d="M730.36,-380.49C701.38,-371.77 655.36,-357.59 616,-344 536.1,-316.41 515.68,-310.34 438,-277 340.78,-235.27 228.62,-178.25 179.39,-152.76"/>
<polygon fill="midnightblue" stroke="midnightblue" points="180.89,-149.59 170.4,-148.09 177.66,-155.81 180.89,-149.59"/>
</g>
<!-- Node19&#45;&gt;Node16 -->
<g id="edge47" class="edge">
<title>Node19&#45;&gt;Node16</title>
<path fill="none" stroke="midnightblue" d="M819.02,-386.34C1011.84,-376.99 1603,-341.86 1603,-262.5 1603,-262.5 1603,-262.5 1603,-199 1603,-153.62 1566.62,-110.48 1544.2,-88.2"/>
<polygon fill="midnightblue" stroke="midnightblue" points="1546.57,-85.63 1536.94,-81.23 1541.72,-90.68 1546.57,-85.63"/>
</g>
<!-- Node20 -->
<g id="node20" class="node">
<title>Node20</title>
<g id="a_node20"><a xlink:href="centroid_8h.html" target="_top" xlink:title="Centroid structure computation.">
<polygon fill="none" stroke="black" points="818,-319 818,-338 932,-338 932,-319 818,-319"/>
<text text-anchor="middle" x="875" y="-326" font-family="Helvetica,sans-Serif" font-size="10.00">ViennaRNA/centroid.h</text>
</a>
</g>
</g>
<!-- Node19&#45;&gt;Node20 -->
<g id="edge49" class="edge">
<title>Node19&#45;&gt;Node20</title>
<path fill="none" stroke="midnightblue" d="M775.62,-380.48C794.92,-370.58 826.96,-354.14 849.43,-342.62"/>
<polygon fill="midnightblue" stroke="midnightblue" points="851.11,-345.69 858.41,-338.01 847.92,-339.46 851.11,-345.69"/>
</g>
<!-- Node19&#45;&gt;Node21 -->
<g id="edge53" class="edge">
<title>Node19&#45;&gt;Node21</title>
<path fill="none" stroke="midnightblue" d="M750.98,-380.48C743.75,-372.79 732.81,-361.17 723.2,-350.96"/>
<polygon fill="midnightblue" stroke="midnightblue" points="725.6,-348.41 716.2,-343.52 720.5,-353.2 725.6,-348.41"/>
</g>
<!-- Node22 -->
<g id="node22" class="node">
<title>Node22</title>
<g id="a_node22"><a xlink:href="boltzmann__sampling_8h.html" target="_top" xlink:title="Boltzmann Sampling of secondary structures from the ensemble.">
<polygon fill="none" stroke="black" points="1421,-246.5 1421,-276.5 1537,-276.5 1537,-246.5 1421,-246.5"/>
<text text-anchor="start" x="1429" y="-264.5" font-family="Helvetica,sans-Serif" font-size="10.00">ViennaRNA/boltzmann</text>
<text text-anchor="middle" x="1479" y="-253.5" font-family="Helvetica,sans-Serif" font-size="10.00">_sampling.h</text>
</a>
</g>
</g>
<!-- Node19&#45;&gt;Node22 -->
<g id="edge58" class="edge">
<title>Node19&#45;&gt;Node22</title>
<path fill="none" stroke="midnightblue" d="M811.16,-380.49C921.37,-362.39 1185.92,-318.36 1407,-277 1408.27,-276.76 1409.55,-276.52 1410.84,-276.28"/>
<polygon fill="midnightblue" stroke="midnightblue" points="1411.71,-279.67 1420.87,-274.35 1410.39,-272.8 1411.71,-279.67"/>
</g>
<!-- Node20&#45;&gt;Node2 -->
<g id="edge50" class="edge">
<title>Node20&#45;&gt;Node2</title>
<path fill="none" stroke="midnightblue" d="M840.87,-318.94C800.57,-308.82 732.6,-291.76 681.91,-279.04"/>
<polygon fill="midnightblue" stroke="midnightblue" points="682.57,-275.6 672.02,-276.56 680.87,-282.39 682.57,-275.6"/>
</g>
<!-- Node20&#45;&gt;Node5 -->
<g id="edge51" class="edge">
<title>Node20&#45;&gt;Node5</title>
<path fill="none" stroke="midnightblue" d="M869.16,-318.81C855.27,-298.13 820.06,-245.73 801.64,-218.32"/>
<polygon fill="midnightblue" stroke="midnightblue" points="804.37,-216.1 795.88,-209.76 798.56,-220.01 804.37,-216.1"/>
</g>
<!-- Node20&#45;&gt;Node16 -->
<g id="edge52" class="edge">
<title>Node20&#45;&gt;Node16</title>
<path fill="none" stroke="midnightblue" d="M932.01,-327.54C1086.54,-327.05 1504.64,-321.59 1546,-277 1594.41,-224.81 1555.77,-129.67 1536.4,-90.29"/>
<polygon fill="midnightblue" stroke="midnightblue" points="1539.5,-88.67 1531.85,-81.34 1533.26,-91.84 1539.5,-88.67"/>
</g>
<!-- Node21&#45;&gt;Node2 -->
<g id="edge54" class="edge">
<title>Node21&#45;&gt;Node2</title>
<path fill="none" stroke="midnightblue" d="M684.12,-313.4C672.15,-304.45 656.47,-292.74 643.17,-282.8"/>
<polygon fill="midnightblue" stroke="midnightblue" points="644.95,-279.76 634.84,-276.58 640.76,-285.37 644.95,-279.76"/>
</g>
<!-- Node21&#45;&gt;Node5 -->
<g id="edge55" class="edge">
<title>Node21&#45;&gt;Node5</title>
<path fill="none" stroke="midnightblue" d="M712.64,-313.48C728.65,-290.21 760.66,-243.66 778.06,-218.36"/>
<polygon fill="midnightblue" stroke="midnightblue" points="781.17,-220.01 783.96,-209.79 775.41,-216.04 781.17,-220.01"/>
</g>
<!-- Node21&#45;&gt;Node7 -->
<g id="edge57" class="edge">
<title>Node21&#45;&gt;Node7</title>
<path fill="none" stroke="midnightblue" d="M656.14,-313.44C623.5,-303.53 578.98,-289.8 540,-277 453.73,-248.67 430.3,-246.14 347,-210 329.49,-202.4 326.58,-197.43 309,-190 271.36,-174.1 226.88,-160.07 195.24,-150.86"/>
<polygon fill="midnightblue" stroke="midnightblue" points="196.02,-147.44 185.45,-148.04 194.09,-154.17 196.02,-147.44"/>
</g>
<!-- Node21&#45;&gt;Node16 -->
<g id="edge56" class="edge">
<title>Node21&#45;&gt;Node16</title>
<path fill="none" stroke="midnightblue" d="M762.14,-318.44C871.93,-301.11 1114.34,-260.48 1315,-210 1395.84,-189.66 1432.7,-210.49 1494,-154 1512.03,-137.39 1520.42,-109.55 1524.18,-91.1"/>
<polygon fill="midnightblue" stroke="midnightblue" points="1527.62,-91.71 1525.92,-81.25 1520.73,-90.49 1527.62,-91.71"/>
</g>
<!-- Node22&#45;&gt;Node5 -->
<g id="edge59" class="edge">
<title>Node22&#45;&gt;Node5</title>
<path fill="none" stroke="midnightblue" d="M1420.85,-255.48C1298.68,-244.93 1014.96,-220.43 873.41,-208.2"/>
<polygon fill="midnightblue" stroke="midnightblue" points="873.32,-204.68 863.06,-207.31 872.72,-211.66 873.32,-204.68"/>
</g>
<!-- Node23&#45;&gt;Node7 -->
<g id="edge62" class="edge">
<title>Node23&#45;&gt;Node7</title>
<path fill="none" stroke="midnightblue" d="M192.05,-251.8C185.4,-232.18 169.13,-184.14 160.16,-157.69"/>
<polygon fill="midnightblue" stroke="midnightblue" points="163.45,-156.47 156.92,-148.12 156.82,-158.72 163.45,-156.47"/>
</g>
</g>
</svg>
        <g id="navigator" transform="translate(0 0)" fill="#404254">
                <rect fill="#f2f5e9" fill-opacity="0.5" stroke="#606060" stroke-width=".5" x="0" y="0" width="60" height="60"/>
                <use id="zoomplus" xlink:href="#zoomPlus" x="17" y="9" onmousedown="handleZoom(evt,'in')"/>
                <use id="zoomminus" xlink:href="#zoomMin" x="42" y="9" onmousedown="handleZoom(evt,'out')"/>
                <use id="reset" xlink:href="#resetDef" x="30" y="36" onmousedown="handleReset()"/>
                <g id="arrowUp" xlink:href="#dirArrow" transform="translate(30 24)" onmousedown="handlePan(0,-1)">
                  <use xlink:href="#rim" fill="#404040">
                        <set attributeName="fill" to="#808080" begin="arrowUp.mouseover" end="arrowUp.mouseout"/>
                  </use>
                  <path fill="none" stroke="white" stroke-width="1.5" d="M0,-3.0v7 M-2.5,-0.5L0,-3.0L2.5,-0.5"/>
                </g>
                <g id="arrowRight" xlink:href="#dirArrow" transform="rotate(90) translate(36 -43)" onmousedown="handlePan(1,0)">
                  <use xlink:href="#rim" fill="#404040">
                        <set attributeName="fill" to="#808080" begin="arrowRight.mouseover" end="arrowRight.mouseout"/>
                  </use>
                  <path fill="none" stroke="white" stroke-width="1.5" d="M0,-3.0v7 M-2.5,-0.5L0,-3.0L2.5,-0.5"/>
                </g>
                <g id="arrowDown" xlink:href="#dirArrow" transform="rotate(180) translate(-30 -48)" onmousedown="handlePan(0,1)">
                  <use xlink:href="#rim" fill="#404040">
                        <set attributeName="fill" to="#808080" begin="arrowDown.mouseover" end="arrowDown.mouseout"/>
                  </use>
                  <path fill="none" stroke="white" stroke-width="1.5" d="M0,-3.0v7 M-2.5,-0.5L0,-3.0L2.5,-0.5"/>
                </g>
                <g id="arrowLeft" xlink:href="#dirArrow" transform="rotate(270) translate(-36 17)" onmousedown="handlePan(-1,0)">
                  <use xlink:href="#rim" fill="#404040">
                        <set attributeName="fill" to="#808080" begin="arrowLeft.mouseover" end="arrowLeft.mouseout"/>
                  </use>
                  <path fill="none" stroke="white" stroke-width="1.5" d="M0,-3.0v7 M-2.5,-0.5L0,-3.0L2.5,-0.5"/>
                </g>
        </g>
        <svg viewBox="0 0 15 15" width="100%" height="30px" preserveAspectRatio="xMaxYMin meet">
         <g id="arrow_out" transform="scale(0.3 0.3)">
          <a xlink:href="part__func__co_8h__incl_org.svg" target="_base">
           <rect id="button" ry="5" rx="5" y="6" x="6" height="38" width="38"
                fill="#f2f5e9" fill-opacity="0.5" stroke="#606060" stroke-width="1.0"/>
           <path id="arrow"
             d="M 11.500037,31.436501 C 11.940474,20.09759 22.043105,11.32322 32.158766,21.979434 L 37.068811,17.246167 C 37.068811,17.246167 37.088388,32 37.088388,32 L 22.160133,31.978069 C 22.160133,31.978069 26.997745,27.140456 26.997745,27.140456 C 18.528582,18.264221 13.291696,25.230495 11.500037,31.436501 z"
             style="fill:#404040;"/>
          </a>
         </g>
        </svg>
</svg>
