<?xml version="1.0" encoding="UTF-8" standalone="no"?>
<!DOCTYPE svg PUBLIC "-//W3C//DTD SVG 1.1//EN"
 "http://www.w3.org/Graphics/SVG/1.1/DTD/svg11.dtd">
<!-- Generated by graphviz version 2.47.0 (0)
 -->
<!-- Title: ViennaRNA/part_func.h Pages: 1 -->
<svg width="1611pt" height="408pt"
 viewBox="0.00 0.00 1611.00 408.00" xmlns="http://www.w3.org/2000/svg" xmlns:xlink="http://www.w3.org/1999/xlink">
<g id="graph0" class="graph" transform="scale(1 1) rotate(0) translate(4 404)">
<title>ViennaRNA/part_func.h</title>
<!-- Node1 -->
<g id="node1" class="node">
<title>Node1</title>
<g id="a_node1"><a xlink:title="Partition function implementations.">
<polygon fill="#bfbfbf" stroke="black" points="718,-380.5 718,-399.5 838,-399.5 838,-380.5 718,-380.5"/>
<text text-anchor="middle" x="778" y="-387.5" font-family="Helvetica,sans-Serif" font-size="10.00">ViennaRNA/part_func.h</text>
</a>
</g>
</g>
<!-- Node2 -->
<g id="node2" class="node">
<title>Node2</title>
<g id="a_node2"><a xlink:href="datastructures_2basic_8h.html" target="_top" xlink:title="Various data structures and pre&#45;processor macros.">
<polygon fill="none" stroke="black" points="707,-246.5 707,-276.5 841,-276.5 841,-246.5 707,-246.5"/>
<text text-anchor="start" x="715" y="-264.5" font-family="Helvetica,sans-Serif" font-size="10.00">ViennaRNA/datastructures</text>
<text text-anchor="middle" x="774" y="-253.5" font-family="Helvetica,sans-Serif" font-size="10.00">/basic.h</text>
</a>
</g>
</g>
<!-- Node1&#45;&gt;Node2 -->
<g id="edge1" class="edge">
<title>Node1&#45;&gt;Node2</title>
<path fill="none" stroke="midnightblue" d="M777.73,-380.31C777.12,-361.3 775.67,-315.47 774.77,-286.9"/>
<polygon fill="midnightblue" stroke="midnightblue" points="778.27,-286.77 774.45,-276.89 771.27,-286.99 778.27,-286.77"/>
</g>
<!-- Node5 -->
<g id="node5" class="node">
<title>Node5</title>
<g id="a_node5"><a xlink:href="fold__compound_8h.html" target="_top" xlink:title="The Basic Fold Compound API.">
<polygon fill="none" stroke="black" points="701,-190.5 701,-209.5 847,-209.5 847,-190.5 701,-190.5"/>
<text text-anchor="middle" x="774" y="-197.5" font-family="Helvetica,sans-Serif" font-size="10.00">ViennaRNA/fold_compound.h</text>
</a>
</g>
</g>
<!-- Node1&#45;&gt;Node5 -->
<g id="edge43" class="edge">
<title>Node1&#45;&gt;Node5</title>
<path fill="none" stroke="midnightblue" d="M717.81,-387.5C685.38,-383.23 647.84,-371.96 627,-344 586.35,-289.47 688.22,-236.69 742.55,-213.42"/>
<polygon fill="midnightblue" stroke="midnightblue" points="743.91,-216.64 751.78,-209.55 741.2,-210.19 743.91,-216.64"/>
</g>
<!-- Node7 -->
<g id="node7" class="node">
<title>Node7</title>
<g id="a_node7"><a xlink:href="params_2basic_8h.html" target="_top" xlink:title="Functions to deal with sets of energy parameters.">
<polygon fill="none" stroke="black" points="1380,-129 1380,-148 1518,-148 1518,-129 1380,-129"/>
<text text-anchor="middle" x="1449" y="-136" font-family="Helvetica,sans-Serif" font-size="10.00">ViennaRNA/params/basic.h</text>
</a>
</g>
</g>
<!-- Node1&#45;&gt;Node7 -->
<g id="edge45" class="edge">
<title>Node1&#45;&gt;Node7</title>
<path fill="none" stroke="midnightblue" d="M838.04,-387.51C983.61,-382.57 1349.28,-361.8 1430,-277 1460.66,-244.8 1456.99,-187.59 1452.56,-158.15"/>
<polygon fill="midnightblue" stroke="midnightblue" points="1455.96,-157.28 1450.83,-148.01 1449.06,-158.46 1455.96,-157.28"/>
</g>
<!-- Node16 -->
<g id="node16" class="node">
<title>Node16</title>
<g id="a_node16"><a xlink:href="utils_2structures_8h.html" target="_top" xlink:title="Various utility&#45; and helper&#45;functions for secondary structure parsing, converting,...">
<polygon fill="none" stroke="black" points="28,-62 28,-81 172,-81 172,-62 28,-62"/>
<text text-anchor="middle" x="100" y="-69" font-family="Helvetica,sans-Serif" font-size="10.00">ViennaRNA/utils/structures.h</text>
</a>
</g>
</g>
<!-- Node1&#45;&gt;Node16 -->
<g id="edge44" class="edge">
<title>Node1&#45;&gt;Node16</title>
<path fill="none" stroke="midnightblue" d="M717.92,-385.56C535.43,-374.32 0,-335.16 0,-262.5 0,-262.5 0,-262.5 0,-199 0,-149.27 48.14,-107.65 77.62,-86.83"/>
<polygon fill="midnightblue" stroke="midnightblue" points="79.81,-89.57 86.1,-81.05 75.86,-83.79 79.81,-89.57"/>
</g>
<!-- Node19 -->
<g id="node19" class="node">
<title>Node19</title>
<g id="a_node19"><a xlink:href="centroid_8h.html" target="_top" xlink:title="Centroid structure computation.">
<polygon fill="none" stroke="black" points="636,-319 636,-338 750,-338 750,-319 636,-319"/>
<text text-anchor="middle" x="693" y="-326" font-family="Helvetica,sans-Serif" font-size="10.00">ViennaRNA/centroid.h</text>
</a>
</g>
</g>
<!-- Node1&#45;&gt;Node19 -->
<g id="edge46" class="edge">
<title>Node1&#45;&gt;Node19</title>
<path fill="none" stroke="midnightblue" d="M765.82,-380.48C752.19,-370.93 729.87,-355.31 713.53,-343.87"/>
<polygon fill="midnightblue" stroke="midnightblue" points="715.36,-340.88 705.16,-338.01 711.34,-346.61 715.36,-340.88"/>
</g>
<!-- Node20 -->
<g id="node20" class="node">
<title>Node20</title>
<g id="a_node20"><a xlink:href="equilibrium__probs_8h.html" target="_top" xlink:title="Equilibrium Probability implementations.">
<polygon fill="none" stroke="black" points="806,-313.5 806,-343.5 924,-343.5 924,-313.5 806,-313.5"/>
<text text-anchor="start" x="814" y="-331.5" font-family="Helvetica,sans-Serif" font-size="10.00">ViennaRNA/equilibrium</text>
<text text-anchor="middle" x="865" y="-320.5" font-family="Helvetica,sans-Serif" font-size="10.00">_probs.h</text>
</a>
</g>
</g>
<!-- Node1&#45;&gt;Node20 -->
<g id="edge50" class="edge">
<title>Node1&#45;&gt;Node20</title>
<path fill="none" stroke="midnightblue" d="M790.46,-380.48C802.36,-372.34 820.71,-359.79 836.23,-349.18"/>
<polygon fill="midnightblue" stroke="midnightblue" points="838.22,-352.06 844.5,-343.52 834.27,-346.28 838.22,-352.06"/>
</g>
<!-- Node21 -->
<g id="node21" class="node">
<title>Node21</title>
<g id="a_node21"><a xlink:href="boltzmann__sampling_8h.html" target="_top" xlink:title="Boltzmann Sampling of secondary structures from the ensemble.">
<polygon fill="none" stroke="black" points="1305,-246.5 1305,-276.5 1421,-276.5 1421,-246.5 1305,-246.5"/>
<text text-anchor="start" x="1313" y="-264.5" font-family="Helvetica,sans-Serif" font-size="10.00">ViennaRNA/boltzmann</text>
<text text-anchor="middle" x="1363" y="-253.5" font-family="Helvetica,sans-Serif" font-size="10.00">_sampling.h</text>
</a>
</g>
</g>
<!-- Node1&#45;&gt;Node21 -->
<g id="edge55" class="edge">
<title>Node1&#45;&gt;Node21</title>
<path fill="none" stroke="midnightblue" d="M817.75,-380.4C916.05,-359.15 1171.49,-303.91 1294.64,-277.28"/>
<polygon fill="midnightblue" stroke="midnightblue" points="1295.67,-280.64 1304.71,-275.11 1294.19,-273.8 1295.67,-280.64"/>
</g>
<!-- Node3 -->
<g id="node3" class="node">
<title>Node3</title>
<g id="a_node3"><a xlink:href="constants_8h.html" target="_top" xlink:title="Energy parameter constants.">
<polygon fill="none" stroke="black" points="1445,-62 1445,-81 1603,-81 1603,-62 1445,-62"/>
<text text-anchor="middle" x="1524" y="-69" font-family="Helvetica,sans-Serif" font-size="10.00">ViennaRNA/params/constants.h</text>
</a>
</g>
</g>
<!-- Node2&#45;&gt;Node3 -->
<g id="edge2" class="edge">
<title>Node2&#45;&gt;Node3</title>
<path fill="none" stroke="midnightblue" d="M841.41,-258.17C945.63,-253.69 1151.84,-241.39 1324,-210 1416.07,-193.21 1470.3,-228.46 1527,-154 1540.7,-136 1536.14,-108.73 1530.76,-90.77"/>
<polygon fill="midnightblue" stroke="midnightblue" points="1534.05,-89.55 1527.56,-81.18 1527.41,-91.77 1534.05,-89.55"/>
</g>
<!-- Node2&#45;&gt;Node5 -->
<g id="edge4" class="edge">
<title>Node2&#45;&gt;Node5</title>
<path fill="none" stroke="midnightblue" d="M774,-246.4C774,-238.47 774,-228.46 774,-219.86"/>
<polygon fill="midnightblue" stroke="midnightblue" points="777.5,-219.66 774,-209.66 770.5,-219.66 777.5,-219.66"/>
</g>
<!-- Node6 -->
<g id="node6" class="node">
<title>Node6</title>
<g id="a_node6"><a xlink:href="model_8h.html" target="_top" xlink:title="The model details data structure and its corresponding modifiers.">
<polygon fill="none" stroke="black" points="1299,-62 1299,-81 1405,-81 1405,-62 1299,-62"/>
<text text-anchor="middle" x="1352" y="-69" font-family="Helvetica,sans-Serif" font-size="10.00">ViennaRNA/model.h</text>
</a>
</g>
</g>
<!-- Node2&#45;&gt;Node6 -->
<g id="edge34" class="edge">
<title>Node2&#45;&gt;Node6</title>
<path fill="none" stroke="midnightblue" d="M841.23,-256.67C974.07,-247.72 1263.34,-220.88 1333,-154 1349.84,-137.84 1353.02,-109.86 1353.06,-91.27"/>
<polygon fill="midnightblue" stroke="midnightblue" points="1356.56,-90.99 1352.77,-81.09 1349.56,-91.19 1356.56,-90.99"/>
</g>
<!-- Node2&#45;&gt;Node7 -->
<g id="edge35" class="edge">
<title>Node2&#45;&gt;Node7</title>
<path fill="none" stroke="midnightblue" d="M841.37,-259.33C936.44,-256.35 1114.55,-245.96 1262,-210 1318.47,-196.23 1380.85,-168.38 1417.58,-152.1"/>
<polygon fill="midnightblue" stroke="midnightblue" points="1419.06,-155.28 1426.79,-148.04 1416.23,-148.87 1419.06,-155.28"/>
</g>
<!-- Node9 -->
<g id="node9" class="node">
<title>Node9</title>
<g id="a_node9"><a xlink:href="dp__matrices_8h.html" target="_top" xlink:title="Functions to deal with standard dynamic programming (DP) matrices.">
<polygon fill="none" stroke="black" points="1190.5,-129 1190.5,-148 1323.5,-148 1323.5,-129 1190.5,-129"/>
<text text-anchor="middle" x="1257" y="-136" font-family="Helvetica,sans-Serif" font-size="10.00">ViennaRNA/dp_matrices.h</text>
</a>
</g>
</g>
<!-- Node2&#45;&gt;Node9 -->
<g id="edge36" class="edge">
<title>Node2&#45;&gt;Node9</title>
<path fill="none" stroke="midnightblue" d="M825.83,-246.38C920.22,-221.96 1118.5,-172.32 1209.56,-150.37"/>
<polygon fill="midnightblue" stroke="midnightblue" points="1210.43,-153.76 1219.34,-148.02 1208.8,-146.95 1210.43,-153.76"/>
</g>
<!-- Node10 -->
<g id="node10" class="node">
<title>Node10</title>
<g id="a_node10"><a xlink:href="hard_8h.html" target="_top" xlink:title="Functions and data structures for handling of secondary structure hard constraints.">
<polygon fill="none" stroke="black" points="575.5,-123.5 575.5,-153.5 694.5,-153.5 694.5,-123.5 575.5,-123.5"/>
<text text-anchor="start" x="583.5" y="-141.5" font-family="Helvetica,sans-Serif" font-size="10.00">ViennaRNA/constraints</text>
<text text-anchor="middle" x="635" y="-130.5" font-family="Helvetica,sans-Serif" font-size="10.00">/hard.h</text>
</a>
</g>
</g>
<!-- Node2&#45;&gt;Node10 -->
<g id="edge37" class="edge">
<title>Node2&#45;&gt;Node10</title>
<path fill="none" stroke="midnightblue" d="M746.2,-246.48C729.53,-237.35 708.45,-224.47 692,-210 675.95,-195.88 660.89,-176.9 650.28,-162.19"/>
<polygon fill="midnightblue" stroke="midnightblue" points="652.9,-159.83 644.28,-153.67 647.17,-163.86 652.9,-159.83"/>
</g>
<!-- Node12 -->
<g id="node12" class="node">
<title>Node12</title>
<g id="a_node12"><a xlink:href="soft_8h.html" target="_top" xlink:title="Functions and data structures for secondary structure soft constraints.">
<polygon fill="none" stroke="black" points="303.5,-123.5 303.5,-153.5 422.5,-153.5 422.5,-123.5 303.5,-123.5"/>
<text text-anchor="start" x="311.5" y="-141.5" font-family="Helvetica,sans-Serif" font-size="10.00">ViennaRNA/constraints</text>
<text text-anchor="middle" x="363" y="-130.5" font-family="Helvetica,sans-Serif" font-size="10.00">/soft.h</text>
</a>
</g>
</g>
<!-- Node2&#45;&gt;Node12 -->
<g id="edge38" class="edge">
<title>Node2&#45;&gt;Node12</title>
<path fill="none" stroke="midnightblue" d="M721.52,-246.38C642.73,-224.02 494.92,-180.54 415.89,-156.5"/>
<polygon fill="midnightblue" stroke="midnightblue" points="416.72,-153.1 406.13,-153.53 414.68,-159.79 416.72,-153.1"/>
</g>
<!-- Node13 -->
<g id="node13" class="node">
<title>Node13</title>
<g id="a_node13"><a xlink:href="grammar_8h.html" target="_top" xlink:title="Implementations for the RNA folding grammar.">
<polygon fill="none" stroke="black" points="440.5,-129 440.5,-148 557.5,-148 557.5,-129 440.5,-129"/>
<text text-anchor="middle" x="499" y="-136" font-family="Helvetica,sans-Serif" font-size="10.00">ViennaRNA/grammar.h</text>
</a>
</g>
</g>
<!-- Node2&#45;&gt;Node13 -->
<g id="edge39" class="edge">
<title>Node2&#45;&gt;Node13</title>
<path fill="none" stroke="midnightblue" d="M741.92,-246.38C687.88,-222.61 579.54,-174.94 527.8,-152.17"/>
<polygon fill="midnightblue" stroke="midnightblue" points="529.09,-148.92 518.53,-148.09 526.27,-155.32 529.09,-148.92"/>
</g>
<!-- Node14 -->
<g id="node14" class="node">
<title>Node14</title>
<g id="a_node14"><a xlink:href="structured__domains_8h.html" target="_top" xlink:title="This module provides interfaces that deal with additional structured domains in the folding grammar.">
<polygon fill="none" stroke="black" points="1057.5,-123.5 1057.5,-153.5 1172.5,-153.5 1172.5,-123.5 1057.5,-123.5"/>
<text text-anchor="start" x="1065.5" y="-141.5" font-family="Helvetica,sans-Serif" font-size="10.00">ViennaRNA/structured</text>
<text text-anchor="middle" x="1115" y="-130.5" font-family="Helvetica,sans-Serif" font-size="10.00">_domains.h</text>
</a>
</g>
</g>
<!-- Node2&#45;&gt;Node14 -->
<g id="edge40" class="edge">
<title>Node2&#45;&gt;Node14</title>
<path fill="none" stroke="midnightblue" d="M813.78,-246.38C876.41,-224.16 997.84,-181.07 1065.84,-156.94"/>
<polygon fill="midnightblue" stroke="midnightblue" points="1067.22,-160.17 1075.47,-153.53 1064.87,-153.57 1067.22,-160.17"/>
</g>
<!-- Node15 -->
<g id="node15" class="node">
<title>Node15</title>
<g id="a_node15"><a xlink:href="unstructured__domains_8h.html" target="_top" xlink:title="Functions to modify unstructured domains, e.g. to incorporate ligands binding to unpaired stretches.">
<polygon fill="none" stroke="black" points="160.5,-123.5 160.5,-153.5 285.5,-153.5 285.5,-123.5 160.5,-123.5"/>
<text text-anchor="start" x="168.5" y="-141.5" font-family="Helvetica,sans-Serif" font-size="10.00">ViennaRNA/unstructured</text>
<text text-anchor="middle" x="223" y="-130.5" font-family="Helvetica,sans-Serif" font-size="10.00">_domains.h</text>
</a>
</g>
</g>
<!-- Node2&#45;&gt;Node15 -->
<g id="edge41" class="edge">
<title>Node2&#45;&gt;Node15</title>
<path fill="none" stroke="midnightblue" d="M706.77,-247.68C657.81,-237.54 590.17,-222.96 531,-210 447.27,-191.65 351.18,-170.23 288.84,-155.86"/>
<polygon fill="midnightblue" stroke="midnightblue" points="289.28,-152.37 278.75,-153.53 287.7,-159.19 289.28,-152.37"/>
</g>
<!-- Node2&#45;&gt;Node16 -->
<g id="edge42" class="edge">
<title>Node2&#45;&gt;Node16</title>
<path fill="none" stroke="midnightblue" d="M706.99,-256.39C563.55,-246.21 232.87,-215.99 142,-154 119.52,-138.67 104.99,-109.82 99.73,-90.88"/>
<polygon fill="midnightblue" stroke="midnightblue" points="103.15,-90.14 97.7,-81.05 96.29,-91.55 103.15,-90.14"/>
</g>
<!-- Node4 -->
<g id="node4" class="node">
<title>Node4</title>
<g id="a_node4"><a xlink:title=" ">
<polygon fill="none" stroke="#bfbfbf" points="1500,-0.5 1500,-19.5 1548,-19.5 1548,-0.5 1500,-0.5"/>
<text text-anchor="middle" x="1524" y="-7.5" font-family="Helvetica,sans-Serif" font-size="10.00">limits.h</text>
</a>
</g>
</g>
<!-- Node3&#45;&gt;Node4 -->
<g id="edge3" class="edge">
<title>Node3&#45;&gt;Node4</title>
<path fill="none" stroke="midnightblue" d="M1524,-61.98C1524,-53.58 1524,-40.48 1524,-29.66"/>
<polygon fill="midnightblue" stroke="midnightblue" points="1527.5,-29.51 1524,-19.51 1520.5,-29.51 1527.5,-29.51"/>
</g>
<!-- Node5&#45;&gt;Node6 -->
<g id="edge5" class="edge">
<title>Node5&#45;&gt;Node6</title>
<path fill="none" stroke="midnightblue" d="M838.13,-190.44C881.79,-183.45 940.43,-171.79 990,-154 1017.88,-143.99 1020.92,-132.44 1049,-123 1129.2,-96.02 1226.38,-83.09 1288.69,-77.15"/>
<polygon fill="midnightblue" stroke="midnightblue" points="1289.12,-80.63 1298.76,-76.22 1288.48,-73.65 1289.12,-80.63"/>
</g>
<!-- Node5&#45;&gt;Node7 -->
<g id="edge6" class="edge">
<title>Node5&#45;&gt;Node7</title>
<path fill="none" stroke="midnightblue" d="M847.19,-193.72C952.68,-186.25 1153.3,-171.53 1324,-154 1338.82,-152.48 1354.68,-150.64 1369.98,-148.78"/>
<polygon fill="midnightblue" stroke="midnightblue" points="1370.43,-152.25 1379.94,-147.57 1369.59,-145.31 1370.43,-152.25"/>
</g>
<!-- Node8 -->
<g id="node8" class="node">
<title>Node8</title>
<g id="a_node8"><a xlink:href="sequence_8h.html" target="_top" xlink:title="Functions and data structures related to sequence representations ,.">
<polygon fill="none" stroke="black" points="713,-129 713,-148 835,-148 835,-129 713,-129"/>
<text text-anchor="middle" x="774" y="-136" font-family="Helvetica,sans-Serif" font-size="10.00">ViennaRNA/sequence.h</text>
</a>
</g>
</g>
<!-- Node5&#45;&gt;Node8 -->
<g id="edge11" class="edge">
<title>Node5&#45;&gt;Node8</title>
<path fill="none" stroke="midnightblue" d="M769.1,-190.48C767.27,-182.08 766.8,-168.98 767.69,-158.16"/>
<polygon fill="midnightblue" stroke="midnightblue" points="771.19,-158.4 769.1,-148.01 764.25,-157.43 771.19,-158.4"/>
</g>
<!-- Node5&#45;&gt;Node9 -->
<g id="edge13" class="edge">
<title>Node5&#45;&gt;Node9</title>
<path fill="none" stroke="midnightblue" d="M847.23,-192.11C927.43,-184.56 1059.56,-171.19 1173,-154 1180.92,-152.8 1189.29,-151.36 1197.56,-149.85"/>
<polygon fill="midnightblue" stroke="midnightblue" points="1198.37,-153.26 1207.56,-148 1197.09,-146.38 1198.37,-153.26"/>
</g>
<!-- Node5&#45;&gt;Node10 -->
<g id="edge16" class="edge">
<title>Node5&#45;&gt;Node10</title>
<path fill="none" stroke="midnightblue" d="M749.18,-190.48C727.45,-181.96 695.81,-168.62 671.28,-157.72"/>
<polygon fill="midnightblue" stroke="midnightblue" points="672.49,-154.42 661.93,-153.52 669.62,-160.81 672.49,-154.42"/>
</g>
<!-- Node5&#45;&gt;Node12 -->
<g id="edge20" class="edge">
<title>Node5&#45;&gt;Node12</title>
<path fill="none" stroke="midnightblue" d="M700.96,-191.89C631.87,-184.35 525.33,-171.39 429.61,-155.28"/>
<polygon fill="midnightblue" stroke="midnightblue" points="429.93,-151.79 419.49,-153.56 428.76,-158.69 429.93,-151.79"/>
</g>
<!-- Node5&#45;&gt;Node13 -->
<g id="edge24" class="edge">
<title>Node5&#45;&gt;Node13</title>
<path fill="none" stroke="midnightblue" d="M729.7,-190.48C678.38,-179.87 594.53,-161.76 543.24,-150.22"/>
<polygon fill="midnightblue" stroke="midnightblue" points="543.96,-146.8 533.43,-148.01 542.41,-153.63 543.96,-146.8"/>
</g>
<!-- Node5&#45;&gt;Node14 -->
<g id="edge26" class="edge">
<title>Node5&#45;&gt;Node14</title>
<path fill="none" stroke="midnightblue" d="M828.19,-190.47C882.58,-181.79 968.73,-167.69 1043,-154 1044.45,-153.73 1045.92,-153.46 1047.39,-153.18"/>
<polygon fill="midnightblue" stroke="midnightblue" points="1048.1,-156.61 1057.26,-151.3 1046.79,-149.74 1048.1,-156.61"/>
</g>
<!-- Node5&#45;&gt;Node15 -->
<g id="edge27" class="edge">
<title>Node5&#45;&gt;Node15</title>
<path fill="none" stroke="midnightblue" d="M700.92,-195.01C607.06,-189.08 439.29,-176.36 292.11,-155.03"/>
<polygon fill="midnightblue" stroke="midnightblue" points="292.4,-151.53 281.99,-153.54 291.38,-158.46 292.4,-151.53"/>
</g>
<!-- Node18 -->
<g id="node18" class="node">
<title>Node18</title>
<g id="a_node18"><a xlink:href="zscore_8h_source.html" target="_top" xlink:title=" ">
<polygon fill="none" stroke="black" points="853.5,-129 853.5,-148 962.5,-148 962.5,-129 853.5,-129"/>
<text text-anchor="middle" x="908" y="-136" font-family="Helvetica,sans-Serif" font-size="10.00">ViennaRNA/zscore.h</text>
</a>
</g>
</g>
<!-- Node5&#45;&gt;Node18 -->
<g id="edge33" class="edge">
<title>Node5&#45;&gt;Node18</title>
<path fill="none" stroke="midnightblue" d="M793.2,-190.48C815.79,-180.45 853.5,-163.7 879.5,-152.15"/>
<polygon fill="midnightblue" stroke="midnightblue" points="881.12,-155.27 888.84,-148.01 878.28,-148.87 881.12,-155.27"/>
</g>
<!-- Node7&#45;&gt;Node2 -->
<g id="edge8" class="edge">
<title>Node7&#45;&gt;Node2</title>
<path fill="none" stroke="midnightblue" d="M1437.16,-148.16C1409.69,-163.45 1341.35,-195.04 1280,-210 1131.33,-246.25 951.51,-256.52 851.15,-259.4"/>
<polygon fill="midnightblue" stroke="midnightblue" points="850.99,-255.91 841.09,-259.68 851.18,-262.9 850.99,-255.91"/>
</g>
<!-- Node7&#45;&gt;Node3 -->
<g id="edge7" class="edge">
<title>Node7&#45;&gt;Node3</title>
<path fill="none" stroke="midnightblue" d="M1459.11,-128.73C1471.15,-118.31 1491.45,-100.71 1506.15,-87.97"/>
<polygon fill="midnightblue" stroke="midnightblue" points="1508.78,-90.32 1514.05,-81.13 1504.2,-85.03 1508.78,-90.32"/>
</g>
<!-- Node7&#45;&gt;Node5 -->
<g id="edge9" class="edge">
<title>Node7&#45;&gt;Node5</title>
<path fill="none" stroke="midnightblue" d="M1393.62,-148.02C1377.06,-150.12 1358.86,-152.27 1342,-154 1170.36,-171.63 968.47,-186.41 857.49,-193.85"/>
<polygon fill="midnightblue" stroke="midnightblue" points="857.11,-190.36 847.36,-194.52 857.57,-197.35 857.11,-190.36"/>
</g>
<!-- Node7&#45;&gt;Node6 -->
<g id="edge10" class="edge">
<title>Node7&#45;&gt;Node6</title>
<path fill="none" stroke="midnightblue" d="M1435.92,-128.73C1419.85,-117.96 1392.37,-99.55 1373.25,-86.74"/>
<polygon fill="midnightblue" stroke="midnightblue" points="1375.13,-83.79 1364.87,-81.13 1371.23,-89.6 1375.13,-83.79"/>
</g>
<!-- Node8&#45;&gt;Node5 -->
<g id="edge12" class="edge">
<title>Node8&#45;&gt;Node5</title>
<path fill="none" stroke="midnightblue" d="M778.9,-148.01C780.73,-156.4 781.2,-169.5 780.32,-180.32"/>
<polygon fill="midnightblue" stroke="midnightblue" points="776.81,-180.09 778.9,-190.48 783.75,-181.05 776.81,-180.09"/>
</g>
<!-- Node9&#45;&gt;Node2 -->
<g id="edge14" class="edge">
<title>Node9&#45;&gt;Node2</title>
<path fill="none" stroke="midnightblue" d="M1226.67,-148.02C1150.81,-167.94 951.81,-217.89 844.64,-244.01"/>
<polygon fill="midnightblue" stroke="midnightblue" points="843.77,-240.62 834.88,-246.38 845.42,-247.42 843.77,-240.62"/>
</g>
<!-- Node9&#45;&gt;Node5 -->
<g id="edge15" class="edge">
<title>Node9&#45;&gt;Node5</title>
<path fill="none" stroke="midnightblue" d="M1224.9,-148C1214.16,-150.14 1202.15,-152.31 1191,-154 1075.9,-171.44 941.56,-184.95 857.06,-192.44"/>
<polygon fill="midnightblue" stroke="midnightblue" points="856.66,-188.96 847.01,-193.32 857.28,-195.93 856.66,-188.96"/>
</g>
<!-- Node10&#45;&gt;Node5 -->
<g id="edge17" class="edge">
<title>Node10&#45;&gt;Node5</title>
<path fill="none" stroke="midnightblue" d="M673.59,-153.52C698,-163.42 728.69,-176.58 749.76,-186.2"/>
<polygon fill="midnightblue" stroke="midnightblue" points="748.44,-189.45 758.99,-190.48 751.38,-183.09 748.44,-189.45"/>
</g>
<!-- Node11 -->
<g id="node11" class="node">
<title>Node11</title>
<g id="a_node11"><a xlink:href="constraints_2basic_8h.html" target="_top" xlink:title="Functions and data structures for constraining secondary structure predictions and evaluation.">
<polygon fill="none" stroke="black" points="575.5,-56.5 575.5,-86.5 694.5,-86.5 694.5,-56.5 575.5,-56.5"/>
<text text-anchor="start" x="583.5" y="-74.5" font-family="Helvetica,sans-Serif" font-size="10.00">ViennaRNA/constraints</text>
<text text-anchor="middle" x="635" y="-63.5" font-family="Helvetica,sans-Serif" font-size="10.00">/basic.h</text>
</a>
</g>
</g>
<!-- Node10&#45;&gt;Node11 -->
<g id="edge18" class="edge">
<title>Node10&#45;&gt;Node11</title>
<path fill="none" stroke="midnightblue" d="M635,-123.4C635,-115.64 635,-105.81 635,-96.86"/>
<polygon fill="midnightblue" stroke="midnightblue" points="638.5,-96.58 635,-86.58 631.5,-96.58 638.5,-96.58"/>
</g>
<!-- Node11&#45;&gt;Node5 -->
<g id="edge19" class="edge">
<title>Node11&#45;&gt;Node5</title>
<path fill="none" stroke="midnightblue" d="M694.57,-72.53C781.35,-73.98 936.03,-82.38 971,-123 1008.39,-166.43 926.67,-185.15 857.36,-193.16"/>
<polygon fill="midnightblue" stroke="midnightblue" points="856.8,-189.7 847.24,-194.26 857.56,-196.66 856.8,-189.7"/>
</g>
<!-- Node12&#45;&gt;Node2 -->
<g id="edge21" class="edge">
<title>Node12&#45;&gt;Node2</title>
<path fill="none" stroke="midnightblue" d="M415.16,-153.53C493.77,-175.83 641.58,-219.31 720.8,-243.4"/>
<polygon fill="midnightblue" stroke="midnightblue" points="719.99,-246.81 730.57,-246.38 722.03,-240.12 719.99,-246.81"/>
</g>
<!-- Node12&#45;&gt;Node5 -->
<g id="edge22" class="edge">
<title>Node12&#45;&gt;Node5</title>
<path fill="none" stroke="midnightblue" d="M422.73,-150.79C428.58,-151.94 434.41,-153.04 440,-154 525.86,-168.76 624.54,-181.24 692.31,-189.29"/>
<polygon fill="midnightblue" stroke="midnightblue" points="692.16,-192.79 702.5,-190.49 692.98,-185.84 692.16,-192.79"/>
</g>
<!-- Node12&#45;&gt;Node11 -->
<g id="edge23" class="edge">
<title>Node12&#45;&gt;Node11</title>
<path fill="none" stroke="midnightblue" d="M421.69,-123.48C464.08,-113.34 521.49,-99.63 566.07,-88.97"/>
<polygon fill="midnightblue" stroke="midnightblue" points="567.04,-92.34 575.95,-86.61 565.41,-85.53 567.04,-92.34"/>
</g>
<!-- Node13&#45;&gt;Node5 -->
<g id="edge25" class="edge">
<title>Node13&#45;&gt;Node5</title>
<path fill="none" stroke="midnightblue" d="M543.22,-148.01C594.52,-158.61 678.36,-176.72 729.69,-188.26"/>
<polygon fill="midnightblue" stroke="midnightblue" points="728.97,-191.69 739.5,-190.48 730.52,-184.86 728.97,-191.69"/>
</g>
<!-- Node15&#45;&gt;Node2 -->
<g id="edge28" class="edge">
<title>Node15&#45;&gt;Node2</title>
<path fill="none" stroke="midnightblue" d="M285.64,-152.09C351.43,-166.27 457.58,-189.97 549,-210 601.84,-221.58 661.44,-234.44 706.08,-244.28"/>
<polygon fill="midnightblue" stroke="midnightblue" points="705.42,-247.72 715.94,-246.46 706.93,-240.89 705.42,-247.72"/>
</g>
<!-- Node15&#45;&gt;Node5 -->
<g id="edge29" class="edge">
<title>Node15&#45;&gt;Node5</title>
<path fill="none" stroke="midnightblue" d="M285.73,-151.12C291.58,-152.18 297.4,-153.17 303,-154 438.2,-174.08 596.23,-186.85 690.61,-193.47"/>
<polygon fill="midnightblue" stroke="midnightblue" points="690.45,-196.97 700.67,-194.17 690.94,-189.99 690.45,-196.97"/>
</g>
<!-- Node15&#45;&gt;Node16 -->
<g id="edge30" class="edge">
<title>Node15&#45;&gt;Node16</title>
<path fill="none" stroke="midnightblue" d="M196.31,-123.4C175.11,-112.19 145.68,-96.64 124.95,-85.69"/>
<polygon fill="midnightblue" stroke="midnightblue" points="126.57,-82.58 116.1,-81.01 123.3,-88.77 126.57,-82.58"/>
</g>
<!-- Node16&#45;&gt;Node2 -->
<g id="edge32" class="edge">
<title>Node16&#45;&gt;Node2</title>
<path fill="none" stroke="midnightblue" d="M107.75,-81.05C117.6,-97.97 133.11,-135.66 160,-154 246.75,-213.18 552.05,-243.4 696.83,-254.88"/>
<polygon fill="midnightblue" stroke="midnightblue" points="696.73,-258.39 706.97,-255.68 697.28,-251.41 696.73,-258.39"/>
</g>
<!-- Node17 -->
<g id="node17" class="node">
<title>Node17</title>
<g id="a_node17"><a xlink:title=" ">
<polygon fill="none" stroke="#bfbfbf" points="77,-0.5 77,-19.5 123,-19.5 123,-0.5 77,-0.5"/>
<text text-anchor="middle" x="100" y="-7.5" font-family="Helvetica,sans-Serif" font-size="10.00">stdio.h</text>
</a>
</g>
</g>
<!-- Node16&#45;&gt;Node17 -->
<g id="edge31" class="edge">
<title>Node16&#45;&gt;Node17</title>
<path fill="none" stroke="midnightblue" d="M100,-61.98C100,-53.58 100,-40.48 100,-29.66"/>
<polygon fill="midnightblue" stroke="midnightblue" points="103.5,-29.51 100,-19.51 96.5,-29.51 103.5,-29.51"/>
</g>
<!-- Node19&#45;&gt;Node2 -->
<g id="edge47" class="edge">
<title>Node19&#45;&gt;Node2</title>
<path fill="none" stroke="midnightblue" d="M703.92,-318.73C715.29,-309.61 733.5,-295 748.5,-282.96"/>
<polygon fill="midnightblue" stroke="midnightblue" points="750.83,-285.58 756.44,-276.59 746.45,-280.12 750.83,-285.58"/>
</g>
<!-- Node19&#45;&gt;Node5 -->
<g id="edge48" class="edge">
<title>Node19&#45;&gt;Node5</title>
<path fill="none" stroke="midnightblue" d="M691.07,-318.87C688.04,-303.1 683.88,-269.1 698,-246 706.99,-231.3 722.73,-220.83 737.57,-213.72"/>
<polygon fill="midnightblue" stroke="midnightblue" points="739.37,-216.75 747.1,-209.51 736.54,-210.34 739.37,-216.75"/>
</g>
<!-- Node19&#45;&gt;Node16 -->
<g id="edge49" class="edge">
<title>Node19&#45;&gt;Node16</title>
<path fill="none" stroke="midnightblue" d="M635.93,-327.24C487.92,-325.99 100.51,-318.71 62,-277 15.57,-226.71 40.3,-187.91 62,-123 66.31,-110.09 75.37,-97.84 83.56,-88.63"/>
<polygon fill="midnightblue" stroke="midnightblue" points="86.34,-90.78 90.67,-81.11 81.26,-85.97 86.34,-90.78"/>
</g>
<!-- Node20&#45;&gt;Node2 -->
<g id="edge51" class="edge">
<title>Node20&#45;&gt;Node2</title>
<path fill="none" stroke="midnightblue" d="M845.25,-313.4C832.61,-304.37 816.02,-292.51 802.03,-282.52"/>
<polygon fill="midnightblue" stroke="midnightblue" points="803.88,-279.54 793.71,-276.58 799.81,-285.24 803.88,-279.54"/>
</g>
<!-- Node20&#45;&gt;Node5 -->
<g id="edge52" class="edge">
<title>Node20&#45;&gt;Node5</title>
<path fill="none" stroke="midnightblue" d="M865.79,-313.49C866.06,-296.11 864.16,-266.3 850,-246 839.92,-231.56 823.59,-221.02 808.65,-213.78"/>
<polygon fill="midnightblue" stroke="midnightblue" points="809.66,-210.4 799.11,-209.5 806.8,-216.79 809.66,-210.4"/>
</g>
<!-- Node20&#45;&gt;Node7 -->
<g id="edge54" class="edge">
<title>Node20&#45;&gt;Node7</title>
<path fill="none" stroke="midnightblue" d="M924.16,-317.51C1013.13,-301.36 1185.66,-265.59 1324,-210 1362.54,-194.51 1403.89,-169.3 1428.05,-153.6"/>
<polygon fill="midnightblue" stroke="midnightblue" points="1430,-156.51 1436.43,-148.08 1426.15,-150.66 1430,-156.51"/>
</g>
<!-- Node20&#45;&gt;Node16 -->
<g id="edge53" class="edge">
<title>Node20&#45;&gt;Node16</title>
<path fill="none" stroke="midnightblue" d="M805.92,-318.47C670.9,-297.5 343.16,-244.67 237,-210 182.2,-192.1 156.36,-198.74 120,-154 105.46,-136.11 101.25,-109.19 100.16,-91.25"/>
<polygon fill="midnightblue" stroke="midnightblue" points="103.66,-91.04 99.82,-81.16 96.66,-91.28 103.66,-91.04"/>
</g>
<!-- Node21&#45;&gt;Node5 -->
<g id="edge56" class="edge">
<title>Node21&#45;&gt;Node5</title>
<path fill="none" stroke="midnightblue" d="M1304.91,-254.63C1199.9,-244.02 978.16,-221.62 857.13,-209.4"/>
<polygon fill="midnightblue" stroke="midnightblue" points="857.46,-205.91 847.16,-208.39 856.76,-212.88 857.46,-205.91"/>
</g>
</g>
</svg>
