<?xml version="1.0" encoding="UTF-8" standalone="no"?>
<!DOCTYPE svg PUBLIC "-//W3C//DTD SVG 1.1//EN"
 "http://www.w3.org/Graphics/SVG/1.1/DTD/svg11.dtd">
<!-- Generated by graphviz version 2.47.0 (0)
 -->
<!-- Title: ViennaRNA/plotting/structures.h Pages: 1 -->
<!--zoomable 419 -->
<svg id="main" version="1.1" xmlns="http://www.w3.org/2000/svg" xmlns:xlink="http://www.w3.org/1999/xlink" xml:space="preserve" onload="init(evt)">
<style type="text/css"><![CDATA[
.edge:hover path { stroke: red; }
.edge:hover polygon { stroke: red; fill: red; }
]]></style>
<script type="text/javascript"><![CDATA[
var edges = document.getElementsByTagName('g');
if (edges && edges.length) {
  for (var i=0;i<edges.length;i++) {
    if (edges[i].id.substr(0,4)=='edge') {
      edges[i].setAttribute('class','edge');
    }
  }
}
]]></script>
        <defs>
                <circle id="rim" cx="0" cy="0" r="7"/>
                <circle id="rim2" cx="0" cy="0" r="3.5"/>
                <g id="zoomPlus">
                        <use xlink:href="#rim" fill="#404040">
                                <set attributeName="fill" to="#808080" begin="zoomplus.mouseover" end="zoomplus.mouseout"/>
                        </use>
                        <path d="M-4,0h8M0,-4v8" fill="none" stroke="white" stroke-width="1.5" pointer-events="none"/>
                </g>
                <g id="zoomMin">
                        <use xlink:href="#rim" fill="#404040">
                                <set attributeName="fill" to="#808080" begin="zoomminus.mouseover" end="zoomminus.mouseout"/>
                        </use>
                        <path d="M-4,0h8" fill="none" stroke="white" stroke-width="1.5" pointer-events="none"/>
                </g>
                <g id="dirArrow">
                        <path fill="none" stroke="white" stroke-width="1.5" d="M0,-3.0v7 M-2.5,-0.5L0,-3.0L2.5,-0.5"/>
                </g>
               <g id="resetDef">
                       <use xlink:href="#rim2" fill="#404040">
                               <set attributeName="fill" to="#808080" begin="reset.mouseover" end="reset.mouseout"/>
                       </use>
               </g>
        </defs>

<script type="text/javascript">
var viewWidth = 1571;
var viewHeight = 419;
var sectionId = 'dynsection-0';
</script>
<script xlink:href="svgpan.js"/>
<svg id="graph" class="graph">
<g id="viewport">
<title>ViennaRNA/plotting/structures.h</title>
<!-- Node1 -->
<g id="node1" class="node">
<title>Node1</title>
<g id="a_node1"><a xlink:title="Various functions for plotting RNA secondary structures.">
<polygon fill="#bfbfbf" stroke="black" points="803.5,-380.5 803.5,-410.5 906.5,-410.5 906.5,-380.5 803.5,-380.5"/>
<text text-anchor="start" x="811.5" y="-398.5" font-family="Helvetica,sans-Serif" font-size="10.00">ViennaRNA/plotting</text>
<text text-anchor="middle" x="855" y="-387.5" font-family="Helvetica,sans-Serif" font-size="10.00">/structures.h</text>
</a>
</g>
</g>
<!-- Node2 -->
<g id="node2" class="node">
<title>Node2</title>
<g id="a_node2"><a xlink:href="model_8h.html" target="_top" xlink:title="The model details data structure and its corresponding modifiers.">
<polygon fill="none" stroke="black" points="187,-62 187,-81 293,-81 293,-62 187,-62"/>
<text text-anchor="middle" x="240" y="-69" font-family="Helvetica,sans-Serif" font-size="10.00">ViennaRNA/model.h</text>
</a>
</g>
</g>
<!-- Node1&#45;&gt;Node2 -->
<g id="edge1" class="edge">
<title>Node1&#45;&gt;Node2</title>
<path fill="none" stroke="midnightblue" d="M803.39,-391.72C622.78,-381.32 30,-341.19 30,-262.5 30,-262.5 30,-262.5 30,-199 30,-156.78 52.71,-147.64 87,-123 104.72,-110.26 157.69,-94.29 196.35,-83.76"/>
<polygon fill="midnightblue" stroke="midnightblue" points="197.59,-87.05 206.34,-81.07 195.77,-80.29 197.59,-87.05"/>
</g>
<!-- Node3 -->
<g id="node3" class="node">
<title>Node3</title>
<g id="a_node3"><a xlink:href="layouts_8h.html" target="_top" xlink:title="Secondary structure plot layout algorithms.">
<polygon fill="none" stroke="black" points="803.5,-313.5 803.5,-343.5 906.5,-343.5 906.5,-313.5 803.5,-313.5"/>
<text text-anchor="start" x="811.5" y="-331.5" font-family="Helvetica,sans-Serif" font-size="10.00">ViennaRNA/plotting</text>
<text text-anchor="middle" x="855" y="-320.5" font-family="Helvetica,sans-Serif" font-size="10.00">/layouts.h</text>
</a>
</g>
</g>
<!-- Node1&#45;&gt;Node3 -->
<g id="edge2" class="edge">
<title>Node1&#45;&gt;Node3</title>
<path fill="none" stroke="midnightblue" d="M855,-380.4C855,-372.64 855,-362.81 855,-353.86"/>
<polygon fill="midnightblue" stroke="midnightblue" points="858.5,-353.58 855,-343.58 851.5,-353.58 858.5,-353.58"/>
</g>
<!-- Node22 -->
<g id="node22" class="node">
<title>Node22</title>
<g id="a_node22"><a xlink:href="RNApuzzler_8h.html" target="_top" xlink:title="Implementation of the RNApuzzler RNA secondary structure layout algorithm .">
<polygon fill="none" stroke="black" points="1012.5,-246.5 1012.5,-276.5 1149.5,-276.5 1149.5,-246.5 1012.5,-246.5"/>
<text text-anchor="start" x="1020.5" y="-264.5" font-family="Helvetica,sans-Serif" font-size="10.00">ViennaRNA/plotting</text>
<text text-anchor="middle" x="1081" y="-253.5" font-family="Helvetica,sans-Serif" font-size="10.00">/RNApuzzler/RNApuzzler.h</text>
</a>
</g>
</g>
<!-- Node1&#45;&gt;Node22 -->
<g id="edge48" class="edge">
<title>Node1&#45;&gt;Node22</title>
<path fill="none" stroke="midnightblue" d="M879.19,-380.37C919.97,-356.56 1002.43,-308.39 1048.32,-281.59"/>
<polygon fill="midnightblue" stroke="midnightblue" points="1050.12,-284.59 1056.99,-276.52 1046.59,-278.55 1050.12,-284.59"/>
</g>
<!-- Node4 -->
<g id="node4" class="node">
<title>Node4</title>
<g id="a_node4"><a xlink:href="datastructures_2basic_8h.html" target="_top" xlink:title="Various data structures and pre&#45;processor macros.">
<polygon fill="none" stroke="black" points="739,-246.5 739,-276.5 873,-276.5 873,-246.5 739,-246.5"/>
<text text-anchor="start" x="747" y="-264.5" font-family="Helvetica,sans-Serif" font-size="10.00">ViennaRNA/datastructures</text>
<text text-anchor="middle" x="806" y="-253.5" font-family="Helvetica,sans-Serif" font-size="10.00">/basic.h</text>
</a>
</g>
</g>
<!-- Node3&#45;&gt;Node4 -->
<g id="edge3" class="edge">
<title>Node3&#45;&gt;Node4</title>
<path fill="none" stroke="midnightblue" d="M844.37,-313.4C838.08,-305.05 829.96,-294.29 822.82,-284.81"/>
<polygon fill="midnightblue" stroke="midnightblue" points="825.43,-282.45 816.61,-276.58 819.84,-286.67 825.43,-282.45"/>
</g>
<!-- Node20 -->
<g id="node20" class="node">
<title>Node20</title>
<g id="a_node20"><a xlink:href="plotting_2naview_8h.html" target="_top" xlink:title="Implementation of the Naview RNA secondary structure layout algorithm .">
<polygon fill="none" stroke="black" points="891.5,-246.5 891.5,-276.5 994.5,-276.5 994.5,-246.5 891.5,-246.5"/>
<text text-anchor="start" x="899.5" y="-264.5" font-family="Helvetica,sans-Serif" font-size="10.00">ViennaRNA/plotting</text>
<text text-anchor="middle" x="943" y="-253.5" font-family="Helvetica,sans-Serif" font-size="10.00">/naview.h</text>
</a>
</g>
</g>
<!-- Node3&#45;&gt;Node20 -->
<g id="edge45" class="edge">
<title>Node3&#45;&gt;Node20</title>
<path fill="none" stroke="midnightblue" d="M874.09,-313.4C886.32,-304.37 902.37,-292.51 915.9,-282.52"/>
<polygon fill="midnightblue" stroke="midnightblue" points="917.98,-285.33 923.94,-276.58 913.82,-279.7 917.98,-285.33"/>
</g>
<!-- Node21 -->
<g id="node21" class="node">
<title>Node21</title>
<g id="a_node21"><a xlink:href="RNAturtle_8h.html" target="_top" xlink:title="Implementation of the RNAturtle RNA secondary structure layout algorithm .">
<polygon fill="none" stroke="black" points="593,-246.5 593,-276.5 721,-276.5 721,-246.5 593,-246.5"/>
<text text-anchor="start" x="601" y="-264.5" font-family="Helvetica,sans-Serif" font-size="10.00">ViennaRNA/plotting</text>
<text text-anchor="middle" x="657" y="-253.5" font-family="Helvetica,sans-Serif" font-size="10.00">/RNApuzzler/RNAturtle.h</text>
</a>
</g>
</g>
<!-- Node3&#45;&gt;Node21 -->
<g id="edge46" class="edge">
<title>Node3&#45;&gt;Node21</title>
<path fill="none" stroke="midnightblue" d="M812.04,-313.4C781.94,-303.52 741.54,-290.25 709.52,-279.74"/>
<polygon fill="midnightblue" stroke="midnightblue" points="710.47,-276.37 699.88,-276.58 708.29,-283.02 710.47,-276.37"/>
</g>
<!-- Node3&#45;&gt;Node22 -->
<g id="edge47" class="edge">
<title>Node3&#45;&gt;Node22</title>
<path fill="none" stroke="midnightblue" d="M903.76,-313.48C938.54,-303.47 985.48,-289.97 1022.32,-279.38"/>
<polygon fill="midnightblue" stroke="midnightblue" points="1023.29,-282.74 1031.94,-276.61 1021.36,-276.01 1023.29,-282.74"/>
</g>
<!-- Node4&#45;&gt;Node2 -->
<g id="edge36" class="edge">
<title>Node4&#45;&gt;Node2</title>
<path fill="none" stroke="midnightblue" d="M738.77,-247.66C599.19,-220.88 290.13,-161.01 281,-154 260.62,-138.36 249.61,-109.83 244.27,-91.02"/>
<polygon fill="midnightblue" stroke="midnightblue" points="247.64,-90.05 241.76,-81.23 240.86,-91.79 247.64,-90.05"/>
</g>
<!-- Node5 -->
<g id="node5" class="node">
<title>Node5</title>
<g id="a_node5"><a xlink:href="constants_8h.html" target="_top" xlink:title="Energy parameter constants.">
<polygon fill="none" stroke="black" points="0,-62 0,-81 158,-81 158,-62 0,-62"/>
<text text-anchor="middle" x="79" y="-69" font-family="Helvetica,sans-Serif" font-size="10.00">ViennaRNA/params/constants.h</text>
</a>
</g>
</g>
<!-- Node4&#45;&gt;Node5 -->
<g id="edge4" class="edge">
<title>Node4&#45;&gt;Node5</title>
<path fill="none" stroke="midnightblue" d="M738.93,-247.25C735.92,-246.8 732.93,-246.38 730,-246 500.7,-216.28 435.22,-266.47 211,-210 152.36,-195.23 122.24,-203.14 87,-154 73.89,-135.72 73.93,-108.9 75.87,-91.08"/>
<polygon fill="midnightblue" stroke="midnightblue" points="79.35,-91.46 77.27,-81.08 72.42,-90.5 79.35,-91.46"/>
</g>
<!-- Node7 -->
<g id="node7" class="node">
<title>Node7</title>
<g id="a_node7"><a xlink:href="fold__compound_8h.html" target="_top" xlink:title="The Basic Fold Compound API.">
<polygon fill="none" stroke="black" points="733,-190.5 733,-209.5 879,-209.5 879,-190.5 733,-190.5"/>
<text text-anchor="middle" x="806" y="-197.5" font-family="Helvetica,sans-Serif" font-size="10.00">ViennaRNA/fold_compound.h</text>
</a>
</g>
</g>
<!-- Node4&#45;&gt;Node7 -->
<g id="edge6" class="edge">
<title>Node4&#45;&gt;Node7</title>
<path fill="none" stroke="midnightblue" d="M806,-246.4C806,-238.47 806,-228.46 806,-219.86"/>
<polygon fill="midnightblue" stroke="midnightblue" points="809.5,-219.66 806,-209.66 802.5,-219.66 809.5,-219.66"/>
</g>
<!-- Node8 -->
<g id="node8" class="node">
<title>Node8</title>
<g id="a_node8"><a xlink:href="params_2basic_8h.html" target="_top" xlink:title="Functions to deal with sets of energy parameters.">
<polygon fill="none" stroke="black" points="96,-129 96,-148 234,-148 234,-129 96,-129"/>
<text text-anchor="middle" x="165" y="-136" font-family="Helvetica,sans-Serif" font-size="10.00">ViennaRNA/params/basic.h</text>
</a>
</g>
</g>
<!-- Node4&#45;&gt;Node8 -->
<g id="edge37" class="edge">
<title>Node4&#45;&gt;Node8</title>
<path fill="none" stroke="midnightblue" d="M738.65,-248.66C732.67,-247.67 726.73,-246.76 721,-246 614.52,-231.91 338.37,-250.77 239,-210 210.81,-198.43 185.22,-173.49 172.37,-156.6"/>
<polygon fill="midnightblue" stroke="midnightblue" points="175.15,-154.45 166.61,-148.18 169.37,-158.41 175.15,-154.45"/>
</g>
<!-- Node10 -->
<g id="node10" class="node">
<title>Node10</title>
<g id="a_node10"><a xlink:href="dp__matrices_8h.html" target="_top" xlink:title="Functions to deal with standard dynamic programming (DP) matrices.">
<polygon fill="none" stroke="black" points="290.5,-129 290.5,-148 423.5,-148 423.5,-129 290.5,-129"/>
<text text-anchor="middle" x="357" y="-136" font-family="Helvetica,sans-Serif" font-size="10.00">ViennaRNA/dp_matrices.h</text>
</a>
</g>
</g>
<!-- Node4&#45;&gt;Node10 -->
<g id="edge38" class="edge">
<title>Node4&#45;&gt;Node10</title>
<path fill="none" stroke="midnightblue" d="M749.09,-246.38C656,-222.13 473.92,-173.03 394.93,-150.84"/>
<polygon fill="midnightblue" stroke="midnightblue" points="395.51,-147.36 384.93,-148.02 393.61,-154.1 395.51,-147.36"/>
</g>
<!-- Node11 -->
<g id="node11" class="node">
<title>Node11</title>
<g id="a_node11"><a xlink:href="hard_8h.html" target="_top" xlink:title="Functions and data structures for handling of secondary structure hard constraints.">
<polygon fill="none" stroke="black" points="480.5,-123.5 480.5,-153.5 599.5,-153.5 599.5,-123.5 480.5,-123.5"/>
<text text-anchor="start" x="488.5" y="-141.5" font-family="Helvetica,sans-Serif" font-size="10.00">ViennaRNA/constraints</text>
<text text-anchor="middle" x="540" y="-130.5" font-family="Helvetica,sans-Serif" font-size="10.00">/hard.h</text>
</a>
</g>
</g>
<!-- Node4&#45;&gt;Node11 -->
<g id="edge39" class="edge">
<title>Node4&#45;&gt;Node11</title>
<path fill="none" stroke="midnightblue" d="M774.97,-246.38C726.61,-224.39 633.33,-181.95 579.99,-157.69"/>
<polygon fill="midnightblue" stroke="midnightblue" points="581.39,-154.48 570.84,-153.53 578.49,-160.85 581.39,-154.48"/>
</g>
<!-- Node13 -->
<g id="node13" class="node">
<title>Node13</title>
<g id="a_node13"><a xlink:href="soft_8h.html" target="_top" xlink:title="Functions and data structures for secondary structure soft constraints.">
<polygon fill="none" stroke="black" points="1191.5,-123.5 1191.5,-153.5 1310.5,-153.5 1310.5,-123.5 1191.5,-123.5"/>
<text text-anchor="start" x="1199.5" y="-141.5" font-family="Helvetica,sans-Serif" font-size="10.00">ViennaRNA/constraints</text>
<text text-anchor="middle" x="1251" y="-130.5" font-family="Helvetica,sans-Serif" font-size="10.00">/soft.h</text>
</a>
</g>
</g>
<!-- Node4&#45;&gt;Node13 -->
<g id="edge40" class="edge">
<title>Node4&#45;&gt;Node13</title>
<path fill="none" stroke="midnightblue" d="M853.39,-246.38C933.18,-223.91 1094.2,-180.1 1184.99,-156.14"/>
<polygon fill="midnightblue" stroke="midnightblue" points="1186.12,-159.46 1194.9,-153.53 1184.34,-152.69 1186.12,-159.46"/>
</g>
<!-- Node14 -->
<g id="node14" class="node">
<title>Node14</title>
<g id="a_node14"><a xlink:href="grammar_8h.html" target="_top" xlink:title="Implementations for the RNA folding grammar.">
<polygon fill="none" stroke="black" points="923.5,-129 923.5,-148 1040.5,-148 1040.5,-129 923.5,-129"/>
<text text-anchor="middle" x="982" y="-136" font-family="Helvetica,sans-Serif" font-size="10.00">ViennaRNA/grammar.h</text>
</a>
</g>
</g>
<!-- Node4&#45;&gt;Node14 -->
<g id="edge41" class="edge">
<title>Node4&#45;&gt;Node14</title>
<path fill="none" stroke="midnightblue" d="M830.05,-246.48C846.59,-236.65 868.93,-222.98 888,-210 914.78,-191.76 944.52,-169.02 963.23,-154.38"/>
<polygon fill="midnightblue" stroke="midnightblue" points="965.54,-157.01 971.24,-148.08 961.21,-151.51 965.54,-157.01"/>
</g>
<!-- Node15 -->
<g id="node15" class="node">
<title>Node15</title>
<g id="a_node15"><a xlink:href="structured__domains_8h.html" target="_top" xlink:title="This module provides interfaces that deal with additional structured domains in the folding grammar.">
<polygon fill="none" stroke="black" points="1058.5,-123.5 1058.5,-153.5 1173.5,-153.5 1173.5,-123.5 1058.5,-123.5"/>
<text text-anchor="start" x="1066.5" y="-141.5" font-family="Helvetica,sans-Serif" font-size="10.00">ViennaRNA/structured</text>
<text text-anchor="middle" x="1116" y="-130.5" font-family="Helvetica,sans-Serif" font-size="10.00">_domains.h</text>
</a>
</g>
</g>
<!-- Node4&#45;&gt;Node15 -->
<g id="edge42" class="edge">
<title>Node4&#45;&gt;Node15</title>
<path fill="none" stroke="midnightblue" d="M842.17,-246.38C898.87,-224.25 1008.59,-181.42 1070.54,-157.24"/>
<polygon fill="midnightblue" stroke="midnightblue" points="1072.02,-160.42 1080.06,-153.53 1069.47,-153.9 1072.02,-160.42"/>
</g>
<!-- Node16 -->
<g id="node16" class="node">
<title>Node16</title>
<g id="a_node16"><a xlink:href="unstructured__domains_8h.html" target="_top" xlink:title="Functions to modify unstructured domains, e.g. to incorporate ligands binding to unpaired stretches.">
<polygon fill="none" stroke="black" points="1328.5,-123.5 1328.5,-153.5 1453.5,-153.5 1453.5,-123.5 1328.5,-123.5"/>
<text text-anchor="start" x="1336.5" y="-141.5" font-family="Helvetica,sans-Serif" font-size="10.00">ViennaRNA/unstructured</text>
<text text-anchor="middle" x="1391" y="-130.5" font-family="Helvetica,sans-Serif" font-size="10.00">_domains.h</text>
</a>
</g>
</g>
<!-- Node4&#45;&gt;Node16 -->
<g id="edge43" class="edge">
<title>Node4&#45;&gt;Node16</title>
<path fill="none" stroke="midnightblue" d="M866.61,-246.48C914.28,-236.36 982.25,-222.35 1042,-210 1137.23,-190.31 1247.45,-167.44 1318.21,-153.22"/>
<polygon fill="midnightblue" stroke="midnightblue" points="1319.24,-156.58 1328.35,-151.18 1317.86,-149.72 1319.24,-156.58"/>
</g>
<!-- Node17 -->
<g id="node17" class="node">
<title>Node17</title>
<g id="a_node17"><a xlink:href="utils_2structures_8h.html" target="_top" xlink:title="Various utility&#45; and helper&#45;functions for secondary structure parsing, converting,...">
<polygon fill="none" stroke="black" points="1419,-62 1419,-81 1563,-81 1563,-62 1419,-62"/>
<text text-anchor="middle" x="1491" y="-69" font-family="Helvetica,sans-Serif" font-size="10.00">ViennaRNA/utils/structures.h</text>
</a>
</g>
</g>
<!-- Node4&#45;&gt;Node17 -->
<g id="edge44" class="edge">
<title>Node4&#45;&gt;Node17</title>
<path fill="none" stroke="midnightblue" d="M870.2,-246.48C871.14,-246.32 872.07,-246.16 873,-246 1001.85,-223.97 1354.09,-238.3 1454,-154 1472.54,-138.35 1478.83,-109.82 1483.23,-91.01"/>
<polygon fill="midnightblue" stroke="midnightblue" points="1486.65,-91.78 1485.69,-81.23 1479.86,-90.08 1486.65,-91.78"/>
</g>
<!-- Node6 -->
<g id="node6" class="node">
<title>Node6</title>
<g id="a_node6"><a xlink:title=" ">
<polygon fill="none" stroke="#bfbfbf" points="55,-0.5 55,-19.5 103,-19.5 103,-0.5 55,-0.5"/>
<text text-anchor="middle" x="79" y="-7.5" font-family="Helvetica,sans-Serif" font-size="10.00">limits.h</text>
</a>
</g>
</g>
<!-- Node5&#45;&gt;Node6 -->
<g id="edge5" class="edge">
<title>Node5&#45;&gt;Node6</title>
<path fill="none" stroke="midnightblue" d="M79,-61.98C79,-53.58 79,-40.48 79,-29.66"/>
<polygon fill="midnightblue" stroke="midnightblue" points="82.5,-29.51 79,-19.51 75.5,-29.51 82.5,-29.51"/>
</g>
<!-- Node7&#45;&gt;Node2 -->
<g id="edge7" class="edge">
<title>Node7&#45;&gt;Node2</title>
<path fill="none" stroke="midnightblue" d="M732.78,-193.73C648.78,-186.89 516.76,-173.48 471,-154 450.63,-145.33 451.8,-132.92 432,-123 391.41,-102.66 341.75,-89.89 303.11,-82.27"/>
<polygon fill="midnightblue" stroke="midnightblue" points="303.51,-78.78 293.03,-80.35 302.2,-85.66 303.51,-78.78"/>
</g>
<!-- Node7&#45;&gt;Node8 -->
<g id="edge8" class="edge">
<title>Node7&#45;&gt;Node8</title>
<path fill="none" stroke="midnightblue" d="M732.95,-194.08C629.86,-186.57 436.21,-171.29 272,-154 258.73,-152.6 244.63,-150.97 231.14,-149.31"/>
<polygon fill="midnightblue" stroke="midnightblue" points="231.34,-145.8 220.98,-148.04 230.47,-152.75 231.34,-145.8"/>
</g>
<!-- Node9 -->
<g id="node9" class="node">
<title>Node9</title>
<g id="a_node9"><a xlink:href="sequence_8h.html" target="_top" xlink:title="Functions and data structures related to sequence representations ,.">
<polygon fill="none" stroke="black" points="745,-129 745,-148 867,-148 867,-129 745,-129"/>
<text text-anchor="middle" x="806" y="-136" font-family="Helvetica,sans-Serif" font-size="10.00">ViennaRNA/sequence.h</text>
</a>
</g>
</g>
<!-- Node7&#45;&gt;Node9 -->
<g id="edge13" class="edge">
<title>Node7&#45;&gt;Node9</title>
<path fill="none" stroke="midnightblue" d="M801.1,-190.48C799.27,-182.08 798.8,-168.98 799.69,-158.16"/>
<polygon fill="midnightblue" stroke="midnightblue" points="803.19,-158.4 801.1,-148.01 796.25,-157.43 803.19,-158.4"/>
</g>
<!-- Node7&#45;&gt;Node10 -->
<g id="edge15" class="edge">
<title>Node7&#45;&gt;Node10</title>
<path fill="none" stroke="midnightblue" d="M732.78,-191.98C656.54,-183.93 534.02,-169.81 429,-154 420.76,-152.76 412.08,-151.33 403.68,-149.87"/>
<polygon fill="midnightblue" stroke="midnightblue" points="404.09,-146.39 393.63,-148.07 402.86,-153.28 404.09,-146.39"/>
</g>
<!-- Node7&#45;&gt;Node11 -->
<g id="edge18" class="edge">
<title>Node7&#45;&gt;Node11</title>
<path fill="none" stroke="midnightblue" d="M762.99,-190.48C720.7,-181.46 655.71,-167.01 606.74,-155.79"/>
<polygon fill="midnightblue" stroke="midnightblue" points="607.39,-152.35 596.86,-153.52 605.82,-159.17 607.39,-152.35"/>
</g>
<!-- Node7&#45;&gt;Node13 -->
<g id="edge22" class="edge">
<title>Node7&#45;&gt;Node13</title>
<path fill="none" stroke="midnightblue" d="M879.16,-191.58C953.62,-183.99 1072.07,-170.91 1174,-154 1176.36,-153.61 1178.76,-153.19 1181.19,-152.75"/>
<polygon fill="midnightblue" stroke="midnightblue" points="1182.1,-156.14 1191.28,-150.86 1180.81,-149.26 1182.1,-156.14"/>
</g>
<!-- Node7&#45;&gt;Node14 -->
<g id="edge26" class="edge">
<title>Node7&#45;&gt;Node14</title>
<path fill="none" stroke="midnightblue" d="M826.32,-190.48C854.64,-180.14 906.14,-162.66 942.2,-151.1"/>
<polygon fill="midnightblue" stroke="midnightblue" points="943.46,-154.37 951.93,-148.01 941.34,-147.7 943.46,-154.37"/>
</g>
<!-- Node7&#45;&gt;Node15 -->
<g id="edge28" class="edge">
<title>Node7&#45;&gt;Node15</title>
<path fill="none" stroke="midnightblue" d="M855.17,-190.44C902.29,-182.12 975.69,-168.86 1048.21,-154.33"/>
<polygon fill="midnightblue" stroke="midnightblue" points="1049.32,-157.67 1058.43,-152.27 1047.94,-150.81 1049.32,-157.67"/>
</g>
<!-- Node7&#45;&gt;Node16 -->
<g id="edge29" class="edge">
<title>Node7&#45;&gt;Node16</title>
<path fill="none" stroke="midnightblue" d="M879.33,-194.86C977.87,-188.94 1158.09,-176.23 1311,-154 1313.36,-153.66 1315.77,-153.28 1318.2,-152.89"/>
<polygon fill="midnightblue" stroke="midnightblue" points="1319.02,-156.3 1328.28,-151.15 1317.83,-149.4 1319.02,-156.3"/>
</g>
<!-- Node19 -->
<g id="node19" class="node">
<title>Node19</title>
<g id="a_node19"><a xlink:href="zscore_8h_source.html" target="_top" xlink:title=" ">
<polygon fill="none" stroke="black" points="617.5,-129 617.5,-148 726.5,-148 726.5,-129 617.5,-129"/>
<text text-anchor="middle" x="672" y="-136" font-family="Helvetica,sans-Serif" font-size="10.00">ViennaRNA/zscore.h</text>
</a>
</g>
</g>
<!-- Node7&#45;&gt;Node19 -->
<g id="edge35" class="edge">
<title>Node7&#45;&gt;Node19</title>
<path fill="none" stroke="midnightblue" d="M786.8,-190.48C764.21,-180.45 726.5,-163.7 700.5,-152.15"/>
<polygon fill="midnightblue" stroke="midnightblue" points="701.72,-148.87 691.16,-148.01 698.88,-155.27 701.72,-148.87"/>
</g>
<!-- Node8&#45;&gt;Node2 -->
<g id="edge12" class="edge">
<title>Node8&#45;&gt;Node2</title>
<path fill="none" stroke="midnightblue" d="M175.11,-128.73C187.15,-118.31 207.45,-100.71 222.15,-87.97"/>
<polygon fill="midnightblue" stroke="midnightblue" points="224.78,-90.32 230.05,-81.13 220.2,-85.03 224.78,-90.32"/>
</g>
<!-- Node8&#45;&gt;Node4 -->
<g id="edge10" class="edge">
<title>Node8&#45;&gt;Node4</title>
<path fill="none" stroke="midnightblue" d="M177.14,-148.18C193.83,-163.8 223.59,-196.29 257,-210 353.46,-249.58 616.49,-232.97 732.53,-245.3"/>
<polygon fill="midnightblue" stroke="midnightblue" points="732.28,-248.79 742.62,-246.5 733.1,-241.84 732.28,-248.79"/>
</g>
<!-- Node8&#45;&gt;Node5 -->
<g id="edge9" class="edge">
<title>Node8&#45;&gt;Node5</title>
<path fill="none" stroke="midnightblue" d="M153.4,-128.73C139.35,-118.11 115.45,-100.05 98.53,-87.26"/>
<polygon fill="midnightblue" stroke="midnightblue" points="100.5,-84.36 90.41,-81.13 96.28,-89.95 100.5,-84.36"/>
</g>
<!-- Node8&#45;&gt;Node7 -->
<g id="edge11" class="edge">
<title>Node8&#45;&gt;Node7</title>
<path fill="none" stroke="midnightblue" d="M234.07,-147.51C252.32,-149.75 271.94,-152.1 290,-154 442.6,-170.07 620.62,-184.4 722.7,-192.37"/>
<polygon fill="midnightblue" stroke="midnightblue" points="722.71,-195.88 732.95,-193.17 723.25,-188.9 722.71,-195.88"/>
</g>
<!-- Node9&#45;&gt;Node7 -->
<g id="edge14" class="edge">
<title>Node9&#45;&gt;Node7</title>
<path fill="none" stroke="midnightblue" d="M810.9,-148.01C812.73,-156.4 813.2,-169.5 812.32,-180.32"/>
<polygon fill="midnightblue" stroke="midnightblue" points="808.81,-180.09 810.9,-190.48 815.75,-181.05 808.81,-180.09"/>
</g>
<!-- Node10&#45;&gt;Node4 -->
<g id="edge16" class="edge">
<title>Node10&#45;&gt;Node4</title>
<path fill="none" stroke="midnightblue" d="M392.27,-148.02C469.59,-167.86 654.14,-217.49 748.47,-243.69"/>
<polygon fill="midnightblue" stroke="midnightblue" points="747.57,-247.07 758.14,-246.38 749.44,-240.33 747.57,-247.07"/>
</g>
<!-- Node10&#45;&gt;Node7 -->
<g id="edge17" class="edge">
<title>Node10&#45;&gt;Node7</title>
<path fill="none" stroke="midnightblue" d="M411.04,-148.07C422.94,-150.14 435.42,-152.26 447,-154 541.37,-168.21 649.88,-181.05 722.74,-189.35"/>
<polygon fill="midnightblue" stroke="midnightblue" points="722.45,-192.84 732.78,-190.49 723.24,-185.88 722.45,-192.84"/>
</g>
<!-- Node11&#45;&gt;Node7 -->
<g id="edge19" class="edge">
<title>Node11&#45;&gt;Node7</title>
<path fill="none" stroke="midnightblue" d="M599.73,-151.62C649.32,-162.34 718.57,-177.84 762.9,-188.16"/>
<polygon fill="midnightblue" stroke="midnightblue" points="762.25,-191.61 772.79,-190.48 763.85,-184.79 762.25,-191.61"/>
</g>
<!-- Node12 -->
<g id="node12" class="node">
<title>Node12</title>
<g id="a_node12"><a xlink:href="constraints_2basic_8h.html" target="_top" xlink:title="Functions and data structures for constraining secondary structure predictions and evaluation.">
<polygon fill="none" stroke="black" points="835.5,-56.5 835.5,-86.5 954.5,-86.5 954.5,-56.5 835.5,-56.5"/>
<text text-anchor="start" x="843.5" y="-74.5" font-family="Helvetica,sans-Serif" font-size="10.00">ViennaRNA/constraints</text>
<text text-anchor="middle" x="895" y="-63.5" font-family="Helvetica,sans-Serif" font-size="10.00">/basic.h</text>
</a>
</g>
</g>
<!-- Node11&#45;&gt;Node12 -->
<g id="edge20" class="edge">
<title>Node11&#45;&gt;Node12</title>
<path fill="none" stroke="midnightblue" d="M599.68,-124.65C602.49,-124.08 605.27,-123.53 608,-123 681.9,-108.62 766.87,-93.9 825.06,-84.08"/>
<polygon fill="midnightblue" stroke="midnightblue" points="825.96,-87.48 835.25,-82.37 824.8,-80.58 825.96,-87.48"/>
</g>
<!-- Node12&#45;&gt;Node7 -->
<g id="edge21" class="edge">
<title>Node12&#45;&gt;Node7</title>
<path fill="none" stroke="midnightblue" d="M894.84,-86.77C893.99,-104.15 890.32,-133.7 876,-154 866.26,-167.81 850.8,-178.4 836.88,-185.82"/>
<polygon fill="midnightblue" stroke="midnightblue" points="834.97,-182.87 827.59,-190.46 838.1,-189.13 834.97,-182.87"/>
</g>
<!-- Node13&#45;&gt;Node4 -->
<g id="edge23" class="edge">
<title>Node13&#45;&gt;Node4</title>
<path fill="none" stroke="midnightblue" d="M1203.93,-153.53C1124.36,-175.94 963.35,-219.75 872.37,-243.77"/>
<polygon fill="midnightblue" stroke="midnightblue" points="871.22,-240.45 862.44,-246.38 873,-247.22 871.22,-240.45"/>
</g>
<!-- Node13&#45;&gt;Node7 -->
<g id="edge24" class="edge">
<title>Node13&#45;&gt;Node7</title>
<path fill="none" stroke="midnightblue" d="M1194.88,-153.51C1193.91,-153.68 1192.95,-153.84 1192,-154 1088.54,-171.17 968.06,-184.38 889.51,-191.92"/>
<polygon fill="midnightblue" stroke="midnightblue" points="888.82,-188.47 879.19,-192.9 889.48,-195.44 888.82,-188.47"/>
</g>
<!-- Node13&#45;&gt;Node12 -->
<g id="edge25" class="edge">
<title>Node13&#45;&gt;Node12</title>
<path fill="none" stroke="midnightblue" d="M1191.32,-124.65C1188.51,-124.08 1185.73,-123.53 1183,-123 1108.73,-108.57 1023.31,-93.83 964.91,-84.02"/>
<polygon fill="midnightblue" stroke="midnightblue" points="965.13,-80.51 954.69,-82.31 963.97,-87.42 965.13,-80.51"/>
</g>
<!-- Node14&#45;&gt;Node7 -->
<g id="edge27" class="edge">
<title>Node14&#45;&gt;Node7</title>
<path fill="none" stroke="midnightblue" d="M961.73,-148.01C933.42,-158.34 881.93,-175.82 845.85,-187.38"/>
<polygon fill="midnightblue" stroke="midnightblue" points="844.59,-184.11 836.12,-190.48 846.71,-190.78 844.59,-184.11"/>
</g>
<!-- Node16&#45;&gt;Node4 -->
<g id="edge30" class="edge">
<title>Node16&#45;&gt;Node4</title>
<path fill="none" stroke="midnightblue" d="M1330.38,-153.5C1264,-167.74 1154.6,-190.44 1060,-210 1000.79,-222.24 933.52,-236.1 883.02,-246.2"/>
<polygon fill="midnightblue" stroke="midnightblue" points="882.28,-242.78 873.16,-248.17 883.65,-249.65 882.28,-242.78"/>
</g>
<!-- Node16&#45;&gt;Node7 -->
<g id="edge31" class="edge">
<title>Node16&#45;&gt;Node7</title>
<path fill="none" stroke="midnightblue" d="M1332.01,-153.55C1331,-153.71 1330,-153.86 1329,-154 1174.8,-176.42 992.82,-189.15 889.2,-195.01"/>
<polygon fill="midnightblue" stroke="midnightblue" points="888.9,-191.52 879.11,-195.57 889.29,-198.51 888.9,-191.52"/>
</g>
<!-- Node16&#45;&gt;Node17 -->
<g id="edge32" class="edge">
<title>Node16&#45;&gt;Node17</title>
<path fill="none" stroke="midnightblue" d="M1412.7,-123.4C1429.47,-112.5 1452.57,-97.48 1469.33,-86.58"/>
<polygon fill="midnightblue" stroke="midnightblue" points="1471.44,-89.39 1477.91,-81.01 1467.62,-83.52 1471.44,-89.39"/>
</g>
<!-- Node17&#45;&gt;Node4 -->
<g id="edge34" class="edge">
<title>Node17&#45;&gt;Node4</title>
<path fill="none" stroke="midnightblue" d="M1495.86,-81.23C1498.82,-98.13 1494.18,-135.28 1472,-154 1372.09,-238.3 1019.85,-223.97 891,-246 888.36,-246.45 885.67,-246.92 882.95,-247.4"/>
<polygon fill="midnightblue" stroke="midnightblue" points="882.23,-243.97 873,-249.19 883.47,-250.86 882.23,-243.97"/>
</g>
<!-- Node18 -->
<g id="node18" class="node">
<title>Node18</title>
<g id="a_node18"><a xlink:title=" ">
<polygon fill="none" stroke="#bfbfbf" points="1468,-0.5 1468,-19.5 1514,-19.5 1514,-0.5 1468,-0.5"/>
<text text-anchor="middle" x="1491" y="-7.5" font-family="Helvetica,sans-Serif" font-size="10.00">stdio.h</text>
</a>
</g>
</g>
<!-- Node17&#45;&gt;Node18 -->
<g id="edge33" class="edge">
<title>Node17&#45;&gt;Node18</title>
<path fill="none" stroke="midnightblue" d="M1491,-61.98C1491,-53.58 1491,-40.48 1491,-29.66"/>
<polygon fill="midnightblue" stroke="midnightblue" points="1494.5,-29.51 1491,-19.51 1487.5,-29.51 1494.5,-29.51"/>
</g>
</g>
</svg>
        <g id="navigator" transform="translate(0 0)" fill="#404254">
                <rect fill="#f2f5e9" fill-opacity="0.5" stroke="#606060" stroke-width=".5" x="0" y="0" width="60" height="60"/>
                <use id="zoomplus" xlink:href="#zoomPlus" x="17" y="9" onmousedown="handleZoom(evt,'in')"/>
                <use id="zoomminus" xlink:href="#zoomMin" x="42" y="9" onmousedown="handleZoom(evt,'out')"/>
                <use id="reset" xlink:href="#resetDef" x="30" y="36" onmousedown="handleReset()"/>
                <g id="arrowUp" xlink:href="#dirArrow" transform="translate(30 24)" onmousedown="handlePan(0,-1)">
                  <use xlink:href="#rim" fill="#404040">
                        <set attributeName="fill" to="#808080" begin="arrowUp.mouseover" end="arrowUp.mouseout"/>
                  </use>
                  <path fill="none" stroke="white" stroke-width="1.5" d="M0,-3.0v7 M-2.5,-0.5L0,-3.0L2.5,-0.5"/>
                </g>
                <g id="arrowRight" xlink:href="#dirArrow" transform="rotate(90) translate(36 -43)" onmousedown="handlePan(1,0)">
                  <use xlink:href="#rim" fill="#404040">
                        <set attributeName="fill" to="#808080" begin="arrowRight.mouseover" end="arrowRight.mouseout"/>
                  </use>
                  <path fill="none" stroke="white" stroke-width="1.5" d="M0,-3.0v7 M-2.5,-0.5L0,-3.0L2.5,-0.5"/>
                </g>
                <g id="arrowDown" xlink:href="#dirArrow" transform="rotate(180) translate(-30 -48)" onmousedown="handlePan(0,1)">
                  <use xlink:href="#rim" fill="#404040">
                        <set attributeName="fill" to="#808080" begin="arrowDown.mouseover" end="arrowDown.mouseout"/>
                  </use>
                  <path fill="none" stroke="white" stroke-width="1.5" d="M0,-3.0v7 M-2.5,-0.5L0,-3.0L2.5,-0.5"/>
                </g>
                <g id="arrowLeft" xlink:href="#dirArrow" transform="rotate(270) translate(-36 17)" onmousedown="handlePan(-1,0)">
                  <use xlink:href="#rim" fill="#404040">
                        <set attributeName="fill" to="#808080" begin="arrowLeft.mouseover" end="arrowLeft.mouseout"/>
                  </use>
                  <path fill="none" stroke="white" stroke-width="1.5" d="M0,-3.0v7 M-2.5,-0.5L0,-3.0L2.5,-0.5"/>
                </g>
        </g>
        <svg viewBox="0 0 15 15" width="100%" height="30px" preserveAspectRatio="xMaxYMin meet">
         <g id="arrow_out" transform="scale(0.3 0.3)">
          <a xlink:href="plotting_2structures_8h__incl_org.svg" target="_base">
           <rect id="button" ry="5" rx="5" y="6" x="6" height="38" width="38"
                fill="#f2f5e9" fill-opacity="0.5" stroke="#606060" stroke-width="1.0"/>
           <path id="arrow"
             d="M 11.500037,31.436501 C 11.940474,20.09759 22.043105,11.32322 32.158766,21.979434 L 37.068811,17.246167 C 37.068811,17.246167 37.088388,32 37.088388,32 L 22.160133,31.978069 C 22.160133,31.978069 26.997745,27.140456 26.997745,27.140456 C 18.528582,18.264221 13.291696,25.230495 11.500037,31.436501 z"
             style="fill:#404040;"/>
          </a>
         </g>
        </svg>
</svg>
