<?xml version="1.0" encoding="UTF-8" standalone="no"?>
<!DOCTYPE svg PUBLIC "-//W3C//DTD SVG 1.1//EN"
 "http://www.w3.org/Graphics/SVG/1.1/DTD/svg11.dtd">
<!-- Generated by graphviz version 2.47.0 (0)
 -->
<!-- Title: ViennaRNA/plotting/naview.h Pages: 1 -->
<svg width="400pt" height="229pt"
 viewBox="0.00 0.00 400.00 229.00" xmlns="http://www.w3.org/2000/svg" xmlns:xlink="http://www.w3.org/1999/xlink">
<g id="graph0" class="graph" transform="scale(1 1) rotate(0) translate(4 225)">
<title>ViennaRNA/plotting/naview.h</title>
<!-- Node1 -->
<g id="node1" class="node">
<title>Node1</title>
<g id="a_node1"><a xlink:title="Implementation of the Naview RNA secondary structure layout algorithm .">
<polygon fill="#bfbfbf" stroke="black" points="65,-190.5 65,-220.5 168,-220.5 168,-190.5 65,-190.5"/>
<text text-anchor="start" x="73" y="-208.5" font-family="Helvetica,sans-Serif" font-size="10.00">ViennaRNA/plotting</text>
<text text-anchor="middle" x="116.5" y="-197.5" font-family="Helvetica,sans-Serif" font-size="10.00">/naview.h</text>
</a>
</g>
</g>
<!-- Node2 -->
<g id="node2" class="node">
<title>Node2</title>
<g id="a_node2"><a xlink:href="naview_8h.html" target="_top" xlink:title="Use ViennaRNA/plotting/naview.h instead.">
<polygon fill="none" stroke="black" points="0,-129 0,-148 109,-148 109,-129 0,-129"/>
<text text-anchor="middle" x="54.5" y="-136" font-family="Helvetica,sans-Serif" font-size="10.00">ViennaRNA/naview.h</text>
</a>
</g>
</g>
<!-- Node1&#45;&gt;Node2 -->
<g id="edge1" class="edge">
<title>Node1&#45;&gt;Node2</title>
<path fill="none" stroke="midnightblue" d="M95.99,-183C84.67,-171.13 71.24,-157.05 62.79,-148.19"/>
<polygon fill="midnightblue" stroke="midnightblue" points="93.61,-185.58 103.05,-190.4 98.68,-180.74 93.61,-185.58"/>
</g>
<!-- Node3 -->
<g id="node3" class="node">
<title>Node3</title>
<g id="a_node3"><a xlink:href="layouts_8h.html" target="_top" xlink:title="Secondary structure plot layout algorithms.">
<polygon fill="none" stroke="black" points="127,-123.5 127,-153.5 230,-153.5 230,-123.5 127,-123.5"/>
<text text-anchor="start" x="135" y="-141.5" font-family="Helvetica,sans-Serif" font-size="10.00">ViennaRNA/plotting</text>
<text text-anchor="middle" x="178.5" y="-130.5" font-family="Helvetica,sans-Serif" font-size="10.00">/layouts.h</text>
</a>
</g>
</g>
<!-- Node1&#45;&gt;Node3 -->
<g id="edge2" class="edge">
<title>Node1&#45;&gt;Node3</title>
<path fill="none" stroke="midnightblue" d="M136.98,-183.02C146.22,-173.34 156.87,-162.17 165.07,-153.58"/>
<polygon fill="midnightblue" stroke="midnightblue" points="134.32,-180.74 129.95,-190.4 139.39,-185.58 134.32,-180.74"/>
</g>
<!-- Node4 -->
<g id="node4" class="node">
<title>Node4</title>
<g id="a_node4"><a xlink:href="plot__layouts_8h.html" target="_top" xlink:title="Use ViennaRNA/plotting/layouts.h instead.">
<polygon fill="none" stroke="black" points="18.5,-62 18.5,-81 150.5,-81 150.5,-62 18.5,-62"/>
<text text-anchor="middle" x="84.5" y="-69" font-family="Helvetica,sans-Serif" font-size="10.00">ViennaRNA/plot_layouts.h</text>
</a>
</g>
</g>
<!-- Node3&#45;&gt;Node4 -->
<g id="edge3" class="edge">
<title>Node3&#45;&gt;Node4</title>
<path fill="none" stroke="midnightblue" d="M149.78,-117.64C132.04,-105.37 110.19,-90.26 96.8,-81.01"/>
<polygon fill="midnightblue" stroke="midnightblue" points="147.89,-120.59 158.1,-123.4 151.87,-114.83 147.89,-120.59"/>
</g>
<!-- Node5 -->
<g id="node5" class="node">
<title>Node5</title>
<g id="a_node5"><a xlink:href="PS__dot_8h.html" target="_top" xlink:title="Use ViennaRNA/plotting/probabilities.h instead.">
<polygon fill="none" stroke="black" points="122.5,-0.5 122.5,-19.5 234.5,-19.5 234.5,-0.5 122.5,-0.5"/>
<text text-anchor="middle" x="178.5" y="-7.5" font-family="Helvetica,sans-Serif" font-size="10.00">ViennaRNA/PS_dot.h</text>
</a>
</g>
</g>
<!-- Node3&#45;&gt;Node5 -->
<g id="edge4" class="edge">
<title>Node3&#45;&gt;Node5</title>
<path fill="none" stroke="midnightblue" d="M178.5,-113.14C178.5,-84.62 178.5,-38.86 178.5,-19.79"/>
<polygon fill="midnightblue" stroke="midnightblue" points="175,-113.48 178.5,-123.48 182,-113.48 175,-113.48"/>
</g>
<!-- Node6 -->
<g id="node6" class="node">
<title>Node6</title>
<g id="a_node6"><a xlink:href="plotting_2structures_8h.html" target="_top" xlink:title="Various functions for plotting RNA secondary structures.">
<polygon fill="none" stroke="black" points="207,-56.5 207,-86.5 310,-86.5 310,-56.5 207,-56.5"/>
<text text-anchor="start" x="215" y="-74.5" font-family="Helvetica,sans-Serif" font-size="10.00">ViennaRNA/plotting</text>
<text text-anchor="middle" x="258.5" y="-63.5" font-family="Helvetica,sans-Serif" font-size="10.00">/structures.h</text>
</a>
</g>
</g>
<!-- Node3&#45;&gt;Node6 -->
<g id="edge5" class="edge">
<title>Node3&#45;&gt;Node6</title>
<path fill="none" stroke="midnightblue" d="M203.87,-116.88C216.03,-107.01 230.28,-95.43 241.18,-86.58"/>
<polygon fill="midnightblue" stroke="midnightblue" points="201.41,-114.37 195.86,-123.4 205.83,-119.81 201.41,-114.37"/>
</g>
<!-- Node6&#45;&gt;Node5 -->
<g id="edge7" class="edge">
<title>Node6&#45;&gt;Node5</title>
<path fill="none" stroke="midnightblue" d="M231.19,-50.19C217.18,-39.77 200.86,-27.63 190.14,-19.66"/>
<polygon fill="midnightblue" stroke="midnightblue" points="229.43,-53.24 239.54,-56.4 233.61,-47.62 229.43,-53.24"/>
</g>
<!-- Node7 -->
<g id="node7" class="node">
<title>Node7</title>
<g id="a_node7"><a xlink:href="plot__structure_8h.html" target="_top" xlink:title="Use ViennaRNA/plotting/structures.h instead.">
<polygon fill="none" stroke="black" points="253,-0.5 253,-19.5 392,-19.5 392,-0.5 253,-0.5"/>
<text text-anchor="middle" x="322.5" y="-7.5" font-family="Helvetica,sans-Serif" font-size="10.00">ViennaRNA/plot_structure.h</text>
</a>
</g>
</g>
<!-- Node6&#45;&gt;Node7 -->
<g id="edge6" class="edge">
<title>Node6&#45;&gt;Node7</title>
<path fill="none" stroke="midnightblue" d="M281.3,-49.3C292.29,-39.09 304.85,-27.41 313.19,-19.66"/>
<polygon fill="midnightblue" stroke="midnightblue" points="278.61,-47.03 273.67,-56.4 283.37,-52.15 278.61,-47.03"/>
</g>
</g>
</svg>
