<?xml version="1.0" encoding="UTF-8" standalone="no"?>
<!DOCTYPE svg PUBLIC "-//W3C//DTD SVG 1.1//EN"
 "http://www.w3.org/Graphics/SVG/1.1/DTD/svg11.dtd">
<!-- Generated by graphviz version 2.47.0 (0)
 -->
<!-- Title: ViennaRNA/plot_utils.h Pages: 1 -->
<svg width="1564pt" height="408pt"
 viewBox="0.00 0.00 1564.00 408.00" xmlns="http://www.w3.org/2000/svg" xmlns:xlink="http://www.w3.org/1999/xlink">
<g id="graph0" class="graph" transform="scale(1 1) rotate(0) translate(4 404)">
<title>ViennaRNA/plot_utils.h</title>
<!-- Node1 -->
<g id="node1" class="node">
<title>Node1</title>
<g id="a_node1"><a xlink:title="Use ViennaRNA/plotting/utils.h instead.">
<polygon fill="#bfbfbf" stroke="black" points="954.5,-380.5 954.5,-399.5 1073.5,-399.5 1073.5,-380.5 954.5,-380.5"/>
<text text-anchor="middle" x="1014" y="-387.5" font-family="Helvetica,sans-Serif" font-size="10.00">ViennaRNA/plot_utils.h</text>
</a>
</g>
</g>
<!-- Node2 -->
<g id="node2" class="node">
<title>Node2</title>
<g id="a_node2"><a xlink:href="plotting_2utils_8h.html" target="_top" xlink:title="Various utilities to assist in plotting secondary structures and consensus structures.">
<polygon fill="none" stroke="black" points="962.5,-313.5 962.5,-343.5 1065.5,-343.5 1065.5,-313.5 962.5,-313.5"/>
<text text-anchor="start" x="970.5" y="-331.5" font-family="Helvetica,sans-Serif" font-size="10.00">ViennaRNA/plotting</text>
<text text-anchor="middle" x="1014" y="-320.5" font-family="Helvetica,sans-Serif" font-size="10.00">/utils.h</text>
</a>
</g>
</g>
<!-- Node1&#45;&gt;Node2 -->
<g id="edge1" class="edge">
<title>Node1&#45;&gt;Node2</title>
<path fill="none" stroke="midnightblue" d="M1014,-380.48C1014,-373.47 1014,-363.19 1014,-353.7"/>
<polygon fill="midnightblue" stroke="midnightblue" points="1017.5,-353.52 1014,-343.52 1010.5,-353.52 1017.5,-353.52"/>
</g>
<!-- Node3 -->
<g id="node3" class="node">
<title>Node3</title>
<g id="a_node3"><a xlink:href="datastructures_2basic_8h.html" target="_top" xlink:title="Various data structures and pre&#45;processor macros.">
<polygon fill="none" stroke="black" points="947,-246.5 947,-276.5 1081,-276.5 1081,-246.5 947,-246.5"/>
<text text-anchor="start" x="955" y="-264.5" font-family="Helvetica,sans-Serif" font-size="10.00">ViennaRNA/datastructures</text>
<text text-anchor="middle" x="1014" y="-253.5" font-family="Helvetica,sans-Serif" font-size="10.00">/basic.h</text>
</a>
</g>
</g>
<!-- Node2&#45;&gt;Node3 -->
<g id="edge2" class="edge">
<title>Node2&#45;&gt;Node3</title>
<path fill="none" stroke="midnightblue" d="M1014,-313.4C1014,-305.64 1014,-295.81 1014,-286.86"/>
<polygon fill="midnightblue" stroke="midnightblue" points="1017.5,-286.58 1014,-276.58 1010.5,-286.58 1017.5,-286.58"/>
</g>
<!-- Node7 -->
<g id="node7" class="node">
<title>Node7</title>
<g id="a_node7"><a xlink:href="model_8h.html" target="_top" xlink:title="The model details data structure and its corresponding modifiers.">
<polygon fill="none" stroke="black" points="0,-62 0,-81 106,-81 106,-62 0,-62"/>
<text text-anchor="middle" x="53" y="-69" font-family="Helvetica,sans-Serif" font-size="10.00">ViennaRNA/model.h</text>
</a>
</g>
</g>
<!-- Node2&#45;&gt;Node7 -->
<g id="edge44" class="edge">
<title>Node2&#45;&gt;Node7</title>
<path fill="none" stroke="midnightblue" d="M962.38,-323.71C800.52,-311.31 304.82,-269.34 156,-210 116.36,-194.19 102.9,-188.66 78,-154 64.47,-135.17 58.14,-108.86 55.26,-91.28"/>
<polygon fill="midnightblue" stroke="midnightblue" points="58.69,-90.56 53.83,-81.15 51.76,-91.55 58.69,-90.56"/>
</g>
<!-- Node17 -->
<g id="node17" class="node">
<title>Node17</title>
<g id="a_node17"><a xlink:href="utils_2structures_8h.html" target="_top" xlink:title="Various utility&#45; and helper&#45;functions for secondary structure parsing, converting,...">
<polygon fill="none" stroke="black" points="1412,-62 1412,-81 1556,-81 1556,-62 1412,-62"/>
<text text-anchor="middle" x="1484" y="-69" font-family="Helvetica,sans-Serif" font-size="10.00">ViennaRNA/utils/structures.h</text>
</a>
</g>
</g>
<!-- Node2&#45;&gt;Node17 -->
<g id="edge45" class="edge">
<title>Node2&#45;&gt;Node17</title>
<path fill="none" stroke="midnightblue" d="M1065.69,-327.35C1168.63,-323.84 1397.17,-299.26 1488,-154 1499.88,-135 1495.55,-108.37 1490.51,-90.79"/>
<polygon fill="midnightblue" stroke="midnightblue" points="1493.81,-89.61 1487.42,-81.16 1487.14,-91.75 1493.81,-89.61"/>
</g>
<!-- Node4 -->
<g id="node4" class="node">
<title>Node4</title>
<g id="a_node4"><a xlink:href="constants_8h.html" target="_top" xlink:title="Energy parameter constants.">
<polygon fill="none" stroke="black" points="124,-62 124,-81 282,-81 282,-62 124,-62"/>
<text text-anchor="middle" x="203" y="-69" font-family="Helvetica,sans-Serif" font-size="10.00">ViennaRNA/params/constants.h</text>
</a>
</g>
</g>
<!-- Node3&#45;&gt;Node4 -->
<g id="edge3" class="edge">
<title>Node3&#45;&gt;Node4</title>
<path fill="none" stroke="midnightblue" d="M946.94,-257.72C747.78,-248.78 170.29,-217.53 117,-154 108.15,-143.44 110.16,-134.96 117,-123 127.23,-105.12 146.53,-92.96 164.25,-85.05"/>
<polygon fill="midnightblue" stroke="midnightblue" points="165.96,-88.13 173.87,-81.09 163.29,-81.66 165.96,-88.13"/>
</g>
<!-- Node6 -->
<g id="node6" class="node">
<title>Node6</title>
<g id="a_node6"><a xlink:href="fold__compound_8h.html" target="_top" xlink:title="The Basic Fold Compound API.">
<polygon fill="none" stroke="black" points="716,-190.5 716,-209.5 862,-209.5 862,-190.5 716,-190.5"/>
<text text-anchor="middle" x="789" y="-197.5" font-family="Helvetica,sans-Serif" font-size="10.00">ViennaRNA/fold_compound.h</text>
</a>
</g>
</g>
<!-- Node3&#45;&gt;Node6 -->
<g id="edge5" class="edge">
<title>Node3&#45;&gt;Node6</title>
<path fill="none" stroke="midnightblue" d="M960.96,-246.47C921.3,-235.99 867.79,-221.84 831.06,-212.12"/>
<polygon fill="midnightblue" stroke="midnightblue" points="831.73,-208.68 821.17,-209.51 829.94,-215.45 831.73,-208.68"/>
</g>
<!-- Node3&#45;&gt;Node7 -->
<g id="edge35" class="edge">
<title>Node3&#45;&gt;Node7</title>
<path fill="none" stroke="midnightblue" d="M946.99,-259.69C781.22,-257.15 355.46,-247.08 219,-210 165.68,-195.51 149.46,-190.53 108,-154 87.35,-135.8 70.89,-108.2 61.54,-90.25"/>
<polygon fill="midnightblue" stroke="midnightblue" points="64.6,-88.54 56.98,-81.17 58.34,-91.68 64.6,-88.54"/>
</g>
<!-- Node8 -->
<g id="node8" class="node">
<title>Node8</title>
<g id="a_node8"><a xlink:href="params_2basic_8h.html" target="_top" xlink:title="Functions to deal with sets of energy parameters.">
<polygon fill="none" stroke="black" points="126,-129 126,-148 264,-148 264,-129 126,-129"/>
<text text-anchor="middle" x="195" y="-136" font-family="Helvetica,sans-Serif" font-size="10.00">ViennaRNA/params/basic.h</text>
</a>
</g>
</g>
<!-- Node3&#45;&gt;Node8 -->
<g id="edge36" class="edge">
<title>Node3&#45;&gt;Node8</title>
<path fill="none" stroke="midnightblue" d="M946.67,-255.72C853.56,-248.31 680.79,-232.51 535,-210 426.21,-193.2 299.89,-165.66 236.1,-150.45"/>
<polygon fill="midnightblue" stroke="midnightblue" points="236.59,-146.97 226.05,-148.03 234.95,-153.77 236.59,-146.97"/>
</g>
<!-- Node10 -->
<g id="node10" class="node">
<title>Node10</title>
<g id="a_node10"><a xlink:href="dp__matrices_8h.html" target="_top" xlink:title="Functions to deal with standard dynamic programming (DP) matrices.">
<polygon fill="none" stroke="black" points="1170.5,-129 1170.5,-148 1303.5,-148 1303.5,-129 1170.5,-129"/>
<text text-anchor="middle" x="1237" y="-136" font-family="Helvetica,sans-Serif" font-size="10.00">ViennaRNA/dp_matrices.h</text>
</a>
</g>
</g>
<!-- Node3&#45;&gt;Node10 -->
<g id="edge37" class="edge">
<title>Node3&#45;&gt;Node10</title>
<path fill="none" stroke="midnightblue" d="M1035.49,-246.38C1076.03,-222.75 1163.1,-175.53 1208.47,-152.6"/>
<polygon fill="midnightblue" stroke="midnightblue" points="1210.1,-155.69 1217.48,-148.09 1206.97,-149.43 1210.1,-155.69"/>
</g>
<!-- Node11 -->
<g id="node11" class="node">
<title>Node11</title>
<g id="a_node11"><a xlink:href="hard_8h.html" target="_top" xlink:title="Functions and data structures for handling of secondary structure hard constraints.">
<polygon fill="none" stroke="black" points="456.5,-123.5 456.5,-153.5 575.5,-153.5 575.5,-123.5 456.5,-123.5"/>
<text text-anchor="start" x="464.5" y="-141.5" font-family="Helvetica,sans-Serif" font-size="10.00">ViennaRNA/constraints</text>
<text text-anchor="middle" x="516" y="-130.5" font-family="Helvetica,sans-Serif" font-size="10.00">/hard.h</text>
</a>
</g>
</g>
<!-- Node3&#45;&gt;Node11 -->
<g id="edge38" class="edge">
<title>Node3&#45;&gt;Node11</title>
<path fill="none" stroke="midnightblue" d="M946.75,-253.18C884.03,-245.48 788.21,-231.46 707,-210 654.23,-196.06 595.63,-173.28 557.43,-157.41"/>
<polygon fill="midnightblue" stroke="midnightblue" points="558.75,-154.17 548.17,-153.53 556.04,-160.62 558.75,-154.17"/>
</g>
<!-- Node13 -->
<g id="node13" class="node">
<title>Node13</title>
<g id="a_node13"><a xlink:href="soft_8h.html" target="_top" xlink:title="Functions and data structures for secondary structure soft constraints.">
<polygon fill="none" stroke="black" points="1033.5,-123.5 1033.5,-153.5 1152.5,-153.5 1152.5,-123.5 1033.5,-123.5"/>
<text text-anchor="start" x="1041.5" y="-141.5" font-family="Helvetica,sans-Serif" font-size="10.00">ViennaRNA/constraints</text>
<text text-anchor="middle" x="1093" y="-130.5" font-family="Helvetica,sans-Serif" font-size="10.00">/soft.h</text>
</a>
</g>
</g>
<!-- Node3&#45;&gt;Node13 -->
<g id="edge39" class="edge">
<title>Node3&#45;&gt;Node13</title>
<path fill="none" stroke="midnightblue" d="M1018.82,-246.14C1029.8,-225.31 1054.86,-186.51 1072.99,-161.9"/>
<polygon fill="midnightblue" stroke="midnightblue" points="1075.85,-163.92 1079.09,-153.84 1070.27,-159.7 1075.85,-163.92"/>
</g>
<!-- Node14 -->
<g id="node14" class="node">
<title>Node14</title>
<g id="a_node14"><a xlink:href="grammar_8h.html" target="_top" xlink:title="Implementations for the RNA folding grammar.">
<polygon fill="none" stroke="black" points="282.5,-129 282.5,-148 399.5,-148 399.5,-129 282.5,-129"/>
<text text-anchor="middle" x="341" y="-136" font-family="Helvetica,sans-Serif" font-size="10.00">ViennaRNA/grammar.h</text>
</a>
</g>
</g>
<!-- Node3&#45;&gt;Node14 -->
<g id="edge40" class="edge">
<title>Node3&#45;&gt;Node14</title>
<path fill="none" stroke="midnightblue" d="M946.78,-253.52C871.31,-245.2 745.34,-229.9 638,-210 545.83,-192.92 439.24,-165.78 382.16,-150.64"/>
<polygon fill="midnightblue" stroke="midnightblue" points="382.99,-147.24 372.43,-148.05 381.19,-154.01 382.99,-147.24"/>
</g>
<!-- Node15 -->
<g id="node15" class="node">
<title>Node15</title>
<g id="a_node15"><a xlink:href="structured__domains_8h.html" target="_top" xlink:title="This module provides interfaces that deal with additional structured domains in the folding grammar.">
<polygon fill="none" stroke="black" points="900.5,-123.5 900.5,-153.5 1015.5,-153.5 1015.5,-123.5 900.5,-123.5"/>
<text text-anchor="start" x="908.5" y="-141.5" font-family="Helvetica,sans-Serif" font-size="10.00">ViennaRNA/structured</text>
<text text-anchor="middle" x="958" y="-130.5" font-family="Helvetica,sans-Serif" font-size="10.00">_domains.h</text>
</a>
</g>
</g>
<!-- Node3&#45;&gt;Node15 -->
<g id="edge41" class="edge">
<title>Node3&#45;&gt;Node15</title>
<path fill="none" stroke="midnightblue" d="M1007.36,-246.14C997.88,-225.68 980.38,-187.86 968.97,-163.2"/>
<polygon fill="midnightblue" stroke="midnightblue" points="972.01,-161.44 964.64,-153.84 965.66,-164.38 972.01,-161.44"/>
</g>
<!-- Node16 -->
<g id="node16" class="node">
<title>Node16</title>
<g id="a_node16"><a xlink:href="unstructured__domains_8h.html" target="_top" xlink:title="Functions to modify unstructured domains, e.g. to incorporate ligands binding to unpaired stretches.">
<polygon fill="none" stroke="black" points="1321.5,-123.5 1321.5,-153.5 1446.5,-153.5 1446.5,-123.5 1321.5,-123.5"/>
<text text-anchor="start" x="1329.5" y="-141.5" font-family="Helvetica,sans-Serif" font-size="10.00">ViennaRNA/unstructured</text>
<text text-anchor="middle" x="1384" y="-130.5" font-family="Helvetica,sans-Serif" font-size="10.00">_domains.h</text>
</a>
</g>
</g>
<!-- Node3&#45;&gt;Node16 -->
<g id="edge42" class="edge">
<title>Node3&#45;&gt;Node16</title>
<path fill="none" stroke="midnightblue" d="M1052.64,-246.38C1118.03,-224.07 1250.47,-180.72 1326.68,-156.65"/>
<polygon fill="midnightblue" stroke="midnightblue" points="1328.11,-159.87 1336.59,-153.53 1326,-153.19 1328.11,-159.87"/>
</g>
<!-- Node3&#45;&gt;Node17 -->
<g id="edge43" class="edge">
<title>Node3&#45;&gt;Node17</title>
<path fill="none" stroke="midnightblue" d="M1081.26,-251.5C1189,-236.41 1393.36,-202.8 1447,-154 1464.86,-137.75 1471.33,-109.59 1475.93,-91"/>
<polygon fill="midnightblue" stroke="midnightblue" points="1479.38,-91.65 1478.56,-81.09 1472.61,-89.85 1479.38,-91.65"/>
</g>
<!-- Node5 -->
<g id="node5" class="node">
<title>Node5</title>
<g id="a_node5"><a xlink:title=" ">
<polygon fill="none" stroke="#bfbfbf" points="179,-0.5 179,-19.5 227,-19.5 227,-0.5 179,-0.5"/>
<text text-anchor="middle" x="203" y="-7.5" font-family="Helvetica,sans-Serif" font-size="10.00">limits.h</text>
</a>
</g>
</g>
<!-- Node4&#45;&gt;Node5 -->
<g id="edge4" class="edge">
<title>Node4&#45;&gt;Node5</title>
<path fill="none" stroke="midnightblue" d="M203,-61.98C203,-53.58 203,-40.48 203,-29.66"/>
<polygon fill="midnightblue" stroke="midnightblue" points="206.5,-29.51 203,-19.51 199.5,-29.51 206.5,-29.51"/>
</g>
<!-- Node6&#45;&gt;Node7 -->
<g id="edge6" class="edge">
<title>Node6&#45;&gt;Node7</title>
<path fill="none" stroke="midnightblue" d="M715.76,-193.97C630.1,-187.28 494,-173.94 447,-154 426.62,-145.35 428.42,-131.56 408,-123 287,-72.28 244.17,-109.97 115,-87 109.07,-85.95 102.86,-84.68 96.76,-83.35"/>
<polygon fill="midnightblue" stroke="midnightblue" points="97.18,-79.86 86.65,-81.06 95.63,-86.68 97.18,-79.86"/>
</g>
<!-- Node6&#45;&gt;Node8 -->
<g id="edge7" class="edge">
<title>Node6&#45;&gt;Node8</title>
<path fill="none" stroke="midnightblue" d="M715.68,-195.21C613.8,-189.18 424.16,-175.82 264,-154 255.66,-152.86 246.85,-151.44 238.4,-149.94"/>
<polygon fill="midnightblue" stroke="midnightblue" points="238.79,-146.45 228.32,-148.08 237.52,-153.33 238.79,-146.45"/>
</g>
<!-- Node9 -->
<g id="node9" class="node">
<title>Node9</title>
<g id="a_node9"><a xlink:href="sequence_8h.html" target="_top" xlink:title="Functions and data structures related to sequence representations ,.">
<polygon fill="none" stroke="black" points="594,-129 594,-148 716,-148 716,-129 594,-129"/>
<text text-anchor="middle" x="655" y="-136" font-family="Helvetica,sans-Serif" font-size="10.00">ViennaRNA/sequence.h</text>
</a>
</g>
</g>
<!-- Node6&#45;&gt;Node9 -->
<g id="edge12" class="edge">
<title>Node6&#45;&gt;Node9</title>
<path fill="none" stroke="midnightblue" d="M764.9,-190.48C740.34,-180.53 702.83,-163.99 678.5,-152.46"/>
<polygon fill="midnightblue" stroke="midnightblue" points="679.79,-149.2 669.27,-148.01 676.76,-155.5 679.79,-149.2"/>
</g>
<!-- Node6&#45;&gt;Node10 -->
<g id="edge14" class="edge">
<title>Node6&#45;&gt;Node10</title>
<path fill="none" stroke="midnightblue" d="M862.3,-190.98C935.96,-183.02 1052.47,-169.76 1153,-154 1160.82,-152.77 1169.08,-151.33 1177.25,-149.84"/>
<polygon fill="midnightblue" stroke="midnightblue" points="1177.95,-153.27 1187.15,-148 1176.68,-146.38 1177.95,-153.27"/>
</g>
<!-- Node6&#45;&gt;Node11 -->
<g id="edge17" class="edge">
<title>Node6&#45;&gt;Node11</title>
<path fill="none" stroke="midnightblue" d="M744.99,-190.48C701.55,-181.44 634.67,-166.95 584.34,-155.72"/>
<polygon fill="midnightblue" stroke="midnightblue" points="585.03,-152.29 574.51,-153.52 583.51,-159.12 585.03,-152.29"/>
</g>
<!-- Node6&#45;&gt;Node13 -->
<g id="edge21" class="edge">
<title>Node6&#45;&gt;Node13</title>
<path fill="none" stroke="midnightblue" d="M828.42,-190.5C873.8,-181.66 950.17,-167.29 1016,-154 1018.35,-153.53 1020.74,-153.04 1023.16,-152.54"/>
<polygon fill="midnightblue" stroke="midnightblue" points="1024.12,-155.92 1033.21,-150.47 1022.71,-149.06 1024.12,-155.92"/>
</g>
<!-- Node6&#45;&gt;Node14 -->
<g id="edge25" class="edge">
<title>Node6&#45;&gt;Node14</title>
<path fill="none" stroke="midnightblue" d="M715.86,-192.57C638.26,-184.94 512.5,-171.1 405,-154 397.63,-152.83 389.87,-151.45 382.38,-150.01"/>
<polygon fill="midnightblue" stroke="midnightblue" points="382.87,-146.54 372.38,-148.03 381.51,-153.41 382.87,-146.54"/>
</g>
<!-- Node6&#45;&gt;Node15 -->
<g id="edge27" class="edge">
<title>Node6&#45;&gt;Node15</title>
<path fill="none" stroke="midnightblue" d="M813.21,-190.48C838.03,-181.74 877.31,-167.91 908.71,-156.86"/>
<polygon fill="midnightblue" stroke="midnightblue" points="909.9,-160.15 918.17,-153.52 907.58,-153.54 909.9,-160.15"/>
</g>
<!-- Node6&#45;&gt;Node16 -->
<g id="edge28" class="edge">
<title>Node6&#45;&gt;Node16</title>
<path fill="none" stroke="midnightblue" d="M862.14,-195.05C962.26,-189.28 1147.21,-176.66 1304,-154 1306.36,-153.66 1308.77,-153.29 1311.2,-152.89"/>
<polygon fill="midnightblue" stroke="midnightblue" points="1312.01,-156.3 1321.28,-151.16 1310.83,-149.41 1312.01,-156.3"/>
</g>
<!-- Node19 -->
<g id="node19" class="node">
<title>Node19</title>
<g id="a_node19"><a xlink:href="zscore_8h_source.html" target="_top" xlink:title=" ">
<polygon fill="none" stroke="black" points="734.5,-129 734.5,-148 843.5,-148 843.5,-129 734.5,-129"/>
<text text-anchor="middle" x="789" y="-136" font-family="Helvetica,sans-Serif" font-size="10.00">ViennaRNA/zscore.h</text>
</a>
</g>
</g>
<!-- Node6&#45;&gt;Node19 -->
<g id="edge34" class="edge">
<title>Node6&#45;&gt;Node19</title>
<path fill="none" stroke="midnightblue" d="M789,-190.48C789,-182.08 789,-168.98 789,-158.16"/>
<polygon fill="midnightblue" stroke="midnightblue" points="792.5,-158.01 789,-148.01 785.5,-158.01 792.5,-158.01"/>
</g>
<!-- Node8&#45;&gt;Node3 -->
<g id="edge9" class="edge">
<title>Node8&#45;&gt;Node3</title>
<path fill="none" stroke="midnightblue" d="M236.92,-148.03C303.77,-162.56 438.15,-192.27 553,-210 687.46,-230.76 844.88,-245.81 936.69,-253.84"/>
<polygon fill="midnightblue" stroke="midnightblue" points="936.46,-257.33 946.73,-254.71 937.07,-250.36 936.46,-257.33"/>
</g>
<!-- Node8&#45;&gt;Node4 -->
<g id="edge8" class="edge">
<title>Node8&#45;&gt;Node4</title>
<path fill="none" stroke="midnightblue" d="M196.08,-128.73C197.25,-119.18 199.17,-103.62 200.69,-91.28"/>
<polygon fill="midnightblue" stroke="midnightblue" points="204.19,-91.48 201.94,-81.13 197.24,-90.62 204.19,-91.48"/>
</g>
<!-- Node8&#45;&gt;Node6 -->
<g id="edge10" class="edge">
<title>Node8&#45;&gt;Node6</title>
<path fill="none" stroke="midnightblue" d="M245.64,-148.08C257.61,-150.24 270.26,-152.4 282,-154 430.81,-174.27 605.08,-187.25 705.75,-193.82"/>
<polygon fill="midnightblue" stroke="midnightblue" points="705.65,-197.32 715.85,-194.47 706.1,-190.33 705.65,-197.32"/>
</g>
<!-- Node8&#45;&gt;Node7 -->
<g id="edge11" class="edge">
<title>Node8&#45;&gt;Node7</title>
<path fill="none" stroke="midnightblue" d="M176.14,-128.87C151.85,-117.75 109.4,-98.32 81.24,-85.43"/>
<polygon fill="midnightblue" stroke="midnightblue" points="82.48,-82.15 71.93,-81.17 79.57,-88.51 82.48,-82.15"/>
</g>
<!-- Node9&#45;&gt;Node6 -->
<g id="edge13" class="edge">
<title>Node9&#45;&gt;Node6</title>
<path fill="none" stroke="midnightblue" d="M679.06,-148.01C703.6,-157.94 741.11,-174.48 765.46,-186.02"/>
<polygon fill="midnightblue" stroke="midnightblue" points="764.17,-189.29 774.7,-190.48 767.21,-182.98 764.17,-189.29"/>
</g>
<!-- Node10&#45;&gt;Node3 -->
<g id="edge15" class="edge">
<title>Node10&#45;&gt;Node3</title>
<path fill="none" stroke="midnightblue" d="M1224.85,-148.09C1192.67,-167.49 1105.48,-215.04 1053.76,-241.67"/>
<polygon fill="midnightblue" stroke="midnightblue" points="1051.85,-238.71 1044.54,-246.38 1055.04,-244.95 1051.85,-238.71"/>
</g>
<!-- Node10&#45;&gt;Node6 -->
<g id="edge16" class="edge">
<title>Node10&#45;&gt;Node6</title>
<path fill="none" stroke="midnightblue" d="M1204.51,-148C1193.86,-150.12 1182.01,-152.27 1171,-154 1068.78,-170.03 950.03,-183.47 872.33,-191.38"/>
<polygon fill="midnightblue" stroke="midnightblue" points="871.72,-187.92 862.12,-192.41 872.42,-194.89 871.72,-187.92"/>
</g>
<!-- Node11&#45;&gt;Node6 -->
<g id="edge18" class="edge">
<title>Node11&#45;&gt;Node6</title>
<path fill="none" stroke="midnightblue" d="M575.61,-151.29C626.63,-162.04 698.81,-177.78 744.82,-188.21"/>
<polygon fill="midnightblue" stroke="midnightblue" points="744.26,-191.67 754.79,-190.48 745.81,-184.84 744.26,-191.67"/>
</g>
<!-- Node12 -->
<g id="node12" class="node">
<title>Node12</title>
<g id="a_node12"><a xlink:href="constraints_2basic_8h.html" target="_top" xlink:title="Functions and data structures for constraining secondary structure predictions and evaluation.">
<polygon fill="none" stroke="black" points="812.5,-56.5 812.5,-86.5 931.5,-86.5 931.5,-56.5 812.5,-56.5"/>
<text text-anchor="start" x="820.5" y="-74.5" font-family="Helvetica,sans-Serif" font-size="10.00">ViennaRNA/constraints</text>
<text text-anchor="middle" x="872" y="-63.5" font-family="Helvetica,sans-Serif" font-size="10.00">/basic.h</text>
</a>
</g>
</g>
<!-- Node11&#45;&gt;Node12 -->
<g id="edge19" class="edge">
<title>Node11&#45;&gt;Node12</title>
<path fill="none" stroke="midnightblue" d="M575.81,-124.8C578.92,-124.18 582,-123.58 585,-123 658.92,-108.73 743.89,-93.99 802.07,-84.14"/>
<polygon fill="midnightblue" stroke="midnightblue" points="802.98,-87.54 812.25,-82.42 801.81,-80.64 802.98,-87.54"/>
</g>
<!-- Node12&#45;&gt;Node6 -->
<g id="edge20" class="edge">
<title>Node12&#45;&gt;Node6</title>
<path fill="none" stroke="midnightblue" d="M871.7,-86.68C870.7,-103.96 866.89,-133.4 853,-154 844.01,-167.32 829.67,-177.94 816.83,-185.51"/>
<polygon fill="midnightblue" stroke="midnightblue" points="814.91,-182.57 807.85,-190.48 818.3,-188.7 814.91,-182.57"/>
</g>
<!-- Node13&#45;&gt;Node3 -->
<g id="edge22" class="edge">
<title>Node13&#45;&gt;Node3</title>
<path fill="none" stroke="midnightblue" d="M1088.19,-153.84C1077.22,-174.66 1052.16,-213.46 1034.02,-238.08"/>
<polygon fill="midnightblue" stroke="midnightblue" points="1031.16,-236.06 1027.93,-246.14 1036.75,-240.28 1031.16,-236.06"/>
</g>
<!-- Node13&#45;&gt;Node6 -->
<g id="edge23" class="edge">
<title>Node13&#45;&gt;Node6</title>
<path fill="none" stroke="midnightblue" d="M1036.14,-153.57C1035.42,-153.71 1034.71,-153.86 1034,-154 972.42,-166.44 901.6,-179.82 851.91,-188.72"/>
<polygon fill="midnightblue" stroke="midnightblue" points="851.18,-185.3 841.95,-190.5 852.4,-192.19 851.18,-185.3"/>
</g>
<!-- Node13&#45;&gt;Node12 -->
<g id="edge24" class="edge">
<title>Node13&#45;&gt;Node12</title>
<path fill="none" stroke="midnightblue" d="M1045.32,-123.48C1011.45,-113.51 965.79,-100.09 929.84,-89.51"/>
<polygon fill="midnightblue" stroke="midnightblue" points="930.56,-86.07 919.98,-86.61 928.58,-92.79 930.56,-86.07"/>
</g>
<!-- Node14&#45;&gt;Node6 -->
<g id="edge26" class="edge">
<title>Node14&#45;&gt;Node6</title>
<path fill="none" stroke="midnightblue" d="M389.74,-148.03C400.74,-150.15 412.28,-152.29 423,-154 519.79,-169.4 631.39,-182.16 705.72,-190.11"/>
<polygon fill="midnightblue" stroke="midnightblue" points="705.65,-193.62 715.96,-191.2 706.39,-186.66 705.65,-193.62"/>
</g>
<!-- Node16&#45;&gt;Node3 -->
<g id="edge29" class="edge">
<title>Node16&#45;&gt;Node3</title>
<path fill="none" stroke="midnightblue" d="M1345.62,-153.53C1280.41,-175.78 1147.99,-219.13 1071.63,-243.25"/>
<polygon fill="midnightblue" stroke="midnightblue" points="1070.18,-240.04 1061.69,-246.38 1072.28,-246.72 1070.18,-240.04"/>
</g>
<!-- Node16&#45;&gt;Node6 -->
<g id="edge30" class="edge">
<title>Node16&#45;&gt;Node6</title>
<path fill="none" stroke="midnightblue" d="M1325.01,-153.55C1324,-153.71 1323,-153.86 1322,-154 1164.14,-176.82 977.74,-189.45 872.38,-195.17"/>
<polygon fill="midnightblue" stroke="midnightblue" points="871.93,-191.69 862.13,-195.72 872.3,-198.68 871.93,-191.69"/>
</g>
<!-- Node16&#45;&gt;Node17 -->
<g id="edge31" class="edge">
<title>Node16&#45;&gt;Node17</title>
<path fill="none" stroke="midnightblue" d="M1405.7,-123.4C1422.47,-112.5 1445.57,-97.48 1462.33,-86.58"/>
<polygon fill="midnightblue" stroke="midnightblue" points="1464.44,-89.39 1470.91,-81.01 1460.62,-83.52 1464.44,-89.39"/>
</g>
<!-- Node17&#45;&gt;Node3 -->
<g id="edge33" class="edge">
<title>Node17&#45;&gt;Node3</title>
<path fill="none" stroke="midnightblue" d="M1488.73,-81.09C1491.48,-97.74 1486.47,-134.47 1465,-154 1411.16,-202.98 1205.48,-236.66 1091.33,-251.67"/>
<polygon fill="midnightblue" stroke="midnightblue" points="1090.71,-248.22 1081.25,-252.98 1091.61,-255.16 1090.71,-248.22"/>
</g>
<!-- Node18 -->
<g id="node18" class="node">
<title>Node18</title>
<g id="a_node18"><a xlink:title=" ">
<polygon fill="none" stroke="#bfbfbf" points="1461,-0.5 1461,-19.5 1507,-19.5 1507,-0.5 1461,-0.5"/>
<text text-anchor="middle" x="1484" y="-7.5" font-family="Helvetica,sans-Serif" font-size="10.00">stdio.h</text>
</a>
</g>
</g>
<!-- Node17&#45;&gt;Node18 -->
<g id="edge32" class="edge">
<title>Node17&#45;&gt;Node18</title>
<path fill="none" stroke="midnightblue" d="M1484,-61.98C1484,-53.58 1484,-40.48 1484,-29.66"/>
<polygon fill="midnightblue" stroke="midnightblue" points="1487.5,-29.51 1484,-19.51 1480.5,-29.51 1487.5,-29.51"/>
</g>
</g>
</svg>
