<?xml version="1.0" encoding="UTF-8" standalone="no"?>
<!DOCTYPE svg PUBLIC "-//W3C//DTD SVG 1.1//EN"
 "http://www.w3.org/Graphics/SVG/1.1/DTD/svg11.dtd">
<!-- Generated by graphviz version 2.47.0 (0)
 -->
<!-- Title: ViennaRNA/plotting/structures.h Pages: 1 -->
<svg width="278pt" height="95pt"
 viewBox="0.00 0.00 277.50 95.00" xmlns="http://www.w3.org/2000/svg" xmlns:xlink="http://www.w3.org/1999/xlink">
<g id="graph0" class="graph" transform="scale(1 1) rotate(0) translate(4 91)">
<title>ViennaRNA/plotting/structures.h</title>
<!-- Node1 -->
<g id="node1" class="node">
<title>Node1</title>
<g id="a_node1"><a xlink:title="Various functions for plotting RNA secondary structures.">
<polygon fill="#bfbfbf" stroke="black" points="90,-56.5 90,-86.5 193,-86.5 193,-56.5 90,-56.5"/>
<text text-anchor="start" x="98" y="-74.5" font-family="Helvetica,sans-Serif" font-size="10.00">ViennaRNA/plotting</text>
<text text-anchor="middle" x="141.5" y="-63.5" font-family="Helvetica,sans-Serif" font-size="10.00">/structures.h</text>
</a>
</g>
</g>
<!-- Node2 -->
<g id="node2" class="node">
<title>Node2</title>
<g id="a_node2"><a xlink:href="plot__structure_8h.html" target="_top" xlink:title="Use ViennaRNA/plotting/structures.h instead.">
<polygon fill="none" stroke="black" points="0,-0.5 0,-19.5 139,-19.5 139,-0.5 0,-0.5"/>
<text text-anchor="middle" x="69.5" y="-7.5" font-family="Helvetica,sans-Serif" font-size="10.00">ViennaRNA/plot_structure.h</text>
</a>
</g>
</g>
<!-- Node1&#45;&gt;Node2 -->
<g id="edge1" class="edge">
<title>Node1&#45;&gt;Node2</title>
<path fill="none" stroke="midnightblue" d="M116.56,-49.89C104.04,-39.54 89.54,-27.56 79.98,-19.66"/>
<polygon fill="midnightblue" stroke="midnightblue" points="114.5,-52.73 124.44,-56.4 118.96,-47.33 114.5,-52.73"/>
</g>
<!-- Node3 -->
<g id="node3" class="node">
<title>Node3</title>
<g id="a_node3"><a xlink:href="PS__dot_8h.html" target="_top" xlink:title="Use ViennaRNA/plotting/probabilities.h instead.">
<polygon fill="none" stroke="black" points="157.5,-0.5 157.5,-19.5 269.5,-19.5 269.5,-0.5 157.5,-0.5"/>
<text text-anchor="middle" x="213.5" y="-7.5" font-family="Helvetica,sans-Serif" font-size="10.00">ViennaRNA/PS_dot.h</text>
</a>
</g>
</g>
<!-- Node1&#45;&gt;Node3 -->
<g id="edge2" class="edge">
<title>Node1&#45;&gt;Node3</title>
<path fill="none" stroke="midnightblue" d="M166.44,-49.89C178.96,-39.54 193.46,-27.56 203.02,-19.66"/>
<polygon fill="midnightblue" stroke="midnightblue" points="164.04,-47.33 158.56,-56.4 168.5,-52.73 164.04,-47.33"/>
</g>
</g>
</svg>
