<?xml version="1.0" encoding="UTF-8" standalone="no"?>
<!DOCTYPE svg PUBLIC "-//W3C//DTD SVG 1.1//EN"
 "http://www.w3.org/Graphics/SVG/1.1/DTD/svg11.dtd">
<!-- Generated by graphviz version 2.47.0 (0)
 -->
<!-- Title: ViennaRNA/plotting/probabilities.h Pages: 1 -->
<!--zoomable 352 -->
<svg id="main" version="1.1" xmlns="http://www.w3.org/2000/svg" xmlns:xlink="http://www.w3.org/1999/xlink" xml:space="preserve" onload="init(evt)">
<style type="text/css"><![CDATA[
.edge:hover path { stroke: red; }
.edge:hover polygon { stroke: red; fill: red; }
]]></style>
<script type="text/javascript"><![CDATA[
var edges = document.getElementsByTagName('g');
if (edges && edges.length) {
  for (var i=0;i<edges.length;i++) {
    if (edges[i].id.substr(0,4)=='edge') {
      edges[i].setAttribute('class','edge');
    }
  }
}
]]></script>
        <defs>
                <circle id="rim" cx="0" cy="0" r="7"/>
                <circle id="rim2" cx="0" cy="0" r="3.5"/>
                <g id="zoomPlus">
                        <use xlink:href="#rim" fill="#404040">
                                <set attributeName="fill" to="#808080" begin="zoomplus.mouseover" end="zoomplus.mouseout"/>
                        </use>
                        <path d="M-4,0h8M0,-4v8" fill="none" stroke="white" stroke-width="1.5" pointer-events="none"/>
                </g>
                <g id="zoomMin">
                        <use xlink:href="#rim" fill="#404040">
                                <set attributeName="fill" to="#808080" begin="zoomminus.mouseover" end="zoomminus.mouseout"/>
                        </use>
                        <path d="M-4,0h8" fill="none" stroke="white" stroke-width="1.5" pointer-events="none"/>
                </g>
                <g id="dirArrow">
                        <path fill="none" stroke="white" stroke-width="1.5" d="M0,-3.0v7 M-2.5,-0.5L0,-3.0L2.5,-0.5"/>
                </g>
               <g id="resetDef">
                       <use xlink:href="#rim2" fill="#404040">
                               <set attributeName="fill" to="#808080" begin="reset.mouseover" end="reset.mouseout"/>
                       </use>
               </g>
        </defs>

<script type="text/javascript">
var viewWidth = 1514;
var viewHeight = 352;
var sectionId = 'dynsection-0';
</script>
<script xlink:href="svgpan.js"/>
<svg id="graph" class="graph">
<g id="viewport">
<title>ViennaRNA/plotting/probabilities.h</title>
<!-- Node1 -->
<g id="node1" class="node">
<title>Node1</title>
<g id="a_node1"><a xlink:title="Various functions for plotting RNA secondary structures, dot&#45;plots and other visualizations.">
<polygon fill="#bfbfbf" stroke="black" points="1242,-313.5 1242,-343.5 1345,-343.5 1345,-313.5 1242,-313.5"/>
<text text-anchor="start" x="1250" y="-331.5" font-family="Helvetica,sans-Serif" font-size="10.00">ViennaRNA/plotting</text>
<text text-anchor="middle" x="1293.5" y="-320.5" font-family="Helvetica,sans-Serif" font-size="10.00">/probabilities.h</text>
</a>
</g>
</g>
<!-- Node2 -->
<g id="node2" class="node">
<title>Node2</title>
<g id="a_node2"><a xlink:href="datastructures_2basic_8h.html" target="_top" xlink:title="Various data structures and pre&#45;processor macros.">
<polygon fill="none" stroke="black" points="1040.5,-246.5 1040.5,-276.5 1174.5,-276.5 1174.5,-246.5 1040.5,-246.5"/>
<text text-anchor="start" x="1048.5" y="-264.5" font-family="Helvetica,sans-Serif" font-size="10.00">ViennaRNA/datastructures</text>
<text text-anchor="middle" x="1107.5" y="-253.5" font-family="Helvetica,sans-Serif" font-size="10.00">/basic.h</text>
</a>
</g>
</g>
<!-- Node1&#45;&gt;Node2 -->
<g id="edge1" class="edge">
<title>Node1&#45;&gt;Node2</title>
<path fill="none" stroke="midnightblue" d="M1253.14,-313.4C1224.99,-303.56 1187.24,-290.37 1157.23,-279.88"/>
<polygon fill="midnightblue" stroke="midnightblue" points="1158.38,-276.57 1147.78,-276.58 1156.07,-283.18 1158.38,-276.57"/>
</g>
<!-- Node16 -->
<g id="node16" class="node">
<title>Node16</title>
<g id="a_node16"><a xlink:href="utils_2structures_8h.html" target="_top" xlink:title="Various utility&#45; and helper&#45;functions for secondary structure parsing, converting,...">
<polygon fill="none" stroke="black" points="1361.5,-62 1361.5,-81 1505.5,-81 1505.5,-62 1361.5,-62"/>
<text text-anchor="middle" x="1433.5" y="-69" font-family="Helvetica,sans-Serif" font-size="10.00">ViennaRNA/utils/structures.h</text>
</a>
</g>
</g>
<!-- Node1&#45;&gt;Node16 -->
<g id="edge43" class="edge">
<title>Node1&#45;&gt;Node16</title>
<path fill="none" stroke="midnightblue" d="M1308.32,-313.39C1336.26,-285.78 1396.38,-221.39 1423.5,-154 1431.63,-133.8 1433.62,-108.69 1433.9,-91.72"/>
<polygon fill="midnightblue" stroke="midnightblue" points="1437.4,-91.43 1433.88,-81.43 1430.4,-91.44 1437.4,-91.43"/>
</g>
<!-- Node3 -->
<g id="node3" class="node">
<title>Node3</title>
<g id="a_node3"><a xlink:href="constants_8h.html" target="_top" xlink:title="Energy parameter constants.">
<polygon fill="none" stroke="black" points="1182.5,-62 1182.5,-81 1340.5,-81 1340.5,-62 1182.5,-62"/>
<text text-anchor="middle" x="1261.5" y="-69" font-family="Helvetica,sans-Serif" font-size="10.00">ViennaRNA/params/constants.h</text>
</a>
</g>
</g>
<!-- Node2&#45;&gt;Node3 -->
<g id="edge2" class="edge">
<title>Node2&#45;&gt;Node3</title>
<path fill="none" stroke="midnightblue" d="M1174.72,-254.39C1237.26,-244.65 1326.75,-219.42 1367.5,-154 1374.78,-142.31 1374.85,-134.65 1367.5,-123 1355.38,-103.8 1333.75,-91.75 1313.17,-84.26"/>
<polygon fill="midnightblue" stroke="midnightblue" points="1314.11,-80.89 1303.52,-81.04 1311.89,-87.53 1314.11,-80.89"/>
</g>
<!-- Node5 -->
<g id="node5" class="node">
<title>Node5</title>
<g id="a_node5"><a xlink:href="fold__compound_8h.html" target="_top" xlink:title="The Basic Fold Compound API.">
<polygon fill="none" stroke="black" points="563.5,-190.5 563.5,-209.5 709.5,-209.5 709.5,-190.5 563.5,-190.5"/>
<text text-anchor="middle" x="636.5" y="-197.5" font-family="Helvetica,sans-Serif" font-size="10.00">ViennaRNA/fold_compound.h</text>
</a>
</g>
</g>
<!-- Node2&#45;&gt;Node5 -->
<g id="edge4" class="edge">
<title>Node2&#45;&gt;Node5</title>
<path fill="none" stroke="midnightblue" d="M1040.02,-251.98C953.72,-241.07 804.6,-222.24 713.82,-210.77"/>
<polygon fill="midnightblue" stroke="midnightblue" points="714.22,-207.29 703.86,-209.51 713.34,-214.23 714.22,-207.29"/>
</g>
<!-- Node6 -->
<g id="node6" class="node">
<title>Node6</title>
<g id="a_node6"><a xlink:href="model_8h.html" target="_top" xlink:title="The model details data structure and its corresponding modifiers.">
<polygon fill="none" stroke="black" points="1054.5,-62 1054.5,-81 1160.5,-81 1160.5,-62 1054.5,-62"/>
<text text-anchor="middle" x="1107.5" y="-69" font-family="Helvetica,sans-Serif" font-size="10.00">ViennaRNA/model.h</text>
</a>
</g>
</g>
<!-- Node2&#45;&gt;Node6 -->
<g id="edge34" class="edge">
<title>Node2&#45;&gt;Node6</title>
<path fill="none" stroke="midnightblue" d="M1122.57,-246.39C1141.53,-227.48 1173.1,-191.9 1185.5,-154 1189.78,-140.9 1192.08,-135.1 1185.5,-123 1176.16,-105.82 1158.18,-93.59 1141.83,-85.47"/>
<polygon fill="midnightblue" stroke="midnightblue" points="1143.02,-82.17 1132.47,-81.16 1140.09,-88.52 1143.02,-82.17"/>
</g>
<!-- Node7 -->
<g id="node7" class="node">
<title>Node7</title>
<g id="a_node7"><a xlink:href="params_2basic_8h.html" target="_top" xlink:title="Functions to deal with sets of energy parameters.">
<polygon fill="none" stroke="black" points="1038.5,-129 1038.5,-148 1176.5,-148 1176.5,-129 1038.5,-129"/>
<text text-anchor="middle" x="1107.5" y="-136" font-family="Helvetica,sans-Serif" font-size="10.00">ViennaRNA/params/basic.h</text>
</a>
</g>
</g>
<!-- Node2&#45;&gt;Node7 -->
<g id="edge35" class="edge">
<title>Node2&#45;&gt;Node7</title>
<path fill="none" stroke="midnightblue" d="M1102.95,-246.14C1100.19,-224.2 1100.03,-182.33 1102.47,-158.09"/>
<polygon fill="midnightblue" stroke="midnightblue" points="1105.95,-158.43 1103.82,-148.05 1099.02,-157.49 1105.95,-158.43"/>
</g>
<!-- Node9 -->
<g id="node9" class="node">
<title>Node9</title>
<g id="a_node9"><a xlink:href="dp__matrices_8h.html" target="_top" xlink:title="Functions to deal with standard dynamic programming (DP) matrices.">
<polygon fill="none" stroke="black" points="887,-129 887,-148 1020,-148 1020,-129 887,-129"/>
<text text-anchor="middle" x="953.5" y="-136" font-family="Helvetica,sans-Serif" font-size="10.00">ViennaRNA/dp_matrices.h</text>
</a>
</g>
</g>
<!-- Node2&#45;&gt;Node9 -->
<g id="edge36" class="edge">
<title>Node2&#45;&gt;Node9</title>
<path fill="none" stroke="midnightblue" d="M1085.01,-246.38C1053.03,-223.54 995.86,-178.67 968.51,-154.98"/>
<polygon fill="midnightblue" stroke="midnightblue" points="970.55,-152.11 960.75,-148.09 965.91,-157.35 970.55,-152.11"/>
</g>
<!-- Node10 -->
<g id="node10" class="node">
<title>Node10</title>
<g id="a_node10"><a xlink:href="hard_8h.html" target="_top" xlink:title="Functions and data structures for handling of secondary structure hard constraints.">
<polygon fill="none" stroke="black" points="272,-123.5 272,-153.5 391,-153.5 391,-123.5 272,-123.5"/>
<text text-anchor="start" x="280" y="-141.5" font-family="Helvetica,sans-Serif" font-size="10.00">ViennaRNA/constraints</text>
<text text-anchor="middle" x="331.5" y="-130.5" font-family="Helvetica,sans-Serif" font-size="10.00">/hard.h</text>
</a>
</g>
</g>
<!-- Node2&#45;&gt;Node10 -->
<g id="edge37" class="edge">
<title>Node2&#45;&gt;Node10</title>
<path fill="none" stroke="midnightblue" d="M1040.44,-259.02C935.72,-255.66 727.45,-244.81 554.5,-210 491.64,-197.35 421.48,-173.48 376.94,-157.05"/>
<polygon fill="midnightblue" stroke="midnightblue" points="378.16,-153.76 367.57,-153.56 375.72,-160.32 378.16,-153.76"/>
</g>
<!-- Node12 -->
<g id="node12" class="node">
<title>Node12</title>
<g id="a_node12"><a xlink:href="soft_8h.html" target="_top" xlink:title="Functions and data structures for secondary structure soft constraints.">
<polygon fill="none" stroke="black" points="0,-123.5 0,-153.5 119,-153.5 119,-123.5 0,-123.5"/>
<text text-anchor="start" x="8" y="-141.5" font-family="Helvetica,sans-Serif" font-size="10.00">ViennaRNA/constraints</text>
<text text-anchor="middle" x="59.5" y="-130.5" font-family="Helvetica,sans-Serif" font-size="10.00">/soft.h</text>
</a>
</g>
</g>
<!-- Node2&#45;&gt;Node12 -->
<g id="edge38" class="edge">
<title>Node2&#45;&gt;Node12</title>
<path fill="none" stroke="midnightblue" d="M1040.32,-259.28C910.18,-256.11 615.34,-245.27 370.5,-210 280.23,-197 177.52,-172.63 115.56,-156.23"/>
<polygon fill="midnightblue" stroke="midnightblue" points="116.17,-152.77 105.6,-153.57 114.36,-159.53 116.17,-152.77"/>
</g>
<!-- Node13 -->
<g id="node13" class="node">
<title>Node13</title>
<g id="a_node13"><a xlink:href="grammar_8h.html" target="_top" xlink:title="Implementations for the RNA folding grammar.">
<polygon fill="none" stroke="black" points="137,-129 137,-148 254,-148 254,-129 137,-129"/>
<text text-anchor="middle" x="195.5" y="-136" font-family="Helvetica,sans-Serif" font-size="10.00">ViennaRNA/grammar.h</text>
</a>
</g>
</g>
<!-- Node2&#45;&gt;Node13 -->
<g id="edge39" class="edge">
<title>Node2&#45;&gt;Node13</title>
<path fill="none" stroke="midnightblue" d="M1040.28,-258.78C924.46,-255 680.11,-243.45 476.5,-210 387.91,-195.45 286.25,-166.91 232.81,-150.97"/>
<polygon fill="midnightblue" stroke="midnightblue" points="233.68,-147.58 223.1,-148.05 231.67,-154.28 233.68,-147.58"/>
</g>
<!-- Node14 -->
<g id="node14" class="node">
<title>Node14</title>
<g id="a_node14"><a xlink:href="structured__domains_8h.html" target="_top" xlink:title="This module provides interfaces that deal with additional structured domains in the folding grammar.">
<polygon fill="none" stroke="black" points="754,-123.5 754,-153.5 869,-153.5 869,-123.5 754,-123.5"/>
<text text-anchor="start" x="762" y="-141.5" font-family="Helvetica,sans-Serif" font-size="10.00">ViennaRNA/structured</text>
<text text-anchor="middle" x="811.5" y="-130.5" font-family="Helvetica,sans-Serif" font-size="10.00">_domains.h</text>
</a>
</g>
</g>
<!-- Node2&#45;&gt;Node14 -->
<g id="edge40" class="edge">
<title>Node2&#45;&gt;Node14</title>
<path fill="none" stroke="midnightblue" d="M1072.97,-246.38C1018.94,-224.3 914.49,-181.6 855.27,-157.39"/>
<polygon fill="midnightblue" stroke="midnightblue" points="856.4,-154.07 845.81,-153.53 853.75,-160.55 856.4,-154.07"/>
</g>
<!-- Node15 -->
<g id="node15" class="node">
<title>Node15</title>
<g id="a_node15"><a xlink:href="unstructured__domains_8h.html" target="_top" xlink:title="Functions to modify unstructured domains, e.g. to incorporate ligands binding to unpaired stretches.">
<polygon fill="none" stroke="black" points="1233,-123.5 1233,-153.5 1358,-153.5 1358,-123.5 1233,-123.5"/>
<text text-anchor="start" x="1241" y="-141.5" font-family="Helvetica,sans-Serif" font-size="10.00">ViennaRNA/unstructured</text>
<text text-anchor="middle" x="1295.5" y="-130.5" font-family="Helvetica,sans-Serif" font-size="10.00">_domains.h</text>
</a>
</g>
</g>
<!-- Node2&#45;&gt;Node15 -->
<g id="edge41" class="edge">
<title>Node2&#45;&gt;Node15</title>
<path fill="none" stroke="midnightblue" d="M1138.17,-246.46C1159.14,-237.57 1186.89,-224.95 1209.5,-210 1230.94,-195.83 1252.25,-175.72 1268.53,-160.61"/>
<polygon fill="midnightblue" stroke="midnightblue" points="1271.11,-162.99 1276.09,-153.64 1266.37,-157.84 1271.11,-162.99"/>
</g>
<!-- Node2&#45;&gt;Node16 -->
<g id="edge42" class="edge">
<title>Node2&#45;&gt;Node16</title>
<path fill="none" stroke="midnightblue" d="M1174.63,-255.7C1219.85,-249.96 1279.32,-237.4 1325.5,-210 1373.23,-181.68 1404.38,-120.42 1421.07,-90.15"/>
<polygon fill="midnightblue" stroke="midnightblue" points="1424.27,-91.59 1426.17,-81.17 1418.19,-88.13 1424.27,-91.59"/>
</g>
<!-- Node4 -->
<g id="node4" class="node">
<title>Node4</title>
<g id="a_node4"><a xlink:title=" ">
<polygon fill="none" stroke="#bfbfbf" points="1237.5,-0.5 1237.5,-19.5 1285.5,-19.5 1285.5,-0.5 1237.5,-0.5"/>
<text text-anchor="middle" x="1261.5" y="-7.5" font-family="Helvetica,sans-Serif" font-size="10.00">limits.h</text>
</a>
</g>
</g>
<!-- Node3&#45;&gt;Node4 -->
<g id="edge3" class="edge">
<title>Node3&#45;&gt;Node4</title>
<path fill="none" stroke="midnightblue" d="M1261.5,-61.98C1261.5,-53.58 1261.5,-40.48 1261.5,-29.66"/>
<polygon fill="midnightblue" stroke="midnightblue" points="1265,-29.51 1261.5,-19.51 1258,-29.51 1265,-29.51"/>
</g>
<!-- Node5&#45;&gt;Node6 -->
<g id="edge5" class="edge">
<title>Node5&#45;&gt;Node6</title>
<path fill="none" stroke="midnightblue" d="M650.76,-190.49C665.13,-181.76 687.79,-167.58 706.5,-154 724.14,-141.2 724.52,-131.71 744.5,-123 797.01,-100.1 955.23,-84.43 1044.49,-77.15"/>
<polygon fill="midnightblue" stroke="midnightblue" points="1044.8,-80.64 1054.49,-76.35 1044.24,-73.66 1044.8,-80.64"/>
</g>
<!-- Node5&#45;&gt;Node7 -->
<g id="edge6" class="edge">
<title>Node5&#45;&gt;Node7</title>
<path fill="none" stroke="midnightblue" d="M709.81,-191.39C787.04,-183.48 911.94,-170.03 1019.5,-154 1027.83,-152.76 1036.62,-151.3 1045.31,-149.79"/>
<polygon fill="midnightblue" stroke="midnightblue" points="1046.2,-153.19 1055.44,-148 1044.99,-146.29 1046.2,-153.19"/>
</g>
<!-- Node8 -->
<g id="node8" class="node">
<title>Node8</title>
<g id="a_node8"><a xlink:href="sequence_8h.html" target="_top" xlink:title="Functions and data structures related to sequence representations ,.">
<polygon fill="none" stroke="black" points="575.5,-129 575.5,-148 697.5,-148 697.5,-129 575.5,-129"/>
<text text-anchor="middle" x="636.5" y="-136" font-family="Helvetica,sans-Serif" font-size="10.00">ViennaRNA/sequence.h</text>
</a>
</g>
</g>
<!-- Node5&#45;&gt;Node8 -->
<g id="edge11" class="edge">
<title>Node5&#45;&gt;Node8</title>
<path fill="none" stroke="midnightblue" d="M631.6,-190.48C629.77,-182.08 629.3,-168.98 630.19,-158.16"/>
<polygon fill="midnightblue" stroke="midnightblue" points="633.69,-158.4 631.6,-148.01 626.75,-157.43 633.69,-158.4"/>
</g>
<!-- Node5&#45;&gt;Node9 -->
<g id="edge13" class="edge">
<title>Node5&#45;&gt;Node9</title>
<path fill="none" stroke="midnightblue" d="M675.99,-190.43C722.23,-181.41 800.74,-166.79 868.5,-154 875.49,-152.68 882.83,-151.29 890.17,-149.91"/>
<polygon fill="midnightblue" stroke="midnightblue" points="890.96,-153.32 900.14,-148.04 889.67,-146.44 890.96,-153.32"/>
</g>
<!-- Node5&#45;&gt;Node10 -->
<g id="edge16" class="edge">
<title>Node5&#45;&gt;Node10</title>
<path fill="none" stroke="midnightblue" d="M585.94,-190.47C539.46,-181.86 468.68,-168.1 401,-154.88"/>
<polygon fill="midnightblue" stroke="midnightblue" points="401.52,-151.41 391.04,-152.93 400.18,-158.28 401.52,-151.41"/>
</g>
<!-- Node5&#45;&gt;Node12 -->
<g id="edge20" class="edge">
<title>Node5&#45;&gt;Node12</title>
<path fill="none" stroke="midnightblue" d="M563.17,-195.66C464.51,-190.35 283.73,-178.17 125.97,-155.09"/>
<polygon fill="midnightblue" stroke="midnightblue" points="126.02,-151.56 115.62,-153.55 125,-158.48 126.02,-151.56"/>
</g>
<!-- Node5&#45;&gt;Node13 -->
<g id="edge24" class="edge">
<title>Node5&#45;&gt;Node13</title>
<path fill="none" stroke="midnightblue" d="M563.48,-192.89C486.03,-185.57 360.56,-171.99 253.5,-154 246.95,-152.9 240.08,-151.59 233.42,-150.22"/>
<polygon fill="midnightblue" stroke="midnightblue" points="233.73,-146.7 223.22,-148.02 232.26,-153.55 233.73,-146.7"/>
</g>
<!-- Node5&#45;&gt;Node14 -->
<g id="edge26" class="edge">
<title>Node5&#45;&gt;Node14</title>
<path fill="none" stroke="midnightblue" d="M661.57,-190.48C687.27,-181.74 727.95,-167.91 760.46,-156.86"/>
<polygon fill="midnightblue" stroke="midnightblue" points="761.91,-160.06 770.26,-153.52 759.66,-153.43 761.91,-160.06"/>
</g>
<!-- Node5&#45;&gt;Node15 -->
<g id="edge27" class="edge">
<title>Node5&#45;&gt;Node15</title>
<path fill="none" stroke="midnightblue" d="M709.61,-193.74C813.53,-186.36 1009.62,-171.83 1176.5,-154 1191.43,-152.41 1207.46,-150.44 1222.79,-148.47"/>
<polygon fill="midnightblue" stroke="midnightblue" points="1223.28,-151.94 1232.75,-147.19 1222.39,-145 1223.28,-151.94"/>
</g>
<!-- Node18 -->
<g id="node18" class="node">
<title>Node18</title>
<g id="a_node18"><a xlink:href="zscore_8h_source.html" target="_top" xlink:title=" ">
<polygon fill="none" stroke="black" points="448,-129 448,-148 557,-148 557,-129 448,-129"/>
<text text-anchor="middle" x="502.5" y="-136" font-family="Helvetica,sans-Serif" font-size="10.00">ViennaRNA/zscore.h</text>
</a>
</g>
</g>
<!-- Node5&#45;&gt;Node18 -->
<g id="edge33" class="edge">
<title>Node5&#45;&gt;Node18</title>
<path fill="none" stroke="midnightblue" d="M617.3,-190.48C594.71,-180.45 557,-163.7 531,-152.15"/>
<polygon fill="midnightblue" stroke="midnightblue" points="532.22,-148.87 521.66,-148.01 529.38,-155.27 532.22,-148.87"/>
</g>
<!-- Node7&#45;&gt;Node2 -->
<g id="edge8" class="edge">
<title>Node7&#45;&gt;Node2</title>
<path fill="none" stroke="midnightblue" d="M1111.18,-148.05C1114.5,-166.08 1115.13,-208.56 1113.06,-235.84"/>
<polygon fill="midnightblue" stroke="midnightblue" points="1109.54,-235.85 1112.05,-246.14 1116.51,-236.53 1109.54,-235.85"/>
</g>
<!-- Node7&#45;&gt;Node3 -->
<g id="edge7" class="edge">
<title>Node7&#45;&gt;Node3</title>
<path fill="none" stroke="midnightblue" d="M1127.95,-128.87C1154.53,-117.65 1201.14,-97.98 1231.67,-85.09"/>
<polygon fill="midnightblue" stroke="midnightblue" points="1233.11,-88.28 1240.97,-81.17 1230.39,-81.83 1233.11,-88.28"/>
</g>
<!-- Node7&#45;&gt;Node5 -->
<g id="edge9" class="edge">
<title>Node7&#45;&gt;Node5</title>
<path fill="none" stroke="midnightblue" d="M1072.81,-148C1061.57,-150.12 1049.09,-152.27 1037.5,-154 928.34,-170.26 801.32,-183.88 719.91,-191.74"/>
<polygon fill="midnightblue" stroke="midnightblue" points="719.34,-188.28 709.72,-192.72 720.01,-195.25 719.34,-188.28"/>
</g>
<!-- Node7&#45;&gt;Node6 -->
<g id="edge10" class="edge">
<title>Node7&#45;&gt;Node6</title>
<path fill="none" stroke="midnightblue" d="M1107.5,-128.73C1107.5,-119.18 1107.5,-103.62 1107.5,-91.28"/>
<polygon fill="midnightblue" stroke="midnightblue" points="1111,-91.13 1107.5,-81.13 1104,-91.13 1111,-91.13"/>
</g>
<!-- Node8&#45;&gt;Node5 -->
<g id="edge12" class="edge">
<title>Node8&#45;&gt;Node5</title>
<path fill="none" stroke="midnightblue" d="M641.4,-148.01C643.23,-156.4 643.7,-169.5 642.82,-180.32"/>
<polygon fill="midnightblue" stroke="midnightblue" points="639.31,-180.09 641.4,-190.48 646.25,-181.05 639.31,-180.09"/>
</g>
<!-- Node9&#45;&gt;Node2 -->
<g id="edge14" class="edge">
<title>Node9&#45;&gt;Node2</title>
<path fill="none" stroke="midnightblue" d="M968.12,-148.09C995.67,-167 1054.34,-212.69 1086.2,-239.64"/>
<polygon fill="midnightblue" stroke="midnightblue" points="1084.19,-242.53 1094.06,-246.38 1088.75,-237.21 1084.19,-242.53"/>
</g>
<!-- Node9&#45;&gt;Node5 -->
<g id="edge15" class="edge">
<title>Node9&#45;&gt;Node5</title>
<path fill="none" stroke="midnightblue" d="M917.65,-148.04C907.59,-150.01 896.66,-152.08 886.5,-154 823.11,-165.97 750.31,-179.54 699.59,-188.62"/>
<polygon fill="midnightblue" stroke="midnightblue" points="698.66,-185.23 689.43,-190.43 699.89,-192.12 698.66,-185.23"/>
</g>
<!-- Node10&#45;&gt;Node5 -->
<g id="edge17" class="edge">
<title>Node10&#45;&gt;Node5</title>
<path fill="none" stroke="midnightblue" d="M391.35,-149.49C399.17,-151 407.05,-152.54 414.5,-154 474.95,-165.81 544.32,-179.32 589.29,-188.43"/>
<polygon fill="midnightblue" stroke="midnightblue" points="588.84,-191.91 599.34,-190.47 590.24,-185.05 588.84,-191.91"/>
</g>
<!-- Node11 -->
<g id="node11" class="node">
<title>Node11</title>
<g id="a_node11"><a xlink:href="constraints_2basic_8h.html" target="_top" xlink:title="Functions and data structures for constraining secondary structure predictions and evaluation.">
<polygon fill="none" stroke="black" points="272,-56.5 272,-86.5 391,-86.5 391,-56.5 272,-56.5"/>
<text text-anchor="start" x="280" y="-74.5" font-family="Helvetica,sans-Serif" font-size="10.00">ViennaRNA/constraints</text>
<text text-anchor="middle" x="331.5" y="-63.5" font-family="Helvetica,sans-Serif" font-size="10.00">/basic.h</text>
</a>
</g>
</g>
<!-- Node10&#45;&gt;Node11 -->
<g id="edge18" class="edge">
<title>Node10&#45;&gt;Node11</title>
<path fill="none" stroke="midnightblue" d="M331.5,-123.4C331.5,-115.64 331.5,-105.81 331.5,-96.86"/>
<polygon fill="midnightblue" stroke="midnightblue" points="335,-96.58 331.5,-86.58 328,-96.58 335,-96.58"/>
</g>
<!-- Node11&#45;&gt;Node5 -->
<g id="edge19" class="edge">
<title>Node11&#45;&gt;Node5</title>
<path fill="none" stroke="midnightblue" d="M350.97,-86.7C364.64,-96.73 383.29,-110.55 399.5,-123 417.06,-136.49 418.54,-144.42 438.5,-154 474.38,-171.22 517.11,-182 553.68,-188.68"/>
<polygon fill="midnightblue" stroke="midnightblue" points="553.37,-192.18 563.82,-190.46 554.58,-185.28 553.37,-192.18"/>
</g>
<!-- Node12&#45;&gt;Node2 -->
<g id="edge21" class="edge">
<title>Node12&#45;&gt;Node2</title>
<path fill="none" stroke="midnightblue" d="M118.4,-153.57C184.04,-169.88 293.2,-196.27 388.5,-210 620.86,-243.47 898.26,-254.94 1030.34,-258.73"/>
<polygon fill="midnightblue" stroke="midnightblue" points="1030.27,-262.23 1040.37,-259.01 1030.47,-255.23 1030.27,-262.23"/>
</g>
<!-- Node12&#45;&gt;Node5 -->
<g id="edge22" class="edge">
<title>Node12&#45;&gt;Node5</title>
<path fill="none" stroke="midnightblue" d="M119.19,-151.03C125.05,-152.13 130.89,-153.16 136.5,-154 282.59,-175.95 454.01,-188.39 553.5,-194.4"/>
<polygon fill="midnightblue" stroke="midnightblue" points="553.3,-197.89 563.49,-194.99 553.72,-190.9 553.3,-197.89"/>
</g>
<!-- Node12&#45;&gt;Node11 -->
<g id="edge23" class="edge">
<title>Node12&#45;&gt;Node11</title>
<path fill="none" stroke="midnightblue" d="M118.19,-123.48C160.58,-113.34 217.99,-99.63 262.57,-88.97"/>
<polygon fill="midnightblue" stroke="midnightblue" points="263.54,-92.34 272.45,-86.61 261.91,-85.53 263.54,-92.34"/>
</g>
<!-- Node13&#45;&gt;Node5 -->
<g id="edge25" class="edge">
<title>Node13&#45;&gt;Node5</title>
<path fill="none" stroke="midnightblue" d="M240.56,-148.02C250.79,-150.16 261.52,-152.32 271.5,-154 367.75,-170.17 478.87,-182.78 553.04,-190.48"/>
<polygon fill="midnightblue" stroke="midnightblue" points="552.95,-193.99 563.26,-191.54 553.67,-187.03 552.95,-193.99"/>
</g>
<!-- Node15&#45;&gt;Node2 -->
<g id="edge28" class="edge">
<title>Node15&#45;&gt;Node2</title>
<path fill="none" stroke="midnightblue" d="M1289.28,-153.64C1277.22,-168.99 1252.45,-193.51 1227.5,-210 1207.9,-222.96 1184.42,-234.18 1163.39,-242.72"/>
<polygon fill="midnightblue" stroke="midnightblue" points="1161.94,-239.53 1153.92,-246.46 1164.51,-246.04 1161.94,-239.53"/>
</g>
<!-- Node15&#45;&gt;Node5 -->
<g id="edge29" class="edge">
<title>Node15&#45;&gt;Node5</title>
<path fill="none" stroke="midnightblue" d="M1232.82,-149.45C1220.17,-151.08 1206.95,-152.67 1194.5,-154 1026.61,-171.93 829.17,-186.54 719.84,-193.87"/>
<polygon fill="midnightblue" stroke="midnightblue" points="719.29,-190.4 709.54,-194.56 719.75,-197.38 719.29,-190.4"/>
</g>
<!-- Node15&#45;&gt;Node16 -->
<g id="edge30" class="edge">
<title>Node15&#45;&gt;Node16</title>
<path fill="none" stroke="midnightblue" d="M1325.44,-123.4C1349.44,-112.09 1382.84,-96.36 1406.13,-85.39"/>
<polygon fill="midnightblue" stroke="midnightblue" points="1407.88,-88.43 1415.44,-81.01 1404.9,-82.1 1407.88,-88.43"/>
</g>
<!-- Node16&#45;&gt;Node2 -->
<g id="edge32" class="edge">
<title>Node16&#45;&gt;Node2</title>
<path fill="none" stroke="midnightblue" d="M1434.24,-81.17C1429.21,-106.15 1396.63,-178.48 1343.5,-210 1295.6,-238.41 1233.42,-250.87 1184.84,-256.31"/>
<polygon fill="midnightblue" stroke="midnightblue" points="1184.27,-252.85 1174.69,-257.37 1185,-259.82 1184.27,-252.85"/>
</g>
<!-- Node17 -->
<g id="node17" class="node">
<title>Node17</title>
<g id="a_node17"><a xlink:title=" ">
<polygon fill="none" stroke="#bfbfbf" points="1410.5,-0.5 1410.5,-19.5 1456.5,-19.5 1456.5,-0.5 1410.5,-0.5"/>
<text text-anchor="middle" x="1433.5" y="-7.5" font-family="Helvetica,sans-Serif" font-size="10.00">stdio.h</text>
</a>
</g>
</g>
<!-- Node16&#45;&gt;Node17 -->
<g id="edge31" class="edge">
<title>Node16&#45;&gt;Node17</title>
<path fill="none" stroke="midnightblue" d="M1433.5,-61.98C1433.5,-53.58 1433.5,-40.48 1433.5,-29.66"/>
<polygon fill="midnightblue" stroke="midnightblue" points="1437,-29.51 1433.5,-19.51 1430,-29.51 1437,-29.51"/>
</g>
</g>
</svg>
        <g id="navigator" transform="translate(0 0)" fill="#404254">
                <rect fill="#f2f5e9" fill-opacity="0.5" stroke="#606060" stroke-width=".5" x="0" y="0" width="60" height="60"/>
                <use id="zoomplus" xlink:href="#zoomPlus" x="17" y="9" onmousedown="handleZoom(evt,'in')"/>
                <use id="zoomminus" xlink:href="#zoomMin" x="42" y="9" onmousedown="handleZoom(evt,'out')"/>
                <use id="reset" xlink:href="#resetDef" x="30" y="36" onmousedown="handleReset()"/>
                <g id="arrowUp" xlink:href="#dirArrow" transform="translate(30 24)" onmousedown="handlePan(0,-1)">
                  <use xlink:href="#rim" fill="#404040">
                        <set attributeName="fill" to="#808080" begin="arrowUp.mouseover" end="arrowUp.mouseout"/>
                  </use>
                  <path fill="none" stroke="white" stroke-width="1.5" d="M0,-3.0v7 M-2.5,-0.5L0,-3.0L2.5,-0.5"/>
                </g>
                <g id="arrowRight" xlink:href="#dirArrow" transform="rotate(90) translate(36 -43)" onmousedown="handlePan(1,0)">
                  <use xlink:href="#rim" fill="#404040">
                        <set attributeName="fill" to="#808080" begin="arrowRight.mouseover" end="arrowRight.mouseout"/>
                  </use>
                  <path fill="none" stroke="white" stroke-width="1.5" d="M0,-3.0v7 M-2.5,-0.5L0,-3.0L2.5,-0.5"/>
                </g>
                <g id="arrowDown" xlink:href="#dirArrow" transform="rotate(180) translate(-30 -48)" onmousedown="handlePan(0,1)">
                  <use xlink:href="#rim" fill="#404040">
                        <set attributeName="fill" to="#808080" begin="arrowDown.mouseover" end="arrowDown.mouseout"/>
                  </use>
                  <path fill="none" stroke="white" stroke-width="1.5" d="M0,-3.0v7 M-2.5,-0.5L0,-3.0L2.5,-0.5"/>
                </g>
                <g id="arrowLeft" xlink:href="#dirArrow" transform="rotate(270) translate(-36 17)" onmousedown="handlePan(-1,0)">
                  <use xlink:href="#rim" fill="#404040">
                        <set attributeName="fill" to="#808080" begin="arrowLeft.mouseover" end="arrowLeft.mouseout"/>
                  </use>
                  <path fill="none" stroke="white" stroke-width="1.5" d="M0,-3.0v7 M-2.5,-0.5L0,-3.0L2.5,-0.5"/>
                </g>
        </g>
        <svg viewBox="0 0 15 15" width="100%" height="30px" preserveAspectRatio="xMaxYMin meet">
         <g id="arrow_out" transform="scale(0.3 0.3)">
          <a xlink:href="probabilities_8h__incl_org.svg" target="_base">
           <rect id="button" ry="5" rx="5" y="6" x="6" height="38" width="38"
                fill="#f2f5e9" fill-opacity="0.5" stroke="#606060" stroke-width="1.0"/>
           <path id="arrow"
             d="M 11.500037,31.436501 C 11.940474,20.09759 22.043105,11.32322 32.158766,21.979434 L 37.068811,17.246167 C 37.068811,17.246167 37.088388,32 37.088388,32 L 22.160133,31.978069 C 22.160133,31.978069 26.997745,27.140456 26.997745,27.140456 C 18.528582,18.264221 13.291696,25.230495 11.500037,31.436501 z"
             style="fill:#404040;"/>
          </a>
         </g>
        </svg>
</svg>
