<?xml version="1.0" encoding="UTF-8" standalone="no"?>
<!DOCTYPE svg PUBLIC "-//W3C//DTD SVG 1.1//EN"
 "http://www.w3.org/Graphics/SVG/1.1/DTD/svg11.dtd">
<!-- Generated by graphviz version 2.47.0 (0)
 -->
<!-- Title: ViennaRNA/PS_dot.h Pages: 1 -->
<!--zoomable 475 -->
<svg id="main" version="1.1" xmlns="http://www.w3.org/2000/svg" xmlns:xlink="http://www.w3.org/1999/xlink" xml:space="preserve" onload="init(evt)">
<style type="text/css"><![CDATA[
.edge:hover path { stroke: red; }
.edge:hover polygon { stroke: red; fill: red; }
]]></style>
<script type="text/javascript"><![CDATA[
var edges = document.getElementsByTagName('g');
if (edges && edges.length) {
  for (var i=0;i<edges.length;i++) {
    if (edges[i].id.substr(0,4)=='edge') {
      edges[i].setAttribute('class','edge');
    }
  }
}
]]></script>
        <defs>
                <circle id="rim" cx="0" cy="0" r="7"/>
                <circle id="rim2" cx="0" cy="0" r="3.5"/>
                <g id="zoomPlus">
                        <use xlink:href="#rim" fill="#404040">
                                <set attributeName="fill" to="#808080" begin="zoomplus.mouseover" end="zoomplus.mouseout"/>
                        </use>
                        <path d="M-4,0h8M0,-4v8" fill="none" stroke="white" stroke-width="1.5" pointer-events="none"/>
                </g>
                <g id="zoomMin">
                        <use xlink:href="#rim" fill="#404040">
                                <set attributeName="fill" to="#808080" begin="zoomminus.mouseover" end="zoomminus.mouseout"/>
                        </use>
                        <path d="M-4,0h8" fill="none" stroke="white" stroke-width="1.5" pointer-events="none"/>
                </g>
                <g id="dirArrow">
                        <path fill="none" stroke="white" stroke-width="1.5" d="M0,-3.0v7 M-2.5,-0.5L0,-3.0L2.5,-0.5"/>
                </g>
               <g id="resetDef">
                       <use xlink:href="#rim2" fill="#404040">
                               <set attributeName="fill" to="#808080" begin="reset.mouseover" end="reset.mouseout"/>
                       </use>
               </g>
        </defs>

<script type="text/javascript">
var viewWidth = 1598;
var viewHeight = 475;
var sectionId = 'dynsection-0';
</script>
<script xlink:href="svgpan.js"/>
<svg id="graph" class="graph">
<g id="viewport">
<title>ViennaRNA/PS_dot.h</title>
<!-- Node1 -->
<g id="node1" class="node">
<title>Node1</title>
<g id="a_node1"><a xlink:title="Use ViennaRNA/plotting/probabilities.h instead.">
<polygon fill="#bfbfbf" stroke="black" points="746,-447.5 746,-466.5 858,-466.5 858,-447.5 746,-447.5"/>
<text text-anchor="middle" x="802" y="-454.5" font-family="Helvetica,sans-Serif" font-size="10.00">ViennaRNA/PS_dot.h</text>
</a>
</g>
</g>
<!-- Node2 -->
<g id="node2" class="node">
<title>Node2</title>
<g id="a_node2"><a xlink:href="probabilities_8h.html" target="_top" xlink:title="Various functions for plotting RNA secondary structures, dot&#45;plots and other visualizations.">
<polygon fill="none" stroke="black" points="479.5,-313.5 479.5,-343.5 582.5,-343.5 582.5,-313.5 479.5,-313.5"/>
<text text-anchor="start" x="487.5" y="-331.5" font-family="Helvetica,sans-Serif" font-size="10.00">ViennaRNA/plotting</text>
<text text-anchor="middle" x="531" y="-320.5" font-family="Helvetica,sans-Serif" font-size="10.00">/probabilities.h</text>
</a>
</g>
</g>
<!-- Node1&#45;&gt;Node2 -->
<g id="edge1" class="edge">
<title>Node1&#45;&gt;Node2</title>
<path fill="none" stroke="midnightblue" d="M783.37,-447.31C739.67,-426.91 629.78,-375.61 570.45,-347.92"/>
<polygon fill="midnightblue" stroke="midnightblue" points="571.92,-344.74 561.38,-343.68 568.96,-351.08 571.92,-344.74"/>
</g>
<!-- Node20 -->
<g id="node20" class="node">
<title>Node20</title>
<g id="a_node20"><a xlink:href="layouts_8h.html" target="_top" xlink:title="Secondary structure plot layout algorithms.">
<polygon fill="none" stroke="black" points="750.5,-313.5 750.5,-343.5 853.5,-343.5 853.5,-313.5 750.5,-313.5"/>
<text text-anchor="start" x="758.5" y="-331.5" font-family="Helvetica,sans-Serif" font-size="10.00">ViennaRNA/plotting</text>
<text text-anchor="middle" x="802" y="-320.5" font-family="Helvetica,sans-Serif" font-size="10.00">/layouts.h</text>
</a>
</g>
</g>
<!-- Node1&#45;&gt;Node20 -->
<g id="edge45" class="edge">
<title>Node1&#45;&gt;Node20</title>
<path fill="none" stroke="midnightblue" d="M802,-447.31C802,-428.3 802,-382.47 802,-353.9"/>
<polygon fill="midnightblue" stroke="midnightblue" points="805.5,-353.89 802,-343.89 798.5,-353.89 805.5,-353.89"/>
</g>
<!-- Node24 -->
<g id="node24" class="node">
<title>Node24</title>
<g id="a_node24"><a xlink:href="plotting_2structures_8h.html" target="_top" xlink:title="Various functions for plotting RNA secondary structures.">
<polygon fill="none" stroke="black" points="865.5,-380.5 865.5,-410.5 968.5,-410.5 968.5,-380.5 865.5,-380.5"/>
<text text-anchor="start" x="873.5" y="-398.5" font-family="Helvetica,sans-Serif" font-size="10.00">ViennaRNA/plotting</text>
<text text-anchor="middle" x="917" y="-387.5" font-family="Helvetica,sans-Serif" font-size="10.00">/structures.h</text>
</a>
</g>
</g>
<!-- Node1&#45;&gt;Node24 -->
<g id="edge50" class="edge">
<title>Node1&#45;&gt;Node24</title>
<path fill="none" stroke="midnightblue" d="M818.48,-447.48C834.71,-439.08 860.04,-425.97 880.95,-415.15"/>
<polygon fill="midnightblue" stroke="midnightblue" points="882.62,-418.23 889.9,-410.52 879.41,-412.01 882.62,-418.23"/>
</g>
<!-- Node3 -->
<g id="node3" class="node">
<title>Node3</title>
<g id="a_node3"><a xlink:href="datastructures_2basic_8h.html" target="_top" xlink:title="Various data structures and pre&#45;processor macros.">
<polygon fill="none" stroke="black" points="464,-246.5 464,-276.5 598,-276.5 598,-246.5 464,-246.5"/>
<text text-anchor="start" x="472" y="-264.5" font-family="Helvetica,sans-Serif" font-size="10.00">ViennaRNA/datastructures</text>
<text text-anchor="middle" x="531" y="-253.5" font-family="Helvetica,sans-Serif" font-size="10.00">/basic.h</text>
</a>
</g>
</g>
<!-- Node2&#45;&gt;Node3 -->
<g id="edge2" class="edge">
<title>Node2&#45;&gt;Node3</title>
<path fill="none" stroke="midnightblue" d="M531,-313.4C531,-305.64 531,-295.81 531,-286.86"/>
<polygon fill="midnightblue" stroke="midnightblue" points="534.5,-286.58 531,-276.58 527.5,-286.58 534.5,-286.58"/>
</g>
<!-- Node17 -->
<g id="node17" class="node">
<title>Node17</title>
<g id="a_node17"><a xlink:href="utils_2structures_8h.html" target="_top" xlink:title="Various utility&#45; and helper&#45;functions for secondary structure parsing, converting,...">
<polygon fill="none" stroke="black" points="0,-62 0,-81 144,-81 144,-62 0,-62"/>
<text text-anchor="middle" x="72" y="-69" font-family="Helvetica,sans-Serif" font-size="10.00">ViennaRNA/utils/structures.h</text>
</a>
</g>
</g>
<!-- Node2&#45;&gt;Node17 -->
<g id="edge44" class="edge">
<title>Node2&#45;&gt;Node17</title>
<path fill="none" stroke="midnightblue" d="M479.22,-314.78C407.65,-296.28 275.29,-258.79 169,-210 125.5,-190.03 101.72,-194.99 77,-154 65.53,-134.98 66.23,-108.71 68.49,-91.19"/>
<polygon fill="midnightblue" stroke="midnightblue" points="71.98,-91.54 70.1,-81.11 65.07,-90.44 71.98,-91.54"/>
</g>
<!-- Node4 -->
<g id="node4" class="node">
<title>Node4</title>
<g id="a_node4"><a xlink:href="constants_8h.html" target="_top" xlink:title="Energy parameter constants.">
<polygon fill="none" stroke="black" points="1432,-62 1432,-81 1590,-81 1590,-62 1432,-62"/>
<text text-anchor="middle" x="1511" y="-69" font-family="Helvetica,sans-Serif" font-size="10.00">ViennaRNA/params/constants.h</text>
</a>
</g>
</g>
<!-- Node3&#45;&gt;Node4 -->
<g id="edge3" class="edge">
<title>Node3&#45;&gt;Node4</title>
<path fill="none" stroke="midnightblue" d="M598.06,-247.18C601.07,-246.75 604.07,-246.35 607,-246 936.62,-206.8 1030.52,-288.67 1353,-210 1410.96,-195.86 1433.12,-196.49 1475,-154 1492.27,-136.48 1501.97,-109.29 1506.85,-91.19"/>
<polygon fill="midnightblue" stroke="midnightblue" points="1510.3,-91.81 1509.28,-81.27 1503.5,-90.15 1510.3,-91.81"/>
</g>
<!-- Node6 -->
<g id="node6" class="node">
<title>Node6</title>
<g id="a_node6"><a xlink:href="fold__compound_8h.html" target="_top" xlink:title="The Basic Fold Compound API.">
<polygon fill="none" stroke="black" points="659,-190.5 659,-209.5 805,-209.5 805,-190.5 659,-190.5"/>
<text text-anchor="middle" x="732" y="-197.5" font-family="Helvetica,sans-Serif" font-size="10.00">ViennaRNA/fold_compound.h</text>
</a>
</g>
</g>
<!-- Node3&#45;&gt;Node6 -->
<g id="edge5" class="edge">
<title>Node3&#45;&gt;Node6</title>
<path fill="none" stroke="midnightblue" d="M578.38,-246.47C613.51,-236.08 660.79,-222.08 693.58,-212.37"/>
<polygon fill="midnightblue" stroke="midnightblue" points="694.67,-215.7 703.26,-209.51 692.68,-208.99 694.67,-215.7"/>
</g>
<!-- Node7 -->
<g id="node7" class="node">
<title>Node7</title>
<g id="a_node7"><a xlink:href="model_8h.html" target="_top" xlink:title="The model details data structure and its corresponding modifiers.">
<polygon fill="none" stroke="black" points="1267,-62 1267,-81 1373,-81 1373,-62 1267,-62"/>
<text text-anchor="middle" x="1320" y="-69" font-family="Helvetica,sans-Serif" font-size="10.00">ViennaRNA/model.h</text>
</a>
</g>
</g>
<!-- Node3&#45;&gt;Node7 -->
<g id="edge35" class="edge">
<title>Node3&#45;&gt;Node7</title>
<path fill="none" stroke="midnightblue" d="M598.09,-247.4C601.1,-246.91 604.08,-246.44 607,-246 756.49,-223.57 1159.97,-244.57 1281,-154 1301.47,-138.68 1311.68,-109.83 1316.4,-90.88"/>
<polygon fill="midnightblue" stroke="midnightblue" points="1319.84,-91.58 1318.58,-81.06 1313,-90.06 1319.84,-91.58"/>
</g>
<!-- Node8 -->
<g id="node8" class="node">
<title>Node8</title>
<g id="a_node8"><a xlink:href="params_2basic_8h.html" target="_top" xlink:title="Functions to deal with sets of energy parameters.">
<polygon fill="none" stroke="black" points="1328,-129 1328,-148 1466,-148 1466,-129 1328,-129"/>
<text text-anchor="middle" x="1397" y="-136" font-family="Helvetica,sans-Serif" font-size="10.00">ViennaRNA/params/basic.h</text>
</a>
</g>
</g>
<!-- Node3&#45;&gt;Node8 -->
<g id="edge36" class="edge">
<title>Node3&#45;&gt;Node8</title>
<path fill="none" stroke="midnightblue" d="M594.37,-246.46C595.59,-246.3 596.8,-246.14 598,-246 754.19,-227.21 1158.76,-267.99 1305,-210 1334.26,-198.4 1360.57,-172.06 1377.87,-155.07"/>
<polygon fill="midnightblue" stroke="midnightblue" points="1380.41,-157.48 1385.16,-148.01 1375.54,-152.45 1380.41,-157.48"/>
</g>
<!-- Node10 -->
<g id="node10" class="node">
<title>Node10</title>
<g id="a_node10"><a xlink:href="dp__matrices_8h.html" target="_top" xlink:title="Functions to deal with standard dynamic programming (DP) matrices.">
<polygon fill="none" stroke="black" points="252.5,-129 252.5,-148 385.5,-148 385.5,-129 252.5,-129"/>
<text text-anchor="middle" x="319" y="-136" font-family="Helvetica,sans-Serif" font-size="10.00">ViennaRNA/dp_matrices.h</text>
</a>
</g>
</g>
<!-- Node3&#45;&gt;Node10 -->
<g id="edge37" class="edge">
<title>Node3&#45;&gt;Node10</title>
<path fill="none" stroke="midnightblue" d="M501.74,-246.38C457.89,-223.05 376.71,-176.71 338.98,-153.47"/>
<polygon fill="midnightblue" stroke="midnightblue" points="340.71,-150.43 330.37,-148.09 336.99,-156.36 340.71,-150.43"/>
</g>
<!-- Node11 -->
<g id="node11" class="node">
<title>Node11</title>
<g id="a_node11"><a xlink:href="hard_8h.html" target="_top" xlink:title="Functions and data structures for handling of secondary structure hard constraints.">
<polygon fill="none" stroke="black" points="540.5,-123.5 540.5,-153.5 659.5,-153.5 659.5,-123.5 540.5,-123.5"/>
<text text-anchor="start" x="548.5" y="-141.5" font-family="Helvetica,sans-Serif" font-size="10.00">ViennaRNA/constraints</text>
<text text-anchor="middle" x="600" y="-130.5" font-family="Helvetica,sans-Serif" font-size="10.00">/hard.h</text>
</a>
</g>
</g>
<!-- Node3&#45;&gt;Node11 -->
<g id="edge38" class="edge">
<title>Node3&#45;&gt;Node11</title>
<path fill="none" stroke="midnightblue" d="M539.19,-246.14C550.96,-225.5 572.81,-187.19 586.86,-162.55"/>
<polygon fill="midnightblue" stroke="midnightblue" points="589.91,-164.26 591.82,-153.84 583.83,-160.79 589.91,-164.26"/>
</g>
<!-- Node13 -->
<g id="node13" class="node">
<title>Node13</title>
<g id="a_node13"><a xlink:href="soft_8h.html" target="_top" xlink:title="Functions and data structures for secondary structure soft constraints.">
<polygon fill="none" stroke="black" points="403.5,-123.5 403.5,-153.5 522.5,-153.5 522.5,-123.5 403.5,-123.5"/>
<text text-anchor="start" x="411.5" y="-141.5" font-family="Helvetica,sans-Serif" font-size="10.00">ViennaRNA/constraints</text>
<text text-anchor="middle" x="463" y="-130.5" font-family="Helvetica,sans-Serif" font-size="10.00">/soft.h</text>
</a>
</g>
</g>
<!-- Node3&#45;&gt;Node13 -->
<g id="edge39" class="edge">
<title>Node3&#45;&gt;Node13</title>
<path fill="none" stroke="midnightblue" d="M518.38,-246.14C504.3,-225.68 482.74,-187.86 470.83,-163.2"/>
<polygon fill="midnightblue" stroke="midnightblue" points="473.88,-161.45 466.5,-153.84 467.52,-164.38 473.88,-161.45"/>
</g>
<!-- Node14 -->
<g id="node14" class="node">
<title>Node14</title>
<g id="a_node14"><a xlink:href="grammar_8h.html" target="_top" xlink:title="Implementations for the RNA folding grammar.">
<polygon fill="none" stroke="black" points="1021.5,-129 1021.5,-148 1138.5,-148 1138.5,-129 1021.5,-129"/>
<text text-anchor="middle" x="1080" y="-136" font-family="Helvetica,sans-Serif" font-size="10.00">ViennaRNA/grammar.h</text>
</a>
</g>
</g>
<!-- Node3&#45;&gt;Node14 -->
<g id="edge40" class="edge">
<title>Node3&#45;&gt;Node14</title>
<path fill="none" stroke="midnightblue" d="M598.13,-247.63C601.12,-247.08 604.09,-246.53 607,-246 698.87,-229.25 722.78,-229.98 814,-210 895.6,-192.13 989.82,-165.78 1041.35,-150.87"/>
<polygon fill="midnightblue" stroke="midnightblue" points="1042.45,-154.2 1051.07,-148.05 1040.49,-147.48 1042.45,-154.2"/>
</g>
<!-- Node15 -->
<g id="node15" class="node">
<title>Node15</title>
<g id="a_node15"><a xlink:href="structured__domains_8h.html" target="_top" xlink:title="This module provides interfaces that deal with additional structured domains in the folding grammar.">
<polygon fill="none" stroke="black" points="1156.5,-123.5 1156.5,-153.5 1271.5,-153.5 1271.5,-123.5 1156.5,-123.5"/>
<text text-anchor="start" x="1164.5" y="-141.5" font-family="Helvetica,sans-Serif" font-size="10.00">ViennaRNA/structured</text>
<text text-anchor="middle" x="1214" y="-130.5" font-family="Helvetica,sans-Serif" font-size="10.00">_domains.h</text>
</a>
</g>
</g>
<!-- Node3&#45;&gt;Node15 -->
<g id="edge41" class="edge">
<title>Node3&#45;&gt;Node15</title>
<path fill="none" stroke="midnightblue" d="M598.1,-247.5C601.11,-246.98 604.08,-246.48 607,-246 722.55,-227.02 752.54,-229.49 868,-210 989.96,-189.41 1022.18,-180.52 1146.51,-154.3"/>
<polygon fill="midnightblue" stroke="midnightblue" points="1147.36,-157.7 1156.42,-152.22 1145.91,-150.85 1147.36,-157.7"/>
</g>
<!-- Node16 -->
<g id="node16" class="node">
<title>Node16</title>
<g id="a_node16"><a xlink:href="unstructured__domains_8h.html" target="_top" xlink:title="Functions to modify unstructured domains, e.g. to incorporate ligands binding to unpaired stretches.">
<polygon fill="none" stroke="black" points="109.5,-123.5 109.5,-153.5 234.5,-153.5 234.5,-123.5 109.5,-123.5"/>
<text text-anchor="start" x="117.5" y="-141.5" font-family="Helvetica,sans-Serif" font-size="10.00">ViennaRNA/unstructured</text>
<text text-anchor="middle" x="172" y="-130.5" font-family="Helvetica,sans-Serif" font-size="10.00">_domains.h</text>
</a>
</g>
</g>
<!-- Node3&#45;&gt;Node16 -->
<g id="edge42" class="edge">
<title>Node3&#45;&gt;Node16</title>
<path fill="none" stroke="midnightblue" d="M484.59,-246.38C415.83,-224.16 287.86,-181.07 218.84,-156.94"/>
<polygon fill="midnightblue" stroke="midnightblue" points="219.7,-153.54 209.1,-153.53 217.38,-160.14 219.7,-153.54"/>
</g>
<!-- Node3&#45;&gt;Node17 -->
<g id="edge43" class="edge">
<title>Node3&#45;&gt;Node17</title>
<path fill="none" stroke="midnightblue" d="M463.98,-252.6C354.6,-237.88 144.81,-203.24 91,-154 73.27,-137.77 66.76,-109.82 66.6,-91.24"/>
<polygon fill="midnightblue" stroke="midnightblue" points="70.11,-91.29 67.28,-81.08 63.12,-90.82 70.11,-91.29"/>
</g>
<!-- Node5 -->
<g id="node5" class="node">
<title>Node5</title>
<g id="a_node5"><a xlink:title=" ">
<polygon fill="none" stroke="#bfbfbf" points="1487,-0.5 1487,-19.5 1535,-19.5 1535,-0.5 1487,-0.5"/>
<text text-anchor="middle" x="1511" y="-7.5" font-family="Helvetica,sans-Serif" font-size="10.00">limits.h</text>
</a>
</g>
</g>
<!-- Node4&#45;&gt;Node5 -->
<g id="edge4" class="edge">
<title>Node4&#45;&gt;Node5</title>
<path fill="none" stroke="midnightblue" d="M1511,-61.98C1511,-53.58 1511,-40.48 1511,-29.66"/>
<polygon fill="midnightblue" stroke="midnightblue" points="1514.5,-29.51 1511,-19.51 1507.5,-29.51 1514.5,-29.51"/>
</g>
<!-- Node6&#45;&gt;Node7 -->
<g id="edge6" class="edge">
<title>Node6&#45;&gt;Node7</title>
<path fill="none" stroke="midnightblue" d="M799.39,-190.43C844.11,-183.51 903.61,-171.93 954,-154 981.91,-144.07 984.91,-132.41 1013,-123 1094.62,-95.64 1193.61,-82.77 1256.7,-76.96"/>
<polygon fill="midnightblue" stroke="midnightblue" points="1257.24,-80.42 1266.89,-76.05 1256.62,-73.45 1257.24,-80.42"/>
</g>
<!-- Node6&#45;&gt;Node8 -->
<g id="edge7" class="edge">
<title>Node6&#45;&gt;Node8</title>
<path fill="none" stroke="midnightblue" d="M805.09,-193.57C908.99,-186.01 1105.06,-171.27 1272,-154 1286.82,-152.47 1302.68,-150.62 1317.98,-148.77"/>
<polygon fill="midnightblue" stroke="midnightblue" points="1318.43,-152.24 1327.93,-147.55 1317.58,-145.29 1318.43,-152.24"/>
</g>
<!-- Node9 -->
<g id="node9" class="node">
<title>Node9</title>
<g id="a_node9"><a xlink:href="sequence_8h.html" target="_top" xlink:title="Functions and data structures related to sequence representations ,.">
<polygon fill="none" stroke="black" points="805,-129 805,-148 927,-148 927,-129 805,-129"/>
<text text-anchor="middle" x="866" y="-136" font-family="Helvetica,sans-Serif" font-size="10.00">ViennaRNA/sequence.h</text>
</a>
</g>
</g>
<!-- Node6&#45;&gt;Node9 -->
<g id="edge12" class="edge">
<title>Node6&#45;&gt;Node9</title>
<path fill="none" stroke="midnightblue" d="M746.3,-190.48C766.88,-180.36 804.83,-163.4 832.59,-151.85"/>
<polygon fill="midnightblue" stroke="midnightblue" points="834.02,-155.05 841.94,-148.01 831.36,-148.57 834.02,-155.05"/>
</g>
<!-- Node6&#45;&gt;Node10 -->
<g id="edge14" class="edge">
<title>Node6&#45;&gt;Node10</title>
<path fill="none" stroke="midnightblue" d="M658.68,-191.31C588.16,-183.14 478.92,-169.32 385,-154 377.62,-152.8 369.85,-151.42 362.33,-150"/>
<polygon fill="midnightblue" stroke="midnightblue" points="362.75,-146.52 352.27,-148.06 361.42,-153.39 362.75,-146.52"/>
</g>
<!-- Node6&#45;&gt;Node11 -->
<g id="edge17" class="edge">
<title>Node6&#45;&gt;Node11</title>
<path fill="none" stroke="midnightblue" d="M708.19,-190.48C687.54,-182 657.65,-168.74 634.45,-157.86"/>
<polygon fill="midnightblue" stroke="midnightblue" points="635.82,-154.64 625.28,-153.52 632.82,-160.97 635.82,-154.64"/>
</g>
<!-- Node6&#45;&gt;Node13 -->
<g id="edge21" class="edge">
<title>Node6&#45;&gt;Node13</title>
<path fill="none" stroke="midnightblue" d="M688.56,-190.48C645.82,-181.46 580.1,-167.01 530.56,-155.79"/>
<polygon fill="midnightblue" stroke="midnightblue" points="531.09,-152.32 520.57,-153.52 529.54,-159.15 531.09,-152.32"/>
</g>
<!-- Node6&#45;&gt;Node14 -->
<g id="edge25" class="edge">
<title>Node6&#45;&gt;Node14</title>
<path fill="none" stroke="midnightblue" d="M780.58,-190.5C834.01,-181.83 922.07,-167.75 998,-154 1004.99,-152.73 1012.35,-151.34 1019.68,-149.94"/>
<polygon fill="midnightblue" stroke="midnightblue" points="1020.47,-153.35 1029.63,-148.03 1019.15,-146.48 1020.47,-153.35"/>
</g>
<!-- Node6&#45;&gt;Node15 -->
<g id="edge27" class="edge">
<title>Node6&#45;&gt;Node15</title>
<path fill="none" stroke="midnightblue" d="M805.22,-193.5C886.37,-186.86 1021.29,-174.2 1146.34,-154.17"/>
<polygon fill="midnightblue" stroke="midnightblue" points="1147.17,-157.58 1156.48,-152.52 1146.05,-150.67 1147.17,-157.58"/>
</g>
<!-- Node6&#45;&gt;Node16 -->
<g id="edge28" class="edge">
<title>Node6&#45;&gt;Node16</title>
<path fill="none" stroke="midnightblue" d="M658.9,-195.16C563.58,-189.36 391.85,-176.72 241.33,-155.05"/>
<polygon fill="midnightblue" stroke="midnightblue" points="241.39,-151.52 230.99,-153.54 240.38,-158.45 241.39,-151.52"/>
</g>
<!-- Node19 -->
<g id="node19" class="node">
<title>Node19</title>
<g id="a_node19"><a xlink:href="zscore_8h_source.html" target="_top" xlink:title=" ">
<polygon fill="none" stroke="black" points="677.5,-129 677.5,-148 786.5,-148 786.5,-129 677.5,-129"/>
<text text-anchor="middle" x="732" y="-136" font-family="Helvetica,sans-Serif" font-size="10.00">ViennaRNA/zscore.h</text>
</a>
</g>
</g>
<!-- Node6&#45;&gt;Node19 -->
<g id="edge34" class="edge">
<title>Node6&#45;&gt;Node19</title>
<path fill="none" stroke="midnightblue" d="M732,-190.48C732,-182.08 732,-168.98 732,-158.16"/>
<polygon fill="midnightblue" stroke="midnightblue" points="735.5,-158.01 732,-148.01 728.5,-158.01 735.5,-158.01"/>
</g>
<!-- Node8&#45;&gt;Node3 -->
<g id="edge9" class="edge">
<title>Node8&#45;&gt;Node3</title>
<path fill="none" stroke="midnightblue" d="M1395.56,-148.01C1386.56,-163.65 1356.74,-196.62 1323,-210 1176.76,-267.99 772.19,-227.21 616,-246 613.49,-246.3 610.94,-246.64 608.36,-247"/>
<polygon fill="midnightblue" stroke="midnightblue" points="607.7,-243.56 598.34,-248.52 608.75,-250.48 607.7,-243.56"/>
</g>
<!-- Node8&#45;&gt;Node4 -->
<g id="edge8" class="edge">
<title>Node8&#45;&gt;Node4</title>
<path fill="none" stroke="midnightblue" d="M1412.37,-128.73C1431.52,-117.82 1464.44,-99.05 1486.94,-86.22"/>
<polygon fill="midnightblue" stroke="midnightblue" points="1488.92,-89.12 1495.87,-81.13 1485.45,-83.04 1488.92,-89.12"/>
</g>
<!-- Node8&#45;&gt;Node6 -->
<g id="edge10" class="edge">
<title>Node8&#45;&gt;Node6</title>
<path fill="none" stroke="midnightblue" d="M1341.62,-148C1325.06,-150.11 1306.86,-152.26 1290,-154 1122.05,-171.37 924.63,-186.19 815.33,-193.71"/>
<polygon fill="midnightblue" stroke="midnightblue" points="814.76,-190.24 805.03,-194.41 815.24,-197.22 814.76,-190.24"/>
</g>
<!-- Node8&#45;&gt;Node7 -->
<g id="edge11" class="edge">
<title>Node8&#45;&gt;Node7</title>
<path fill="none" stroke="midnightblue" d="M1386.62,-128.73C1374.15,-118.21 1353.03,-100.38 1337.91,-87.62"/>
<polygon fill="midnightblue" stroke="midnightblue" points="1340.12,-84.9 1330.22,-81.13 1335.6,-90.25 1340.12,-84.9"/>
</g>
<!-- Node9&#45;&gt;Node6 -->
<g id="edge13" class="edge">
<title>Node9&#45;&gt;Node6</title>
<path fill="none" stroke="midnightblue" d="M851.73,-148.01C831.17,-158.12 793.23,-175.07 765.45,-186.63"/>
<polygon fill="midnightblue" stroke="midnightblue" points="764.02,-183.44 756.1,-190.48 766.68,-189.91 764.02,-183.44"/>
</g>
<!-- Node10&#45;&gt;Node3 -->
<g id="edge15" class="edge">
<title>Node10&#45;&gt;Node3</title>
<path fill="none" stroke="midnightblue" d="M337.74,-148.09C375.05,-167.37 458.02,-214.45 502.23,-241.17"/>
<polygon fill="midnightblue" stroke="midnightblue" points="500.43,-244.17 510.79,-246.38 504.07,-238.19 500.43,-244.17"/>
</g>
<!-- Node10&#45;&gt;Node6 -->
<g id="edge16" class="edge">
<title>Node10&#45;&gt;Node6</title>
<path fill="none" stroke="midnightblue" d="M369.67,-148.06C380.71,-150.13 392.27,-152.25 403,-154 489.42,-168.09 588.8,-180.92 655.59,-189.24"/>
<polygon fill="midnightblue" stroke="midnightblue" points="655.26,-192.73 665.61,-190.49 656.12,-185.78 655.26,-192.73"/>
</g>
<!-- Node11&#45;&gt;Node6 -->
<g id="edge18" class="edge">
<title>Node11&#45;&gt;Node6</title>
<path fill="none" stroke="midnightblue" d="M636.94,-153.52C660.08,-163.38 689.06,-176.47 709,-186.07"/>
<polygon fill="midnightblue" stroke="midnightblue" points="707.47,-189.22 717.99,-190.48 710.55,-182.93 707.47,-189.22"/>
</g>
<!-- Node12 -->
<g id="node12" class="node">
<title>Node12</title>
<g id="a_node12"><a xlink:href="constraints_2basic_8h.html" target="_top" xlink:title="Functions and data structures for constraining secondary structure predictions and evaluation.">
<polygon fill="none" stroke="black" points="540.5,-56.5 540.5,-86.5 659.5,-86.5 659.5,-56.5 540.5,-56.5"/>
<text text-anchor="start" x="548.5" y="-74.5" font-family="Helvetica,sans-Serif" font-size="10.00">ViennaRNA/constraints</text>
<text text-anchor="middle" x="600" y="-63.5" font-family="Helvetica,sans-Serif" font-size="10.00">/basic.h</text>
</a>
</g>
</g>
<!-- Node11&#45;&gt;Node12 -->
<g id="edge19" class="edge">
<title>Node11&#45;&gt;Node12</title>
<path fill="none" stroke="midnightblue" d="M600,-123.4C600,-115.64 600,-105.81 600,-96.86"/>
<polygon fill="midnightblue" stroke="midnightblue" points="603.5,-96.58 600,-86.58 596.5,-96.58 603.5,-96.58"/>
</g>
<!-- Node12&#45;&gt;Node6 -->
<g id="edge20" class="edge">
<title>Node12&#45;&gt;Node6</title>
<path fill="none" stroke="midnightblue" d="M659.57,-72.53C746.35,-73.98 901.03,-82.38 936,-123 975.1,-168.41 887.52,-186.72 815.18,-194.09"/>
<polygon fill="midnightblue" stroke="midnightblue" points="814.71,-190.62 805.09,-195.05 815.38,-197.58 814.71,-190.62"/>
</g>
<!-- Node13&#45;&gt;Node3 -->
<g id="edge22" class="edge">
<title>Node13&#45;&gt;Node3</title>
<path fill="none" stroke="midnightblue" d="M475.61,-153.84C489.68,-174.29 511.24,-212.11 523.16,-236.78"/>
<polygon fill="midnightblue" stroke="midnightblue" points="520.11,-238.54 527.49,-246.14 526.47,-235.6 520.11,-238.54"/>
</g>
<!-- Node13&#45;&gt;Node6 -->
<g id="edge23" class="edge">
<title>Node13&#45;&gt;Node6</title>
<path fill="none" stroke="midnightblue" d="M522.58,-151.45C572.85,-162.2 643.52,-177.85 688.59,-188.22"/>
<polygon fill="midnightblue" stroke="midnightblue" points="687.83,-191.63 698.36,-190.48 689.4,-184.81 687.83,-191.63"/>
</g>
<!-- Node13&#45;&gt;Node12 -->
<g id="edge24" class="edge">
<title>Node13&#45;&gt;Node12</title>
<path fill="none" stroke="midnightblue" d="M492.73,-123.4C512.74,-113.9 539.35,-101.28 561.05,-90.98"/>
<polygon fill="midnightblue" stroke="midnightblue" points="562.8,-94.03 570.33,-86.58 559.8,-87.7 562.8,-94.03"/>
</g>
<!-- Node14&#45;&gt;Node6 -->
<g id="edge26" class="edge">
<title>Node14&#45;&gt;Node6</title>
<path fill="none" stroke="midnightblue" d="M1047.08,-148.03C1037.11,-150.05 1026.17,-152.16 1016,-154 944.37,-166.97 861.94,-180.24 804.33,-188.98"/>
<polygon fill="midnightblue" stroke="midnightblue" points="803.59,-185.55 794.22,-190.5 804.63,-192.47 803.59,-185.55"/>
</g>
<!-- Node16&#45;&gt;Node3 -->
<g id="edge29" class="edge">
<title>Node16&#45;&gt;Node3</title>
<path fill="none" stroke="midnightblue" d="M218.13,-153.53C286.74,-175.69 414.7,-218.78 483.88,-242.96"/>
<polygon fill="midnightblue" stroke="midnightblue" points="483.05,-246.38 493.64,-246.38 485.36,-239.77 483.05,-246.38"/>
</g>
<!-- Node16&#45;&gt;Node6 -->
<g id="edge30" class="edge">
<title>Node16&#45;&gt;Node6</title>
<path fill="none" stroke="midnightblue" d="M234.73,-151.13C240.57,-152.19 246.4,-153.17 252,-154 390.54,-174.46 552.62,-187.19 648.62,-193.69"/>
<polygon fill="midnightblue" stroke="midnightblue" points="648.63,-197.2 658.84,-194.37 649.1,-190.21 648.63,-197.2"/>
</g>
<!-- Node16&#45;&gt;Node17 -->
<g id="edge31" class="edge">
<title>Node16&#45;&gt;Node17</title>
<path fill="none" stroke="midnightblue" d="M150.3,-123.4C133.53,-112.5 110.43,-97.48 93.67,-86.58"/>
<polygon fill="midnightblue" stroke="midnightblue" points="95.38,-83.52 85.09,-81.01 91.56,-89.39 95.38,-83.52"/>
</g>
<!-- Node17&#45;&gt;Node3 -->
<g id="edge33" class="edge">
<title>Node17&#45;&gt;Node3</title>
<path fill="none" stroke="midnightblue" d="M77.45,-81.08C82.55,-97.71 87.59,-134.41 109,-154 159.34,-200.06 346.18,-233.35 453.67,-249.5"/>
<polygon fill="midnightblue" stroke="midnightblue" points="453.41,-253 463.82,-251.01 454.44,-246.08 453.41,-253"/>
</g>
<!-- Node18 -->
<g id="node18" class="node">
<title>Node18</title>
<g id="a_node18"><a xlink:title=" ">
<polygon fill="none" stroke="#bfbfbf" points="49,-0.5 49,-19.5 95,-19.5 95,-0.5 49,-0.5"/>
<text text-anchor="middle" x="72" y="-7.5" font-family="Helvetica,sans-Serif" font-size="10.00">stdio.h</text>
</a>
</g>
</g>
<!-- Node17&#45;&gt;Node18 -->
<g id="edge32" class="edge">
<title>Node17&#45;&gt;Node18</title>
<path fill="none" stroke="midnightblue" d="M72,-61.98C72,-53.58 72,-40.48 72,-29.66"/>
<polygon fill="midnightblue" stroke="midnightblue" points="75.5,-29.51 72,-19.51 68.5,-29.51 75.5,-29.51"/>
</g>
<!-- Node20&#45;&gt;Node3 -->
<g id="edge46" class="edge">
<title>Node20&#45;&gt;Node3</title>
<path fill="none" stroke="midnightblue" d="M750.39,-315.12C707.52,-304.84 646.18,-290.13 599.26,-278.87"/>
<polygon fill="midnightblue" stroke="midnightblue" points="600.02,-275.45 589.48,-276.53 598.38,-282.26 600.02,-275.45"/>
</g>
<!-- Node21 -->
<g id="node21" class="node">
<title>Node21</title>
<g id="a_node21"><a xlink:href="plotting_2naview_8h.html" target="_top" xlink:title="Implementation of the Naview RNA secondary structure layout algorithm .">
<polygon fill="none" stroke="black" points="616.5,-246.5 616.5,-276.5 719.5,-276.5 719.5,-246.5 616.5,-246.5"/>
<text text-anchor="start" x="624.5" y="-264.5" font-family="Helvetica,sans-Serif" font-size="10.00">ViennaRNA/plotting</text>
<text text-anchor="middle" x="668" y="-253.5" font-family="Helvetica,sans-Serif" font-size="10.00">/naview.h</text>
</a>
</g>
</g>
<!-- Node20&#45;&gt;Node21 -->
<g id="edge47" class="edge">
<title>Node20&#45;&gt;Node21</title>
<path fill="none" stroke="midnightblue" d="M772.92,-313.4C753.35,-303.9 727.32,-291.28 706.09,-280.98"/>
<polygon fill="midnightblue" stroke="midnightblue" points="707.54,-277.79 697.02,-276.58 704.49,-284.09 707.54,-277.79"/>
</g>
<!-- Node22 -->
<g id="node22" class="node">
<title>Node22</title>
<g id="a_node22"><a xlink:href="RNAturtle_8h.html" target="_top" xlink:title="Implementation of the RNAturtle RNA secondary structure layout algorithm .">
<polygon fill="none" stroke="black" points="738,-246.5 738,-276.5 866,-276.5 866,-246.5 738,-246.5"/>
<text text-anchor="start" x="746" y="-264.5" font-family="Helvetica,sans-Serif" font-size="10.00">ViennaRNA/plotting</text>
<text text-anchor="middle" x="802" y="-253.5" font-family="Helvetica,sans-Serif" font-size="10.00">/RNApuzzler/RNAturtle.h</text>
</a>
</g>
</g>
<!-- Node20&#45;&gt;Node22 -->
<g id="edge48" class="edge">
<title>Node20&#45;&gt;Node22</title>
<path fill="none" stroke="midnightblue" d="M802,-313.4C802,-305.64 802,-295.81 802,-286.86"/>
<polygon fill="midnightblue" stroke="midnightblue" points="805.5,-286.58 802,-276.58 798.5,-286.58 805.5,-286.58"/>
</g>
<!-- Node23 -->
<g id="node23" class="node">
<title>Node23</title>
<g id="a_node23"><a xlink:href="RNApuzzler_8h.html" target="_top" xlink:title="Implementation of the RNApuzzler RNA secondary structure layout algorithm .">
<polygon fill="none" stroke="black" points="884.5,-246.5 884.5,-276.5 1021.5,-276.5 1021.5,-246.5 884.5,-246.5"/>
<text text-anchor="start" x="892.5" y="-264.5" font-family="Helvetica,sans-Serif" font-size="10.00">ViennaRNA/plotting</text>
<text text-anchor="middle" x="953" y="-253.5" font-family="Helvetica,sans-Serif" font-size="10.00">/RNApuzzler/RNApuzzler.h</text>
</a>
</g>
</g>
<!-- Node20&#45;&gt;Node23 -->
<g id="edge49" class="edge">
<title>Node20&#45;&gt;Node23</title>
<path fill="none" stroke="midnightblue" d="M834.76,-313.4C857.12,-303.77 886.94,-290.94 911.04,-280.56"/>
<polygon fill="midnightblue" stroke="midnightblue" points="912.5,-283.75 920.3,-276.58 909.73,-277.32 912.5,-283.75"/>
</g>
<!-- Node24&#45;&gt;Node7 -->
<g id="edge51" class="edge">
<title>Node24&#45;&gt;Node7</title>
<path fill="none" stroke="midnightblue" d="M968.71,-393.63C1110.34,-389.86 1494,-369.76 1494,-262.5 1494,-262.5 1494,-262.5 1494,-199 1494,-164.18 1498.74,-148.47 1475,-123 1451.4,-97.69 1414.99,-85.04 1383.38,-78.72"/>
<polygon fill="midnightblue" stroke="midnightblue" points="1383.78,-75.24 1373.31,-76.89 1382.52,-82.13 1383.78,-75.24"/>
</g>
<!-- Node24&#45;&gt;Node20 -->
<g id="edge52" class="edge">
<title>Node24&#45;&gt;Node20</title>
<path fill="none" stroke="midnightblue" d="M892.05,-380.4C875.62,-371.11 853.91,-358.84 835.92,-348.67"/>
<polygon fill="midnightblue" stroke="midnightblue" points="837.33,-345.45 826.9,-343.58 833.89,-351.54 837.33,-345.45"/>
</g>
<!-- Node24&#45;&gt;Node23 -->
<g id="edge53" class="edge">
<title>Node24&#45;&gt;Node23</title>
<path fill="none" stroke="midnightblue" d="M920.85,-380.37C926.97,-357.94 938.98,-313.92 946.46,-286.49"/>
<polygon fill="midnightblue" stroke="midnightblue" points="949.92,-287.09 949.18,-276.52 943.17,-285.25 949.92,-287.09"/>
</g>
</g>
</svg>
        <g id="navigator" transform="translate(0 0)" fill="#404254">
                <rect fill="#f2f5e9" fill-opacity="0.5" stroke="#606060" stroke-width=".5" x="0" y="0" width="60" height="60"/>
                <use id="zoomplus" xlink:href="#zoomPlus" x="17" y="9" onmousedown="handleZoom(evt,'in')"/>
                <use id="zoomminus" xlink:href="#zoomMin" x="42" y="9" onmousedown="handleZoom(evt,'out')"/>
                <use id="reset" xlink:href="#resetDef" x="30" y="36" onmousedown="handleReset()"/>
                <g id="arrowUp" xlink:href="#dirArrow" transform="translate(30 24)" onmousedown="handlePan(0,-1)">
                  <use xlink:href="#rim" fill="#404040">
                        <set attributeName="fill" to="#808080" begin="arrowUp.mouseover" end="arrowUp.mouseout"/>
                  </use>
                  <path fill="none" stroke="white" stroke-width="1.5" d="M0,-3.0v7 M-2.5,-0.5L0,-3.0L2.5,-0.5"/>
                </g>
                <g id="arrowRight" xlink:href="#dirArrow" transform="rotate(90) translate(36 -43)" onmousedown="handlePan(1,0)">
                  <use xlink:href="#rim" fill="#404040">
                        <set attributeName="fill" to="#808080" begin="arrowRight.mouseover" end="arrowRight.mouseout"/>
                  </use>
                  <path fill="none" stroke="white" stroke-width="1.5" d="M0,-3.0v7 M-2.5,-0.5L0,-3.0L2.5,-0.5"/>
                </g>
                <g id="arrowDown" xlink:href="#dirArrow" transform="rotate(180) translate(-30 -48)" onmousedown="handlePan(0,1)">
                  <use xlink:href="#rim" fill="#404040">
                        <set attributeName="fill" to="#808080" begin="arrowDown.mouseover" end="arrowDown.mouseout"/>
                  </use>
                  <path fill="none" stroke="white" stroke-width="1.5" d="M0,-3.0v7 M-2.5,-0.5L0,-3.0L2.5,-0.5"/>
                </g>
                <g id="arrowLeft" xlink:href="#dirArrow" transform="rotate(270) translate(-36 17)" onmousedown="handlePan(-1,0)">
                  <use xlink:href="#rim" fill="#404040">
                        <set attributeName="fill" to="#808080" begin="arrowLeft.mouseover" end="arrowLeft.mouseout"/>
                  </use>
                  <path fill="none" stroke="white" stroke-width="1.5" d="M0,-3.0v7 M-2.5,-0.5L0,-3.0L2.5,-0.5"/>
                </g>
        </g>
        <svg viewBox="0 0 15 15" width="100%" height="30px" preserveAspectRatio="xMaxYMin meet">
         <g id="arrow_out" transform="scale(0.3 0.3)">
          <a xlink:href="PS__dot_8h__incl_org.svg" target="_base">
           <rect id="button" ry="5" rx="5" y="6" x="6" height="38" width="38"
                fill="#f2f5e9" fill-opacity="0.5" stroke="#606060" stroke-width="1.0"/>
           <path id="arrow"
             d="M 11.500037,31.436501 C 11.940474,20.09759 22.043105,11.32322 32.158766,21.979434 L 37.068811,17.246167 C 37.068811,17.246167 37.088388,32 37.088388,32 L 22.160133,31.978069 C 22.160133,31.978069 26.997745,27.140456 26.997745,27.140456 C 18.528582,18.264221 13.291696,25.230495 11.500037,31.436501 z"
             style="fill:#404040;"/>
          </a>
         </g>
        </svg>
</svg>
