<?xml version="1.0" encoding="UTF-8" standalone="no"?>
<!DOCTYPE svg PUBLIC "-//W3C//DTD SVG 1.1//EN"
 "http://www.w3.org/Graphics/SVG/1.1/DTD/svg11.dtd">
<!-- Generated by graphviz version 2.47.0 (0)
 -->
<!-- Title: ViennaRNA/sequence.h Pages: 1 -->
<!--zoomable 397 -->
<svg id="main" version="1.1" xmlns="http://www.w3.org/2000/svg" xmlns:xlink="http://www.w3.org/1999/xlink" xml:space="preserve" onload="init(evt)">
<style type="text/css"><![CDATA[
.edge:hover path { stroke: red; }
.edge:hover polygon { stroke: red; fill: red; }
]]></style>
<script type="text/javascript"><![CDATA[
var edges = document.getElementsByTagName('g');
if (edges && edges.length) {
  for (var i=0;i<edges.length;i++) {
    if (edges[i].id.substr(0,4)=='edge') {
      edges[i].setAttribute('class','edge');
    }
  }
}
]]></script>
        <defs>
                <circle id="rim" cx="0" cy="0" r="7"/>
                <circle id="rim2" cx="0" cy="0" r="3.5"/>
                <g id="zoomPlus">
                        <use xlink:href="#rim" fill="#404040">
                                <set attributeName="fill" to="#808080" begin="zoomplus.mouseover" end="zoomplus.mouseout"/>
                        </use>
                        <path d="M-4,0h8M0,-4v8" fill="none" stroke="white" stroke-width="1.5" pointer-events="none"/>
                </g>
                <g id="zoomMin">
                        <use xlink:href="#rim" fill="#404040">
                                <set attributeName="fill" to="#808080" begin="zoomminus.mouseover" end="zoomminus.mouseout"/>
                        </use>
                        <path d="M-4,0h8" fill="none" stroke="white" stroke-width="1.5" pointer-events="none"/>
                </g>
                <g id="dirArrow">
                        <path fill="none" stroke="white" stroke-width="1.5" d="M0,-3.0v7 M-2.5,-0.5L0,-3.0L2.5,-0.5"/>
                </g>
               <g id="resetDef">
                       <use xlink:href="#rim2" fill="#404040">
                               <set attributeName="fill" to="#808080" begin="reset.mouseover" end="reset.mouseout"/>
                       </use>
               </g>
        </defs>

<script type="text/javascript">
var viewWidth = 1269;
var viewHeight = 397;
var sectionId = 'dynsection-0';
</script>
<script xlink:href="svgpan.js"/>
<svg id="graph" class="graph">
<g id="viewport">
<title>ViennaRNA/sequence.h</title>
<!-- Node1 -->
<g id="node1" class="node">
<title>Node1</title>
<g id="a_node1"><a xlink:title="Functions and data structures related to sequence representations ,.">
<polygon fill="#bfbfbf" stroke="black" points="650,-369.5 650,-388.5 772,-388.5 772,-369.5 650,-369.5"/>
<text text-anchor="middle" x="711" y="-376.5" font-family="Helvetica,sans-Serif" font-size="10.00">ViennaRNA/sequence.h</text>
</a>
</g>
</g>
<!-- Node2 -->
<g id="node2" class="node">
<title>Node2</title>
<g id="a_node2"><a xlink:href="fold__compound_8h.html" target="_top" xlink:title="The Basic Fold Compound API.">
<polygon fill="none" stroke="black" points="638,-313.5 638,-332.5 784,-332.5 784,-313.5 638,-313.5"/>
<text text-anchor="middle" x="711" y="-320.5" font-family="Helvetica,sans-Serif" font-size="10.00">ViennaRNA/fold_compound.h</text>
</a>
</g>
</g>
<!-- Node1&#45;&gt;Node2 -->
<g id="edge1" class="edge">
<title>Node1&#45;&gt;Node2</title>
<path fill="none" stroke="midnightblue" d="M705.83,-369.08C704.32,-361.93 703.89,-351.64 704.54,-342.69"/>
<polygon fill="midnightblue" stroke="midnightblue" points="708.02,-343.13 705.87,-332.75 701.08,-342.2 708.02,-343.13"/>
</g>
<!-- Node2&#45;&gt;Node1 -->
<g id="edge34" class="edge">
<title>Node2&#45;&gt;Node1</title>
<path fill="none" stroke="midnightblue" d="M716.13,-332.75C717.66,-339.86 718.1,-350.14 717.47,-359.1"/>
<polygon fill="midnightblue" stroke="midnightblue" points="713.99,-358.71 716.17,-369.08 720.93,-359.62 713.99,-358.71"/>
</g>
<!-- Node3 -->
<g id="node3" class="node">
<title>Node3</title>
<g id="a_node3"><a xlink:href="model_8h.html" target="_top" xlink:title="The model details data structure and its corresponding modifiers.">
<polygon fill="none" stroke="black" points="0,-129 0,-148 106,-148 106,-129 0,-129"/>
<text text-anchor="middle" x="53" y="-136" font-family="Helvetica,sans-Serif" font-size="10.00">ViennaRNA/model.h</text>
</a>
</g>
</g>
<!-- Node2&#45;&gt;Node3 -->
<g id="edge2" class="edge">
<title>Node2&#45;&gt;Node3</title>
<path fill="none" stroke="midnightblue" d="M637.84,-317.33C570.86,-311.79 469.44,-300.21 384,-277 265.32,-244.76 132.61,-180.35 78.26,-152.66"/>
<polygon fill="midnightblue" stroke="midnightblue" points="79.84,-149.53 69.34,-148.08 76.64,-155.76 79.84,-149.53"/>
</g>
<!-- Node4 -->
<g id="node4" class="node">
<title>Node4</title>
<g id="a_node4"><a xlink:href="params_2basic_8h.html" target="_top" xlink:title="Functions to deal with sets of energy parameters.">
<polygon fill="none" stroke="black" points="442,-257.5 442,-276.5 580,-276.5 580,-257.5 442,-257.5"/>
<text text-anchor="middle" x="511" y="-264.5" font-family="Helvetica,sans-Serif" font-size="10.00">ViennaRNA/params/basic.h</text>
</a>
</g>
</g>
<!-- Node2&#45;&gt;Node4 -->
<g id="edge3" class="edge">
<title>Node2&#45;&gt;Node4</title>
<path fill="none" stroke="midnightblue" d="M674.22,-313.44C637.96,-304.2 583.1,-289.44 547.09,-279.26"/>
<polygon fill="midnightblue" stroke="midnightblue" points="548.04,-275.89 537.46,-276.52 546.12,-282.62 548.04,-275.89"/>
</g>
<!-- Node8 -->
<g id="node8" class="node">
<title>Node8</title>
<g id="a_node8"><a xlink:href="dp__matrices_8h.html" target="_top" xlink:title="Functions to deal with standard dynamic programming (DP) matrices.">
<polygon fill="none" stroke="black" points="124.5,-129 124.5,-148 257.5,-148 257.5,-129 124.5,-129"/>
<text text-anchor="middle" x="191" y="-136" font-family="Helvetica,sans-Serif" font-size="10.00">ViennaRNA/dp_matrices.h</text>
</a>
</g>
</g>
<!-- Node2&#45;&gt;Node8 -->
<g id="edge35" class="edge">
<title>Node2&#45;&gt;Node8</title>
<path fill="none" stroke="midnightblue" d="M637.93,-317.95C578.68,-312.88 493.98,-301.64 424,-277 336.18,-246.08 243.47,-183.81 206.82,-154.9"/>
<polygon fill="midnightblue" stroke="midnightblue" points="208.7,-151.92 198.74,-148.31 204.27,-157.35 208.7,-151.92"/>
</g>
<!-- Node9 -->
<g id="node9" class="node">
<title>Node9</title>
<g id="a_node9"><a xlink:href="hard_8h.html" target="_top" xlink:title="Functions and data structures for handling of secondary structure hard constraints.">
<polygon fill="none" stroke="black" points="1095.5,-123.5 1095.5,-153.5 1214.5,-153.5 1214.5,-123.5 1095.5,-123.5"/>
<text text-anchor="start" x="1103.5" y="-141.5" font-family="Helvetica,sans-Serif" font-size="10.00">ViennaRNA/constraints</text>
<text text-anchor="middle" x="1155" y="-130.5" font-family="Helvetica,sans-Serif" font-size="10.00">/hard.h</text>
</a>
</g>
</g>
<!-- Node2&#45;&gt;Node9 -->
<g id="edge36" class="edge">
<title>Node2&#45;&gt;Node9</title>
<path fill="none" stroke="midnightblue" d="M784.05,-320.75C875.69,-317.85 1026.17,-308.29 1072,-277 1111.42,-250.08 1131.63,-195.14 1143.32,-163.46"/>
<polygon fill="midnightblue" stroke="midnightblue" points="1146.76,-164.27 1146.98,-153.68 1140.2,-161.82 1146.76,-164.27"/>
</g>
<!-- Node11 -->
<g id="node11" class="node">
<title>Node11</title>
<g id="a_node11"><a xlink:href="soft_8h.html" target="_top" xlink:title="Functions and data structures for secondary structure soft constraints.">
<polygon fill="none" stroke="black" points="651.5,-123.5 651.5,-153.5 770.5,-153.5 770.5,-123.5 651.5,-123.5"/>
<text text-anchor="start" x="659.5" y="-141.5" font-family="Helvetica,sans-Serif" font-size="10.00">ViennaRNA/constraints</text>
<text text-anchor="middle" x="711" y="-130.5" font-family="Helvetica,sans-Serif" font-size="10.00">/soft.h</text>
</a>
</g>
</g>
<!-- Node2&#45;&gt;Node11 -->
<g id="edge37" class="edge">
<title>Node2&#45;&gt;Node11</title>
<path fill="none" stroke="midnightblue" d="M707.89,-313.2C703.67,-286.33 703.12,-204.74 706.25,-163.67"/>
<polygon fill="midnightblue" stroke="midnightblue" points="709.73,-163.98 707.17,-153.69 702.76,-163.33 709.73,-163.98"/>
</g>
<!-- Node12 -->
<g id="node12" class="node">
<title>Node12</title>
<g id="a_node12"><a xlink:href="grammar_8h.html" target="_top" xlink:title="Implementations for the RNA folding grammar.">
<polygon fill="none" stroke="black" points="788.5,-129 788.5,-148 905.5,-148 905.5,-129 788.5,-129"/>
<text text-anchor="middle" x="847" y="-136" font-family="Helvetica,sans-Serif" font-size="10.00">ViennaRNA/grammar.h</text>
</a>
</g>
</g>
<!-- Node2&#45;&gt;Node12 -->
<g id="edge38" class="edge">
<title>Node2&#45;&gt;Node12</title>
<path fill="none" stroke="midnightblue" d="M714.45,-313.2C731.27,-284.59 798.51,-193.91 830.45,-156.2"/>
<polygon fill="midnightblue" stroke="midnightblue" points="833.48,-158.05 837.41,-148.21 828.2,-153.46 833.48,-158.05"/>
</g>
<!-- Node13 -->
<g id="node13" class="node">
<title>Node13</title>
<g id="a_node13"><a xlink:href="structured__domains_8h.html" target="_top" xlink:title="This module provides interfaces that deal with additional structured domains in the folding grammar.">
<polygon fill="none" stroke="black" points="923.5,-123.5 923.5,-153.5 1038.5,-153.5 1038.5,-123.5 923.5,-123.5"/>
<text text-anchor="start" x="931.5" y="-141.5" font-family="Helvetica,sans-Serif" font-size="10.00">ViennaRNA/structured</text>
<text text-anchor="middle" x="981" y="-130.5" font-family="Helvetica,sans-Serif" font-size="10.00">_domains.h</text>
</a>
</g>
</g>
<!-- Node2&#45;&gt;Node13 -->
<g id="edge39" class="edge">
<title>Node2&#45;&gt;Node13</title>
<path fill="none" stroke="midnightblue" d="M723.66,-313.44C764.42,-285.89 892.96,-199.01 951.47,-159.46"/>
<polygon fill="midnightblue" stroke="midnightblue" points="953.59,-162.25 959.91,-153.75 949.67,-156.45 953.59,-162.25"/>
</g>
<!-- Node14 -->
<g id="node14" class="node">
<title>Node14</title>
<g id="a_node14"><a xlink:href="unstructured__domains_8h.html" target="_top" xlink:title="Functions to modify unstructured domains, e.g. to incorporate ligands binding to unpaired stretches.">
<polygon fill="none" stroke="black" points="508.5,-123.5 508.5,-153.5 633.5,-153.5 633.5,-123.5 508.5,-123.5"/>
<text text-anchor="start" x="516.5" y="-141.5" font-family="Helvetica,sans-Serif" font-size="10.00">ViennaRNA/unstructured</text>
<text text-anchor="middle" x="571" y="-130.5" font-family="Helvetica,sans-Serif" font-size="10.00">_domains.h</text>
</a>
</g>
</g>
<!-- Node2&#45;&gt;Node14 -->
<g id="edge40" class="edge">
<title>Node2&#45;&gt;Node14</title>
<path fill="none" stroke="midnightblue" d="M701.14,-313.2C675.99,-285.99 611.55,-202.65 583.71,-162.11"/>
<polygon fill="midnightblue" stroke="midnightblue" points="586.54,-160.05 578.06,-153.69 580.73,-163.95 586.54,-160.05"/>
</g>
<!-- Node17 -->
<g id="node17" class="node">
<title>Node17</title>
<g id="a_node17"><a xlink:href="zscore_8h_source.html" target="_top" xlink:title=" ">
<polygon fill="none" stroke="black" points="1151.5,-257.5 1151.5,-276.5 1260.5,-276.5 1260.5,-257.5 1151.5,-257.5"/>
<text text-anchor="middle" x="1206" y="-264.5" font-family="Helvetica,sans-Serif" font-size="10.00">ViennaRNA/zscore.h</text>
</a>
</g>
</g>
<!-- Node2&#45;&gt;Node17 -->
<g id="edge41" class="edge">
<title>Node2&#45;&gt;Node17</title>
<path fill="none" stroke="midnightblue" d="M784.18,-314.82C869.09,-306.36 1013.29,-291.6 1137,-277 1138.46,-276.83 1139.94,-276.65 1141.43,-276.47"/>
<polygon fill="midnightblue" stroke="midnightblue" points="1141.9,-279.94 1151.4,-275.25 1141.05,-272.99 1141.9,-279.94"/>
</g>
<!-- Node4&#45;&gt;Node2 -->
<g id="edge32" class="edge">
<title>Node4&#45;&gt;Node2</title>
<path fill="none" stroke="midnightblue" d="M547.62,-276.52C583.83,-285.74 638.69,-300.51 674.75,-310.7"/>
<polygon fill="midnightblue" stroke="midnightblue" points="673.82,-314.07 684.4,-313.44 675.74,-307.34 673.82,-314.07"/>
</g>
<!-- Node4&#45;&gt;Node3 -->
<g id="edge33" class="edge">
<title>Node4&#45;&gt;Node3</title>
<path fill="none" stroke="midnightblue" d="M479.88,-257.4C399.33,-235.16 184.01,-175.69 93.73,-150.75"/>
<polygon fill="midnightblue" stroke="midnightblue" points="94.43,-147.31 83.86,-148.02 92.57,-154.06 94.43,-147.31"/>
</g>
<!-- Node5 -->
<g id="node5" class="node">
<title>Node5</title>
<g id="a_node5"><a xlink:href="constants_8h.html" target="_top" xlink:title="Energy parameter constants.">
<polygon fill="none" stroke="black" points="276,-129 276,-148 434,-148 434,-129 276,-129"/>
<text text-anchor="middle" x="355" y="-136" font-family="Helvetica,sans-Serif" font-size="10.00">ViennaRNA/params/constants.h</text>
</a>
</g>
</g>
<!-- Node4&#45;&gt;Node5 -->
<g id="edge4" class="edge">
<title>Node4&#45;&gt;Node5</title>
<path fill="none" stroke="midnightblue" d="M500.25,-257.4C488.96,-248.35 470.71,-233.71 455,-221 426.49,-197.93 393.53,-171.02 373.49,-154.63"/>
<polygon fill="midnightblue" stroke="midnightblue" points="375.45,-151.71 365.49,-148.09 371.01,-157.13 375.45,-151.71"/>
</g>
<!-- Node7 -->
<g id="node7" class="node">
<title>Node7</title>
<g id="a_node7"><a xlink:href="datastructures_2basic_8h.html" target="_top" xlink:title="Various data structures and pre&#45;processor macros.">
<polygon fill="none" stroke="black" points="464,-190.5 464,-220.5 598,-220.5 598,-190.5 464,-190.5"/>
<text text-anchor="start" x="472" y="-208.5" font-family="Helvetica,sans-Serif" font-size="10.00">ViennaRNA/datastructures</text>
<text text-anchor="middle" x="531" y="-197.5" font-family="Helvetica,sans-Serif" font-size="10.00">/basic.h</text>
</a>
</g>
</g>
<!-- Node4&#45;&gt;Node7 -->
<g id="edge6" class="edge">
<title>Node4&#45;&gt;Node7</title>
<path fill="none" stroke="midnightblue" d="M508.96,-257.48C509.82,-250.25 512.85,-239.53 516.57,-229.78"/>
<polygon fill="midnightblue" stroke="midnightblue" points="519.81,-231.1 520.46,-220.52 513.36,-228.39 519.81,-231.1"/>
</g>
<!-- Node6 -->
<g id="node6" class="node">
<title>Node6</title>
<g id="a_node6"><a xlink:title=" ">
<polygon fill="none" stroke="#bfbfbf" points="331,-62 331,-81 379,-81 379,-62 331,-62"/>
<text text-anchor="middle" x="355" y="-69" font-family="Helvetica,sans-Serif" font-size="10.00">limits.h</text>
</a>
</g>
</g>
<!-- Node5&#45;&gt;Node6 -->
<g id="edge5" class="edge">
<title>Node5&#45;&gt;Node6</title>
<path fill="none" stroke="midnightblue" d="M355,-128.73C355,-119.18 355,-103.62 355,-91.28"/>
<polygon fill="midnightblue" stroke="midnightblue" points="358.5,-91.13 355,-81.13 351.5,-91.13 358.5,-91.13"/>
</g>
<!-- Node7&#45;&gt;Node2 -->
<g id="edge8" class="edge">
<title>Node7&#45;&gt;Node2</title>
<path fill="none" stroke="midnightblue" d="M550.01,-220.55C570.05,-235.18 602.72,-258.49 632,-277 649.68,-288.17 670.22,-299.83 685.93,-308.49"/>
<polygon fill="midnightblue" stroke="midnightblue" points="684.56,-311.73 695.01,-313.45 687.92,-305.59 684.56,-311.73"/>
</g>
<!-- Node7&#45;&gt;Node3 -->
<g id="edge9" class="edge">
<title>Node7&#45;&gt;Node3</title>
<path fill="none" stroke="midnightblue" d="M463.66,-198.6C381.12,-190.85 237.14,-175.63 115,-154 109.07,-152.95 102.86,-151.69 96.76,-150.36"/>
<polygon fill="midnightblue" stroke="midnightblue" points="97.17,-146.87 86.65,-148.07 95.63,-153.69 97.17,-146.87"/>
</g>
<!-- Node7&#45;&gt;Node4 -->
<g id="edge10" class="edge">
<title>Node7&#45;&gt;Node4</title>
<path fill="none" stroke="midnightblue" d="M532.12,-220.52C530.39,-228.86 526.95,-239.5 523.14,-248.39"/>
<polygon fill="midnightblue" stroke="midnightblue" points="519.95,-246.95 518.77,-257.48 526.26,-249.99 519.95,-246.95"/>
</g>
<!-- Node7&#45;&gt;Node5 -->
<g id="edge7" class="edge">
<title>Node7&#45;&gt;Node5</title>
<path fill="none" stroke="midnightblue" d="M492.81,-190.4C461.38,-178.79 417.32,-162.51 387.54,-151.52"/>
<polygon fill="midnightblue" stroke="midnightblue" points="388.63,-148.19 378.03,-148.01 386.2,-154.75 388.63,-148.19"/>
</g>
<!-- Node7&#45;&gt;Node8 -->
<g id="edge11" class="edge">
<title>Node7&#45;&gt;Node8</title>
<path fill="none" stroke="midnightblue" d="M463.68,-192.65C398.01,-180.47 299.76,-161.67 240.81,-150"/>
<polygon fill="midnightblue" stroke="midnightblue" points="241.48,-146.57 230.99,-148.05 240.12,-153.43 241.48,-146.57"/>
</g>
<!-- Node7&#45;&gt;Node9 -->
<g id="edge14" class="edge">
<title>Node7&#45;&gt;Node9</title>
<path fill="none" stroke="midnightblue" d="M598.01,-198.76C696.67,-190.12 886.76,-172.79 1048,-154 1060,-152.6 1072.74,-150.99 1085.09,-149.36"/>
<polygon fill="midnightblue" stroke="midnightblue" points="1085.89,-152.78 1095.34,-147.99 1084.97,-145.84 1085.89,-152.78"/>
</g>
<!-- Node7&#45;&gt;Node11 -->
<g id="edge18" class="edge">
<title>Node7&#45;&gt;Node11</title>
<path fill="none" stroke="midnightblue" d="M564.38,-190.4C590.33,-180.56 626.74,-167.37 656.82,-156.88"/>
<polygon fill="midnightblue" stroke="midnightblue" points="658.04,-160.16 666.34,-153.58 655.75,-153.55 658.04,-160.16"/>
</g>
<!-- Node7&#45;&gt;Node12 -->
<g id="edge22" class="edge">
<title>Node7&#45;&gt;Node12</title>
<path fill="none" stroke="midnightblue" d="M598.16,-191.13C648.3,-181.08 718.48,-166.89 780,-154 785.82,-152.78 791.92,-151.48 797.97,-150.19"/>
<polygon fill="midnightblue" stroke="midnightblue" points="799.01,-153.55 808.05,-148.02 797.53,-146.7 799.01,-153.55"/>
</g>
<!-- Node7&#45;&gt;Node13 -->
<g id="edge24" class="edge">
<title>Node7&#45;&gt;Node13</title>
<path fill="none" stroke="midnightblue" d="M598.21,-197.42C672.89,-189.16 797.27,-174.23 913.34,-154.21"/>
<polygon fill="midnightblue" stroke="midnightblue" points="914.21,-157.61 923.46,-152.44 913.01,-150.71 914.21,-157.61"/>
</g>
<!-- Node7&#45;&gt;Node14 -->
<g id="edge25" class="edge">
<title>Node7&#45;&gt;Node14</title>
<path fill="none" stroke="midnightblue" d="M534,-190.4C538.04,-182.05 544.41,-171.29 550.82,-161.81"/>
<polygon fill="midnightblue" stroke="midnightblue" points="553.73,-163.76 556.66,-153.58 548.02,-159.71 553.73,-163.76"/>
</g>
<!-- Node15 -->
<g id="node15" class="node">
<title>Node15</title>
<g id="a_node15"><a xlink:href="utils_2structures_8h.html" target="_top" xlink:title="Various utility&#45; and helper&#45;functions for secondary structure parsing, converting,...">
<polygon fill="none" stroke="black" points="399,-62 399,-81 543,-81 543,-62 399,-62"/>
<text text-anchor="middle" x="471" y="-69" font-family="Helvetica,sans-Serif" font-size="10.00">ViennaRNA/utils/structures.h</text>
</a>
</g>
</g>
<!-- Node7&#45;&gt;Node15 -->
<g id="edge31" class="edge">
<title>Node7&#45;&gt;Node15</title>
<path fill="none" stroke="midnightblue" d="M513.23,-190.43C505.02,-180.58 496.2,-166.91 490,-154 480.1,-133.4 472.05,-108.37 469.07,-91.53"/>
<polygon fill="midnightblue" stroke="midnightblue" points="472.52,-90.85 467.86,-81.33 465.57,-91.67 472.52,-90.85"/>
</g>
<!-- Node8&#45;&gt;Node2 -->
<g id="edge13" class="edge">
<title>Node8&#45;&gt;Node2</title>
<path fill="none" stroke="midnightblue" d="M206.67,-148.13C245.24,-172.7 346.51,-243.37 442,-277 502.33,-298.24 573.59,-309.53 627.67,-315.48"/>
<polygon fill="midnightblue" stroke="midnightblue" points="627.58,-318.99 637.9,-316.57 628.32,-312.03 627.58,-318.99"/>
</g>
<!-- Node8&#45;&gt;Node7 -->
<g id="edge12" class="edge">
<title>Node8&#45;&gt;Node7</title>
<path fill="none" stroke="midnightblue" d="M240.21,-148C296.23,-158.29 388.28,-175.81 453.84,-188.62"/>
<polygon fill="midnightblue" stroke="midnightblue" points="453.23,-192.07 463.72,-190.56 454.58,-185.2 453.23,-192.07"/>
</g>
<!-- Node9&#45;&gt;Node2 -->
<g id="edge15" class="edge">
<title>Node9&#45;&gt;Node2</title>
<path fill="none" stroke="midnightblue" d="M1156.9,-153.68C1153.95,-182.36 1133.88,-247.04 1090,-277 1043.8,-308.54 891.26,-318 794.3,-320.82"/>
<polygon fill="midnightblue" stroke="midnightblue" points="794.13,-317.33 784.23,-321.1 794.32,-324.32 794.13,-317.33"/>
</g>
<!-- Node10 -->
<g id="node10" class="node">
<title>Node10</title>
<g id="a_node10"><a xlink:href="constraints_2basic_8h.html" target="_top" xlink:title="Functions and data structures for constraining secondary structure predictions and evaluation.">
<polygon fill="none" stroke="black" points="1007.5,-56.5 1007.5,-86.5 1126.5,-86.5 1126.5,-56.5 1007.5,-56.5"/>
<text text-anchor="start" x="1015.5" y="-74.5" font-family="Helvetica,sans-Serif" font-size="10.00">ViennaRNA/constraints</text>
<text text-anchor="middle" x="1067" y="-63.5" font-family="Helvetica,sans-Serif" font-size="10.00">/basic.h</text>
</a>
</g>
</g>
<!-- Node9&#45;&gt;Node10 -->
<g id="edge16" class="edge">
<title>Node9&#45;&gt;Node10</title>
<path fill="none" stroke="midnightblue" d="M1135.91,-123.4C1123.68,-114.37 1107.63,-102.51 1094.1,-92.52"/>
<polygon fill="midnightblue" stroke="midnightblue" points="1096.18,-89.7 1086.06,-86.58 1092.02,-95.33 1096.18,-89.7"/>
</g>
<!-- Node10&#45;&gt;Node2 -->
<g id="edge17" class="edge">
<title>Node10&#45;&gt;Node2</title>
<path fill="none" stroke="midnightblue" d="M1067.18,-86.71C1066.69,-104.3 1063.42,-134.33 1048,-154 975.2,-246.88 837.51,-292.3 762.64,-311.02"/>
<polygon fill="midnightblue" stroke="midnightblue" points="761.39,-307.72 752.5,-313.48 763.05,-314.52 761.39,-307.72"/>
</g>
<!-- Node11&#45;&gt;Node2 -->
<g id="edge20" class="edge">
<title>Node11&#45;&gt;Node2</title>
<path fill="none" stroke="midnightblue" d="M714.83,-153.69C718.55,-186.21 718.72,-266.09 715.33,-302.88"/>
<polygon fill="midnightblue" stroke="midnightblue" points="711.81,-302.86 714.11,-313.2 718.76,-303.68 711.81,-302.86"/>
</g>
<!-- Node11&#45;&gt;Node7 -->
<g id="edge19" class="edge">
<title>Node11&#45;&gt;Node7</title>
<path fill="none" stroke="midnightblue" d="M677.69,-153.58C651.76,-163.41 615.36,-176.6 585.26,-187.09"/>
<polygon fill="midnightblue" stroke="midnightblue" points="584.04,-183.81 575.74,-190.4 586.33,-190.43 584.04,-183.81"/>
</g>
<!-- Node11&#45;&gt;Node10 -->
<g id="edge21" class="edge">
<title>Node11&#45;&gt;Node10</title>
<path fill="none" stroke="midnightblue" d="M770.81,-124.8C773.92,-124.18 777,-123.58 780,-123 853.92,-108.73 938.89,-93.99 997.07,-84.14"/>
<polygon fill="midnightblue" stroke="midnightblue" points="997.98,-87.54 1007.25,-82.42 996.81,-80.64 997.98,-87.54"/>
</g>
<!-- Node12&#45;&gt;Node2 -->
<g id="edge23" class="edge">
<title>Node12&#45;&gt;Node2</title>
<path fill="none" stroke="midnightblue" d="M843.6,-148.21C826.81,-176.81 759.09,-268.13 727.24,-305.66"/>
<polygon fill="midnightblue" stroke="midnightblue" points="724.6,-303.36 720.67,-313.2 729.88,-307.96 724.6,-303.36"/>
</g>
<!-- Node14&#45;&gt;Node2 -->
<g id="edge27" class="edge">
<title>Node14&#45;&gt;Node2</title>
<path fill="none" stroke="midnightblue" d="M585.72,-153.69C614.87,-186.77 677.96,-268.87 701.92,-304.75"/>
<polygon fill="midnightblue" stroke="midnightblue" points="699,-306.68 707.36,-313.2 704.89,-302.89 699,-306.68"/>
</g>
<!-- Node14&#45;&gt;Node7 -->
<g id="edge26" class="edge">
<title>Node14&#45;&gt;Node7</title>
<path fill="none" stroke="midnightblue" d="M568.01,-153.58C563.98,-161.92 557.61,-172.68 551.2,-182.16"/>
<polygon fill="midnightblue" stroke="midnightblue" points="548.29,-180.21 545.36,-190.4 554,-184.26 548.29,-180.21"/>
</g>
<!-- Node14&#45;&gt;Node15 -->
<g id="edge28" class="edge">
<title>Node14&#45;&gt;Node15</title>
<path fill="none" stroke="midnightblue" d="M549.3,-123.4C532.53,-112.5 509.43,-97.48 492.67,-86.58"/>
<polygon fill="midnightblue" stroke="midnightblue" points="494.38,-83.52 484.09,-81.01 490.56,-89.39 494.38,-83.52"/>
</g>
<!-- Node15&#45;&gt;Node7 -->
<g id="edge30" class="edge">
<title>Node15&#45;&gt;Node7</title>
<path fill="none" stroke="midnightblue" d="M478.73,-81.33C486.43,-96.58 495.82,-128.65 508,-154 512.51,-163.38 518.39,-173.16 523.34,-181.59"/>
<polygon fill="midnightblue" stroke="midnightblue" points="520.4,-183.5 528.41,-190.43 526.48,-180.02 520.4,-183.5"/>
</g>
<!-- Node16 -->
<g id="node16" class="node">
<title>Node16</title>
<g id="a_node16"><a xlink:title=" ">
<polygon fill="none" stroke="#bfbfbf" points="448,-0.5 448,-19.5 494,-19.5 494,-0.5 448,-0.5"/>
<text text-anchor="middle" x="471" y="-7.5" font-family="Helvetica,sans-Serif" font-size="10.00">stdio.h</text>
</a>
</g>
</g>
<!-- Node15&#45;&gt;Node16 -->
<g id="edge29" class="edge">
<title>Node15&#45;&gt;Node16</title>
<path fill="none" stroke="midnightblue" d="M471,-61.98C471,-53.58 471,-40.48 471,-29.66"/>
<polygon fill="midnightblue" stroke="midnightblue" points="474.5,-29.51 471,-19.51 467.5,-29.51 474.5,-29.51"/>
</g>
</g>
</svg>
        <g id="navigator" transform="translate(0 0)" fill="#404254">
                <rect fill="#f2f5e9" fill-opacity="0.5" stroke="#606060" stroke-width=".5" x="0" y="0" width="60" height="60"/>
                <use id="zoomplus" xlink:href="#zoomPlus" x="17" y="9" onmousedown="handleZoom(evt,'in')"/>
                <use id="zoomminus" xlink:href="#zoomMin" x="42" y="9" onmousedown="handleZoom(evt,'out')"/>
                <use id="reset" xlink:href="#resetDef" x="30" y="36" onmousedown="handleReset()"/>
                <g id="arrowUp" xlink:href="#dirArrow" transform="translate(30 24)" onmousedown="handlePan(0,-1)">
                  <use xlink:href="#rim" fill="#404040">
                        <set attributeName="fill" to="#808080" begin="arrowUp.mouseover" end="arrowUp.mouseout"/>
                  </use>
                  <path fill="none" stroke="white" stroke-width="1.5" d="M0,-3.0v7 M-2.5,-0.5L0,-3.0L2.5,-0.5"/>
                </g>
                <g id="arrowRight" xlink:href="#dirArrow" transform="rotate(90) translate(36 -43)" onmousedown="handlePan(1,0)">
                  <use xlink:href="#rim" fill="#404040">
                        <set attributeName="fill" to="#808080" begin="arrowRight.mouseover" end="arrowRight.mouseout"/>
                  </use>
                  <path fill="none" stroke="white" stroke-width="1.5" d="M0,-3.0v7 M-2.5,-0.5L0,-3.0L2.5,-0.5"/>
                </g>
                <g id="arrowDown" xlink:href="#dirArrow" transform="rotate(180) translate(-30 -48)" onmousedown="handlePan(0,1)">
                  <use xlink:href="#rim" fill="#404040">
                        <set attributeName="fill" to="#808080" begin="arrowDown.mouseover" end="arrowDown.mouseout"/>
                  </use>
                  <path fill="none" stroke="white" stroke-width="1.5" d="M0,-3.0v7 M-2.5,-0.5L0,-3.0L2.5,-0.5"/>
                </g>
                <g id="arrowLeft" xlink:href="#dirArrow" transform="rotate(270) translate(-36 17)" onmousedown="handlePan(-1,0)">
                  <use xlink:href="#rim" fill="#404040">
                        <set attributeName="fill" to="#808080" begin="arrowLeft.mouseover" end="arrowLeft.mouseout"/>
                  </use>
                  <path fill="none" stroke="white" stroke-width="1.5" d="M0,-3.0v7 M-2.5,-0.5L0,-3.0L2.5,-0.5"/>
                </g>
        </g>
        <svg viewBox="0 0 15 15" width="100%" height="30px" preserveAspectRatio="xMaxYMin meet">
         <g id="arrow_out" transform="scale(0.3 0.3)">
          <a xlink:href="sequence_8h__incl_org.svg" target="_base">
           <rect id="button" ry="5" rx="5" y="6" x="6" height="38" width="38"
                fill="#f2f5e9" fill-opacity="0.5" stroke="#606060" stroke-width="1.0"/>
           <path id="arrow"
             d="M 11.500037,31.436501 C 11.940474,20.09759 22.043105,11.32322 32.158766,21.979434 L 37.068811,17.246167 C 37.068811,17.246167 37.088388,32 37.088388,32 L 22.160133,31.978069 C 22.160133,31.978069 26.997745,27.140456 26.997745,27.140456 C 18.528582,18.264221 13.291696,25.230495 11.500037,31.436501 z"
             style="fill:#404040;"/>
          </a>
         </g>
        </svg>
</svg>
