<?xml version="1.0" encoding="UTF-8" standalone="no"?>
<!DOCTYPE svg PUBLIC "-//W3C//DTD SVG 1.1//EN"
 "http://www.w3.org/Graphics/SVG/1.1/DTD/svg11.dtd">
<!-- Generated by graphviz version 2.47.0 (0)
 -->
<!-- Title: ViennaRNA/constraints/soft.h Pages: 1 -->
<svg width="1395pt" height="352pt"
 viewBox="0.00 0.00 1395.35 352.00" xmlns="http://www.w3.org/2000/svg" xmlns:xlink="http://www.w3.org/1999/xlink">
<g id="graph0" class="graph" transform="scale(1 1) rotate(0) translate(4 348)">
<title>ViennaRNA/constraints/soft.h</title>
<!-- Node1 -->
<g id="node1" class="node">
<title>Node1</title>
<g id="a_node1"><a xlink:title="Functions and data structures for secondary structure soft constraints.">
<polygon fill="#bfbfbf" stroke="black" points="632.85,-313.5 632.85,-343.5 751.85,-343.5 751.85,-313.5 632.85,-313.5"/>
<text text-anchor="start" x="640.85" y="-331.5" font-family="Helvetica,sans-Serif" font-size="10.00">ViennaRNA/constraints</text>
<text text-anchor="middle" x="692.35" y="-320.5" font-family="Helvetica,sans-Serif" font-size="10.00">/soft.h</text>
</a>
</g>
</g>
<!-- Node2 -->
<g id="node2" class="node">
<title>Node2</title>
<g id="a_node2"><a xlink:href="datastructures_2basic_8h.html" target="_top" xlink:title="Various data structures and pre&#45;processor macros.">
<polygon fill="none" stroke="black" points="876.35,-246.5 876.35,-276.5 1010.35,-276.5 1010.35,-246.5 876.35,-246.5"/>
<text text-anchor="start" x="884.35" y="-264.5" font-family="Helvetica,sans-Serif" font-size="10.00">ViennaRNA/datastructures</text>
<text text-anchor="middle" x="943.35" y="-253.5" font-family="Helvetica,sans-Serif" font-size="10.00">/basic.h</text>
</a>
</g>
</g>
<!-- Node1&#45;&gt;Node2 -->
<g id="edge1" class="edge">
<title>Node1&#45;&gt;Node2</title>
<path fill="none" stroke="midnightblue" d="M740.84,-313.48C778.46,-303.39 831.05,-289.74 873.25,-279.11"/>
<polygon fill="midnightblue" stroke="midnightblue" points="874.33,-282.44 883.18,-276.61 872.63,-275.65 874.33,-282.44"/>
</g>
<!-- Node5 -->
<g id="node5" class="node">
<title>Node5</title>
<g id="a_node5"><a xlink:href="fold__compound_8h.html" target="_top" xlink:title="The Basic Fold Compound API.">
<polygon fill="none" stroke="black" points="619.35,-190.5 619.35,-209.5 765.35,-209.5 765.35,-190.5 619.35,-190.5"/>
<text text-anchor="middle" x="692.35" y="-197.5" font-family="Helvetica,sans-Serif" font-size="10.00">ViennaRNA/fold_compound.h</text>
</a>
</g>
</g>
<!-- Node1&#45;&gt;Node5 -->
<g id="edge40" class="edge">
<title>Node1&#45;&gt;Node5</title>
<path fill="none" stroke="midnightblue" d="M687.92,-313.48C685.01,-290.62 684.84,-245.3 687.39,-219.71"/>
<polygon fill="midnightblue" stroke="midnightblue" points="690.86,-220.16 688.7,-209.79 683.92,-219.24 690.86,-220.16"/>
</g>
<!-- Node11 -->
<g id="node11" class="node">
<title>Node11</title>
<g id="a_node11"><a xlink:href="constraints_2basic_8h.html" target="_top" xlink:title="Functions and data structures for constraining secondary structure predictions and evaluation.">
<polygon fill="none" stroke="black" points="151.85,-56.5 151.85,-86.5 270.85,-86.5 270.85,-56.5 151.85,-56.5"/>
<text text-anchor="start" x="159.85" y="-74.5" font-family="Helvetica,sans-Serif" font-size="10.00">ViennaRNA/constraints</text>
<text text-anchor="middle" x="211.35" y="-63.5" font-family="Helvetica,sans-Serif" font-size="10.00">/basic.h</text>
</a>
</g>
</g>
<!-- Node1&#45;&gt;Node11 -->
<g id="edge41" class="edge">
<title>Node1&#45;&gt;Node11</title>
<path fill="none" stroke="midnightblue" d="M632.66,-321.55C480.87,-305.08 86.62,-253.35 9.35,-154 -29.51,-104.04 68.8,-84.57 141.52,-77.08"/>
<polygon fill="midnightblue" stroke="midnightblue" points="141.98,-80.55 151.59,-76.1 141.3,-73.58 141.98,-80.55"/>
</g>
<!-- Node2&#45;&gt;Node1 -->
<g id="edge35" class="edge">
<title>Node2&#45;&gt;Node1</title>
<path fill="none" stroke="midnightblue" d="M894.83,-276.53C857.01,-286.67 804.09,-300.4 761.8,-311.06"/>
<polygon fill="midnightblue" stroke="midnightblue" points="760.7,-307.73 751.85,-313.56 762.4,-314.51 760.7,-307.73"/>
</g>
<!-- Node3 -->
<g id="node3" class="node">
<title>Node3</title>
<g id="a_node3"><a xlink:href="constants_8h.html" target="_top" xlink:title="Energy parameter constants.">
<polygon fill="none" stroke="black" points="1064.35,-62 1064.35,-81 1222.35,-81 1222.35,-62 1064.35,-62"/>
<text text-anchor="middle" x="1143.35" y="-69" font-family="Helvetica,sans-Serif" font-size="10.00">ViennaRNA/params/constants.h</text>
</a>
</g>
</g>
<!-- Node2&#45;&gt;Node3 -->
<g id="edge2" class="edge">
<title>Node2&#45;&gt;Node3</title>
<path fill="none" stroke="midnightblue" d="M1010.63,-259.78C1084.69,-254.82 1199.82,-233.82 1249.35,-154 1256.61,-142.29 1256.7,-134.65 1249.35,-123 1237.23,-103.8 1215.6,-91.75 1195.02,-84.26"/>
<polygon fill="midnightblue" stroke="midnightblue" points="1195.96,-80.89 1185.36,-81.04 1193.74,-87.53 1195.96,-80.89"/>
</g>
<!-- Node2&#45;&gt;Node5 -->
<g id="edge4" class="edge">
<title>Node2&#45;&gt;Node5</title>
<path fill="none" stroke="midnightblue" d="M884.18,-246.47C839.56,-235.9 779.23,-221.59 738.22,-211.87"/>
<polygon fill="midnightblue" stroke="midnightblue" points="738.77,-208.41 728.23,-209.51 737.16,-215.22 738.77,-208.41"/>
</g>
<!-- Node6 -->
<g id="node6" class="node">
<title>Node6</title>
<g id="a_node6"><a xlink:href="model_8h.html" target="_top" xlink:title="The model details data structure and its corresponding modifiers.">
<polygon fill="none" stroke="black" points="936.35,-62 936.35,-81 1042.35,-81 1042.35,-62 936.35,-62"/>
<text text-anchor="middle" x="989.35" y="-69" font-family="Helvetica,sans-Serif" font-size="10.00">ViennaRNA/model.h</text>
</a>
</g>
</g>
<!-- Node2&#45;&gt;Node6 -->
<g id="edge31" class="edge">
<title>Node2&#45;&gt;Node6</title>
<path fill="none" stroke="midnightblue" d="M970.72,-246.45C1000.83,-229.27 1047.57,-197.07 1067.35,-154 1073.1,-141.48 1073.93,-135.1 1067.35,-123 1058.01,-105.82 1040.03,-93.59 1023.68,-85.47"/>
<polygon fill="midnightblue" stroke="midnightblue" points="1024.87,-82.17 1014.32,-81.16 1021.94,-88.52 1024.87,-82.17"/>
</g>
<!-- Node7 -->
<g id="node7" class="node">
<title>Node7</title>
<g id="a_node7"><a xlink:href="params_2basic_8h.html" target="_top" xlink:title="Functions to deal with sets of energy parameters.">
<polygon fill="none" stroke="black" points="920.35,-129 920.35,-148 1058.35,-148 1058.35,-129 920.35,-129"/>
<text text-anchor="middle" x="989.35" y="-136" font-family="Helvetica,sans-Serif" font-size="10.00">ViennaRNA/params/basic.h</text>
</a>
</g>
</g>
<!-- Node2&#45;&gt;Node7 -->
<g id="edge32" class="edge">
<title>Node2&#45;&gt;Node7</title>
<path fill="none" stroke="midnightblue" d="M944.25,-246.14C949.91,-223.91 966.03,-181.19 977.72,-157.11"/>
<polygon fill="midnightblue" stroke="midnightblue" points="980.93,-158.54 982.42,-148.05 974.71,-155.32 980.93,-158.54"/>
</g>
<!-- Node9 -->
<g id="node9" class="node">
<title>Node9</title>
<g id="a_node9"><a xlink:href="dp__matrices_8h.html" target="_top" xlink:title="Functions to deal with standard dynamic programming (DP) matrices.">
<polygon fill="none" stroke="black" points="768.85,-129 768.85,-148 901.85,-148 901.85,-129 768.85,-129"/>
<text text-anchor="middle" x="835.35" y="-136" font-family="Helvetica,sans-Serif" font-size="10.00">ViennaRNA/dp_matrices.h</text>
</a>
</g>
</g>
<!-- Node2&#45;&gt;Node9 -->
<g id="edge33" class="edge">
<title>Node2&#45;&gt;Node9</title>
<path fill="none" stroke="midnightblue" d="M925.98,-246.14C903.03,-223.61 864.05,-180.04 845.39,-156.16"/>
<polygon fill="midnightblue" stroke="midnightblue" points="848.11,-153.95 839.31,-148.05 842.51,-158.15 848.11,-153.95"/>
</g>
<!-- Node10 -->
<g id="node10" class="node">
<title>Node10</title>
<g id="a_node10"><a xlink:href="hard_8h.html" target="_top" xlink:title="Functions and data structures for handling of secondary structure hard constraints.">
<polygon fill="none" stroke="black" points="151.85,-123.5 151.85,-153.5 270.85,-153.5 270.85,-123.5 151.85,-123.5"/>
<text text-anchor="start" x="159.85" y="-141.5" font-family="Helvetica,sans-Serif" font-size="10.00">ViennaRNA/constraints</text>
<text text-anchor="middle" x="211.35" y="-130.5" font-family="Helvetica,sans-Serif" font-size="10.00">/hard.h</text>
</a>
</g>
</g>
<!-- Node2&#45;&gt;Node10 -->
<g id="edge34" class="edge">
<title>Node2&#45;&gt;Node10</title>
<path fill="none" stroke="midnightblue" d="M876.22,-251.43C757.28,-235.01 501.63,-198.11 280.77,-155.04"/>
<polygon fill="midnightblue" stroke="midnightblue" points="281.43,-151.61 270.94,-153.12 280.08,-158.48 281.43,-151.61"/>
</g>
<!-- Node12 -->
<g id="node12" class="node">
<title>Node12</title>
<g id="a_node12"><a xlink:href="grammar_8h.html" target="_top" xlink:title="Implementations for the RNA folding grammar.">
<polygon fill="none" stroke="black" points="633.85,-129 633.85,-148 750.85,-148 750.85,-129 633.85,-129"/>
<text text-anchor="middle" x="692.35" y="-136" font-family="Helvetica,sans-Serif" font-size="10.00">ViennaRNA/grammar.h</text>
</a>
</g>
</g>
<!-- Node2&#45;&gt;Node12 -->
<g id="edge36" class="edge">
<title>Node2&#45;&gt;Node12</title>
<path fill="none" stroke="midnightblue" d="M914.06,-246.38C864.95,-222.7 766.68,-175.33 719.23,-152.46"/>
<polygon fill="midnightblue" stroke="midnightblue" points="720.7,-149.28 710.17,-148.09 717.66,-155.59 720.7,-149.28"/>
</g>
<!-- Node13 -->
<g id="node13" class="node">
<title>Node13</title>
<g id="a_node13"><a xlink:href="structured__domains_8h.html" target="_top" xlink:title="This module provides interfaces that deal with additional structured domains in the folding grammar.">
<polygon fill="none" stroke="black" points="18.85,-123.5 18.85,-153.5 133.85,-153.5 133.85,-123.5 18.85,-123.5"/>
<text text-anchor="start" x="26.85" y="-141.5" font-family="Helvetica,sans-Serif" font-size="10.00">ViennaRNA/structured</text>
<text text-anchor="middle" x="76.35" y="-130.5" font-family="Helvetica,sans-Serif" font-size="10.00">_domains.h</text>
</a>
</g>
</g>
<!-- Node2&#45;&gt;Node13 -->
<g id="edge37" class="edge">
<title>Node2&#45;&gt;Node13</title>
<path fill="none" stroke="midnightblue" d="M876.26,-254.58C784.92,-246.23 616.43,-229.77 473.35,-210 328.73,-190.02 290.44,-182.77 143.73,-154.23"/>
<polygon fill="midnightblue" stroke="midnightblue" points="144.39,-150.79 133.91,-152.32 143.06,-157.66 144.39,-150.79"/>
</g>
<!-- Node14 -->
<g id="node14" class="node">
<title>Node14</title>
<g id="a_node14"><a xlink:href="unstructured__domains_8h.html" target="_top" xlink:title="Functions to modify unstructured domains, e.g. to incorporate ligands binding to unpaired stretches.">
<polygon fill="none" stroke="black" points="1114.85,-123.5 1114.85,-153.5 1239.85,-153.5 1239.85,-123.5 1114.85,-123.5"/>
<text text-anchor="start" x="1122.85" y="-141.5" font-family="Helvetica,sans-Serif" font-size="10.00">ViennaRNA/unstructured</text>
<text text-anchor="middle" x="1177.35" y="-130.5" font-family="Helvetica,sans-Serif" font-size="10.00">_domains.h</text>
</a>
</g>
</g>
<!-- Node2&#45;&gt;Node14 -->
<g id="edge38" class="edge">
<title>Node2&#45;&gt;Node14</title>
<path fill="none" stroke="midnightblue" d="M999.67,-246.47C1028.3,-238.41 1062.88,-226.54 1091.35,-210 1113.84,-196.93 1135.31,-176.36 1151.43,-160.8"/>
<polygon fill="midnightblue" stroke="midnightblue" points="1154.11,-163.08 1158.89,-153.63 1149.26,-158.04 1154.11,-163.08"/>
</g>
<!-- Node15 -->
<g id="node15" class="node">
<title>Node15</title>
<g id="a_node15"><a xlink:href="utils_2structures_8h.html" target="_top" xlink:title="Various utility&#45; and helper&#45;functions for secondary structure parsing, converting,...">
<polygon fill="none" stroke="black" points="1243.35,-62 1243.35,-81 1387.35,-81 1387.35,-62 1243.35,-62"/>
<text text-anchor="middle" x="1315.35" y="-69" font-family="Helvetica,sans-Serif" font-size="10.00">ViennaRNA/utils/structures.h</text>
</a>
</g>
</g>
<!-- Node2&#45;&gt;Node15 -->
<g id="edge39" class="edge">
<title>Node2&#45;&gt;Node15</title>
<path fill="none" stroke="midnightblue" d="M1010.66,-252.74C1078.28,-244.41 1176.92,-229.68 1210.35,-210 1257.69,-182.13 1287.39,-120.66 1303.35,-90.25"/>
<polygon fill="midnightblue" stroke="midnightblue" points="1306.55,-91.68 1308.24,-81.22 1300.4,-88.35 1306.55,-91.68"/>
</g>
<!-- Node4 -->
<g id="node4" class="node">
<title>Node4</title>
<g id="a_node4"><a xlink:title=" ">
<polygon fill="none" stroke="#bfbfbf" points="1119.35,-0.5 1119.35,-19.5 1167.35,-19.5 1167.35,-0.5 1119.35,-0.5"/>
<text text-anchor="middle" x="1143.35" y="-7.5" font-family="Helvetica,sans-Serif" font-size="10.00">limits.h</text>
</a>
</g>
</g>
<!-- Node3&#45;&gt;Node4 -->
<g id="edge3" class="edge">
<title>Node3&#45;&gt;Node4</title>
<path fill="none" stroke="midnightblue" d="M1143.35,-61.98C1143.35,-53.58 1143.35,-40.48 1143.35,-29.66"/>
<polygon fill="midnightblue" stroke="midnightblue" points="1146.85,-29.51 1143.35,-19.51 1139.85,-29.51 1146.85,-29.51"/>
</g>
<!-- Node5&#45;&gt;Node1 -->
<g id="edge20" class="edge">
<title>Node5&#45;&gt;Node1</title>
<path fill="none" stroke="midnightblue" d="M696,-209.79C699.42,-228.94 700.01,-275.02 697.78,-303.51"/>
<polygon fill="midnightblue" stroke="midnightblue" points="694.29,-303.18 696.78,-313.48 701.26,-303.88 694.29,-303.18"/>
</g>
<!-- Node5&#45;&gt;Node6 -->
<g id="edge5" class="edge">
<title>Node5&#45;&gt;Node6</title>
<path fill="none" stroke="midnightblue" d="M668.9,-190.41C653.19,-183.28 633.73,-171.46 624.35,-154 617.83,-141.86 615.3,-133.39 624.35,-123 662.73,-78.95 832.15,-72.05 926.08,-71.71"/>
<polygon fill="midnightblue" stroke="midnightblue" points="926.32,-75.21 936.32,-71.7 926.31,-68.21 926.32,-75.21"/>
</g>
<!-- Node5&#45;&gt;Node7 -->
<g id="edge6" class="edge">
<title>Node5&#45;&gt;Node7</title>
<path fill="none" stroke="midnightblue" d="M730,-190.48C781.04,-179.78 872.39,-161.46 931.97,-149.94"/>
<polygon fill="midnightblue" stroke="midnightblue" points="932.82,-153.34 941.98,-148.01 931.5,-146.46 932.82,-153.34"/>
</g>
<!-- Node8 -->
<g id="node8" class="node">
<title>Node8</title>
<g id="a_node8"><a xlink:href="sequence_8h.html" target="_top" xlink:title="Functions and data structures related to sequence representations ,.">
<polygon fill="none" stroke="black" points="455.35,-129 455.35,-148 577.35,-148 577.35,-129 455.35,-129"/>
<text text-anchor="middle" x="516.35" y="-136" font-family="Helvetica,sans-Serif" font-size="10.00">ViennaRNA/sequence.h</text>
</a>
</g>
</g>
<!-- Node5&#45;&gt;Node8 -->
<g id="edge11" class="edge">
<title>Node5&#45;&gt;Node8</title>
<path fill="none" stroke="midnightblue" d="M662.23,-190.48C629.82,-180.27 578.84,-163.11 546.44,-151.55"/>
<polygon fill="midnightblue" stroke="midnightblue" points="547.22,-148.11 536.62,-148.01 544.84,-154.69 547.22,-148.11"/>
</g>
<!-- Node5&#45;&gt;Node9 -->
<g id="edge13" class="edge">
<title>Node5&#45;&gt;Node9</title>
<path fill="none" stroke="midnightblue" d="M707.94,-190.48C730.14,-180.31 770.91,-163.26 800.46,-151.7"/>
<polygon fill="midnightblue" stroke="midnightblue" points="801.94,-154.88 810,-148.01 799.41,-148.35 801.94,-154.88"/>
</g>
<!-- Node5&#45;&gt;Node10 -->
<g id="edge16" class="edge">
<title>Node5&#45;&gt;Node10</title>
<path fill="none" stroke="midnightblue" d="M619.13,-193.33C537.88,-186.27 402.98,-172.97 280.75,-154.63"/>
<polygon fill="midnightblue" stroke="midnightblue" points="281.27,-151.17 270.85,-153.13 280.22,-158.09 281.27,-151.17"/>
</g>
<!-- Node5&#45;&gt;Node12 -->
<g id="edge21" class="edge">
<title>Node5&#45;&gt;Node12</title>
<path fill="none" stroke="midnightblue" d="M687.45,-190.48C685.62,-182.08 685.15,-168.98 686.03,-158.16"/>
<polygon fill="midnightblue" stroke="midnightblue" points="689.54,-158.4 687.45,-148.01 682.6,-157.43 689.54,-158.4"/>
</g>
<!-- Node5&#45;&gt;Node13 -->
<g id="edge23" class="edge">
<title>Node5&#45;&gt;Node13</title>
<path fill="none" stroke="midnightblue" d="M619.04,-196.14C515.23,-191.4 319.38,-179.89 143.79,-154.09"/>
<polygon fill="midnightblue" stroke="midnightblue" points="144.26,-150.62 133.86,-152.61 143.23,-157.55 144.26,-150.62"/>
</g>
<!-- Node5&#45;&gt;Node14 -->
<g id="edge24" class="edge">
<title>Node5&#45;&gt;Node14</title>
<path fill="none" stroke="midnightblue" d="M758.57,-190.5C831.91,-181.63 953.44,-167.21 1058.35,-154 1073.32,-152.11 1089.43,-150.03 1104.84,-148.03"/>
<polygon fill="midnightblue" stroke="midnightblue" points="1105.37,-151.49 1114.84,-146.74 1104.48,-144.55 1105.37,-151.49"/>
</g>
<!-- Node17 -->
<g id="node17" class="node">
<title>Node17</title>
<g id="a_node17"><a xlink:href="zscore_8h_source.html" target="_top" xlink:title=" ">
<polygon fill="none" stroke="black" points="327.85,-129 327.85,-148 436.85,-148 436.85,-129 327.85,-129"/>
<text text-anchor="middle" x="382.35" y="-136" font-family="Helvetica,sans-Serif" font-size="10.00">ViennaRNA/zscore.h</text>
</a>
</g>
</g>
<!-- Node5&#45;&gt;Node17 -->
<g id="edge30" class="edge">
<title>Node5&#45;&gt;Node17</title>
<path fill="none" stroke="midnightblue" d="M642.29,-190.48C592.5,-181.85 513.98,-167.84 446.35,-154 440.63,-152.83 434.63,-151.55 428.7,-150.24"/>
<polygon fill="midnightblue" stroke="midnightblue" points="429.37,-146.8 418.84,-148.05 427.84,-153.64 429.37,-146.8"/>
</g>
<!-- Node7&#45;&gt;Node2 -->
<g id="edge8" class="edge">
<title>Node7&#45;&gt;Node2</title>
<path fill="none" stroke="midnightblue" d="M989.77,-148.05C986.2,-166.32 970.31,-209.7 957.79,-236.92"/>
<polygon fill="midnightblue" stroke="midnightblue" points="954.54,-235.62 953.36,-246.14 960.85,-238.65 954.54,-235.62"/>
</g>
<!-- Node7&#45;&gt;Node3 -->
<g id="edge7" class="edge">
<title>Node7&#45;&gt;Node3</title>
<path fill="none" stroke="midnightblue" d="M1009.8,-128.87C1036.38,-117.65 1082.99,-97.98 1113.51,-85.09"/>
<polygon fill="midnightblue" stroke="midnightblue" points="1114.96,-88.28 1122.81,-81.17 1112.24,-81.83 1114.96,-88.28"/>
</g>
<!-- Node7&#45;&gt;Node5 -->
<g id="edge9" class="edge">
<title>Node7&#45;&gt;Node5</title>
<path fill="none" stroke="midnightblue" d="M951.77,-148.01C900.77,-158.69 809.43,-177.02 749.82,-188.55"/>
<polygon fill="midnightblue" stroke="midnightblue" points="748.96,-185.15 739.8,-190.48 750.28,-192.02 748.96,-185.15"/>
</g>
<!-- Node7&#45;&gt;Node6 -->
<g id="edge10" class="edge">
<title>Node7&#45;&gt;Node6</title>
<path fill="none" stroke="midnightblue" d="M989.35,-128.73C989.35,-119.18 989.35,-103.62 989.35,-91.28"/>
<polygon fill="midnightblue" stroke="midnightblue" points="992.85,-91.13 989.35,-81.13 985.85,-91.13 992.85,-91.13"/>
</g>
<!-- Node8&#45;&gt;Node5 -->
<g id="edge12" class="edge">
<title>Node8&#45;&gt;Node5</title>
<path fill="none" stroke="midnightblue" d="M546.42,-148.01C578.81,-158.21 629.79,-175.37 662.21,-186.93"/>
<polygon fill="midnightblue" stroke="midnightblue" points="661.44,-190.38 672.03,-190.48 663.81,-183.79 661.44,-190.38"/>
</g>
<!-- Node9&#45;&gt;Node2 -->
<g id="edge14" class="edge">
<title>Node9&#45;&gt;Node2</title>
<path fill="none" stroke="midnightblue" d="M846.66,-148.05C866.59,-166.56 906.69,-210.84 928.65,-237.99"/>
<polygon fill="midnightblue" stroke="midnightblue" points="926.15,-240.47 935.09,-246.14 931.64,-236.13 926.15,-240.47"/>
</g>
<!-- Node9&#45;&gt;Node5 -->
<g id="edge15" class="edge">
<title>Node9&#45;&gt;Node5</title>
<path fill="none" stroke="midnightblue" d="M819.8,-148.01C797.61,-158.16 756.84,-175.22 727.29,-186.78"/>
<polygon fill="midnightblue" stroke="midnightblue" points="725.8,-183.6 717.74,-190.48 728.33,-190.13 725.8,-183.6"/>
</g>
<!-- Node10&#45;&gt;Node5 -->
<g id="edge17" class="edge">
<title>Node10&#45;&gt;Node5</title>
<path fill="none" stroke="midnightblue" d="M271.1,-150.04C278.94,-151.48 286.84,-152.85 294.35,-154 402.85,-170.6 528.52,-183.54 609.2,-191.21"/>
<polygon fill="midnightblue" stroke="midnightblue" points="609.02,-194.7 619.31,-192.16 609.68,-187.73 609.02,-194.7"/>
</g>
<!-- Node10&#45;&gt;Node11 -->
<g id="edge18" class="edge">
<title>Node10&#45;&gt;Node11</title>
<path fill="none" stroke="midnightblue" d="M211.35,-123.4C211.35,-115.64 211.35,-105.81 211.35,-96.86"/>
<polygon fill="midnightblue" stroke="midnightblue" points="214.85,-96.58 211.35,-86.58 207.85,-96.58 214.85,-96.58"/>
</g>
<!-- Node11&#45;&gt;Node5 -->
<g id="edge19" class="edge">
<title>Node11&#45;&gt;Node5</title>
<path fill="none" stroke="midnightblue" d="M230.82,-86.7C244.49,-96.73 263.14,-110.55 279.35,-123 296.91,-136.49 297.92,-145.47 318.35,-154 369.22,-175.25 515.32,-188.03 609.14,-194.28"/>
<polygon fill="midnightblue" stroke="midnightblue" points="608.97,-197.77 619.18,-194.93 609.43,-190.79 608.97,-197.77"/>
</g>
<!-- Node12&#45;&gt;Node5 -->
<g id="edge22" class="edge">
<title>Node12&#45;&gt;Node5</title>
<path fill="none" stroke="midnightblue" d="M697.25,-148.01C699.08,-156.4 699.55,-169.5 698.67,-180.32"/>
<polygon fill="midnightblue" stroke="midnightblue" points="695.16,-180.09 697.25,-190.48 702.1,-181.05 695.16,-180.09"/>
</g>
<!-- Node14&#45;&gt;Node2 -->
<g id="edge25" class="edge">
<title>Node14&#45;&gt;Node2</title>
<path fill="none" stroke="midnightblue" d="M1171.89,-153.63C1160.31,-169.43 1135.52,-194.8 1109.35,-210 1082.21,-225.76 1049.53,-237.29 1020.32,-245.31"/>
<polygon fill="midnightblue" stroke="midnightblue" points="1019.33,-241.95 1010.56,-247.9 1021.13,-248.72 1019.33,-241.95"/>
</g>
<!-- Node14&#45;&gt;Node5 -->
<g id="edge26" class="edge">
<title>Node14&#45;&gt;Node5</title>
<path fill="none" stroke="midnightblue" d="M1114.62,-149.06C1101.98,-150.73 1088.77,-152.44 1076.35,-154 973.15,-166.99 853.86,-181.16 775.9,-190.06"/>
<polygon fill="midnightblue" stroke="midnightblue" points="775.2,-186.62 765.66,-191.23 775.99,-193.57 775.2,-186.62"/>
</g>
<!-- Node14&#45;&gt;Node15 -->
<g id="edge27" class="edge">
<title>Node14&#45;&gt;Node15</title>
<path fill="none" stroke="midnightblue" d="M1207.29,-123.4C1231.29,-112.09 1264.69,-96.36 1287.98,-85.39"/>
<polygon fill="midnightblue" stroke="midnightblue" points="1289.73,-88.43 1297.29,-81.01 1286.75,-82.1 1289.73,-88.43"/>
</g>
<!-- Node15&#45;&gt;Node2 -->
<g id="edge29" class="edge">
<title>Node15&#45;&gt;Node2</title>
<path fill="none" stroke="midnightblue" d="M1316.3,-81.22C1311.88,-106.33 1281.04,-178.98 1228.35,-210 1194.32,-230.03 1092.7,-244.95 1020.46,-253.19"/>
<polygon fill="midnightblue" stroke="midnightblue" points="1020.02,-249.72 1010.47,-254.31 1020.8,-256.67 1020.02,-249.72"/>
</g>
<!-- Node16 -->
<g id="node16" class="node">
<title>Node16</title>
<g id="a_node16"><a xlink:title=" ">
<polygon fill="none" stroke="#bfbfbf" points="1292.35,-0.5 1292.35,-19.5 1338.35,-19.5 1338.35,-0.5 1292.35,-0.5"/>
<text text-anchor="middle" x="1315.35" y="-7.5" font-family="Helvetica,sans-Serif" font-size="10.00">stdio.h</text>
</a>
</g>
</g>
<!-- Node15&#45;&gt;Node16 -->
<g id="edge28" class="edge">
<title>Node15&#45;&gt;Node16</title>
<path fill="none" stroke="midnightblue" d="M1315.35,-61.98C1315.35,-53.58 1315.35,-40.48 1315.35,-29.66"/>
<polygon fill="midnightblue" stroke="midnightblue" points="1318.85,-29.51 1315.35,-19.51 1311.85,-29.51 1318.85,-29.51"/>
</g>
</g>
</svg>
