<?xml version="1.0" encoding="UTF-8" standalone="no"?>
<!DOCTYPE svg PUBLIC "-//W3C//DTD SVG 1.1//EN"
 "http://www.w3.org/Graphics/SVG/1.1/DTD/svg11.dtd">
<!-- Generated by graphviz version 2.47.0 (0)
 -->
<!-- Title: ViennaRNA/utils/strings.h Pages: 1 -->
<svg width="252pt" height="84pt"
 viewBox="0.00 0.00 251.50 84.00" xmlns="http://www.w3.org/2000/svg" xmlns:xlink="http://www.w3.org/1999/xlink">
<g id="graph0" class="graph" transform="scale(1 1) rotate(0) translate(4 80)">
<title>ViennaRNA/utils/strings.h</title>
<!-- Node1 -->
<g id="node1" class="node">
<title>Node1</title>
<g id="a_node1"><a xlink:title="General utility&#45; and helper&#45;functions for RNA sequence and structure strings used throughout the Vien...">
<polygon fill="#bfbfbf" stroke="black" points="63.5,-56.5 63.5,-75.5 193.5,-75.5 193.5,-56.5 63.5,-56.5"/>
<text text-anchor="middle" x="128.5" y="-63.5" font-family="Helvetica,sans-Serif" font-size="10.00">ViennaRNA/utils/strings.h</text>
</a>
</g>
</g>
<!-- Node2 -->
<g id="node2" class="node">
<title>Node2</title>
<g id="a_node2"><a xlink:href="string__utils_8h.html" target="_top" xlink:title="Use ViennaRNA/utils/strings.h instead.">
<polygon fill="none" stroke="black" points="0,-0.5 0,-19.5 127,-19.5 127,-0.5 0,-0.5"/>
<text text-anchor="middle" x="63.5" y="-7.5" font-family="Helvetica,sans-Serif" font-size="10.00">ViennaRNA/string_utils.h</text>
</a>
</g>
</g>
<!-- Node1&#45;&gt;Node2 -->
<g id="edge1" class="edge">
<title>Node1&#45;&gt;Node2</title>
<path fill="none" stroke="midnightblue" d="M110.23,-49.82C98.58,-40.15 83.9,-27.95 74.13,-19.83"/>
<polygon fill="midnightblue" stroke="midnightblue" points="108.13,-52.63 118.06,-56.32 112.6,-47.24 108.13,-52.63"/>
</g>
<!-- Node3 -->
<g id="node3" class="node">
<title>Node3</title>
<g id="a_node3"><a xlink:href="utils_8h.html" target="_top" xlink:title="Use ViennaRNA/utils/basic.h instead.">
<polygon fill="none" stroke="black" points="145.5,-0.5 145.5,-19.5 243.5,-19.5 243.5,-0.5 145.5,-0.5"/>
<text text-anchor="middle" x="194.5" y="-7.5" font-family="Helvetica,sans-Serif" font-size="10.00">ViennaRNA/utils.h</text>
</a>
</g>
</g>
<!-- Node1&#45;&gt;Node3 -->
<g id="edge2" class="edge">
<title>Node1&#45;&gt;Node3</title>
<path fill="none" stroke="midnightblue" d="M147.05,-49.82C158.88,-40.15 173.79,-27.95 183.7,-19.83"/>
<polygon fill="midnightblue" stroke="midnightblue" points="144.63,-47.28 139.1,-56.32 149.06,-52.7 144.63,-47.28"/>
</g>
</g>
</svg>
