<?xml version="1.0" encoding="UTF-8" standalone="no"?>
<!DOCTYPE svg PUBLIC "-//W3C//DTD SVG 1.1//EN"
 "http://www.w3.org/Graphics/SVG/1.1/DTD/svg11.dtd">
<!-- Generated by graphviz version 2.47.0 (0)
 -->
<!-- Title: ViennaRNA/utils/strings.h Pages: 1 -->
<svg width="1581pt" height="341pt"
 viewBox="0.00 0.00 1581.00 341.00" xmlns="http://www.w3.org/2000/svg" xmlns:xlink="http://www.w3.org/1999/xlink">
<g id="graph0" class="graph" transform="scale(1 1) rotate(0) translate(4 337)">
<title>ViennaRNA/utils/strings.h</title>
<!-- Node1 -->
<g id="node1" class="node">
<title>Node1</title>
<g id="a_node1"><a xlink:title="General utility&#45; and helper&#45;functions for RNA sequence and structure strings used throughout the Vien...">
<polygon fill="#bfbfbf" stroke="black" points="793,-313.5 793,-332.5 923,-332.5 923,-313.5 793,-313.5"/>
<text text-anchor="middle" x="858" y="-320.5" font-family="Helvetica,sans-Serif" font-size="10.00">ViennaRNA/utils/strings.h</text>
</a>
</g>
</g>
<!-- Node2 -->
<g id="node2" class="node">
<title>Node2</title>
<g id="a_node2"><a xlink:title=" ">
<polygon fill="none" stroke="#bfbfbf" points="777,-252 777,-271 829,-271 829,-252 777,-252"/>
<text text-anchor="middle" x="803" y="-259" font-family="Helvetica,sans-Serif" font-size="10.00">stdarg.h</text>
</a>
</g>
</g>
<!-- Node1&#45;&gt;Node2 -->
<g id="edge1" class="edge">
<title>Node1&#45;&gt;Node2</title>
<path fill="none" stroke="midnightblue" d="M850.12,-313.48C841.71,-304.37 828.18,-289.74 817.77,-278.48"/>
<polygon fill="midnightblue" stroke="midnightblue" points="820.22,-275.98 810.87,-271.01 815.08,-280.73 820.22,-275.98"/>
</g>
<!-- Node3 -->
<g id="node3" class="node">
<title>Node3</title>
<g id="a_node3"><a xlink:href="datastructures_2basic_8h.html" target="_top" xlink:title="Various data structures and pre&#45;processor macros.">
<polygon fill="none" stroke="black" points="847,-246.5 847,-276.5 981,-276.5 981,-246.5 847,-246.5"/>
<text text-anchor="start" x="855" y="-264.5" font-family="Helvetica,sans-Serif" font-size="10.00">ViennaRNA/datastructures</text>
<text text-anchor="middle" x="914" y="-253.5" font-family="Helvetica,sans-Serif" font-size="10.00">/basic.h</text>
</a>
</g>
</g>
<!-- Node1&#45;&gt;Node3 -->
<g id="edge2" class="edge">
<title>Node1&#45;&gt;Node3</title>
<path fill="none" stroke="midnightblue" d="M866.02,-313.48C873.25,-305.79 884.19,-294.17 893.8,-283.96"/>
<polygon fill="midnightblue" stroke="midnightblue" points="896.5,-286.2 900.8,-276.52 891.4,-281.41 896.5,-286.2"/>
</g>
<!-- Node4 -->
<g id="node4" class="node">
<title>Node4</title>
<g id="a_node4"><a xlink:href="constants_8h.html" target="_top" xlink:title="Energy parameter constants.">
<polygon fill="none" stroke="black" points="0,-62 0,-81 158,-81 158,-62 0,-62"/>
<text text-anchor="middle" x="79" y="-69" font-family="Helvetica,sans-Serif" font-size="10.00">ViennaRNA/params/constants.h</text>
</a>
</g>
</g>
<!-- Node3&#45;&gt;Node4 -->
<g id="edge3" class="edge">
<title>Node3&#45;&gt;Node4</title>
<path fill="none" stroke="midnightblue" d="M846.94,-247.2C843.92,-246.76 840.93,-246.36 838,-246 694.19,-228.38 320.51,-266.28 187,-210 133.72,-187.54 99.94,-122.39 86.13,-90.5"/>
<polygon fill="midnightblue" stroke="midnightblue" points="89.29,-88.97 82.22,-81.07 82.82,-91.65 89.29,-88.97"/>
</g>
<!-- Node6 -->
<g id="node6" class="node">
<title>Node6</title>
<g id="a_node6"><a xlink:href="fold__compound_8h.html" target="_top" xlink:title="The Basic Fold Compound API.">
<polygon fill="none" stroke="black" points="781,-190.5 781,-209.5 927,-209.5 927,-190.5 781,-190.5"/>
<text text-anchor="middle" x="854" y="-197.5" font-family="Helvetica,sans-Serif" font-size="10.00">ViennaRNA/fold_compound.h</text>
</a>
</g>
</g>
<!-- Node3&#45;&gt;Node6 -->
<g id="edge5" class="edge">
<title>Node3&#45;&gt;Node6</title>
<path fill="none" stroke="midnightblue" d="M899.78,-246.4C890.79,-237.49 879.16,-225.95 869.87,-216.74"/>
<polygon fill="midnightblue" stroke="midnightblue" points="872.3,-214.21 862.73,-209.66 867.37,-219.18 872.3,-214.21"/>
</g>
<!-- Node7 -->
<g id="node7" class="node">
<title>Node7</title>
<g id="a_node7"><a xlink:href="model_8h.html" target="_top" xlink:title="The model details data structure and its corresponding modifiers.">
<polygon fill="none" stroke="black" points="176,-62 176,-81 282,-81 282,-62 176,-62"/>
<text text-anchor="middle" x="229" y="-69" font-family="Helvetica,sans-Serif" font-size="10.00">ViennaRNA/model.h</text>
</a>
</g>
</g>
<!-- Node3&#45;&gt;Node7 -->
<g id="edge35" class="edge">
<title>Node3&#45;&gt;Node7</title>
<path fill="none" stroke="midnightblue" d="M846.92,-247.37C843.91,-246.88 840.92,-246.43 838,-246 682.3,-223.36 237.92,-273.86 136,-154 112.61,-126.49 160.09,-99.95 195.42,-84.98"/>
<polygon fill="midnightblue" stroke="midnightblue" points="197.06,-88.09 205,-81.07 194.41,-81.61 197.06,-88.09"/>
</g>
<!-- Node8 -->
<g id="node8" class="node">
<title>Node8</title>
<g id="a_node8"><a xlink:href="params_2basic_8h.html" target="_top" xlink:title="Functions to deal with sets of energy parameters.">
<polygon fill="none" stroke="black" points="145,-129 145,-148 283,-148 283,-129 145,-129"/>
<text text-anchor="middle" x="214" y="-136" font-family="Helvetica,sans-Serif" font-size="10.00">ViennaRNA/params/basic.h</text>
</a>
</g>
</g>
<!-- Node3&#45;&gt;Node8 -->
<g id="edge36" class="edge">
<title>Node3&#45;&gt;Node8</title>
<path fill="none" stroke="midnightblue" d="M847,-249.17C840.9,-248.06 834.83,-246.99 829,-246 720.92,-227.72 693.13,-228 585,-210 450.34,-187.59 417.22,-178.92 283,-154 275.83,-152.67 268.29,-151.27 260.92,-149.88"/>
<polygon fill="midnightblue" stroke="midnightblue" points="261.5,-146.43 251.03,-148.01 260.2,-153.31 261.5,-146.43"/>
</g>
<!-- Node10 -->
<g id="node10" class="node">
<title>Node10</title>
<g id="a_node10"><a xlink:href="dp__matrices_8h.html" target="_top" xlink:title="Functions to deal with standard dynamic programming (DP) matrices.">
<polygon fill="none" stroke="black" points="301.5,-129 301.5,-148 434.5,-148 434.5,-129 301.5,-129"/>
<text text-anchor="middle" x="368" y="-136" font-family="Helvetica,sans-Serif" font-size="10.00">ViennaRNA/dp_matrices.h</text>
</a>
</g>
</g>
<!-- Node3&#45;&gt;Node10 -->
<g id="edge37" class="edge">
<title>Node3&#45;&gt;Node10</title>
<path fill="none" stroke="midnightblue" d="M846.56,-247.37C798.52,-237.21 732.68,-222.77 675,-210 580.06,-188.99 469.13,-164.18 409.96,-150.3"/>
<polygon fill="midnightblue" stroke="midnightblue" points="410.76,-146.89 400.22,-148.01 409.15,-153.71 410.76,-146.89"/>
</g>
<!-- Node11 -->
<g id="node11" class="node">
<title>Node11</title>
<g id="a_node11"><a xlink:href="hard_8h.html" target="_top" xlink:title="Functions and data structures for handling of secondary structure hard constraints.">
<polygon fill="none" stroke="black" points="452.5,-123.5 452.5,-153.5 571.5,-153.5 571.5,-123.5 452.5,-123.5"/>
<text text-anchor="start" x="460.5" y="-141.5" font-family="Helvetica,sans-Serif" font-size="10.00">ViennaRNA/constraints</text>
<text text-anchor="middle" x="512" y="-130.5" font-family="Helvetica,sans-Serif" font-size="10.00">/hard.h</text>
</a>
</g>
</g>
<!-- Node3&#45;&gt;Node11 -->
<g id="edge38" class="edge">
<title>Node3&#45;&gt;Node11</title>
<path fill="none" stroke="midnightblue" d="M867.1,-246.38C792.81,-224.02 648.35,-180.54 568.49,-156.5"/>
<polygon fill="midnightblue" stroke="midnightblue" points="569.19,-153.06 558.6,-153.53 567.17,-159.76 569.19,-153.06"/>
</g>
<!-- Node13 -->
<g id="node13" class="node">
<title>Node13</title>
<g id="a_node13"><a xlink:href="soft_8h.html" target="_top" xlink:title="Functions and data structures for secondary structure soft constraints.">
<polygon fill="none" stroke="black" points="1068.5,-123.5 1068.5,-153.5 1187.5,-153.5 1187.5,-123.5 1068.5,-123.5"/>
<text text-anchor="start" x="1076.5" y="-141.5" font-family="Helvetica,sans-Serif" font-size="10.00">ViennaRNA/constraints</text>
<text text-anchor="middle" x="1128" y="-130.5" font-family="Helvetica,sans-Serif" font-size="10.00">/soft.h</text>
</a>
</g>
</g>
<!-- Node3&#45;&gt;Node13 -->
<g id="edge39" class="edge">
<title>Node3&#45;&gt;Node13</title>
<path fill="none" stroke="midnightblue" d="M934.44,-246.38C970.24,-224.57 1044.2,-182.65 1089.7,-158.3"/>
<polygon fill="midnightblue" stroke="midnightblue" points="1091.49,-161.31 1098.68,-153.53 1088.21,-155.13 1091.49,-161.31"/>
</g>
<!-- Node14 -->
<g id="node14" class="node">
<title>Node14</title>
<g id="a_node14"><a xlink:href="grammar_8h.html" target="_top" xlink:title="Implementations for the RNA folding grammar.">
<polygon fill="none" stroke="black" points="933.5,-129 933.5,-148 1050.5,-148 1050.5,-129 933.5,-129"/>
<text text-anchor="middle" x="992" y="-136" font-family="Helvetica,sans-Serif" font-size="10.00">ViennaRNA/grammar.h</text>
</a>
</g>
</g>
<!-- Node3&#45;&gt;Node14 -->
<g id="edge40" class="edge">
<title>Node3&#45;&gt;Node14</title>
<path fill="none" stroke="midnightblue" d="M923.25,-246.14C937.72,-223.71 965.62,-180.42 981.06,-156.47"/>
<polygon fill="midnightblue" stroke="midnightblue" points="984.01,-158.35 986.49,-148.05 978.13,-154.56 984.01,-158.35"/>
</g>
<!-- Node15 -->
<g id="node15" class="node">
<title>Node15</title>
<g id="a_node15"><a xlink:href="structured__domains_8h.html" target="_top" xlink:title="This module provides interfaces that deal with additional structured domains in the folding grammar.">
<polygon fill="none" stroke="black" points="1205.5,-123.5 1205.5,-153.5 1320.5,-153.5 1320.5,-123.5 1205.5,-123.5"/>
<text text-anchor="start" x="1213.5" y="-141.5" font-family="Helvetica,sans-Serif" font-size="10.00">ViennaRNA/structured</text>
<text text-anchor="middle" x="1263" y="-130.5" font-family="Helvetica,sans-Serif" font-size="10.00">_domains.h</text>
</a>
</g>
</g>
<!-- Node3&#45;&gt;Node15 -->
<g id="edge41" class="edge">
<title>Node3&#45;&gt;Node15</title>
<path fill="none" stroke="midnightblue" d="M954.72,-246.38C1018.81,-224.16 1143.09,-181.07 1212.68,-156.94"/>
<polygon fill="midnightblue" stroke="midnightblue" points="1214.24,-160.11 1222.54,-153.53 1211.95,-153.5 1214.24,-160.11"/>
</g>
<!-- Node16 -->
<g id="node16" class="node">
<title>Node16</title>
<g id="a_node16"><a xlink:href="unstructured__domains_8h.html" target="_top" xlink:title="Functions to modify unstructured domains, e.g. to incorporate ligands binding to unpaired stretches.">
<polygon fill="none" stroke="black" points="1338.5,-123.5 1338.5,-153.5 1463.5,-153.5 1463.5,-123.5 1338.5,-123.5"/>
<text text-anchor="start" x="1346.5" y="-141.5" font-family="Helvetica,sans-Serif" font-size="10.00">ViennaRNA/unstructured</text>
<text text-anchor="middle" x="1401" y="-130.5" font-family="Helvetica,sans-Serif" font-size="10.00">_domains.h</text>
</a>
</g>
</g>
<!-- Node3&#45;&gt;Node16 -->
<g id="edge42" class="edge">
<title>Node3&#45;&gt;Node16</title>
<path fill="none" stroke="midnightblue" d="M966.29,-246.38C1054.15,-223.84 1231.18,-179.83 1330.12,-155.92"/>
<polygon fill="midnightblue" stroke="midnightblue" points="1331.13,-159.27 1340.03,-153.53 1329.49,-152.47 1331.13,-159.27"/>
</g>
<!-- Node17 -->
<g id="node17" class="node">
<title>Node17</title>
<g id="a_node17"><a xlink:href="utils_2structures_8h.html" target="_top" xlink:title="Various utility&#45; and helper&#45;functions for secondary structure parsing, converting,...">
<polygon fill="none" stroke="black" points="1429,-62 1429,-81 1573,-81 1573,-62 1429,-62"/>
<text text-anchor="middle" x="1501" y="-69" font-family="Helvetica,sans-Serif" font-size="10.00">ViennaRNA/utils/structures.h</text>
</a>
</g>
</g>
<!-- Node3&#45;&gt;Node17 -->
<g id="edge43" class="edge">
<title>Node3&#45;&gt;Node17</title>
<path fill="none" stroke="midnightblue" d="M981.18,-255.63C1111.56,-245.2 1392.07,-216.38 1464,-154 1482.33,-138.1 1488.67,-109.64 1493.15,-90.91"/>
<polygon fill="midnightblue" stroke="midnightblue" points="1496.55,-91.74 1495.64,-81.18 1489.77,-90 1496.55,-91.74"/>
</g>
<!-- Node5 -->
<g id="node5" class="node">
<title>Node5</title>
<g id="a_node5"><a xlink:title=" ">
<polygon fill="none" stroke="#bfbfbf" points="55,-0.5 55,-19.5 103,-19.5 103,-0.5 55,-0.5"/>
<text text-anchor="middle" x="79" y="-7.5" font-family="Helvetica,sans-Serif" font-size="10.00">limits.h</text>
</a>
</g>
</g>
<!-- Node4&#45;&gt;Node5 -->
<g id="edge4" class="edge">
<title>Node4&#45;&gt;Node5</title>
<path fill="none" stroke="midnightblue" d="M79,-61.98C79,-53.58 79,-40.48 79,-29.66"/>
<polygon fill="midnightblue" stroke="midnightblue" points="82.5,-29.51 79,-19.51 75.5,-29.51 82.5,-29.51"/>
</g>
<!-- Node6&#45;&gt;Node7 -->
<g id="edge6" class="edge">
<title>Node6&#45;&gt;Node7</title>
<path fill="none" stroke="midnightblue" d="M837.31,-190.41C819.78,-181.37 791.43,-166.73 767,-154 740.73,-140.31 736.35,-131.6 708,-123 563.76,-79.26 385.18,-72.08 292.12,-71.66"/>
<polygon fill="midnightblue" stroke="midnightblue" points="292.03,-68.16 282.02,-71.64 292.02,-75.16 292.03,-68.16"/>
</g>
<!-- Node6&#45;&gt;Node8 -->
<g id="edge7" class="edge">
<title>Node6&#45;&gt;Node8</title>
<path fill="none" stroke="midnightblue" d="M780.57,-195.85C671.45,-190.43 460.57,-177.55 283,-154 274.46,-152.87 265.44,-151.42 256.81,-149.89"/>
<polygon fill="midnightblue" stroke="midnightblue" points="257.39,-146.43 246.92,-148.05 256.12,-153.32 257.39,-146.43"/>
</g>
<!-- Node9 -->
<g id="node9" class="node">
<title>Node9</title>
<g id="a_node9"><a xlink:href="sequence_8h.html" target="_top" xlink:title="Functions and data structures related to sequence representations ,.">
<polygon fill="none" stroke="black" points="793,-129 793,-148 915,-148 915,-129 793,-129"/>
<text text-anchor="middle" x="854" y="-136" font-family="Helvetica,sans-Serif" font-size="10.00">ViennaRNA/sequence.h</text>
</a>
</g>
</g>
<!-- Node6&#45;&gt;Node9 -->
<g id="edge12" class="edge">
<title>Node6&#45;&gt;Node9</title>
<path fill="none" stroke="midnightblue" d="M849.1,-190.48C847.27,-182.08 846.8,-168.98 847.69,-158.16"/>
<polygon fill="midnightblue" stroke="midnightblue" points="851.19,-158.4 849.1,-148.01 844.25,-157.43 851.19,-158.4"/>
</g>
<!-- Node6&#45;&gt;Node10 -->
<g id="edge14" class="edge">
<title>Node6&#45;&gt;Node10</title>
<path fill="none" stroke="midnightblue" d="M780.87,-193.38C696.73,-186.14 554.83,-172.26 434,-154 426.16,-152.82 417.9,-151.39 409.95,-149.91"/>
<polygon fill="midnightblue" stroke="midnightblue" points="410.58,-146.47 400.1,-148.01 409.25,-153.34 410.58,-146.47"/>
</g>
<!-- Node6&#45;&gt;Node11 -->
<g id="edge17" class="edge">
<title>Node6&#45;&gt;Node11</title>
<path fill="none" stroke="midnightblue" d="M790.3,-190.47C735.15,-182.32 653.25,-169.3 578.51,-155.4"/>
<polygon fill="midnightblue" stroke="midnightblue" points="578.97,-151.92 568.49,-153.52 577.68,-158.8 578.97,-151.92"/>
</g>
<!-- Node6&#45;&gt;Node13 -->
<g id="edge21" class="edge">
<title>Node6&#45;&gt;Node13</title>
<path fill="none" stroke="midnightblue" d="M888.36,-190.48C930.89,-180.78 1004.13,-164.81 1058.53,-153.33"/>
<polygon fill="midnightblue" stroke="midnightblue" points="1059.39,-156.72 1068.45,-151.24 1057.94,-149.87 1059.39,-156.72"/>
</g>
<!-- Node6&#45;&gt;Node14 -->
<g id="edge25" class="edge">
<title>Node6&#45;&gt;Node14</title>
<path fill="none" stroke="midnightblue" d="M868.87,-190.48C890.13,-180.36 929.22,-163.4 957.76,-151.85"/>
<polygon fill="midnightblue" stroke="midnightblue" points="959.38,-154.97 967.37,-148.01 956.78,-148.47 959.38,-154.97"/>
</g>
<!-- Node6&#45;&gt;Node15 -->
<g id="edge27" class="edge">
<title>Node6&#45;&gt;Node15</title>
<path fill="none" stroke="midnightblue" d="M927.21,-191.24C994.53,-183.68 1097.31,-171.08 1195.38,-154.2"/>
<polygon fill="midnightblue" stroke="midnightblue" points="1196.21,-157.61 1205.46,-152.44 1195.01,-150.71 1196.21,-157.61"/>
</g>
<!-- Node6&#45;&gt;Node16 -->
<g id="edge28" class="edge">
<title>Node6&#45;&gt;Node16</title>
<path fill="none" stroke="midnightblue" d="M927.07,-194.1C1019.25,-187.66 1182.25,-174.67 1321,-154 1323.36,-153.65 1325.76,-153.27 1328.19,-152.87"/>
<polygon fill="midnightblue" stroke="midnightblue" points="1329.02,-156.28 1338.27,-151.11 1327.82,-149.38 1329.02,-156.28"/>
</g>
<!-- Node19 -->
<g id="node19" class="node">
<title>Node19</title>
<g id="a_node19"><a xlink:href="zscore_8h_source.html" target="_top" xlink:title=" ">
<polygon fill="none" stroke="black" points="589.5,-129 589.5,-148 698.5,-148 698.5,-129 589.5,-129"/>
<text text-anchor="middle" x="644" y="-136" font-family="Helvetica,sans-Serif" font-size="10.00">ViennaRNA/zscore.h</text>
</a>
</g>
</g>
<!-- Node6&#45;&gt;Node19 -->
<g id="edge34" class="edge">
<title>Node6&#45;&gt;Node19</title>
<path fill="none" stroke="midnightblue" d="M823.91,-190.48C787.11,-180.05 724.69,-162.36 683.91,-150.81"/>
<polygon fill="midnightblue" stroke="midnightblue" points="684.61,-147.37 674.03,-148.01 682.7,-154.1 684.61,-147.37"/>
</g>
<!-- Node8&#45;&gt;Node3 -->
<g id="edge9" class="edge">
<title>Node8&#45;&gt;Node3</title>
<path fill="none" stroke="midnightblue" d="M268.54,-148.01C279.36,-149.98 290.57,-152.06 301,-154 435.22,-178.92 468.34,-187.59 603,-210 707.75,-227.43 737.1,-227.72 839.64,-244.77"/>
<polygon fill="midnightblue" stroke="midnightblue" points="839.36,-248.27 849.8,-246.48 840.52,-241.37 839.36,-248.27"/>
</g>
<!-- Node8&#45;&gt;Node4 -->
<g id="edge8" class="edge">
<title>Node8&#45;&gt;Node4</title>
<path fill="none" stroke="midnightblue" d="M196.07,-128.87C173.08,-117.8 132.97,-98.49 106.2,-85.6"/>
<polygon fill="midnightblue" stroke="midnightblue" points="107.53,-82.35 97,-81.17 104.49,-88.66 107.53,-82.35"/>
</g>
<!-- Node8&#45;&gt;Node6 -->
<g id="edge10" class="edge">
<title>Node8&#45;&gt;Node6</title>
<path fill="none" stroke="midnightblue" d="M264.21,-148.05C276.31,-150.25 289.12,-152.42 301,-154 466.91,-176 661.9,-188.69 770.44,-194.69"/>
<polygon fill="midnightblue" stroke="midnightblue" points="770.49,-198.2 780.67,-195.25 770.87,-191.21 770.49,-198.2"/>
</g>
<!-- Node8&#45;&gt;Node7 -->
<g id="edge11" class="edge">
<title>Node8&#45;&gt;Node7</title>
<path fill="none" stroke="midnightblue" d="M216.02,-128.73C218.25,-119.09 221.89,-103.3 224.75,-90.91"/>
<polygon fill="midnightblue" stroke="midnightblue" points="228.17,-91.66 227.01,-81.13 221.35,-90.08 228.17,-91.66"/>
</g>
<!-- Node9&#45;&gt;Node6 -->
<g id="edge13" class="edge">
<title>Node9&#45;&gt;Node6</title>
<path fill="none" stroke="midnightblue" d="M858.9,-148.01C860.73,-156.4 861.2,-169.5 860.32,-180.32"/>
<polygon fill="midnightblue" stroke="midnightblue" points="856.81,-180.09 858.9,-190.48 863.75,-181.05 856.81,-180.09"/>
</g>
<!-- Node10&#45;&gt;Node3 -->
<g id="edge15" class="edge">
<title>Node10&#45;&gt;Node3</title>
<path fill="none" stroke="midnightblue" d="M411.64,-148.01C474.25,-161.3 592.57,-187.77 693,-210 744.84,-221.47 803.29,-234.31 847.11,-244.16"/>
<polygon fill="midnightblue" stroke="midnightblue" points="846.55,-247.62 857.07,-246.41 848.09,-240.79 846.55,-247.62"/>
</g>
<!-- Node10&#45;&gt;Node6 -->
<g id="edge16" class="edge">
<title>Node10&#45;&gt;Node6</title>
<path fill="none" stroke="midnightblue" d="M417.44,-148.01C428.84,-150.15 440.85,-152.32 452,-154 561.92,-170.61 689.27,-183.6 770.73,-191.26"/>
<polygon fill="midnightblue" stroke="midnightblue" points="770.65,-194.77 780.93,-192.21 771.3,-187.8 770.65,-194.77"/>
</g>
<!-- Node11&#45;&gt;Node6 -->
<g id="edge18" class="edge">
<title>Node11&#45;&gt;Node6</title>
<path fill="none" stroke="midnightblue" d="M571.76,-150.61C577.6,-151.79 583.42,-152.95 589,-154 659.32,-167.26 740.21,-180.27 794.02,-188.87"/>
<polygon fill="midnightblue" stroke="midnightblue" points="793.64,-192.35 804.07,-190.47 794.75,-185.44 793.64,-192.35"/>
</g>
<!-- Node12 -->
<g id="node12" class="node">
<title>Node12</title>
<g id="a_node12"><a xlink:href="constraints_2basic_8h.html" target="_top" xlink:title="Functions and data structures for constraining secondary structure predictions and evaluation.">
<polygon fill="none" stroke="black" points="705.5,-56.5 705.5,-86.5 824.5,-86.5 824.5,-56.5 705.5,-56.5"/>
<text text-anchor="start" x="713.5" y="-74.5" font-family="Helvetica,sans-Serif" font-size="10.00">ViennaRNA/constraints</text>
<text text-anchor="middle" x="765" y="-63.5" font-family="Helvetica,sans-Serif" font-size="10.00">/basic.h</text>
</a>
</g>
</g>
<!-- Node11&#45;&gt;Node12 -->
<g id="edge19" class="edge">
<title>Node11&#45;&gt;Node12</title>
<path fill="none" stroke="midnightblue" d="M566.59,-123.48C605.85,-113.39 658.97,-99.74 700.36,-89.11"/>
<polygon fill="midnightblue" stroke="midnightblue" points="701.26,-92.49 710.08,-86.61 699.52,-85.71 701.26,-92.49"/>
</g>
<!-- Node12&#45;&gt;Node6 -->
<g id="edge20" class="edge">
<title>Node12&#45;&gt;Node6</title>
<path fill="none" stroke="midnightblue" d="M765.16,-86.77C766.01,-104.15 769.68,-133.7 784,-154 793.74,-167.81 809.2,-178.4 823.12,-185.82"/>
<polygon fill="midnightblue" stroke="midnightblue" points="821.9,-189.13 832.41,-190.46 825.03,-182.87 821.9,-189.13"/>
</g>
<!-- Node13&#45;&gt;Node3 -->
<g id="edge22" class="edge">
<title>Node13&#45;&gt;Node3</title>
<path fill="none" stroke="midnightblue" d="M1107.7,-153.53C1072.01,-175.28 998.07,-217.2 952.49,-241.6"/>
<polygon fill="midnightblue" stroke="midnightblue" points="950.68,-238.6 943.49,-246.38 953.96,-244.78 950.68,-238.6"/>
</g>
<!-- Node13&#45;&gt;Node6 -->
<g id="edge23" class="edge">
<title>Node13&#45;&gt;Node6</title>
<path fill="none" stroke="midnightblue" d="M1069.25,-153.52C1021.43,-164.21 954.57,-178.69 908.05,-188.41"/>
<polygon fill="midnightblue" stroke="midnightblue" points="907.23,-185.01 898.16,-190.48 908.66,-191.86 907.23,-185.01"/>
</g>
<!-- Node13&#45;&gt;Node12 -->
<g id="edge24" class="edge">
<title>Node13&#45;&gt;Node12</title>
<path fill="none" stroke="midnightblue" d="M1068.32,-124.63C1065.51,-124.07 1062.73,-123.52 1060,-123 983.18,-108.24 894.7,-93.38 834.83,-83.64"/>
<polygon fill="midnightblue" stroke="midnightblue" points="835.17,-80.14 824.74,-82 834.05,-87.05 835.17,-80.14"/>
</g>
<!-- Node14&#45;&gt;Node6 -->
<g id="edge26" class="edge">
<title>Node14&#45;&gt;Node6</title>
<path fill="none" stroke="midnightblue" d="M977.16,-148.01C955.92,-158.12 916.84,-175.07 888.29,-186.63"/>
<polygon fill="midnightblue" stroke="midnightblue" points="886.66,-183.51 878.67,-190.48 889.26,-190.01 886.66,-183.51"/>
</g>
<!-- Node16&#45;&gt;Node3 -->
<g id="edge29" class="edge">
<title>Node16&#45;&gt;Node3</title>
<path fill="none" stroke="midnightblue" d="M1349.06,-153.53C1261.44,-176.01 1084.42,-220.02 985.27,-243.99"/>
<polygon fill="midnightblue" stroke="midnightblue" points="984.24,-240.63 975.34,-246.38 985.88,-247.44 984.24,-240.63"/>
</g>
<!-- Node16&#45;&gt;Node6 -->
<g id="edge30" class="edge">
<title>Node16&#45;&gt;Node6</title>
<path fill="none" stroke="midnightblue" d="M1342.01,-153.54C1341,-153.7 1340,-153.85 1339,-154 1199.04,-174.85 1034.42,-187.88 937.37,-194.27"/>
<polygon fill="midnightblue" stroke="midnightblue" points="937.08,-190.78 927.33,-194.92 937.54,-197.76 937.08,-190.78"/>
</g>
<!-- Node16&#45;&gt;Node17 -->
<g id="edge31" class="edge">
<title>Node16&#45;&gt;Node17</title>
<path fill="none" stroke="midnightblue" d="M1422.7,-123.4C1439.47,-112.5 1462.57,-97.48 1479.33,-86.58"/>
<polygon fill="midnightblue" stroke="midnightblue" points="1481.44,-89.39 1487.91,-81.01 1477.62,-83.52 1481.44,-89.39"/>
</g>
<!-- Node17&#45;&gt;Node3 -->
<g id="edge33" class="edge">
<title>Node17&#45;&gt;Node3</title>
<path fill="none" stroke="midnightblue" d="M1505.81,-81.18C1508.7,-97.99 1503.93,-134.99 1482,-154 1410,-216.43 1129.05,-245.25 991.12,-255.66"/>
<polygon fill="midnightblue" stroke="midnightblue" points="990.76,-252.18 981.04,-256.41 991.27,-259.16 990.76,-252.18"/>
</g>
<!-- Node18 -->
<g id="node18" class="node">
<title>Node18</title>
<g id="a_node18"><a xlink:title=" ">
<polygon fill="none" stroke="#bfbfbf" points="1478,-0.5 1478,-19.5 1524,-19.5 1524,-0.5 1478,-0.5"/>
<text text-anchor="middle" x="1501" y="-7.5" font-family="Helvetica,sans-Serif" font-size="10.00">stdio.h</text>
</a>
</g>
</g>
<!-- Node17&#45;&gt;Node18 -->
<g id="edge32" class="edge">
<title>Node17&#45;&gt;Node18</title>
<path fill="none" stroke="midnightblue" d="M1501,-61.98C1501,-53.58 1501,-40.48 1501,-29.66"/>
<polygon fill="midnightblue" stroke="midnightblue" points="1504.5,-29.51 1501,-19.51 1497.5,-29.51 1504.5,-29.51"/>
</g>
</g>
</svg>
