<?xml version="1.0" encoding="UTF-8" standalone="no"?>
<!DOCTYPE svg PUBLIC "-//W3C//DTD SVG 1.1//EN"
 "http://www.w3.org/Graphics/SVG/1.1/DTD/svg11.dtd">
<!-- Generated by graphviz version 2.47.0 (0)
 -->
<!-- Title: vrna_path_s Pages: 1 -->
<svg width="123pt" height="95pt"
 viewBox="0.00 0.00 123.00 95.00" xmlns="http://www.w3.org/2000/svg" xmlns:xlink="http://www.w3.org/1999/xlink">
<g id="graph0" class="graph" transform="scale(1 1) rotate(0) translate(4 91)">
<title>vrna_path_s</title>
<!-- Node1 -->
<g id="node1" class="node">
<title>Node1</title>
<g id="a_node1"><a xlink:title="An element of a refolding path list.">
<polygon fill="#bfbfbf" stroke="black" points="2.5,-0.5 2.5,-19.5 72.5,-19.5 72.5,-0.5 2.5,-0.5"/>
<text text-anchor="middle" x="37.5" y="-7.5" font-family="Helvetica,sans-Serif" font-size="10.00">vrna_path_s</text>
</a>
</g>
</g>
<!-- Node2 -->
<g id="node2" class="node">
<title>Node2</title>
<g id="a_node2"><a xlink:href="group__neighbors.html#structvrna__move__s" target="_top" xlink:title="An atomic representation of the transition / move from one structure to its neighbor.">
<polygon fill="none" stroke="black" points="0,-67.5 0,-86.5 75,-86.5 75,-67.5 0,-67.5"/>
<text text-anchor="middle" x="37.5" y="-74.5" font-family="Helvetica,sans-Serif" font-size="10.00">vrna_move_s</text>
</a>
</g>
</g>
<!-- Node2&#45;&gt;Node1 -->
<g id="edge1" class="edge">
<title>Node2&#45;&gt;Node1</title>
<path fill="none" stroke="#9a32cd" stroke-dasharray="5,2" d="M37.5,-57.04C37.5,-44.67 37.5,-29.12 37.5,-19.63"/>
<polygon fill="#9a32cd" stroke="#9a32cd" points="34,-57.23 37.5,-67.23 41,-57.23 34,-57.23"/>
<text text-anchor="middle" x="51.5" y="-41" font-family="Helvetica,sans-Serif" font-size="10.00"> move</text>
</g>
<!-- Node2&#45;&gt;Node2 -->
<g id="edge2" class="edge">
<title>Node2&#45;&gt;Node2</title>
<path fill="none" stroke="#9a32cd" stroke-dasharray="5,2" d="M85.24,-81.9C89.98,-80.92 93,-79.29 93,-77 93,-73.34 85.27,-71.36 75.11,-71.04"/>
<polygon fill="#9a32cd" stroke="#9a32cd" points="84.69,-78.43 75.11,-82.96 85.42,-85.4 84.69,-78.43"/>
<text text-anchor="middle" x="104" y="-74.5" font-family="Helvetica,sans-Serif" font-size="10.00"> next</text>
</g>
</g>
</svg>
