<?xml version="1.0" encoding="UTF-8" standalone="no"?>
<!DOCTYPE svg PUBLIC "-//W3C//DTD SVG 1.1//EN"
 "http://www.w3.org/Graphics/SVG/1.1/DTD/svg11.dtd">
<!-- Generated by graphviz version 2.47.0 (0)
 -->
<!-- Title: TwoDpfold_vars Pages: 1 -->
<svg width="706pt" height="417pt"
 viewBox="0.00 0.00 706.00 417.00" xmlns="http://www.w3.org/2000/svg" xmlns:xlink="http://www.w3.org/1999/xlink">
<g id="graph0" class="graph" transform="scale(1 1) rotate(0) translate(4 413)">
<title>TwoDpfold_vars</title>
<!-- Node1 -->
<g id="node1" class="node">
<title>Node1</title>
<g id="a_node1"><a xlink:title="Variables compound for 2Dfold partition function folding.">
<polygon fill="#bfbfbf" stroke="black" points="611,-319.5 611,-338.5 698,-338.5 698,-319.5 611,-319.5"/>
<text text-anchor="middle" x="654.5" y="-326.5" font-family="Helvetica,sans-Serif" font-size="10.00">TwoDpfold_vars</text>
</a>
</g>
</g>
<!-- Node2 -->
<g id="node2" class="node">
<title>Node2</title>
<g id="a_node2"><a xlink:href="group__energy__parameters.html#structvrna__exp__param__s" target="_top" xlink:title="The data structure that contains temperature scaled Boltzmann weights of the energy parameters.">
<polygon fill="none" stroke="black" points="234.5,-389.5 234.5,-408.5 333.5,-408.5 333.5,-389.5 234.5,-389.5"/>
<text text-anchor="middle" x="284" y="-396.5" font-family="Helvetica,sans-Serif" font-size="10.00">vrna_exp_param_s</text>
</a>
</g>
</g>
<!-- Node2&#45;&gt;Node1 -->
<g id="edge1" class="edge">
<title>Node2&#45;&gt;Node1</title>
<path fill="none" stroke="#9a32cd" stroke-dasharray="5,2" d="M343.88,-400.52C353.61,-400.72 363.59,-400.89 373,-401 402.78,-401.34 410.62,-405.82 440,-401 513.15,-389 594.99,-355.31 632.57,-338.62"/>
<polygon fill="#9a32cd" stroke="#9a32cd" points="343.94,-397.02 333.87,-400.31 343.79,-404.02 343.94,-397.02"/>
<text text-anchor="middle" x="487.5" y="-400" font-family="Helvetica,sans-Serif" font-size="10.00"> pf_params</text>
</g>
<!-- Node4 -->
<g id="node4" class="node">
<title>Node4</title>
<g id="a_node4"><a xlink:href="group__fold__compound.html#structvrna__fc__s" target="_top" xlink:title="The most basic data structure required by many functions throughout the RNAlib.">
<polygon fill="none" stroke="black" points="458,-215.5 458,-234.5 517,-234.5 517,-215.5 458,-215.5"/>
<text text-anchor="middle" x="487.5" y="-222.5" font-family="Helvetica,sans-Serif" font-size="10.00">vrna_fc_s</text>
</a>
</g>
</g>
<!-- Node2&#45;&gt;Node4 -->
<g id="edge6" class="edge">
<title>Node2&#45;&gt;Node4</title>
<path fill="none" stroke="#9a32cd" stroke-dasharray="5,2" d="M344.03,-392.97C381.62,-388 425.81,-379.67 440,-367 480.05,-331.23 485.73,-260.46 486.44,-234.68"/>
<polygon fill="#9a32cd" stroke="#9a32cd" points="343.12,-389.56 333.64,-394.29 344,-396.5 343.12,-389.56"/>
<text text-anchor="middle" x="406.5" y="-391" font-family="Helvetica,sans-Serif" font-size="10.00"> exp_params</text>
</g>
<!-- Node3 -->
<g id="node3" class="node">
<title>Node3</title>
<g id="a_node3"><a xlink:href="group__model__details.html#structvrna__md__s" target="_top" xlink:title="The data structure that contains the complete model details used throughout the calculations.">
<polygon fill="none" stroke="black" points="24,-370.5 24,-389.5 89,-389.5 89,-370.5 24,-370.5"/>
<text text-anchor="middle" x="56.5" y="-377.5" font-family="Helvetica,sans-Serif" font-size="10.00">vrna_md_s</text>
</a>
</g>
</g>
<!-- Node3&#45;&gt;Node2 -->
<g id="edge2" class="edge">
<title>Node3&#45;&gt;Node2</title>
<path fill="none" stroke="#9a32cd" stroke-dasharray="5,2" d="M99.6,-383.55C137.83,-386.77 194.21,-391.52 234.35,-394.9"/>
<polygon fill="#9a32cd" stroke="#9a32cd" points="99.59,-380.03 89.33,-382.68 99,-387.01 99.59,-380.03"/>
<text text-anchor="middle" x="163" y="-394" font-family="Helvetica,sans-Serif" font-size="10.00"> model_details</text>
</g>
<!-- Node7 -->
<g id="node7" class="node">
<title>Node7</title>
<g id="a_node7"><a xlink:href="group__energy__parameters.html#structvrna__param__s" target="_top" xlink:title="The datastructure that contains temperature scaled energy parameters.">
<polygon fill="none" stroke="black" points="245,-351.5 245,-370.5 323,-370.5 323,-351.5 245,-351.5"/>
<text text-anchor="middle" x="284" y="-358.5" font-family="Helvetica,sans-Serif" font-size="10.00">vrna_param_s</text>
</a>
</g>
</g>
<!-- Node3&#45;&gt;Node7 -->
<g id="edge8" class="edge">
<title>Node3&#45;&gt;Node7</title>
<path fill="none" stroke="#9a32cd" stroke-dasharray="5,2" d="M99.34,-374.46C109.67,-373.21 120.73,-371.97 131,-371 169.7,-367.36 214.08,-364.6 244.85,-362.92"/>
<polygon fill="#9a32cd" stroke="#9a32cd" points="98.79,-371.01 89.29,-375.71 99.65,-377.95 98.79,-371.01"/>
<text text-anchor="middle" x="163" y="-374" font-family="Helvetica,sans-Serif" font-size="10.00"> model_details</text>
</g>
<!-- Node4&#45;&gt;Node1 -->
<g id="edge3" class="edge">
<title>Node4&#45;&gt;Node1</title>
<path fill="none" stroke="#9a32cd" stroke-dasharray="5,2" d="M512.23,-239.96C546.66,-261.66 609.48,-301.26 638.31,-319.43"/>
<polygon fill="#9a32cd" stroke="#9a32cd" points="514.05,-236.97 503.73,-234.6 510.32,-242.89 514.05,-236.97"/>
<text text-anchor="middle" x="564" y="-292" font-family="Helvetica,sans-Serif" font-size="10.00"> compatibility</text>
</g>
<!-- Node5 -->
<g id="node5" class="node">
<title>Node5</title>
<g id="a_node5"><a xlink:href="group__soft__constraints.html#structvrna__sc__s" target="_top" xlink:title="The soft constraints data structure.">
<polygon fill="none" stroke="black" points="253,-275.5 253,-294.5 315,-294.5 315,-275.5 253,-275.5"/>
<text text-anchor="middle" x="284" y="-282.5" font-family="Helvetica,sans-Serif" font-size="10.00">vrna_sc_s</text>
</a>
</g>
</g>
<!-- Node5&#45;&gt;Node4 -->
<g id="edge4" class="edge">
<title>Node5&#45;&gt;Node4</title>
<path fill="none" stroke="#9a32cd" stroke-dasharray="5,2" d="M325.5,-279.96C357.38,-275.15 402.52,-266.45 440,-252 451.5,-247.57 463.5,-240.53 472.43,-234.75"/>
<polygon fill="#9a32cd" stroke="#9a32cd" points="324.63,-276.55 315.23,-281.44 325.63,-283.48 324.63,-276.55"/>
<text text-anchor="middle" x="406.5" y="-285" font-family="Helvetica,sans-Serif" font-size="10.00"> sc</text>
<text text-anchor="middle" x="406.5" y="-274" font-family="Helvetica,sans-Serif" font-size="10.00">scs</text>
</g>
<!-- Node6 -->
<g id="node6" class="node">
<title>Node6</title>
<g id="a_node6"><a xlink:href="structvrna__sc__bp__storage__t.html" target="_top" xlink:title="A base pair constraint.">
<polygon fill="none" stroke="black" points="0,-275.5 0,-294.5 113,-294.5 113,-275.5 0,-275.5"/>
<text text-anchor="middle" x="56.5" y="-282.5" font-family="Helvetica,sans-Serif" font-size="10.00">vrna_sc_bp_storage_t</text>
</a>
</g>
</g>
<!-- Node6&#45;&gt;Node5 -->
<g id="edge5" class="edge">
<title>Node6&#45;&gt;Node5</title>
<path fill="none" stroke="#9a32cd" stroke-dasharray="5,2" d="M123.3,-285C166.08,-285 219.83,-285 252.78,-285"/>
<polygon fill="#9a32cd" stroke="#9a32cd" points="123.24,-281.5 113.24,-285 123.24,-288.5 123.24,-281.5"/>
<text text-anchor="middle" x="163" y="-288" font-family="Helvetica,sans-Serif" font-size="10.00"> bp_storage</text>
</g>
<!-- Node7&#45;&gt;Node4 -->
<g id="edge7" class="edge">
<title>Node7&#45;&gt;Node4</title>
<path fill="none" stroke="#9a32cd" stroke-dasharray="5,2" d="M333.32,-357.25C372.5,-353.32 423.79,-345.88 440,-333 471.96,-307.6 482.37,-255.97 485.39,-234.6"/>
<polygon fill="#9a32cd" stroke="#9a32cd" points="332.76,-353.79 323.14,-358.22 333.42,-360.76 332.76,-353.79"/>
<text text-anchor="middle" x="406.5" y="-355" font-family="Helvetica,sans-Serif" font-size="10.00"> params</text>
</g>
<!-- Node8 -->
<g id="node8" class="node">
<title>Node8</title>
<g id="a_node8"><a xlink:href="group__hard__constraints.html#structvrna__hc__s" target="_top" xlink:title="The hard constraints data structure.">
<polygon fill="none" stroke="black" points="253,-237.5 253,-256.5 315,-256.5 315,-237.5 253,-237.5"/>
<text text-anchor="middle" x="284" y="-244.5" font-family="Helvetica,sans-Serif" font-size="10.00">vrna_hc_s</text>
</a>
</g>
</g>
<!-- Node8&#45;&gt;Node4 -->
<g id="edge9" class="edge">
<title>Node8&#45;&gt;Node4</title>
<path fill="none" stroke="#9a32cd" stroke-dasharray="5,2" d="M325.18,-242.61C364.38,-238.33 423.03,-231.93 457.76,-228.14"/>
<polygon fill="#9a32cd" stroke="#9a32cd" points="324.73,-239.14 315.17,-243.71 325.49,-246.1 324.73,-239.14"/>
<text text-anchor="middle" x="406.5" y="-240" font-family="Helvetica,sans-Serif" font-size="10.00"> hc</text>
</g>
<!-- Node9 -->
<g id="node9" class="node">
<title>Node9</title>
<g id="a_node9"><a xlink:href="group__alphabet__utils.html#structvrna__sequence__s" target="_top" xlink:title="Data structure representing a nucleotide sequence.">
<polygon fill="none" stroke="black" points="10,-180.5 10,-199.5 103,-199.5 103,-180.5 10,-180.5"/>
<text text-anchor="middle" x="56.5" y="-187.5" font-family="Helvetica,sans-Serif" font-size="10.00">vrna_sequence_s</text>
</a>
</g>
</g>
<!-- Node9&#45;&gt;Node4 -->
<g id="edge10" class="edge">
<title>Node9&#45;&gt;Node4</title>
<path fill="none" stroke="#9a32cd" stroke-dasharray="5,2" d="M113.01,-194.53C205.46,-202.07 387.72,-216.94 457.96,-222.67"/>
<polygon fill="#9a32cd" stroke="#9a32cd" points="113.26,-191.04 103,-193.71 112.69,-198.01 113.26,-191.04"/>
<text text-anchor="middle" x="284" y="-216" font-family="Helvetica,sans-Serif" font-size="10.00"> nucleotides</text>
</g>
<!-- Node10 -->
<g id="node10" class="node">
<title>Node10</title>
<g id="a_node10"><a xlink:href="group__alphabet__utils.html#structvrna__alignment__s" target="_top" xlink:title=" ">
<polygon fill="none" stroke="black" points="237.5,-152.5 237.5,-171.5 330.5,-171.5 330.5,-152.5 237.5,-152.5"/>
<text text-anchor="middle" x="284" y="-159.5" font-family="Helvetica,sans-Serif" font-size="10.00">vrna_alignment_s</text>
</a>
</g>
</g>
<!-- Node9&#45;&gt;Node10 -->
<g id="edge12" class="edge">
<title>Node9&#45;&gt;Node10</title>
<path fill="none" stroke="#9a32cd" stroke-dasharray="5,2" d="M113.08,-183.1C151.34,-178.35 201.54,-172.11 237.43,-167.66"/>
<polygon fill="#9a32cd" stroke="#9a32cd" points="112.63,-179.63 103.13,-184.33 113.49,-186.57 112.63,-179.63"/>
<text text-anchor="middle" x="163" y="-184" font-family="Helvetica,sans-Serif" font-size="10.00"> sequences</text>
</g>
<!-- Node10&#45;&gt;Node4 -->
<g id="edge11" class="edge">
<title>Node10&#45;&gt;Node4</title>
<path fill="none" stroke="#9a32cd" stroke-dasharray="5,2" d="M340.79,-161.63C371.33,-163.34 409.13,-168.67 440,-183 455.98,-190.42 470.36,-205.27 478.76,-215.17"/>
<polygon fill="#9a32cd" stroke="#9a32cd" points="340.88,-158.13 330.74,-161.18 340.57,-165.12 340.88,-158.13"/>
<text text-anchor="middle" x="406.5" y="-186" font-family="Helvetica,sans-Serif" font-size="10.00"> alignment</text>
</g>
<!-- Node11 -->
<g id="node11" class="node">
<title>Node11</title>
<g id="a_node11"><a xlink:href="group__domains__up.html#structvrna__unstructured__domain__s" target="_top" xlink:title="Data structure to store all functionality for ligand binding.">
<polygon fill="none" stroke="black" points="213,-114.5 213,-133.5 355,-133.5 355,-114.5 213,-114.5"/>
<text text-anchor="middle" x="284" y="-121.5" font-family="Helvetica,sans-Serif" font-size="10.00">vrna_unstructured_domain_s</text>
</a>
</g>
</g>
<!-- Node11&#45;&gt;Node4 -->
<g id="edge13" class="edge">
<title>Node11&#45;&gt;Node4</title>
<path fill="none" stroke="#9a32cd" stroke-dasharray="5,2" d="M365.29,-124.65C390.89,-128.07 418.2,-135.37 440,-150 463.92,-166.05 477.78,-198.97 483.46,-215.33"/>
<polygon fill="#9a32cd" stroke="#9a32cd" points="365.53,-121.15 355.2,-123.48 364.73,-128.1 365.53,-121.15"/>
<text text-anchor="middle" x="406.5" y="-153" font-family="Helvetica,sans-Serif" font-size="10.00"> domains_up</text>
</g>
<!-- Node12 -->
<g id="node12" class="node">
<title>Node12</title>
<g id="a_node12"><a xlink:href="group__dp__matrices.html#structvrna__mx__mfe__s" target="_top" xlink:title="Minimum Free Energy (MFE) Dynamic Programming (DP) matrices data structure required within the vrna_f...">
<polygon fill="none" stroke="black" points="241,-76.5 241,-95.5 327,-95.5 327,-76.5 241,-76.5"/>
<text text-anchor="middle" x="284" y="-83.5" font-family="Helvetica,sans-Serif" font-size="10.00">vrna_mx_mfe_s</text>
</a>
</g>
</g>
<!-- Node12&#45;&gt;Node4 -->
<g id="edge14" class="edge">
<title>Node12&#45;&gt;Node4</title>
<path fill="none" stroke="#9a32cd" stroke-dasharray="5,2" d="M337.58,-82.55C370.29,-83.15 411.42,-89.2 440,-112 473.33,-138.59 482.99,-193.09 485.6,-215.28"/>
<polygon fill="#9a32cd" stroke="#9a32cd" points="337.29,-79.05 327.28,-82.54 337.28,-86.05 337.29,-79.05"/>
<text text-anchor="middle" x="406.5" y="-115" font-family="Helvetica,sans-Serif" font-size="10.00"> matrices</text>
</g>
<!-- Node13 -->
<g id="node13" class="node">
<title>Node13</title>
<g id="a_node13"><a xlink:href="group__grammar.html#structvrna__gr__aux__s" target="_top" xlink:title=" ">
<polygon fill="none" stroke="black" points="244,-38.5 244,-57.5 324,-57.5 324,-38.5 244,-38.5"/>
<text text-anchor="middle" x="284" y="-45.5" font-family="Helvetica,sans-Serif" font-size="10.00">vrna_gr_aux_s</text>
</a>
</g>
</g>
<!-- Node13&#45;&gt;Node4 -->
<g id="edge15" class="edge">
<title>Node13&#45;&gt;Node4</title>
<path fill="none" stroke="#9a32cd" stroke-dasharray="5,2" d="M334.2,-42.54C367.8,-41.59 411.27,-46.18 440,-71 484.17,-109.16 487.21,-187.65 486.84,-215.19"/>
<polygon fill="#9a32cd" stroke="#9a32cd" points="333.94,-39.05 324.11,-43 334.26,-46.04 333.94,-39.05"/>
<text text-anchor="middle" x="406.5" y="-74" font-family="Helvetica,sans-Serif" font-size="10.00"> aux_grammar</text>
</g>
<!-- Node14 -->
<g id="node14" class="node">
<title>Node14</title>
<g id="a_node14"><a xlink:href="group__dp__matrices.html#structvrna__mx__pf__s" target="_top" xlink:title="Partition function (PF) Dynamic Programming (DP) matrices data structure required within the vrna_fol...">
<polygon fill="none" stroke="black" points="245,-0.5 245,-19.5 323,-19.5 323,-0.5 245,-0.5"/>
<text text-anchor="middle" x="284" y="-7.5" font-family="Helvetica,sans-Serif" font-size="10.00">vrna_mx_pf_s</text>
</a>
</g>
</g>
<!-- Node14&#45;&gt;Node4 -->
<g id="edge16" class="edge">
<title>Node14&#45;&gt;Node4</title>
<path fill="none" stroke="#9a32cd" stroke-dasharray="5,2" d="M333.24,-3.01C367.19,-0.93 411.48,-4.35 440,-30 468.21,-55.37 482.09,-178.94 485.59,-215.06"/>
<polygon fill="#9a32cd" stroke="#9a32cd" points="332.76,0.46 323.07,-3.81 333.31,-6.51 332.76,0.46"/>
<text text-anchor="middle" x="406.5" y="-33" font-family="Helvetica,sans-Serif" font-size="10.00"> exp_matrices</text>
</g>
<!-- Node15 -->
<g id="node15" class="node">
<title>Node15</title>
<g id="a_node15"><a xlink:href="structvrna__structured__domains__s.html" target="_top" xlink:title=" ">
<polygon fill="none" stroke="black" points="215.5,-313.5 215.5,-332.5 352.5,-332.5 352.5,-313.5 215.5,-313.5"/>
<text text-anchor="middle" x="284" y="-320.5" font-family="Helvetica,sans-Serif" font-size="10.00">vrna_structured_domains_s</text>
</a>
</g>
</g>
<!-- Node15&#45;&gt;Node4 -->
<g id="edge17" class="edge">
<title>Node15&#45;&gt;Node4</title>
<path fill="none" stroke="#9a32cd" stroke-dasharray="5,2" d="M362.67,-322.44C388.96,-319.14 417.36,-311.89 440,-297 463.25,-281.71 477.34,-250.34 483.25,-234.54"/>
<polygon fill="#9a32cd" stroke="#9a32cd" points="362.28,-318.96 352.72,-323.52 363.04,-325.92 362.28,-318.96"/>
<text text-anchor="middle" x="406.5" y="-323" font-family="Helvetica,sans-Serif" font-size="10.00"> domains_struc</text>
</g>
</g>
</svg>
