<?xml version="1.0" encoding="UTF-8" standalone="no"?>
<!DOCTYPE svg PUBLIC "-//W3C//DTD SVG 1.1//EN"
 "http://www.w3.org/Graphics/SVG/1.1/DTD/svg11.dtd">
<!-- Generated by graphviz version 2.47.0 (0)
 -->
<!-- Title: vrna_fc_s Pages: 1 -->
<!--zoomable 428 -->
<svg id="main" version="1.1" xmlns="http://www.w3.org/2000/svg" xmlns:xlink="http://www.w3.org/1999/xlink" xml:space="preserve" onload="init(evt)">
<style type="text/css"><![CDATA[
.edge:hover path { stroke: red; }
.edge:hover polygon { stroke: red; fill: red; }
]]></style>
<script type="text/javascript"><![CDATA[
var edges = document.getElementsByTagName('g');
if (edges && edges.length) {
  for (var i=0;i<edges.length;i++) {
    if (edges[i].id.substr(0,4)=='edge') {
      edges[i].setAttribute('class','edge');
    }
  }
}
]]></script>
        <defs>
                <circle id="rim" cx="0" cy="0" r="7"/>
                <circle id="rim2" cx="0" cy="0" r="3.5"/>
                <g id="zoomPlus">
                        <use xlink:href="#rim" fill="#404040">
                                <set attributeName="fill" to="#808080" begin="zoomplus.mouseover" end="zoomplus.mouseout"/>
                        </use>
                        <path d="M-4,0h8M0,-4v8" fill="none" stroke="white" stroke-width="1.5" pointer-events="none"/>
                </g>
                <g id="zoomMin">
                        <use xlink:href="#rim" fill="#404040">
                                <set attributeName="fill" to="#808080" begin="zoomminus.mouseover" end="zoomminus.mouseout"/>
                        </use>
                        <path d="M-4,0h8" fill="none" stroke="white" stroke-width="1.5" pointer-events="none"/>
                </g>
                <g id="dirArrow">
                        <path fill="none" stroke="white" stroke-width="1.5" d="M0,-3.0v7 M-2.5,-0.5L0,-3.0L2.5,-0.5"/>
                </g>
               <g id="resetDef">
                       <use xlink:href="#rim2" fill="#404040">
                               <set attributeName="fill" to="#808080" begin="reset.mouseover" end="reset.mouseout"/>
                       </use>
               </g>
        </defs>

<script type="text/javascript">
var viewWidth = 525;
var viewHeight = 428;
var sectionId = 'dynsection-1';
</script>
<script xlink:href="svgpan.js"/>
<svg id="graph" class="graph">
<g id="viewport">
<title>vrna_fc_s</title>
<!-- Node1 -->
<g id="node1" class="node">
<title>Node1</title>
<g id="a_node1"><a xlink:title="The most basic data structure required by many functions throughout the RNAlib.">
<polygon fill="#bfbfbf" stroke="black" points="458,-190.5 458,-209.5 517,-209.5 517,-190.5 458,-190.5"/>
<text text-anchor="middle" x="487.5" y="-197.5" font-family="Helvetica,sans-Serif" font-size="10.00">vrna_fc_s</text>
</a>
</g>
</g>
<!-- Node2 -->
<g id="node2" class="node">
<title>Node2</title>
<g id="a_node2"><a xlink:href="group__soft__constraints.html#structvrna__sc__s" target="_top" xlink:title="The soft constraints data structure.">
<polygon fill="none" stroke="black" points="253,-389.5 253,-408.5 315,-408.5 315,-389.5 253,-389.5"/>
<text text-anchor="middle" x="284" y="-396.5" font-family="Helvetica,sans-Serif" font-size="10.00">vrna_sc_s</text>
</a>
</g>
</g>
<!-- Node2&#45;&gt;Node1 -->
<g id="edge1" class="edge">
<title>Node2&#45;&gt;Node1</title>
<path fill="none" stroke="#9a32cd" stroke-dasharray="5,2" d="M325.34,-402.17C360.06,-402.62 409.28,-397.43 440,-369 487.12,-325.39 488.16,-238.86 487.06,-209.79"/>
<polygon fill="#9a32cd" stroke="#9a32cd" points="325.16,-398.67 315.07,-401.88 324.96,-405.67 325.16,-398.67"/>
<text text-anchor="middle" x="406.5" y="-412" font-family="Helvetica,sans-Serif" font-size="10.00"> sc</text>
<text text-anchor="middle" x="406.5" y="-401" font-family="Helvetica,sans-Serif" font-size="10.00">scs</text>
</g>
<!-- Node3 -->
<g id="node3" class="node">
<title>Node3</title>
<g id="a_node3"><a xlink:href="structvrna__sc__bp__storage__t.html" target="_top" xlink:title="A base pair constraint.">
<polygon fill="none" stroke="black" points="0,-389.5 0,-408.5 113,-408.5 113,-389.5 0,-389.5"/>
<text text-anchor="middle" x="56.5" y="-396.5" font-family="Helvetica,sans-Serif" font-size="10.00">vrna_sc_bp_storage_t</text>
</a>
</g>
</g>
<!-- Node3&#45;&gt;Node2 -->
<g id="edge2" class="edge">
<title>Node3&#45;&gt;Node2</title>
<path fill="none" stroke="#9a32cd" stroke-dasharray="5,2" d="M123.3,-399C166.08,-399 219.83,-399 252.78,-399"/>
<polygon fill="#9a32cd" stroke="#9a32cd" points="123.24,-395.5 113.24,-399 123.24,-402.5 123.24,-395.5"/>
<text text-anchor="middle" x="163" y="-402" font-family="Helvetica,sans-Serif" font-size="10.00"> bp_storage</text>
</g>
<!-- Node4 -->
<g id="node4" class="node">
<title>Node4</title>
<g id="a_node4"><a xlink:href="group__energy__parameters.html#structvrna__exp__param__s" target="_top" xlink:title="The data structure that contains temperature scaled Boltzmann weights of the energy parameters.">
<polygon fill="none" stroke="black" points="234.5,-351.5 234.5,-370.5 333.5,-370.5 333.5,-351.5 234.5,-351.5"/>
<text text-anchor="middle" x="284" y="-358.5" font-family="Helvetica,sans-Serif" font-size="10.00">vrna_exp_param_s</text>
</a>
</g>
</g>
<!-- Node4&#45;&gt;Node1 -->
<g id="edge3" class="edge">
<title>Node4&#45;&gt;Node1</title>
<path fill="none" stroke="#9a32cd" stroke-dasharray="5,2" d="M343.88,-357.72C381.4,-354.49 425.57,-348.17 440,-336 479.29,-302.86 485.46,-234.99 486.37,-209.74"/>
<polygon fill="#9a32cd" stroke="#9a32cd" points="343.19,-354.27 333.51,-358.56 343.76,-361.25 343.19,-354.27"/>
<text text-anchor="middle" x="406.5" y="-357" font-family="Helvetica,sans-Serif" font-size="10.00"> exp_params</text>
</g>
<!-- Node5 -->
<g id="node5" class="node">
<title>Node5</title>
<g id="a_node5"><a xlink:href="group__model__details.html#structvrna__md__s" target="_top" xlink:title="The data structure that contains the complete model details used throughout the calculations.">
<polygon fill="none" stroke="black" points="24,-334.5 24,-353.5 89,-353.5 89,-334.5 24,-334.5"/>
<text text-anchor="middle" x="56.5" y="-341.5" font-family="Helvetica,sans-Serif" font-size="10.00">vrna_md_s</text>
</a>
</g>
</g>
<!-- Node5&#45;&gt;Node4 -->
<g id="edge4" class="edge">
<title>Node5&#45;&gt;Node4</title>
<path fill="none" stroke="#9a32cd" stroke-dasharray="5,2" d="M99.6,-347.17C137.83,-350.06 194.21,-354.31 234.35,-357.33"/>
<polygon fill="#9a32cd" stroke="#9a32cd" points="99.57,-343.66 89.33,-346.4 99.04,-350.64 99.57,-343.66"/>
<text text-anchor="middle" x="163" y="-357" font-family="Helvetica,sans-Serif" font-size="10.00"> model_details</text>
</g>
<!-- Node6 -->
<g id="node6" class="node">
<title>Node6</title>
<g id="a_node6"><a xlink:href="group__energy__parameters.html#structvrna__param__s" target="_top" xlink:title="The datastructure that contains temperature scaled energy parameters.">
<polygon fill="none" stroke="black" points="245,-313.5 245,-332.5 323,-332.5 323,-313.5 245,-313.5"/>
<text text-anchor="middle" x="284" y="-320.5" font-family="Helvetica,sans-Serif" font-size="10.00">vrna_param_s</text>
</a>
</g>
</g>
<!-- Node5&#45;&gt;Node6 -->
<g id="edge6" class="edge">
<title>Node5&#45;&gt;Node6</title>
<path fill="none" stroke="#9a32cd" stroke-dasharray="5,2" d="M99.33,-337.85C109.66,-336.45 120.72,-335.07 131,-334 169.68,-329.97 214.06,-326.94 244.84,-325.09"/>
<polygon fill="#9a32cd" stroke="#9a32cd" points="98.71,-334.4 89.28,-339.23 99.67,-341.33 98.71,-334.4"/>
<text text-anchor="middle" x="163" y="-337" font-family="Helvetica,sans-Serif" font-size="10.00"> model_details</text>
</g>
<!-- Node6&#45;&gt;Node1 -->
<g id="edge5" class="edge">
<title>Node6&#45;&gt;Node1</title>
<path fill="none" stroke="#9a32cd" stroke-dasharray="5,2" d="M333.57,-325.56C366.62,-324.85 409.69,-318.85 440,-296 468.98,-274.15 480.84,-229.48 484.81,-209.75"/>
<polygon fill="#9a32cd" stroke="#9a32cd" points="333.2,-322.06 323.22,-325.62 333.24,-329.06 333.2,-322.06"/>
<text text-anchor="middle" x="406.5" y="-324" font-family="Helvetica,sans-Serif" font-size="10.00"> params</text>
</g>
<!-- Node7 -->
<g id="node7" class="node">
<title>Node7</title>
<g id="a_node7"><a xlink:href="group__hard__constraints.html#structvrna__hc__s" target="_top" xlink:title="The hard constraints data structure.">
<polygon fill="none" stroke="black" points="253,-275.5 253,-294.5 315,-294.5 315,-275.5 253,-275.5"/>
<text text-anchor="middle" x="284" y="-282.5" font-family="Helvetica,sans-Serif" font-size="10.00">vrna_hc_s</text>
</a>
</g>
</g>
<!-- Node7&#45;&gt;Node1 -->
<g id="edge7" class="edge">
<title>Node7&#45;&gt;Node1</title>
<path fill="none" stroke="#9a32cd" stroke-dasharray="5,2" d="M325.37,-286.41C358.37,-285.79 405.1,-280.72 440,-260 460.4,-247.89 475.1,-223.15 482.03,-209.52"/>
<polygon fill="#9a32cd" stroke="#9a32cd" points="325.15,-282.91 315.17,-286.47 325.19,-289.91 325.15,-282.91"/>
<text text-anchor="middle" x="406.5" y="-284" font-family="Helvetica,sans-Serif" font-size="10.00"> hc</text>
</g>
<!-- Node8 -->
<g id="node8" class="node">
<title>Node8</title>
<g id="a_node8"><a xlink:href="group__alphabet__utils.html#structvrna__sequence__s" target="_top" xlink:title="Data structure representing a nucleotide sequence.">
<polygon fill="none" stroke="black" points="10,-218.5 10,-237.5 103,-237.5 103,-218.5 10,-218.5"/>
<text text-anchor="middle" x="56.5" y="-225.5" font-family="Helvetica,sans-Serif" font-size="10.00">vrna_sequence_s</text>
</a>
</g>
</g>
<!-- Node8&#45;&gt;Node1 -->
<g id="edge8" class="edge">
<title>Node8&#45;&gt;Node1</title>
<path fill="none" stroke="#9a32cd" stroke-dasharray="5,2" d="M113.77,-231.38C119.59,-231.63 125.41,-231.85 131,-232 268.49,-235.74 304.95,-241.06 440,-215 446.83,-213.68 454.05,-211.67 460.72,-209.54"/>
<polygon fill="#9a32cd" stroke="#9a32cd" points="113.51,-227.86 103.36,-230.88 113.18,-234.85 113.51,-227.86"/>
<text text-anchor="middle" x="284" y="-238" font-family="Helvetica,sans-Serif" font-size="10.00"> nucleotides</text>
</g>
<!-- Node9 -->
<g id="node9" class="node">
<title>Node9</title>
<g id="a_node9"><a xlink:href="group__alphabet__utils.html#structvrna__alignment__s" target="_top" xlink:title=" ">
<polygon fill="none" stroke="black" points="237.5,-190.5 237.5,-209.5 330.5,-209.5 330.5,-190.5 237.5,-190.5"/>
<text text-anchor="middle" x="284" y="-197.5" font-family="Helvetica,sans-Serif" font-size="10.00">vrna_alignment_s</text>
</a>
</g>
</g>
<!-- Node8&#45;&gt;Node9 -->
<g id="edge10" class="edge">
<title>Node8&#45;&gt;Node9</title>
<path fill="none" stroke="#9a32cd" stroke-dasharray="5,2" d="M113.08,-221.1C151.34,-216.35 201.54,-210.11 237.43,-205.66"/>
<polygon fill="#9a32cd" stroke="#9a32cd" points="112.63,-217.63 103.13,-222.33 113.49,-224.57 112.63,-217.63"/>
<text text-anchor="middle" x="163" y="-221" font-family="Helvetica,sans-Serif" font-size="10.00"> sequences</text>
</g>
<!-- Node9&#45;&gt;Node1 -->
<g id="edge9" class="edge">
<title>Node9&#45;&gt;Node1</title>
<path fill="none" stroke="#9a32cd" stroke-dasharray="5,2" d="M341.11,-200C379.01,-200 427.48,-200 457.76,-200"/>
<polygon fill="#9a32cd" stroke="#9a32cd" points="340.72,-196.5 330.72,-200 340.72,-203.5 340.72,-196.5"/>
<text text-anchor="middle" x="406.5" y="-203" font-family="Helvetica,sans-Serif" font-size="10.00"> alignment</text>
</g>
<!-- Node10 -->
<g id="node10" class="node">
<title>Node10</title>
<g id="a_node10"><a xlink:href="group__domains__up.html#structvrna__unstructured__domain__s" target="_top" xlink:title="Data structure to store all functionality for ligand binding.">
<polygon fill="none" stroke="black" points="213,-152.5 213,-171.5 355,-171.5 355,-152.5 213,-152.5"/>
<text text-anchor="middle" x="284" y="-159.5" font-family="Helvetica,sans-Serif" font-size="10.00">vrna_unstructured_domain_s</text>
</a>
</g>
</g>
<!-- Node10&#45;&gt;Node1 -->
<g id="edge11" class="edge">
<title>Node10&#45;&gt;Node1</title>
<path fill="none" stroke="#9a32cd" stroke-dasharray="5,2" d="M365.47,-171.37C389.6,-174.87 416.01,-179.39 440,-185 446.28,-186.47 452.93,-188.39 459.17,-190.36"/>
<polygon fill="#9a32cd" stroke="#9a32cd" points="365.68,-167.87 355.29,-169.94 364.7,-174.8 365.68,-167.87"/>
<text text-anchor="middle" x="406.5" y="-188" font-family="Helvetica,sans-Serif" font-size="10.00"> domains_up</text>
</g>
<!-- Node11 -->
<g id="node11" class="node">
<title>Node11</title>
<g id="a_node11"><a xlink:href="group__dp__matrices.html#structvrna__mx__mfe__s" target="_top" xlink:title="Minimum Free Energy (MFE) Dynamic Programming (DP) matrices data structure required within the vrna_f...">
<polygon fill="none" stroke="black" points="241,-114.5 241,-133.5 327,-133.5 327,-114.5 241,-114.5"/>
<text text-anchor="middle" x="284" y="-121.5" font-family="Helvetica,sans-Serif" font-size="10.00">vrna_mx_mfe_s</text>
</a>
</g>
</g>
<!-- Node11&#45;&gt;Node1 -->
<g id="edge12" class="edge">
<title>Node11&#45;&gt;Node1</title>
<path fill="none" stroke="#9a32cd" stroke-dasharray="5,2" d="M337.28,-129.2C368.43,-133.88 408,-142.65 440,-159 455.33,-166.84 469.67,-180.89 478.26,-190.33"/>
<polygon fill="#9a32cd" stroke="#9a32cd" points="337.45,-125.69 327.06,-127.77 336.48,-132.62 337.45,-125.69"/>
<text text-anchor="middle" x="406.5" y="-162" font-family="Helvetica,sans-Serif" font-size="10.00"> matrices</text>
</g>
<!-- Node12 -->
<g id="node12" class="node">
<title>Node12</title>
<g id="a_node12"><a xlink:href="group__grammar.html#structvrna__gr__aux__s" target="_top" xlink:title=" ">
<polygon fill="none" stroke="black" points="244,-76.5 244,-95.5 324,-95.5 324,-76.5 244,-76.5"/>
<text text-anchor="middle" x="284" y="-83.5" font-family="Helvetica,sans-Serif" font-size="10.00">vrna_gr_aux_s</text>
</a>
</g>
</g>
<!-- Node12&#45;&gt;Node1 -->
<g id="edge13" class="edge">
<title>Node12&#45;&gt;Node1</title>
<path fill="none" stroke="#9a32cd" stroke-dasharray="5,2" d="M334.41,-87.63C367.1,-90.92 409.4,-99.66 440,-122 464.06,-139.57 477.94,-173.71 483.56,-190.38"/>
<polygon fill="#9a32cd" stroke="#9a32cd" points="334.43,-84.11 324.17,-86.74 333.83,-91.09 334.43,-84.11"/>
<text text-anchor="middle" x="406.5" y="-125" font-family="Helvetica,sans-Serif" font-size="10.00"> aux_grammar</text>
</g>
<!-- Node13 -->
<g id="node13" class="node">
<title>Node13</title>
<g id="a_node13"><a xlink:href="group__dp__matrices.html#structvrna__mx__pf__s" target="_top" xlink:title="Partition function (PF) Dynamic Programming (DP) matrices data structure required within the vrna_fol...">
<polygon fill="none" stroke="black" points="245,-38.5 245,-57.5 323,-57.5 323,-38.5 245,-38.5"/>
<text text-anchor="middle" x="284" y="-45.5" font-family="Helvetica,sans-Serif" font-size="10.00">vrna_mx_pf_s</text>
</a>
</g>
</g>
<!-- Node13&#45;&gt;Node1 -->
<g id="edge14" class="edge">
<title>Node13&#45;&gt;Node1</title>
<path fill="none" stroke="#9a32cd" stroke-dasharray="5,2" d="M333.21,-46.06C366.74,-47.23 410.53,-54.15 440,-79 474.92,-108.45 483.7,-167.28 485.84,-190.38"/>
<polygon fill="#9a32cd" stroke="#9a32cd" points="333.22,-42.56 323.16,-45.86 333.09,-49.56 333.22,-42.56"/>
<text text-anchor="middle" x="406.5" y="-82" font-family="Helvetica,sans-Serif" font-size="10.00"> exp_matrices</text>
</g>
<!-- Node14 -->
<g id="node14" class="node">
<title>Node14</title>
<g id="a_node14"><a xlink:href="structvrna__structured__domains__s.html" target="_top" xlink:title=" ">
<polygon fill="none" stroke="black" points="215.5,-0.5 215.5,-19.5 352.5,-19.5 352.5,-0.5 215.5,-0.5"/>
<text text-anchor="middle" x="284" y="-7.5" font-family="Helvetica,sans-Serif" font-size="10.00">vrna_structured_domains_s</text>
</a>
</g>
</g>
<!-- Node14&#45;&gt;Node1 -->
<g id="edge15" class="edge">
<title>Node14&#45;&gt;Node1</title>
<path fill="none" stroke="#9a32cd" stroke-dasharray="5,2" d="M362.59,-6.68C389.96,-9.4 419.09,-17.27 440,-36 486.52,-77.66 487.94,-162.06 487.01,-190.44"/>
<polygon fill="#9a32cd" stroke="#9a32cd" points="362.84,-3.19 352.6,-5.9 362.3,-10.17 362.84,-3.19"/>
<text text-anchor="middle" x="406.5" y="-39" font-family="Helvetica,sans-Serif" font-size="10.00"> domains_struc</text>
</g>
</g>
</svg>
        <g id="navigator" transform="translate(0 0)" fill="#404254">
                <rect fill="#f2f5e9" fill-opacity="0.5" stroke="#606060" stroke-width=".5" x="0" y="0" width="60" height="60"/>
                <use id="zoomplus" xlink:href="#zoomPlus" x="17" y="9" onmousedown="handleZoom(evt,'in')"/>
                <use id="zoomminus" xlink:href="#zoomMin" x="42" y="9" onmousedown="handleZoom(evt,'out')"/>
                <use id="reset" xlink:href="#resetDef" x="30" y="36" onmousedown="handleReset()"/>
                <g id="arrowUp" xlink:href="#dirArrow" transform="translate(30 24)" onmousedown="handlePan(0,-1)">
                  <use xlink:href="#rim" fill="#404040">
                        <set attributeName="fill" to="#808080" begin="arrowUp.mouseover" end="arrowUp.mouseout"/>
                  </use>
                  <path fill="none" stroke="white" stroke-width="1.5" d="M0,-3.0v7 M-2.5,-0.5L0,-3.0L2.5,-0.5"/>
                </g>
                <g id="arrowRight" xlink:href="#dirArrow" transform="rotate(90) translate(36 -43)" onmousedown="handlePan(1,0)">
                  <use xlink:href="#rim" fill="#404040">
                        <set attributeName="fill" to="#808080" begin="arrowRight.mouseover" end="arrowRight.mouseout"/>
                  </use>
                  <path fill="none" stroke="white" stroke-width="1.5" d="M0,-3.0v7 M-2.5,-0.5L0,-3.0L2.5,-0.5"/>
                </g>
                <g id="arrowDown" xlink:href="#dirArrow" transform="rotate(180) translate(-30 -48)" onmousedown="handlePan(0,1)">
                  <use xlink:href="#rim" fill="#404040">
                        <set attributeName="fill" to="#808080" begin="arrowDown.mouseover" end="arrowDown.mouseout"/>
                  </use>
                  <path fill="none" stroke="white" stroke-width="1.5" d="M0,-3.0v7 M-2.5,-0.5L0,-3.0L2.5,-0.5"/>
                </g>
                <g id="arrowLeft" xlink:href="#dirArrow" transform="rotate(270) translate(-36 17)" onmousedown="handlePan(-1,0)">
                  <use xlink:href="#rim" fill="#404040">
                        <set attributeName="fill" to="#808080" begin="arrowLeft.mouseover" end="arrowLeft.mouseout"/>
                  </use>
                  <path fill="none" stroke="white" stroke-width="1.5" d="M0,-3.0v7 M-2.5,-0.5L0,-3.0L2.5,-0.5"/>
                </g>
        </g>
        <svg viewBox="0 0 15 15" width="100%" height="30px" preserveAspectRatio="xMaxYMin meet">
         <g id="arrow_out" transform="scale(0.3 0.3)">
          <a xlink:href="structvrna__fc__s__coll__graph_org.svg" target="_base">
           <rect id="button" ry="5" rx="5" y="6" x="6" height="38" width="38"
                fill="#f2f5e9" fill-opacity="0.5" stroke="#606060" stroke-width="1.0"/>
           <path id="arrow"
             d="M 11.500037,31.436501 C 11.940474,20.09759 22.043105,11.32322 32.158766,21.979434 L 37.068811,17.246167 C 37.068811,17.246167 37.088388,32 37.088388,32 L 22.160133,31.978069 C 22.160133,31.978069 26.997745,27.140456 26.997745,27.140456 C 18.528582,18.264221 13.291696,25.230495 11.500037,31.436501 z"
             style="fill:#404040;"/>
          </a>
         </g>
        </svg>
</svg>
