<?xml version="1.0" encoding="UTF-8" standalone="no"?>
<!DOCTYPE svg PUBLIC "-//W3C//DTD SVG 1.1//EN"
 "http://www.w3.org/Graphics/SVG/1.1/DTD/svg11.dtd">
<!-- Generated by graphviz version 2.47.0 (0)
 -->
<!-- Title: TwoDfold_vars Pages: 1 -->
<!--zoomable 423 -->
<svg id="main" version="1.1" xmlns="http://www.w3.org/2000/svg" xmlns:xlink="http://www.w3.org/1999/xlink" xml:space="preserve" onload="init(evt)">
<style type="text/css"><![CDATA[
.edge:hover path { stroke: red; }
.edge:hover polygon { stroke: red; fill: red; }
]]></style>
<script type="text/javascript"><![CDATA[
var edges = document.getElementsByTagName('g');
if (edges && edges.length) {
  for (var i=0;i<edges.length;i++) {
    if (edges[i].id.substr(0,4)=='edge') {
      edges[i].setAttribute('class','edge');
    }
  }
}
]]></script>
        <defs>
                <circle id="rim" cx="0" cy="0" r="7"/>
                <circle id="rim2" cx="0" cy="0" r="3.5"/>
                <g id="zoomPlus">
                        <use xlink:href="#rim" fill="#404040">
                                <set attributeName="fill" to="#808080" begin="zoomplus.mouseover" end="zoomplus.mouseout"/>
                        </use>
                        <path d="M-4,0h8M0,-4v8" fill="none" stroke="white" stroke-width="1.5" pointer-events="none"/>
                </g>
                <g id="zoomMin">
                        <use xlink:href="#rim" fill="#404040">
                                <set attributeName="fill" to="#808080" begin="zoomminus.mouseover" end="zoomminus.mouseout"/>
                        </use>
                        <path d="M-4,0h8" fill="none" stroke="white" stroke-width="1.5" pointer-events="none"/>
                </g>
                <g id="dirArrow">
                        <path fill="none" stroke="white" stroke-width="1.5" d="M0,-3.0v7 M-2.5,-0.5L0,-3.0L2.5,-0.5"/>
                </g>
               <g id="resetDef">
                       <use xlink:href="#rim2" fill="#404040">
                               <set attributeName="fill" to="#808080" begin="reset.mouseover" end="reset.mouseout"/>
                       </use>
               </g>
        </defs>

<script type="text/javascript">
var viewWidth = 701;
var viewHeight = 423;
var sectionId = 'dynsection-1';
</script>
<script xlink:href="svgpan.js"/>
<svg id="graph" class="graph">
<g id="viewport">
<title>TwoDfold_vars</title>
<!-- Node1 -->
<g id="node1" class="node">
<title>Node1</title>
<g id="a_node1"><a xlink:title="Variables compound for 2Dfold MFE folding.">
<polygon fill="#bfbfbf" stroke="black" points="611,-297.5 611,-316.5 693,-316.5 693,-297.5 611,-297.5"/>
<text text-anchor="middle" x="652" y="-304.5" font-family="Helvetica,sans-Serif" font-size="10.00">TwoDfold_vars</text>
</a>
</g>
</g>
<!-- Node2 -->
<g id="node2" class="node">
<title>Node2</title>
<g id="a_node2"><a xlink:href="group__fold__compound.html#structvrna__fc__s" target="_top" xlink:title="The most basic data structure required by many functions throughout the RNAlib.">
<polygon fill="none" stroke="black" points="458,-216.5 458,-235.5 517,-235.5 517,-216.5 458,-216.5"/>
<text text-anchor="middle" x="487.5" y="-223.5" font-family="Helvetica,sans-Serif" font-size="10.00">vrna_fc_s</text>
</a>
</g>
</g>
<!-- Node2&#45;&gt;Node1 -->
<g id="edge1" class="edge">
<title>Node2&#45;&gt;Node1</title>
<path fill="none" stroke="#9a32cd" stroke-dasharray="5,2" d="M516.9,-240.15C549.85,-256.58 603.3,-283.22 631.75,-297.4"/>
<polygon fill="#9a32cd" stroke="#9a32cd" points="518.29,-236.94 507.78,-235.61 515.17,-243.2 518.29,-236.94"/>
<text text-anchor="middle" x="564" y="-279" font-family="Helvetica,sans-Serif" font-size="10.00"> compatibility</text>
</g>
<!-- Node3 -->
<g id="node3" class="node">
<title>Node3</title>
<g id="a_node3"><a xlink:href="group__soft__constraints.html#structvrna__sc__s" target="_top" xlink:title="The soft constraints data structure.">
<polygon fill="none" stroke="black" points="253,-394.5 253,-413.5 315,-413.5 315,-394.5 253,-394.5"/>
<text text-anchor="middle" x="284" y="-401.5" font-family="Helvetica,sans-Serif" font-size="10.00">vrna_sc_s</text>
</a>
</g>
</g>
<!-- Node3&#45;&gt;Node2 -->
<g id="edge2" class="edge">
<title>Node3&#45;&gt;Node2</title>
<path fill="none" stroke="#9a32cd" stroke-dasharray="5,2" d="M325.48,-401.66C360.07,-397.58 409.03,-386.56 440,-357 475.62,-323.01 484,-260.01 485.93,-235.81"/>
<polygon fill="#9a32cd" stroke="#9a32cd" points="324.83,-398.21 315.24,-402.72 325.55,-405.17 324.83,-398.21"/>
<text text-anchor="middle" x="406.5" y="-405" font-family="Helvetica,sans-Serif" font-size="10.00"> sc</text>
<text text-anchor="middle" x="406.5" y="-394" font-family="Helvetica,sans-Serif" font-size="10.00">scs</text>
</g>
<!-- Node4 -->
<g id="node4" class="node">
<title>Node4</title>
<g id="a_node4"><a xlink:href="structvrna__sc__bp__storage__t.html" target="_top" xlink:title="A base pair constraint.">
<polygon fill="none" stroke="black" points="0,-394.5 0,-413.5 113,-413.5 113,-394.5 0,-394.5"/>
<text text-anchor="middle" x="56.5" y="-401.5" font-family="Helvetica,sans-Serif" font-size="10.00">vrna_sc_bp_storage_t</text>
</a>
</g>
</g>
<!-- Node4&#45;&gt;Node3 -->
<g id="edge3" class="edge">
<title>Node4&#45;&gt;Node3</title>
<path fill="none" stroke="#9a32cd" stroke-dasharray="5,2" d="M123.3,-404C166.08,-404 219.83,-404 252.78,-404"/>
<polygon fill="#9a32cd" stroke="#9a32cd" points="123.24,-400.5 113.24,-404 123.24,-407.5 123.24,-400.5"/>
<text text-anchor="middle" x="163" y="-407" font-family="Helvetica,sans-Serif" font-size="10.00"> bp_storage</text>
</g>
<!-- Node5 -->
<g id="node5" class="node">
<title>Node5</title>
<g id="a_node5"><a xlink:href="group__energy__parameters.html#structvrna__exp__param__s" target="_top" xlink:title="The data structure that contains temperature scaled Boltzmann weights of the energy parameters.">
<polygon fill="none" stroke="black" points="234.5,-313.5 234.5,-332.5 333.5,-332.5 333.5,-313.5 234.5,-313.5"/>
<text text-anchor="middle" x="284" y="-320.5" font-family="Helvetica,sans-Serif" font-size="10.00">vrna_exp_param_s</text>
</a>
</g>
</g>
<!-- Node5&#45;&gt;Node2 -->
<g id="edge4" class="edge">
<title>Node5&#45;&gt;Node2</title>
<path fill="none" stroke="#9a32cd" stroke-dasharray="5,2" d="M343.77,-317.83C374.39,-312.95 411.32,-303.46 440,-285 459.52,-272.44 474.38,-248.82 481.62,-235.59"/>
<polygon fill="#9a32cd" stroke="#9a32cd" points="343.03,-314.4 333.65,-319.32 344.05,-321.33 343.03,-314.4"/>
<text text-anchor="middle" x="406.5" y="-314" font-family="Helvetica,sans-Serif" font-size="10.00"> exp_params</text>
</g>
<!-- Node6 -->
<g id="node6" class="node">
<title>Node6</title>
<g id="a_node6"><a xlink:href="group__model__details.html#structvrna__md__s" target="_top" xlink:title="The data structure that contains the complete model details used throughout the calculations.">
<polygon fill="none" stroke="black" points="24,-332.5 24,-351.5 89,-351.5 89,-332.5 24,-332.5"/>
<text text-anchor="middle" x="56.5" y="-339.5" font-family="Helvetica,sans-Serif" font-size="10.00">vrna_md_s</text>
</a>
</g>
</g>
<!-- Node6&#45;&gt;Node5 -->
<g id="edge5" class="edge">
<title>Node6&#45;&gt;Node5</title>
<path fill="none" stroke="#9a32cd" stroke-dasharray="5,2" d="M99.14,-331.46C109.49,-329.25 120.59,-327.22 131,-326 165.34,-321.96 204.34,-321.27 234.23,-321.56"/>
<polygon fill="#9a32cd" stroke="#9a32cd" points="98.1,-328.11 89.11,-333.71 99.63,-334.94 98.1,-328.11"/>
<text text-anchor="middle" x="163" y="-329" font-family="Helvetica,sans-Serif" font-size="10.00"> model_details</text>
</g>
<!-- Node7 -->
<g id="node7" class="node">
<title>Node7</title>
<g id="a_node7"><a xlink:href="group__energy__parameters.html#structvrna__param__s" target="_top" xlink:title="The datastructure that contains temperature scaled energy parameters.">
<polygon fill="none" stroke="black" points="245,-351.5 245,-370.5 323,-370.5 323,-351.5 245,-351.5"/>
<text text-anchor="middle" x="284" y="-358.5" font-family="Helvetica,sans-Serif" font-size="10.00">vrna_param_s</text>
</a>
</g>
</g>
<!-- Node6&#45;&gt;Node7 -->
<g id="edge7" class="edge">
<title>Node6&#45;&gt;Node7</title>
<path fill="none" stroke="#9a32cd" stroke-dasharray="5,2" d="M99.44,-345.53C141.16,-349.05 204.62,-354.4 244.93,-357.79"/>
<polygon fill="#9a32cd" stroke="#9a32cd" points="99.59,-342.03 89.33,-344.68 99,-349.01 99.59,-342.03"/>
<text text-anchor="middle" x="163" y="-356" font-family="Helvetica,sans-Serif" font-size="10.00"> model_details</text>
</g>
<!-- Node7&#45;&gt;Node1 -->
<g id="edge17" class="edge">
<title>Node7&#45;&gt;Node1</title>
<path fill="none" stroke="#9a32cd" stroke-dasharray="5,2" d="M333.08,-362.31C363.79,-362.52 404.39,-361.63 440,-357 504.96,-348.56 579.09,-328.49 619.92,-316.51"/>
<polygon fill="#9a32cd" stroke="#9a32cd" points="333.11,-358.81 323.07,-362.2 333.03,-365.81 333.11,-358.81"/>
<text text-anchor="middle" x="487.5" y="-357" font-family="Helvetica,sans-Serif" font-size="10.00"> P</text>
</g>
<!-- Node7&#45;&gt;Node2 -->
<g id="edge6" class="edge">
<title>Node7&#45;&gt;Node2</title>
<path fill="none" stroke="#9a32cd" stroke-dasharray="5,2" d="M332.89,-351.41C375.23,-342.58 431.56,-329.85 440,-323 468.41,-299.92 480.58,-255.32 484.72,-235.68"/>
<polygon fill="#9a32cd" stroke="#9a32cd" points="332.09,-348 323.01,-353.45 333.51,-354.85 332.09,-348"/>
<text text-anchor="middle" x="406.5" y="-345" font-family="Helvetica,sans-Serif" font-size="10.00"> params</text>
</g>
<!-- Node8 -->
<g id="node8" class="node">
<title>Node8</title>
<g id="a_node8"><a xlink:href="group__hard__constraints.html#structvrna__hc__s" target="_top" xlink:title="The hard constraints data structure.">
<polygon fill="none" stroke="black" points="253,-161.5 253,-180.5 315,-180.5 315,-161.5 253,-161.5"/>
<text text-anchor="middle" x="284" y="-168.5" font-family="Helvetica,sans-Serif" font-size="10.00">vrna_hc_s</text>
</a>
</g>
</g>
<!-- Node8&#45;&gt;Node2 -->
<g id="edge8" class="edge">
<title>Node8&#45;&gt;Node2</title>
<path fill="none" stroke="#9a32cd" stroke-dasharray="5,2" d="M325.44,-169.7C357.64,-170.06 403.25,-173.73 440,-189 454.86,-195.18 468.88,-207.56 477.56,-216.3"/>
<polygon fill="#9a32cd" stroke="#9a32cd" points="325.07,-166.2 315.07,-169.69 325.06,-173.2 325.07,-166.2"/>
<text text-anchor="middle" x="406.5" y="-192" font-family="Helvetica,sans-Serif" font-size="10.00"> hc</text>
</g>
<!-- Node9 -->
<g id="node9" class="node">
<title>Node9</title>
<g id="a_node9"><a xlink:href="group__alphabet__utils.html#structvrna__sequence__s" target="_top" xlink:title="Data structure representing a nucleotide sequence.">
<polygon fill="none" stroke="black" points="10,-102.5 10,-121.5 103,-121.5 103,-102.5 10,-102.5"/>
<text text-anchor="middle" x="56.5" y="-109.5" font-family="Helvetica,sans-Serif" font-size="10.00">vrna_sequence_s</text>
</a>
</g>
</g>
<!-- Node9&#45;&gt;Node2 -->
<g id="edge9" class="edge">
<title>Node9&#45;&gt;Node2</title>
<path fill="none" stroke="#9a32cd" stroke-dasharray="5,2" d="M113.21,-104.26C173.27,-97.32 271.49,-90.06 355,-103 394.17,-109.07 410.03,-104.05 440,-130 467.3,-153.64 479.99,-196.97 484.49,-216.27"/>
<polygon fill="#9a32cd" stroke="#9a32cd" points="112.7,-100.8 103.18,-105.46 113.53,-107.75 112.7,-100.8"/>
<text text-anchor="middle" x="284" y="-106" font-family="Helvetica,sans-Serif" font-size="10.00"> nucleotides</text>
</g>
<!-- Node10 -->
<g id="node10" class="node">
<title>Node10</title>
<g id="a_node10"><a xlink:href="group__alphabet__utils.html#structvrna__alignment__s" target="_top" xlink:title=" ">
<polygon fill="none" stroke="black" points="237.5,-123.5 237.5,-142.5 330.5,-142.5 330.5,-123.5 237.5,-123.5"/>
<text text-anchor="middle" x="284" y="-130.5" font-family="Helvetica,sans-Serif" font-size="10.00">vrna_alignment_s</text>
</a>
</g>
</g>
<!-- Node9&#45;&gt;Node10 -->
<g id="edge11" class="edge">
<title>Node9&#45;&gt;Node10</title>
<path fill="none" stroke="#9a32cd" stroke-dasharray="5,2" d="M113.57,-117.22C151.77,-120.78 201.69,-125.43 237.43,-128.76"/>
<polygon fill="#9a32cd" stroke="#9a32cd" points="113.41,-113.69 103.13,-116.25 112.77,-120.66 113.41,-113.69"/>
<text text-anchor="middle" x="163" y="-128" font-family="Helvetica,sans-Serif" font-size="10.00"> sequences</text>
</g>
<!-- Node10&#45;&gt;Node2 -->
<g id="edge10" class="edge">
<title>Node10&#45;&gt;Node2</title>
<path fill="none" stroke="#9a32cd" stroke-dasharray="5,2" d="M341.07,-131.02C372.35,-132.4 410.78,-138.44 440,-157 462.44,-171.25 476.64,-200.66 482.86,-216.08"/>
<polygon fill="#9a32cd" stroke="#9a32cd" points="340.86,-127.51 330.76,-130.71 340.66,-134.51 340.86,-127.51"/>
<text text-anchor="middle" x="406.5" y="-160" font-family="Helvetica,sans-Serif" font-size="10.00"> alignment</text>
</g>
<!-- Node11 -->
<g id="node11" class="node">
<title>Node11</title>
<g id="a_node11"><a xlink:href="group__domains__up.html#structvrna__unstructured__domain__s" target="_top" xlink:title="Data structure to store all functionality for ligand binding.">
<polygon fill="none" stroke="black" points="213,-38.5 213,-57.5 355,-57.5 355,-38.5 213,-38.5"/>
<text text-anchor="middle" x="284" y="-45.5" font-family="Helvetica,sans-Serif" font-size="10.00">vrna_unstructured_domain_s</text>
</a>
</g>
</g>
<!-- Node11&#45;&gt;Node2 -->
<g id="edge12" class="edge">
<title>Node11&#45;&gt;Node2</title>
<path fill="none" stroke="#9a32cd" stroke-dasharray="5,2" d="M365.11,-42.24C391.61,-44.35 419.53,-51.45 440,-69 485.32,-107.86 487.58,-188.61 486.93,-216.38"/>
<polygon fill="#9a32cd" stroke="#9a32cd" points="365.22,-38.74 355.04,-41.67 364.82,-45.73 365.22,-38.74"/>
<text text-anchor="middle" x="406.5" y="-72" font-family="Helvetica,sans-Serif" font-size="10.00"> domains_up</text>
</g>
<!-- Node12 -->
<g id="node12" class="node">
<title>Node12</title>
<g id="a_node12"><a xlink:href="group__dp__matrices.html#structvrna__mx__mfe__s" target="_top" xlink:title="Minimum Free Energy (MFE) Dynamic Programming (DP) matrices data structure required within the vrna_f...">
<polygon fill="none" stroke="black" points="241,-0.5 241,-19.5 327,-19.5 327,-0.5 241,-0.5"/>
<text text-anchor="middle" x="284" y="-7.5" font-family="Helvetica,sans-Serif" font-size="10.00">vrna_mx_mfe_s</text>
</a>
</g>
</g>
<!-- Node12&#45;&gt;Node2 -->
<g id="edge13" class="edge">
<title>Node12&#45;&gt;Node2</title>
<path fill="none" stroke="#9a32cd" stroke-dasharray="5,2" d="M337.19,-2.39C370.55,-0.58 412.55,-4.41 440,-29 468.66,-54.67 482.31,-180.59 485.66,-216.45"/>
<polygon fill="#9a32cd" stroke="#9a32cd" points="336.86,1.09 327.14,-3.12 337.36,-5.89 336.86,1.09"/>
<text text-anchor="middle" x="406.5" y="-32" font-family="Helvetica,sans-Serif" font-size="10.00"> matrices</text>
</g>
<!-- Node13 -->
<g id="node13" class="node">
<title>Node13</title>
<g id="a_node13"><a xlink:href="group__grammar.html#structvrna__gr__aux__s" target="_top" xlink:title=" ">
<polygon fill="none" stroke="black" points="244,-275.5 244,-294.5 324,-294.5 324,-275.5 244,-275.5"/>
<text text-anchor="middle" x="284" y="-282.5" font-family="Helvetica,sans-Serif" font-size="10.00">vrna_gr_aux_s</text>
</a>
</g>
</g>
<!-- Node13&#45;&gt;Node2 -->
<g id="edge14" class="edge">
<title>Node13&#45;&gt;Node2</title>
<path fill="none" stroke="#9a32cd" stroke-dasharray="5,2" d="M334.26,-278.39C365.27,-273.28 405.76,-264.88 440,-252 451.25,-247.77 463.07,-241.13 471.97,-235.62"/>
<polygon fill="#9a32cd" stroke="#9a32cd" points="333.46,-274.97 324.13,-279.99 334.56,-281.88 333.46,-274.97"/>
<text text-anchor="middle" x="406.5" y="-273" font-family="Helvetica,sans-Serif" font-size="10.00"> aux_grammar</text>
</g>
<!-- Node14 -->
<g id="node14" class="node">
<title>Node14</title>
<g id="a_node14"><a xlink:href="group__dp__matrices.html#structvrna__mx__pf__s" target="_top" xlink:title="Partition function (PF) Dynamic Programming (DP) matrices data structure required within the vrna_fol...">
<polygon fill="none" stroke="black" points="245,-199.5 245,-218.5 323,-218.5 323,-199.5 245,-199.5"/>
<text text-anchor="middle" x="284" y="-206.5" font-family="Helvetica,sans-Serif" font-size="10.00">vrna_mx_pf_s</text>
</a>
</g>
</g>
<!-- Node14&#45;&gt;Node2 -->
<g id="edge15" class="edge">
<title>Node14&#45;&gt;Node2</title>
<path fill="none" stroke="#9a32cd" stroke-dasharray="5,2" d="M333.24,-205.32C364.01,-203.95 404.61,-203.96 440,-210 447.74,-211.32 455.93,-213.76 463.23,-216.34"/>
<polygon fill="#9a32cd" stroke="#9a32cd" points="333.01,-201.82 323.2,-205.83 333.37,-208.81 333.01,-201.82"/>
<text text-anchor="middle" x="406.5" y="-213" font-family="Helvetica,sans-Serif" font-size="10.00"> exp_matrices</text>
</g>
<!-- Node15 -->
<g id="node15" class="node">
<title>Node15</title>
<g id="a_node15"><a xlink:href="structvrna__structured__domains__s.html" target="_top" xlink:title=" ">
<polygon fill="none" stroke="black" points="215.5,-237.5 215.5,-256.5 352.5,-256.5 352.5,-237.5 215.5,-237.5"/>
<text text-anchor="middle" x="284" y="-244.5" font-family="Helvetica,sans-Serif" font-size="10.00">vrna_structured_domains_s</text>
</a>
</g>
</g>
<!-- Node15&#45;&gt;Node2 -->
<g id="edge16" class="edge">
<title>Node15&#45;&gt;Node2</title>
<path fill="none" stroke="#9a32cd" stroke-dasharray="5,2" d="M362.87,-238.88C396.2,-235.41 433.05,-231.57 457.78,-228.99"/>
<polygon fill="#9a32cd" stroke="#9a32cd" points="362.24,-235.43 352.66,-239.95 362.97,-242.39 362.24,-235.43"/>
<text text-anchor="middle" x="406.5" y="-240" font-family="Helvetica,sans-Serif" font-size="10.00"> domains_struc</text>
</g>
</g>
</svg>
        <g id="navigator" transform="translate(0 0)" fill="#404254">
                <rect fill="#f2f5e9" fill-opacity="0.5" stroke="#606060" stroke-width=".5" x="0" y="0" width="60" height="60"/>
                <use id="zoomplus" xlink:href="#zoomPlus" x="17" y="9" onmousedown="handleZoom(evt,'in')"/>
                <use id="zoomminus" xlink:href="#zoomMin" x="42" y="9" onmousedown="handleZoom(evt,'out')"/>
                <use id="reset" xlink:href="#resetDef" x="30" y="36" onmousedown="handleReset()"/>
                <g id="arrowUp" xlink:href="#dirArrow" transform="translate(30 24)" onmousedown="handlePan(0,-1)">
                  <use xlink:href="#rim" fill="#404040">
                        <set attributeName="fill" to="#808080" begin="arrowUp.mouseover" end="arrowUp.mouseout"/>
                  </use>
                  <path fill="none" stroke="white" stroke-width="1.5" d="M0,-3.0v7 M-2.5,-0.5L0,-3.0L2.5,-0.5"/>
                </g>
                <g id="arrowRight" xlink:href="#dirArrow" transform="rotate(90) translate(36 -43)" onmousedown="handlePan(1,0)">
                  <use xlink:href="#rim" fill="#404040">
                        <set attributeName="fill" to="#808080" begin="arrowRight.mouseover" end="arrowRight.mouseout"/>
                  </use>
                  <path fill="none" stroke="white" stroke-width="1.5" d="M0,-3.0v7 M-2.5,-0.5L0,-3.0L2.5,-0.5"/>
                </g>
                <g id="arrowDown" xlink:href="#dirArrow" transform="rotate(180) translate(-30 -48)" onmousedown="handlePan(0,1)">
                  <use xlink:href="#rim" fill="#404040">
                        <set attributeName="fill" to="#808080" begin="arrowDown.mouseover" end="arrowDown.mouseout"/>
                  </use>
                  <path fill="none" stroke="white" stroke-width="1.5" d="M0,-3.0v7 M-2.5,-0.5L0,-3.0L2.5,-0.5"/>
                </g>
                <g id="arrowLeft" xlink:href="#dirArrow" transform="rotate(270) translate(-36 17)" onmousedown="handlePan(-1,0)">
                  <use xlink:href="#rim" fill="#404040">
                        <set attributeName="fill" to="#808080" begin="arrowLeft.mouseover" end="arrowLeft.mouseout"/>
                  </use>
                  <path fill="none" stroke="white" stroke-width="1.5" d="M0,-3.0v7 M-2.5,-0.5L0,-3.0L2.5,-0.5"/>
                </g>
        </g>
        <svg viewBox="0 0 15 15" width="100%" height="30px" preserveAspectRatio="xMaxYMin meet">
         <g id="arrow_out" transform="scale(0.3 0.3)">
          <a xlink:href="structTwoDfold__vars__coll__graph_org.svg" target="_base">
           <rect id="button" ry="5" rx="5" y="6" x="6" height="38" width="38"
                fill="#f2f5e9" fill-opacity="0.5" stroke="#606060" stroke-width="1.0"/>
           <path id="arrow"
             d="M 11.500037,31.436501 C 11.940474,20.09759 22.043105,11.32322 32.158766,21.979434 L 37.068811,17.246167 C 37.068811,17.246167 37.088388,32 37.088388,32 L 22.160133,31.978069 C 22.160133,31.978069 26.997745,27.140456 26.997745,27.140456 C 18.528582,18.264221 13.291696,25.230495 11.500037,31.436501 z"
             style="fill:#404040;"/>
          </a>
         </g>
        </svg>
</svg>
