<?xml version="1.0" encoding="UTF-8" standalone="no"?>
<!DOCTYPE svg PUBLIC "-//W3C//DTD SVG 1.1//EN"
 "http://www.w3.org/Graphics/SVG/1.1/DTD/svg11.dtd">
<!-- Generated by graphviz version 2.47.0 (0)
 -->
<!-- Title: ViennaRNA/subopt.h Pages: 1 -->
<svg width="1505pt" height="341pt"
 viewBox="0.00 0.00 1505.00 341.00" xmlns="http://www.w3.org/2000/svg" xmlns:xlink="http://www.w3.org/1999/xlink">
<g id="graph0" class="graph" transform="scale(1 1) rotate(0) translate(4 337)">
<title>ViennaRNA/subopt.h</title>
<!-- Node1 -->
<g id="node1" class="node">
<title>Node1</title>
<g id="a_node1"><a xlink:title="RNAsubopt and density of states declarations.">
<polygon fill="#bfbfbf" stroke="black" points="1113.5,-313.5 1113.5,-332.5 1222.5,-332.5 1222.5,-313.5 1113.5,-313.5"/>
<text text-anchor="middle" x="1168" y="-320.5" font-family="Helvetica,sans-Serif" font-size="10.00">ViennaRNA/subopt.h</text>
</a>
</g>
</g>
<!-- Node2 -->
<g id="node2" class="node">
<title>Node2</title>
<g id="a_node2"><a xlink:title=" ">
<polygon fill="none" stroke="#bfbfbf" points="1451,-0.5 1451,-19.5 1497,-19.5 1497,-0.5 1451,-0.5"/>
<text text-anchor="middle" x="1474" y="-7.5" font-family="Helvetica,sans-Serif" font-size="10.00">stdio.h</text>
</a>
</g>
</g>
<!-- Node1&#45;&gt;Node2 -->
<g id="edge1" class="edge">
<title>Node1&#45;&gt;Node2</title>
<path fill="none" stroke="midnightblue" d="M1222,-313.49C1314.87,-297.3 1495,-258.51 1495,-201 1495,-201 1495,-201 1495,-137.5 1495,-98.5 1485.17,-53.64 1478.96,-29.21"/>
<polygon fill="midnightblue" stroke="midnightblue" points="1482.34,-28.29 1476.41,-19.51 1475.57,-30.07 1482.34,-28.29"/>
</g>
<!-- Node3 -->
<g id="node3" class="node">
<title>Node3</title>
<g id="a_node3"><a xlink:href="datastructures_2basic_8h.html" target="_top" xlink:title="Various data structures and pre&#45;processor macros.">
<polygon fill="none" stroke="black" points="824,-246.5 824,-276.5 958,-276.5 958,-246.5 824,-246.5"/>
<text text-anchor="start" x="832" y="-264.5" font-family="Helvetica,sans-Serif" font-size="10.00">ViennaRNA/datastructures</text>
<text text-anchor="middle" x="891" y="-253.5" font-family="Helvetica,sans-Serif" font-size="10.00">/basic.h</text>
</a>
</g>
</g>
<!-- Node1&#45;&gt;Node3 -->
<g id="edge2" class="edge">
<title>Node1&#45;&gt;Node3</title>
<path fill="none" stroke="midnightblue" d="M1128.31,-313.48C1086.15,-304.42 1018.5,-289.89 966.19,-278.65"/>
<polygon fill="midnightblue" stroke="midnightblue" points="966.8,-275.2 956.28,-276.52 965.33,-282.05 966.8,-275.2"/>
</g>
<!-- Node6 -->
<g id="node6" class="node">
<title>Node6</title>
<g id="a_node6"><a xlink:href="fold__compound_8h.html" target="_top" xlink:title="The Basic Fold Compound API.">
<polygon fill="none" stroke="black" points="670,-190.5 670,-209.5 816,-209.5 816,-190.5 670,-190.5"/>
<text text-anchor="middle" x="743" y="-197.5" font-family="Helvetica,sans-Serif" font-size="10.00">ViennaRNA/fold_compound.h</text>
</a>
</g>
</g>
<!-- Node1&#45;&gt;Node6 -->
<g id="edge44" class="edge">
<title>Node1&#45;&gt;Node6</title>
<path fill="none" stroke="midnightblue" d="M1113.36,-319.5C1027.62,-314.85 865.96,-302.86 815,-277 788.5,-263.55 766.48,-236.28 754.03,-218.33"/>
<polygon fill="midnightblue" stroke="midnightblue" points="756.88,-216.29 748.42,-209.91 751.05,-220.18 756.88,-216.29"/>
</g>
<!-- Node8 -->
<g id="node8" class="node">
<title>Node8</title>
<g id="a_node8"><a xlink:href="params_2basic_8h.html" target="_top" xlink:title="Functions to deal with sets of energy parameters.">
<polygon fill="none" stroke="black" points="1279,-129 1279,-148 1417,-148 1417,-129 1279,-129"/>
<text text-anchor="middle" x="1348" y="-136" font-family="Helvetica,sans-Serif" font-size="10.00">ViennaRNA/params/basic.h</text>
</a>
</g>
</g>
<!-- Node1&#45;&gt;Node8 -->
<g id="edge45" class="edge">
<title>Node1&#45;&gt;Node8</title>
<path fill="none" stroke="midnightblue" d="M1181.04,-313.27C1206.53,-295.77 1263.9,-254.29 1303,-210 1317.37,-193.73 1330.3,-172.42 1338.57,-157.5"/>
<polygon fill="midnightblue" stroke="midnightblue" points="1341.85,-158.8 1343.52,-148.34 1335.69,-155.48 1341.85,-158.8"/>
</g>
<!-- Node4 -->
<g id="node4" class="node">
<title>Node4</title>
<g id="a_node4"><a xlink:href="constants_8h.html" target="_top" xlink:title="Energy parameter constants.">
<polygon fill="none" stroke="black" points="1309,-62 1309,-81 1467,-81 1467,-62 1309,-62"/>
<text text-anchor="middle" x="1388" y="-69" font-family="Helvetica,sans-Serif" font-size="10.00">ViennaRNA/params/constants.h</text>
</a>
</g>
</g>
<!-- Node3&#45;&gt;Node4 -->
<g id="edge3" class="edge">
<title>Node3&#45;&gt;Node4</title>
<path fill="none" stroke="midnightblue" d="M958.23,-258.53C1040.83,-254.69 1184.56,-243.37 1303,-210 1360.82,-193.71 1393.5,-204.51 1426,-154 1439.72,-132.68 1420.73,-105.6 1405.02,-88.66"/>
<polygon fill="midnightblue" stroke="midnightblue" points="1407.23,-85.91 1397.73,-81.23 1402.23,-90.82 1407.23,-85.91"/>
</g>
<!-- Node3&#45;&gt;Node6 -->
<g id="edge5" class="edge">
<title>Node3&#45;&gt;Node6</title>
<path fill="none" stroke="midnightblue" d="M855.93,-246.4C830.98,-236.37 797.79,-223.03 773.86,-213.4"/>
<polygon fill="midnightblue" stroke="midnightblue" points="775.12,-210.14 764.54,-209.66 772.51,-216.64 775.12,-210.14"/>
</g>
<!-- Node7 -->
<g id="node7" class="node">
<title>Node7</title>
<g id="a_node7"><a xlink:href="model_8h.html" target="_top" xlink:title="The model details data structure and its corresponding modifiers.">
<polygon fill="none" stroke="black" points="1185,-62 1185,-81 1291,-81 1291,-62 1185,-62"/>
<text text-anchor="middle" x="1238" y="-69" font-family="Helvetica,sans-Serif" font-size="10.00">ViennaRNA/model.h</text>
</a>
</g>
</g>
<!-- Node3&#45;&gt;Node7 -->
<g id="edge35" class="edge">
<title>Node3&#45;&gt;Node7</title>
<path fill="none" stroke="midnightblue" d="M958.06,-260.5C1037.21,-256.51 1166.36,-236.71 1232,-154 1246.02,-136.33 1244.94,-109.17 1242.11,-91.12"/>
<polygon fill="midnightblue" stroke="midnightblue" points="1245.53,-90.41 1240.24,-81.23 1238.66,-91.71 1245.53,-90.41"/>
</g>
<!-- Node3&#45;&gt;Node8 -->
<g id="edge36" class="edge">
<title>Node3&#45;&gt;Node8</title>
<path fill="none" stroke="midnightblue" d="M958.17,-255.51C1048.54,-248.32 1203.71,-233.3 1256,-210 1284.45,-197.32 1310.66,-171.76 1328.13,-155.15"/>
<polygon fill="midnightblue" stroke="midnightblue" points="1330.61,-157.62 1335.52,-148.23 1325.83,-152.51 1330.61,-157.62"/>
</g>
<!-- Node10 -->
<g id="node10" class="node">
<title>Node10</title>
<g id="a_node10"><a xlink:href="dp__matrices_8h.html" target="_top" xlink:title="Functions to deal with standard dynamic programming (DP) matrices.">
<polygon fill="none" stroke="black" points="1089.5,-129 1089.5,-148 1222.5,-148 1222.5,-129 1089.5,-129"/>
<text text-anchor="middle" x="1156" y="-136" font-family="Helvetica,sans-Serif" font-size="10.00">ViennaRNA/dp_matrices.h</text>
</a>
</g>
</g>
<!-- Node3&#45;&gt;Node10 -->
<g id="edge37" class="edge">
<title>Node3&#45;&gt;Node10</title>
<path fill="none" stroke="midnightblue" d="M917.39,-246.38C966.54,-222.56 1071.33,-174.74 1124.25,-152.03"/>
<polygon fill="midnightblue" stroke="midnightblue" points="1125.67,-155.23 1133.5,-148.09 1122.93,-148.79 1125.67,-155.23"/>
</g>
<!-- Node11 -->
<g id="node11" class="node">
<title>Node11</title>
<g id="a_node11"><a xlink:href="hard_8h.html" target="_top" xlink:title="Functions and data structures for handling of secondary structure hard constraints.">
<polygon fill="none" stroke="black" points="202.5,-123.5 202.5,-153.5 321.5,-153.5 321.5,-123.5 202.5,-123.5"/>
<text text-anchor="start" x="210.5" y="-141.5" font-family="Helvetica,sans-Serif" font-size="10.00">ViennaRNA/constraints</text>
<text text-anchor="middle" x="262" y="-130.5" font-family="Helvetica,sans-Serif" font-size="10.00">/hard.h</text>
</a>
</g>
</g>
<!-- Node3&#45;&gt;Node11 -->
<g id="edge38" class="edge">
<title>Node3&#45;&gt;Node11</title>
<path fill="none" stroke="midnightblue" d="M823.98,-247.61C704.06,-224.54 453.92,-176.42 331.92,-152.95"/>
<polygon fill="midnightblue" stroke="midnightblue" points="332.42,-149.48 321.94,-151.03 331.1,-156.36 332.42,-149.48"/>
</g>
<!-- Node13 -->
<g id="node13" class="node">
<title>Node13</title>
<g id="a_node13"><a xlink:href="soft_8h.html" target="_top" xlink:title="Functions and data structures for secondary structure soft constraints.">
<polygon fill="none" stroke="black" points="819.5,-123.5 819.5,-153.5 938.5,-153.5 938.5,-123.5 819.5,-123.5"/>
<text text-anchor="start" x="827.5" y="-141.5" font-family="Helvetica,sans-Serif" font-size="10.00">ViennaRNA/constraints</text>
<text text-anchor="middle" x="879" y="-130.5" font-family="Helvetica,sans-Serif" font-size="10.00">/soft.h</text>
</a>
</g>
</g>
<!-- Node3&#45;&gt;Node13 -->
<g id="edge39" class="edge">
<title>Node3&#45;&gt;Node13</title>
<path fill="none" stroke="midnightblue" d="M885.02,-246.14C880.46,-225.86 876.43,-188.53 875.88,-163.86"/>
<polygon fill="midnightblue" stroke="midnightblue" points="879.38,-163.83 875.87,-153.84 872.38,-163.84 879.38,-163.83"/>
</g>
<!-- Node14 -->
<g id="node14" class="node">
<title>Node14</title>
<g id="a_node14"><a xlink:href="grammar_8h.html" target="_top" xlink:title="Implementations for the RNA folding grammar.">
<polygon fill="none" stroke="black" points="684.5,-129 684.5,-148 801.5,-148 801.5,-129 684.5,-129"/>
<text text-anchor="middle" x="743" y="-136" font-family="Helvetica,sans-Serif" font-size="10.00">ViennaRNA/grammar.h</text>
</a>
</g>
</g>
<!-- Node3&#45;&gt;Node14 -->
<g id="edge40" class="edge">
<title>Node3&#45;&gt;Node14</title>
<path fill="none" stroke="midnightblue" d="M879.8,-246.47C867.39,-231.44 846.29,-207.4 825,-190 807.58,-175.76 785.81,-162.54 769.08,-153.19"/>
<polygon fill="midnightblue" stroke="midnightblue" points="770.34,-149.89 759.88,-148.16 766.98,-156.03 770.34,-149.89"/>
</g>
<!-- Node15 -->
<g id="node15" class="node">
<title>Node15</title>
<g id="a_node15"><a xlink:href="structured__domains_8h.html" target="_top" xlink:title="This module provides interfaces that deal with additional structured domains in the folding grammar.">
<polygon fill="none" stroke="black" points="956.5,-123.5 956.5,-153.5 1071.5,-153.5 1071.5,-123.5 956.5,-123.5"/>
<text text-anchor="start" x="964.5" y="-141.5" font-family="Helvetica,sans-Serif" font-size="10.00">ViennaRNA/structured</text>
<text text-anchor="middle" x="1014" y="-130.5" font-family="Helvetica,sans-Serif" font-size="10.00">_domains.h</text>
</a>
</g>
</g>
<!-- Node3&#45;&gt;Node15 -->
<g id="edge41" class="edge">
<title>Node3&#45;&gt;Node15</title>
<path fill="none" stroke="midnightblue" d="M905.59,-246.14C927.05,-225.04 967.25,-185.49 992.21,-160.94"/>
<polygon fill="midnightblue" stroke="midnightblue" points="994.75,-163.34 999.43,-153.84 989.84,-158.35 994.75,-163.34"/>
</g>
<!-- Node16 -->
<g id="node16" class="node">
<title>Node16</title>
<g id="a_node16"><a xlink:href="unstructured__domains_8h.html" target="_top" xlink:title="Functions to modify unstructured domains, e.g. to incorporate ligands binding to unpaired stretches.">
<polygon fill="none" stroke="black" points="59.5,-123.5 59.5,-153.5 184.5,-153.5 184.5,-123.5 59.5,-123.5"/>
<text text-anchor="start" x="67.5" y="-141.5" font-family="Helvetica,sans-Serif" font-size="10.00">ViennaRNA/unstructured</text>
<text text-anchor="middle" x="122" y="-130.5" font-family="Helvetica,sans-Serif" font-size="10.00">_domains.h</text>
</a>
</g>
</g>
<!-- Node3&#45;&gt;Node16 -->
<g id="edge42" class="edge">
<title>Node3&#45;&gt;Node16</title>
<path fill="none" stroke="midnightblue" d="M823.59,-252.29C699.2,-236.13 425.48,-198.06 191.45,-155.36"/>
<polygon fill="midnightblue" stroke="midnightblue" points="191.85,-151.88 181.39,-153.52 190.59,-158.76 191.85,-151.88"/>
</g>
<!-- Node17 -->
<g id="node17" class="node">
<title>Node17</title>
<g id="a_node17"><a xlink:href="utils_2structures_8h.html" target="_top" xlink:title="Various utility&#45; and helper&#45;functions for secondary structure parsing, converting,...">
<polygon fill="none" stroke="black" points="0,-62 0,-81 144,-81 144,-62 0,-62"/>
<text text-anchor="middle" x="72" y="-69" font-family="Helvetica,sans-Serif" font-size="10.00">ViennaRNA/utils/structures.h</text>
</a>
</g>
</g>
<!-- Node3&#45;&gt;Node17 -->
<g id="edge43" class="edge">
<title>Node3&#45;&gt;Node17</title>
<path fill="none" stroke="midnightblue" d="M823.93,-257.3C632.03,-247.17 91.7,-212.97 41,-154 25.24,-135.66 38.93,-107.11 53.07,-89.12"/>
<polygon fill="midnightblue" stroke="midnightblue" points="56.01,-91.08 59.92,-81.23 50.72,-86.49 56.01,-91.08"/>
</g>
<!-- Node5 -->
<g id="node5" class="node">
<title>Node5</title>
<g id="a_node5"><a xlink:title=" ">
<polygon fill="none" stroke="#bfbfbf" points="1364,-0.5 1364,-19.5 1412,-19.5 1412,-0.5 1364,-0.5"/>
<text text-anchor="middle" x="1388" y="-7.5" font-family="Helvetica,sans-Serif" font-size="10.00">limits.h</text>
</a>
</g>
</g>
<!-- Node4&#45;&gt;Node5 -->
<g id="edge4" class="edge">
<title>Node4&#45;&gt;Node5</title>
<path fill="none" stroke="midnightblue" d="M1388,-61.98C1388,-53.58 1388,-40.48 1388,-29.66"/>
<polygon fill="midnightblue" stroke="midnightblue" points="1391.5,-29.51 1388,-19.51 1384.5,-29.51 1391.5,-29.51"/>
</g>
<!-- Node6&#45;&gt;Node7 -->
<g id="edge6" class="edge">
<title>Node6&#45;&gt;Node7</title>
<path fill="none" stroke="midnightblue" d="M719.55,-190.41C703.84,-183.28 684.38,-171.46 675,-154 668.48,-141.86 665.7,-133.17 675,-123 708.19,-86.7 1034.68,-76.28 1174.73,-73.47"/>
<polygon fill="midnightblue" stroke="midnightblue" points="1174.96,-76.97 1184.89,-73.28 1174.82,-69.97 1174.96,-76.97"/>
</g>
<!-- Node6&#45;&gt;Node8 -->
<g id="edge7" class="edge">
<title>Node6&#45;&gt;Node8</title>
<path fill="none" stroke="midnightblue" d="M816.33,-192.47C910.55,-184.35 1078.91,-169.63 1223,-154 1237.81,-152.39 1253.67,-150.52 1268.97,-148.65"/>
<polygon fill="midnightblue" stroke="midnightblue" points="1269.42,-152.12 1278.92,-147.44 1268.57,-145.18 1269.42,-152.12"/>
</g>
<!-- Node9 -->
<g id="node9" class="node">
<title>Node9</title>
<g id="a_node9"><a xlink:href="sequence_8h.html" target="_top" xlink:title="Functions and data structures related to sequence representations ,.">
<polygon fill="none" stroke="black" points="378,-129 378,-148 500,-148 500,-129 378,-129"/>
<text text-anchor="middle" x="439" y="-136" font-family="Helvetica,sans-Serif" font-size="10.00">ViennaRNA/sequence.h</text>
</a>
</g>
</g>
<!-- Node6&#45;&gt;Node9 -->
<g id="edge12" class="edge">
<title>Node6&#45;&gt;Node9</title>
<path fill="none" stroke="midnightblue" d="M690.93,-190.48C641.5,-181.57 565.52,-167.08 500,-154 493.77,-152.76 487.23,-151.43 480.83,-150.1"/>
<polygon fill="midnightblue" stroke="midnightblue" points="481.46,-146.66 470.95,-148.03 480.02,-153.51 481.46,-146.66"/>
</g>
<!-- Node6&#45;&gt;Node10 -->
<g id="edge14" class="edge">
<title>Node6&#45;&gt;Node10</title>
<path fill="none" stroke="midnightblue" d="M809.39,-190.49C875.96,-182.24 981.15,-168.82 1072,-154 1079.55,-152.77 1087.5,-151.36 1095.39,-149.91"/>
<polygon fill="midnightblue" stroke="midnightblue" points="1096.13,-153.33 1105.33,-148.06 1094.86,-146.45 1096.13,-153.33"/>
</g>
<!-- Node6&#45;&gt;Node11 -->
<g id="edge17" class="edge">
<title>Node6&#45;&gt;Node11</title>
<path fill="none" stroke="midnightblue" d="M669.78,-193.33C588.53,-186.27 453.63,-172.97 331.41,-154.63"/>
<polygon fill="midnightblue" stroke="midnightblue" points="331.92,-151.17 321.5,-153.13 330.87,-158.09 331.92,-151.17"/>
</g>
<!-- Node6&#45;&gt;Node13 -->
<g id="edge21" class="edge">
<title>Node6&#45;&gt;Node13</title>
<path fill="none" stroke="midnightblue" d="M757.58,-190.48C775.34,-181.89 805.76,-168.38 831.77,-157.43"/>
<polygon fill="midnightblue" stroke="midnightblue" points="833.24,-160.61 841.12,-153.52 830.54,-154.15 833.24,-160.61"/>
</g>
<!-- Node6&#45;&gt;Node14 -->
<g id="edge25" class="edge">
<title>Node6&#45;&gt;Node14</title>
<path fill="none" stroke="midnightblue" d="M738.1,-190.48C736.27,-182.08 735.8,-168.98 736.69,-158.16"/>
<polygon fill="midnightblue" stroke="midnightblue" points="740.19,-158.4 738.1,-148.01 733.25,-157.43 740.19,-158.4"/>
</g>
<!-- Node6&#45;&gt;Node15 -->
<g id="edge27" class="edge">
<title>Node6&#45;&gt;Node15</title>
<path fill="none" stroke="midnightblue" d="M781.83,-190.48C824.73,-181.06 894.6,-165.72 946.5,-154.32"/>
<polygon fill="midnightblue" stroke="midnightblue" points="947.28,-157.73 956.3,-152.17 945.78,-150.89 947.28,-157.73"/>
</g>
<!-- Node6&#45;&gt;Node16 -->
<g id="edge28" class="edge">
<title>Node6&#45;&gt;Node16</title>
<path fill="none" stroke="midnightblue" d="M669.65,-196.08C564.39,-191.1 364.65,-179.1 190.71,-154.92"/>
<polygon fill="midnightblue" stroke="midnightblue" points="191,-151.43 180.61,-153.5 190.03,-158.36 191,-151.43"/>
</g>
<!-- Node18 -->
<g id="node18" class="node">
<title>Node18</title>
<g id="a_node18"><a xlink:href="zscore_8h_source.html" target="_top" xlink:title=" ">
<polygon fill="none" stroke="black" points="518.5,-129 518.5,-148 627.5,-148 627.5,-129 518.5,-129"/>
<text text-anchor="middle" x="573" y="-136" font-family="Helvetica,sans-Serif" font-size="10.00">ViennaRNA/zscore.h</text>
</a>
</g>
</g>
<!-- Node6&#45;&gt;Node18 -->
<g id="edge34" class="edge">
<title>Node6&#45;&gt;Node18</title>
<path fill="none" stroke="midnightblue" d="M718.64,-190.48C689.36,-180.22 640.03,-162.96 607,-151.4"/>
<polygon fill="midnightblue" stroke="midnightblue" points="607.91,-148.01 597.31,-148.01 605.59,-154.62 607.91,-148.01"/>
</g>
<!-- Node8&#45;&gt;Node3 -->
<g id="edge9" class="edge">
<title>Node8&#45;&gt;Node3</title>
<path fill="none" stroke="midnightblue" d="M1346.16,-148.23C1336.64,-163.63 1306.81,-195.38 1274,-210 1221.31,-233.48 1064.16,-248.55 968.25,-255.67"/>
<polygon fill="midnightblue" stroke="midnightblue" points="967.74,-252.2 958.02,-256.42 968.25,-259.18 967.74,-252.2"/>
</g>
<!-- Node8&#45;&gt;Node4 -->
<g id="edge8" class="edge">
<title>Node8&#45;&gt;Node4</title>
<path fill="none" stroke="midnightblue" d="M1353.39,-128.73C1359.51,-118.79 1369.64,-102.34 1377.36,-89.79"/>
<polygon fill="midnightblue" stroke="midnightblue" points="1380.43,-91.48 1382.69,-81.13 1374.47,-87.81 1380.43,-91.48"/>
</g>
<!-- Node8&#45;&gt;Node6 -->
<g id="edge10" class="edge">
<title>Node8&#45;&gt;Node6</title>
<path fill="none" stroke="midnightblue" d="M1291.72,-148C1275.39,-150.07 1257.55,-152.21 1241,-154 1095.7,-169.76 925.71,-184.59 826.56,-192.67"/>
<polygon fill="midnightblue" stroke="midnightblue" points="825.99,-189.21 816.3,-193.5 826.55,-196.18 825.99,-189.21"/>
</g>
<!-- Node8&#45;&gt;Node7 -->
<g id="edge11" class="edge">
<title>Node8&#45;&gt;Node7</title>
<path fill="none" stroke="midnightblue" d="M1333.16,-128.73C1314.69,-117.82 1282.93,-99.05 1261.22,-86.22"/>
<polygon fill="midnightblue" stroke="midnightblue" points="1262.99,-83.2 1252.6,-81.13 1259.43,-89.23 1262.99,-83.2"/>
</g>
<!-- Node9&#45;&gt;Node6 -->
<g id="edge13" class="edge">
<title>Node9&#45;&gt;Node6</title>
<path fill="none" stroke="midnightblue" d="M488.44,-148.03C498.3,-150.02 508.51,-152.1 518,-154 578.91,-166.16 648.87,-179.54 694.49,-188.52"/>
<polygon fill="midnightblue" stroke="midnightblue" points="693.92,-191.98 704.41,-190.48 695.27,-185.11 693.92,-191.98"/>
</g>
<!-- Node10&#45;&gt;Node3 -->
<g id="edge15" class="edge">
<title>Node10&#45;&gt;Node3</title>
<path fill="none" stroke="midnightblue" d="M1140.87,-148.09C1101.63,-167.65 996.53,-215.83 935.79,-242.33"/>
<polygon fill="midnightblue" stroke="midnightblue" points="934.22,-239.19 926.44,-246.38 937.01,-245.61 934.22,-239.19"/>
</g>
<!-- Node10&#45;&gt;Node6 -->
<g id="edge16" class="edge">
<title>Node10&#45;&gt;Node6</title>
<path fill="none" stroke="midnightblue" d="M1122.73,-148.06C1112.29,-150.13 1100.73,-152.25 1090,-154 1000.48,-168.6 897.05,-181.84 826.49,-190.12"/>
<polygon fill="midnightblue" stroke="midnightblue" points="825.85,-186.67 816.32,-191.31 826.66,-193.63 825.85,-186.67"/>
</g>
<!-- Node11&#45;&gt;Node6 -->
<g id="edge18" class="edge">
<title>Node11&#45;&gt;Node6</title>
<path fill="none" stroke="midnightblue" d="M321.75,-150.04C329.59,-151.48 337.49,-152.85 345,-154 453.5,-170.6 579.17,-183.54 659.85,-191.21"/>
<polygon fill="midnightblue" stroke="midnightblue" points="659.67,-194.7 669.96,-192.16 660.33,-187.73 659.67,-194.7"/>
</g>
<!-- Node12 -->
<g id="node12" class="node">
<title>Node12</title>
<g id="a_node12"><a xlink:href="constraints_2basic_8h.html" target="_top" xlink:title="Functions and data structures for constraining secondary structure predictions and evaluation.">
<polygon fill="none" stroke="black" points="290.5,-56.5 290.5,-86.5 409.5,-86.5 409.5,-56.5 290.5,-56.5"/>
<text text-anchor="start" x="298.5" y="-74.5" font-family="Helvetica,sans-Serif" font-size="10.00">ViennaRNA/constraints</text>
<text text-anchor="middle" x="350" y="-63.5" font-family="Helvetica,sans-Serif" font-size="10.00">/basic.h</text>
</a>
</g>
</g>
<!-- Node11&#45;&gt;Node12 -->
<g id="edge19" class="edge">
<title>Node11&#45;&gt;Node12</title>
<path fill="none" stroke="midnightblue" d="M281.09,-123.4C293.32,-114.37 309.37,-102.51 322.9,-92.52"/>
<polygon fill="midnightblue" stroke="midnightblue" points="324.98,-95.33 330.94,-86.58 320.82,-89.7 324.98,-95.33"/>
</g>
<!-- Node12&#45;&gt;Node6 -->
<g id="edge20" class="edge">
<title>Node12&#45;&gt;Node6</title>
<path fill="none" stroke="midnightblue" d="M348.82,-86.72C348.14,-105.18 350.07,-137.03 369,-154 410.51,-191.2 562.57,-198.81 659.55,-199.75"/>
<polygon fill="midnightblue" stroke="midnightblue" points="659.61,-203.25 669.63,-199.82 659.66,-196.25 659.61,-203.25"/>
</g>
<!-- Node13&#45;&gt;Node3 -->
<g id="edge22" class="edge">
<title>Node13&#45;&gt;Node3</title>
<path fill="none" stroke="midnightblue" d="M884.97,-153.84C889.54,-174.11 893.57,-211.44 894.12,-236.12"/>
<polygon fill="midnightblue" stroke="midnightblue" points="890.62,-236.15 894.13,-246.14 897.62,-236.14 890.62,-236.15"/>
</g>
<!-- Node13&#45;&gt;Node6 -->
<g id="edge23" class="edge">
<title>Node13&#45;&gt;Node6</title>
<path fill="none" stroke="midnightblue" d="M852.78,-153.52C831.04,-163.6 800.2,-177.06 776.66,-186.72"/>
<polygon fill="midnightblue" stroke="midnightblue" points="775.34,-183.48 767.39,-190.48 777.97,-189.96 775.34,-183.48"/>
</g>
<!-- Node13&#45;&gt;Node12 -->
<g id="edge24" class="edge">
<title>Node13&#45;&gt;Node12</title>
<path fill="none" stroke="midnightblue" d="M819.23,-124.57C816.11,-124.01 813.02,-123.48 810,-123 672.49,-101.06 510.33,-85.68 419.92,-78.03"/>
<polygon fill="midnightblue" stroke="midnightblue" points="420.05,-74.53 409.8,-77.18 419.47,-81.51 420.05,-74.53"/>
</g>
<!-- Node14&#45;&gt;Node6 -->
<g id="edge26" class="edge">
<title>Node14&#45;&gt;Node6</title>
<path fill="none" stroke="midnightblue" d="M747.9,-148.01C749.73,-156.4 750.2,-169.5 749.32,-180.32"/>
<polygon fill="midnightblue" stroke="midnightblue" points="745.81,-180.09 747.9,-190.48 752.75,-181.05 745.81,-180.09"/>
</g>
<!-- Node16&#45;&gt;Node3 -->
<g id="edge29" class="edge">
<title>Node16&#45;&gt;Node3</title>
<path fill="none" stroke="midnightblue" d="M184.79,-150.73C190.63,-151.86 196.43,-152.98 202,-154 423.27,-194.69 686.02,-231.78 813.74,-249.51"/>
<polygon fill="midnightblue" stroke="midnightblue" points="813.43,-253 823.82,-250.91 814.39,-246.07 813.43,-253"/>
</g>
<!-- Node16&#45;&gt;Node6 -->
<g id="edge30" class="edge">
<title>Node16&#45;&gt;Node6</title>
<path fill="none" stroke="midnightblue" d="M184.72,-151.19C190.57,-152.24 196.4,-153.2 202,-154 363.48,-177.01 553.45,-189.32 659.93,-194.98"/>
<polygon fill="midnightblue" stroke="midnightblue" points="659.8,-198.48 669.97,-195.51 660.17,-191.49 659.8,-198.48"/>
</g>
<!-- Node16&#45;&gt;Node17 -->
<g id="edge31" class="edge">
<title>Node16&#45;&gt;Node17</title>
<path fill="none" stroke="midnightblue" d="M111.15,-123.4C103.43,-113.36 93.03,-99.84 84.89,-89.25"/>
<polygon fill="midnightblue" stroke="midnightblue" points="87.56,-86.99 78.69,-81.19 82.01,-91.25 87.56,-86.99"/>
</g>
<!-- Node17&#45;&gt;Node2 -->
<g id="edge32" class="edge">
<title>Node17&#45;&gt;Node2</title>
<path fill="none" stroke="midnightblue" d="M144.02,-64.83C184.29,-61.83 235.41,-58.3 281,-56 787.28,-30.45 916.61,-70.55 1421,-20 1427.46,-19.35 1434.32,-18.39 1440.89,-17.34"/>
<polygon fill="midnightblue" stroke="midnightblue" points="1441.61,-20.77 1450.87,-15.63 1440.43,-13.87 1441.61,-20.77"/>
</g>
<!-- Node17&#45;&gt;Node3 -->
<g id="edge33" class="edge">
<title>Node17&#45;&gt;Node3</title>
<path fill="none" stroke="midnightblue" d="M70.33,-81.23C62.2,-97.49 40.66,-132.66 59,-154 108.1,-211.12 616.45,-244.99 813.57,-256.27"/>
<polygon fill="midnightblue" stroke="midnightblue" points="813.66,-259.78 823.85,-256.85 814.06,-252.79 813.66,-259.78"/>
</g>
</g>
</svg>
