<?xml version="1.0" encoding="UTF-8" standalone="no"?>
<!DOCTYPE svg PUBLIC "-//W3C//DTD SVG 1.1//EN"
 "http://www.w3.org/Graphics/SVG/1.1/DTD/svg11.dtd">
<!-- Generated by graphviz version 2.47.0 (0)
 -->
<!-- Title: ViennaRNA/unstructured_domains.h Pages: 1 -->
<!--zoomable 352 -->
<svg id="main" version="1.1" xmlns="http://www.w3.org/2000/svg" xmlns:xlink="http://www.w3.org/1999/xlink" xml:space="preserve" onload="init(evt)">
<style type="text/css"><![CDATA[
.edge:hover path { stroke: red; }
.edge:hover polygon { stroke: red; fill: red; }
]]></style>
<script type="text/javascript"><![CDATA[
var edges = document.getElementsByTagName('g');
if (edges && edges.length) {
  for (var i=0;i<edges.length;i++) {
    if (edges[i].id.substr(0,4)=='edge') {
      edges[i].setAttribute('class','edge');
    }
  }
}
]]></script>
        <defs>
                <circle id="rim" cx="0" cy="0" r="7"/>
                <circle id="rim2" cx="0" cy="0" r="3.5"/>
                <g id="zoomPlus">
                        <use xlink:href="#rim" fill="#404040">
                                <set attributeName="fill" to="#808080" begin="zoomplus.mouseover" end="zoomplus.mouseout"/>
                        </use>
                        <path d="M-4,0h8M0,-4v8" fill="none" stroke="white" stroke-width="1.5" pointer-events="none"/>
                </g>
                <g id="zoomMin">
                        <use xlink:href="#rim" fill="#404040">
                                <set attributeName="fill" to="#808080" begin="zoomminus.mouseover" end="zoomminus.mouseout"/>
                        </use>
                        <path d="M-4,0h8" fill="none" stroke="white" stroke-width="1.5" pointer-events="none"/>
                </g>
                <g id="dirArrow">
                        <path fill="none" stroke="white" stroke-width="1.5" d="M0,-3.0v7 M-2.5,-0.5L0,-3.0L2.5,-0.5"/>
                </g>
               <g id="resetDef">
                       <use xlink:href="#rim2" fill="#404040">
                               <set attributeName="fill" to="#808080" begin="reset.mouseover" end="reset.mouseout"/>
                       </use>
               </g>
        </defs>

<script type="text/javascript">
var viewWidth = 1423;
var viewHeight = 352;
var sectionId = 'dynsection-0';
</script>
<script xlink:href="svgpan.js"/>
<svg id="graph" class="graph">
<g id="viewport">
<title>ViennaRNA/unstructured_domains.h</title>
<!-- Node1 -->
<g id="node1" class="node">
<title>Node1</title>
<g id="a_node1"><a xlink:title="Functions to modify unstructured domains, e.g. to incorporate ligands binding to unpaired stretches.">
<polygon fill="#bfbfbf" stroke="black" points="771,-313.5 771,-343.5 896,-343.5 896,-313.5 771,-313.5"/>
<text text-anchor="start" x="779" y="-331.5" font-family="Helvetica,sans-Serif" font-size="10.00">ViennaRNA/unstructured</text>
<text text-anchor="middle" x="833.5" y="-320.5" font-family="Helvetica,sans-Serif" font-size="10.00">_domains.h</text>
</a>
</g>
</g>
<!-- Node2 -->
<g id="node2" class="node">
<title>Node2</title>
<g id="a_node2"><a xlink:href="datastructures_2basic_8h.html" target="_top" xlink:title="Various data structures and pre&#45;processor macros.">
<polygon fill="none" stroke="black" points="766.5,-246.5 766.5,-276.5 900.5,-276.5 900.5,-246.5 766.5,-246.5"/>
<text text-anchor="start" x="774.5" y="-264.5" font-family="Helvetica,sans-Serif" font-size="10.00">ViennaRNA/datastructures</text>
<text text-anchor="middle" x="833.5" y="-253.5" font-family="Helvetica,sans-Serif" font-size="10.00">/basic.h</text>
</a>
</g>
</g>
<!-- Node1&#45;&gt;Node2 -->
<g id="edge1" class="edge">
<title>Node1&#45;&gt;Node2</title>
<path fill="none" stroke="midnightblue" d="M827.82,-313.4C826.79,-305.56 826.51,-295.6 826.96,-286.57"/>
<polygon fill="midnightblue" stroke="midnightblue" points="830.45,-286.84 827.83,-276.58 823.47,-286.24 830.45,-286.84"/>
</g>
<!-- Node5 -->
<g id="node5" class="node">
<title>Node5</title>
<g id="a_node5"><a xlink:href="fold__compound_8h.html" target="_top" xlink:title="The Basic Fold Compound API.">
<polygon fill="none" stroke="black" points="612.5,-190.5 612.5,-209.5 758.5,-209.5 758.5,-190.5 612.5,-190.5"/>
<text text-anchor="middle" x="685.5" y="-197.5" font-family="Helvetica,sans-Serif" font-size="10.00">ViennaRNA/fold_compound.h</text>
</a>
</g>
</g>
<!-- Node1&#45;&gt;Node5 -->
<g id="edge40" class="edge">
<title>Node1&#45;&gt;Node5</title>
<path fill="none" stroke="midnightblue" d="M801.53,-313.34C784.81,-303.86 764.74,-290.67 748.5,-277 726.64,-258.61 704.49,-234.16 692.72,-218.02"/>
<polygon fill="midnightblue" stroke="midnightblue" points="695.54,-215.94 687.07,-209.58 689.73,-219.84 695.54,-215.94"/>
</g>
<!-- Node16 -->
<g id="node16" class="node">
<title>Node16</title>
<g id="a_node16"><a xlink:href="utils_2structures_8h.html" target="_top" xlink:title="Various utility&#45; and helper&#45;functions for secondary structure parsing, converting,...">
<polygon fill="none" stroke="black" points="1270.5,-190.5 1270.5,-209.5 1414.5,-209.5 1414.5,-190.5 1270.5,-190.5"/>
<text text-anchor="middle" x="1342.5" y="-197.5" font-family="Helvetica,sans-Serif" font-size="10.00">ViennaRNA/utils/structures.h</text>
</a>
</g>
</g>
<!-- Node1&#45;&gt;Node16 -->
<g id="edge41" class="edge">
<title>Node1&#45;&gt;Node16</title>
<path fill="none" stroke="midnightblue" d="M889.92,-313.48C992.08,-288.09 1205.7,-235 1298.21,-212.01"/>
<polygon fill="midnightblue" stroke="midnightblue" points="1299.23,-215.36 1308.09,-209.55 1297.54,-208.57 1299.23,-215.36"/>
</g>
<!-- Node2&#45;&gt;Node1 -->
<g id="edge36" class="edge">
<title>Node2&#45;&gt;Node1</title>
<path fill="none" stroke="midnightblue" d="M839.17,-276.58C840.2,-284.41 840.49,-294.37 840.05,-303.4"/>
<polygon fill="midnightblue" stroke="midnightblue" points="836.56,-303.13 839.18,-313.4 843.53,-303.74 836.56,-303.13"/>
</g>
<!-- Node3 -->
<g id="node3" class="node">
<title>Node3</title>
<g id="a_node3"><a xlink:href="constants_8h.html" target="_top" xlink:title="Energy parameter constants.">
<polygon fill="none" stroke="black" points="1163.5,-62 1163.5,-81 1321.5,-81 1321.5,-62 1163.5,-62"/>
<text text-anchor="middle" x="1242.5" y="-69" font-family="Helvetica,sans-Serif" font-size="10.00">ViennaRNA/params/constants.h</text>
</a>
</g>
</g>
<!-- Node2&#45;&gt;Node3 -->
<g id="edge2" class="edge">
<title>Node2&#45;&gt;Node3</title>
<path fill="none" stroke="midnightblue" d="M900.68,-256.73C960.3,-251.53 1048.81,-239.19 1120.5,-210 1161.37,-193.36 1173.6,-187.35 1202.5,-154 1218.82,-135.16 1230.25,-108.49 1236.59,-90.85"/>
<polygon fill="midnightblue" stroke="midnightblue" points="1239.97,-91.79 1239.89,-81.19 1233.35,-89.53 1239.97,-91.79"/>
</g>
<!-- Node2&#45;&gt;Node5 -->
<g id="edge4" class="edge">
<title>Node2&#45;&gt;Node5</title>
<path fill="none" stroke="midnightblue" d="M798.43,-246.4C773.48,-236.37 740.29,-223.03 716.36,-213.4"/>
<polygon fill="midnightblue" stroke="midnightblue" points="717.62,-210.14 707.04,-209.66 715.01,-216.64 717.62,-210.14"/>
</g>
<!-- Node6 -->
<g id="node6" class="node">
<title>Node6</title>
<g id="a_node6"><a xlink:href="model_8h.html" target="_top" xlink:title="The model details data structure and its corresponding modifiers.">
<polygon fill="none" stroke="black" points="1039.5,-62 1039.5,-81 1145.5,-81 1145.5,-62 1039.5,-62"/>
<text text-anchor="middle" x="1092.5" y="-69" font-family="Helvetica,sans-Serif" font-size="10.00">ViennaRNA/model.h</text>
</a>
</g>
</g>
<!-- Node2&#45;&gt;Node6 -->
<g id="edge29" class="edge">
<title>Node2&#45;&gt;Node6</title>
<path fill="none" stroke="midnightblue" d="M900.64,-249.84C992.92,-233.67 1151.44,-199.89 1185.5,-154 1193.71,-142.94 1192.54,-134.84 1185.5,-123 1174.49,-104.49 1154.07,-92.35 1135.16,-84.62"/>
<polygon fill="midnightblue" stroke="midnightblue" points="1136.35,-81.33 1125.76,-81.07 1133.88,-87.88 1136.35,-81.33"/>
</g>
<!-- Node7 -->
<g id="node7" class="node">
<title>Node7</title>
<g id="a_node7"><a xlink:href="params_2basic_8h.html" target="_top" xlink:title="Functions to deal with sets of energy parameters.">
<polygon fill="none" stroke="black" points="1038.5,-129 1038.5,-148 1176.5,-148 1176.5,-129 1038.5,-129"/>
<text text-anchor="middle" x="1107.5" y="-136" font-family="Helvetica,sans-Serif" font-size="10.00">ViennaRNA/params/basic.h</text>
</a>
</g>
</g>
<!-- Node2&#45;&gt;Node7 -->
<g id="edge30" class="edge">
<title>Node2&#45;&gt;Node7</title>
<path fill="none" stroke="midnightblue" d="M860.94,-246.38C911.86,-222.56 1020.21,-174.74 1074.82,-152.03"/>
<polygon fill="midnightblue" stroke="midnightblue" points="1076.45,-155.14 1084.36,-148.09 1073.78,-148.67 1076.45,-155.14"/>
</g>
<!-- Node9 -->
<g id="node9" class="node">
<title>Node9</title>
<g id="a_node9"><a xlink:href="dp__matrices_8h.html" target="_top" xlink:title="Functions to deal with standard dynamic programming (DP) matrices.">
<polygon fill="none" stroke="black" points="0,-129 0,-148 133,-148 133,-129 0,-129"/>
<text text-anchor="middle" x="66.5" y="-136" font-family="Helvetica,sans-Serif" font-size="10.00">ViennaRNA/dp_matrices.h</text>
</a>
</g>
</g>
<!-- Node2&#45;&gt;Node9 -->
<g id="edge31" class="edge">
<title>Node2&#45;&gt;Node9</title>
<path fill="none" stroke="midnightblue" d="M766.31,-253.09C689.39,-243.85 560.01,-227.19 449.5,-210 308.13,-188 273.18,-180.02 132.5,-154 125.67,-152.74 118.49,-151.38 111.47,-150.03"/>
<polygon fill="midnightblue" stroke="midnightblue" points="111.84,-146.53 101.36,-148.05 110.5,-153.4 111.84,-146.53"/>
</g>
<!-- Node10 -->
<g id="node10" class="node">
<title>Node10</title>
<g id="a_node10"><a xlink:href="hard_8h.html" target="_top" xlink:title="Functions and data structures for handling of secondary structure hard constraints.">
<polygon fill="none" stroke="black" points="151,-123.5 151,-153.5 270,-153.5 270,-123.5 151,-123.5"/>
<text text-anchor="start" x="159" y="-141.5" font-family="Helvetica,sans-Serif" font-size="10.00">ViennaRNA/constraints</text>
<text text-anchor="middle" x="210.5" y="-130.5" font-family="Helvetica,sans-Serif" font-size="10.00">/hard.h</text>
</a>
</g>
</g>
<!-- Node2&#45;&gt;Node10 -->
<g id="edge32" class="edge">
<title>Node2&#45;&gt;Node10</title>
<path fill="none" stroke="midnightblue" d="M766.48,-248C664.12,-228.83 462.43,-190.71 280.36,-154.15"/>
<polygon fill="midnightblue" stroke="midnightblue" points="280.82,-150.68 270.33,-152.14 279.44,-157.54 280.82,-150.68"/>
</g>
<!-- Node12 -->
<g id="node12" class="node">
<title>Node12</title>
<g id="a_node12"><a xlink:href="soft_8h.html" target="_top" xlink:title="Functions and data structures for secondary structure soft constraints.">
<polygon fill="none" stroke="black" points="768,-123.5 768,-153.5 887,-153.5 887,-123.5 768,-123.5"/>
<text text-anchor="start" x="776" y="-141.5" font-family="Helvetica,sans-Serif" font-size="10.00">ViennaRNA/constraints</text>
<text text-anchor="middle" x="827.5" y="-130.5" font-family="Helvetica,sans-Serif" font-size="10.00">/soft.h</text>
</a>
</g>
</g>
<!-- Node2&#45;&gt;Node12 -->
<g id="edge33" class="edge">
<title>Node2&#45;&gt;Node12</title>
<path fill="none" stroke="midnightblue" d="M828.23,-246.14C824.68,-225.86 822.5,-188.53 823.17,-163.86"/>
<polygon fill="midnightblue" stroke="midnightblue" points="826.67,-164 823.66,-153.84 819.67,-163.65 826.67,-164"/>
</g>
<!-- Node13 -->
<g id="node13" class="node">
<title>Node13</title>
<g id="a_node13"><a xlink:href="grammar_8h.html" target="_top" xlink:title="Implementations for the RNA folding grammar.">
<polygon fill="none" stroke="black" points="633,-129 633,-148 750,-148 750,-129 633,-129"/>
<text text-anchor="middle" x="691.5" y="-136" font-family="Helvetica,sans-Serif" font-size="10.00">ViennaRNA/grammar.h</text>
</a>
</g>
</g>
<!-- Node2&#45;&gt;Node13 -->
<g id="edge34" class="edge">
<title>Node2&#45;&gt;Node13</title>
<path fill="none" stroke="midnightblue" d="M821.96,-246.34C809.41,-231.41 788.36,-207.66 767.5,-190 751.18,-176.18 730.94,-162.9 715.45,-153.42"/>
<polygon fill="midnightblue" stroke="midnightblue" points="716.87,-150.2 706.5,-148.05 713.27,-156.2 716.87,-150.2"/>
</g>
<!-- Node14 -->
<g id="node14" class="node">
<title>Node14</title>
<g id="a_node14"><a xlink:href="structured__domains_8h.html" target="_top" xlink:title="This module provides interfaces that deal with additional structured domains in the folding grammar.">
<polygon fill="none" stroke="black" points="905,-123.5 905,-153.5 1020,-153.5 1020,-123.5 905,-123.5"/>
<text text-anchor="start" x="913" y="-141.5" font-family="Helvetica,sans-Serif" font-size="10.00">ViennaRNA/structured</text>
<text text-anchor="middle" x="962.5" y="-130.5" font-family="Helvetica,sans-Serif" font-size="10.00">_domains.h</text>
</a>
</g>
</g>
<!-- Node2&#45;&gt;Node14 -->
<g id="edge35" class="edge">
<title>Node2&#45;&gt;Node14</title>
<path fill="none" stroke="midnightblue" d="M848.55,-246.38C871.08,-225.25 913.71,-185.26 939.97,-160.64"/>
<polygon fill="midnightblue" stroke="midnightblue" points="942.65,-162.92 947.55,-153.53 937.86,-157.82 942.65,-162.92"/>
</g>
<!-- Node2&#45;&gt;Node16 -->
<g id="edge37" class="edge">
<title>Node2&#45;&gt;Node16</title>
<path fill="none" stroke="midnightblue" d="M900.74,-252.07C993.47,-240.94 1160.33,-221.43 1260.34,-210.02"/>
<polygon fill="midnightblue" stroke="midnightblue" points="1260.86,-213.48 1270.4,-208.87 1260.07,-206.53 1260.86,-213.48"/>
</g>
<!-- Node4 -->
<g id="node4" class="node">
<title>Node4</title>
<g id="a_node4"><a xlink:title=" ">
<polygon fill="none" stroke="#bfbfbf" points="1218.5,-0.5 1218.5,-19.5 1266.5,-19.5 1266.5,-0.5 1218.5,-0.5"/>
<text text-anchor="middle" x="1242.5" y="-7.5" font-family="Helvetica,sans-Serif" font-size="10.00">limits.h</text>
</a>
</g>
</g>
<!-- Node3&#45;&gt;Node4 -->
<g id="edge3" class="edge">
<title>Node3&#45;&gt;Node4</title>
<path fill="none" stroke="midnightblue" d="M1242.5,-61.98C1242.5,-53.58 1242.5,-40.48 1242.5,-29.66"/>
<polygon fill="midnightblue" stroke="midnightblue" points="1246,-29.51 1242.5,-19.51 1239,-29.51 1246,-29.51"/>
</g>
<!-- Node5&#45;&gt;Node1 -->
<g id="edge27" class="edge">
<title>Node5&#45;&gt;Node1</title>
<path fill="none" stroke="midnightblue" d="M697.94,-209.58C713.78,-224.33 740.35,-255 766.5,-277 779.7,-288.1 795.42,-298.9 808.43,-307.64"/>
<polygon fill="midnightblue" stroke="midnightblue" points="806.69,-310.68 816.95,-313.34 810.58,-304.86 806.69,-310.68"/>
</g>
<!-- Node5&#45;&gt;Node6 -->
<g id="edge5" class="edge">
<title>Node5&#45;&gt;Node6</title>
<path fill="none" stroke="midnightblue" d="M665.28,-190.49C650.73,-183.17 632.2,-171.06 623.5,-154 617.24,-141.73 614.29,-133.25 623.5,-123 650.12,-93.36 907.22,-79.6 1029.06,-74.71"/>
<polygon fill="midnightblue" stroke="midnightblue" points="1029.5,-78.19 1039.36,-74.3 1029.23,-71.2 1029.5,-78.19"/>
</g>
<!-- Node5&#45;&gt;Node7 -->
<g id="edge6" class="edge">
<title>Node5&#45;&gt;Node7</title>
<path fill="none" stroke="midnightblue" d="M751.97,-190.47C819.48,-182.13 926.8,-168.58 1019.5,-154 1027.62,-152.72 1036.19,-151.27 1044.68,-149.78"/>
<polygon fill="midnightblue" stroke="midnightblue" points="1045.34,-153.22 1054.57,-148.03 1044.12,-146.32 1045.34,-153.22"/>
</g>
<!-- Node8 -->
<g id="node8" class="node">
<title>Node8</title>
<g id="a_node8"><a xlink:href="sequence_8h.html" target="_top" xlink:title="Functions and data structures related to sequence representations ,.">
<polygon fill="none" stroke="black" points="288.5,-129 288.5,-148 410.5,-148 410.5,-129 288.5,-129"/>
<text text-anchor="middle" x="349.5" y="-136" font-family="Helvetica,sans-Serif" font-size="10.00">ViennaRNA/sequence.h</text>
</a>
</g>
</g>
<!-- Node5&#45;&gt;Node8 -->
<g id="edge11" class="edge">
<title>Node5&#45;&gt;Node8</title>
<path fill="none" stroke="midnightblue" d="M627.42,-190.47C572.52,-181.64 488.21,-167.3 415.5,-154 408.58,-152.73 401.3,-151.37 394.19,-150"/>
<polygon fill="midnightblue" stroke="midnightblue" points="394.45,-146.49 383.97,-148.01 393.11,-153.36 394.45,-146.49"/>
</g>
<!-- Node5&#45;&gt;Node9 -->
<g id="edge13" class="edge">
<title>Node5&#45;&gt;Node9</title>
<path fill="none" stroke="midnightblue" d="M612.48,-195.79C506.24,-190.34 303.37,-177.51 132.5,-154 124.46,-152.89 115.98,-151.49 107.86,-149.99"/>
<polygon fill="midnightblue" stroke="midnightblue" points="108.29,-146.51 97.81,-148.06 106.97,-153.38 108.29,-146.51"/>
</g>
<!-- Node5&#45;&gt;Node10 -->
<g id="edge16" class="edge">
<title>Node5&#45;&gt;Node10</title>
<path fill="none" stroke="midnightblue" d="M612.4,-193.6C531.39,-186.8 396.97,-173.77 277.61,-155.11"/>
<polygon fill="midnightblue" stroke="midnightblue" points="278,-151.63 267.58,-153.52 276.91,-158.54 278,-151.63"/>
</g>
<!-- Node5&#45;&gt;Node12 -->
<g id="edge20" class="edge">
<title>Node5&#45;&gt;Node12</title>
<path fill="none" stroke="midnightblue" d="M700.94,-190.48C719.64,-181.85 751.63,-168.26 778.82,-157.29"/>
<polygon fill="midnightblue" stroke="midnightblue" points="780.22,-160.49 788.2,-153.52 777.62,-153.99 780.22,-160.49"/>
</g>
<!-- Node5&#45;&gt;Node13 -->
<g id="edge24" class="edge">
<title>Node5&#45;&gt;Node13</title>
<path fill="none" stroke="midnightblue" d="M681.46,-190.48C680.46,-181.99 681.34,-168.7 683.37,-157.82"/>
<polygon fill="midnightblue" stroke="midnightblue" points="686.79,-158.55 685.74,-148.01 679.99,-156.9 686.79,-158.55"/>
</g>
<!-- Node5&#45;&gt;Node14 -->
<g id="edge26" class="edge">
<title>Node5&#45;&gt;Node14</title>
<path fill="none" stroke="midnightblue" d="M725.37,-190.48C765.56,-181.89 829.63,-168.18 894.73,-154.16"/>
<polygon fill="midnightblue" stroke="midnightblue" points="895.72,-157.53 904.76,-152 894.25,-150.69 895.72,-157.53"/>
</g>
<!-- Node15 -->
<g id="node15" class="node">
<title>Node15</title>
<g id="a_node15"><a xlink:href="zscore_8h_source.html" target="_top" xlink:title=" ">
<polygon fill="none" stroke="black" points="467,-129 467,-148 576,-148 576,-129 467,-129"/>
<text text-anchor="middle" x="521.5" y="-136" font-family="Helvetica,sans-Serif" font-size="10.00">ViennaRNA/zscore.h</text>
</a>
</g>
</g>
<!-- Node5&#45;&gt;Node15 -->
<g id="edge28" class="edge">
<title>Node5&#45;&gt;Node15</title>
<path fill="none" stroke="midnightblue" d="M662,-190.48C633.87,-180.27 586.57,-163.11 554.71,-151.55"/>
<polygon fill="midnightblue" stroke="midnightblue" points="555.55,-148.13 544.95,-148.01 553.16,-154.71 555.55,-148.13"/>
</g>
<!-- Node7&#45;&gt;Node2 -->
<g id="edge8" class="edge">
<title>Node7&#45;&gt;Node2</title>
<path fill="none" stroke="midnightblue" d="M1091.73,-148.09C1050.95,-167.69 941.91,-216.03 879.26,-242.49"/>
<polygon fill="midnightblue" stroke="midnightblue" points="877.85,-239.28 869.99,-246.38 880.57,-245.73 877.85,-239.28"/>
</g>
<!-- Node7&#45;&gt;Node3 -->
<g id="edge7" class="edge">
<title>Node7&#45;&gt;Node3</title>
<path fill="none" stroke="midnightblue" d="M1125.43,-128.87C1148.42,-117.8 1188.53,-98.49 1215.3,-85.6"/>
<polygon fill="midnightblue" stroke="midnightblue" points="1217.01,-88.66 1224.5,-81.17 1213.97,-82.35 1217.01,-88.66"/>
</g>
<!-- Node7&#45;&gt;Node5 -->
<g id="edge9" class="edge">
<title>Node7&#45;&gt;Node5</title>
<path fill="none" stroke="midnightblue" d="M1071.98,-148.03C1060.96,-150.1 1048.8,-152.22 1037.5,-154 946.17,-168.36 840.66,-181.72 769.09,-190.09"/>
<polygon fill="midnightblue" stroke="midnightblue" points="768.31,-186.66 758.78,-191.29 769.12,-193.61 768.31,-186.66"/>
</g>
<!-- Node7&#45;&gt;Node6 -->
<g id="edge10" class="edge">
<title>Node7&#45;&gt;Node6</title>
<path fill="none" stroke="midnightblue" d="M1105.48,-128.73C1103.25,-119.09 1099.61,-103.3 1096.75,-90.91"/>
<polygon fill="midnightblue" stroke="midnightblue" points="1100.15,-90.08 1094.49,-81.13 1093.33,-91.66 1100.15,-90.08"/>
</g>
<!-- Node8&#45;&gt;Node5 -->
<g id="edge12" class="edge">
<title>Node8&#45;&gt;Node5</title>
<path fill="none" stroke="midnightblue" d="M401.44,-148.01C412.11,-150.01 423.19,-152.12 433.5,-154 501.42,-166.42 579.45,-179.75 630.56,-188.65"/>
<polygon fill="midnightblue" stroke="midnightblue" points="630.27,-192.16 640.72,-190.43 631.48,-185.26 630.27,-192.16"/>
</g>
<!-- Node9&#45;&gt;Node2 -->
<g id="edge14" class="edge">
<title>Node9&#45;&gt;Node2</title>
<path fill="none" stroke="midnightblue" d="M118.85,-148.05C129.39,-150.04 140.33,-152.12 150.5,-154 291.18,-180.02 326.13,-188 467.5,-210 567.16,-225.51 682.16,-240.58 756.31,-250.16"/>
<polygon fill="midnightblue" stroke="midnightblue" points="756.13,-253.66 766.5,-251.47 757.03,-246.72 756.13,-253.66"/>
</g>
<!-- Node9&#45;&gt;Node5 -->
<g id="edge15" class="edge">
<title>Node9&#45;&gt;Node5</title>
<path fill="none" stroke="midnightblue" d="M115.1,-148.06C126.75,-150.25 139.07,-152.43 150.5,-154 309.73,-175.91 496.75,-188.54 602.23,-194.57"/>
<polygon fill="midnightblue" stroke="midnightblue" points="602.31,-198.08 612.49,-195.15 602.7,-191.09 602.31,-198.08"/>
</g>
<!-- Node10&#45;&gt;Node5 -->
<g id="edge17" class="edge">
<title>Node10&#45;&gt;Node5</title>
<path fill="none" stroke="midnightblue" d="M270.2,-150.75C276.39,-151.94 282.58,-153.05 288.5,-154 396.45,-171.28 521.61,-184.07 602.15,-191.51"/>
<polygon fill="midnightblue" stroke="midnightblue" points="601.95,-195 612.23,-192.43 602.59,-188.03 601.95,-195"/>
</g>
<!-- Node11 -->
<g id="node11" class="node">
<title>Node11</title>
<g id="a_node11"><a xlink:href="constraints_2basic_8h.html" target="_top" xlink:title="Functions and data structures for constraining secondary structure predictions and evaluation.">
<polygon fill="none" stroke="black" points="379,-56.5 379,-86.5 498,-86.5 498,-56.5 379,-56.5"/>
<text text-anchor="start" x="387" y="-74.5" font-family="Helvetica,sans-Serif" font-size="10.00">ViennaRNA/constraints</text>
<text text-anchor="middle" x="438.5" y="-63.5" font-family="Helvetica,sans-Serif" font-size="10.00">/basic.h</text>
</a>
</g>
</g>
<!-- Node10&#45;&gt;Node11 -->
<g id="edge18" class="edge">
<title>Node10&#45;&gt;Node11</title>
<path fill="none" stroke="midnightblue" d="M259.69,-123.48C294.78,-113.47 342.14,-99.97 379.3,-89.38"/>
<polygon fill="midnightblue" stroke="midnightblue" points="380.35,-92.72 389,-86.61 378.43,-85.99 380.35,-92.72"/>
</g>
<!-- Node11&#45;&gt;Node5 -->
<g id="edge19" class="edge">
<title>Node11&#45;&gt;Node5</title>
<path fill="none" stroke="midnightblue" d="M437.51,-86.51C437.05,-104.73 439.22,-136.33 457.5,-154 478.1,-173.9 545.97,-185.57 602.35,-192.02"/>
<polygon fill="midnightblue" stroke="midnightblue" points="602.05,-195.5 612.37,-193.12 602.82,-188.55 602.05,-195.5"/>
</g>
<!-- Node12&#45;&gt;Node2 -->
<g id="edge21" class="edge">
<title>Node12&#45;&gt;Node2</title>
<path fill="none" stroke="midnightblue" d="M832.76,-153.84C836.32,-174.11 838.5,-211.44 837.83,-236.12"/>
<polygon fill="midnightblue" stroke="midnightblue" points="834.33,-235.99 837.34,-246.14 841.33,-236.33 834.33,-235.99"/>
</g>
<!-- Node12&#45;&gt;Node5 -->
<g id="edge22" class="edge">
<title>Node12&#45;&gt;Node5</title>
<path fill="none" stroke="midnightblue" d="M799.86,-153.52C777.01,-163.65 744.62,-177.18 720.07,-186.85"/>
<polygon fill="midnightblue" stroke="midnightblue" points="718.8,-183.59 710.75,-190.48 721.33,-190.11 718.8,-183.59"/>
</g>
<!-- Node12&#45;&gt;Node11 -->
<g id="edge23" class="edge">
<title>Node12&#45;&gt;Node11</title>
<path fill="none" stroke="midnightblue" d="M767.7,-124.74C764.59,-124.14 761.51,-123.55 758.5,-123 672.65,-107.22 573.28,-92.01 508.34,-82.48"/>
<polygon fill="midnightblue" stroke="midnightblue" points="508.62,-78.99 498.22,-81 507.61,-85.91 508.62,-78.99"/>
</g>
<!-- Node13&#45;&gt;Node5 -->
<g id="edge25" class="edge">
<title>Node13&#45;&gt;Node5</title>
<path fill="none" stroke="midnightblue" d="M695.54,-148.01C696.54,-156.49 695.66,-169.77 693.64,-180.66"/>
<polygon fill="midnightblue" stroke="midnightblue" points="690.21,-179.93 691.26,-190.48 697.02,-181.58 690.21,-179.93"/>
</g>
<!-- Node16&#45;&gt;Node2 -->
<g id="edge39" class="edge">
<title>Node16&#45;&gt;Node2</title>
<path fill="none" stroke="midnightblue" d="M1274.61,-209.51C1180.11,-220.84 1009.59,-240.78 910.48,-252.07"/>
<polygon fill="midnightblue" stroke="midnightblue" points="910.07,-248.6 900.53,-253.2 910.86,-255.55 910.07,-248.6"/>
</g>
<!-- Node17 -->
<g id="node17" class="node">
<title>Node17</title>
<g id="a_node17"><a xlink:title=" ">
<polygon fill="none" stroke="#bfbfbf" points="1319.5,-129 1319.5,-148 1365.5,-148 1365.5,-129 1319.5,-129"/>
<text text-anchor="middle" x="1342.5" y="-136" font-family="Helvetica,sans-Serif" font-size="10.00">stdio.h</text>
</a>
</g>
</g>
<!-- Node16&#45;&gt;Node17 -->
<g id="edge38" class="edge">
<title>Node16&#45;&gt;Node17</title>
<path fill="none" stroke="midnightblue" d="M1342.5,-190.48C1342.5,-182.08 1342.5,-168.98 1342.5,-158.16"/>
<polygon fill="midnightblue" stroke="midnightblue" points="1346,-158.01 1342.5,-148.01 1339,-158.01 1346,-158.01"/>
</g>
</g>
</svg>
        <g id="navigator" transform="translate(0 0)" fill="#404254">
                <rect fill="#f2f5e9" fill-opacity="0.5" stroke="#606060" stroke-width=".5" x="0" y="0" width="60" height="60"/>
                <use id="zoomplus" xlink:href="#zoomPlus" x="17" y="9" onmousedown="handleZoom(evt,'in')"/>
                <use id="zoomminus" xlink:href="#zoomMin" x="42" y="9" onmousedown="handleZoom(evt,'out')"/>
                <use id="reset" xlink:href="#resetDef" x="30" y="36" onmousedown="handleReset()"/>
                <g id="arrowUp" xlink:href="#dirArrow" transform="translate(30 24)" onmousedown="handlePan(0,-1)">
                  <use xlink:href="#rim" fill="#404040">
                        <set attributeName="fill" to="#808080" begin="arrowUp.mouseover" end="arrowUp.mouseout"/>
                  </use>
                  <path fill="none" stroke="white" stroke-width="1.5" d="M0,-3.0v7 M-2.5,-0.5L0,-3.0L2.5,-0.5"/>
                </g>
                <g id="arrowRight" xlink:href="#dirArrow" transform="rotate(90) translate(36 -43)" onmousedown="handlePan(1,0)">
                  <use xlink:href="#rim" fill="#404040">
                        <set attributeName="fill" to="#808080" begin="arrowRight.mouseover" end="arrowRight.mouseout"/>
                  </use>
                  <path fill="none" stroke="white" stroke-width="1.5" d="M0,-3.0v7 M-2.5,-0.5L0,-3.0L2.5,-0.5"/>
                </g>
                <g id="arrowDown" xlink:href="#dirArrow" transform="rotate(180) translate(-30 -48)" onmousedown="handlePan(0,1)">
                  <use xlink:href="#rim" fill="#404040">
                        <set attributeName="fill" to="#808080" begin="arrowDown.mouseover" end="arrowDown.mouseout"/>
                  </use>
                  <path fill="none" stroke="white" stroke-width="1.5" d="M0,-3.0v7 M-2.5,-0.5L0,-3.0L2.5,-0.5"/>
                </g>
                <g id="arrowLeft" xlink:href="#dirArrow" transform="rotate(270) translate(-36 17)" onmousedown="handlePan(-1,0)">
                  <use xlink:href="#rim" fill="#404040">
                        <set attributeName="fill" to="#808080" begin="arrowLeft.mouseover" end="arrowLeft.mouseout"/>
                  </use>
                  <path fill="none" stroke="white" stroke-width="1.5" d="M0,-3.0v7 M-2.5,-0.5L0,-3.0L2.5,-0.5"/>
                </g>
        </g>
        <svg viewBox="0 0 15 15" width="100%" height="30px" preserveAspectRatio="xMaxYMin meet">
         <g id="arrow_out" transform="scale(0.3 0.3)">
          <a xlink:href="unstructured__domains_8h__incl_org.svg" target="_base">
           <rect id="button" ry="5" rx="5" y="6" x="6" height="38" width="38"
                fill="#f2f5e9" fill-opacity="0.5" stroke="#606060" stroke-width="1.0"/>
           <path id="arrow"
             d="M 11.500037,31.436501 C 11.940474,20.09759 22.043105,11.32322 32.158766,21.979434 L 37.068811,17.246167 C 37.068811,17.246167 37.088388,32 37.088388,32 L 22.160133,31.978069 C 22.160133,31.978069 26.997745,27.140456 26.997745,27.140456 C 18.528582,18.264221 13.291696,25.230495 11.500037,31.436501 z"
             style="fill:#404040;"/>
          </a>
         </g>
        </svg>
</svg>
