<?xml version="1.0" encoding="UTF-8" standalone="no"?>
<!DOCTYPE svg PUBLIC "-//W3C//DTD SVG 1.1//EN"
 "http://www.w3.org/Graphics/SVG/1.1/DTD/svg11.dtd">
<!-- Generated by graphviz version 2.47.0 (0)
 -->
<!-- Title: ViennaRNA/utils.h Pages: 1 -->
<svg width="1690pt" height="397pt"
 viewBox="0.00 0.00 1690.02 397.00" xmlns="http://www.w3.org/2000/svg" xmlns:xlink="http://www.w3.org/1999/xlink">
<g id="graph0" class="graph" transform="scale(1 1) rotate(0) translate(4 393)">
<title>ViennaRNA/utils.h</title>
<!-- Node1 -->
<g id="node1" class="node">
<title>Node1</title>
<g id="a_node1"><a xlink:title="Use ViennaRNA/utils/basic.h instead.">
<polygon fill="#bfbfbf" stroke="black" points="458,-369.5 458,-388.5 556,-388.5 556,-369.5 458,-369.5"/>
<text text-anchor="middle" x="507" y="-376.5" font-family="Helvetica,sans-Serif" font-size="10.00">ViennaRNA/utils.h</text>
</a>
</g>
</g>
<!-- Node2 -->
<g id="node2" class="node">
<title>Node2</title>
<g id="a_node2"><a xlink:href="utils_2basic_8h.html" target="_top" xlink:title="General utility&#45; and helper&#45;functions used throughout the ViennaRNA Package.">
<polygon fill="none" stroke="black" points="445,-313.5 445,-332.5 569,-332.5 569,-313.5 445,-313.5"/>
<text text-anchor="middle" x="507" y="-320.5" font-family="Helvetica,sans-Serif" font-size="10.00">ViennaRNA/utils/basic.h</text>
</a>
</g>
</g>
<!-- Node1&#45;&gt;Node2 -->
<g id="edge1" class="edge">
<title>Node1&#45;&gt;Node2</title>
<path fill="none" stroke="midnightblue" d="M507,-369.08C507,-362.01 507,-351.86 507,-342.99"/>
<polygon fill="midnightblue" stroke="midnightblue" points="510.5,-342.75 507,-332.75 503.5,-342.75 510.5,-342.75"/>
</g>
<!-- Node19 -->
<g id="node19" class="node">
<title>Node19</title>
<g id="a_node19"><a xlink:href="utils_2structures_8h.html" target="_top" xlink:title="Various utility&#45; and helper&#45;functions for secondary structure parsing, converting,...">
<polygon fill="none" stroke="black" points="164,-62 164,-81 308,-81 308,-62 164,-62"/>
<text text-anchor="middle" x="236" y="-69" font-family="Helvetica,sans-Serif" font-size="10.00">ViennaRNA/utils/structures.h</text>
</a>
</g>
</g>
<!-- Node1&#45;&gt;Node19 -->
<g id="edge49" class="edge">
<title>Node1&#45;&gt;Node19</title>
<path fill="none" stroke="midnightblue" d="M457.84,-371.04C366.77,-356.76 181,-320.52 181,-262.5 181,-262.5 181,-262.5 181,-199 181,-156.72 207.16,-112.59 223.4,-89.27"/>
<polygon fill="midnightblue" stroke="midnightblue" points="226.25,-91.3 229.26,-81.14 220.57,-87.2 226.25,-91.3"/>
</g>
<!-- Node21 -->
<g id="node21" class="node">
<title>Node21</title>
<g id="a_node21"><a xlink:href="strings_8h.html" target="_top" xlink:title="General utility&#45; and helper&#45;functions for RNA sequence and structure strings used throughout the Vien...">
<polygon fill="none" stroke="black" points="587,-313.5 587,-332.5 717,-332.5 717,-313.5 587,-313.5"/>
<text text-anchor="middle" x="652" y="-320.5" font-family="Helvetica,sans-Serif" font-size="10.00">ViennaRNA/utils/strings.h</text>
</a>
</g>
</g>
<!-- Node1&#45;&gt;Node21 -->
<g id="edge46" class="edge">
<title>Node1&#45;&gt;Node21</title>
<path fill="none" stroke="midnightblue" d="M529.98,-369.44C554.16,-360.44 592.42,-346.19 619.65,-336.05"/>
<polygon fill="midnightblue" stroke="midnightblue" points="620.98,-339.29 629.13,-332.52 618.54,-332.73 620.98,-339.29"/>
</g>
<!-- Node22 -->
<g id="node22" class="node">
<title>Node22</title>
<g id="a_node22"><a xlink:href="io_2utils_8h.html" target="_top" xlink:title="Several utilities for file handling.">
<polygon fill="none" stroke="black" points="0,-190.5 0,-209.5 108,-209.5 108,-190.5 0,-190.5"/>
<text text-anchor="middle" x="54" y="-197.5" font-family="Helvetica,sans-Serif" font-size="10.00">ViennaRNA/io/utils.h</text>
</a>
</g>
</g>
<!-- Node1&#45;&gt;Node22 -->
<g id="edge50" class="edge">
<title>Node1&#45;&gt;Node22</title>
<path fill="none" stroke="midnightblue" d="M457.86,-375.79C376.07,-371.42 216.13,-359.66 167,-333 117.43,-306.1 79.99,-248.09 63.41,-218.76"/>
<polygon fill="midnightblue" stroke="midnightblue" points="66.3,-216.76 58.42,-209.67 60.17,-220.12 66.3,-216.76"/>
</g>
<!-- Node23 -->
<g id="node23" class="node">
<title>Node23</title>
<g id="a_node23"><a xlink:href="alphabet_8h.html" target="_top" xlink:title="Functions to process, convert, and generally handle different nucleotide and/or base pair alphabets.">
<polygon fill="none" stroke="black" points="786,-252 786,-271 902,-271 902,-252 786,-252"/>
<text text-anchor="middle" x="844" y="-259" font-family="Helvetica,sans-Serif" font-size="10.00">ViennaRNA/alphabet.h</text>
</a>
</g>
</g>
<!-- Node1&#45;&gt;Node23 -->
<g id="edge52" class="edge">
<title>Node1&#45;&gt;Node23</title>
<path fill="none" stroke="midnightblue" d="M556.18,-372.69C601.47,-366.69 669.92,-354.79 726,-333 762.95,-318.64 801.63,-293.23 824.24,-277.16"/>
<polygon fill="midnightblue" stroke="midnightblue" points="826.57,-279.8 832.62,-271.1 822.47,-274.12 826.57,-279.8"/>
</g>
<!-- Node3 -->
<g id="node3" class="node">
<title>Node3</title>
<g id="a_node3"><a xlink:title=" ">
<polygon fill="none" stroke="#bfbfbf" points="113,-0.5 113,-19.5 159,-19.5 159,-0.5 113,-0.5"/>
<text text-anchor="middle" x="136" y="-7.5" font-family="Helvetica,sans-Serif" font-size="10.00">stdio.h</text>
</a>
</g>
</g>
<!-- Node2&#45;&gt;Node3 -->
<g id="edge2" class="edge">
<title>Node2&#45;&gt;Node3</title>
<path fill="none" stroke="midnightblue" d="M444.9,-314.74C339.29,-300.65 136,-265.19 136,-201 136,-201 136,-201 136,-137.5 136,-99.2 136,-54.38 136,-29.7"/>
<polygon fill="midnightblue" stroke="midnightblue" points="139.5,-29.59 136,-19.59 132.5,-29.59 139.5,-29.59"/>
</g>
<!-- Node4 -->
<g id="node4" class="node">
<title>Node4</title>
<g id="a_node4"><a xlink:title=" ">
<polygon fill="none" stroke="#bfbfbf" points="704,-252 704,-271 756,-271 756,-252 704,-252"/>
<text text-anchor="middle" x="730" y="-259" font-family="Helvetica,sans-Serif" font-size="10.00">stdarg.h</text>
</a>
</g>
</g>
<!-- Node2&#45;&gt;Node4 -->
<g id="edge3" class="edge">
<title>Node2&#45;&gt;Node4</title>
<path fill="none" stroke="midnightblue" d="M551.23,-313.47C589.68,-305.58 646.64,-292.7 695,-277 697.13,-276.31 699.32,-275.54 701.51,-274.73"/>
<polygon fill="midnightblue" stroke="midnightblue" points="702.92,-277.94 710.95,-271.03 700.36,-271.43 702.92,-277.94"/>
</g>
<!-- Node5 -->
<g id="node5" class="node">
<title>Node5</title>
<g id="a_node5"><a xlink:href="datastructures_2basic_8h.html" target="_top" xlink:title="Various data structures and pre&#45;processor macros.">
<polygon fill="none" stroke="black" points="552,-246.5 552,-276.5 686,-276.5 686,-246.5 552,-246.5"/>
<text text-anchor="start" x="560" y="-264.5" font-family="Helvetica,sans-Serif" font-size="10.00">ViennaRNA/datastructures</text>
<text text-anchor="middle" x="619" y="-253.5" font-family="Helvetica,sans-Serif" font-size="10.00">/basic.h</text>
</a>
</g>
</g>
<!-- Node2&#45;&gt;Node5 -->
<g id="edge4" class="edge">
<title>Node2&#45;&gt;Node5</title>
<path fill="none" stroke="midnightblue" d="M523.05,-313.48C538.78,-305.12 563.3,-292.09 583.61,-281.3"/>
<polygon fill="midnightblue" stroke="midnightblue" points="585.41,-284.31 592.6,-276.52 582.13,-278.12 585.41,-284.31"/>
</g>
<!-- Node6 -->
<g id="node6" class="node">
<title>Node6</title>
<g id="a_node6"><a xlink:href="constants_8h.html" target="_top" xlink:title="Energy parameter constants.">
<polygon fill="none" stroke="black" points="1260,-62 1260,-81 1418,-81 1418,-62 1260,-62"/>
<text text-anchor="middle" x="1339" y="-69" font-family="Helvetica,sans-Serif" font-size="10.00">ViennaRNA/params/constants.h</text>
</a>
</g>
</g>
<!-- Node5&#45;&gt;Node6 -->
<g id="edge5" class="edge">
<title>Node5&#45;&gt;Node6</title>
<path fill="none" stroke="midnightblue" d="M686.1,-247.46C689.1,-246.95 692.08,-246.46 695,-246 948.89,-205.84 1042.57,-281.1 1266,-154 1293.54,-138.33 1316.19,-108.48 1328.62,-89.58"/>
<polygon fill="midnightblue" stroke="midnightblue" points="1331.63,-91.38 1334.03,-81.06 1325.71,-87.63 1331.63,-91.38"/>
</g>
<!-- Node8 -->
<g id="node8" class="node">
<title>Node8</title>
<g id="a_node8"><a xlink:href="fold__compound_8h.html" target="_top" xlink:title="The Basic Fold Compound API.">
<polygon fill="none" stroke="black" points="771,-190.5 771,-209.5 917,-209.5 917,-190.5 771,-190.5"/>
<text text-anchor="middle" x="844" y="-197.5" font-family="Helvetica,sans-Serif" font-size="10.00">ViennaRNA/fold_compound.h</text>
</a>
</g>
</g>
<!-- Node5&#45;&gt;Node8 -->
<g id="edge7" class="edge">
<title>Node5&#45;&gt;Node8</title>
<path fill="none" stroke="midnightblue" d="M672.04,-246.47C711.7,-235.99 765.21,-221.84 801.94,-212.12"/>
<polygon fill="midnightblue" stroke="midnightblue" points="803.06,-215.45 811.83,-209.51 801.27,-208.68 803.06,-215.45"/>
</g>
<!-- Node9 -->
<g id="node9" class="node">
<title>Node9</title>
<g id="a_node9"><a xlink:href="model_8h.html" target="_top" xlink:title="The model details data structure and its corresponding modifiers.">
<polygon fill="none" stroke="black" points="1544,-62 1544,-81 1650,-81 1650,-62 1544,-62"/>
<text text-anchor="middle" x="1597" y="-69" font-family="Helvetica,sans-Serif" font-size="10.00">ViennaRNA/model.h</text>
</a>
</g>
</g>
<!-- Node5&#45;&gt;Node9 -->
<g id="edge37" class="edge">
<title>Node5&#45;&gt;Node9</title>
<path fill="none" stroke="midnightblue" d="M686.06,-247.19C689.08,-246.75 692.07,-246.35 695,-246 1005.61,-208.6 1088.34,-254.6 1398,-210 1503.84,-194.76 1565.77,-237.96 1632,-154 1647.66,-134.16 1628.85,-106.25 1613.33,-88.79"/>
<polygon fill="midnightblue" stroke="midnightblue" points="1615.54,-86.02 1606.15,-81.13 1610.44,-90.82 1615.54,-86.02"/>
</g>
<!-- Node10 -->
<g id="node10" class="node">
<title>Node10</title>
<g id="a_node10"><a xlink:href="params_2basic_8h.html" target="_top" xlink:title="Functions to deal with sets of energy parameters.">
<polygon fill="none" stroke="black" points="1351,-129 1351,-148 1489,-148 1489,-129 1351,-129"/>
<text text-anchor="middle" x="1420" y="-136" font-family="Helvetica,sans-Serif" font-size="10.00">ViennaRNA/params/basic.h</text>
</a>
</g>
</g>
<!-- Node5&#45;&gt;Node10 -->
<g id="edge38" class="edge">
<title>Node5&#45;&gt;Node10</title>
<path fill="none" stroke="midnightblue" d="M682.37,-246.47C683.59,-246.31 684.8,-246.15 686,-246 819.43,-229.37 1161.29,-248.91 1290,-210 1329.59,-198.03 1369.99,-170.84 1395.29,-153.94"/>
<polygon fill="midnightblue" stroke="midnightblue" points="1397.5,-156.68 1403.89,-148.23 1393.63,-150.84 1397.5,-156.68"/>
</g>
<!-- Node12 -->
<g id="node12" class="node">
<title>Node12</title>
<g id="a_node12"><a xlink:href="dp__matrices_8h.html" target="_top" xlink:title="Functions to deal with standard dynamic programming (DP) matrices.">
<polygon fill="none" stroke="black" points="265.5,-129 265.5,-148 398.5,-148 398.5,-129 265.5,-129"/>
<text text-anchor="middle" x="332" y="-136" font-family="Helvetica,sans-Serif" font-size="10.00">ViennaRNA/dp_matrices.h</text>
</a>
</g>
</g>
<!-- Node5&#45;&gt;Node12 -->
<g id="edge39" class="edge">
<title>Node5&#45;&gt;Node12</title>
<path fill="none" stroke="midnightblue" d="M580.99,-246.38C521.69,-222.65 409.04,-175.14 358.04,-152.31"/>
<polygon fill="midnightblue" stroke="midnightblue" points="359.25,-149.02 348.7,-148.09 356.37,-155.4 359.25,-149.02"/>
</g>
<!-- Node13 -->
<g id="node13" class="node">
<title>Node13</title>
<g id="a_node13"><a xlink:href="hard_8h.html" target="_top" xlink:title="Functions and data structures for handling of secondary structure hard constraints.">
<polygon fill="none" stroke="black" points="696.5,-123.5 696.5,-153.5 815.5,-153.5 815.5,-123.5 696.5,-123.5"/>
<text text-anchor="start" x="704.5" y="-141.5" font-family="Helvetica,sans-Serif" font-size="10.00">ViennaRNA/constraints</text>
<text text-anchor="middle" x="756" y="-130.5" font-family="Helvetica,sans-Serif" font-size="10.00">/hard.h</text>
</a>
</g>
</g>
<!-- Node5&#45;&gt;Node13 -->
<g id="edge40" class="edge">
<title>Node5&#45;&gt;Node13</title>
<path fill="none" stroke="midnightblue" d="M634.98,-246.38C659.01,-225.16 704.58,-184.91 732.43,-160.32"/>
<polygon fill="midnightblue" stroke="midnightblue" points="734.94,-162.77 740.12,-153.53 730.31,-157.52 734.94,-162.77"/>
</g>
<!-- Node15 -->
<g id="node15" class="node">
<title>Node15</title>
<g id="a_node15"><a xlink:href="soft_8h.html" target="_top" xlink:title="Functions and data structures for secondary structure soft constraints.">
<polygon fill="none" stroke="black" points="559.5,-123.5 559.5,-153.5 678.5,-153.5 678.5,-123.5 559.5,-123.5"/>
<text text-anchor="start" x="567.5" y="-141.5" font-family="Helvetica,sans-Serif" font-size="10.00">ViennaRNA/constraints</text>
<text text-anchor="middle" x="619" y="-130.5" font-family="Helvetica,sans-Serif" font-size="10.00">/soft.h</text>
</a>
</g>
</g>
<!-- Node5&#45;&gt;Node15 -->
<g id="edge41" class="edge">
<title>Node5&#45;&gt;Node15</title>
<path fill="none" stroke="midnightblue" d="M614.45,-246.14C611.89,-225.86 611.57,-188.53 613.46,-163.86"/>
<polygon fill="midnightblue" stroke="midnightblue" points="616.95,-164.13 614.45,-153.84 609.98,-163.45 616.95,-164.13"/>
</g>
<!-- Node16 -->
<g id="node16" class="node">
<title>Node16</title>
<g id="a_node16"><a xlink:href="grammar_8h.html" target="_top" xlink:title="Implementations for the RNA folding grammar.">
<polygon fill="none" stroke="black" points="1139.5,-129 1139.5,-148 1256.5,-148 1256.5,-129 1139.5,-129"/>
<text text-anchor="middle" x="1198" y="-136" font-family="Helvetica,sans-Serif" font-size="10.00">ViennaRNA/grammar.h</text>
</a>
</g>
</g>
<!-- Node5&#45;&gt;Node16 -->
<g id="edge42" class="edge">
<title>Node5&#45;&gt;Node16</title>
<path fill="none" stroke="midnightblue" d="M686.11,-247.57C689.12,-247.03 692.09,-246.5 695,-246 797.38,-228.26 824.25,-231.06 926,-210 1009.75,-192.67 1106.35,-166.01 1158.93,-150.93"/>
<polygon fill="midnightblue" stroke="midnightblue" points="1160.2,-154.21 1168.84,-148.07 1158.26,-147.48 1160.2,-154.21"/>
</g>
<!-- Node17 -->
<g id="node17" class="node">
<title>Node17</title>
<g id="a_node17"><a xlink:href="structured__domains_8h.html" target="_top" xlink:title="This module provides interfaces that deal with additional structured domains in the folding grammar.">
<polygon fill="none" stroke="black" points="1507.5,-123.5 1507.5,-153.5 1622.5,-153.5 1622.5,-123.5 1507.5,-123.5"/>
<text text-anchor="start" x="1515.5" y="-141.5" font-family="Helvetica,sans-Serif" font-size="10.00">ViennaRNA/structured</text>
<text text-anchor="middle" x="1565" y="-130.5" font-family="Helvetica,sans-Serif" font-size="10.00">_domains.h</text>
</a>
</g>
</g>
<!-- Node5&#45;&gt;Node17 -->
<g id="edge43" class="edge">
<title>Node5&#45;&gt;Node17</title>
<path fill="none" stroke="midnightblue" d="M686.06,-247.2C689.08,-246.76 692.07,-246.36 695,-246 981.74,-210.85 1059.89,-262.32 1344,-210 1406.97,-198.41 1476.96,-174.02 1520.96,-157.21"/>
<polygon fill="midnightblue" stroke="midnightblue" points="1522.42,-160.4 1530.49,-153.53 1519.9,-153.87 1522.42,-160.4"/>
</g>
<!-- Node18 -->
<g id="node18" class="node">
<title>Node18</title>
<g id="a_node18"><a xlink:href="unstructured__domains_8h.html" target="_top" xlink:title="Functions to modify unstructured domains, e.g. to incorporate ligands binding to unpaired stretches.">
<polygon fill="none" stroke="black" points="416.5,-123.5 416.5,-153.5 541.5,-153.5 541.5,-123.5 416.5,-123.5"/>
<text text-anchor="start" x="424.5" y="-141.5" font-family="Helvetica,sans-Serif" font-size="10.00">ViennaRNA/unstructured</text>
<text text-anchor="middle" x="479" y="-130.5" font-family="Helvetica,sans-Serif" font-size="10.00">_domains.h</text>
</a>
</g>
</g>
<!-- Node5&#45;&gt;Node18 -->
<g id="edge44" class="edge">
<title>Node5&#45;&gt;Node18</title>
<path fill="none" stroke="midnightblue" d="M598.14,-246.38C571,-225.25 524.48,-185.26 498.18,-160.64"/>
<polygon fill="midnightblue" stroke="midnightblue" points="500.37,-157.89 490.72,-153.53 495.55,-162.96 500.37,-157.89"/>
</g>
<!-- Node5&#45;&gt;Node19 -->
<g id="edge45" class="edge">
<title>Node5&#45;&gt;Node19</title>
<path fill="none" stroke="midnightblue" d="M551.73,-260.05C468.38,-256.04 327.91,-236.66 248,-154 231.77,-137.21 227.62,-109.62 228.98,-91.25"/>
<polygon fill="midnightblue" stroke="midnightblue" points="232.47,-91.6 230.49,-81.19 225.55,-90.57 232.47,-91.6"/>
</g>
<!-- Node7 -->
<g id="node7" class="node">
<title>Node7</title>
<g id="a_node7"><a xlink:title=" ">
<polygon fill="none" stroke="#bfbfbf" points="1315,-0.5 1315,-19.5 1363,-19.5 1363,-0.5 1315,-0.5"/>
<text text-anchor="middle" x="1339" y="-7.5" font-family="Helvetica,sans-Serif" font-size="10.00">limits.h</text>
</a>
</g>
</g>
<!-- Node6&#45;&gt;Node7 -->
<g id="edge6" class="edge">
<title>Node6&#45;&gt;Node7</title>
<path fill="none" stroke="midnightblue" d="M1339,-61.98C1339,-53.58 1339,-40.48 1339,-29.66"/>
<polygon fill="midnightblue" stroke="midnightblue" points="1342.5,-29.51 1339,-19.51 1335.5,-29.51 1342.5,-29.51"/>
</g>
<!-- Node8&#45;&gt;Node9 -->
<g id="edge8" class="edge">
<title>Node8&#45;&gt;Node9</title>
<path fill="none" stroke="midnightblue" d="M917.14,-197.41C1002.17,-194.14 1146.15,-184.19 1266,-154 1301.37,-145.09 1307.06,-133.48 1342,-123 1406.03,-103.79 1481.34,-89.91 1533.43,-81.61"/>
<polygon fill="midnightblue" stroke="midnightblue" points="1534.19,-85.04 1543.53,-80.03 1533.11,-78.12 1534.19,-85.04"/>
</g>
<!-- Node8&#45;&gt;Node10 -->
<g id="edge9" class="edge">
<title>Node8&#45;&gt;Node10</title>
<path fill="none" stroke="midnightblue" d="M917.29,-193.75C1012.29,-186.84 1182.74,-173.29 1328,-154 1337.26,-152.77 1347.06,-151.25 1356.69,-149.67"/>
<polygon fill="midnightblue" stroke="midnightblue" points="1357.36,-153.1 1366.65,-148 1356.21,-146.2 1357.36,-153.1"/>
</g>
<!-- Node11 -->
<g id="node11" class="node">
<title>Node11</title>
<g id="a_node11"><a xlink:href="sequence_8h.html" target="_top" xlink:title="Functions and data structures related to sequence representations ,.">
<polygon fill="none" stroke="black" points="872,-129 872,-148 994,-148 994,-129 872,-129"/>
<text text-anchor="middle" x="933" y="-136" font-family="Helvetica,sans-Serif" font-size="10.00">ViennaRNA/sequence.h</text>
</a>
</g>
</g>
<!-- Node8&#45;&gt;Node11 -->
<g id="edge14" class="edge">
<title>Node8&#45;&gt;Node11</title>
<path fill="none" stroke="midnightblue" d="M851.85,-190.48C864.27,-180.75 887.95,-164.73 906.66,-153.24"/>
<polygon fill="midnightblue" stroke="midnightblue" points="908.6,-156.15 915.37,-148.01 905,-150.15 908.6,-156.15"/>
</g>
<!-- Node8&#45;&gt;Node12 -->
<g id="edge16" class="edge">
<title>Node8&#45;&gt;Node12</title>
<path fill="none" stroke="midnightblue" d="M770.69,-193.87C682.13,-186.9 529.06,-173.08 399,-154 391.06,-152.83 382.68,-151.42 374.62,-149.94"/>
<polygon fill="midnightblue" stroke="midnightblue" points="375.11,-146.48 364.64,-148.05 373.81,-153.35 375.11,-146.48"/>
</g>
<!-- Node8&#45;&gt;Node13 -->
<g id="edge19" class="edge">
<title>Node8&#45;&gt;Node13</title>
<path fill="none" stroke="midnightblue" d="M826.49,-190.48C812.82,-182.42 793.98,-170.02 779.13,-159.47"/>
<polygon fill="midnightblue" stroke="midnightblue" points="781.06,-156.55 770.91,-153.52 776.96,-162.22 781.06,-156.55"/>
</g>
<!-- Node8&#45;&gt;Node15 -->
<g id="edge23" class="edge">
<title>Node8&#45;&gt;Node15</title>
<path fill="none" stroke="midnightblue" d="M806.86,-190.48C771.24,-181.57 717.13,-167.37 676.07,-156.22"/>
<polygon fill="midnightblue" stroke="midnightblue" points="676.77,-152.78 666.2,-153.52 674.93,-159.53 676.77,-152.78"/>
</g>
<!-- Node8&#45;&gt;Node16 -->
<g id="edge27" class="edge">
<title>Node8&#45;&gt;Node16</title>
<path fill="none" stroke="midnightblue" d="M897.99,-190.49C954.14,-182.11 1044.28,-168.49 1122,-154 1128.45,-152.8 1135.22,-151.44 1141.97,-150.05"/>
<polygon fill="midnightblue" stroke="midnightblue" points="1142.73,-153.47 1151.81,-148.01 1141.31,-146.62 1142.73,-153.47"/>
</g>
<!-- Node8&#45;&gt;Node17 -->
<g id="edge29" class="edge">
<title>Node8&#45;&gt;Node17</title>
<path fill="none" stroke="midnightblue" d="M917.43,-197.4C1036.97,-194.04 1281.16,-184 1497.4,-153.93"/>
<polygon fill="midnightblue" stroke="midnightblue" points="1497.94,-157.39 1507.35,-152.53 1496.96,-150.46 1497.94,-157.39"/>
</g>
<!-- Node8&#45;&gt;Node18 -->
<g id="edge30" class="edge">
<title>Node8&#45;&gt;Node18</title>
<path fill="none" stroke="midnightblue" d="M776.08,-190.47C717.14,-182.32 629.49,-169.3 549.56,-155.32"/>
<polygon fill="midnightblue" stroke="midnightblue" points="549.8,-151.81 539.35,-153.53 548.59,-158.71 549.8,-151.81"/>
</g>
<!-- Node20 -->
<g id="node20" class="node">
<title>Node20</title>
<g id="a_node20"><a xlink:href="zscore_8h_source.html" target="_top" xlink:title=" ">
<polygon fill="none" stroke="black" points="1012.5,-129 1012.5,-148 1121.5,-148 1121.5,-129 1012.5,-129"/>
<text text-anchor="middle" x="1067" y="-136" font-family="Helvetica,sans-Serif" font-size="10.00">ViennaRNA/zscore.h</text>
</a>
</g>
</g>
<!-- Node8&#45;&gt;Node20 -->
<g id="edge36" class="edge">
<title>Node8&#45;&gt;Node20</title>
<path fill="none" stroke="midnightblue" d="M875.95,-190.48C915.2,-180 981.88,-162.21 1025.17,-150.66"/>
<polygon fill="midnightblue" stroke="midnightblue" points="1026.35,-153.97 1035.11,-148.01 1024.54,-147.21 1026.35,-153.97"/>
</g>
<!-- Node10&#45;&gt;Node5 -->
<g id="edge11" class="edge">
<title>Node10&#45;&gt;Node5</title>
<path fill="none" stroke="midnightblue" d="M1414.42,-148.23C1397.93,-163.93 1352.45,-196.56 1308,-210 1179.29,-248.91 837.43,-229.37 704,-246 701.49,-246.31 698.94,-246.66 696.37,-247.03"/>
<polygon fill="midnightblue" stroke="midnightblue" points="695.69,-243.59 686.34,-248.57 696.76,-250.51 695.69,-243.59"/>
</g>
<!-- Node10&#45;&gt;Node6 -->
<g id="edge10" class="edge">
<title>Node10&#45;&gt;Node6</title>
<path fill="none" stroke="midnightblue" d="M1409.08,-128.73C1395.96,-118.21 1373.74,-100.38 1357.84,-87.62"/>
<polygon fill="midnightblue" stroke="midnightblue" points="1359.74,-84.66 1349.75,-81.13 1355.36,-90.12 1359.74,-84.66"/>
</g>
<!-- Node10&#45;&gt;Node8 -->
<g id="edge12" class="edge">
<title>Node10&#45;&gt;Node8</title>
<path fill="none" stroke="midnightblue" d="M1383.96,-148C1371.93,-150.16 1358.47,-152.34 1346,-154 1199.38,-173.47 1027.1,-187.1 927.19,-193.94"/>
<polygon fill="midnightblue" stroke="midnightblue" points="926.89,-190.45 917.15,-194.62 927.37,-197.44 926.89,-190.45"/>
</g>
<!-- Node10&#45;&gt;Node9 -->
<g id="edge13" class="edge">
<title>Node10&#45;&gt;Node9</title>
<path fill="none" stroke="midnightblue" d="M1443.5,-128.87C1474.4,-117.52 1528.86,-97.52 1563.91,-84.65"/>
<polygon fill="midnightblue" stroke="midnightblue" points="1565.5,-87.8 1573.68,-81.06 1563.09,-81.23 1565.5,-87.8"/>
</g>
<!-- Node11&#45;&gt;Node8 -->
<g id="edge15" class="edge">
<title>Node11&#45;&gt;Node8</title>
<path fill="none" stroke="midnightblue" d="M925.17,-148.01C912.76,-157.72 889.09,-173.75 870.37,-185.24"/>
<polygon fill="midnightblue" stroke="midnightblue" points="868.43,-182.33 861.65,-190.48 872.03,-188.33 868.43,-182.33"/>
</g>
<!-- Node12&#45;&gt;Node5 -->
<g id="edge17" class="edge">
<title>Node12&#45;&gt;Node5</title>
<path fill="none" stroke="midnightblue" d="M356.06,-148.09C406.04,-167.65 520.77,-215.83 580.88,-242.33"/>
<polygon fill="midnightblue" stroke="midnightblue" points="579.48,-245.53 590.04,-246.38 582.31,-239.13 579.48,-245.53"/>
</g>
<!-- Node12&#45;&gt;Node8 -->
<g id="edge18" class="edge">
<title>Node12&#45;&gt;Node8</title>
<path fill="none" stroke="midnightblue" d="M381.98,-148.05C393.53,-150.19 405.7,-152.34 417,-154 536.14,-171.48 674.57,-184.54 760.8,-191.97"/>
<polygon fill="midnightblue" stroke="midnightblue" points="760.54,-195.46 770.8,-192.83 761.13,-188.49 760.54,-195.46"/>
</g>
<!-- Node13&#45;&gt;Node8 -->
<g id="edge20" class="edge">
<title>Node13&#45;&gt;Node8</title>
<path fill="none" stroke="midnightblue" d="M782.57,-153.52C797.41,-162.75 815.28,-174.81 828.03,-184.2"/>
<polygon fill="midnightblue" stroke="midnightblue" points="826.21,-187.21 836.29,-190.48 830.45,-181.64 826.21,-187.21"/>
</g>
<!-- Node14 -->
<g id="node14" class="node">
<title>Node14</title>
<g id="a_node14"><a xlink:href="constraints_2basic_8h.html" target="_top" xlink:title="Functions and data structures for constraining secondary structure predictions and evaluation.">
<polygon fill="none" stroke="black" points="696.5,-56.5 696.5,-86.5 815.5,-86.5 815.5,-56.5 696.5,-56.5"/>
<text text-anchor="start" x="704.5" y="-74.5" font-family="Helvetica,sans-Serif" font-size="10.00">ViennaRNA/constraints</text>
<text text-anchor="middle" x="756" y="-63.5" font-family="Helvetica,sans-Serif" font-size="10.00">/basic.h</text>
</a>
</g>
</g>
<!-- Node13&#45;&gt;Node14 -->
<g id="edge21" class="edge">
<title>Node13&#45;&gt;Node14</title>
<path fill="none" stroke="midnightblue" d="M756,-123.4C756,-115.64 756,-105.81 756,-96.86"/>
<polygon fill="midnightblue" stroke="midnightblue" points="759.5,-96.58 756,-86.58 752.5,-96.58 759.5,-96.58"/>
</g>
<!-- Node14&#45;&gt;Node8 -->
<g id="edge22" class="edge">
<title>Node14&#45;&gt;Node8</title>
<path fill="none" stroke="midnightblue" d="M783.58,-86.54C797.95,-95.2 814.65,-107.6 825,-123 836.48,-140.07 841.03,-163.51 842.83,-179.82"/>
<polygon fill="midnightblue" stroke="midnightblue" points="839.38,-180.58 843.71,-190.25 846.35,-179.99 839.38,-180.58"/>
</g>
<!-- Node15&#45;&gt;Node5 -->
<g id="edge24" class="edge">
<title>Node15&#45;&gt;Node5</title>
<path fill="none" stroke="midnightblue" d="M623.55,-153.84C626.1,-174.11 626.43,-211.44 624.54,-236.12"/>
<polygon fill="midnightblue" stroke="midnightblue" points="621.05,-235.85 623.55,-246.14 628.02,-236.54 621.05,-235.85"/>
</g>
<!-- Node15&#45;&gt;Node8 -->
<g id="edge25" class="edge">
<title>Node15&#45;&gt;Node8</title>
<path fill="none" stroke="midnightblue" d="M677.86,-153.52C718.68,-163.96 771.72,-178.02 806.82,-187.73"/>
<polygon fill="midnightblue" stroke="midnightblue" points="806.09,-191.16 816.66,-190.48 807.97,-184.42 806.09,-191.16"/>
</g>
<!-- Node15&#45;&gt;Node14 -->
<g id="edge26" class="edge">
<title>Node15&#45;&gt;Node14</title>
<path fill="none" stroke="midnightblue" d="M648.73,-123.4C668.74,-113.9 695.35,-101.28 717.05,-90.98"/>
<polygon fill="midnightblue" stroke="midnightblue" points="718.8,-94.03 726.33,-86.58 715.8,-87.7 718.8,-94.03"/>
</g>
<!-- Node16&#45;&gt;Node8 -->
<g id="edge28" class="edge">
<title>Node16&#45;&gt;Node8</title>
<path fill="none" stroke="midnightblue" d="M1169.22,-148.01C1159.92,-150.08 1149.59,-152.21 1140,-154 1066.53,-167.7 981.96,-180.61 922.01,-189.07"/>
<polygon fill="midnightblue" stroke="midnightblue" points="921.27,-185.63 911.86,-190.49 922.24,-192.57 921.27,-185.63"/>
</g>
<!-- Node18&#45;&gt;Node5 -->
<g id="edge31" class="edge">
<title>Node18&#45;&gt;Node5</title>
<path fill="none" stroke="midnightblue" d="M500.14,-153.84C527.2,-174.93 573.21,-214.48 599.47,-239.04"/>
<polygon fill="midnightblue" stroke="midnightblue" points="597.29,-241.79 606.94,-246.14 602.11,-236.72 597.29,-241.79"/>
</g>
<!-- Node18&#45;&gt;Node8 -->
<g id="edge32" class="edge">
<title>Node18&#45;&gt;Node8</title>
<path fill="none" stroke="midnightblue" d="M541.76,-150.62C547.94,-151.8 554.1,-152.95 560,-154 635.41,-167.38 722.16,-180.41 779.81,-188.97"/>
<polygon fill="midnightblue" stroke="midnightblue" points="779.47,-192.46 789.87,-190.47 780.49,-185.54 779.47,-192.46"/>
</g>
<!-- Node18&#45;&gt;Node19 -->
<g id="edge33" class="edge">
<title>Node18&#45;&gt;Node19</title>
<path fill="none" stroke="midnightblue" d="M426.57,-123.48C381.97,-111.55 318.78,-94.64 277.6,-83.63"/>
<polygon fill="midnightblue" stroke="midnightblue" points="278.45,-80.23 267.88,-81.03 276.64,-86.99 278.45,-80.23"/>
</g>
<!-- Node19&#45;&gt;Node3 -->
<g id="edge34" class="edge">
<title>Node19&#45;&gt;Node3</title>
<path fill="none" stroke="midnightblue" d="M221.67,-61.98C205.34,-52.25 178.4,-36.23 159.09,-24.74"/>
<polygon fill="midnightblue" stroke="midnightblue" points="160.68,-21.61 150.3,-19.51 157.11,-27.63 160.68,-21.61"/>
</g>
<!-- Node19&#45;&gt;Node5 -->
<g id="edge35" class="edge">
<title>Node19&#45;&gt;Node5</title>
<path fill="none" stroke="midnightblue" d="M240.77,-81.19C244.42,-97.7 246.4,-133.72 266,-154 338.81,-229.32 461.9,-252.1 541.86,-258.59"/>
<polygon fill="midnightblue" stroke="midnightblue" points="541.65,-262.08 551.88,-259.33 542.17,-255.1 541.65,-262.08"/>
</g>
<!-- Node21&#45;&gt;Node4 -->
<g id="edge47" class="edge">
<title>Node21&#45;&gt;Node4</title>
<path fill="none" stroke="midnightblue" d="M663.18,-313.48C675.57,-304.02 695.79,-288.6 710.75,-277.19"/>
<polygon fill="midnightblue" stroke="midnightblue" points="713.02,-279.86 718.85,-271.01 708.77,-274.29 713.02,-279.86"/>
</g>
<!-- Node21&#45;&gt;Node5 -->
<g id="edge48" class="edge">
<title>Node21&#45;&gt;Node5</title>
<path fill="none" stroke="midnightblue" d="M647.27,-313.48C643.22,-306.17 637.19,-295.3 631.74,-285.47"/>
<polygon fill="midnightblue" stroke="midnightblue" points="634.69,-283.57 626.78,-276.52 628.57,-286.97 634.69,-283.57"/>
</g>
<!-- Node22&#45;&gt;Node3 -->
<g id="edge51" class="edge">
<title>Node22&#45;&gt;Node3</title>
<path fill="none" stroke="midnightblue" d="M57.74,-190.43C70.28,-161.68 111.04,-68.24 128.23,-28.81"/>
<polygon fill="midnightblue" stroke="midnightblue" points="131.45,-30.18 132.24,-19.62 125.04,-27.38 131.45,-30.18"/>
</g>
<!-- Node23&#45;&gt;Node8 -->
<g id="edge53" class="edge">
<title>Node23&#45;&gt;Node8</title>
<path fill="none" stroke="midnightblue" d="M844,-251.98C844,-243.58 844,-230.48 844,-219.66"/>
<polygon fill="midnightblue" stroke="midnightblue" points="847.5,-219.51 844,-209.51 840.5,-219.51 847.5,-219.51"/>
</g>
<!-- Node23&#45;&gt;Node9 -->
<g id="edge54" class="edge">
<title>Node23&#45;&gt;Node9</title>
<path fill="none" stroke="midnightblue" d="M902.21,-259.08C1085.3,-254.34 1638.89,-237.76 1665,-210 1691.49,-181.83 1682.37,-157.54 1665,-123 1656.82,-106.73 1640.63,-94.38 1626.11,-85.97"/>
<polygon fill="midnightblue" stroke="midnightblue" points="1627.36,-82.67 1616.9,-81.01 1624.04,-88.83 1627.36,-82.67"/>
</g>
</g>
</svg>
