<?xml version="1.0" encoding="UTF-8" standalone="no"?>
<!DOCTYPE svg PUBLIC "-//W3C//DTD SVG 1.1//EN"
 "http://www.w3.org/Graphics/SVG/1.1/DTD/svg11.dtd">
<!-- Generated by graphviz version 2.47.0 (0)
 -->
<!-- Title: ViennaRNA/utils/alignments.h Pages: 1 -->
<svg width="242pt" height="84pt"
 viewBox="0.00 0.00 241.50 84.00" xmlns="http://www.w3.org/2000/svg" xmlns:xlink="http://www.w3.org/1999/xlink">
<g id="graph0" class="graph" transform="scale(1 1) rotate(0) translate(4 80)">
<title>ViennaRNA/utils/alignments.h</title>
<!-- Node1 -->
<g id="node1" class="node">
<title>Node1</title>
<g id="a_node1"><a xlink:title="Various utility&#45; and helper&#45;functions for sequence alignments and comparative structure prediction.">
<polygon fill="#bfbfbf" stroke="black" points="41.5,-56.5 41.5,-75.5 189.5,-75.5 189.5,-56.5 41.5,-56.5"/>
<text text-anchor="middle" x="115.5" y="-63.5" font-family="Helvetica,sans-Serif" font-size="10.00">ViennaRNA/utils/alignments.h</text>
</a>
</g>
</g>
<!-- Node2 -->
<g id="node2" class="node">
<title>Node2</title>
<g id="a_node2"><a xlink:href="alifold_8h.html" target="_top" xlink:title="Functions for comparative structure prediction using RNA sequence alignments.">
<polygon fill="none" stroke="black" points="0,-0.5 0,-19.5 105,-19.5 105,-0.5 0,-0.5"/>
<text text-anchor="middle" x="52.5" y="-7.5" font-family="Helvetica,sans-Serif" font-size="10.00">ViennaRNA/alifold.h</text>
</a>
</g>
</g>
<!-- Node1&#45;&gt;Node2 -->
<g id="edge1" class="edge">
<title>Node1&#45;&gt;Node2</title>
<path fill="none" stroke="midnightblue" d="M97.46,-49.54C86.23,-39.91 72.18,-27.87 62.81,-19.83"/>
<polygon fill="midnightblue" stroke="midnightblue" points="95.51,-52.47 105.38,-56.32 100.06,-47.16 95.51,-52.47"/>
</g>
<!-- Node3 -->
<g id="node3" class="node">
<title>Node3</title>
<g id="a_node3"><a xlink:href="aln__util_8h.html" target="_top" xlink:title="Use ViennaRNA/utils/alignments.h instead.">
<polygon fill="none" stroke="black" points="123.5,-0.5 123.5,-19.5 233.5,-19.5 233.5,-0.5 123.5,-0.5"/>
<text text-anchor="middle" x="178.5" y="-7.5" font-family="Helvetica,sans-Serif" font-size="10.00">ViennaRNA/aln_util.h</text>
</a>
</g>
</g>
<!-- Node1&#45;&gt;Node3 -->
<g id="edge2" class="edge">
<title>Node1&#45;&gt;Node3</title>
<path fill="none" stroke="midnightblue" d="M133.54,-49.54C144.77,-39.91 158.82,-27.87 168.19,-19.83"/>
<polygon fill="midnightblue" stroke="midnightblue" points="130.94,-47.16 125.62,-56.32 135.49,-52.47 130.94,-47.16"/>
</g>
</g>
</svg>
