<?xml version="1.0" encoding="UTF-8" standalone="no"?>
<!DOCTYPE svg PUBLIC "-//W3C//DTD SVG 1.1//EN"
 "http://www.w3.org/Graphics/SVG/1.1/DTD/svg11.dtd">
<!-- Generated by graphviz version 2.47.0 (0)
 -->
<!-- Title: ViennaRNA/utils/basic.h Pages: 1 -->
<svg width="748pt" height="207pt"
 viewBox="0.00 0.00 747.50 207.00" xmlns="http://www.w3.org/2000/svg" xmlns:xlink="http://www.w3.org/1999/xlink">
<g id="graph0" class="graph" transform="scale(1 1) rotate(0) translate(4 203)">
<title>ViennaRNA/utils/basic.h</title>
<!-- Node1 -->
<g id="node1" class="node">
<title>Node1</title>
<g id="a_node1"><a xlink:title="General utility&#45; and helper&#45;functions used throughout the ViennaRNA Package.">
<polygon fill="#bfbfbf" stroke="black" points="256.5,-179.5 256.5,-198.5 380.5,-198.5 380.5,-179.5 256.5,-179.5"/>
<text text-anchor="middle" x="318.5" y="-186.5" font-family="Helvetica,sans-Serif" font-size="10.00">ViennaRNA/utils/basic.h</text>
</a>
</g>
</g>
<!-- Node2 -->
<g id="node2" class="node">
<title>Node2</title>
<g id="a_node2"><a xlink:href="pair__mat_8h_source.html" target="_top" xlink:title=" ">
<polygon fill="none" stroke="black" points="0,-123.5 0,-142.5 117,-142.5 117,-123.5 0,-123.5"/>
<text text-anchor="middle" x="58.5" y="-130.5" font-family="Helvetica,sans-Serif" font-size="10.00">ViennaRNA/pair_mat.h</text>
</a>
</g>
</g>
<!-- Node1&#45;&gt;Node2 -->
<g id="edge1" class="edge">
<title>Node1&#45;&gt;Node2</title>
<path fill="none" stroke="midnightblue" d="M267.51,-177.41C218.37,-167.2 144.97,-151.96 99.51,-142.52"/>
<polygon fill="midnightblue" stroke="midnightblue" points="266.8,-180.84 277.3,-179.44 268.22,-173.98 266.8,-180.84"/>
</g>
<!-- Node3 -->
<g id="node3" class="node">
<title>Node3</title>
<g id="a_node3"><a xlink:href="utils_8h.html" target="_top" xlink:title="Use ViennaRNA/utils/basic.h instead.">
<polygon fill="none" stroke="black" points="135.5,-123.5 135.5,-142.5 233.5,-142.5 233.5,-123.5 135.5,-123.5"/>
<text text-anchor="middle" x="184.5" y="-130.5" font-family="Helvetica,sans-Serif" font-size="10.00">ViennaRNA/utils.h</text>
</a>
</g>
</g>
<!-- Node1&#45;&gt;Node3 -->
<g id="edge2" class="edge">
<title>Node1&#45;&gt;Node3</title>
<path fill="none" stroke="midnightblue" d="M287.82,-175.64C262.68,-165.5 227.75,-151.43 205.63,-142.52"/>
<polygon fill="midnightblue" stroke="midnightblue" points="286.68,-178.95 297.27,-179.44 289.3,-172.46 286.68,-178.95"/>
</g>
<!-- Node4 -->
<g id="node4" class="node">
<title>Node4</title>
<g id="a_node4"><a xlink:href="hairpin_8h.html" target="_top" xlink:title="Energy evaluation of hairpin loops for MFE and partition function calculations.">
<polygon fill="none" stroke="black" points="251.5,-123.5 251.5,-142.5 385.5,-142.5 385.5,-123.5 251.5,-123.5"/>
<text text-anchor="middle" x="318.5" y="-130.5" font-family="Helvetica,sans-Serif" font-size="10.00">ViennaRNA/loops/hairpin.h</text>
</a>
</g>
</g>
<!-- Node1&#45;&gt;Node4 -->
<g id="edge3" class="edge">
<title>Node1&#45;&gt;Node4</title>
<path fill="none" stroke="midnightblue" d="M318.5,-168.8C318.5,-159.91 318.5,-149.78 318.5,-142.75"/>
<polygon fill="midnightblue" stroke="midnightblue" points="315,-169.08 318.5,-179.08 322,-169.08 315,-169.08"/>
</g>
<!-- Node8 -->
<g id="node8" class="node">
<title>Node8</title>
<g id="a_node8"><a xlink:href="internal_8h.html" target="_top" xlink:title="Energy evaluation of interior loops for MFE and partition function calculations.">
<polygon fill="none" stroke="black" points="404,-123.5 404,-142.5 541,-142.5 541,-123.5 404,-123.5"/>
<text text-anchor="middle" x="472.5" y="-130.5" font-family="Helvetica,sans-Serif" font-size="10.00">ViennaRNA/loops/internal.h</text>
</a>
</g>
</g>
<!-- Node1&#45;&gt;Node8 -->
<g id="edge7" class="edge">
<title>Node1&#45;&gt;Node8</title>
<path fill="none" stroke="midnightblue" d="M352.61,-176.04C381.59,-165.88 422.46,-151.55 448.21,-142.52"/>
<polygon fill="midnightblue" stroke="midnightblue" points="351.18,-172.83 342.9,-179.44 353.5,-179.44 351.18,-172.83"/>
</g>
<!-- Node10 -->
<g id="node10" class="node">
<title>Node10</title>
<g id="a_node10"><a xlink:href="multibranch_8h.html" target="_top" xlink:title="Energy evaluation of multibranch loops for MFE and partition function calculations.">
<polygon fill="none" stroke="black" points="559.5,-123.5 559.5,-142.5 715.5,-142.5 715.5,-123.5 559.5,-123.5"/>
<text text-anchor="middle" x="637.5" y="-130.5" font-family="Helvetica,sans-Serif" font-size="10.00">ViennaRNA/loops/multibranch.h</text>
</a>
</g>
</g>
<!-- Node1&#45;&gt;Node10 -->
<g id="edge10" class="edge">
<title>Node1&#45;&gt;Node10</title>
<path fill="none" stroke="midnightblue" d="M379.18,-177.73C439.47,-167.52 530.82,-152.06 587.19,-142.52"/>
<polygon fill="midnightblue" stroke="midnightblue" points="378.32,-174.32 369.05,-179.44 379.49,-181.23 378.32,-174.32"/>
</g>
<!-- Node5 -->
<g id="node5" class="node">
<title>Node5</title>
<g id="a_node5"><a xlink:href="hairpin__loops_8h.html" target="_top" xlink:title="Use ViennaRNA/loops/hairpin.h instead.">
<polygon fill="none" stroke="black" points="208,-62 208,-81 345,-81 345,-62 208,-62"/>
<text text-anchor="middle" x="276.5" y="-69" font-family="Helvetica,sans-Serif" font-size="10.00">ViennaRNA/hairpin_loops.h</text>
</a>
</g>
</g>
<!-- Node4&#45;&gt;Node5 -->
<g id="edge4" class="edge">
<title>Node4&#45;&gt;Node5</title>
<path fill="none" stroke="midnightblue" d="M306.5,-115.01C298.66,-103.89 288.74,-89.84 282.51,-81.01"/>
<polygon fill="midnightblue" stroke="midnightblue" points="303.86,-117.32 312.48,-123.48 309.57,-113.29 303.86,-117.32"/>
</g>
<!-- Node6 -->
<g id="node6" class="node">
<title>Node6</title>
<g id="a_node6"><a xlink:href="all_8h.html" target="_top" xlink:title="Energy evaluation for MFE and partition function calculations.">
<polygon fill="none" stroke="black" points="363.5,-62 363.5,-81 479.5,-81 479.5,-62 363.5,-62"/>
<text text-anchor="middle" x="421.5" y="-69" font-family="Helvetica,sans-Serif" font-size="10.00">ViennaRNA/loops/all.h</text>
</a>
</g>
</g>
<!-- Node4&#45;&gt;Node6 -->
<g id="edge5" class="edge">
<title>Node4&#45;&gt;Node6</title>
<path fill="none" stroke="midnightblue" d="M342.04,-118.4C361.96,-106.9 389.88,-90.77 406.77,-81.01"/>
<polygon fill="midnightblue" stroke="midnightblue" points="340.17,-115.44 333.26,-123.48 343.67,-121.5 340.17,-115.44"/>
</g>
<!-- Node7 -->
<g id="node7" class="node">
<title>Node7</title>
<g id="a_node7"><a xlink:href="loop__energies_8h.html" target="_top" xlink:title="Use ViennaRNA/loops/all.h instead.">
<polygon fill="none" stroke="black" points="351.5,-0.5 351.5,-19.5 491.5,-19.5 491.5,-0.5 351.5,-0.5"/>
<text text-anchor="middle" x="421.5" y="-7.5" font-family="Helvetica,sans-Serif" font-size="10.00">ViennaRNA/loop_energies.h</text>
</a>
</g>
</g>
<!-- Node6&#45;&gt;Node7 -->
<g id="edge6" class="edge">
<title>Node6&#45;&gt;Node7</title>
<path fill="none" stroke="midnightblue" d="M421.5,-51.82C421.5,-41 421.5,-27.9 421.5,-19.51"/>
<polygon fill="midnightblue" stroke="midnightblue" points="418,-51.98 421.5,-61.98 425,-51.98 418,-51.98"/>
</g>
<!-- Node8&#45;&gt;Node6 -->
<g id="edge9" class="edge">
<title>Node8&#45;&gt;Node6</title>
<path fill="none" stroke="midnightblue" d="M458.5,-115.67C448.89,-104.45 436.51,-90.02 428.79,-81.01"/>
<polygon fill="midnightblue" stroke="midnightblue" points="456.03,-118.16 465.19,-123.48 461.34,-113.6 456.03,-118.16"/>
</g>
<!-- Node9 -->
<g id="node9" class="node">
<title>Node9</title>
<g id="a_node9"><a xlink:href="interior__loops_8h.html" target="_top" xlink:title="Use ViennaRNA/loops/internal.h instead.">
<polygon fill="none" stroke="black" points="498,-56.5 498,-86.5 599,-86.5 599,-56.5 498,-56.5"/>
<text text-anchor="start" x="506" y="-74.5" font-family="Helvetica,sans-Serif" font-size="10.00">ViennaRNA/interior</text>
<text text-anchor="middle" x="548.5" y="-63.5" font-family="Helvetica,sans-Serif" font-size="10.00">_loops.h</text>
</a>
</g>
</g>
<!-- Node8&#45;&gt;Node9 -->
<g id="edge8" class="edge">
<title>Node8&#45;&gt;Node9</title>
<path fill="none" stroke="midnightblue" d="M491.41,-117.2C503.39,-107.81 518.8,-95.75 530.59,-86.52"/>
<polygon fill="midnightblue" stroke="midnightblue" points="489.11,-114.55 483.39,-123.48 493.42,-120.07 489.11,-114.55"/>
</g>
<!-- Node10&#45;&gt;Node6 -->
<g id="edge12" class="edge">
<title>Node10&#45;&gt;Node6</title>
<path fill="none" stroke="midnightblue" d="M596.66,-120.75C554.69,-109.19 490.3,-91.45 452.39,-81.01"/>
<polygon fill="midnightblue" stroke="midnightblue" points="595.98,-124.19 606.55,-123.48 597.84,-117.44 595.98,-124.19"/>
</g>
<!-- Node11 -->
<g id="node11" class="node">
<title>Node11</title>
<g id="a_node11"><a xlink:href="multibranch__loops_8h.html" target="_top" xlink:title="Use ViennaRNA/loops/multibranch.h instead.">
<polygon fill="none" stroke="black" points="617.5,-56.5 617.5,-86.5 739.5,-86.5 739.5,-56.5 617.5,-56.5"/>
<text text-anchor="start" x="625.5" y="-74.5" font-family="Helvetica,sans-Serif" font-size="10.00">ViennaRNA/multibranch</text>
<text text-anchor="middle" x="678.5" y="-63.5" font-family="Helvetica,sans-Serif" font-size="10.00">_loops.h</text>
</a>
</g>
</g>
<!-- Node10&#45;&gt;Node11 -->
<g id="edge11" class="edge">
<title>Node10&#45;&gt;Node11</title>
<path fill="none" stroke="midnightblue" d="M649.24,-114.96C655.45,-105.96 662.97,-95.03 668.84,-86.52"/>
<polygon fill="midnightblue" stroke="midnightblue" points="646.17,-113.25 643.37,-123.48 651.93,-117.23 646.17,-113.25"/>
</g>
</g>
</svg>
