<?xml version="1.0" encoding="UTF-8" standalone="no"?>
<!DOCTYPE svg PUBLIC "-//W3C//DTD SVG 1.1//EN"
 "http://www.w3.org/Graphics/SVG/1.1/DTD/svg11.dtd">
<!-- Generated by graphviz version 2.47.0 (0)
 -->
<!-- Title: ViennaRNA/utils/structures.h Pages: 1 -->
<!--zoomable 408 -->
<svg id="main" version="1.1" xmlns="http://www.w3.org/2000/svg" xmlns:xlink="http://www.w3.org/1999/xlink" xml:space="preserve" onload="init(evt)">
<style type="text/css"><![CDATA[
.edge:hover path { stroke: red; }
.edge:hover polygon { stroke: red; fill: red; }
]]></style>
<script type="text/javascript"><![CDATA[
var edges = document.getElementsByTagName('g');
if (edges && edges.length) {
  for (var i=0;i<edges.length;i++) {
    if (edges[i].id.substr(0,4)=='edge') {
      edges[i].setAttribute('class','edge');
    }
  }
}
]]></script>
        <defs>
                <circle id="rim" cx="0" cy="0" r="7"/>
                <circle id="rim2" cx="0" cy="0" r="3.5"/>
                <g id="zoomPlus">
                        <use xlink:href="#rim" fill="#404040">
                                <set attributeName="fill" to="#808080" begin="zoomplus.mouseover" end="zoomplus.mouseout"/>
                        </use>
                        <path d="M-4,0h8M0,-4v8" fill="none" stroke="white" stroke-width="1.5" pointer-events="none"/>
                </g>
                <g id="zoomMin">
                        <use xlink:href="#rim" fill="#404040">
                                <set attributeName="fill" to="#808080" begin="zoomminus.mouseover" end="zoomminus.mouseout"/>
                        </use>
                        <path d="M-4,0h8" fill="none" stroke="white" stroke-width="1.5" pointer-events="none"/>
                </g>
                <g id="dirArrow">
                        <path fill="none" stroke="white" stroke-width="1.5" d="M0,-3.0v7 M-2.5,-0.5L0,-3.0L2.5,-0.5"/>
                </g>
               <g id="resetDef">
                       <use xlink:href="#rim2" fill="#404040">
                               <set attributeName="fill" to="#808080" begin="reset.mouseover" end="reset.mouseout"/>
                       </use>
               </g>
        </defs>

<script type="text/javascript">
var viewWidth = 1307;
var viewHeight = 408;
var sectionId = 'dynsection-0';
</script>
<script xlink:href="svgpan.js"/>
<svg id="graph" class="graph">
<g id="viewport">
<title>ViennaRNA/utils/structures.h</title>
<!-- Node1 -->
<g id="node1" class="node">
<title>Node1</title>
<g id="a_node1"><a xlink:title="Various utility&#45; and helper&#45;functions for secondary structure parsing, converting,...">
<polygon fill="#bfbfbf" stroke="black" points="453,-380.5 453,-399.5 597,-399.5 597,-380.5 453,-380.5"/>
<text text-anchor="middle" x="525" y="-387.5" font-family="Helvetica,sans-Serif" font-size="10.00">ViennaRNA/utils/structures.h</text>
</a>
</g>
</g>
<!-- Node2 -->
<g id="node2" class="node">
<title>Node2</title>
<g id="a_node2"><a xlink:title=" ">
<polygon fill="none" stroke="#bfbfbf" points="404,-319 404,-338 450,-338 450,-319 404,-319"/>
<text text-anchor="middle" x="427" y="-326" font-family="Helvetica,sans-Serif" font-size="10.00">stdio.h</text>
</a>
</g>
</g>
<!-- Node1&#45;&gt;Node2 -->
<g id="edge1" class="edge">
<title>Node1&#45;&gt;Node2</title>
<path fill="none" stroke="midnightblue" d="M510.96,-380.48C494.95,-370.75 468.55,-354.73 449.63,-343.24"/>
<polygon fill="midnightblue" stroke="midnightblue" points="451.38,-340.21 441.01,-338.01 447.75,-346.19 451.38,-340.21"/>
</g>
<!-- Node3 -->
<g id="node3" class="node">
<title>Node3</title>
<g id="a_node3"><a xlink:href="datastructures_2basic_8h.html" target="_top" xlink:title="Various data structures and pre&#45;processor macros.">
<polygon fill="none" stroke="black" points="506,-313.5 506,-343.5 640,-343.5 640,-313.5 506,-313.5"/>
<text text-anchor="start" x="514" y="-331.5" font-family="Helvetica,sans-Serif" font-size="10.00">ViennaRNA/datastructures</text>
<text text-anchor="middle" x="573" y="-320.5" font-family="Helvetica,sans-Serif" font-size="10.00">/basic.h</text>
</a>
</g>
</g>
<!-- Node1&#45;&gt;Node3 -->
<g id="edge2" class="edge">
<title>Node1&#45;&gt;Node3</title>
<path fill="none" stroke="midnightblue" d="M526.98,-380.48C531.5,-372.79 540.34,-361.17 549.17,-350.96"/>
<polygon fill="midnightblue" stroke="midnightblue" points="551.78,-353.3 555.86,-343.52 546.57,-348.62 551.78,-353.3"/>
</g>
<!-- Node3&#45;&gt;Node1 -->
<g id="edge41" class="edge">
<title>Node3&#45;&gt;Node1</title>
<path fill="none" stroke="midnightblue" d="M567.52,-343.52C561.51,-352.39 552.32,-363.88 543.89,-373.09"/>
<polygon fill="midnightblue" stroke="midnightblue" points="541.19,-370.84 536.78,-380.48 546.24,-375.7 541.19,-370.84"/>
</g>
<!-- Node4 -->
<g id="node4" class="node">
<title>Node4</title>
<g id="a_node4"><a xlink:href="constants_8h.html" target="_top" xlink:title="Energy parameter constants.">
<polygon fill="none" stroke="black" points="0,-62 0,-81 158,-81 158,-62 0,-62"/>
<text text-anchor="middle" x="79" y="-69" font-family="Helvetica,sans-Serif" font-size="10.00">ViennaRNA/params/constants.h</text>
</a>
</g>
</g>
<!-- Node3&#45;&gt;Node4 -->
<g id="edge3" class="edge">
<title>Node3&#45;&gt;Node4</title>
<path fill="none" stroke="midnightblue" d="M505.87,-318.93C400.58,-305.42 207.79,-280.33 201,-277 131.03,-242.67 106.12,-225.89 76,-154 67.47,-133.65 70.44,-107.87 74.07,-90.81"/>
<polygon fill="midnightblue" stroke="midnightblue" points="77.49,-91.55 76.43,-81.01 70.68,-89.91 77.49,-91.55"/>
</g>
<!-- Node6 -->
<g id="node6" class="node">
<title>Node6</title>
<g id="a_node6"><a xlink:href="fold__compound_8h.html" target="_top" xlink:title="The Basic Fold Compound API.">
<polygon fill="none" stroke="black" points="546,-190.5 546,-209.5 692,-209.5 692,-190.5 546,-190.5"/>
<text text-anchor="middle" x="619" y="-197.5" font-family="Helvetica,sans-Serif" font-size="10.00">ViennaRNA/fold_compound.h</text>
</a>
</g>
</g>
<!-- Node3&#45;&gt;Node6 -->
<g id="edge5" class="edge">
<title>Node3&#45;&gt;Node6</title>
<path fill="none" stroke="midnightblue" d="M605.59,-313.44C620.47,-305.16 636.62,-293.12 645,-277 655,-257.76 643.27,-233.86 632.5,-218.05"/>
<polygon fill="midnightblue" stroke="midnightblue" points="635.18,-215.78 626.45,-209.78 629.53,-219.92 635.18,-215.78"/>
</g>
<!-- Node7 -->
<g id="node7" class="node">
<title>Node7</title>
<g id="a_node7"><a xlink:href="model_8h.html" target="_top" xlink:title="The model details data structure and its corresponding modifiers.">
<polygon fill="none" stroke="black" points="198,-62 198,-81 304,-81 304,-62 198,-62"/>
<text text-anchor="middle" x="251" y="-69" font-family="Helvetica,sans-Serif" font-size="10.00">ViennaRNA/model.h</text>
</a>
</g>
</g>
<!-- Node3&#45;&gt;Node7 -->
<g id="edge33" class="edge">
<title>Node3&#45;&gt;Node7</title>
<path fill="none" stroke="midnightblue" d="M523.7,-313.47C455.5,-291.37 333.7,-241.67 271,-154 257.72,-135.43 253.2,-109.06 251.7,-91.4"/>
<polygon fill="midnightblue" stroke="midnightblue" points="255.18,-90.99 251.08,-81.22 248.19,-91.41 255.18,-90.99"/>
</g>
<!-- Node8 -->
<g id="node8" class="node">
<title>Node8</title>
<g id="a_node8"><a xlink:href="params_2basic_8h.html" target="_top" xlink:title="Functions to deal with sets of energy parameters.">
<polygon fill="none" stroke="black" points="85,-129 85,-148 223,-148 223,-129 85,-129"/>
<text text-anchor="middle" x="154" y="-136" font-family="Helvetica,sans-Serif" font-size="10.00">ViennaRNA/params/basic.h</text>
</a>
</g>
</g>
<!-- Node3&#45;&gt;Node8 -->
<g id="edge34" class="edge">
<title>Node3&#45;&gt;Node8</title>
<path fill="none" stroke="midnightblue" d="M505.63,-319.6C408.38,-307.39 239.3,-284.54 228,-277 184.81,-248.18 160.54,-188.54 153.98,-158.16"/>
<polygon fill="midnightblue" stroke="midnightblue" points="157.4,-157.38 152.33,-148.07 150.49,-158.51 157.4,-157.38"/>
</g>
<!-- Node10 -->
<g id="node10" class="node">
<title>Node10</title>
<g id="a_node10"><a xlink:href="dp__matrices_8h.html" target="_top" xlink:title="Functions to deal with standard dynamic programming (DP) matrices.">
<polygon fill="none" stroke="black" points="279.5,-129 279.5,-148 412.5,-148 412.5,-129 279.5,-129"/>
<text text-anchor="middle" x="346" y="-136" font-family="Helvetica,sans-Serif" font-size="10.00">ViennaRNA/dp_matrices.h</text>
</a>
</g>
</g>
<!-- Node3&#45;&gt;Node10 -->
<g id="edge35" class="edge">
<title>Node3&#45;&gt;Node10</title>
<path fill="none" stroke="midnightblue" d="M544.49,-313.47C528.71,-303.63 509.36,-289.97 493,-277 440.67,-235.51 382.51,-182.19 357.67,-155.8"/>
<polygon fill="midnightblue" stroke="midnightblue" points="360.13,-153.29 350.82,-148.22 354.93,-157.99 360.13,-153.29"/>
</g>
<!-- Node11 -->
<g id="node11" class="node">
<title>Node11</title>
<g id="a_node11"><a xlink:href="hard_8h.html" target="_top" xlink:title="Functions and data structures for handling of secondary structure hard constraints.">
<polygon fill="none" stroke="black" points="774.5,-123.5 774.5,-153.5 893.5,-153.5 893.5,-123.5 774.5,-123.5"/>
<text text-anchor="start" x="782.5" y="-141.5" font-family="Helvetica,sans-Serif" font-size="10.00">ViennaRNA/constraints</text>
<text text-anchor="middle" x="834" y="-130.5" font-family="Helvetica,sans-Serif" font-size="10.00">/hard.h</text>
</a>
</g>
</g>
<!-- Node3&#45;&gt;Node11 -->
<g id="edge36" class="edge">
<title>Node3&#45;&gt;Node11</title>
<path fill="none" stroke="midnightblue" d="M599.48,-313.42C617.04,-303.78 640.36,-290.36 660,-277 716.05,-238.87 777.31,-188.14 810.1,-160.19"/>
<polygon fill="midnightblue" stroke="midnightblue" points="812.48,-162.76 817.8,-153.59 807.93,-157.44 812.48,-162.76"/>
</g>
<!-- Node13 -->
<g id="node13" class="node">
<title>Node13</title>
<g id="a_node13"><a xlink:href="soft_8h.html" target="_top" xlink:title="Functions and data structures for secondary structure soft constraints.">
<polygon fill="none" stroke="black" points="911.5,-123.5 911.5,-153.5 1030.5,-153.5 1030.5,-123.5 911.5,-123.5"/>
<text text-anchor="start" x="919.5" y="-141.5" font-family="Helvetica,sans-Serif" font-size="10.00">ViennaRNA/constraints</text>
<text text-anchor="middle" x="971" y="-130.5" font-family="Helvetica,sans-Serif" font-size="10.00">/soft.h</text>
</a>
</g>
</g>
<!-- Node3&#45;&gt;Node13 -->
<g id="edge37" class="edge">
<title>Node3&#45;&gt;Node13</title>
<path fill="none" stroke="midnightblue" d="M601.18,-313.45C624.25,-303.66 657.31,-290.06 686,-277 773.74,-237.05 874.61,-185.26 929.86,-158.06"/>
<polygon fill="midnightblue" stroke="midnightblue" points="931.54,-161.14 938.98,-153.6 928.46,-154.85 931.54,-161.14"/>
</g>
<!-- Node14 -->
<g id="node14" class="node">
<title>Node14</title>
<g id="a_node14"><a xlink:href="grammar_8h.html" target="_top" xlink:title="Implementations for the RNA folding grammar.">
<polygon fill="none" stroke="black" points="1048.5,-129 1048.5,-148 1165.5,-148 1165.5,-129 1048.5,-129"/>
<text text-anchor="middle" x="1107" y="-136" font-family="Helvetica,sans-Serif" font-size="10.00">ViennaRNA/grammar.h</text>
</a>
</g>
</g>
<!-- Node3&#45;&gt;Node14 -->
<g id="edge38" class="edge">
<title>Node3&#45;&gt;Node14</title>
<path fill="none" stroke="midnightblue" d="M626.83,-313.49C662.1,-303.98 709.09,-290.68 750,-277 873.21,-235.79 1016.57,-177.28 1077.34,-151.96"/>
<polygon fill="midnightblue" stroke="midnightblue" points="1078.83,-155.14 1086.71,-148.05 1076.13,-148.68 1078.83,-155.14"/>
</g>
<!-- Node15 -->
<g id="node15" class="node">
<title>Node15</title>
<g id="a_node15"><a xlink:href="structured__domains_8h.html" target="_top" xlink:title="This module provides interfaces that deal with additional structured domains in the folding grammar.">
<polygon fill="none" stroke="black" points="1183.5,-123.5 1183.5,-153.5 1298.5,-153.5 1298.5,-123.5 1183.5,-123.5"/>
<text text-anchor="start" x="1191.5" y="-141.5" font-family="Helvetica,sans-Serif" font-size="10.00">ViennaRNA/structured</text>
<text text-anchor="middle" x="1241" y="-130.5" font-family="Helvetica,sans-Serif" font-size="10.00">_domains.h</text>
</a>
</g>
</g>
<!-- Node3&#45;&gt;Node15 -->
<g id="edge39" class="edge">
<title>Node3&#45;&gt;Node15</title>
<path fill="none" stroke="midnightblue" d="M640.18,-314.66C686.94,-305.3 750.6,-291.73 806,-277 947.12,-239.49 1110.59,-184.69 1191.03,-156.96"/>
<polygon fill="midnightblue" stroke="midnightblue" points="1192.58,-160.13 1200.89,-153.56 1190.29,-153.51 1192.58,-160.13"/>
</g>
<!-- Node16 -->
<g id="node16" class="node">
<title>Node16</title>
<g id="a_node16"><a xlink:href="unstructured__domains_8h.html" target="_top" xlink:title="Functions to modify unstructured domains, e.g. to incorporate ligands binding to unpaired stretches.">
<polygon fill="none" stroke="black" points="510.5,-246.5 510.5,-276.5 635.5,-276.5 635.5,-246.5 510.5,-246.5"/>
<text text-anchor="start" x="518.5" y="-264.5" font-family="Helvetica,sans-Serif" font-size="10.00">ViennaRNA/unstructured</text>
<text text-anchor="middle" x="573" y="-253.5" font-family="Helvetica,sans-Serif" font-size="10.00">_domains.h</text>
</a>
</g>
</g>
<!-- Node3&#45;&gt;Node16 -->
<g id="edge40" class="edge">
<title>Node3&#45;&gt;Node16</title>
<path fill="none" stroke="midnightblue" d="M567.32,-313.4C566.29,-305.56 566.01,-295.6 566.46,-286.57"/>
<polygon fill="midnightblue" stroke="midnightblue" points="569.95,-286.84 567.33,-276.58 562.97,-286.24 569.95,-286.84"/>
</g>
<!-- Node5 -->
<g id="node5" class="node">
<title>Node5</title>
<g id="a_node5"><a xlink:title=" ">
<polygon fill="none" stroke="#bfbfbf" points="55,-0.5 55,-19.5 103,-19.5 103,-0.5 55,-0.5"/>
<text text-anchor="middle" x="79" y="-7.5" font-family="Helvetica,sans-Serif" font-size="10.00">limits.h</text>
</a>
</g>
</g>
<!-- Node4&#45;&gt;Node5 -->
<g id="edge4" class="edge">
<title>Node4&#45;&gt;Node5</title>
<path fill="none" stroke="midnightblue" d="M79,-61.98C79,-53.58 79,-40.48 79,-29.66"/>
<polygon fill="midnightblue" stroke="midnightblue" points="82.5,-29.51 79,-19.51 75.5,-29.51 82.5,-29.51"/>
</g>
<!-- Node6&#45;&gt;Node7 -->
<g id="edge6" class="edge">
<title>Node6&#45;&gt;Node7</title>
<path fill="none" stroke="midnightblue" d="M569.76,-190.48C537.32,-183.59 494.61,-172.02 460,-154 440.67,-143.93 441.27,-133.18 422,-123 386,-103.99 341.85,-91.19 307.44,-83.23"/>
<polygon fill="midnightblue" stroke="midnightblue" points="308.07,-79.78 297.55,-81.01 306.54,-86.61 308.07,-79.78"/>
</g>
<!-- Node6&#45;&gt;Node8 -->
<g id="edge7" class="edge">
<title>Node6&#45;&gt;Node8</title>
<path fill="none" stroke="midnightblue" d="M547.48,-190.48C460.07,-179.59 313.19,-160.81 225.71,-149.34"/>
<polygon fill="midnightblue" stroke="midnightblue" points="225.97,-145.84 215.6,-148.01 225.06,-152.78 225.97,-145.84"/>
</g>
<!-- Node9 -->
<g id="node9" class="node">
<title>Node9</title>
<g id="a_node9"><a xlink:href="sequence_8h.html" target="_top" xlink:title="Functions and data structures related to sequence representations ,.">
<polygon fill="none" stroke="black" points="469,-129 469,-148 591,-148 591,-129 469,-129"/>
<text text-anchor="middle" x="530" y="-136" font-family="Helvetica,sans-Serif" font-size="10.00">ViennaRNA/sequence.h</text>
</a>
</g>
</g>
<!-- Node6&#45;&gt;Node9 -->
<g id="edge12" class="edge">
<title>Node6&#45;&gt;Node9</title>
<path fill="none" stroke="midnightblue" d="M601.35,-190.48C585.14,-181.02 561.73,-165.6 546.06,-154.19"/>
<polygon fill="midnightblue" stroke="midnightblue" points="547.93,-151.22 537.83,-148.01 543.72,-156.81 547.93,-151.22"/>
</g>
<!-- Node6&#45;&gt;Node10 -->
<g id="edge14" class="edge">
<title>Node6&#45;&gt;Node10</title>
<path fill="none" stroke="midnightblue" d="M574.99,-190.48C524.12,-179.89 441.12,-161.84 390.19,-150.3"/>
<polygon fill="midnightblue" stroke="midnightblue" points="390.67,-146.82 380.14,-148.01 389.12,-153.64 390.67,-146.82"/>
</g>
<!-- Node6&#45;&gt;Node11 -->
<g id="edge17" class="edge">
<title>Node6&#45;&gt;Node11</title>
<path fill="none" stroke="midnightblue" d="M644.9,-190.48C675.21,-181.55 726.26,-167.31 767.73,-156.14"/>
<polygon fill="midnightblue" stroke="midnightblue" points="768.75,-159.49 777.5,-153.52 766.93,-152.73 768.75,-159.49"/>
</g>
<!-- Node6&#45;&gt;Node13 -->
<g id="edge21" class="edge">
<title>Node6&#45;&gt;Node13</title>
<path fill="none" stroke="midnightblue" d="M671.81,-190.48C727.3,-182.04 816.82,-168.33 894,-154 896.35,-153.56 898.75,-153.11 901.17,-152.64"/>
<polygon fill="midnightblue" stroke="midnightblue" points="902.11,-156.02 911.24,-150.64 900.75,-149.15 902.11,-156.02"/>
</g>
<!-- Node6&#45;&gt;Node14 -->
<g id="edge25" class="edge">
<title>Node6&#45;&gt;Node14</title>
<path fill="none" stroke="midnightblue" d="M692.18,-193.02C774.8,-186.06 912.89,-173.04 1031,-154 1037.95,-152.88 1045.26,-151.5 1052.51,-150.05"/>
<polygon fill="midnightblue" stroke="midnightblue" points="1053.22,-153.48 1062.31,-148.04 1051.81,-146.62 1053.22,-153.48"/>
</g>
<!-- Node6&#45;&gt;Node15 -->
<g id="edge27" class="edge">
<title>Node6&#45;&gt;Node15</title>
<path fill="none" stroke="midnightblue" d="M692.22,-196.24C796.92,-191.58 995.54,-180.16 1173.43,-154.11"/>
<polygon fill="midnightblue" stroke="midnightblue" points="1174.11,-157.54 1183.49,-152.62 1173.09,-150.62 1174.11,-157.54"/>
</g>
<!-- Node6&#45;&gt;Node16 -->
<g id="edge28" class="edge">
<title>Node6&#45;&gt;Node16</title>
<path fill="none" stroke="midnightblue" d="M617.24,-209.66C613,-217.26 604.73,-228.64 596.38,-238.7"/>
<polygon fill="midnightblue" stroke="midnightblue" points="593.62,-236.54 589.74,-246.4 598.92,-241.11 593.62,-236.54"/>
</g>
<!-- Node17 -->
<g id="node17" class="node">
<title>Node17</title>
<g id="a_node17"><a xlink:href="zscore_8h_source.html" target="_top" xlink:title=" ">
<polygon fill="none" stroke="black" points="647.5,-129 647.5,-148 756.5,-148 756.5,-129 647.5,-129"/>
<text text-anchor="middle" x="702" y="-136" font-family="Helvetica,sans-Serif" font-size="10.00">ViennaRNA/zscore.h</text>
</a>
</g>
</g>
<!-- Node6&#45;&gt;Node17 -->
<g id="edge32" class="edge">
<title>Node6&#45;&gt;Node17</title>
<path fill="none" stroke="midnightblue" d="M630.89,-190.48C644.2,-180.93 666,-165.31 681.96,-153.87"/>
<polygon fill="midnightblue" stroke="midnightblue" points="684.04,-156.68 690.13,-148.01 679.96,-150.99 684.04,-156.68"/>
</g>
<!-- Node8&#45;&gt;Node3 -->
<g id="edge9" class="edge">
<title>Node8&#45;&gt;Node3</title>
<path fill="none" stroke="midnightblue" d="M160.39,-148.07C172.64,-172.79 197.29,-244.5 246,-277 256.47,-283.99 402.5,-304.13 495.89,-316.76"/>
<polygon fill="midnightblue" stroke="midnightblue" points="495.5,-320.24 505.88,-318.11 496.44,-313.3 495.5,-320.24"/>
</g>
<!-- Node8&#45;&gt;Node4 -->
<g id="edge8" class="edge">
<title>Node8&#45;&gt;Node4</title>
<path fill="none" stroke="midnightblue" d="M143.89,-128.73C131.85,-118.31 111.55,-100.71 96.85,-87.97"/>
<polygon fill="midnightblue" stroke="midnightblue" points="98.8,-85.03 88.95,-81.13 94.22,-90.32 98.8,-85.03"/>
</g>
<!-- Node8&#45;&gt;Node6 -->
<g id="edge10" class="edge">
<title>Node8&#45;&gt;Node6</title>
<path fill="none" stroke="midnightblue" d="M223.09,-147.72C310.19,-158.56 459.05,-177.59 547.35,-189.17"/>
<polygon fill="midnightblue" stroke="midnightblue" points="546.91,-192.64 557.28,-190.48 547.82,-185.7 546.91,-192.64"/>
</g>
<!-- Node8&#45;&gt;Node7 -->
<g id="edge11" class="edge">
<title>Node8&#45;&gt;Node7</title>
<path fill="none" stroke="midnightblue" d="M167.08,-128.73C183.15,-117.96 210.63,-99.55 229.75,-86.74"/>
<polygon fill="midnightblue" stroke="midnightblue" points="231.77,-89.6 238.13,-81.13 227.87,-83.79 231.77,-89.6"/>
</g>
<!-- Node9&#45;&gt;Node6 -->
<g id="edge13" class="edge">
<title>Node9&#45;&gt;Node6</title>
<path fill="none" stroke="midnightblue" d="M547.63,-148.01C563.82,-157.46 587.23,-172.88 602.92,-184.29"/>
<polygon fill="midnightblue" stroke="midnightblue" points="601.05,-187.27 611.15,-190.48 605.25,-181.67 601.05,-187.27"/>
</g>
<!-- Node10&#45;&gt;Node3 -->
<g id="edge15" class="edge">
<title>Node10&#45;&gt;Node3</title>
<path fill="none" stroke="midnightblue" d="M359.58,-148.22C387.86,-170.51 453.01,-231.02 511,-277 524.16,-287.44 539.27,-298.32 551.41,-307.3"/>
<polygon fill="midnightblue" stroke="midnightblue" points="549.56,-310.29 559.67,-313.47 553.75,-304.68 549.56,-310.29"/>
</g>
<!-- Node10&#45;&gt;Node6 -->
<g id="edge16" class="edge">
<title>Node10&#45;&gt;Node6</title>
<path fill="none" stroke="midnightblue" d="M389.94,-148.01C440.77,-158.58 523.77,-176.64 574.73,-188.19"/>
<polygon fill="midnightblue" stroke="midnightblue" points="574.26,-191.67 584.79,-190.48 575.81,-184.84 574.26,-191.67"/>
</g>
<!-- Node11&#45;&gt;Node6 -->
<g id="edge18" class="edge">
<title>Node11&#45;&gt;Node6</title>
<path fill="none" stroke="midnightblue" d="M789.16,-153.52C752.64,-164.01 701.4,-178.14 664.66,-187.86"/>
<polygon fill="midnightblue" stroke="midnightblue" points="663.49,-184.55 654.7,-190.48 665.27,-191.32 663.49,-184.55"/>
</g>
<!-- Node12 -->
<g id="node12" class="node">
<title>Node12</title>
<g id="a_node12"><a xlink:href="constraints_2basic_8h.html" target="_top" xlink:title="Functions and data structures for constraining secondary structure predictions and evaluation.">
<polygon fill="none" stroke="black" points="774.5,-56.5 774.5,-86.5 893.5,-86.5 893.5,-56.5 774.5,-56.5"/>
<text text-anchor="start" x="782.5" y="-74.5" font-family="Helvetica,sans-Serif" font-size="10.00">ViennaRNA/constraints</text>
<text text-anchor="middle" x="834" y="-63.5" font-family="Helvetica,sans-Serif" font-size="10.00">/basic.h</text>
</a>
</g>
</g>
<!-- Node11&#45;&gt;Node12 -->
<g id="edge19" class="edge">
<title>Node11&#45;&gt;Node12</title>
<path fill="none" stroke="midnightblue" d="M834,-123.4C834,-115.64 834,-105.81 834,-96.86"/>
<polygon fill="midnightblue" stroke="midnightblue" points="837.5,-96.58 834,-86.58 830.5,-96.58 837.5,-96.58"/>
</g>
<!-- Node12&#45;&gt;Node6 -->
<g id="edge20" class="edge">
<title>Node12&#45;&gt;Node6</title>
<path fill="none" stroke="midnightblue" d="M774.4,-81.19C724.34,-89.68 658.02,-104.06 639,-123 624,-137.94 619.84,-162.7 618.88,-179.88"/>
<polygon fill="midnightblue" stroke="midnightblue" points="615.37,-180.27 618.64,-190.35 622.37,-180.43 615.37,-180.27"/>
</g>
<!-- Node13&#45;&gt;Node3 -->
<g id="edge22" class="edge">
<title>Node13&#45;&gt;Node3</title>
<path fill="none" stroke="midnightblue" d="M949.56,-153.6C904.33,-179.23 796.81,-234.73 704,-277 678.68,-288.53 649.94,-300.48 625.76,-309.86"/>
<polygon fill="midnightblue" stroke="midnightblue" points="624.47,-306.61 616.39,-313.45 626.98,-313.14 624.47,-306.61"/>
</g>
<!-- Node13&#45;&gt;Node6 -->
<g id="edge23" class="edge">
<title>Node13&#45;&gt;Node6</title>
<path fill="none" stroke="midnightblue" d="M914.51,-153.53C913.67,-153.69 912.83,-153.85 912,-154 839.04,-167.55 755.05,-180.54 695.68,-189.05"/>
<polygon fill="midnightblue" stroke="midnightblue" points="695.04,-185.6 685.63,-190.48 696.03,-192.53 695.04,-185.6"/>
</g>
<!-- Node13&#45;&gt;Node12 -->
<g id="edge24" class="edge">
<title>Node13&#45;&gt;Node12</title>
<path fill="none" stroke="midnightblue" d="M941.27,-123.4C921.26,-113.9 894.65,-101.28 872.95,-90.98"/>
<polygon fill="midnightblue" stroke="midnightblue" points="874.2,-87.7 863.67,-86.58 871.2,-94.03 874.2,-87.7"/>
</g>
<!-- Node14&#45;&gt;Node6 -->
<g id="edge26" class="edge">
<title>Node14&#45;&gt;Node6</title>
<path fill="none" stroke="midnightblue" d="M1079.63,-148.04C1069.98,-150.2 1059.1,-152.37 1049,-154 929.46,-173.27 789.44,-186.37 702.4,-193.27"/>
<polygon fill="midnightblue" stroke="midnightblue" points="702.01,-189.79 692.32,-194.06 702.56,-196.76 702.01,-189.79"/>
</g>
<!-- Node16&#45;&gt;Node1 -->
<g id="edge31" class="edge">
<title>Node16&#45;&gt;Node1</title>
<path fill="none" stroke="midnightblue" d="M537.86,-276.55C522.39,-284.71 505.76,-296.66 497,-313 486.67,-332.27 499.22,-356.17 510.66,-371.96"/>
<polygon fill="midnightblue" stroke="midnightblue" points="508.19,-374.49 517.09,-380.23 513.72,-370.19 508.19,-374.49"/>
</g>
<!-- Node16&#45;&gt;Node3 -->
<g id="edge29" class="edge">
<title>Node16&#45;&gt;Node3</title>
<path fill="none" stroke="midnightblue" d="M578.67,-276.58C579.7,-284.41 579.99,-294.37 579.55,-303.4"/>
<polygon fill="midnightblue" stroke="midnightblue" points="576.06,-303.13 578.68,-313.4 583.03,-303.74 576.06,-303.13"/>
</g>
<!-- Node16&#45;&gt;Node6 -->
<g id="edge30" class="edge">
<title>Node16&#45;&gt;Node6</title>
<path fill="none" stroke="midnightblue" d="M578.06,-246.4C583.75,-237.58 592.48,-226.18 600.55,-217.02"/>
<polygon fill="midnightblue" stroke="midnightblue" points="603.14,-219.37 607.38,-209.66 598.01,-214.61 603.14,-219.37"/>
</g>
</g>
</svg>
        <g id="navigator" transform="translate(0 0)" fill="#404254">
                <rect fill="#f2f5e9" fill-opacity="0.5" stroke="#606060" stroke-width=".5" x="0" y="0" width="60" height="60"/>
                <use id="zoomplus" xlink:href="#zoomPlus" x="17" y="9" onmousedown="handleZoom(evt,'in')"/>
                <use id="zoomminus" xlink:href="#zoomMin" x="42" y="9" onmousedown="handleZoom(evt,'out')"/>
                <use id="reset" xlink:href="#resetDef" x="30" y="36" onmousedown="handleReset()"/>
                <g id="arrowUp" xlink:href="#dirArrow" transform="translate(30 24)" onmousedown="handlePan(0,-1)">
                  <use xlink:href="#rim" fill="#404040">
                        <set attributeName="fill" to="#808080" begin="arrowUp.mouseover" end="arrowUp.mouseout"/>
                  </use>
                  <path fill="none" stroke="white" stroke-width="1.5" d="M0,-3.0v7 M-2.5,-0.5L0,-3.0L2.5,-0.5"/>
                </g>
                <g id="arrowRight" xlink:href="#dirArrow" transform="rotate(90) translate(36 -43)" onmousedown="handlePan(1,0)">
                  <use xlink:href="#rim" fill="#404040">
                        <set attributeName="fill" to="#808080" begin="arrowRight.mouseover" end="arrowRight.mouseout"/>
                  </use>
                  <path fill="none" stroke="white" stroke-width="1.5" d="M0,-3.0v7 M-2.5,-0.5L0,-3.0L2.5,-0.5"/>
                </g>
                <g id="arrowDown" xlink:href="#dirArrow" transform="rotate(180) translate(-30 -48)" onmousedown="handlePan(0,1)">
                  <use xlink:href="#rim" fill="#404040">
                        <set attributeName="fill" to="#808080" begin="arrowDown.mouseover" end="arrowDown.mouseout"/>
                  </use>
                  <path fill="none" stroke="white" stroke-width="1.5" d="M0,-3.0v7 M-2.5,-0.5L0,-3.0L2.5,-0.5"/>
                </g>
                <g id="arrowLeft" xlink:href="#dirArrow" transform="rotate(270) translate(-36 17)" onmousedown="handlePan(-1,0)">
                  <use xlink:href="#rim" fill="#404040">
                        <set attributeName="fill" to="#808080" begin="arrowLeft.mouseover" end="arrowLeft.mouseout"/>
                  </use>
                  <path fill="none" stroke="white" stroke-width="1.5" d="M0,-3.0v7 M-2.5,-0.5L0,-3.0L2.5,-0.5"/>
                </g>
        </g>
        <svg viewBox="0 0 15 15" width="100%" height="30px" preserveAspectRatio="xMaxYMin meet">
         <g id="arrow_out" transform="scale(0.3 0.3)">
          <a xlink:href="utils_2structures_8h__incl_org.svg" target="_base">
           <rect id="button" ry="5" rx="5" y="6" x="6" height="38" width="38"
                fill="#f2f5e9" fill-opacity="0.5" stroke="#606060" stroke-width="1.0"/>
           <path id="arrow"
             d="M 11.500037,31.436501 C 11.940474,20.09759 22.043105,11.32322 32.158766,21.979434 L 37.068811,17.246167 C 37.068811,17.246167 37.088388,32 37.088388,32 L 22.160133,31.978069 C 22.160133,31.978069 26.997745,27.140456 26.997745,27.140456 C 18.528582,18.264221 13.291696,25.230495 11.500037,31.436501 z"
             style="fill:#404040;"/>
          </a>
         </g>
        </svg>
</svg>
