<?xml version="1.0" encoding="UTF-8" standalone="no"?>
<!DOCTYPE svg PUBLIC "-//W3C//DTD SVG 1.1//EN"
 "http://www.w3.org/Graphics/SVG/1.1/DTD/svg11.dtd">
<!-- Generated by graphviz version 2.47.0 (0)
 -->
<!-- Title: ViennaRNA/utils/alignments.h Pages: 1 -->
<svg width="1241pt" height="397pt"
 viewBox="0.00 0.00 1241.31 397.00" xmlns="http://www.w3.org/2000/svg" xmlns:xlink="http://www.w3.org/1999/xlink">
<g id="graph0" class="graph" transform="scale(1 1) rotate(0) translate(4 393)">
<title>ViennaRNA/utils/alignments.h</title>
<!-- Node1 -->
<g id="node1" class="node">
<title>Node1</title>
<g id="a_node1"><a xlink:title="Various utility&#45; and helper&#45;functions for sequence alignments and comparative structure prediction.">
<polygon fill="#bfbfbf" stroke="black" points="942.31,-369.5 942.31,-388.5 1090.31,-388.5 1090.31,-369.5 942.31,-369.5"/>
<text text-anchor="middle" x="1016.31" y="-376.5" font-family="Helvetica,sans-Serif" font-size="10.00">ViennaRNA/utils/alignments.h</text>
</a>
</g>
</g>
<!-- Node2 -->
<g id="node2" class="node">
<title>Node2</title>
<g id="a_node2"><a xlink:href="fold__compound_8h.html" target="_top" xlink:title="The Basic Fold Compound API.">
<polygon fill="none" stroke="black" points="425.31,-313.5 425.31,-332.5 571.31,-332.5 571.31,-313.5 425.31,-313.5"/>
<text text-anchor="middle" x="498.31" y="-320.5" font-family="Helvetica,sans-Serif" font-size="10.00">ViennaRNA/fold_compound.h</text>
</a>
</g>
</g>
<!-- Node1&#45;&gt;Node2 -->
<g id="edge1" class="edge">
<title>Node1&#45;&gt;Node2</title>
<path fill="none" stroke="midnightblue" d="M942.1,-370.26C846.62,-360.31 681.25,-343.07 581.59,-332.68"/>
<polygon fill="midnightblue" stroke="midnightblue" points="581.86,-329.19 571.56,-331.64 581.14,-336.15 581.86,-329.19"/>
</g>
<!-- Node3 -->
<g id="node3" class="node">
<title>Node3</title>
<g id="a_node3"><a xlink:href="model_8h.html" target="_top" xlink:title="The model details data structure and its corresponding modifiers.">
<polygon fill="none" stroke="black" points="963.31,-129 963.31,-148 1069.31,-148 1069.31,-129 963.31,-129"/>
<text text-anchor="middle" x="1016.31" y="-136" font-family="Helvetica,sans-Serif" font-size="10.00">ViennaRNA/model.h</text>
</a>
</g>
</g>
<!-- Node1&#45;&gt;Node3 -->
<g id="edge43" class="edge">
<title>Node1&#45;&gt;Node3</title>
<path fill="none" stroke="midnightblue" d="M1016.31,-369.23C1016.31,-334.6 1016.31,-206.93 1016.31,-158.4"/>
<polygon fill="midnightblue" stroke="midnightblue" points="1019.81,-158.1 1016.31,-148.1 1012.81,-158.1 1019.81,-158.1"/>
</g>
<!-- Node16 -->
<g id="node16" class="node">
<title>Node16</title>
<g id="a_node16"><a xlink:title=" ">
<polygon fill="none" stroke="#bfbfbf" points="892.31,-0.5 892.31,-19.5 938.31,-19.5 938.31,-0.5 892.31,-0.5"/>
<text text-anchor="middle" x="915.31" y="-7.5" font-family="Helvetica,sans-Serif" font-size="10.00">stdio.h</text>
</a>
</g>
</g>
<!-- Node1&#45;&gt;Node16 -->
<g id="edge44" class="edge">
<title>Node1&#45;&gt;Node16</title>
<path fill="none" stroke="midnightblue" d="M1090.39,-370.82C1153.25,-360.15 1233.31,-333.68 1233.31,-268 1233.31,-268 1233.31,-268 1233.31,-137.5 1233.31,-76.73 1030.26,-32.3 948.67,-16.91"/>
<polygon fill="midnightblue" stroke="midnightblue" points="948.91,-13.39 938.44,-15.01 947.63,-20.28 948.91,-13.39"/>
</g>
<!-- Node2&#45;&gt;Node3 -->
<g id="edge2" class="edge">
<title>Node2&#45;&gt;Node3</title>
<path fill="none" stroke="midnightblue" d="M571.59,-315.61C624.55,-309.48 697.22,-297.96 758.31,-277 852.02,-244.85 952.81,-181.8 995.41,-153.65"/>
<polygon fill="midnightblue" stroke="midnightblue" points="997.44,-156.5 1003.82,-148.05 993.56,-150.68 997.44,-156.5"/>
</g>
<!-- Node4 -->
<g id="node4" class="node">
<title>Node4</title>
<g id="a_node4"><a xlink:href="params_2basic_8h.html" target="_top" xlink:title="Functions to deal with sets of energy parameters.">
<polygon fill="none" stroke="black" points="573.31,-257.5 573.31,-276.5 711.31,-276.5 711.31,-257.5 573.31,-257.5"/>
<text text-anchor="middle" x="642.31" y="-264.5" font-family="Helvetica,sans-Serif" font-size="10.00">ViennaRNA/params/basic.h</text>
</a>
</g>
</g>
<!-- Node2&#45;&gt;Node4 -->
<g id="edge3" class="edge">
<title>Node2&#45;&gt;Node4</title>
<path fill="none" stroke="midnightblue" d="M516.04,-313.44C538.18,-304.4 576.2,-290.06 604.83,-279.92"/>
<polygon fill="midnightblue" stroke="midnightblue" points="606.24,-283.13 614.52,-276.52 603.93,-276.52 606.24,-283.13"/>
</g>
<!-- Node8 -->
<g id="node8" class="node">
<title>Node8</title>
<g id="a_node8"><a xlink:href="dp__matrices_8h.html" target="_top" xlink:title="Functions to deal with standard dynamic programming (DP) matrices.">
<polygon fill="none" stroke="black" points="811.81,-129 811.81,-148 944.81,-148 944.81,-129 811.81,-129"/>
<text text-anchor="middle" x="878.31" y="-136" font-family="Helvetica,sans-Serif" font-size="10.00">ViennaRNA/dp_matrices.h</text>
</a>
</g>
</g>
<!-- Node2&#45;&gt;Node8 -->
<g id="edge36" class="edge">
<title>Node2&#45;&gt;Node8</title>
<path fill="none" stroke="midnightblue" d="M571.4,-315.68C613.91,-309.84 667.49,-298.61 711.31,-277 773.62,-246.28 830.92,-184.84 859.73,-155.63"/>
<polygon fill="midnightblue" stroke="midnightblue" points="862.47,-157.84 867.08,-148.3 857.53,-152.89 862.47,-157.84"/>
</g>
<!-- Node9 -->
<g id="node9" class="node">
<title>Node9</title>
<g id="a_node9"><a xlink:href="hard_8h.html" target="_top" xlink:title="Functions and data structures for handling of secondary structure hard constraints.">
<polygon fill="none" stroke="black" points="161.81,-123.5 161.81,-153.5 280.81,-153.5 280.81,-123.5 161.81,-123.5"/>
<text text-anchor="start" x="169.81" y="-141.5" font-family="Helvetica,sans-Serif" font-size="10.00">ViennaRNA/constraints</text>
<text text-anchor="middle" x="221.31" y="-130.5" font-family="Helvetica,sans-Serif" font-size="10.00">/hard.h</text>
</a>
</g>
</g>
<!-- Node2&#45;&gt;Node9 -->
<g id="edge37" class="edge">
<title>Node2&#45;&gt;Node9</title>
<path fill="none" stroke="midnightblue" d="M482.25,-313.44C436.12,-285.95 304.25,-199.36 247.54,-159.7"/>
<polygon fill="midnightblue" stroke="midnightblue" points="249.3,-156.66 239.11,-153.75 245.27,-162.38 249.3,-156.66"/>
</g>
<!-- Node11 -->
<g id="node11" class="node">
<title>Node11</title>
<g id="a_node11"><a xlink:href="soft_8h.html" target="_top" xlink:title="Functions and data structures for secondary structure soft constraints.">
<polygon fill="none" stroke="black" points="298.81,-123.5 298.81,-153.5 417.81,-153.5 417.81,-123.5 298.81,-123.5"/>
<text text-anchor="start" x="306.81" y="-141.5" font-family="Helvetica,sans-Serif" font-size="10.00">ViennaRNA/constraints</text>
<text text-anchor="middle" x="358.31" y="-130.5" font-family="Helvetica,sans-Serif" font-size="10.00">/soft.h</text>
</a>
</g>
</g>
<!-- Node2&#45;&gt;Node11 -->
<g id="edge38" class="edge">
<title>Node2&#45;&gt;Node11</title>
<path fill="none" stroke="midnightblue" d="M488.79,-313.25C471.44,-291.46 436.28,-233.42 400.31,-190 392.04,-180.01 382.06,-169.79 373.73,-161.18"/>
<polygon fill="midnightblue" stroke="midnightblue" points="376.09,-158.59 366.65,-153.78 371.04,-163.43 376.09,-158.59"/>
</g>
<!-- Node12 -->
<g id="node12" class="node">
<title>Node12</title>
<g id="a_node12"><a xlink:href="grammar_8h.html" target="_top" xlink:title="Implementations for the RNA folding grammar.">
<polygon fill="none" stroke="black" points="1087.81,-129 1087.81,-148 1204.81,-148 1204.81,-129 1087.81,-129"/>
<text text-anchor="middle" x="1146.31" y="-136" font-family="Helvetica,sans-Serif" font-size="10.00">ViennaRNA/grammar.h</text>
</a>
</g>
</g>
<!-- Node2&#45;&gt;Node12 -->
<g id="edge39" class="edge">
<title>Node2&#45;&gt;Node12</title>
<path fill="none" stroke="midnightblue" d="M571.6,-314.69C630.34,-308.04 714.41,-296.27 786.31,-277 911.72,-243.39 1053.55,-179.3 1115.23,-152.15"/>
<polygon fill="midnightblue" stroke="midnightblue" points="1116.67,-155.34 1124.42,-148.12 1113.86,-148.93 1116.67,-155.34"/>
</g>
<!-- Node13 -->
<g id="node13" class="node">
<title>Node13</title>
<g id="a_node13"><a xlink:href="structured__domains_8h.html" target="_top" xlink:title="This module provides interfaces that deal with additional structured domains in the folding grammar.">
<polygon fill="none" stroke="black" points="28.81,-123.5 28.81,-153.5 143.81,-153.5 143.81,-123.5 28.81,-123.5"/>
<text text-anchor="start" x="36.81" y="-141.5" font-family="Helvetica,sans-Serif" font-size="10.00">ViennaRNA/structured</text>
<text text-anchor="middle" x="86.31" y="-130.5" font-family="Helvetica,sans-Serif" font-size="10.00">_domains.h</text>
</a>
</g>
</g>
<!-- Node2&#45;&gt;Node13 -->
<g id="edge40" class="edge">
<title>Node2&#45;&gt;Node13</title>
<path fill="none" stroke="midnightblue" d="M424.92,-319.04C313.59,-313.8 112.54,-301.1 90.31,-277 62.22,-246.54 70.37,-194.19 78.54,-163.63"/>
<polygon fill="midnightblue" stroke="midnightblue" points="81.97,-164.37 81.38,-153.8 75.25,-162.44 81.97,-164.37"/>
</g>
<!-- Node14 -->
<g id="node14" class="node">
<title>Node14</title>
<g id="a_node14"><a xlink:href="unstructured__domains_8h.html" target="_top" xlink:title="Functions to modify unstructured domains, e.g. to incorporate ligands binding to unpaired stretches.">
<polygon fill="none" stroke="black" points="435.81,-123.5 435.81,-153.5 560.81,-153.5 560.81,-123.5 435.81,-123.5"/>
<text text-anchor="start" x="443.81" y="-141.5" font-family="Helvetica,sans-Serif" font-size="10.00">ViennaRNA/unstructured</text>
<text text-anchor="middle" x="498.31" y="-130.5" font-family="Helvetica,sans-Serif" font-size="10.00">_domains.h</text>
</a>
</g>
</g>
<!-- Node2&#45;&gt;Node14 -->
<g id="edge41" class="edge">
<title>Node2&#45;&gt;Node14</title>
<path fill="none" stroke="midnightblue" d="M495.2,-313.2C490.98,-286.33 490.43,-204.74 493.56,-163.67"/>
<polygon fill="midnightblue" stroke="midnightblue" points="497.04,-163.98 494.48,-153.69 490.07,-163.33 497.04,-163.98"/>
</g>
<!-- Node17 -->
<g id="node17" class="node">
<title>Node17</title>
<g id="a_node17"><a xlink:href="sequence_8h.html" target="_top" xlink:title="Functions and data structures related to sequence representations ,.">
<polygon fill="none" stroke="black" points="99.31,-257.5 99.31,-276.5 221.31,-276.5 221.31,-257.5 99.31,-257.5"/>
<text text-anchor="middle" x="160.31" y="-264.5" font-family="Helvetica,sans-Serif" font-size="10.00">ViennaRNA/sequence.h</text>
</a>
</g>
</g>
<!-- Node2&#45;&gt;Node17 -->
<g id="edge34" class="edge">
<title>Node2&#45;&gt;Node17</title>
<path fill="none" stroke="midnightblue" d="M439.67,-313.44C377.61,-303.87 280.43,-288.36 218.54,-278.17"/>
<polygon fill="midnightblue" stroke="midnightblue" points="218.98,-274.69 208.54,-276.52 217.84,-281.6 218.98,-274.69"/>
</g>
<!-- Node18 -->
<g id="node18" class="node">
<title>Node18</title>
<g id="a_node18"><a xlink:href="zscore_8h_source.html" target="_top" xlink:title=" ">
<polygon fill="none" stroke="black" points="239.81,-257.5 239.81,-276.5 348.81,-276.5 348.81,-257.5 239.81,-257.5"/>
<text text-anchor="middle" x="294.31" y="-264.5" font-family="Helvetica,sans-Serif" font-size="10.00">ViennaRNA/zscore.h</text>
</a>
</g>
</g>
<!-- Node2&#45;&gt;Node18 -->
<g id="edge42" class="edge">
<title>Node2&#45;&gt;Node18</title>
<path fill="none" stroke="midnightblue" d="M465.99,-313.44C430.92,-304.16 374.81,-289.31 336.35,-279.13"/>
<polygon fill="midnightblue" stroke="midnightblue" points="337.05,-275.69 326.49,-276.52 335.26,-282.46 337.05,-275.69"/>
</g>
<!-- Node4&#45;&gt;Node2 -->
<g id="edge32" class="edge">
<title>Node4&#45;&gt;Node2</title>
<path fill="none" stroke="midnightblue" d="M624.68,-276.52C602.59,-285.55 564.58,-299.88 535.93,-310.04"/>
<polygon fill="midnightblue" stroke="midnightblue" points="534.5,-306.83 526.22,-313.44 536.81,-313.44 534.5,-306.83"/>
</g>
<!-- Node4&#45;&gt;Node3 -->
<g id="edge33" class="edge">
<title>Node4&#45;&gt;Node3</title>
<path fill="none" stroke="midnightblue" d="M667.73,-257.4C732.89,-235.36 906.07,-176.79 980.97,-151.45"/>
<polygon fill="midnightblue" stroke="midnightblue" points="982.51,-154.63 990.87,-148.11 980.27,-148 982.51,-154.63"/>
</g>
<!-- Node5 -->
<g id="node5" class="node">
<title>Node5</title>
<g id="a_node5"><a xlink:href="constants_8h.html" target="_top" xlink:title="Energy parameter constants.">
<polygon fill="none" stroke="black" points="635.31,-129 635.31,-148 793.31,-148 793.31,-129 635.31,-129"/>
<text text-anchor="middle" x="714.31" y="-136" font-family="Helvetica,sans-Serif" font-size="10.00">ViennaRNA/params/constants.h</text>
</a>
</g>
</g>
<!-- Node4&#45;&gt;Node5 -->
<g id="edge4" class="edge">
<title>Node4&#45;&gt;Node5</title>
<path fill="none" stroke="midnightblue" d="M650.5,-257.21C658.32,-248.49 670.11,-234.51 678.31,-221 690.69,-200.61 701.22,-175.21 707.63,-158.23"/>
<polygon fill="midnightblue" stroke="midnightblue" points="711.07,-159.03 711.24,-148.43 704.5,-156.61 711.07,-159.03"/>
</g>
<!-- Node7 -->
<g id="node7" class="node">
<title>Node7</title>
<g id="a_node7"><a xlink:href="datastructures_2basic_8h.html" target="_top" xlink:title="Various data structures and pre&#45;processor macros.">
<polygon fill="none" stroke="black" points="535.31,-190.5 535.31,-220.5 669.31,-220.5 669.31,-190.5 535.31,-190.5"/>
<text text-anchor="start" x="543.31" y="-208.5" font-family="Helvetica,sans-Serif" font-size="10.00">ViennaRNA/datastructures</text>
<text text-anchor="middle" x="602.31" y="-197.5" font-family="Helvetica,sans-Serif" font-size="10.00">/basic.h</text>
</a>
</g>
</g>
<!-- Node4&#45;&gt;Node7 -->
<g id="edge6" class="edge">
<title>Node4&#45;&gt;Node7</title>
<path fill="none" stroke="midnightblue" d="M631.68,-257.48C625.11,-250.09 617.14,-239.08 610.98,-229.17"/>
<polygon fill="midnightblue" stroke="midnightblue" points="613.99,-227.38 605.91,-220.52 607.95,-230.92 613.99,-227.38"/>
</g>
<!-- Node6 -->
<g id="node6" class="node">
<title>Node6</title>
<g id="a_node6"><a xlink:title=" ">
<polygon fill="none" stroke="#bfbfbf" points="690.31,-62 690.31,-81 738.31,-81 738.31,-62 690.31,-62"/>
<text text-anchor="middle" x="714.31" y="-69" font-family="Helvetica,sans-Serif" font-size="10.00">limits.h</text>
</a>
</g>
</g>
<!-- Node5&#45;&gt;Node6 -->
<g id="edge5" class="edge">
<title>Node5&#45;&gt;Node6</title>
<path fill="none" stroke="midnightblue" d="M714.31,-128.73C714.31,-119.18 714.31,-103.62 714.31,-91.28"/>
<polygon fill="midnightblue" stroke="midnightblue" points="717.81,-91.13 714.31,-81.13 710.81,-91.13 717.81,-91.13"/>
</g>
<!-- Node7&#45;&gt;Node2 -->
<g id="edge8" class="edge">
<title>Node7&#45;&gt;Node2</title>
<path fill="none" stroke="midnightblue" d="M589.67,-220.55C570.28,-242.07 533.33,-283.11 512.86,-305.84"/>
<polygon fill="midnightblue" stroke="midnightblue" points="510.22,-303.55 506.13,-313.32 515.42,-308.23 510.22,-303.55"/>
</g>
<!-- Node7&#45;&gt;Node3 -->
<g id="edge9" class="edge">
<title>Node7&#45;&gt;Node3</title>
<path fill="none" stroke="midnightblue" d="M669.43,-196.64C740.47,-187.91 855.72,-172.56 954.31,-154 960.16,-152.9 966.29,-151.62 972.32,-150.29"/>
<polygon fill="midnightblue" stroke="midnightblue" points="973.34,-153.64 982.32,-148.01 971.79,-146.82 973.34,-153.64"/>
</g>
<!-- Node7&#45;&gt;Node4 -->
<g id="edge10" class="edge">
<title>Node7&#45;&gt;Node4</title>
<path fill="none" stroke="midnightblue" d="M617.57,-220.52C624.25,-228.86 631.54,-239.5 636.7,-248.39"/>
<polygon fill="midnightblue" stroke="midnightblue" points="633.73,-250.26 641.48,-257.48 639.92,-247 633.73,-250.26"/>
</g>
<!-- Node7&#45;&gt;Node5 -->
<g id="edge7" class="edge">
<title>Node7&#45;&gt;Node5</title>
<path fill="none" stroke="midnightblue" d="M626.62,-190.4C645.66,-179.34 671.99,-164.06 690.82,-153.13"/>
<polygon fill="midnightblue" stroke="midnightblue" points="692.76,-156.05 699.66,-148.01 689.25,-150 692.76,-156.05"/>
</g>
<!-- Node7&#45;&gt;Node8 -->
<g id="edge11" class="edge">
<title>Node7&#45;&gt;Node8</title>
<path fill="none" stroke="midnightblue" d="M656.19,-190.48C705.79,-178.42 778.71,-161.29 827.36,-150.28"/>
<polygon fill="midnightblue" stroke="midnightblue" points="828.37,-153.64 837.36,-148.03 826.84,-146.81 828.37,-153.64"/>
</g>
<!-- Node7&#45;&gt;Node9 -->
<g id="edge14" class="edge">
<title>Node7&#45;&gt;Node9</title>
<path fill="none" stroke="midnightblue" d="M535.29,-194.68C474.09,-185.49 380.88,-170.92 291.07,-154.28"/>
<polygon fill="midnightblue" stroke="midnightblue" points="291.46,-150.79 280.98,-152.4 290.17,-157.67 291.46,-150.79"/>
</g>
<!-- Node7&#45;&gt;Node11 -->
<g id="edge18" class="edge">
<title>Node7&#45;&gt;Node11</title>
<path fill="none" stroke="midnightblue" d="M544,-190.48C505.13,-180.47 454.34,-166.97 415.66,-156.38"/>
<polygon fill="midnightblue" stroke="midnightblue" points="416.17,-152.89 405.6,-153.61 414.32,-159.64 416.17,-152.89"/>
</g>
<!-- Node7&#45;&gt;Node12 -->
<g id="edge22" class="edge">
<title>Node7&#45;&gt;Node12</title>
<path fill="none" stroke="midnightblue" d="M669.61,-199.59C762.08,-192.33 933.46,-177.06 1078.31,-154 1085.2,-152.9 1092.44,-151.56 1099.53,-150.14"/>
<polygon fill="midnightblue" stroke="midnightblue" points="1100.66,-153.49 1109.74,-148.03 1099.24,-146.63 1100.66,-153.49"/>
</g>
<!-- Node7&#45;&gt;Node13 -->
<g id="edge24" class="edge">
<title>Node7&#45;&gt;Node13</title>
<path fill="none" stroke="midnightblue" d="M535.3,-199.18C449.18,-191.86 294.91,-177.08 153.96,-154.17"/>
<polygon fill="midnightblue" stroke="midnightblue" points="154.27,-150.68 143.84,-152.51 153.14,-157.58 154.27,-150.68"/>
</g>
<!-- Node7&#45;&gt;Node14 -->
<g id="edge25" class="edge">
<title>Node7&#45;&gt;Node14</title>
<path fill="none" stroke="midnightblue" d="M574.07,-190.4C558.29,-181.28 538.91,-169.29 523.63,-159.24"/>
<polygon fill="midnightblue" stroke="midnightblue" points="525.42,-156.22 515.16,-153.58 521.53,-162.04 525.42,-156.22"/>
</g>
<!-- Node15 -->
<g id="node15" class="node">
<title>Node15</title>
<g id="a_node15"><a xlink:href="utils_2structures_8h.html" target="_top" xlink:title="Various utility&#45; and helper&#45;functions for secondary structure parsing, converting,...">
<polygon fill="none" stroke="black" points="526.31,-62 526.31,-81 670.31,-81 670.31,-62 526.31,-62"/>
<text text-anchor="middle" x="598.31" y="-69" font-family="Helvetica,sans-Serif" font-size="10.00">ViennaRNA/utils/structures.h</text>
</a>
</g>
</g>
<!-- Node7&#45;&gt;Node15 -->
<g id="edge31" class="edge">
<title>Node7&#45;&gt;Node15</title>
<path fill="none" stroke="midnightblue" d="M597.51,-190.37C593.79,-166.4 592.15,-117.75 594.01,-91.06"/>
<polygon fill="midnightblue" stroke="midnightblue" points="597.49,-91.4 595.03,-81.1 590.53,-90.69 597.49,-91.4"/>
</g>
<!-- Node8&#45;&gt;Node2 -->
<g id="edge13" class="edge">
<title>Node8&#45;&gt;Node2</title>
<path fill="none" stroke="midnightblue" d="M875.29,-148.3C859.65,-173.01 797.48,-243.39 729.31,-277 683.57,-299.55 627.2,-310.8 581.54,-316.42"/>
<polygon fill="midnightblue" stroke="midnightblue" points="580.9,-312.97 571.37,-317.6 581.71,-319.92 580.9,-312.97"/>
</g>
<!-- Node8&#45;&gt;Node7 -->
<g id="edge12" class="edge">
<title>Node8&#45;&gt;Node7</title>
<path fill="none" stroke="midnightblue" d="M846.84,-148.03C805.79,-158.21 732.93,-175.47 677.34,-188.23"/>
<polygon fill="midnightblue" stroke="midnightblue" points="676.5,-184.83 667.53,-190.48 678.06,-191.66 676.5,-184.83"/>
</g>
<!-- Node9&#45;&gt;Node2 -->
<g id="edge15" class="edge">
<title>Node9&#45;&gt;Node2</title>
<path fill="none" stroke="midnightblue" d="M246.78,-153.75C302.24,-187.74 432.03,-273.24 480.15,-307.49"/>
<polygon fill="midnightblue" stroke="midnightblue" points="478.24,-310.42 488.4,-313.44 482.34,-304.75 478.24,-310.42"/>
</g>
<!-- Node10 -->
<g id="node10" class="node">
<title>Node10</title>
<g id="a_node10"><a xlink:href="constraints_2basic_8h.html" target="_top" xlink:title="Functions and data structures for constraining secondary structure predictions and evaluation.">
<polygon fill="none" stroke="black" points="161.81,-56.5 161.81,-86.5 280.81,-86.5 280.81,-56.5 161.81,-56.5"/>
<text text-anchor="start" x="169.81" y="-74.5" font-family="Helvetica,sans-Serif" font-size="10.00">ViennaRNA/constraints</text>
<text text-anchor="middle" x="221.31" y="-63.5" font-family="Helvetica,sans-Serif" font-size="10.00">/basic.h</text>
</a>
</g>
</g>
<!-- Node9&#45;&gt;Node10 -->
<g id="edge16" class="edge">
<title>Node9&#45;&gt;Node10</title>
<path fill="none" stroke="midnightblue" d="M221.31,-123.4C221.31,-115.64 221.31,-105.81 221.31,-96.86"/>
<polygon fill="midnightblue" stroke="midnightblue" points="224.81,-96.58 221.31,-86.58 217.81,-96.58 224.81,-96.58"/>
</g>
<!-- Node10&#45;&gt;Node2 -->
<g id="edge17" class="edge">
<title>Node10&#45;&gt;Node2</title>
<path fill="none" stroke="midnightblue" d="M161.63,-79.32C108.57,-86.75 36.75,-100.67 19.31,-123 -25.41,-180.29 15.5,-234.3 74.31,-277 126.97,-315.24 307.31,-322.18 415.1,-322.77"/>
<polygon fill="midnightblue" stroke="midnightblue" points="415.29,-326.27 425.3,-322.81 415.31,-319.27 415.29,-326.27"/>
</g>
<!-- Node11&#45;&gt;Node2 -->
<g id="edge20" class="edge">
<title>Node11&#45;&gt;Node2</title>
<path fill="none" stroke="midnightblue" d="M381.69,-153.57C393.58,-163.32 407.42,-176.85 418.31,-190 449.93,-228.16 480.91,-277.62 493.55,-303.83"/>
<polygon fill="midnightblue" stroke="midnightblue" points="490.46,-305.5 497.69,-313.25 496.87,-302.68 490.46,-305.5"/>
</g>
<!-- Node11&#45;&gt;Node7 -->
<g id="edge19" class="edge">
<title>Node11&#45;&gt;Node7</title>
<path fill="none" stroke="midnightblue" d="M416.96,-153.61C455.9,-163.63 506.7,-177.14 545.3,-187.71"/>
<polygon fill="midnightblue" stroke="midnightblue" points="544.77,-191.2 555.34,-190.48 546.62,-184.45 544.77,-191.2"/>
</g>
<!-- Node11&#45;&gt;Node10 -->
<g id="edge21" class="edge">
<title>Node11&#45;&gt;Node10</title>
<path fill="none" stroke="midnightblue" d="M328.59,-123.4C308.57,-113.9 281.97,-101.28 260.26,-90.98"/>
<polygon fill="midnightblue" stroke="midnightblue" points="261.52,-87.7 250.98,-86.58 258.52,-94.03 261.52,-87.7"/>
</g>
<!-- Node12&#45;&gt;Node2 -->
<g id="edge23" class="edge">
<title>Node12&#45;&gt;Node2</title>
<path fill="none" stroke="midnightblue" d="M1132.63,-148.12C1086.77,-172.35 936.43,-241.59 804.31,-277 730.47,-296.79 643.81,-308.67 581.54,-315.21"/>
<polygon fill="midnightblue" stroke="midnightblue" points="580.96,-311.75 571.37,-316.26 581.68,-318.72 580.96,-311.75"/>
</g>
<!-- Node14&#45;&gt;Node2 -->
<g id="edge27" class="edge">
<title>Node14&#45;&gt;Node2</title>
<path fill="none" stroke="midnightblue" d="M502.14,-153.69C505.86,-186.21 506.03,-266.09 502.65,-302.88"/>
<polygon fill="midnightblue" stroke="midnightblue" points="499.12,-302.86 501.42,-313.2 506.08,-303.68 499.12,-302.86"/>
</g>
<!-- Node14&#45;&gt;Node7 -->
<g id="edge26" class="edge">
<title>Node14&#45;&gt;Node7</title>
<path fill="none" stroke="midnightblue" d="M526.51,-153.58C542.28,-162.68 561.66,-174.68 576.95,-184.73"/>
<polygon fill="midnightblue" stroke="midnightblue" points="575.17,-187.75 585.43,-190.4 579.06,-181.93 575.17,-187.75"/>
</g>
<!-- Node14&#45;&gt;Node15 -->
<g id="edge28" class="edge">
<title>Node14&#45;&gt;Node15</title>
<path fill="none" stroke="midnightblue" d="M520.01,-123.4C536.78,-112.5 559.88,-97.48 576.65,-86.58"/>
<polygon fill="midnightblue" stroke="midnightblue" points="578.75,-89.39 585.23,-81.01 574.93,-83.52 578.75,-89.39"/>
</g>
<!-- Node15&#45;&gt;Node7 -->
<g id="edge30" class="edge">
<title>Node15&#45;&gt;Node7</title>
<path fill="none" stroke="midnightblue" d="M602.12,-81.1C606.26,-100.91 608.37,-150.38 606.94,-180.32"/>
<polygon fill="midnightblue" stroke="midnightblue" points="603.45,-180.16 606.26,-190.37 610.43,-180.64 603.45,-180.16"/>
</g>
<!-- Node15&#45;&gt;Node16 -->
<g id="edge29" class="edge">
<title>Node15&#45;&gt;Node16</title>
<path fill="none" stroke="midnightblue" d="M643.73,-61.98C708.36,-49.84 825.33,-27.89 882.32,-17.19"/>
<polygon fill="midnightblue" stroke="midnightblue" points="883.05,-20.62 892.23,-15.33 881.76,-13.74 883.05,-20.62"/>
</g>
<!-- Node17&#45;&gt;Node2 -->
<g id="edge35" class="edge">
<title>Node17&#45;&gt;Node2</title>
<path fill="none" stroke="midnightblue" d="M218.7,-276.52C280.65,-286.08 377.84,-301.59 439.83,-311.79"/>
<polygon fill="midnightblue" stroke="midnightblue" points="439.41,-315.27 449.84,-313.44 440.55,-308.36 439.41,-315.27"/>
</g>
</g>
</svg>
